<?xml version="1.0" encoding="UTF-8" standalone="no"?>
<svg
   xmlns:dc="http://purl.org/dc/elements/1.1/"
   xmlns:cc="http://creativecommons.org/ns#"
   xmlns:rdf="http://www.w3.org/1999/02/22-rdf-syntax-ns#"
   xmlns:svg="http://www.w3.org/2000/svg"
   xmlns="http://www.w3.org/2000/svg"
   version="1.1"
   id="svg885"
   xml:space="preserve"
   width="100"
   height="100"
   viewBox="0 0 100 100"><metadata
   id="metadata3395"><rdf:RDF><cc:Work
       rdf:about=""><dc:format>image/svg+xml</dc:format><dc:type
         rdf:resource="http://purl.org/dc/dcmitype/StillImage" /><dc:title></dc:title></cc:Work></rdf:RDF></metadata><defs
   id="defs3393" />
<g
   id="g4134"
   transform="matrix(0.99976493,0,0,0.99976507,-0.68494639,0.01174593)"
   style="display:inline"><path
     d="m 100.70862,50.000002 c 0,20.050172 -11.801143,37.34807 -28.836352,45.314809 -2.560181,1.199718 -5.234065,2.187716 -8.005958,2.944409 -1.666274,0.450874 -3.363914,0.819415 -5.088998,1.101701 -0.474402,0.07842 -0.948796,0.148985 -1.427115,0.207794 -2.175958,0.294049 -4.395044,0.443035 -6.653335,0.443035 -27.620949,0 -50.01175456,-22.390811 -50.01175456,-50.011748 0,-27.620946 22.39080556,-50.01175069 50.01175456,-50.01175069 18.877912,0 35.309326,10.46028169 43.817135,25.89978269 0.9488,1.717242 1.795648,3.497211 2.540582,5.328153 0.415585,1.023288 0.799812,2.066184 1.148745,3.124754 0.313648,0.952717 0.599859,1.917196 0.858622,2.89344 1.074264,4.073543 1.646674,8.354895 1.646674,12.765621 z"
     style="display:inline;fill:#2453ff;fill-opacity:1;fill-rule:nonzero;stroke:none;stroke-width:0.392065"
     id="path1209" /><path
     d="m 100.70862,50.000002 c 0,20.050172 -11.801143,37.34807 -28.836352,45.314809 -2.560181,1.199718 -5.234065,2.187716 -8.005958,2.944409 -1.666274,0.450874 -3.363914,0.819415 -5.088998,1.101701 -0.474402,0.07842 -0.948796,0.148985 -1.427115,0.207794 L 35.739602,89.418169 61.933432,51.258529 53.703997,47.780921 39.969975,38.249832 64.583788,10.581839 94.513997,25.888038 c 0.9488,1.717246 1.795648,3.497215 2.540582,5.328157 0.415585,1.023288 0.799812,2.06618 1.148745,3.124754 0.313648,0.952713 0.599859,1.917195 0.858622,2.893436 1.074264,4.073539 1.646674,8.354891 1.646674,12.765617 z"
     style="display:inline;fill:#274393;fill-opacity:1;fill-rule:nonzero;stroke:none;stroke-width:0.392065"
     id="path1211" /><path
     d="M 34.673187,10.581831 H 64.583792 L 49.093317,42.150866 H 76.337888 L 35.739602,89.418169 46.423362,57.586446 H 25.055843 Z"
     style="display:inline;fill:#ffce01;fill-opacity:1;fill-rule:nonzero;stroke:none;stroke-width:0.392065"
     id="path1213" /><path
     d="m 67.343927,32.839334 1.913275,3.497215 3.497212,1.913275 -3.497212,1.913271 -1.913275,3.497216 -1.913279,-3.497216 -3.497216,-1.913271 3.497216,-1.913275 z"
     style="display:inline;fill:#ffffff;fill-opacity:1;fill-rule:nonzero;stroke:none;stroke-width:0.392065"
     id="path1215" /><path
     d="m 74.459895,38.249824 1.29382,2.364149 2.368063,1.297734 -2.368063,1.293813 -1.29382,2.364149 -1.29381,-2.364149 -2.36807,-1.293813 2.36807,-1.297734 z"
     style="display:inline;opacity:0.9985;fill:#ffffff;fill-opacity:1;fill-rule:nonzero;stroke:none;stroke-width:0.392065"
     id="path1217" /></g></svg>
