<?xml version="1.0" encoding="UTF-8" standalone="no"?>
<svg
   xmlns:dc="http://purl.org/dc/elements/1.1/"
   xmlns:cc="http://creativecommons.org/ns#"
   xmlns:rdf="http://www.w3.org/1999/02/22-rdf-syntax-ns#"
   xmlns:svg="http://www.w3.org/2000/svg"
   xmlns="http://www.w3.org/2000/svg"
   version="1.1"
   id="svg885"
   xml:space="preserve"
   width="100"
   height="100"
   viewBox="0 0 100 100"><metadata
   id="metadata3395"><rdf:RDF><cc:Work
       rdf:about=""><dc:format>image/svg+xml</dc:format><dc:type
         rdf:resource="http://purl.org/dc/dcmitype/StillImage" /><dc:title></dc:title></cc:Work></rdf:RDF></metadata><defs
   id="defs3393" />
<g
   id="g34525"><path
     d="m 100,50.000001 c 0,20.045462 -11.798369,37.339296 -28.829573,45.304164 -2.55958,1.199436 -5.232835,2.187202 -8.004076,2.943717 -1.665883,0.450768 -3.363124,0.819222 -5.087802,1.101442 -0.474291,0.0784 -0.948573,0.14895 -1.42678,0.207745 C 54.476323,99.851049 52.257758,100 49.999998,100 22.385542,100 0,77.614449 0,50.000001 0,22.385544 22.385542,0 49.999998,0 c 18.873475,0 35.301026,10.457824 43.806835,25.893698 0.948577,1.716839 1.795226,3.496389 2.539985,5.326901 0.415487,1.023048 0.799624,2.065699 1.148475,3.12402 0.313574,0.952493 0.599718,1.916746 0.85842,2.89276 C 99.427725,41.309965 100,45.590312 100,50.000001 Z"
     style="display:inline;fill:#2453ff;fill-opacity:1;fill-rule:nonzero;stroke:none;stroke-width:0.391973"
     id="path1209" /><path
     d="m 100,50.000001 c 0,20.045462 -11.798369,37.339296 -28.829573,45.304164 -2.55958,1.199436 -5.232835,2.187202 -8.004076,2.943717 -1.665883,0.450768 -3.363124,0.819222 -5.087802,1.101442 -0.474291,0.0784 -0.948573,0.14895 -1.42678,0.207745 L 35.046254,89.408908 61.233927,51.258233 53.006426,47.781442 39.275633,38.252592 63.88366,10.591099 93.806833,25.893702 c 0.948577,1.716843 1.795226,3.496393 2.539985,5.326905 0.415487,1.023048 0.799624,2.065695 1.148475,3.12402 0.313574,0.952489 0.599718,1.916745 0.85842,2.892756 C 99.427725,41.309965 100,45.590312 100,50.000001 Z"
     style="display:inline;fill:#274393;fill-opacity:1;fill-rule:nonzero;stroke:none;stroke-width:0.391973"
     id="path1211" /><path
     d="M 33.98009,10.591091 H 63.883664 L 48.39683,42.152709 H 75.634997 L 35.046254,89.408908 45.727503,57.584663 H 24.365007 Z"
     style="display:inline;fill:#ffce01;fill-opacity:1;fill-rule:nonzero;stroke:none;stroke-width:0.391973"
     id="path1213" /><path
     d="m 66.64315,32.843365 1.912825,3.496393 3.49639,1.912826 -3.49639,1.912821 -1.912825,3.496395 -1.912829,-3.496395 -3.496394,-1.912821 3.496394,-1.912826 z"
     style="display:inline;fill:#ffffff;fill-opacity:1;fill-rule:nonzero;stroke:none;stroke-width:0.391973"
     id="path1215" /><path
     d="m 73.757445,38.252584 1.293516,2.363593 2.367507,1.29743 -2.367507,1.293509 -1.293516,2.363593 -1.293506,-2.363593 -2.367513,-1.293509 2.367513,-1.29743 z"
     style="display:inline;opacity:0.9985;fill:#ffffff;fill-opacity:1;fill-rule:nonzero;stroke:none;stroke-width:0.391973"
     id="path1217" /></g></svg>
