<?xml version="1.0" encoding="UTF-8" standalone="no"?>
<svg
   xmlns:dc="http://purl.org/dc/elements/1.1/"
   xmlns:cc="http://creativecommons.org/ns#"
   xmlns:rdf="http://www.w3.org/1999/02/22-rdf-syntax-ns#"
   xmlns:svg="http://www.w3.org/2000/svg"
   xmlns="http://www.w3.org/2000/svg"
   version="1.1"
   id="svg885"
   xml:space="preserve"
   width="100"
   height="100"
   viewBox="0 0 100 100"><metadata
   id="metadata4301"><rdf:RDF><cc:Work
       rdf:about=""><dc:format>image/svg+xml</dc:format><dc:type
         rdf:resource="http://purl.org/dc/dcmitype/StillImage" /><dc:title></dc:title></cc:Work></rdf:RDF></metadata><defs
   id="defs4299"><filter
     style="color-interpolation-filters:sRGB"
     id="filter12425"
     x="-0.0018"
     width="1.0036"
     y="-0.0018"
     height="1.0036"><feGaussianBlur
       stdDeviation="0.23926264"
       id="feGaussianBlur12427" /></filter><filter
     style="color-interpolation-filters:sRGB"
     id="filter4957"
     x="-0.0018"
     width="1.0036"
     y="-0.0018"
     height="1.0036"><feGaussianBlur
       stdDeviation="0.23926264"
       id="feGaussianBlur4955" /></filter><filter
     style="color-interpolation-filters:sRGB"
     id="filter4961"
     x="-0.0018"
     width="1.0036"
     y="-0.0018"
     height="1.0036"><feGaussianBlur
       stdDeviation="0.23926264"
       id="feGaussianBlur4959" /></filter><filter
     style="color-interpolation-filters:sRGB"
     id="filter4965"
     x="-0.0018"
     width="1.0036"
     y="-0.0018"
     height="1.0036"><feGaussianBlur
       stdDeviation="0.23926264"
       id="feGaussianBlur4963" /></filter><filter
     style="color-interpolation-filters:sRGB"
     id="filter4969"
     x="-0.0018"
     width="1.0036"
     y="-0.0018"
     height="1.0036"><feGaussianBlur
       stdDeviation="0.23926264"
       id="feGaussianBlur4967" /></filter></defs>
<g
   id="g35159"><path
     d="m 319.19922,159.59766 c 0,88.14453 -71.45313,159.60156 -159.59766,159.60156 C 71.457031,319.19922 0,247.74219 0,159.59766 0,71.453125 71.457031,0 159.60156,0 247.74609,0 319.19922,71.453125 319.19922,159.59766"
     style="display:inline;fill:#6fd6ff;fill-opacity:1;fill-rule:nonzero;stroke:none;filter:url(#filter12425)"
     id="path1257"
     transform="matrix(0.31216019,0,0,0.3121602,0.17935432,0.17935432)" /><path
     d="m 255.67188,102.85937 -6.69922,94.7461 c -0.40235,5.69531 -7.25782,10.26953 -15.3125,10.26953 H 88.734375 c -8.054687,0 -14.941406,-4.57422 -15.382812,-10.26953 L 65.96875,102.85937 C 65.445313,96.148438 72.203125,90.65625 81.0625,90.65625 h 159.42578 c 8.86328,0 15.65625,5.492188 15.1836,12.20312"
     style="display:inline;fill:#2453ff;fill-opacity:1;fill-rule:nonzero;stroke:none;filter:url(#filter12425)"
     id="path1269"
     transform="matrix(0.31216019,0,0,0.3121602,0.90495233,-1.9175774)" /><path
     d="m 81.0625,90.65625 h 28.16406 c 0.008,-0.148437 0.0195,-0.292969 0.0195,-0.441406 v -1.375 c 0,-3.34375 -2.71093,-6.054688 -6.05468,-6.054688 H 83.621064 c -3.34375,0 -6.054688,2.710938 -6.054688,6.054688 v 1.375 c 0,0.25 0.01953,0.496094 0.04687,0.734375 1.105469,-0.1875 2.257813,-0.292969 3.449219,-0.292969 z m 188.67578,90.76563 c -4.5625,-16.20313 -10.2539,-32.93751 -16.13281,-49.3711 l 0.76562,-10.82031 h -49.15625 c 4.72657,7.80469 7.44922,16.95703 7.44922,26.75 0,28.55469 -23.15234,51.70703 -51.71094,51.70703 -28.55468,0 -51.70703,-23.15234 -51.70703,-51.70703 0,-9.79297 2.72266,-18.94922 7.45313,-26.75391 0,0 -0.004,0.004 -0.004,0.004 H 67.402254 l 0.957031,12.28515 c -10.972656,26.25782 -27.363281,65.81251 -27.96875,69.16797 -0.734375,4.05079 -0.01953,7.83985 1.960938,10.39063 2.289062,2.94922 6.292968,4.40234 9.910156,5.43359 2.546875,0.72657 5.207031,1.35938 7.90625,1.88282 18.953125,3.33984 38.441406,1.60937 57.285161,-0.0586 4.99218,-0.4414 10.15624,-0.90234 15.24218,-1.26172 2.96485,-0.20703 6.32422,-0.44531 9.65235,0.004 3.26562,0.4375 5.15625,1.89453 5.61718,4.33203 0.29297,1.5625 -0.11718,3.03906 -0.5039,4.15625 -1.0625,3.04688 -7.55078,10.5 -11.55078,15.01172 -0.76954,0.87109 -0.17188,2.24219 0.99218,2.27344 4.94532,0.1289 12.23828,0.0742 14.42579,0.15234 7.17578,0.25 14.35937,0.33984 21.53906,0.26172 14.35937,-0.15234 28.71484,-0.95703 43,-2.41406 12.40234,-1.26563 24.75,-3.01563 37.01172,-5.25782 7.57422,-1.38281 21.625,-1.86718 24.35156,-11.03125 1.25781,-4.22656 4.21094,-3.55468 -7.49219,-45.13671 z m 13.28906,56.67578 c -7.00781,9.52734 -19.61328,10.8789 -30.74609,12.42968 -12.09766,1.6836 -24.23437,3.06641 -36.41406,3.98047 -26.01172,1.95313 -52.10157,2.81641 -78.17969,3.37891 -0.57031,0.0117 -1.14063,0.004 -1.70313,-0.0234 -4.90234,-0.22656 -9.35546,-1.89844 -12.15234,-4.60937 -1.77734,-1.72266 -2.7539,-3.91797 -2.82812,-6.35547 -0.16797,-5.65235 3.78906,-9.91797 7.27734,-13.67969 0.89844,-0.97266 1.77734,-1.91797 2.55859,-2.85547 -0.88281,0.0234 -1.91015,0.0391 -3.11328,0.0547 -0.80078,0.0156 -1.41406,0.0195 -1.6289,0.0352 l -6.48047,0.45703 c -2.46485,0.17578 -4.92969,0.35156 -7.39453,0.52343 -8.78907,0.60547 -18.242191,1.21875 -27.820316,1.57813 -11.328125,0.42187 -26.144531,0.32031 -40.242188,-4.23047 -2.761718,-0.89062 -6.339843,-2.20703 -9.519531,-4.48828 -5.734375,-4.10156 -8.5,-10.73047 -7.785156,-18.65625 0.753906,-8.37109 25.628906,-62.2461 39.90625,-92.61328 l 0.40625,5.20703 h 51.507811 c 9.35938,-13.27734 24.80078,-21.960939 42.27734,-21.960939 17.48047,0 32.92188,8.683599 42.28126,21.960939 h 51.35156 l 0.8789,-12.45313 c 1,2.36329 2.66407,6.9375 5.67188,16.01563 1.41016,4.25781 14.23047,43.625 18.79687,59.59766 2.57032,8.98828 4.75,18.08593 6.42188,27.28125 0.54687,3.01562 1.04297,6.11718 1.28906,9.22265 0.5586,7.08985 -0.1875,14.17969 -4.61719,20.20313 z m -80.71875,-147.265629 -82.98046,0.1875 7.48437,-12.777343 c 1.30859,-2.238282 3.07812,-3.5 4.91406,-3.5 h 58.61328 c 1.83204,0 3.57422,1.261718 4.84375,3.5 l 7.125,12.589843"
     style="display:inline;fill:#203572;fill-opacity:1;fill-rule:nonzero;stroke:none;filter:url(#filter12425)"
     id="path1271"
     transform="matrix(0.31216019,0,0,0.3121602,0.90495233,-1.9175774)" /><path
     d="m 195.09766,149.58984 c 0.0508,18.85938 -15.19532,34.1875 -34.05079,34.23438 -18.85546,0.0547 -34.18359,-15.19141 -34.23437,-34.05078 -0.0508,-18.85547 15.19531,-34.1836 34.05078,-34.23438 18.85938,-0.0508 34.1836,15.19531 34.23438,34.05078"
     style="display:inline;fill:#ffffff;fill-opacity:1;fill-rule:nonzero;stroke:none;filter:url(#filter12425)"
     id="path1273"
     transform="matrix(0.31216019,0,0,0.3121602,0.90495233,-1.9175774)" /><path
     d="m 175.85938,151.86719 -2.39844,2.60547 -5.82422,6.32812 -3.4336,3.72656 c -1.32031,1.4375 -3.55078,1.52735 -4.98828,0.20703 l -3.73047,-3.42968 -8.92968,-8.22266 -0.375,-0.34375 0.0195,-0.0156 c -3.12891,-3.24219 -3.23828,-8.4375 -0.15235,-11.79297 3.08985,-3.35157 8.27344,-3.67578 11.76172,-0.82422 l 0.0195,-0.0195 0.37109,0.33984 2.60547,2.39844 2.39843,-2.60547 c 3.20313,-3.48047 8.66797,-3.70703 12.14844,-0.50391 3.48047,3.20313 3.71094,8.67188 0.50782,12.15235"
     style="display:inline;fill:#ffce01;fill-opacity:1;fill-rule:nonzero;stroke:none;filter:url(#filter12425)"
     id="path1275"
     transform="matrix(0.31216019,0,0,0.3121602,0.90495233,-1.9175774)" /></g></svg>
