<?xml version="1.0" encoding="UTF-8" standalone="no"?>
<svg
   xmlns:dc="http://purl.org/dc/elements/1.1/"
   xmlns:cc="http://creativecommons.org/ns#"
   xmlns:rdf="http://www.w3.org/1999/02/22-rdf-syntax-ns#"
   xmlns:svg="http://www.w3.org/2000/svg"
   xmlns="http://www.w3.org/2000/svg"
   version="1.1"
   id="svg885"
   xml:space="preserve"
   width="100"
   height="100"
   viewBox="0 0 100 100"><metadata
   id="metadata5142"><rdf:RDF><cc:Work
       rdf:about=""><dc:format>image/svg+xml</dc:format><dc:type
         rdf:resource="http://purl.org/dc/dcmitype/StillImage" /><dc:title></dc:title></cc:Work></rdf:RDF></metadata><defs
   id="defs5140"><filter
     style="color-interpolation-filters:sRGB"
     id="filter12425"
     x="-0.0018"
     width="1.0036"
     y="-0.0018"
     height="1.0036"><feGaussianBlur
       stdDeviation="0.23926264"
       id="feGaussianBlur12427" /></filter><filter
     style="color-interpolation-filters:sRGB"
     id="filter5795"
     x="-0.0018"
     width="1.0036"
     y="-0.0018"
     height="1.0036"><feGaussianBlur
       stdDeviation="0.23926264"
       id="feGaussianBlur5793" /></filter><filter
     style="color-interpolation-filters:sRGB"
     id="filter5799"
     x="-0.0018"
     width="1.0036"
     y="-0.0018"
     height="1.0036"><feGaussianBlur
       stdDeviation="0.23926264"
       id="feGaussianBlur5797" /></filter><filter
     style="color-interpolation-filters:sRGB"
     id="filter5803"
     x="-0.0018"
     width="1.0036"
     y="-0.0018"
     height="1.0036"><feGaussianBlur
       stdDeviation="0.23926264"
       id="feGaussianBlur5801" /></filter><filter
     style="color-interpolation-filters:sRGB"
     id="filter5807"
     x="-0.0018"
     width="1.0036"
     y="-0.0018"
     height="1.0036"><feGaussianBlur
       stdDeviation="0.23926264"
       id="feGaussianBlur5805" /></filter></defs>
<g
   id="g35804"><path
     d="M 100,50.000016 C 100,71.9886 85.812141,90.65889 66.08854,97.350913 c -0.07524,0.02765 -0.154429,0.05148 -0.229668,0.07524 -2.138272,0.720686 -4.339908,1.294849 -6.596977,1.718535 C 56.260392,99.706986 53.163856,100 49.999997,100 48.047829,100 46.119426,99.889135 44.226656,99.671361 19.33159,96.808421 1.4328481e-7,75.663252 1.4328481e-7,50.000016 1.4328481e-7,22.384586 22.384567,-5.4179998e-7 49.999994,-5.4179998e-7 70.551187,-5.4179998e-7 88.203846,12.394074 95.889755,30.117993 c 0.10691,0.249478 0.213833,0.494969 0.316778,0.744447 0.08315,0.201956 0.166314,0.407866 0.249466,0.613777 1.378004,3.452921 2.38774,7.103811 2.961909,10.88936 C 99.80201,44.852288 100,47.402374 100,50.000016 Z"
     style="display:inline;fill:#b4e0f3;fill-opacity:1;fill-rule:nonzero;stroke:none;stroke-width:0.395976"
     id="path12773" /><path
     d="M 100,50.000016 C 100,71.9886 85.812141,90.65889 66.08854,97.350913 c -0.07524,0.02765 -0.154429,0.05148 -0.229668,0.07524 l -21.663891,-9.942989 17.917953,-72.6063 34.343077,16.599354 c 1.378002,3.452889 2.387741,7.103811 2.96191,10.88936 C 99.80201,44.852288 100,47.402374 100,50.000016 Z"
     style="display:inline;fill:#62c6ec;fill-opacity:1;fill-rule:nonzero;stroke:none;stroke-width:0.395976"
     id="path12775" /><path
     d="m 73.461636,35.028106 c 0,-12.956373 -10.505267,-23.461628 -23.461629,-23.461628 -12.956369,0 -23.461629,10.505255 -23.461629,23.461628 0,8.359081 4.375543,15.692564 10.956675,19.846365 V 69.446424 H 62.500996 V 54.874471 c 6.585087,-4.153801 10.96064,-11.487284 10.96064,-19.846365 z"
     style="display:inline;fill:#fdc93b;fill-opacity:1;fill-rule:nonzero;stroke:none;stroke-width:0.395976"
     id="path12777" /><path
     d="m 51.500754,88.433521 h -2.771839 c -6.204955,0 -11.229901,-5.02892 -11.229901,-11.229928 v -7.753214 h 25.235599 v 7.753214 c 0,6.201008 -5.0289,11.229928 -11.233859,11.229928 z"
     style="display:inline;fill:#5560a9;fill-opacity:1;fill-rule:nonzero;stroke:none;stroke-width:0.395976"
     id="path12779" /><path
     d="m 62.786094,78.937979 h -25.56822 c -0.890948,0 -1.619547,-0.728596 -1.619547,-1.619535 0,-0.890938 0.728599,-1.619534 1.619547,-1.619534 h 25.568223 c 0.890948,0 1.619548,0.728596 1.619548,1.619534 -4e-6,0.890939 -0.728603,1.619535 -1.619551,1.619535 z"
     style="display:inline;fill:#3c3f7e;fill-opacity:1;fill-rule:nonzero;stroke:none;stroke-width:0.395976"
     id="path12781" /><path
     d="m 45.961035,70.376976 c -0.451414,0 -0.847393,-0.328673 -0.914703,-0.787984 L 40.1085,37.225791 c -0.07919,-0.506866 0.269259,-0.982029 0.776115,-1.057268 0.510809,-0.07524 0.982023,0.269253 1.057259,0.776119 l 4.937829,32.363201 c 0.0792,0.506834 -0.269259,0.982029 -0.776119,1.057268 -0.05147,0.008 -0.09899,0.0119 -0.142549,0.0119 z"
     style="display:inline;fill:#f7a739;fill-opacity:1;fill-rule:nonzero;stroke:none;stroke-width:0.395976"
     id="path12783" /><path
     d="m 54.335947,70.376976 c -0.04751,0 -0.09503,-0.0039 -0.142549,-0.0119 -0.50685,-0.07919 -0.855312,-0.550402 -0.776115,-1.057236 l 4.937832,-32.363201 c 0.07524,-0.506866 0.550405,-0.855313 1.057258,-0.776119 0.506844,0.07919 0.85531,0.550402 0.776113,1.057236 l -4.93783,32.363201 c -0.06732,0.459343 -0.463295,0.788016 -0.914709,0.788016 z"
     style="display:inline;fill:#f7a739;fill-opacity:1;fill-rule:nonzero;stroke:none;stroke-width:0.395976"
     id="path12785" /><path
     d="M 63.067243,72.68948 H 37.499014 c -0.890948,0 -1.619547,-0.728596 -1.619547,-1.619567 0,-0.890938 0.728599,-1.619534 1.619547,-1.619534 h 25.568229 c 0.890948,0 1.619541,0.728596 1.619541,1.619534 0,0.890971 -0.728593,1.619567 -1.619541,1.619567 z"
     style="display:inline;fill:#3c3f7e;fill-opacity:1;fill-rule:nonzero;stroke:none;stroke-width:0.395976"
     id="path12787" /><path
     d="m 46.681715,45.98875 c -0.178187,0 -0.356375,-0.05148 -0.514769,-0.154433 l -4.945755,-3.286591 c -0.427656,-0.285105 -0.542483,-0.859268 -0.257382,-1.28694 0.285104,-0.427641 0.859271,-0.542492 1.286927,-0.257388 l 4.217149,2.803519 2.906468,-3.8568 c 0.182156,-0.241569 0.451415,-0.376195 0.768196,-0.368253 0.300943,0.008 0.578131,0.162342 0.744441,0.411788 l 2.510489,3.749923 4.157756,-3.033191 c 0.411817,-0.300956 0.993903,-0.209865 1.298804,0.201955 0.300943,0.415776 0.209869,0.993894 -0.201942,1.298805 l -4.937833,3.603367 c -0.201949,0.150478 -0.459337,0.209865 -0.708799,0.162375 C 52.756,45.933318 52.538218,45.79075 52.395666,45.580884 l -2.320424,-3.468741 -2.649086,3.512309 c -0.186113,0.237582 -0.463301,0.364298 -0.744441,0.364298 z"
     style="display:inline;fill:#f7a739;fill-opacity:1;fill-rule:nonzero;stroke:none;stroke-width:0.395976"
     id="path12789" /></g></svg>
