<?xml version="1.0" encoding="UTF-8" standalone="no"?>
<svg
   xmlns:dc="http://purl.org/dc/elements/1.1/"
   xmlns:cc="http://creativecommons.org/ns#"
   xmlns:rdf="http://www.w3.org/1999/02/22-rdf-syntax-ns#"
   xmlns:svg="http://www.w3.org/2000/svg"
   xmlns="http://www.w3.org/2000/svg"
   version="1.1"
   id="svg885"
   xml:space="preserve"
   width="100"
   height="100"
   viewBox="0 0 100 100"><metadata
   id="metadata5142"><rdf:RDF><cc:Work
       rdf:about=""><dc:format>image/svg+xml</dc:format><dc:type
         rdf:resource="http://purl.org/dc/dcmitype/StillImage" /><dc:title></dc:title></cc:Work></rdf:RDF></metadata><defs
   id="defs5140"><filter
     style="color-interpolation-filters:sRGB"
     id="filter12425"
     x="-0.0018"
     width="1.0036"
     y="-0.0018"
     height="1.0036"><feGaussianBlur
       stdDeviation="0.23926264"
       id="feGaussianBlur12427" /></filter><filter
     style="color-interpolation-filters:sRGB"
     id="filter5795"
     x="-0.0018"
     width="1.0036"
     y="-0.0018"
     height="1.0036"><feGaussianBlur
       stdDeviation="0.23926264"
       id="feGaussianBlur5793" /></filter><filter
     style="color-interpolation-filters:sRGB"
     id="filter5799"
     x="-0.0018"
     width="1.0036"
     y="-0.0018"
     height="1.0036"><feGaussianBlur
       stdDeviation="0.23926264"
       id="feGaussianBlur5797" /></filter><filter
     style="color-interpolation-filters:sRGB"
     id="filter5803"
     x="-0.0018"
     width="1.0036"
     y="-0.0018"
     height="1.0036"><feGaussianBlur
       stdDeviation="0.23926264"
       id="feGaussianBlur5801" /></filter><filter
     style="color-interpolation-filters:sRGB"
     id="filter5807"
     x="-0.0018"
     width="1.0036"
     y="-0.0018"
     height="1.0036"><feGaussianBlur
       stdDeviation="0.23926264"
       id="feGaussianBlur5805" /></filter></defs>
<g
   id="g12763"
   transform="matrix(0.32153396,0,0,0.321534,-99.809247,-482.75028)"
   style="display:inline"><path
     d="m 621.42502,1656.9019 c 0,68.3865 -44.12554,126.4528 -105.46774,147.2656 -0.234,0.086 -0.48029,0.1601 -0.71429,0.234 -6.65022,2.2414 -13.49751,4.0271 -20.5172,5.3448 -9.33495,1.7488 -18.96546,2.6601 -28.80535,2.6601 -6.07142,0 -12.06893,-0.3448 -17.95562,-1.0221 -77.42593,-8.904 -137.54894,-74.6674 -137.54894,-154.4824 0,-85.8865 69.61805,-155.5046 155.50455,-155.5046 63.91609,0 118.81747,38.5467 142.72135,93.6697 0.3325,0.7759 0.66504,1.5394 0.98521,2.3153 0.25861,0.6281 0.51725,1.2685 0.77586,1.9089 4.28572,10.7389 7.42609,22.0935 9.21181,33.8669 1.19459,7.7339 1.81036,15.6649 1.81036,23.7438 z"
     style="display:inline;fill:#b4e0f3;fill-opacity:1;fill-rule:nonzero;stroke:none;stroke-width:1.23152"
     id="path12773" /><path
     d="m 621.42502,1656.9019 c 0,68.3865 -44.12554,126.4528 -105.46774,147.2656 -0.234,0.086 -0.48029,0.1601 -0.71429,0.234 l -67.37668,-30.9236 55.72647,-225.8122 106.81011,51.6255 c 4.28571,10.7388 7.42609,22.0935 9.21181,33.8669 1.19455,7.7339 1.81032,15.6649 1.81032,23.7438 z"
     style="display:inline;fill:#62c6ec;fill-opacity:1;fill-rule:nonzero;stroke:none;stroke-width:1.23152"
     id="path12775" /><path
     d="m 538.88828,1610.3379 c 0,-40.2955 -32.67234,-72.9678 -72.96781,-72.9678 -40.29549,0 -72.96781,32.6723 -72.96781,72.9678 0,25.9975 13.60834,48.8053 34.07626,61.724 v 45.3201 h 77.77077 v -45.3201 c 20.48022,-12.9187 34.08859,-35.7265 34.08859,-61.724 z"
     style="display:inline;fill:#fdc93b;fill-opacity:1;fill-rule:nonzero;stroke:none;stroke-width:1.23152"
     id="path12777" /><path
     d="m 470.58793,1776.4336 h -8.62067 c -19.29798,0 -34.92602,-15.6404 -34.92602,-34.9261 v -24.1132 h 78.48502 v 24.1132 c 0,19.2857 -15.64034,34.9261 -34.93833,34.9261 z"
     style="display:inline;fill:#5560a9;fill-opacity:1;fill-rule:nonzero;stroke:none;stroke-width:1.23152"
     id="path12779" /><path
     d="m 505.68637,1746.9016 h -79.5195 c -2.77093,0 -5.03694,-2.266 -5.03694,-5.0369 0,-2.7709 2.26601,-5.0369 5.03694,-5.0369 h 79.51951 c 2.77093,0 5.03694,2.266 5.03694,5.0369 -10e-6,2.7709 -2.26602,5.0369 -5.03695,5.0369 z"
     style="display:inline;fill:#3c3f7e;fill-opacity:1;fill-rule:nonzero;stroke:none;stroke-width:1.23152"
     id="path12781" /><path
     d="m 453.3589,1720.2761 c -1.40394,0 -2.63547,-1.0222 -2.84481,-2.4507 l -15.35711,-100.6525 c -0.2463,-1.5764 0.83742,-3.0542 2.41379,-3.2882 1.58866,-0.234 3.05418,0.8374 3.28817,2.4138 l 15.3571,100.6525 c 0.24631,1.5763 -0.83742,3.0542 -2.4138,3.2882 -0.16008,0.025 -0.30788,0.037 -0.44334,0.037 z"
     style="display:inline;fill:#f7a739;fill-opacity:1;fill-rule:nonzero;stroke:none;stroke-width:1.23152"
     id="path12783" /><path
     d="m 479.40564,1720.2761 c -0.14777,0 -0.29556,-0.012 -0.44334,-0.037 -1.57635,-0.2463 -2.6601,-1.7118 -2.41379,-3.2881 l 15.35711,-100.6525 c 0.23399,-1.5764 1.71181,-2.6601 3.28817,-2.4138 1.57633,0.2463 2.66009,1.7118 2.41378,3.2881 l -15.3571,100.6525 c -0.20936,1.4286 -1.44089,2.4508 -2.84483,2.4508 z"
     style="display:inline;fill:#f7a739;fill-opacity:1;fill-rule:nonzero;stroke:none;stroke-width:1.23152"
     id="path12785" /><path
     d="m 506.56077,1727.4682 h -79.51953 c -2.77093,0 -5.03694,-2.266 -5.03694,-5.037 0,-2.7709 2.26601,-5.0369 5.03694,-5.0369 h 79.51953 c 2.77093,0 5.03692,2.266 5.03692,5.0369 0,2.771 -2.26599,5.037 -5.03692,5.037 z"
     style="display:inline;fill:#3c3f7e;fill-opacity:1;fill-rule:nonzero;stroke:none;stroke-width:1.23152"
     id="path12787" /><path
     d="m 455.60028,1644.4265 c -0.55418,0 -1.10836,-0.1601 -1.60098,-0.4803 l -15.38175,-10.2216 c -1.33005,-0.8867 -1.68717,-2.6724 -0.80048,-4.0025 0.8867,-1.33 2.67241,-1.6872 4.00246,-0.8005 l 13.11572,8.7192 9.03938,-11.995 c 0.56652,-0.7513 1.40394,-1.17 2.38916,-1.1453 0.93596,0.025 1.79804,0.5049 2.31528,1.2807 l 7.80785,11.6626 12.931,-9.4335 c 1.28079,-0.936 3.09113,-0.6527 4.0394,0.6281 0.93596,1.2931 0.65271,3.0911 -0.62806,4.0394 l -15.35711,11.2068 c -0.62808,0.468 -1.42858,0.6527 -2.20443,0.505 -0.77586,-0.1355 -1.45318,-0.5789 -1.89653,-1.2316 l -7.21673,-10.7881 -8.2389,10.9236 c -0.57883,0.7389 -1.44091,1.133 -2.31528,1.133 z"
     style="display:inline;fill:#f7a739;fill-opacity:1;fill-rule:nonzero;stroke:none;stroke-width:1.23152"
     id="path12789" /></g></svg>
