<?xml version="1.0" encoding="UTF-8" standalone="no"?>
<svg
   xmlns:dc="http://purl.org/dc/elements/1.1/"
   xmlns:cc="http://creativecommons.org/ns#"
   xmlns:rdf="http://www.w3.org/1999/02/22-rdf-syntax-ns#"
   xmlns:svg="http://www.w3.org/2000/svg"
   xmlns="http://www.w3.org/2000/svg"
   xmlns:xlink="http://www.w3.org/1999/xlink"
   version="1.1"
   id="svg885"
   xml:space="preserve"
   width="100"
   height="100"
   viewBox="0 0 100 100"><metadata
   id="metadata7755"><rdf:RDF><cc:Work
       rdf:about=""><dc:format>image/svg+xml</dc:format><dc:type
         rdf:resource="http://purl.org/dc/dcmitype/StillImage" /><dc:title></dc:title></cc:Work></rdf:RDF></metadata>
    <defs
   id="defs7746">
        <linearGradient
   x1="-0.39899999"
   y1="68.556999"
   x2="137.05499"
   y2="68.556999"
   gradientUnits="userSpaceOnUse"
   gradientTransform="matrix(-0.02627779,-0.16920771,-0.17120646,0.02597099,-51.262454,-13.079815)"
   spreadMethod="pad"
   id="linearGradient9586">
            <stop
   style="stop-opacity:1;stop-color:#181c3f"
   offset="0"
   id="stop9582" />
            <stop
   style="stop-opacity:1;stop-color:#203572"
   offset="1"
   id="stop9584" />
        </linearGradient>
    </defs>
    <g
   id="Ouro"
   style="display:inline">
        <path
   d="m 76.94531,84.599043 c -0.505184,1.098462 -2.114614,1.433709 -3.334309,2.446575 -0.433033,0.221108 0.137122,-0.22827 0.95987,-0.80601 0.82276,-0.556366 1.804295,-1.369517 2.374439,-1.640565 z m 0.288689,5.07861 0.310354,0.420843 c 0.801103,-0.506437 1.493939,-1.09847 1.306298,-1.419446 -0.4186,0.320996 -0.606242,0.577761 -0.786671,0.841686 -0.166011,-0.149806 -0.331987,-0.249663 -0.829971,0.156927 z M 89.849555,63.985007 c 0.324776,-0.934411 0.58459,-1.818884 0.548504,-2.403782 -0.866045,3.466586 -2.821894,7.460998 -4.070464,10.200021 0.461899,-0.827413 0.938239,-1.647694 1.36404,-2.496502 l 1.147522,-2.60351 c 0.303111,-0.777484 0.692846,-1.761815 1.010398,-2.696227 z M 81.571508,14.261678 c 0.894918,0.649092 1.645495,1.376646 2.396081,2.040002 0.736154,0.677627 1.465086,1.319584 2.107415,1.975811 1.25577,1.348115 2.468254,2.560699 3.521949,3.78043 0.02144,0.02858 0.05056,0.05708 0.07221,0.0856 0.230948,0.606295 0.35365,1.184065 0.324774,1.71903 0.692848,0.855941 1.226916,1.747549 1.775418,2.582105 0.53407,0.848815 1.068129,1.647694 1.522816,2.44658 0.01462,0.02135 0.02144,0.04282 0.0288,0.05708 -0.0078,0.0856 -0.02143,0.164061 -0.01462,0.263917 0.0577,0.0141 0.122713,0.02858 0.180441,0.04278 0.793882,1.483642 1.566114,2.853151 2.215663,4.187003 0.678417,1.455109 1.414567,2.810358 2.092967,4.158474 0.65676,1.355248 1.3857,2.674831 2.20123,4.022944 -0.51241,-1.376651 -1.11143,-2.995814 -1.75376,-4.743373 -0.75058,-1.690492 -1.44342,-3.530776 -2.280612,-5.313998 -0.252592,-0.513568 -0.490764,-1.034266 -0.736156,-1.554967 0.0078,0 0.0078,0.0072 0.01463,0.0072 -0.151555,-0.492172 -0.310355,-0.784615 -0.483551,-1.027137 -0.418601,-0.898747 -0.837191,-1.783218 -1.284658,-2.624899 0.765019,0.834548 1.558914,1.661962 2.410527,2.482241 -0.851613,-1.198324 -1.854803,-2.610635 -2.937373,-4.129938 -0.223749,-0.271047 -0.440257,-0.556361 -0.663982,-0.841677 0,0 0,-0.0072 0,-0.0072 -0.375295,-0.78462 -0.757798,-1.526437 -1.060919,-2.246858 -0.837191,-0.142673 0.562934,1.055666 0.281467,1.248252 -0.40415,-0.52783 -0.808318,-1.055673 -1.234119,-1.576364 -0.793894,-1.069935 -1.566123,-2.097075 -2.396091,-3.017217 -0.599032,-0.699025 -1.19083,-1.369514 -1.775419,-2.004334 -0.187652,-0.192582 -0.382503,-0.370903 -0.577377,-0.549233 -0.606243,-0.684756 -1.19082,-1.369513 -1.732111,-2.032871 -0.570155,-0.66336 -1.13309,-1.283921 -1.616642,-1.904479 -0.880487,0.07846 0.967091,0.948671 0.570156,1.162659 C 81.095145,11.665318 79.615625,10.409932 78.063933,9.4041932 77.306137,8.8834881 76.555561,8.3841907 75.819407,7.9205544 75.068821,7.4783069 74.296592,7.1002745 73.546005,6.7364966 c 1.717678,1.3481163 3.536405,2.6035015 5.095307,3.7946924 1.544481,1.212577 2.677571,2.496498 2.930174,3.730485 z M 56.45585,3.0416523 c 0.95267,0.1997116 1.84038,0.3780334 2.68478,0.5563633 0.851625,0.1569322 1.652728,0.3066961 2.43218,0.4493728 0.772229,0.1711915 1.537247,0.3281237 2.302265,0.4565029 C 63.045107,4.2613624 62.150187,4.0045899 61.240824,3.733543 60.317028,3.5195719 59.36437,3.305563 58.440574,3.0915879 56.585773,2.6422112 54.759832,2.5138249 53.352485,2.5637486 54.47114,2.7349412 55.495969,2.8918733 56.45585,3.0416523 Z M 95.88309,67.00222 c 0.303143,-0.948674 0.793892,-2.061407 1.198052,-3.174139 0.39695,-1.112732 0.60624,-2.246856 0.56293,-3.138469 -0.28146,1.027137 -0.62788,2.318186 -1.07535,3.459454 -0.425808,1.15552 -0.750583,2.204062 -0.685632,2.853154 z M 37.056174,2.6422112 C 37.9944,2.3497745 38.910978,2.057307 39.791469,1.7791259 c -1.068132,0.2425279 -2.129055,0.4993004 -3.168323,0.7774815 -1.024833,0.335254 -2.028019,0.6847645 -2.995114,1.0485334 -0.483549,0.1854521 -0.95266,0.3709032 -1.421775,0.5563663 -0.454682,0.1997115 -0.894929,0.4279801 -1.320739,0.6490923 -0.851623,0.4422395 -1.65273,0.8987424 -2.381658,1.3552485 1.890889,-0.9058827 3.789,-1.8188927 5.723194,-2.4822446 0.95988,-0.3495134 1.898113,-0.734688 2.82912,-1.0413921 z M 24.99633,8.2914537 C 25.746916,7.842084 26.374805,7.4141079 26.757312,6.9932622 25.292233,7.8706069 23.502384,8.7550828 22.578588,9.739421 22.989967,9.4826328 23.401341,9.2187231 23.805501,8.969072 24.216882,8.7337121 24.621037,8.5054397 24.99633,8.2914537 Z M 77.30617,65.73257 c -0.223738,0.271047 -0.555712,0.756081 -0.909351,1.333841 -0.353662,0.584901 -0.822759,1.205458 -1.183619,1.875954 0.101004,0.185442 0.173219,0.492165 0.144343,0.09985 0.274257,-0.663355 0.995956,-1.262518 1.219694,-1.490769 -0.396946,0.527832 -0.873276,1.084198 -0.411378,1.262519 0.0078,-0.156937 0.0577,-0.292441 0.122701,-0.427975 0.02144,0.04279 0.03605,0.0785 0.07936,0.121252 0.151554,0.02862 0.497984,-0.320996 0.757796,-0.734688 0.238171,-0.420841 0.411379,-0.884481 0.317564,-0.998601 -0.07221,0.178319 -0.230949,0.349509 -0.411379,0.520689 0.05057,-0.128371 0.0433,-0.249653 -0.06496,-0.363773 -0.05056,0.149805 -0.173219,0.328128 -0.303144,0.506438 1.111438,-1.961539 1.089784,-2.246859 0.64233,-1.704755 z m 4.813829,-0.827423 c 0.360873,-0.791747 1.097004,-1.654827 0.526858,-2.196931 -0.331985,0.913018 -0.642327,1.661968 -0.526858,2.196931 z M 56.051692,98.536698 c 0.512416,-0.142681 0.995956,-0.292438 1.407335,-0.427968 -0.519626,0.149794 -1.060917,0.271041 -1.602197,0.328117 -0.54128,0.04281 -1.082572,0.05711 -1.587771,0.07132 -1.017619,0.0286 -1.905321,0.04987 -2.489911,0.278174 0.606239,0.206843 1.61664,0.178314 2.684781,0.03575 0.526833,-0.07132 1.068125,-0.1712 1.587763,-0.285306 z M 85.10069,69.113546 c 0.06496,0.106987 0.541281,-0.492166 0.938217,-2.18979 -0.375283,0.63482 -0.606232,1.162661 -0.757798,1.540697 -0.158765,0.363773 -0.216527,0.599164 -0.180429,0.649093 z m -7.772866,10.485343 c 0.642329,-0.913007 1.566113,-1.90448 1.67437,-2.739024 -0.483539,0.592022 -1.26299,1.305317 -1.818702,1.818885 -0.555724,0.520699 -0.894932,0.855938 -0.562946,0.627688 0.873276,-0.913008 0.122669,0.221138 0.707278,0.292441 z m 6.228396,-7.931763 c -1.032053,0.720415 -1.19805,2.132729 -2.33114,3.366723 1.104225,-0.06423 1.753764,-2.846023 2.33114,-3.366723 z M 26.021165,91.311085 c -0.245374,0.08558 -0.728928,0.04987 -0.671192,-0.206845 -0.663975,-0.449377 -2.836337,-1.67624 -3.139456,-2.018619 -0.793887,-0.499297 -1.573338,-0.991472 -2.323919,-1.490768 -1.342389,-0.962936 -2.728082,-1.811754 -4.034382,-2.66057 0.555719,0.149805 1.089786,0.221108 1.847585,0.720423 -0.606236,-0.599163 -1.183608,-1.176922 -1.746547,-1.754693 -0.433029,-0.399438 -0.858838,-0.798878 -1.270218,-1.205458 -1.198043,-1.283912 -2.374438,-2.532169 -3.471442,-3.773294 -1.046485,-1.27678 -2.1651433,-2.446582 -3.1971923,-3.602102 0.497977,0.285309 0.995962,0.492165 1.594987,1.169791 -0.04331,-0.07849 -0.08662,-0.149805 -0.129917,-0.228268 -2.208444,-3.017203 -3.8683883,-6.141413 -5.1097362,-9.600863 -0.3464099,0.178322 -0.014578,0.991474 0.3680799,1.833158 -0.028764,0.5207 -0.3391965,-0.285308 -0.6928437,-1.241125 C 3.67689,66.31031 3.4026468,65.169042 3.1211785,65.126256 3.5469912,65.204749 3.5614257,64.562757 3.3521297,63.507084 3.2366731,63.01492 3.1067553,62.415757 2.969627,61.759532 2.3272989,59.455609 1.9014896,57.137423 1.7066279,54.726507 c -0.2598355,0.05708 -0.2886797,0.499304 -0.2309519,1.0628 0.028764,0.192581 0.050519,0.378033 0.079405,0.577767 0.014577,0.07133 0.021486,0.142673 0.036053,0.2211 C 1.4900976,56.887742 1.41791,56.688034 1.3601813,56.26005 1.0137726,55.824945 1.1869581,54.120185 0.7106393,52.715009 0.4075361,53.064522 0.4868987,54.034594 0.3281356,54.612357 -0.5018379,52.558084 1.1220186,51.844797 0.8910698,49.376819 0.6529071,49.612217 0.5518727,50.161434 0.5301999,50.860462 0.3497648,50.617934 0.3497648,49.99738 0.0033483,50.111507 0.1188061,47.322547 0.4941138,44.519327 1.114788,41.744637 1.064269,41.858752 1.0137516,41.965737 0.9632365,42.058501 0.8405294,41.052763 1.1508822,40.453602 1.5550387,39.861571 1.7138009,39.255277 1.9014475,38.656113 2.0818903,38.056953 2.0673123,37.828685 2.0458373,37.61471 1.8220546,37.621847 3.8861583,31.080992 7.4514257,24.839721 12.243605,19.525723 c 1.23413,-1.362389 2.547655,-2.660574 3.933343,-3.894554 0.902144,-0.855949 1.825937,-1.690504 2.785817,-2.496509 0.252586,-0.142673 0.526851,-0.313865 0.793887,-0.477905 0.505199,-0.806016 2.489915,-1.733292 3.529182,-2.539306 -0.07941,0.142673 -0.230951,0.299567 -0.418592,0.44937 2.208443,-1.4194441 4.525145,-2.6962272 6.950104,-3.8160929 0.281469,-0.071332 0.591807,-0.1711916 0.887711,-0.2567884 0.649543,-0.5991636 2.533215,-0.9772081 3.774565,-1.4337031 -0.844407,0.2068409 -1.645511,0.2639177 -1.84759,0.014102 0.95266,-0.8559441 2.922942,-0.7560849 4.084902,-1.0414073 -0.245374,0.3495136 -1.125876,0.7346881 -2.013584,0.9772042 -0.606239,0.5278364 -2.432177,0.8702115 -3.673527,1.3980478 0.108247,-0.035836 0.202069,-0.05708 0.310352,-0.092726 0.541287,-0.1426717 1.118661,-0.2995661 1.717682,-0.4565021 1.198047,-0.2995668 2.45383,-0.7560848 3.832305,-1.0271367 1.371255,-0.2853064 2.785816,-0.6633508 4.258114,-0.8630853 1.472298,-0.1854511 2.959025,-0.4208388 4.438542,-0.4779038 1.17639,-0.071332 2.352788,-0.092726 3.529183,-0.071332 0.0073,0 0.02148,0 0.02876,0 0.0433,0 0.08662,0 0.122706,0 0.151552,0 0.310353,0 0.461901,0.00728 5.080865,0.021353 10.190608,0.7061652 15.091041,2.2967895 10.154527,3.2169296 19.450196,9.7292551 25.548691,19.0234011 -0.173231,-0.01411 -0.353662,-0.106986 -0.555724,-0.299567 1.443422,2.061402 2.728079,4.244064 3.825082,6.540855 0.382504,0.656221 0.765019,1.312447 1.140324,1.95441 0.274257,0.492169 0.555712,0.97007 0.793883,1.469371 0.223738,0.499298 0.440244,1.00574 0.642328,1.512173 -0.418601,-0.342383 -0.772241,-1.034265 -1.161966,-1.776086 -0.05772,-0.09986 -0.108269,-0.199712 -0.165977,-0.299567 0.310354,0.791753 0.606232,1.583502 0.873279,2.396652 -0.259792,-0.09273 -0.497984,-0.349513 -0.692847,-0.970075 0.0078,0.04282 0.02144,0.0856 0.03605,0.128414 0.101004,0.285306 0.209273,0.570633 0.303097,0.870211 0.288679,0.848814 0.584578,1.719026 0.873278,2.560704 0.238165,0.855943 0.433035,1.690495 0.599035,2.432312 -0.31757,-0.791748 -0.591825,-1.676224 -0.923798,-2.610634 0.317563,1.141258 0.663968,2.253991 1.039268,3.359585 0.29588,1.1056 0.59181,2.196931 0.88048,3.266861 0.12993,0.542103 0.28148,1.077068 0.3753,1.619163 0.0866,0.542103 0.16602,1.084196 0.22375,1.619164 -0.31757,-0.44224 -0.47635,-1.191192 -0.65676,-2.018608 -0.20929,-0.820285 -0.39695,-1.719027 -0.64233,-2.453715 0.0577,1.148396 0.33919,2.810357 0.42581,4.600709 0.0577,0.891608 0.11546,1.811753 0.17322,2.696228 0.008,0.884477 -0.0214,1.740426 -0.0577,2.503641 -0.13712,-1.148392 -0.15154,-2.446576 -0.30309,-3.851754 -0.14435,-1.398046 -0.13714,-2.903083 -0.38972,-4.422386 -0.46912,1.198324 -0.68563,2.938752 -0.815547,4.664906 -0.03605,0.427973 -0.07221,0.86308 -0.10827,1.283921 -0.07221,0.42084 -0.137123,0.827418 -0.202073,1.219722 -0.144332,0.784615 -0.317553,1.483643 -0.555712,2.032871 0.129912,-0.299567 -0.07936,-0.392307 -0.353663,-0.285307 0.03604,0.89874 -0.324773,2.403779 -0.360871,3.366722 -0.267001,-0.556366 0.09388,-2.097068 0.21654,-3.288264 -0.230961,0.142673 -0.476342,0.406576 -0.606243,0.820285 -0.0288,0.07133 -0.05056,0.135504 -0.07221,0.199712 -0.0078,-0.09273 -0.0433,-0.171193 -0.10827,-0.213971 0.158767,0.106985 -1.082572,1.469374 -0.902141,0.249657 -0.346416,1.483639 -0.779451,2.853157 -1.226916,4.137071 -0.512416,1.26252 -1.104225,2.432314 -1.681592,3.559311 0.274257,-1.262524 1.349608,-3.288261 1.78985,-5.37106 0.562946,-2.054275 0.562946,-4.072879 -0.461897,-4.828964 -0.649551,0.734688 -1.241348,1.483643 -1.768197,2.503642 -0.584589,1.012873 -0.974313,2.332454 -1.335164,4.208404 -0.346451,0.09273 -0.750586,-0.0141 -1.017632,0.392308 -0.274258,-0.106985 0.541292,-1.18406 0.476341,-2.097067 -0.05771,-0.328122 -0.346452,-0.385176 -0.187641,-0.970074 -0.09386,0.02136 -0.180442,0.07845 -0.259801,0.135504 -0.07221,0.656227 -0.180431,1.554968 -0.202063,2.189797 -0.317564,0.04282 -0.274268,-0.306695 -0.216539,-0.670489 -0.389726,1.062801 -0.534058,1.868814 -0.750576,2.689097 -0.187652,0.82742 -0.324774,1.704762 -0.692846,2.881686 -0.295899,-0.263917 -0.48354,0.278178 -0.685623,0.706162 0.245379,-1.077067 0.584586,-2.617773 1.14031,-4.165611 0.281468,-0.770351 0.461898,-1.590632 0.721711,-2.34672 0.101003,-0.335254 0.216528,-0.663356 0.331986,-0.984338 -0.230949,0.271046 -0.440243,0.599164 -0.685625,0.84168 -0.151555,-0.670489 1.544469,-2.360984 0.101004,-2.681964 -0.505194,-0.02859 -0.519626,1.155526 -0.692846,1.961544 -0.375293,-0.114115 -0.245369,-0.784615 -0.101003,-1.49077 -0.541281,0.07133 -0.931005,0.342384 -1.205263,0.285308 -0.07221,0.4993 -0.202061,0.955807 -0.295888,1.119861 -0.129913,-0.07845 -0.115457,-0.306696 -0.288678,-0.342384 -0.772239,3.516516 -0.288678,-0.114115 0.230948,-1.283916 0,-0.0072 -0.0078,-0.01411 -0.0078,-0.02859 -0.60623,0.641958 -0.873264,1.027133 -1.096992,1.433708 -0.209285,0.406576 -0.418601,0.827414 -0.931017,1.469375 -0.129913,-0.235397 0.02144,-0.656225 0.202073,-1.098465 0.158766,-0.449372 0.375293,-0.913008 0.469119,-1.198324 -0.122712,-0.299567 -0.252591,-0.59203 -0.389736,-0.870215 -0.627895,0.392313 -0.16601,2.097071 -0.591799,2.282526 -0.23817,-0.07845 -0.476341,-0.149802 -0.584587,0.135505 -0.151555,-0.649092 0.793883,-1.540704 0.873276,-2.724762 -0.245381,0.02135 -0.505204,1.005735 -0.346418,-0.04994 -0.396947,0.292437 -0.35365,1.533572 -0.692834,1.954413 -0.06496,-0.592031 -0.02144,-1.85455 0.115457,-2.79609 -0.440245,-0.228269 -0.425811,0.46364 -0.642328,0.670492 -0.122713,0.527832 0.0078,0.79888 0.396936,0.820281 -0.66396,0.798882 -1.25577,0.855949 -1.580555,1.69763 -0.570145,0.306697 -0.06496,-1.098466 -0.454676,-0.349515 -0.288678,-0.420843 -0.115492,-1.426578 0.115502,-2.453709 0.05771,-0.256788 0.108269,-0.513569 0.158755,-0.763221 0.0288,-0.249657 0.0433,-0.492166 0.05056,-0.720418 0.0078,-0.335255 -0.0078,-0.620563 -0.07936,-0.834548 -0.0577,0.863076 -0.158765,1.719021 -0.288678,2.582099 -0.01461,0.09273 -0.0288,0.192582 -0.0433,0.285308 -0.0433,0.263918 -0.09386,0.520698 -0.144344,0.784616 -0.05057,0.263917 -0.101004,0.527835 -0.151555,0.791749 -0.02144,0.09273 -0.0433,0.178321 -0.06496,0.271047 -0.440243,1.933013 -1.068139,3.794693 -1.869233,5.563655 -0.02144,0.04279 -0.0433,0.08557 -0.05771,0.128373 -0.180442,0.392307 -0.368082,0.784615 -0.562934,1.162661 -0.06496,0.128372 -0.129923,0.249663 -0.194863,0.370904 -0.151543,0.292441 -0.310352,0.584901 -0.476329,0.87021 -0.115459,0.199715 -0.23095,0.392308 -0.353662,0.592033 -0.122702,0.199714 -0.24537,0.40657 -0.368072,0.606295 -0.0433,0.07131 -0.08662,0.142675 -0.129922,0.206836 0.07221,0.04987 0.24538,-0.149796 0.512414,-0.649092 0.216529,0.570628 -0.873265,1.412314 -1.183607,1.761825 0.844402,0.763222 1.097004,-0.955806 1.667158,-1.191187 -0.216526,1.191187 -1.392902,2.011468 -1.659948,2.981545 0.274257,-0.221138 0.938238,-1.005742 1.566124,-1.897347 -0.216529,0.5207 -0.353629,1.191185 -0.570157,1.833147 -0.05057,0.149806 -0.10827,0.299572 -0.180442,0.435105 0.382506,-0.399439 0.765018,-0.770353 1.00319,-1.062804 0.0078,0.08558 -0.01462,0.1712 -0.0288,0.256795 0.0288,-0.01416 0.05057,-0.04279 0.07936,-0.05705 -0.03604,1.355254 -1.8548,2.125598 -2.316698,3.716233 0.483553,0.135503 0.483553,-1.077065 1.140313,-1.069934 -0.209285,-0.135504 0.158753,-0.599164 0.65677,-1.077067 0.505184,-0.477902 1.060918,-1.055662 1.385681,-1.283912 -0.757807,1.369507 -1.5589,2.24686 -2.302276,3.209796 -0.360862,0.492165 -0.779441,0.948674 -1.234126,1.45511 -0.440244,0.520701 -0.923795,1.09133 -1.47952,1.747554 1.364051,-1.291055 2.800262,-1.840279 4.402459,-3.566437 -1.262991,0.46364 0.353663,-0.677628 0.837192,-0.720425 -0.158767,-0.413711 0.24538,-1.048532 0.801104,-1.747553 0.137123,0.09985 -0.07936,0.349511 -0.16601,0.542094 2.280613,-2.239727 3.767342,-5.684903 5.35512,-9.736391 -0.137133,0.713287 -0.310353,1.419446 -0.497994,2.118473 -0.216529,0.69189 -0.512417,1.348112 -0.786662,2.004337 -0.08662,0.221139 -0.187641,0.427975 -0.281468,0.63483 0.267047,-0.442237 0.53407,-0.806021 0.700058,-0.841676 0.209284,-0.39945 0.02144,-0.506438 0.144344,-0.841686 0.245381,-0.142674 0.165976,0.427975 -0.0288,1.09847 -0.187651,0.670487 -0.599031,1.38377 -0.786672,1.576363 -0.101003,-0.106987 -0.0288,-0.328126 -0.187641,-0.399439 -0.880499,1.690493 -0.894931,1.533566 -0.59902,0.870211 -0.303144,0.527831 -0.620685,1.034269 -0.923795,1.540706 -0.324776,0.570629 -0.7145,1.077057 -1.075361,1.583494 -0.158767,0.299572 -0.310354,0.599164 -0.483552,0.891614 -0.389715,0.606295 -0.844402,1.169793 -1.284645,1.733291 -0.252593,0.342379 -0.519639,0.656223 -0.801106,0.962936 -0.115456,0.185453 -0.230948,0.363772 -0.331985,0.549234 0.728933,-0.699029 1.407346,-1.348122 2.02081,-2.011476 0.202063,-0.370895 0.490762,-0.777486 0.822748,-1.248256 0.04331,0.06423 0.05772,0.128381 0.07221,0.192582 0.0078,-0.007 0.01461,-0.01406 0.02144,-0.02862 0.418589,-0.527831 0.822746,-1.0414 1.226905,-1.554969 0.368083,-0.542093 0.707278,-1.105591 1.06814,-1.676218 1.429,-2.282526 2.684781,-5.007287 3.767353,-9.001706 0.0078,0.884479 -0.209285,1.818886 -0.505195,2.781826 -0.281476,0.962938 -0.613464,1.968674 -1.082571,2.917347 -0.815536,1.954418 -1.89811,3.773302 -2.518784,5.527986 -0.216527,0.164068 -0.24538,0.06424 -0.346406,-0.02862 -0.0433,0.06423 -0.07935,0.135503 -0.122713,0.199714 -0.526859,0.86308 -1.104213,1.740421 -1.811504,2.539309 -0.317565,0.413702 -0.64955,0.813152 -0.988745,1.205459 0.368083,-0.213977 0.765006,-0.34952 0.591797,-0.52071 0.692847,-0.527831 0.209284,0.634831 -0.151554,0.991472 0.404168,0.007 1.053707,-0.40657 0.541291,0.449378 0.375293,0.192583 0.894921,-0.45651 1.320732,-0.470772 0.07936,-0.249654 0.180441,-0.477902 0.418612,-0.81315 l 0.692835,-0.991463 c 0.433021,-0.784615 0.945439,-1.661967 1.54447,-2.532177 0.47633,-0.670497 0.858844,-1.419446 1.313508,-2.08281 0.425823,-0.684749 0.902154,-1.305316 1.263003,-1.883076 0.16601,-0.156928 -0.685613,1.754694 -1.032053,2.867426 -0.07936,-0.007 -0.129912,-0.0358 -0.158754,-0.07849 -0.461897,1.291053 -1.313521,2.460845 -2.61261,4.201267 -0.0433,0.06423 -0.07221,0.128382 -0.115457,0.192582 -0.0078,-0.007 -0.01462,-0.007 -0.01462,-0.01406 -0.03605,0.04996 -0.06496,0.09276 -0.108268,0.142675 0.0288,-0.05705 0.05056,-0.106989 0.07936,-0.164069 -0.158766,-0.164059 -0.353662,0.01417 -0.562935,0.263916 -0.627896,1.512182 -1.414557,2.589238 -2.208451,3.744768 -0.447466,0.549236 -0.909352,1.112733 -1.407336,1.733291 -0.497984,0.627699 -1.017621,1.333851 -1.674371,2.0828 -1.147533,-0.04987 -1.991945,2.075669 -3.680749,2.931617 0.245371,-0.142665 1.161966,-0.399439 2.006368,-0.834544 0.418589,-0.242532 0.815538,-0.5207 1.104227,-0.827413 -0.187654,0.08557 -0.368084,0.128412 -0.548515,0.09985 0.368084,-0.235391 0.678426,-0.499297 0.952661,-0.770344 0.02144,-0.09276 0.03605,-0.178331 0.0288,-0.271057 0.16601,-0.08558 0.24537,-0.08558 0.288678,-0.04987 0.620675,-0.656224 1.111436,-1.291053 1.862023,-1.562101 -0.433021,0.221109 -1.111437,1.262519 -1.825937,1.975813 0,0.01406 0.0078,0.02862 0.0078,0.0358 0.620674,-0.706153 0.707279,-0.848808 1.349607,-0.884473 0.317564,-0.392309 -0.411379,-0.04279 -0.0078,-0.477903 0.519637,-0.192583 1.003178,-0.356642 2.092972,-1.184054 0.209273,-0.206846 0.425811,-0.39945 0.627896,-0.613437 -0.151555,-0.142675 -0.389737,0.04279 -0.64955,0.271046 1.31352,-1.241123 2.540437,-2.617763 3.695181,-4.101409 -0.137123,0.07848 -0.274257,0.09276 -0.389726,-0.01406 0.47633,-0.570628 0.866055,-1.205458 1.277424,-1.826015 0.0078,0.149796 -0.144335,0.684749 -0.368071,1.162661 2.410525,-3.245461 4.445755,-7.025896 6.011868,-11.369817 0.519638,0.007 -0.671181,1.633432 -0.16601,1.654826 0.728932,-0.913007 1.205263,-3.38812 1.580555,-4.971623 -0.555724,-0.435105 -0.505193,1.198324 -0.765017,1.826019 -0.433023,0.727554 0.310354,-2.646299 0.620674,-2.846021 0.339195,0.549231 0.209283,1.676227 -0.07936,2.945881 -0.368084,1.248263 -0.909364,2.632032 -1.241351,3.794693 -0.07936,-0.213966 -0.158763,-0.420833 -0.396945,-0.485033 -0.09386,0.306703 -0.209285,0.613426 -0.339196,0.913007 0.368082,0.142675 0.404157,-0.06423 0.562934,0.927281 -0.05057,0.249654 -0.194852,0.385167 -0.353662,0.470771 -0.0577,0.149797 -0.115446,0.299562 -0.187642,0.456499 -0.331984,0.748951 -0.894918,1.547839 -1.07536,2.125599 0.01462,-0.527832 0.151554,-0.920141 0.339207,-1.305317 -0.173232,0.02862 -0.310354,-0.05705 -0.671193,0.513569 0.122701,0.627689 -0.274257,1.626293 -0.851623,2.731892 -0.685636,1.112733 -1.573334,2.311061 -2.194019,3.34532 -0.01462,-0.142664 -0.03605,-0.278178 -0.09386,-0.392308 -0.180442,0.242532 -0.360871,0.485034 -0.541291,0.727556 0.158765,0.09276 0.194862,0.164068 0.115457,0.920148 -0.396936,0.791748 -1.522815,0.02135 -0.96708,0.927271 -0.678413,0.656224 -0.714501,0.370904 -0.981535,0.420833 -0.757809,0.948674 -1.436211,1.833158 -1.919763,2.53931 -0.01463,-0.09986 -0.05057,-0.149806 -0.09386,-0.17119 -0.656772,0.684759 -1.479519,1.469374 -2.446611,2.204062 -0.548502,0.435105 -1.104226,0.877341 -1.667161,1.319578 -0.0078,0.007 -0.01462,0.01416 -0.02144,0.01416 0.18043,0.04279 0.404157,0.09986 0.137122,0.470772 0.202073,0.11411 0.41138,-0.02135 0.606242,-0.221107 -0.0288,0.01416 -0.0577,0.0358 -0.09386,0.06423 0.0577,-0.356641 0.310354,-0.534963 0.613464,-0.677628 0.122702,-0.128372 0.223737,-0.199704 0.303132,-0.128372 0.346417,-0.135543 0.714501,-0.278178 0.981535,-0.563497 0.06496,0.477903 -0.483552,0.620557 -0.894931,0.741818 0,0.007 0.0078,0.007 0.0078,0.01417 -0.166011,0.135504 -0.281468,0.249654 -0.382505,0.349511 0.0288,0.02862 0.0577,0.06424 0.108269,0.106988 -0.108269,0.07131 -0.187641,0.07849 -0.267045,0.06423 -0.317565,0.378036 -0.245371,0.527841 -0.548513,0.791757 -0.483552,0.192583 -0.837191,0.09986 -1.060919,-0.278178 -0.858844,0.570628 -0.974314,0.948674 -1.046485,1.376647 0.923795,-1.255386 0.238159,0.299562 1.465086,-0.820281 0.05057,0.199715 -0.447465,0.506437 -0.324774,0.684759 0.858834,-0.228269 2.201217,-1.576363 3.139445,-2.047135 -1.118657,1.019997 -2.540425,2.368109 -3.861169,3.323915 -1.291866,0.991472 -2.287833,1.861683 -2.352795,2.168406 0.06496,0.427974 -1.746542,0.599154 -0.48354,-0.135503 -0.519639,0.156926 -2.230094,1.768945 -3.875612,2.339584 0.505205,0.04279 1.118658,-0.09986 0.613464,0.499296 1.508372,-0.449368 1.053696,-0.506437 2.143489,-1.248256 -0.101004,0.206846 -0.194862,0.420843 -0.07221,0.627699 0.952672,-0.699021 0.454675,-0.734688 1.580567,-0.834554 -3.572479,2.154123 -8.343011,4.065733 -13.322836,5.164203 -2.425036,0.620558 -4.972691,0.86308 -7.404868,1.05567 -1.212477,0.03584 -2.410521,0.04997 -3.558051,0.04997 -1.15474,0.02134 -2.251745,-0.135506 -3.305449,-0.206848 -0.368081,0.263931 -0.801106,-0.09276 -1.320739,-0.356641 -0.461897,-0.05705 -0.909359,-0.128373 -1.36404,-0.199706 -0.07941,0.164059 0.461898,0.527833 -0.562936,0.271048 -0.346408,-0.199715 -0.894928,-0.406581 -1.558905,-0.620568 -0.108245,-0.02135 -0.21649,-0.0358 -0.324774,-0.05705 -1.18361,-0.278179 -2.338355,-0.570639 -3.449789,-0.86308 -1.118682,-0.271046 -2.143517,-0.706161 -3.139478,-1.048541 -0.461898,0.178332 -0.801103,-0.378025 -1.29187,-0.784616 -0.375294,-0.149805 -0.757801,-0.299562 -1.13309,-0.456499 -0.180435,0.106979 0.324775,0.663355 -0.627891,0.135504 -0.310352,-0.313864 -0.851626,-0.69189 -1.522818,-1.112732 -0.173224,-0.08558 -0.353659,-0.164059 -0.519636,-0.256785 -0.837189,-0.427974 -1.645505,-0.834545 -2.388877,-1.241124 -0.714496,-0.442237 -1.371254,-0.86308 -1.948627,-1.241116 1.934193,1.455102 3.882822,2.525037 5.773714,3.616366 1.970279,0.934411 3.897258,1.925884 6.084053,2.582108 -3.016517,-0.606295 -5.809551,-1.818886 -8.400506,-3.17414 z M 87.655548,67.515788 c 0.05057,-0.106988 0.101004,-0.221137 0.151556,-0.335258 -0.194864,0.06424 -0.303144,0.128372 -0.151556,0.335258 z m -13.770301,9.800577 c -0.06496,0.06423 -0.137134,0.128382 -0.202075,0.199714 0.122713,0.0358 0.238172,0.02862 0.360873,0.007 -0.07221,-0.02862 -0.08662,-0.121241 -0.158764,-0.206835 z M 3.9872349,36.658933 c 0.1299178,-0.420839 0.252586,-0.820283 0.3319866,-1.176928 -0.1515516,0.356645 -0.288681,0.699027 -0.4258093,1.0414 0.028764,0.08559 0.057729,0.135544 0.093826,0.135544 z M 70.478754,84.520581 c -0.382503,0.363773 -0.866044,0.720415 -1.32073,1.077065 0.02144,0.02862 0.0288,0.04987 0.06496,0.0785 0.757796,-0.378035 1.638285,-0.905877 1.43621,-1.283923 -0.05057,0.0358 -0.115502,0.08557 -0.180441,0.128383 z m -5.160257,3.159867 c 0.144345,-0.114121 0.267047,-0.235402 0.353662,-0.370905 -0.23095,0.106989 -0.483552,0.214007 -0.808326,0.306733 0.122713,0.05705 0.281478,0.07131 0.454687,0.06423 z m 0.70728,-0.221098 c 0.02144,-0.01417 0.0433,-0.02135 0.07221,-0.02862 0.230948,-0.156938 0.404157,-0.263926 0.555712,-0.349521 0.03606,-0.02862 0.07937,-0.04996 0.115458,-0.08557 0.678414,-0.52783 1.29909,-1.191185 1.631085,-1.483635 -1.205263,0.499295 -1.522827,1.069924 -2.287834,1.554968 0.0078,0.09986 -0.101004,0.271046 -0.08662,0.392308 z m 4.929307,-0.34239 c 0.635108,-0.399438 1.082572,-0.727556 0.656772,-0.641961 -0.577377,0.46364 -1.147534,0.663355 -1.602209,0.834544 -0.447467,0.185453 -0.779452,0.370905 -0.923796,0.798889 0.346407,-0.213978 1.212483,-0.620558 1.869233,-0.991472 z m 1.414569,-0.08557 1.984712,-1.312447 -0.209316,-0.28531 c -0.562934,0.542094 -2.367229,1.184055 -1.77542,1.597766 z m 14.0662,-17.29012 c -0.02144,-0.02862 -0.0433,-0.02862 -0.06496,-0.04987 -0.115492,0.306694 -0.281468,0.670486 -0.505206,1.084199 -0.469109,0.891614 -1.125869,2.004347 -1.970271,3.095675 0.873267,-0.891615 1.840369,-2.838891 2.540427,-4.129945 z m -9.822529,5.050085 c -0.02144,-0.06424 -0.01462,-0.128374 -0.0078,-0.185452 -0.844401,0.962935 -1.67437,1.890216 -2.32392,2.838891 0.346417,-0.164059 0.700067,-0.520701 1.075361,-0.948675 0.288677,-0.342379 0.620675,-0.713293 0.931005,-1.112733 0.310354,-0.399438 0.642328,-0.798878 1.017623,-1.134126 -0.187642,-0.09986 -0.447466,0.299572 -0.692848,0.542104 z m 3.031199,-4.836097 c -0.0433,0.135503 -0.129923,0.306732 -0.238159,0.506437 0.115457,-0.164069 0.230948,-0.335258 0.346406,-0.506437 -0.03605,0 -0.06496,-0.007 -0.108269,0 z m -5.044776,0.5849 c -0.238172,0.213967 -0.47633,0.435106 -0.70729,0.677617 0.281479,-0.06423 0.490774,-0.342379 0.70729,-0.677617 z m -0.894931,0.649093 c -0.01463,0.007 -0.02144,0.02135 -0.03605,0.02862 0.0078,0 0.01462,0 0.02143,0 1.2e-5,-0.007 0.0078,-0.02134 0.01463,-0.02862 z M 35.490057,5.9019462 c -0.916577,0.2853064 -1.645506,0.5706298 -1.566121,0.5991527 0.0073,0 0.01457,0 0.02148,0 0.663979,-0.2496582 1.176392,-0.4422435 1.54447,-0.5991527 z M 24.714865,10.288661 c -0.230952,0.07846 -0.721717,0.356643 -1.342391,0.791749 0.649545,-0.370903 1.089789,-0.627691 1.356825,-0.798883 -0.0073,0.0073 -0.0073,0.0073 -0.01457,0.0073 z m -4.676709,2.196931 c 0.05052,-0.03583 0.101025,-0.05709 0.151551,-0.09273 0.317565,-0.22827 0.649543,-0.449374 0.967099,-0.670498 -0.396945,0.249659 -0.786668,0.506435 -1.118656,0.76322 z M 1.1725504,52.914773 c 0.2165288,-0.149802 0.3319865,-0.699023 0.3897254,-1.490769 0.028764,-0.670493 0.072195,-1.5193 0.1227073,-2.46084 -0.00724,-0.249658 -0.028764,-0.477904 -0.072195,-0.656225 0.036053,0.09273 0.072195,0.142672 0.1010364,0.19258 0.021475,-0.392311 0.050519,-0.791749 0.079405,-1.198324 -0.2597965,0.0856 -0.072195,-1.490768 0.288681,-3.609237 0.093826,-0.470774 0.21653,-0.970074 0.3391981,-1.483643 C 2.5726603,41.316708 2.7891891,40.539224 3.0201335,39.904393 3.0634415,39.72607 3.1139605,39.54775 3.157263,39.369427 3.178738,39.290967 3.200571,39.212495 3.229446,39.134029 2.7964172,39.52634 3.5542209,37.900037 3.7851663,36.801578 3.575886,37.329411 3.3665709,37.850112 3.1789255,38.349412 2.8469389,39.262422 2.623205,40.154031 2.377823,41.009979 2.1612941,41.837398 1.9375758,42.64341 1.7788015,43.42803 c -0.028764,0.21397 -0.057729,0.413707 -0.086615,0.634824 -0.00724,0 -0.00724,-0.0072 -0.014578,-0.01411 -0.1010364,0.627695 -0.2020687,1.248258 -0.2814692,1.868818 -0.093827,0.798887 -0.21653,1.590636 -0.252586,2.403787 -0.021475,0.813146 -0.036052,1.633431 -0.028764,2.489375 -0.021475,0.677614 0.00724,1.383768 0.057729,2.104192 z M 26.699576,92.801854 c -0.736146,-0.278179 -2.056881,-1.369507 -2.396091,-1.112723 0.447463,0.299562 0.41138,0.556356 0.81554,0.855938 0.09382,-0.499296 1.320735,0.527831 1.580551,0.256785 z M 87.691635,64.80529 c 0.108269,-0.534964 0.108269,-1.141258 0.06496,-1.291055 -0.230949,0.706163 -0.440243,1.419446 -0.757797,2.089932 0.324775,0.164069 0.584588,-0.263915 0.692846,-0.798877 z m 3.139457,-9.493869 c 0.07936,0.89161 -0.05057,1.540702 -0.18043,2.125598 -0.151557,0.584897 -0.267047,1.1056 -0.09386,1.804619 0.02144,-0.59916 0.353663,-1.51217 0.476342,-2.325317 0.129912,-0.81315 0.165976,-1.505039 -0.202107,-1.6049 z m -12.709384,9.522393 c 0.346406,-1.298174 1.710456,-2.332453 1.37126,-3.245456 -0.360872,0.834549 -1.457865,2.325317 -1.37126,3.245456 z m 2.143489,-5.642103 c -0.05057,0.649092 -0.988745,1.95441 -0.281468,2.032866 -0.180441,-0.855944 0.822749,-1.683356 0.281468,-2.032866 z m 9.743137,19.273052 c 0.541291,-0.841686 1.306309,-1.79036 1.991934,-2.760428 0.671192,-0.970068 1.176397,-2.011468 1.364051,-2.888819 -0.541292,0.920148 -1.212486,2.082809 -1.948628,3.06714 -0.707289,1.012866 -1.291878,1.940146 -1.407357,2.582107 z M 66.899053,95.662139 c -0.122712,-0.185453 -0.252591,-0.320996 -0.837191,-0.05705 l 0.187641,0.485034 c 0.909363,-0.285309 1.732122,-0.677626 1.638295,-1.041399 -0.490773,0.199704 -0.743364,0.40657 -0.988756,0.613425 z M 91.170298,69.327541 c 0.331986,-1.069934 1.291868,-2.760427 1.277435,-3.552173 0.469109,-1.205459 0.808316,-2.325323 0.642329,-2.753297 -0.245381,0.777485 -0.678415,1.925883 -1.089794,3.059998 -0.41859,1.127006 -0.938229,2.204072 -1.118658,2.960154 0.187653,-0.406571 0.461897,-0.920141 0.750587,-1.483636 0.101003,-0.185453 0.194851,-0.385179 0.295887,-0.577761 -0.404158,0.920139 -0.844401,1.868813 -0.757796,2.346715 z m -10.638066,6.547984 c -0.526859,0.520699 -0.887709,0.970067 -1.133089,1.291054 -0.259803,0.313864 -0.368083,0.520699 -0.346452,0.58489 0.0288,0.121241 0.642339,-0.335258 1.479519,-1.875944 z m -1.003177,4.764765 c 1.161953,-1.405174 2.691991,-3.188403 4.106549,-5.071478 -0.108271,0.007 -0.209285,0.02135 -0.339197,0.199714 -0.07936,-0.834555 1.053698,-1.020006 1.47952,-1.811753 0,0.007 0,0.01406 0.0078,0.02135 0.490773,-0.720415 0.959892,-1.440838 1.356829,-2.154122 -0.122713,0.570628 -0.59902,1.362377 -1.161954,2.182657 -0.0577,0.08557 -0.115504,0.164059 -0.173231,0.249663 -0.0288,0.121241 -0.115459,0.235391 -0.22374,0.328117 -0.447466,0.63483 -0.909362,1.248256 -1.291878,1.768956 l -1.789839,2.218325 c -0.627895,0.713302 -1.306311,1.383789 -1.970292,2.068547 z m 4.286979,-5.306869 c 0.10827,-0.149795 0.216527,-0.299562 0.324775,-0.449367 -0.274256,0.164058 -0.483551,0.299602 -0.324775,0.449367 z M 45.225978,97.495296 c -0.70728,-0.01411 -1.024834,-0.07132 -1.0104,-0.178323 0.490764,0.07847 1.0104,0.149795 1.551686,0.228277 -0.05774,0.04996 -0.129917,0.08562 -0.180435,0.149794 1.29187,0.04996 2.728081,0.178314 4.243677,0.156937 1.5156,0.01402 3.117807,0.06417 4.691144,-0.09277 1.58055,-0.114124 3.161105,-0.242532 4.597316,-0.584895 1.443432,-0.313863 2.807472,-0.606301 3.904487,-1.112732 -1.118668,0.178323 -2.302278,0.370907 -3.500318,0.556365 0.83719,-0.171187 1.717677,-0.363771 2.619819,-0.613426 1.472298,-0.378035 3.023989,-0.734686 4.510718,-1.291052 1.49394,-0.51357 2.98789,-1.048542 4.28698,-1.740431 1.313521,-0.670486 2.547647,-1.305317 3.478653,-2.07567 -4.041586,1.797491 -8.855426,4.008683 -12.918678,4.693443 0.259801,-0.11412 0.700068,-0.206847 0.65676,-0.378037 -0.548502,0.442237 -1.486719,0.670487 -2.345564,0.813152 -0.786662,0.142674 -1.472296,0.320996 -1.73211,0.791741 -0.267057,0.03576 -0.53408,0.07132 -0.801115,0.107002 0.108268,-0.0286 0.216539,-0.06417 0.317562,-0.09278 -1.060916,0.249645 -1.262989,0.192569 -0.786661,-0.206852 -1.010398,0.320995 -2.215661,0.442232 -3.493096,0.577753 -0.635107,0.06417 -1.291872,0.114125 -1.955844,0.156946 -0.166012,0.0066 -0.339198,0.0066 -0.505199,0.0066 -0.526856,-0.0066 -1.046484,-0.03576 -1.551686,-0.07847 0.281469,-0.04281 0.728932,-0.02145 0.736147,-0.192588 -0.649548,0.285315 -1.616638,0.271042 -2.482698,0.185455 -0.389727,-0.0286 -0.757805,-0.04272 -1.075354,-0.01402 -0.29589,-0.01411 -0.613455,-0.02136 -0.894927,-0.04977 -0.396944,-0.03576 -0.779454,-0.06417 -1.154742,-0.09278 0.02148,-0.01411 0.04331,-0.02136 0.07218,-0.03575 -0.209279,0.0066 -0.433028,0 -0.649547,-0.0066 -0.158761,-0.0066 -0.310352,-0.01402 -0.461896,-0.0286 -0.765015,-0.05711 -1.573336,-0.178333 -2.410524,-0.306703 -0.63511,-0.09985 -1.277434,-0.221107 -1.926976,-0.349519 -0.649543,-0.128372 -1.284651,-0.335247 -1.919761,-0.506427 -0.0073,0 -0.01457,-0.007 -0.02148,-0.007 0.144342,-0.02862 0.295893,-0.08558 0.368081,-0.156927 -1.428993,-0.328126 -2.821902,-0.820282 -4.229245,-1.262529 -0.880491,0.07131 2.533215,0.934412 3.471447,1.262529 0,0.02134 0.02876,0.02862 0.03604,0.04987 -1.133089,-0.328126 -2.251747,-0.627688 -3.240494,-0.99147 -1.104222,-0.39944 -2.107404,-0.748951 -2.944591,-0.9772 0.851618,0.392307 1.934189,0.87021 3.139452,1.376637 1.219695,0.463641 2.590955,0.870212 3.96221,1.276788 0.685628,0.214014 1.378471,0.370903 2.078535,0.485037 0.692845,0.128416 1.371259,0.242522 2.020798,0.33525 0.649547,0.08562 1.270218,0.185446 1.847591,0.206852 0.591806,0.03575 1.125873,0.0286 1.602203,0.0066 z M 88.355617,73.906855 c -0.440245,0.691889 -1.161965,1.690492 -1.854813,2.674822 -0.700056,0.98434 -1.479507,1.890217 -1.854801,2.574975 0.288678,-0.342389 0.685625,-0.770352 1.111437,-1.241124 0.440254,-0.463641 0.880498,-0.9772 1.255792,-1.512172 0.772228,-1.0414 1.392902,-2.040002 1.342385,-2.496501 z M 41.667931,98.600897 c 0.534067,0.06417 1.082572,0.114115 1.60942,0.135493 0.53407,-0.0066 1.039268,-0.0286 1.472297,-0.04987 -0.541287,0.01411 -1.097005,-0.01402 -1.631071,-0.09986 -0.534072,-0.09986 -1.060919,-0.221107 -1.558902,-0.33525 -0.988748,-0.228277 -1.854805,-0.43511 -2.47548,-0.370911 0.534067,0.363779 1.515595,0.592046 2.583736,0.720435 z M 94.15098,55.603871 c -0.433035,1.226854 0.05056,0.456502 0,0 z M 16.429584,85.690373 c -0.642324,-0.456498 -1.623858,-1.847419 -2.020797,-1.690493 0.353618,0.406571 0.245374,0.641962 0.562937,1.03427 0.223742,-0.449378 1.140308,0.855938 1.45786,0.656223 z M 79.124886,60.532692 c -0.165965,0.741822 -0.981524,1.890215 -0.728922,2.360986 0.526848,-0.748956 0.822748,-1.490774 0.728922,-2.360986 z M 35.583881,3.97606 c 0.461896,-0.121246 0.909358,-0.2425289 1.327953,-0.3495145 0.837188,-0.2425279 1.5589,-0.4921711 2.042451,-0.7988752 -1.645506,0.4778966 -3.608569,0.8702115 -4.756094,1.5834989 0.469112,-0.1498028 0.931007,-0.2924366 1.38569,-0.4351092 z m 61.843681,37.340648 c 0.59902,0.320955 1.19805,0.599155 1.65994,1.283919 -0.0361,-1.219725 -0.43303,-1.376646 -0.62068,-2.282522 -0.5485,0.07133 -0.91657,0.370903 -1.03926,0.998603 z M 49.346964,2.5066837 c -1.198047,-0.021354 -3.067286,-0.6205573 -4.21481,-0.035836 0.28147,0.6276946 3.543618,0.5991717 4.21481,0.035836 z M 92.19513,62.850882 c 0.555724,-0.477903 1.558903,-2.967282 1.313533,-3.987285 -0.490773,1.091328 -1.508395,3.238331 -1.313533,3.987285 z M 71.128293,7.8206832 c 0.779462,0.3709033 1.515604,0.7204207 2.230094,1.0556666 0.700068,0.3637741 1.400136,0.7061571 2.100193,1.0342708 C 74.722437,9.4612471 73.928554,8.9833433 73.113018,8.4983066 72.275815,8.05607 71.416982,7.6066891 70.572581,7.1573244 68.89821,6.2443184 67.17331,5.6594212 65.794828,5.3455799 c 1.032053,0.4493728 1.984713,0.8630853 2.872432,1.2553822 0.880488,0.4351054 1.696025,0.8416806 2.461033,1.2197211 z M 47.037481,1.5294786 c 1.017621,-0.092726 2.020803,-0.2211003 3.002328,-0.2781772 0.988751,-0.042777 1.941414,-0.085595 2.872424,-0.1283751 -1.089789,-0.035836 -2.186789,-0.06421 -3.262142,-0.05708 -1.075353,0.05708 -2.136275,0.1426727 -3.168326,0.242528 -0.512417,0.05708 -1.017616,0.1141149 -1.515599,0.1711916 -0.497979,0.078463 -0.974313,0.1854522 -1.450645,0.2853075 -0.938227,0.2068408 -1.833156,0.4422395 -2.655907,0.6990239 2.064098,-0.3851706 4.135416,-0.7774864 6.177867,-0.9344106 z"
   style="fill:url(#linearGradient9586);fill-opacity:1;fill-rule:nonzero;stroke:none;stroke-width:0.717489"
   id="path9588" />
        <path
   d="M 2.3414722,47.936182 C 13.471014,39.786371 11.584986,31.03312 11.584986,31.03312 5.7199353,32.328387 3.373174,37.258913 3.1613044,38.294327 2.9494316,39.329834 2.5682322,38.62377 2.5682322,38.62377 1.4451589,28.227199 -3.1342433,28.662336 -3.1342433,28.662336 -6.6991441,40.468056 2.3414722,47.936182 2.3414722,47.936182 Z m 2.5961775,15.239646 c 0,0 6.9744363,-9.421817 5.6475403,-19.069442 0,0 -5.2989837,-0.283484 -6.8690108,8.301833 0,0 -0.055025,0.484725 -0.4650794,-0.01664 0,0 -4.15380934,-7.563023 -9.0542082,-7.307449 -9.56e-5,9.3e-5 -0.6148032,13.377037 10.7407581,18.091714 z M 11.884711,56.74749 c 0,0 -5.0333845,2.319058 -4.1082188,10.177473 0,0 0.1991104,0.497934 -0.4833902,0.08541 0,0 -5.5957511,-4.915355 -10.9213697,-3.131641 0,0 3.26286253,10.904746 16.8627167,11.704868 9e-5,-9.3e-5 3.742092,-12.469084 -1.349738,-18.83611 z M 23.960502,86.472615 C 23.55193,69.518386 17.11036,69.083713 17.11036,69.083713 c -3.441164,4.861491 -0.376114,10.522176 -0.376114,10.522176 0.410055,0.960427 -0.698128,0.258182 -0.698128,0.258182 C 9.6119362,74.783478 4.704416,78.844843 4.704416,78.844843 c 6.659636,9.422006 19.256086,7.627772 19.256086,7.627772 z m 1.383682,-73.94411 c 0,0 -3.006325,-2.7284185 -8.790549,0.199659 0,0 -0.908706,-0.4423 -0.0062,-0.877343 0.90251,-0.435044 12.837641,-4.1841786 13.957195,-11.80944291 0,0 -10.739648,-1.25516769 -15.078325,10.06024591 L 14.5754,10.507917 c 0,0 2.980245,-7.3836463 0.104041,-9.91864242 0,0 -7.5851719,5.60663212 -4.832982,18.09775942 0,-9.3e-5 9.315283,1.354815 15.497722,-6.158529 z m -7.617078,7.067041 C 10.051213,18.894323 6.8025906,24.922505 6.8025906,24.922505 8.0051952,17.226532 5.2905519,11.182348 5.2905519,11.182348 -3.2156252,22.711933 3.5244677,32.81246 3.5244677,32.81246 17.842984,28.41225 17.727106,19.595546 17.727106,19.595546 Z M 96.838635,38.294331 C 96.62675,37.258916 94.280001,32.32839 88.414947,31.03312 c 0,0 -1.886021,8.753255 9.243508,16.903062 0,0 9.040625,-7.468126 5.475705,-19.273846 0,0 -4.579487,-0.435137 -5.702558,9.961438 1.9e-5,0 -0.381097,0.70606 -0.592967,-0.329443 z m -0.0898,14.097327 c -0.410151,0.501379 -0.465077,0.01664 -0.465077,0.01664 -1.570132,-8.585321 -6.869026,-8.301837 -6.869026,-8.301837 -1.326893,9.647622 5.64746,19.069439 5.64746,19.069439 11.355658,-4.714677 10.740938,-18.091618 10.740938,-18.091618 -4.90039,-0.255756 -9.054295,7.307359 -9.054295,7.307359 z M 92.70674,67.010277 c -0.682504,0.41253 -0.483396,-0.08541 -0.483396,-0.08541 C 93.14842,59.066449 88.115127,56.747398 88.115127,56.747398 83.023288,63.114513 86.765208,75.583409 86.765208,75.583409 100.36515,74.783289 103.62801,63.87854 103.62801,63.87854 98.302392,62.094922 92.70674,67.010281 92.70674,67.010281 Z m -8.743013,12.853787 c 0,0 -1.108097,0.702245 -0.698033,-0.258182 0,0 3.065045,-5.660684 -0.376206,-10.522176 0,0 -6.441573,0.434673 -6.850055,17.388906 0,0 12.596461,1.794226 19.256172,-7.627783 0,1.4e-5 -4.907607,-4.061454 -11.331878,1.019235 z m -6.743705,8.533221 c -3.418322,-0.652286 -9.793676,-3.711918 -12.37182,-3.862359 -2.57824,-0.150351 -7.198424,-1.203067 -13.875169,4.523952 -0.326455,0.280132 -0.650965,0.558879 -0.972976,0.83594 -0.322014,-0.277161 -0.646431,-0.555897 -0.972979,-0.83594 -6.676747,-5.727019 -11.296932,-4.674303 -13.875165,-4.523952 -2.578145,0.150352 -8.953591,3.210073 -12.371824,3.862359 -3.41823,0.652285 -7.5295,0.05229 -7.5295,0.05229 4.695651,8.192524 11.663521,8.12058 15.548956,8.12058 3.88553,0 10.719486,-4.957774 13.281448,-5.404355 1.273997,-0.222173 2.543741,0.269345 3.49878,0.819472 C 42.43227,96.446885 38.444647,100 38.444647,100 H 42.32268 L 50.000149,93.811418 57.677614,100 h 3.878039 c 0,0 -3.987625,-3.553115 -9.135035,-8.014729 0.955039,-0.55013 2.22478,-1.041459 3.498684,-0.819472 2.562051,0.446581 9.396103,5.404355 13.281445,5.404355 3.885531,0 10.853309,0.07184 15.549049,-8.120587 0,-9e-5 -4.111637,0.599911 -7.529772,-0.05228 z M 83.4524,11.850821 c 0.902507,0.435043 -0.0061,0.877346 -0.0061,0.877346 -5.784314,-2.9281732 -8.790549,-0.199659 -8.790549,-0.199659 6.18254,7.513341 15.497721,6.158433 15.497721,6.158433 C 92.905578,6.1958141 85.320412,0.58918195 85.320412,0.58918195 82.444297,3.124178 85.424536,10.507824 85.424536,10.507824 L 84.573637,10.101531 C 80.234957,-1.2137896 69.495309,0.04137809 69.495309,0.04137809 70.614959,7.6666424 82.549995,11.41587 83.452412,11.850821 Z m -1.179575,7.744725 c 0,0 -0.115875,8.816797 14.202549,13.21701 0,0 6.740186,-10.10053 -1.766174,-21.630118 0,0 -2.71456,6.044187 -1.511949,13.74016 0,-1.96e-4 -3.248536,-6.028275 -10.924426,-5.327052 z"
   style="fill:#e4bd22;fill-opacity:1;fill-rule:evenodd;stroke:none;stroke-width:0.0927582"
   id="path9600" />
        <image
   width="1"
   height="1"
   style="image-rendering:optimizeQuality"
   preserveAspectRatio="none"
   transform="matrix(69.069961,0,0,69.664739,15.465019,15.16763)"
   xlink:href="file:image9616.png"
   id="image9616" />
    </g>
</svg>
