<?xml version="1.0" encoding="UTF-8" standalone="no"?>
<svg xmlns:dc="http://purl.org/dc/elements/1.1/" xmlns:cc="http://creativecommons.org/ns#"
    xmlns:rdf="http://www.w3.org/1999/02/22-rdf-syntax-ns#" xmlns:svg="http://www.w3.org/2000/svg"
    xmlns="http://www.w3.org/2000/svg" version="1.1" id="svg885" xml:space="preserve" width="100" height="100"
    viewBox="0 0 100 100">
    <g id="g2061" style="display:inline">
        <path
            d="m 100,49.999971 c 0,23.66336 -16.43538,43.48541 -38.51522,48.67512 -1.52474,0.36062 -3.08087,0.64675 -4.65663,0.86234 -0.44682,0.0627 -0.8976,0.11759 -1.35229,0.16465 C 53.67671,99.898081 51.85013,100 50,100 48.40077,100 46.81721,99.925501 45.25712,99.776571 19.86518,97.389451 0,76.015191 0,49.999991 0,22.38554 22.38556,0 50,0 c 19.74759,0 36.8219,11.449512 44.94749,28.073057 1.75213,3.582624 3.08874,7.412204 3.94324,11.414234 0.14499,0.67419 0.2743,1.3523 0.39196,2.03826 0.14891,0.87018 0.27822,1.74819 0.37629,2.63405 0.22728,1.91283 0.34091,3.86485 0.34091,5.84039 z"
            style="fill:#2453ff;fill-opacity:1;fill-rule:nonzero;stroke:none;stroke-width:0.391974" id="path11376" />
        <path
            d="m 22.064665,45.14899 c 0,0 4.302595,6.244704 2.080181,19.620206 H 77.19832 c 0,0 -4.444833,-12.63374 2.364275,-22.300473 L 72.37483,39.310287 c 0,0 -1.182136,7.124616 -7.092813,8.661772 -2.089711,0.543769 -4.964973,0.717436 -8.038525,-2.96702 -2.760096,-3.310102 -5.863393,-11.437367 -2.836741,-15.265775 3.02703,-3.828407 -7.754808,0.861392 -7.754808,0.861392 0.378283,6.173689 -0.270751,13.225369 -3.154395,16.335568 -1.46356,1.578832 -3.843466,2.017632 -7.484062,0.868338 -6.150155,-1.940447 -8.086188,-8.494665 -8.086188,-8.494665 z"
            style="fill:#eaba40;fill-opacity:1;fill-rule:nonzero;stroke:none;stroke-width:0.383624" id="path11438" />
        <path d="M 22.339229,64.577776 H 78.135643 V 75.201603 H 22.339229 Z"
            style="fill:#eaba40;fill-opacity:1;fill-rule:nonzero;stroke:none;stroke-width:0.383624" id="path11440" />
        <path
            d="m 33.360926,36.198544 c 0,0.668019 -0.06439,1.329627 -0.193172,1.984813 -0.128773,0.655183 -0.319455,1.291362 -0.572058,1.908535 -0.2526,0.617176 -0.562262,1.20349 -0.928972,1.758925 -0.36671,0.55544 -0.783439,1.069342 -1.250181,1.54171 -0.466749,0.472361 -0.974533,0.894111 -1.523357,1.265246 -0.548831,0.371136 -1.128157,0.684525 -1.737987,0.940164 -0.609821,0.255642 -1.238428,0.448626 -1.885822,0.57895 -0.647383,0.130332 -1.301112,0.195496 -1.961178,0.195496 -0.660074,0 -1.313807,-0.06516 -1.961197,-0.195488 -0.647391,-0.130328 -1.275994,-0.323308 -1.885823,-0.578954 -0.609829,-0.255639 -1.189156,-0.569028 -1.737983,-0.940168 -0.548831,-0.371135 -1.056616,-0.792885 -1.523357,-1.265246 -0.466742,-0.472368 -0.883471,-0.98627 -1.250185,-1.54171 -0.366717,-0.555435 -0.676376,-1.141749 -0.928971,-1.758925 -0.252596,-0.617173 -0.443286,-1.253352 -0.572055,-1.908535 -0.128776,-0.655186 -0.193161,-1.316794 -0.193157,-1.984813 -4e-6,-0.668022 0.06438,-1.32963 0.193153,-1.984817 0.128773,-0.65519 0.319463,-1.291366 0.572059,-1.908542 0.252595,-0.617176 0.562254,-1.203482 0.928971,-1.758926 0.366714,-0.555443 0.783443,-1.069345 1.250185,-1.541709 0.466741,-0.472365 0.974526,-0.894115 1.523353,-1.265243 0.548831,-0.371135 1.128158,-0.684524 1.737987,-0.940163 0.609829,-0.255647 1.238432,-0.448626 1.885823,-0.578954 0.64739,-0.130324 1.301123,-0.195484 1.961197,-0.195484 0.660066,0 1.313795,0.06516 1.961189,0.195484 0.647383,0.130328 1.27599,0.323307 1.885811,0.578946 0.60983,0.255647 1.189156,0.569036 1.737987,0.940171 0.548824,0.371128 1.056608,0.792878 1.523357,1.265243 0.466742,0.472364 0.883471,0.986266 1.250181,1.541709 0.36671,0.555444 0.676372,1.14175 0.928972,1.758926 0.252603,0.617176 0.443285,1.253352 0.572058,1.908542 0.12878,0.655187 0.193172,1.316795 0.193172,1.984817 z"
            style="fill:#da8c2c;fill-opacity:1;fill-rule:nonzero;stroke:none;stroke-width:0.383624" id="path11442" />
        <path
            d="m 60.290347,26.024706 c -4e-6,0.668045 -0.06439,1.329673 -0.19318,1.984886 -0.128773,0.655217 -0.319471,1.291416 -0.572078,1.908616 -0.252607,0.617199 -0.562277,1.203528 -0.928998,1.758991 -0.366737,0.555459 -0.783478,1.06938 -1.250234,1.541767 -0.466764,0.472384 -0.974568,0.894146 -1.523418,1.265297 -0.548847,0.371147 -1.1282,0.684544 -1.738048,0.940194 -0.609853,0.255651 -1.238482,0.448646 -1.885888,0.578973 -0.647417,0.130332 -1.301169,0.195496 -1.961262,0.195504 -0.6601,-8e-6 -1.313859,-0.06517 -1.961273,-0.195504 -0.64741,-0.130327 -1.276039,-0.323322 -1.885891,-0.578973 -0.609853,-0.25565 -1.189206,-0.569047 -1.738056,-0.940194 -0.548846,-0.371151 -1.05665,-0.792913 -1.52341,-1.265297 -0.466757,-0.472387 -0.883505,-0.986308 -1.250238,-1.541767 -0.366725,-0.555463 -0.676395,-1.141792 -0.929006,-1.758991 -0.252607,-0.6172 -0.443301,-1.253399 -0.572078,-1.908604 -0.128776,-0.655217 -0.193164,-1.316853 -0.193157,-1.984898 -7e-6,-0.668053 0.06438,-1.329685 0.193157,-1.984894 0.128777,-0.65521 0.319471,-1.29142 0.572078,-1.90862 0.252611,-0.617199 0.562281,-1.203528 0.929006,-1.758995 0.366733,-0.555458 0.783481,-1.06938 1.250238,-1.541756 0.46676,-0.472384 0.974564,-0.894149 1.52341,-1.265296 0.54885,-0.371151 1.128203,-0.684548 1.738056,-0.940198 0.609852,-0.255651 1.238481,-0.448642 1.885899,-0.57897 0.647406,-0.130328 1.301165,-0.195496 1.961265,-0.195496 0.660093,0 1.313845,0.06517 1.961262,0.1955 0.647406,0.130328 1.276039,0.323315 1.885892,0.578966 0.609852,0.25565 1.189197,0.569047 1.738044,0.940198 0.54885,0.371147 1.056654,0.792912 1.523418,1.265296 0.466756,0.472376 0.883497,0.986298 1.250226,1.541756 0.366729,0.555467 0.676399,1.141796 0.929006,1.758995 0.252607,0.6172 0.443305,1.25341 0.572085,1.908612 0.128781,0.655217 0.193169,1.316849 0.193173,1.984902 z"
            style="fill:#da8c2c;fill-opacity:1;fill-rule:nonzero;stroke:none;stroke-width:0.383624" id="path11444" />
        <path
            d="m 87.21865,36.198544 c 0,0.667996 -0.06439,1.329581 -0.193169,1.984736 -0.128769,0.655167 -0.319447,1.29132 -0.572039,1.908465 -0.252588,0.617146 -0.562235,1.203436 -0.928941,1.75886 -0.366706,0.55542 -0.783417,1.069307 -1.250135,1.541652 -0.46673,0.472349 -0.974492,0.89408 -1.5233,1.265196 -0.548808,0.37112 -1.128116,0.684498 -1.737919,0.940125 -0.60981,0.255631 -1.238389,0.448607 -1.885757,0.578931 -0.647353,0.130328 -1.301059,0.195488 -1.961098,0.195492 -0.660048,-4e-6 -1.313757,-0.06516 -1.961121,-0.195485 -0.647364,-0.130324 -1.275948,-0.323299 -1.885758,-0.578934 -0.60981,-0.255631 -1.189106,-0.569009 -1.737914,-0.940129 C 71.03269,44.286337 70.524929,43.86461 70.05821,43.392265 69.591492,42.919919 69.174781,42.406033 68.808075,41.850613 68.441369,41.295181 68.131722,40.708891 67.87913,40.091745 67.626542,39.4746 67.435864,38.838447 67.307095,38.18328 c -0.128769,-0.655155 -0.193146,-1.31674 -0.193146,-1.984736 0,-0.667999 0.06438,-1.329584 0.193146,-1.984747 0.128769,-0.65516 0.319447,-1.291312 0.572035,-1.908465 0.252592,-0.617154 0.562239,-1.203436 0.928945,-1.75886 0.366706,-0.55542 0.783417,-1.069307 1.250135,-1.541652 0.466719,-0.472345 0.97448,-0.894076 1.523289,-1.265196 0.548808,-0.371116 1.128104,-0.68449 1.737914,-0.940121 0.60981,-0.255627 1.238394,-0.448603 1.885758,-0.578927 0.647364,-0.13032 1.301073,-0.19548 1.961121,-0.19548 0.660039,0 1.313745,0.06516 1.961098,0.19548 0.647368,0.130324 1.275947,0.3233 1.885757,0.578927 0.609815,0.255631 1.189122,0.569008 1.73793,0.940129 0.548809,0.371116 1.05657,0.792843 1.5233,1.265188 0.466719,0.472345 0.883418,0.986232 1.250124,1.541652 0.366706,0.555424 0.676353,1.141706 0.928941,1.75886 0.252592,0.617153 0.44327,1.253305 0.572039,1.908465 0.128776,0.655163 0.193169,1.316748 0.193169,1.984747 z"
            style="fill:#da8c2c;fill-opacity:1;fill-rule:nonzero;stroke:none;stroke-width:0.383624" id="path11446" />
        <path
            d="m 79.598055,65.476599 c 0,0.951699 -0.761902,1.722787 -1.701898,1.722787 H 22.578322 c -0.940748,0 -1.702653,-0.771088 -1.702653,-1.722787 v -0.861388 c 0,-0.951313 0.761905,-1.722397 1.702653,-1.722397 h 55.317847 c 0.939984,0 1.701897,0.771084 1.701897,1.722397 v 0.861388 z"
            style="fill:#da8c2c;fill-opacity:1;fill-rule:nonzero;stroke:none;stroke-width:0.383624" id="path11448" />
        <path
            d="m 79.598055,76.028257 c 0,0.951313 -0.761902,1.722401 -1.701898,1.722401 H 22.578322 c -0.940748,0 -1.702653,-0.771076 -1.702653,-1.722401 v -0.861778 c 0,-0.951312 0.761905,-1.722405 1.702653,-1.722405 h 55.317847 c 0.939984,0 1.701897,0.771081 1.701897,1.722405 v 0.861778 z"
            style="fill:#da8c2c;fill-opacity:1;fill-rule:nonzero;stroke:none;stroke-width:0.383624" id="path11450" />
        <path
            d="M 28.785677,20.775311 C 19.861698,21.865172 18.987299,22.749333 17.909653,31.781982 16.832003,22.749723 15.958367,21.865554 7.0340044,20.775311 15.957985,19.683902 16.831621,18.799741 17.909653,9.7674816 18.987299,18.799741 19.861698,19.683902 28.785677,20.775311 Z"
            style="fill:#eaba40;fill-opacity:1;fill-rule:nonzero;stroke:none;stroke-width:0.383624" id="path11452" />
        <path
            d="m 93.509879,80.348727 c -8.924738,1.090251 -9.797611,1.974019 -10.876024,11.006667 -1.077276,-9.032263 -1.950905,-9.916038 -10.876028,-11.006667 8.924738,-1.091795 9.798382,-1.975952 10.876028,-11.007833 1.078413,9.031881 1.951286,9.916038 10.876024,11.007833 z"
            style="fill:#eaba40;fill-opacity:1;fill-rule:nonzero;stroke:none;stroke-width:0.383624" id="path11454" />
    </g>
</svg>