<?xml version="1.0" encoding="UTF-8" standalone="no"?>
<svg xmlns:dc="http://purl.org/dc/elements/1.1/" xmlns:cc="http://creativecommons.org/ns#"
    xmlns:rdf="http://www.w3.org/1999/02/22-rdf-syntax-ns#" xmlns:svg="http://www.w3.org/2000/svg"
    xmlns="http://www.w3.org/2000/svg" version="1.1" id="svg885" xml:space="preserve" width="100" height="100"
    viewBox="0 0 100 100">
    <defs>
        <linearGradient x1="-0.39899999" y1="68.556999" x2="137.05499" y2="68.556999" gradientUnits="userSpaceOnUse"
            gradientTransform="matrix(-0.02627955,-0.17288931,-0.17121791,0.02653607,-51.269238,-14.452311)"
            spreadMethod="pad" id="linearGradient4907">
            <stop style="stop-opacity:1;stop-color:#181c3f" offset="0" id="stop4903" />
            <stop style="stop-opacity:1;stop-color:#203572" offset="1" id="stop4905" />
        </linearGradient>
    </defs>
    <g id="g8008" style="display:inline">
        <path
            d="m 76.947104,85.351827 c -0.50523,1.12236 -2.114759,1.4649 -3.334539,2.49981 -0.43306,0.22591 0.13714,-0.23324 0.95994,-0.82355 0.822809,-0.56848 1.804409,-1.39931 2.374599,-1.67626 z m 0.2887,5.18911 0.31037,0.43 c 0.80116,-0.51746 1.49405,-1.12237 1.30639,-1.45033 -0.41863,0.32798 -0.60628,0.59033 -0.78672,0.85999 -0.16602,-0.15306 -0.332,-0.25509 -0.83003,0.16035 z m 12.616408,-26.25166 c 0.3248,-0.95474 0.58463,-1.85846 0.54854,-2.45609 -0.86611,3.54201 -2.82209,7.62334 -4.07074,10.42196 0.46192,-0.84542 0.9383,-1.68355 1.36413,-2.55083 l 1.1476,-2.66015 c 0.30313,-0.7944 0.69289,-1.80016 1.01047,-2.75489 z M 81.573603,13.484071 c 0.89498,0.663214 1.64561,1.406599 2.39625,2.084387 0.7362,0.69237 1.46518,1.348296 2.10755,2.0188 1.255859,1.377448 2.468409,2.616415 3.522189,3.862683 0.0215,0.02922 0.0505,0.05832 0.0722,0.08746 0.23097,0.619486 0.35369,1.209828 0.3248,1.756433 0.69289,0.874564 1.227,1.785572 1.775539,2.638285 0.5341,0.867283 1.0682,1.683544 1.52292,2.499813 0.0146,0.02182 0.0215,0.04375 0.0288,0.05832 -0.007,0.08746 -0.0215,0.167631 -0.0146,0.26966 0.0577,0.01441 0.12271,0.02922 0.18045,0.04371 0.79394,1.515924 1.56622,2.915231 2.21581,4.278104 0.67846,1.486761 1.41466,2.871501 2.093109,4.248951 0.6568,1.38473 1.38578,2.73303 2.20138,4.11047 -0.51245,-1.40659 -1.11151,-3.06099 -1.75388,-4.84657 -0.75063,-1.72727 -1.443529,-3.607594 -2.280769,-5.429614 -0.2526,-0.524743 -0.4908,-1.05677 -0.7362,-1.588801 0.007,0 0.007,0.0074 0.0146,0.0074 -0.15156,-0.50288 -0.31037,-0.801688 -0.48358,-1.049485 -0.41862,-0.918301 -0.83725,-1.822016 -1.28474,-2.682011 0.76507,0.852706 1.55901,1.698122 2.41069,2.53625 -0.85168,-1.224398 -1.85493,-2.667437 -2.93758,-4.219798 -0.22375,-0.276944 -0.44027,-0.568467 -0.66402,-0.85999 0,0 0,-0.0074 0,-0.0074 -0.37532,-0.801691 -0.757849,-1.559649 -1.060989,-2.295744 -0.83725,-0.145777 0.562969,1.078636 0.28149,1.275411 -0.40419,-0.539316 -0.80839,-1.078644 -1.23422,-1.610663 -0.79394,-1.093214 -1.56622,-2.142702 -2.39625,-3.082866 -0.59906,-0.714233 -1.19091,-1.39931 -1.775529,-2.047944 -0.18766,-0.196771 -0.38253,-0.378973 -0.57741,-0.561182 -0.60629,-0.699655 -1.19091,-1.39931 -1.73223,-2.077103 -0.5702,-0.677792 -1.13317,-1.311856 -1.61675,-1.945915 -0.88055,0.08017 0.96715,0.969311 0.57019,1.187957 -1.64562,-1.311856 -3.125229,-2.594556 -4.677029,-3.622178 -0.75785,-0.532035 -1.50848,-1.042196 -2.24468,-1.51592 -0.75063,-0.45187 -1.522919,-0.838128 -2.273549,-1.20982 1.717789,1.377447 3.536639,2.660148 5.095639,3.877256 1.54459,1.23896 2.677759,2.550816 2.930379,3.811654 z M 56.456275,2.019921 c 0.952725,0.204056 1.840494,0.386258 2.684954,0.568467 0.85168,0.160347 1.652835,0.31337 2.43234,0.459151 0.772286,0.174916 1.537356,0.335263 2.302426,0.466435 C 63.045966,3.266169 62.150985,3.00381 61.241561,2.726865 60.317706,2.508238 59.364981,2.289573 58.441126,2.070943 56.586198,1.611788 54.760138,1.480608 53.352697,1.531619 c 1.11873,0.174916 2.14363,0.335263 3.103578,0.488302 z m 39.429876,65.352216 c 0.30316,-0.96932 0.79394,-2.10626 1.19812,-3.2432 0.396979,-1.13695 0.606279,-2.29575 0.562979,-3.20676 -0.28149,1.04949 -0.627929,2.36863 -1.075429,3.53472 -0.42584,1.18067 -0.75063,2.25202 -0.68567,2.91524 z M 37.055297,1.611788 c 0.93829,-0.2988 1.854929,-0.597631 2.735479,-0.88186396 C 38.722571,0.97772904 37.661578,1.240088 36.622239,1.524322 35.59734,1.86687 34.594087,2.223985 33.626927,2.595669 33.143345,2.785156 32.674202,2.974643 32.205055,3.164141 31.750343,3.368197 31.310067,3.601433 30.884228,3.827356 30.032549,4.279217 29.23139,4.745653 28.502413,5.212092 30.393428,4.286498 32.291665,3.353624 34.225989,2.675839 35.185933,2.31872 36.124226,1.925166 37.055297,1.611788 Z M 24.994649,7.383946 c 0.750634,-0.459147 1.378566,-0.896435 1.761099,-1.326437 -1.465177,0.896434 -3.255145,1.800153 -4.179004,2.805909 0.411407,-0.262375 0.82281,-0.532027 1.226997,-0.78711 0.411407,-0.240481 0.815591,-0.47372 1.190908,-0.692362 z m 52.313335,58.690911 c -0.22375,0.27694 -0.55575,0.77253 -0.90942,1.36287 -0.35368,0.59762 -0.82281,1.23168 -1.18369,1.91676 0.10104,0.18949 0.17323,0.50288 0.14435,0.10203 0.27428,-0.67779 0.99603,-1.28999 1.21978,-1.52321 -0.39697,0.53932 -0.87334,1.10779 -0.41141,1.28999 0.007,-0.16035 0.0577,-0.2988 0.12272,-0.43728 0.0215,0.0437 0.0361,0.0802 0.0794,0.12388 0.15156,0.0292 0.49802,-0.32798 0.75785,-0.75067 0.23818,-0.43 0.41141,-0.90372 0.31759,-1.02033 -0.0722,0.1822 -0.23097,0.35711 -0.41141,0.53202 0.0505,-0.13116 0.0433,-0.25509 -0.0649,-0.37169 -0.0505,0.15307 -0.17324,0.33527 -0.30317,0.51746 1.11151,-2.00422 1.08986,-2.29575 0.64237,-1.74185 z m 4.814159,-0.84542 c 0.36089,-0.80898 1.09707,-1.69084 0.52688,-2.24473 -0.33201,0.93287 -0.64236,1.69812 -0.52688,2.24473 z m -26.070059,34.36329 c 0.512448,-0.14577 0.996029,-0.2988 1.407433,-0.43728 -0.519664,0.15306 -1.060986,0.27695 -1.602308,0.33526 -0.541322,0.0437 -1.082644,0.0583 -1.587876,0.0729 -1.017688,0.0292 -1.905449,0.051 -2.490076,0.28423 0.606278,0.211343 1.616745,0.182203 2.684958,0.0366 0.526875,-0.0729 1.068197,-0.17491 1.587869,-0.29151 z m 29.050939,-30.06333 c 0.0649,0.10932 0.54132,-0.50287 0.93829,-2.23743 -0.37532,0.64863 -0.60628,1.18795 -0.75785,1.57422 -0.15878,0.37169 -0.21655,0.6122 -0.18045,0.66321 z m -7.773389,10.71348 c 0.64237,-0.93287 1.56623,-1.94592 1.67449,-2.79862 -0.48358,0.60491 -1.26308,1.33372 -1.81883,1.85846 -0.55576,0.53203 -0.89499,0.87457 -0.56298,0.64135 0.87333,-0.93287 0.12268,0.22595 0.70732,0.2988 z m 6.228819,-8.10434 c -1.03213,0.73609 -1.19813,2.17914 -2.3313,3.43997 1.1043,-0.0656 1.75388,-2.90794 2.3313,-3.43997 z m -57.538901,20.07137 c -0.245391,0.0875 -0.728977,0.051 -0.671237,-0.21134 -0.66402,-0.45915 -2.836527,-1.7127 -3.139666,-2.06253 -0.79394,-0.51017 -1.573445,-1.01305 -2.324076,-1.52321 -1.342476,-0.98389 -2.728263,-1.85117 -4.034651,-2.71845 0.555757,0.15306 1.08986,0.22591 1.84771,0.73609 -0.606277,-0.6122 -1.183688,-1.20253 -1.746665,-1.79286 -0.433057,-0.40814 -0.858895,-0.81627 -1.270302,-1.23169 -1.198123,-1.31186 -2.374596,-2.58727 -3.471675,-3.85539 -1.046554,-1.30457 -2.1652866,-2.49982 -3.1974064,-3.68049 0.4980139,0.29152 0.9960298,0.50288 1.5950957,1.19525 -0.04331,-0.0802 -0.08662,-0.15306 -0.129926,-0.23323 -2.2085926,-3.08286 -3.8686473,-6.27504 -5.1100791,-9.80976 -0.3464319,0.1822 -0.01458,1.01305 0.3681049,1.87304 -0.02877,0.53203 -0.3392199,-0.29151 -0.6928908,-1.26813 -0.368106,-0.96203 -0.6423669,-2.12812 -0.9238549,-2.17185 0.425842,0.0802 0.440277,-0.57575 0.230968,-1.65439 -0.115465,-0.50288 -0.245391,-1.11508 -0.3825289,-1.78558 -0.6423709,-2.35405 -1.0682088,-4.72268 -1.2630828,-7.18605 -0.259853,0.0583 -0.2887,0.51017 -0.230968,1.08593 0.02877,0.19677 0.05052,0.38625 0.07941,0.59033 0.01458,0.0729 0.02148,0.14578 0.03606,0.22595 -0.101042,0.30609 -0.173236,0.10203 -0.2309679,-0.33526 -0.346432,-0.44457 -0.173235,-2.18642 -0.64958593,-3.62217 -0.30312394,0.35712 -0.22375596,1.34829 -0.38252993,1.93863 -0.83002885,-2.09897 0.79393686,-2.82778 0.5629729,-5.34945 -0.23817896,0.24052 -0.33922094,0.80168 -0.36089393,1.51592 C 0.34643994,50.631407 0.34643994,49.997357 0,50.113967 c 0.11546498,-2.84964 0.49079691,-5.71386 1.1115138,-8.54892 -0.05052,0.1166 -0.101041,0.22591 -0.15156197,0.3207 -0.12271498,-1.02763 0.18765897,-1.63982 0.59184187,-2.24473 0.158774,-0.61949 0.346433,-1.23169 0.5268869,-1.84389 -0.01458,-0.23323 -0.03606,-0.45186 -0.2598139,-0.44457 2.0642416,-6.68317 5.629746,-13.060239 10.4222483,-18.489856 1.234213,-1.392033 2.547823,-2.718463 3.933606,-3.979293 0.902204,-0.874572 1.826059,-1.727285 2.786003,-2.550827 0.252603,-0.145777 0.526886,-0.320694 0.793939,-0.488302 0.505233,-0.823554 2.490081,-1.771006 3.52942,-2.594556 -0.07941,0.145777 -0.230968,0.306085 -0.418623,0.459146 2.208592,-1.450328 4.525448,-2.754891 6.95057,-3.899123 0.281488,-0.07289 0.591846,-0.174916 0.887768,-0.262375 0.649586,-0.612201 2.533386,-0.99847 3.774818,-1.464898 -0.844464,0.211341 -1.64562,0.26966 -1.847714,0.01441 0.952725,-0.874568 2.923138,-0.772536 4.085175,-1.064066 -0.245391,0.357118 -1.125951,0.750673 -2.013717,0.998466 -0.606281,0.53932 -2.43234,0.889146 -3.673773,1.428466 0.108253,-0.03662 0.202083,-0.05832 0.310374,-0.09474 0.541322,-0.145777 1.118733,-0.306085 1.717795,-0.466436 1.198127,-0.306084 2.453995,-0.772535 3.832561,-1.049484 1.371347,-0.291515 2.786003,-0.677785 4.2584,-0.881865 1.472395,-0.189486 2.959222,-0.429995 4.438838,-0.488302 1.176469,-0.07289 2.352945,-0.09474 3.529418,-0.07289 0.0073,0 0.02148,0 0.02877,0 0.04331,0 0.08662,0 0.122677,0 0.151562,0 0.310373,0 0.461931,0.0074 5.081205,0.02182 10.191284,0.721529 15.092045,2.346762 10.155209,3.286923 19.451487,9.940941 25.550396,19.437309 -0.17324,-0.01441 -0.35369,-0.109313 -0.55576,-0.306084 1.44352,2.106254 2.728259,4.336407 3.825339,6.683169 0.38253,0.6705 0.76507,1.341004 1.14039,1.996934 0.27428,0.502879 0.55576,0.991175 0.79394,1.501335 0.22376,0.51016 0.44028,1.02762 0.64237,1.54508 -0.41862,-0.34984 -0.77229,-1.05677 -1.16204,-1.81473 -0.0577,-0.10203 -0.10825,-0.20406 -0.16598,-0.30609 0.31037,0.80898 0.60627,1.61796 0.87333,2.4488 -0.25981,-0.0947 -0.49802,-0.35712 -0.69289,-0.99118 0.007,0.0437 0.0215,0.0875 0.0361,0.13121 0.10104,0.29151 0.20929,0.58304 0.30316,0.88914 0.2887,0.86728 0.58462,1.75643 0.87333,2.61642 0.23818,0.87457 0.43307,1.72728 0.59907,2.48524 -0.31757,-0.80898 -0.59184,-1.7127 -0.92384,-2.66744 0.31757,1.16609 0.66402,2.30303 1.03933,3.43268 0.295919,1.12966 0.591859,2.24473 0.880549,3.33794 0.12993,0.5539 0.28149,1.10051 0.37532,1.6544 0.0866,0.55389 0.16603,1.10778 0.22375,1.65439 -0.31758,-0.45186 -0.47637,-1.21711 -0.6568,-2.06253 -0.2093,-0.83813 -0.39697,-1.75643 -0.642379,-2.5071 0.0577,1.17338 0.339229,2.8715 0.425849,4.70081 0.0577,0.91101 0.11547,1.85117 0.17323,2.75489 0.007,0.90372 -0.0215,1.77829 -0.0577,2.55811 -0.13714,-1.17337 -0.15156,-2.4998 -0.30312,-3.93556 -0.14435,-1.42846 -0.13714,-2.96624 -0.389749,-4.5186 -0.46915,1.22439 -0.68567,3.00269 -0.8156,4.7664 -0.0361,0.43729 -0.0722,0.88186 -0.10825,1.31186 -0.0722,0.42999 -0.13714,0.84542 -0.20208,1.24626 -0.14435,0.80169 -0.31759,1.51592 -0.55576,2.0771 0.12993,-0.30608 -0.0794,-0.40084 -0.35368,-0.29151 0.0361,0.91829 -0.3248,2.45608 -0.36089,3.43997 -0.26703,-0.56847 0.0938,-2.1427 0.21654,-3.35981 -0.23097,0.14578 -0.47636,0.41542 -0.60627,0.83814 -0.0288,0.0729 -0.0505,0.13845 -0.0722,0.20406 -0.007,-0.0947 -0.0433,-0.17492 -0.10825,-0.21864 0.15877,0.10932 -1.08265,1.50136 -0.90221,0.25509 -0.34643,1.51592 -0.7795,2.91524 -1.22699,4.22709 -0.512439,1.29 -1.104289,2.48523 -1.681699,3.63675 0.27428,-1.28998 1.3497,-3.3598 1.789959,-5.48791 0.563,-2.09897 0.563,-4.16151 -0.461919,-4.93404 -0.64958,0.75067 -1.24143,1.51592 -1.7683,2.55811 -0.58463,1.03491 -0.97438,2.38321 -1.33527,4.29997 -0.34643,0.0948 -0.75063,-0.0144 -1.01769,0.40086 -0.27427,-0.10932 0.54132,-1.20983 0.47637,-2.14271 -0.0577,-0.33526 -0.34643,-0.39355 -0.18766,-0.99118 -0.0938,0.0218 -0.18044,0.0802 -0.25981,0.13846 -0.0722,0.6705 -0.18045,1.5888 -0.20208,2.23744 -0.31759,0.0437 -0.27428,-0.31337 -0.21655,-0.68508 -0.38975,1.08592 -0.53409,1.90947 -0.75063,2.74761 -0.18766,0.84541 -0.324799,1.74185 -0.692889,2.94438 -0.29592,-0.26966 -0.48357,0.28423 -0.68567,0.72152 0.24539,-1.1005 0.58462,-2.67473 1.14039,-4.25624 0.281479,-0.78711 0.461919,-1.62524 0.721759,-2.39778 0.10104,-0.34255 0.21654,-0.67779 0.33201,-1.00576 -0.23097,0.27695 -0.44028,0.61221 -0.68568,0.86 -0.15156,-0.68508 1.54457,-2.41236 0.10104,-2.74032 -0.505239,-0.0292 -0.519669,1.18067 -0.692889,2.00422 -0.37532,-0.11659 -0.2454,-0.80168 -0.10105,-1.5232 -0.54132,0.0729 -0.93107,0.34983 -1.20534,0.29151 -0.0722,0.51017 -0.20208,0.97661 -0.29592,1.14423 -0.12993,-0.0802 -0.11546,-0.31337 -0.2887,-0.34983 -0.77229,3.59302 -0.2887,-0.1166 0.23097,-1.31185 0,-0.007 -0.007,-0.0144 -0.007,-0.0292 -0.60627,0.65592 -0.87332,1.04948 -1.09707,1.4649 -0.2093,0.41542 -0.41862,0.84542 -0.93108,1.50135 -0.12992,-0.24052 0.0215,-0.67051 0.20209,-1.12237 0.15877,-0.45915 0.37531,-0.93287 0.46914,-1.2244 -0.12271,-0.30608 -0.2526,-0.60491 -0.38975,-0.88915 -0.62794,0.40085 -0.16602,2.1427 -0.59185,2.33219 -0.23818,-0.0802 -0.47637,-0.15306 -0.58462,0.13846 -0.15156,-0.66322 0.79394,-1.57423 0.87333,-2.78405 -0.24539,0.0218 -0.50523,1.02762 -0.34643,-0.051 -0.39698,0.2988 -0.35364,1.56693 -0.69289,1.99693 -0.0649,-0.60491 -0.0215,-1.8949 0.11546,-2.85692 -0.44027,-0.23324 -0.42584,0.47372 -0.64236,0.68508 -0.122719,0.53931 0.007,0.81626 0.39696,0.83812 -0.664009,0.81627 -1.255859,0.87458 -1.580659,1.73457 -0.57019,0.31337 -0.0649,-1.12236 -0.4547,-0.35712 -0.2887,-0.43 -0.11547,-1.45761 0.1155,-2.5071 0.0577,-0.26237 0.10825,-0.52473 0.15877,-0.77982 0.0288,-0.25509 0.0433,-0.50288 0.0505,-0.73609 0.007,-0.34254 -0.007,-0.63407 -0.0794,-0.8527 -0.0577,0.88186 -0.15878,1.75642 -0.2887,2.63827 -0.0146,0.0947 -0.0288,0.19677 -0.0433,0.29153 -0.0433,0.26966 -0.0938,0.53202 -0.14435,0.80168 -0.0505,0.26966 -0.10104,0.53932 -0.15156,0.80898 -0.0215,0.0947 -0.0433,0.1822 -0.0649,0.27694 -0.44027,1.97507 -1.06821,3.87726 -1.86936,5.68471 -0.0215,0.0437 -0.0433,0.0875 -0.0577,0.13117 -0.18045,0.40083 -0.36811,0.80168 -0.56298,1.18795 -0.0649,0.13116 -0.12992,0.25508 -0.19487,0.37898 -0.15156,0.2988 -0.31037,0.59762 -0.47636,0.88914 -0.11546,0.20406 -0.23097,0.40084 -0.353679,0.60491 -0.12272,0.20406 -0.24539,0.41542 -0.36811,0.61949 -0.0433,0.0729 -0.0866,0.14578 -0.12992,0.21134 0.0722,0.051 0.24539,-0.15306 0.51245,-0.66321 0.216539,0.58304 -0.87333,1.44303 -1.18369,1.80015 0.84446,0.77982 1.09707,-0.9766 1.667269,-1.21711 -0.21654,1.21711 -1.392999,2.05524 -1.660059,3.04642 0.27427,-0.22595 0.93829,-1.02762 1.566219,-1.93863 -0.21654,0.53203 -0.35368,1.21711 -0.570189,1.87304 -0.0505,0.15306 -0.10825,0.30608 -0.18045,0.44457 0.382529,-0.40813 0.765069,-0.78711 1.003259,-1.08593 0.007,0.0875 -0.0146,0.17492 -0.0288,0.26238 0.0288,-0.0144 0.0505,-0.0437 0.0794,-0.0583 -0.0361,1.38474 -1.854929,2.17185 -2.316849,3.79709 0.48358,0.13845 0.48358,-1.1005 1.14038,-1.09321 -0.20929,-0.13845 0.15877,-0.6122 0.656809,-1.1005 0.50523,-0.4883 1.06099,-1.07864 1.38578,-1.31186 -0.75785,1.39931 -1.559009,2.29575 -2.302419,3.27964 -0.3609,0.50288 -0.77951,0.96932 -1.23422,1.48677 -0.44027,0.53203 -0.92385,1.11508 -1.47961,1.78558 1.36413,-1.31914 2.80044,-1.88032 4.402749,-3.64404 -1.263079,0.47373 0.35368,-0.69237 0.83725,-0.7361 -0.15878,-0.42271 0.24539,-1.07134 0.80115,-1.78558 0.13714,0.10203 -0.0794,0.35712 -0.16602,0.5539 2.28077,-2.28846 3.767599,-5.8086 5.355479,-9.94823 -0.13714,0.7288 -0.31038,1.45033 -0.49803,2.16456 -0.21654,0.70694 -0.51244,1.37745 -0.78671,2.04795 -0.0866,0.22595 -0.18766,0.43728 -0.28149,0.64864 0.26707,-0.45186 0.5341,-0.82356 0.70011,-0.85999 0.2093,-0.40814 0.0215,-0.51746 0.14435,-0.86 0.24539,-0.14577 0.16602,0.43729 -0.0288,1.12237 -0.18766,0.68508 -0.59907,1.41388 -0.78672,1.61066 -0.10104,-0.10931 -0.0288,-0.33526 -0.18766,-0.40813 -0.880549,1.72727 -0.894979,1.56694 -0.599059,0.88914 -0.30316,0.53932 -0.62072,1.05678 -0.92386,1.57423 -0.32479,0.58305 -0.71454,1.1005 -1.07542,1.61795 -0.15878,0.30609 -0.31038,0.6122 -0.48359,0.91102 -0.38974,0.61948 -0.84446,1.19524 -1.28473,1.771 -0.25261,0.34983 -0.51967,0.6705 -0.80116,0.98389 -0.11546,0.18948 -0.23097,0.37169 -0.33201,0.56118 0.72898,-0.71423 1.40744,-1.37745 2.02094,-2.05524 0.20209,-0.37897 0.4908,-0.7944 0.82281,-1.27541 0.0433,0.0656 0.0577,0.13117 0.0722,0.19677 0.007,-0.007 0.0146,-0.0144 0.0215,-0.0292 0.41863,-0.53931 0.82281,-1.06406 1.227,-1.5888 0.3681,-0.55389 0.70733,-1.12965 1.068209,-1.71269 1.42909,-2.33219 2.68495,-5.11624 3.7676,-9.19756 0.007,0.90372 -0.2093,1.85846 -0.50523,2.84235 -0.28149,0.98389 -0.6135,2.01151 -1.08264,2.98082 -0.8156,1.99694 -1.89824,3.8554 -2.518959,5.64827 -0.21654,0.16763 -0.24539,0.0656 -0.34643,-0.0292 -0.0433,0.0656 -0.0794,0.13845 -0.12271,0.20406 -0.52689,0.88185 -1.1043,1.77829 -1.81163,2.59455 -0.31759,0.42271 -0.64959,0.83085 -0.98881,1.23169 0.3681,-0.21863 0.76506,-0.35712 0.59184,-0.53203 0.6929,-0.53932 0.20933,0.64864 -0.15156,1.01304 0.40418,0.007 1.05377,-0.41542 0.54132,0.45915 0.37532,0.19677 0.89498,-0.46644 1.32082,-0.48101 0.0794,-0.25509 0.18045,-0.4883 0.41863,-0.83084 l 0.692899,-1.01304 c 0.43305,-0.80169 0.9455,-1.69813 1.54456,-2.58727 0.47637,-0.68508 0.8589,-1.45033 1.31361,-2.12813 0.42584,-0.69965 0.9022,-1.33371 1.26308,-1.92404 0.16602,-0.16035 -0.68566,1.79286 -1.03212,2.9298 -0.0794,-0.007 -0.12993,-0.0366 -0.15877,-0.0802 -0.46193,1.31914 -1.31361,2.51439 -2.61278,4.29268 -0.0433,0.0656 -0.0722,0.13117 -0.11547,0.19677 -0.007,-0.007 -0.0146,-0.007 -0.0146,-0.0144 -0.0361,0.051 -0.0649,0.0947 -0.10826,0.14577 0.0288,-0.0583 0.0505,-0.10931 0.0794,-0.16763 -0.15877,-0.16763 -0.353679,0.0144 -0.562979,0.26966 -0.62793,1.54508 -1.41465,2.64558 -2.20859,3.82624 -0.44749,0.56119 -0.90942,1.13695 -1.40743,1.77101 -0.49802,0.64135 -1.01769,1.36287 -1.674489,2.12812 -1.1476,-0.051 -1.99207,2.12083 -3.68099,2.9954 0.24539,-0.14578 1.16204,-0.40813 2.0065,-0.85271 0.41862,-0.2478 0.81559,-0.53203 1.1043,-0.84542 -0.18766,0.0875 -0.36811,0.13121 -0.54855,0.10203 0.36811,-0.24052 0.67847,-0.51017 0.95273,-0.78711 0.0215,-0.0947 0.0361,-0.1822 0.0288,-0.27695 0.16602,-0.0875 0.24539,-0.0875 0.288699,-0.051 0.62072,-0.6705 1.11151,-1.31914 1.86215,-1.59609 -0.43306,0.22595 -1.11152,1.28999 -1.82606,2.0188 0,0.0144 0.007,0.0292 0.007,0.0366 0.62071,-0.72152 0.70733,-0.86728 1.34969,-0.90372 0.31759,-0.40085 -0.4114,-0.0437 -0.007,-0.4883 0.51966,-0.19678 1.00324,-0.36441 2.0931,-1.20982 0.20934,-0.21135 0.42585,-0.40814 0.62794,-0.62678 -0.15156,-0.14578 -0.38975,0.0437 -0.64959,0.27694 1.31361,-1.26812 2.540599,-2.67472 3.695429,-4.19064 -0.13713,0.0802 -0.27427,0.0947 -0.38975,-0.0144 0.47636,-0.58304 0.86611,-1.23168 1.27751,-1.86575 0.007,0.15306 -0.14435,0.69966 -0.3681,1.18796 2.41068,-3.31607 4.446059,-7.17876 6.012279,-11.6172 0.51967,0.007 -0.67124,1.66897 -0.16603,1.69084 0.72898,-0.93287 1.20535,-3.46184 1.58066,-5.07979 -0.55575,-0.44458 -0.50523,1.22439 -0.76507,1.86574 -0.43305,0.74339 0.31038,-2.70387 0.62072,-2.90794 0.33922,0.56118 0.20929,1.7127 -0.0794,3.00998 -0.3681,1.27541 -0.90942,2.6893 -1.24142,3.87725 -0.0794,-0.21862 -0.15878,-0.42999 -0.39698,-0.49558 -0.0938,0.31337 -0.20929,0.62677 -0.33922,0.93287 0.36811,0.14577 0.40419,-0.0656 0.56298,0.94745 -0.0505,0.25509 -0.19487,0.39355 -0.35368,0.48101 -0.0577,0.15306 -0.11547,0.30609 -0.18766,0.46644 -0.33201,0.76525 -0.89499,1.58151 -1.07543,2.17184 0.0146,-0.53931 0.15156,-0.94016 0.33922,-1.33371 -0.17323,0.0292 -0.31037,-0.0583 -0.67124,0.52474 0.12272,0.64135 -0.27427,1.66168 -0.851679,2.79133 -0.68567,1.13695 -1.57344,2.36134 -2.19415,3.41811 -0.0146,-0.14577 -0.0361,-0.28423 -0.0938,-0.40084 -0.18045,0.24781 -0.3609,0.49559 -0.54132,0.74338 0.15877,0.0948 0.19487,0.16764 0.11546,0.94017 -0.39697,0.80897 -1.52292,0.0218 -0.96715,0.94745 -0.67846,0.6705 -0.71455,0.37897 -0.9816,0.42999 -0.757859,0.96932 -1.436309,1.87304 -1.919889,2.59456 -0.0146,-0.10203 -0.0505,-0.15306 -0.0938,-0.17492 -0.65682,0.69966 -1.47963,1.50135 -2.44678,2.25202 -0.54854,0.44457 -1.1043,0.89643 -1.667269,1.34829 -0.007,0.007 -0.0146,0.0144 -0.0215,0.0144 0.180449,0.0437 0.404189,0.10203 0.137139,0.48101 0.20208,0.1166 0.4114,-0.0218 0.60628,-0.22595 -0.0288,0.0144 -0.0577,0.0366 -0.0938,0.0656 0.0577,-0.3644 0.31037,-0.5466 0.6135,-0.69236 0.12271,-0.13121 0.22375,-0.20406 0.30312,-0.13121 0.34643,-0.13845 0.71454,-0.28423 0.98159,-0.57576 0.065,0.4883 -0.48358,0.63406 -0.89498,0.75796 0,0.007 0.007,0.007 0.007,0.0144 -0.16603,0.13845 -0.28149,0.25509 -0.38253,0.35711 0.0288,0.0292 0.0577,0.0656 0.10825,0.10932 -0.10825,0.0729 -0.18766,0.0802 -0.26706,0.0656 -0.31759,0.38626 -0.24539,0.53932 -0.54855,0.80898 -0.483579,0.19677 -0.837249,0.10203 -1.060989,-0.28423 -0.8589,0.58305 -0.97438,0.96932 -1.04656,1.4066 0.92386,-1.2827 0.23818,0.30609 1.46518,-0.83813 0.0505,0.20406 -0.44749,0.51746 -0.3248,0.69966 0.858899,-0.23324 2.201379,-1.61067 3.139669,-2.09168 -1.11874,1.0422 -2.5406,2.41964 -3.861429,3.39624 -1.29195,1.01305 -2.28799,1.90219 -2.35295,2.21558 0.0649,0.43729 -1.74667,0.6122 -0.48358,-0.13845 -0.51967,0.16035 -2.230239,1.80744 -3.875869,2.39049 0.50524,0.0437 1.11874,-0.10204 0.6135,0.51016 1.50848,-0.45914 1.05377,-0.51745 2.143639,-1.27541 -0.10104,0.21134 -0.19487,0.43 -0.0722,0.64135 0.95273,-0.71423 0.45471,-0.75067 1.58067,-0.8527 -3.572719,2.20098 -8.343559,4.15419 -13.323719,5.27655 -2.425195,0.63407 -4.973019,0.88186 -7.405359,1.07864 -1.212558,0.0366 -2.410682,0.051 -3.558288,0.051 -1.154819,0.0218 -2.251897,-0.13845 -3.305671,-0.21134 -0.368106,0.26966 -0.801159,-0.0947 -1.320827,-0.3644 -0.461927,-0.0583 -0.909419,-0.13117 -1.364131,-0.20406 -0.07941,0.16763 0.461928,0.53932 -0.562972,0.27695 -0.346432,-0.20406 -0.894989,-0.41542 -1.55901,-0.63407 -0.108253,-0.0218 -0.216506,-0.0366 -0.324797,-0.0583 -1.183689,-0.28423 -2.338512,-0.58305 -3.45002,-0.88186 -1.118734,-0.27695 -2.143637,-0.72152 -3.139667,-1.07135 -0.461928,0.1822 -0.801156,-0.38626 -1.291957,-0.80169 -0.375317,-0.15306 -0.75785,-0.30608 -1.133163,-0.46643 -0.180447,0.10931 0.324797,0.67779 -0.627932,0.13845 -0.310374,-0.3207 -0.851684,-0.70695 -1.522921,-1.13694 -0.173235,-0.0875 -0.353682,-0.16763 -0.519671,-0.26238 -0.837245,-0.43728 -1.645616,-0.8527 -2.389035,-1.26812 -0.714545,-0.45187 -1.371347,-0.88186 -1.948759,-1.26814 1.934324,1.48678 3.883082,2.57998 5.774101,3.69507 1.970409,0.95473 3.897516,1.96778 6.084458,2.63828 -3.016964,-0.61948 -5.810182,-1.85846 -8.401311,-3.24319 z m 61.6385,-24.31303 c 0.0505,-0.10932 0.10104,-0.22595 0.15156,-0.34255 -0.19487,0.0656 -0.30316,0.13117 -0.15156,0.34255 z m -13.771217,10.01382 c -0.0649,0.0656 -0.13714,0.13117 -0.20209,0.20406 0.12272,0.0366 0.23818,0.0292 0.3609,0.007 -0.0722,-0.0292 -0.0866,-0.12389 -0.15877,-0.21134 z M 3.9841483,36.368637 c 0.129927,-0.42999 0.2526029,-0.83813 0.3320089,-1.20253 -0.1515619,0.3644 -0.2886999,0.71424 -0.4258379,1.06406 0.02877,0.0875 0.05773,0.13849 0.09383,0.13849 z m 66.4959667,48.90302 c -0.38253,0.37169 -0.86611,0.73609 -1.320829,1.1005 0.0215,0.0292 0.0288,0.051 0.0649,0.0802 0.757849,-0.38625 1.638389,-0.92559 1.436309,-1.31185 -0.0505,0.0366 -0.11547,0.0875 -0.18045,0.13117 z m -5.160599,3.22862 c 0.14435,-0.1166 0.26706,-0.24052 0.35368,-0.37898 -0.23097,0.10932 -0.48358,0.21867 -0.80838,0.31341 0.12272,0.0583 0.28149,0.0729 0.45472,0.0656 z m 0.70732,-0.22595 c 0.0215,-0.0144 0.0433,-0.0218 0.0722,-0.0292 0.23096,-0.16035 0.40418,-0.26966 0.55575,-0.35712 0.0361,-0.0292 0.0794,-0.051 0.11547,-0.0875 0.67845,-0.53932 1.29917,-1.21711 1.63118,-1.51592 -1.20534,0.51017 -1.52292,1.09321 -2.28798,1.5888 0.007,0.10203 -0.10104,0.27695 -0.0866,0.40085 z m 4.929639,-0.34984 c 0.63515,-0.40813 1.08264,-0.74338 0.65681,-0.65593 -0.57742,0.47373 -1.1476,0.6778 -1.60232,0.85271 -0.44749,0.18949 -0.779499,0.37897 -0.923849,0.81626 0.34643,-0.21862 1.212559,-0.63406 1.869359,-1.01304 z m 1.41466,-0.0875 1.98484,-1.341 -0.20929,-0.29152 c -0.56297,0.5539 -2.36738,1.20982 -1.77553,1.63253 z m 14.067147,-17.6663 c -0.0215,-0.0292 -0.0433,-0.0292 -0.0649,-0.051 -0.11546,0.31337 -0.281489,0.68508 -0.505239,1.10779 -0.46914,0.91101 -1.12594,2.04795 -1.9704,3.16303 0.87333,-0.91101 1.84049,-2.90066 2.540599,-4.2198 z m -9.823188,5.15996 c -0.0215,-0.0656 -0.0146,-0.13116 -0.007,-0.18948 -0.84446,0.98389 -1.674489,1.93134 -2.324069,2.90065 0.34643,-0.16763 0.70011,-0.53203 1.075419,-0.96931 0.2887,-0.34984 0.62072,-0.72881 0.93108,-1.13695 0.31033,-0.40813 0.64237,-0.81626 1.01768,-1.1588 -0.18766,-0.10203 -0.44749,0.30609 -0.69289,0.5539 z m 3.0314,-4.94132 c -0.0433,0.13845 -0.12993,0.31341 -0.23818,0.51745 0.11546,-0.16763 0.23097,-0.34254 0.34643,-0.51745 -0.0361,0 -0.0649,-0.007 -0.10825,0 z m -5.045119,0.59762 c -0.23818,0.21863 -0.47636,0.44458 -0.70733,0.69237 0.28149,-0.0656 0.4908,-0.34983 0.70733,-0.69237 z m -0.89498,0.66322 c -0.0146,0.007 -0.0215,0.0218 -0.0361,0.0292 0.007,0 0.0146,0 0.0215,0 0,-0.007 0.007,-0.0218 0.0146,-0.0292 z M 35.489076,4.942448 c -0.916639,0.291515 -1.645616,0.583045 -1.566226,0.612189 0.0073,0 0.01458,0 0.02148,0 0.664021,-0.25509 1.176469,-0.451866 1.544571,-0.612189 z m -10.775911,4.48216 c -0.230968,0.08017 -0.721765,0.364404 -1.342481,0.808976 0.64959,-0.378973 1.089863,-0.641348 1.356916,-0.816265 -0.0073,0.0074 -0.0073,0.0074 -0.01458,0.0074 z m -4.677022,2.244731 c 0.05052,-0.03662 0.101041,-0.05832 0.151561,-0.09474 0.317585,-0.233236 0.649586,-0.459151 0.967164,-0.685086 -0.396972,0.255091 -0.786721,0.517454 -1.118733,0.779825 z M 1.1692758,52.978177 c 0.216544,-0.15306 0.3320079,-0.71424 0.3897519,-1.52321 0.02877,-0.68508 0.07219,-1.55235 0.122715,-2.51438 -0.0073,-0.25509 -0.02877,-0.4883 -0.07219,-0.6705 0.03606,0.0947 0.07219,0.14577 0.101041,0.19677 0.02148,-0.40085 0.05052,-0.80898 0.07941,-1.2244 -0.259815,0.0875 -0.0722,-1.52321 0.2886999,-3.68777 0.09383,-0.48101 0.216544,-0.99118 0.33922,-1.51592 0.1515619,-0.91101 0.3681059,-1.70541 0.5990659,-2.35405 0.04331,-0.1822 0.09383,-0.36441 0.1371379,-0.54661 0.02148,-0.0802 0.04331,-0.16034 0.07219,-0.24052 -0.4330569,0.40085 0.324797,-1.26084 0.5557569,-2.3832 -0.2092939,0.53932 -0.4186229,1.07135 -0.6062809,1.58152 -0.3320089,0.93287 -0.5557569,1.84388 -0.8011558,2.71845 -0.216544,0.84542 -0.4402769,1.66897 -0.5990619,2.47066 -0.02877,0.21863 -0.05773,0.42271 -0.08662,0.64864 -0.0073,0 -0.0073,-0.007 -0.01458,-0.0144 -0.101042,0.64136 -0.202083,1.27542 -0.281489,1.90948 -0.09383,0.81627 -0.2165439,1.62525 -0.2526019,2.45609 -0.02148,0.83084 -0.03606,1.66897 -0.02877,2.54354 -0.02148,0.69236 0.0073,1.41388 0.05773,2.14998 z m 25.5287322,40.75494 c -0.736196,-0.28423 -2.057018,-1.39931 -2.39625,-1.13694 0.447493,0.30608 0.411407,0.56847 0.815594,0.87457 0.09383,-0.51017 1.320823,0.53931 1.580656,0.26237 z m 60.996134,-28.60571 c 0.10826,-0.54661 0.10826,-1.1661 0.0649,-1.31915 -0.23097,0.72153 -0.44028,1.45033 -0.75785,2.13541 0.32479,0.16763 0.58462,-0.26966 0.69289,-0.81626 z m 3.13967,-9.70044 c 0.0794,0.91101 -0.0505,1.57423 -0.18045,2.17185 -0.15156,0.59762 -0.26706,1.12965 -0.0938,1.84388 0.0215,-0.6122 0.35365,-1.54507 0.47637,-2.37591 0.12993,-0.83084 0.16599,-1.53779 -0.20208,-1.63982 z m -12.710238,9.72959 c 0.34643,-1.32643 1.71058,-2.38321 1.37135,-3.31608 -0.36089,0.85271 -1.45796,2.37592 -1.37135,3.31608 z m 2.14364,-5.76487 c -0.0505,0.66321 -0.98882,1.99693 -0.28149,2.0771 -0.18045,-0.87457 0.822799,-1.71999 0.28149,-2.0771 z m 9.743788,19.69239 c 0.54132,-0.86 1.30639,-1.82931 1.992069,-2.82049 0.67123,-0.99118 1.17647,-2.05523 1.36413,-2.95167 -0.54132,0.94016 -1.21256,2.12812 -1.948759,3.13387 -0.70733,1.03491 -1.29196,1.98236 -1.40744,2.63829 z m -23.110836,17.57156 c -0.12271,-0.18949 -0.2526,-0.32798 -0.83724,-0.0583 l 0.18766,0.49559 c 0.90942,-0.29152 1.73223,-0.69237 1.6384,-1.06406 -0.4908,0.20405 -0.74342,0.41542 -0.98882,0.62677 z m 24.272876,-26.90759 c 0.33201,-1.09321 1.291949,-2.82049 1.277519,-3.62946 0.46914,-1.23169 0.80837,-2.37592 0.64237,-2.8132 -0.24539,0.7944 -0.67846,1.96778 -1.08986,3.12658 -0.418629,1.15152 -0.938299,2.25202 -1.118739,3.02456 0.18766,-0.41542 0.46193,-0.94017 0.75064,-1.51592 0.101039,-0.18949 0.194869,-0.39356 0.295909,-0.59034 -0.404189,0.94016 -0.844459,1.90948 -0.757849,2.39778 z m -10.638778,6.69045 c -0.5269,0.53204 -0.88777,0.99118 -1.13317,1.31914 -0.25981,0.3207 -0.3681,0.53204 -0.34643,0.59763 0.0288,0.12388 0.64237,-0.34255 1.47962,-1.91677 z m -1.00325,4.86844 c 1.162039,-1.43575 2.692169,-3.25777 4.106829,-5.18182 -0.10826,0.007 -0.2093,0.0218 -0.33922,0.20406 -0.0794,-0.85271 1.05377,-1.0422 1.47961,-1.85118 0,0.007 0,0.0144 0.007,0.0218 0.4908,-0.7361 0.95995,-1.4722 1.356909,-2.201 -0.122709,0.58304 -0.599059,1.39202 -1.162029,2.23015 -0.0577,0.0875 -0.1155,0.16763 -0.17324,0.25509 -0.0288,0.12388 -0.11546,0.24052 -0.22375,0.33526 -0.4475,0.64865 -0.90943,1.27542 -1.29196,1.80745 l -1.78997,2.26659 c -0.62794,0.72881 -1.306399,1.41389 -1.970419,2.11355 z m 4.287269,-5.42233 c 0.10825,-0.15306 0.21654,-0.30608 0.3248,-0.45915 -0.27428,0.16763 -0.48359,0.30612 -0.3248,0.45915 z m -38.592635,22.64407 c -0.707326,-0.0144 -1.024904,-0.0729 -1.010469,-0.18221 0.490798,0.0802 1.010469,0.15307 1.551791,0.23324 -0.05773,0.051 -0.129926,0.0875 -0.180447,0.15306 1.291957,0.051 2.728263,0.1822 4.24396,0.16035 1.515701,0.0144 3.118015,0.0656 4.691457,-0.0947 1.58066,-0.1166 3.161317,-0.24781 4.597627,-0.59762 1.443526,-0.3207 2.807658,-0.61949 3.90474,-1.13695 -1.118737,0.1822 -2.302425,0.37898 -3.500549,0.56847 0.837249,-0.17491 1.717795,-0.37168 2.619996,-0.62677 1.472396,-0.38626 3.024182,-0.75067 4.511012,-1.31914 1.49405,-0.52474 2.988099,-1.07135 4.287269,-1.7783 1.31361,-0.68507 2.54783,-1.33371 3.4789,-2.12083 -4.04187,1.8366 -8.856019,4.0959 -12.919548,4.79556 0.259814,-0.1166 0.70011,-0.21134 0.656805,-0.38626 -0.548541,0.45186 -1.486827,0.68508 -2.345726,0.83084 -0.786717,0.14578 -1.472397,0.32798 -1.732229,0.80898 -0.267065,0.0366 -0.534107,0.0729 -0.80116,0.10931 0.108253,-0.0292 0.216544,-0.0656 0.317585,-0.0947 -1.060989,0.25509 -1.263083,0.19677 -0.786716,-0.21134 -1.010469,0.32797 -2.215812,0.45186 -3.493334,0.59033 -0.635147,0.0656 -1.291956,0.1166 -1.955973,0.16035 -0.166024,0.007 -0.339221,0.007 -0.505233,0.007 -0.526891,-0.007 -1.046554,-0.0366 -1.551791,-0.0802 0.281489,-0.0437 0.728981,-0.0218 0.736197,-0.19677 -0.64959,0.29152 -1.616746,0.27695 -2.482865,0.18949 -0.389752,-0.0292 -0.757854,-0.0437 -1.075424,-0.0144 -0.295911,-0.0144 -0.613496,-0.0218 -0.894988,-0.051 -0.396969,-0.0366 -0.779505,-0.0656 -1.154819,-0.0947 0.02148,-0.0144 0.04331,-0.0218 0.07219,-0.0366 -0.209294,0.007 -0.433057,0 -0.64959,-0.007 -0.158774,-0.007 -0.310374,-0.0144 -0.461928,-0.0292 -0.765066,-0.0583 -1.573441,-0.1822 -2.410685,-0.31337 -0.635151,-0.10203 -1.277518,-0.22591 -1.927104,-0.35712 -0.649586,-0.13117 -1.284738,-0.34255 -1.919889,-0.51745 -0.0073,0 -0.01458,-0.007 -0.02148,-0.007 0.14435,-0.0292 0.295912,-0.0875 0.368106,-0.16035 -1.42909,-0.33527 -2.822092,-0.83813 -4.229529,-1.28999 -0.88055,0.0729 2.533386,0.95474 3.471679,1.28999 0,0.0218 0.02877,0.0292 0.03606,0.051 -1.133163,-0.33526 -2.251896,-0.64135 -3.240711,-1.01304 -1.104294,-0.40813 -2.107543,-0.76525 -2.944788,-0.99847 0.851676,0.40085 1.93432,0.88915 3.139663,1.4066 1.219778,0.47373 2.591128,0.88915 3.962476,1.30457 0.685671,0.21862 1.378563,0.37897 2.078673,0.49559 0.692892,0.1312 1.371352,0.2478 2.020933,0.34255 0.64959,0.0874 1.270303,0.18948 1.847714,0.21134 0.591846,0.0366 1.125949,0.0292 1.602311,0.007 z m 43.132514,-24.10168 c -0.44027,0.70694 -1.16203,1.72727 -1.85493,2.73303 -0.700109,1.00575 -1.479609,1.93134 -1.854919,2.63099 0.2887,-0.34983 0.68567,-0.78711 1.11151,-1.26812 0.440279,-0.47373 0.880549,-0.99847 1.255869,-1.54508 0.77228,-1.06405 1.393,-2.08439 1.34247,-2.55082 z m -46.690799,25.23133 c 0.534102,0.0656 1.082643,0.11659 1.609526,0.13845 0.534107,-0.007 1.039339,-0.0292 1.472397,-0.051 -0.541322,0.0144 -1.097079,-0.0144 -1.631181,-0.10202 -0.534107,-0.10203 -1.06099,-0.22591 -1.559006,-0.34255 -0.988814,-0.23324 -1.854929,-0.44457 -2.475645,-0.37898 0.534102,0.37169 1.515697,0.60492 2.583909,0.7361 z m 52.486558,-43.93255 c -0.43306,1.25355 0.0505,0.46644 0,0 z M 16.42733,86.466897 c -0.642367,-0.46643 -1.623966,-1.88761 -2.020934,-1.72727 0.353682,0.41542 0.245391,0.65593 0.562976,1.05677 0.223756,-0.45915 1.140384,0.87457 1.457958,0.6705 z m 62.699494,-25.70505 c -0.16602,0.75796 -0.98159,1.93134 -0.72898,2.41235 0.52689,-0.76525 0.82281,-1.52321 0.72898,-2.41235 z M 35.582905,2.974658 c 0.461928,-0.123883 0.909419,-0.247805 1.328042,-0.357118 0.837245,-0.247805 1.559006,-0.50288 2.042588,-0.816257 -1.645616,0.488294 -3.608809,0.889145 -4.756412,1.617952 0.469143,-0.153062 0.93107,-0.2988 1.385782,-0.444577 z M 97.43072,41.127757 c 0.59906,0.32798 1.19812,0.61219 1.66005,1.31186 -0.0361,-1.24627 -0.43306,-1.4066 -0.62071,-2.33219 -0.54855,0.0729 -0.91664,0.37898 -1.03934,1.02033 z M 49.346909,1.473312 c -1.198128,-0.02182 -3.067491,-0.63405996 -4.21509,-0.03662 0.281488,0.641352 3.543853,0.612209 4.21509,0.03662 z m 42.851032,61.657155 c 0.55576,-0.4883 1.55901,-3.03184 1.31362,-4.07403 -0.49081,1.11507 -1.50849,3.30878 -1.31362,4.07403 z M 71.129695,6.902933 c 0.77951,0.378973 1.5157,0.736095 2.23024,1.078636 0.70012,0.371688 1.40023,0.721522 2.100339,1.056773 C 74.724075,8.579192 73.930135,8.09089 73.114545,7.595299 72.277295,7.143441 71.418405,6.684283 70.573945,6.22514 68.899456,5.292269 67.174446,4.694646 65.795876,4.373976 c 1.03212,0.459151 1.98484,0.881865 2.87262,1.282697 0.880549,0.444572 1.696139,0.859994 2.461199,1.24626 z M 47.037273,0.47484504 c 1.017687,-0.09474 2.020936,-0.225911 3.002527,-0.28423 0.988818,-0.04371 1.941543,-0.08746 2.872617,-0.131168 -1.089862,-0.03662 -2.186937,-0.0656 -3.262362,-0.05832 -1.075424,0.05832 -2.136417,0.145777 -3.168535,0.247805 -0.512452,0.05832 -1.017685,0.116598 -1.515702,0.174917 -0.498013,0.08017 -0.974379,0.189486 -1.450742,0.291514 -0.938289,0.211342 -1.833278,0.45186196 -2.656083,0.71423296 2.064233,-0.393551 4.135691,-0.79440196 6.17828,-0.95474096 z"
            style="fill:url(#linearGradient4907);fill-opacity:1;fill-rule:nonzero;stroke:none;stroke-width:0.725277"
            id="path4909" />
        <path
            d="m 41.579792,22.765507 -0.362427,0.09928 c -1.191904,0.327059 -1.812806,1.149787 -2.336698,1.598171 -0.261947,0.224191 -0.477401,0.363715 -0.596097,0.409228 -0.117551,0.04508 -0.11583,0.05019 -0.245591,0.0024 0.268375,0.09947 -0.202154,-0.201324 -0.696241,-0.515774 -0.247043,-0.157224 -0.557883,-0.343821 -1.041977,-0.389856 -0.483158,-0.04595 -1.135273,0.204917 -1.487856,0.612632 -0.305945,0.35467 -0.445496,0.864625 -0.429189,1.249478 0.01631,0.384854 0.128527,0.667373 0.236053,0.898366 0.215054,0.461985 0.47475,0.793811 0.524567,0.876572 0.227921,0.378626 0.271694,0.615299 0.271819,0.607789 1.24e-4,-0.0075 0.105233,-0.07374 -0.176445,0.133181 l -0.0024,0.0024 c -0.323178,0.238066 -0.926129,0.403373 -1.132527,0.370493 -0.103744,-0.01649 -0.241184,-0.08007 -0.500721,-0.276048 -0.259537,-0.195974 -0.60252,-0.515888 -1.12543,-0.789399 -0.92577,-0.483937 -1.9069,-0.496318 -2.742044,-0.360799 h -0.0024 c -0.330291,0.05457 -0.776577,0.09463 -1.316184,0.467344 -0.269805,0.186359 -0.58621,0.520755 -0.710547,0.985538 -0.08567,0.320238 0.02369,0.60663 0.100143,0.895944 -0.06001,0.03498 -0.01859,-0.0079 -0.09299,0.04117 -0.298186,0.196575 -0.627755,0.686788 -0.686703,1.089662 -0.05895,0.402873 0.0068,0.693402 0.08822,1.00491 l 0.0024,0.0025 v 0.0025 c 0.256291,0.965542 0.723031,1.463108 0.810692,1.702294 0.22257,0.606607 0.308006,1.152201 0.264666,1.489203 -0.04334,0.337003 -0.100837,0.490126 -0.500721,0.736127 -0.396001,0.243342 -1.013667,0.348201 -1.826435,0.583461 -0.812769,0.235255 -1.897736,0.784064 -2.455918,1.949282 -0.434423,0.907007 -0.669935,2.010081 -0.693856,3.155176 -0.02392,1.145095 0.142889,2.350382 0.889376,3.344052 0.752721,1.00244 2.041107,1.676873 3.4359,1.402031 0.06649,0.347225 0.05845,0.68259 0.360042,1.024282 v 0.0025 h 0.0024 c 0.675258,0.76375 1.626936,0.794737 2.150716,0.77245 h 0.0024 c 1.825798,-0.07902 3.128966,-1.205382 3.900856,-1.477097 0.394288,-0.13862 0.516934,-0.15126 0.724853,-0.200983 0.02759,0.2515 0.04527,0.495318 0.128757,0.859623 0.156271,0.680719 0.359854,1.238485 0.708163,1.711979 0.348309,0.473494 0.868244,0.802006 1.330488,0.946795 0.924486,0.289579 1.558075,0.172035 2.310469,0.334163 h 0.0024 c 0.496008,0.10656 0.873694,0.230971 1.08728,0.360799 0.213586,0.129825 0.297303,0.210489 0.398193,0.518195 h 0.0024 c 0.02007,0.06115 -0.0015,0.408034 -0.04768,1.012175 -0.02314,0.302068 -0.04329,0.67839 0.08107,1.123562 0.124356,0.445173 0.44544,0.930984 0.877454,1.237372 0.791367,0.561244 1.549425,0.638865 2.069647,0.799085 0.520224,0.160218 0.587495,0.252795 0.588943,0.256675 0.171031,0.458117 -0.06707,1.228521 -0.276588,2.414207 -0.100631,0.571312 -0.180939,1.219484 -0.01908,1.934755 0.16187,0.71527 0.665264,1.47835 1.423477,1.905697 h 0.0024 c 0.522412,0.293414 0.947318,0.415097 1.16358,0.513352 0.216262,0.09825 0.233,0.09967 0.345737,0.28089 0.20247,0.325499 0.393526,0.958779 1.089665,1.571534 0.247349,0.217621 0.389362,0.333803 0.467339,0.385014 -0.0073,0.187314 -0.05728,0.548118 0.06437,1.043654 0.144884,0.587116 0.485464,0.953809 0.65809,1.147777 0.132011,0.148334 0.115647,0.131029 0.109677,0.108965 -0.05198,0.09131 -0.21009,0.285039 -0.448265,0.489137 -0.484934,0.415551 -1.175309,0.794857 -1.754908,1.283379 -0.394493,0.332025 -0.797121,0.77706 -1.165965,1.261586 -0.184422,0.24226 -0.352328,0.481391 -0.495952,0.762764 -0.07181,0.140687 -0.141599,0.291267 -0.193135,0.508508 -0.05153,0.217242 -0.1197,0.553543 0.100142,1.000068 v 0.0025 c 0.309009,0.624606 0.836974,0.737308 1.099203,0.782134 0.262229,0.04483 0.440369,0.03631 0.596096,0.03148 0.0638,-0.002 0.08915,-0.0027 0.140679,-0.0048 0.01423,0.02327 -0.01975,-0.0078 0.08584,0.152551 0.168771,0.256393 0.338281,0.635896 0.832151,1.031547 l 0.0024,0.0025 h 0.0024 c 0.374013,0.297883 0.802555,0.700963 1.385328,1.063026 0.180871,0.11266 0.269272,0.133875 0.381502,0.176767 -0.02909,0.09979 -0.06161,0.173939 -0.08345,0.401964 -0.03172,0.331098 0.08453,0.952735 0.453033,1.329387 l 0.0024,0.0025 c 6.31e-4,6.39e-4 0.511719,0.312086 0.512643,0.31237 4.62e-4,1.43e-4 0.235519,0.04596 0.236054,0.04601 5.36e-4,5.2e-5 0.132992,0.0079 0.188367,0.0048 0.221496,-0.01253 0.330848,-0.06206 0.412499,-0.09687 0.163305,-0.06956 0.216193,-0.115598 0.267051,-0.152553 0.101705,-0.07392 0.151652,-0.122578 0.209826,-0.176767 0.116343,-0.108383 0.234966,-0.229998 0.379117,-0.382593 0.288301,-0.30519 0.661537,-0.71944 1.077742,-1.196205 0.832412,-0.953531 1.828337,-2.145632 2.577521,-3.121277 0.268661,-0.34974 0.589142,-0.696031 0.865533,-0.983116 0.138194,-0.143543 0.264399,-0.271593 0.376732,-0.389857 0.112339,-0.118263 0.18494,-0.154856 0.357658,-0.435865 0.90283,-1.465822 0.84144,-2.847172 0.593712,-3.598305 -0.12361,-0.374046 -0.205578,-0.585329 -0.21221,-0.622318 0.0059,-0.0038 0.0023,0.0099 0.02146,-0.0218 0.504305,-0.835719 1.470021,-1.823031 2.095875,-2.094571 v 0.0025 c 0.871991,-0.377513 2.416124,-0.719243 3.474051,-0.84025 0.347208,-0.0399 0.672355,0.03024 1.249418,0.01215 0.577063,-0.01817 1.411603,-0.306708 1.983809,-0.929844 v -0.0025 c 1.224774,-1.334192 1.570425,-2.969664 2.06011,-4.009955 0.525314,-1.117511 1.426361,-2.412844 1.669069,-4.164929 v -0.0025 c 0.140177,-1.016834 -0.09206,-1.875429 -0.200287,-2.578866 -0.108237,-0.703437 -0.09271,-1.166721 0.02384,-1.39961 0.04599,-0.09205 0.258123,-0.294845 0.689087,-0.561781 0.430964,-0.266937 1.04146,-0.563238 1.573696,-1.215578 0.824424,-1.009174 1.434156,-1.569621 2.32716,-2.719311 h -0.0024 c 0.755002,-0.97041 1.553245,-2.165864 1.833592,-3.641892 h 0.0024 c 0.171668,-0.905654 0.159517,-1.728084 -0.266882,-2.42638 -0.426401,-0.698296 -1.134032,-0.981237 -1.654764,-1.113876 -1.04147,-0.265281 -1.777737,-0.283433 -2.248476,-0.678012 v -0.0025 h -0.0024 c -0.170023,-0.142258 -0.449112,-0.920755 -1.065821,-1.944442 -0.616713,-1.023685 -1.921866,-2.086331 -3.900854,-2.130894 -0.747524,-0.01708 -2.147219,-0.554971 -3.724412,-0.385014 -0.366152,0.03925 -0.339947,0.0489 -0.453033,0.06539 -0.179679,-0.386194 -0.345068,-0.766952 -0.682202,-1.140668 -0.388441,-0.430591 -0.94111,-0.730875 -1.542698,-0.910473 -0.525138,-0.157029 -1.212003,-0.403344 -2.029112,-0.447972 -0.459446,-0.02509 -0.982334,0.08799 -1.487856,0.305105 -0.165232,-0.284401 -0.26504,-0.571719 -0.786849,-0.925001 -0.268357,-0.181549 -0.549239,-0.204354 -0.822613,-0.222776 0.128142,-0.479985 0.233575,-0.985037 0.08584,-1.571534 -0.07855,-0.310913 -0.284571,-1.459174 -0.727238,-2.462636 -0.221333,-0.50173 -0.476209,-1.034286 -1.111124,-1.438353 -0.317459,-0.202034 -0.765546,-0.334368 -1.201731,-0.285734 -0.436184,0.04863 -0.814653,0.247132 -1.12066,0.49398 -0.851686,0.687066 -1.108049,1.540857 -1.285185,1.845161 -0.08857,0.152152 -0.114805,0.15782 -0.09776,0.14771 0.01704,-0.0101 0.01147,0.02399 -0.238438,0 -0.319359,-0.03072 -0.661982,-0.133197 -1.170735,-0.198561 -0.508751,-0.06536 -1.200606,-0.03164 -1.866974,0.276048 -0.927746,0.427698 -1.408419,0.837548 -1.912277,0.973431 -0.403031,0.108815 -0.941791,0.212575 -1.318565,0.203403 -0.376775,-0.0092 -0.418402,-0.06728 -0.429189,-0.08475 0.02241,0.03567 -0.09606,-0.262294 -0.152601,-0.656218 -0.05673,-0.395301 -0.09249,-0.894034 -0.116831,-1.38266 -0.02434,-0.488626 -0.03785,-0.961916 -0.0763,-1.380238 -0.01923,-0.209161 -0.03835,-0.397757 -0.09776,-0.629582 -0.0297,-0.115914 -0.06542,-0.244114 -0.164521,-0.423758 -0.09909,-0.179644 -0.291226,-0.474576 -0.727238,-0.627161 z m -0.999057,3.494182 c 0.0247,0.463094 0.05027,0.950691 0.119224,1.431089 0.07783,0.542215 0.157977,1.058733 0.50072,1.615121 h 0.0024 c 0.588627,0.953285 1.642256,1.227714 2.436843,1.247057 0.794587,0.01934 1.503681,-0.15031 2.005268,-0.285733 1.105163,-0.298046 1.739413,-0.857211 2.296163,-1.113877 0.235809,-0.108882 0.302035,-0.104604 0.550794,-0.07264 0.248756,0.03196 0.661835,0.152181 1.24465,0.208246 h 0.0024 c 0.608907,0.05845 1.213831,-0.04231 1.697683,-0.32932 0.483848,-0.28701 0.779448,-0.69859 0.970445,-1.026703 0.234521,-0.402885 0.3146,-0.515198 0.431573,-0.714334 0.231187,0.586689 0.419482,1.414484 0.546025,1.915383 0.05003,0.198608 -0.106418,0.665385 -0.507875,1.297908 -0.200731,0.316261 -0.430896,0.637593 -0.634246,1.03639 -0.203351,0.398796 -0.500295,1.056625 -0.121605,1.825789 0.173399,0.352189 0.732162,0.701868 1.096817,0.714335 0.364655,0.01246 0.535052,-0.08707 0.660475,-0.150132 0.250844,-0.126136 0.350551,-0.226751 0.472108,-0.32932 0.243112,-0.205139 0.474128,-0.428101 0.705778,-0.627162 0.121898,-0.10475 0.189164,-0.14072 0.290896,-0.213089 0.104526,0.126476 0.07818,0.11318 0.202672,0.29542 0.128098,0.187506 0.245604,0.370895 0.457802,0.593259 0.106101,0.111185 0.215256,0.25547 0.557948,0.39228 0.171345,0.0684 0.431026,0.128422 0.729621,0.07022 0.298596,-0.05819 0.582084,-0.250861 0.73916,-0.435864 0.17441,-0.205948 0.238485,-0.21567 0.596097,-0.196139 0.35761,0.01953 0.897576,0.179597 1.471165,0.351113 0.349419,0.104317 0.376557,0.147261 0.431575,0.208246 0.05502,0.06098 0.174907,0.263665 0.376732,0.697383 0.112094,0.241179 0.224151,0.47296 0.457802,0.728864 0.233651,0.255905 0.652461,0.48077 0.984752,0.532724 0.664577,0.103907 0.901209,-0.0414 1.373406,-0.09202 0.700833,-0.07552 1.988988,0.364608 3.412057,0.397121 1.324506,0.02983 1.513889,0.348832 1.874127,0.946795 0.360042,0.597638 0.539797,1.677892 1.595154,2.561915 1.24205,1.0411 2.662889,1.03521 3.209383,1.174414 0.114646,0.02921 0.149881,0.04274 0.17406,0.05086 0.0034,0.03014 0.02843,0.162773 -0.05722,0.615053 -0.157155,0.824552 -0.701056,1.735008 -1.351947,2.571602 v 0.0025 c -0.79415,1.022426 -1.377453,1.557471 -2.28901,2.673303 -0.105026,0.12873 -0.468769,0.371175 -0.968061,0.680433 -0.499291,0.309258 -1.174855,0.720461 -1.592769,1.557006 -0.521785,1.044554 -0.385968,2.083992 -0.259899,2.903344 0.126163,0.819958 0.243347,1.505485 0.195521,1.852424 -0.140624,1.015134 -0.820025,2.091233 -1.454477,3.44091 -0.65299,1.387223 -1.019315,2.710827 -1.642841,3.390059 -0.204224,0.222401 -0.07392,0.138979 -0.274204,0.145287 -0.200285,0.0063 -0.726326,-0.08049 -1.447323,0.0025 -1.261308,0.144422 -2.877553,0.467347 -4.158369,1.021859 -1.454398,0.631025 -2.509745,1.902463 -3.218921,3.07769 -0.329525,0.546732 -0.430892,1.233295 -0.34812,1.728929 0.08277,0.495636 0.237246,0.794016 0.305201,1.000068 0.131288,0.398076 0.25092,0.493171 -0.302817,1.411717 -0.01552,0.02088 -0.04933,0.06794 -0.09061,0.111383 -0.08643,0.09099 -0.2152,0.22235 -0.364811,0.377749 -0.299222,0.310805 -0.680644,0.720303 -1.044361,1.193786 -0.6755,0.879689 -1.620116,2.007157 -2.410614,2.91545 -0.02398,-0.02658 -0.02254,-0.06687 -0.04768,-0.09202 -0.27013,-0.269929 -0.598243,-0.424883 -0.770157,-0.491559 -0.171913,-0.06668 -0.188267,-0.07312 -0.183597,-0.07022 h -0.0024 v -0.0025 c -0.325796,-0.202245 -0.690973,-0.528774 -1.151658,-0.895943 0.07757,0.06215 -0.111716,-0.150448 -0.317124,-0.462501 -0.168832,-0.256486 -0.478166,-0.60444 -0.913218,-0.905629 0.09425,-0.09719 0.22768,-0.261525 0.276588,-0.302685 v -0.0025 c 0.202936,-0.17105 1.034869,-0.668629 1.769215,-1.297909 0.367171,-0.314639 0.736348,-0.676909 1.015748,-1.18652 0.279399,-0.509607 0.434007,-1.248074 0.21221,-1.934755 v -0.0025 h -0.0024 c -0.18154,-0.560524 -0.505239,-0.865417 -0.650937,-1.029127 -0.065,-0.07304 -0.08587,-0.104799 -0.09776,-0.121078 0.0037,8.52e-4 -6.98e-4,-0.08205 0.0072,-0.355955 0.0085,-0.299988 0.0035,-0.828876 -0.286127,-1.353603 -0.457766,-0.827225 -1.047977,-0.98096 -1.0229,-0.958902 -0.190848,-0.167725 -0.224313,-0.378175 -0.62471,-1.02186 -0.387796,-0.623401 -0.969136,-1.018333 -1.413941,-1.220421 -0.443885,-0.201669 -0.740902,-0.286316 -0.977599,-0.418915 -0.207443,-0.116925 -0.190862,-0.122492 -0.228901,-0.290577 -0.03794,-0.167653 -0.03169,-0.516725 0.04292,-0.941952 v -0.0025 c 0.145064,-0.817998 0.740372,-2.167451 0.157369,-3.729064 -0.419731,-1.124333 -1.460474,-1.533734 -2.165023,-1.750724 -0.665791,-0.205051 -1.164956,-0.361254 -1.304259,-0.435864 -0.0023,-0.03735 -0.0066,-0.04285 0.0024,-0.159816 0.02851,-0.372197 0.224584,-1.085853 -0.07153,-1.988028 -0.272679,-0.831662 -0.844398,-1.485483 -1.464012,-1.862111 -0.619615,-0.376629 -1.250408,-0.530934 -1.833594,-0.656218 -1.111776,-0.239568 -1.915475,-0.221215 -2.098259,-0.278469 -0.09139,-0.02863 -0.0445,0.0062 -0.09538,-0.06296 -0.05089,-0.06918 -0.17443,-0.302851 -0.286129,-0.789398 -0.07049,-0.307561 -0.09587,-0.597783 -0.133522,-0.927424 -0.03766,-0.329642 -0.02852,-0.753838 -0.419653,-1.283379 -0.39114,-0.529541 -1.164829,-0.72997 -1.700068,-0.685277 -0.535238,0.0447 -1.055929,0.20195 -1.776368,0.455237 h -0.0024 c -1.432886,0.504394 -2.566825,1.316313 -3.204615,1.343916 -0.119277,0.0051 -0.156898,0.0074 -0.176444,0.01215 0.0031,-0.195148 0.05917,-0.572704 -0.08822,-1.121141 v -0.0025 c -0.07286,-0.26956 -0.129574,-0.3462 -0.236054,-0.498824 -0.05324,-0.07631 -0.10904,-0.161207 -0.267051,-0.290576 -0.07901,-0.06468 -0.185656,-0.147495 -0.388655,-0.217932 -0.202999,-0.07044 -0.555407,-0.111458 -0.889376,0.0339 h -0.0024 l -0.0024,0.0025 c -0.116149,0.05107 -0.331603,0.147365 -0.536487,0.237304 -0.102443,0.04497 -0.200028,0.08747 -0.269436,0.116231 -0.0091,0.0038 -0.0175,0.006 -0.02861,0.0097 -0.325334,0.05926 -0.732446,-0.124673 -1.020587,-0.508408 -0.208184,-0.277118 -0.405325,-0.989076 -0.388655,-1.787045 0.01667,-0.797969 0.227115,-1.661905 0.448265,-2.12363 0.210925,-0.440312 0.361337,-0.4868 0.92991,-0.651375 0.568574,-0.164575 1.475716,-0.264203 2.420152,-0.845093 0.956431,-0.58838 1.536536,-1.578869 1.659532,-2.53528 0.122997,-0.956411 -0.09582,-1.854032 -0.398192,-2.678146 -0.237043,-0.646782 -0.411853,-0.865692 -0.553178,-1.104191 0.252455,-0.141112 0.5006,-0.242042 0.763004,-0.682855 0.134038,-0.225171 0.230543,-0.590107 0.188366,-0.908051 -0.0089,-0.06675 -0.0415,-0.08239 -0.05723,-0.140446 0.285968,9.91e-4 0.598077,-0.02992 0.803538,0.07749 0.166846,0.08727 0.419253,0.298123 0.784463,0.573889 0.36521,0.275767 0.881303,0.62492 1.580848,0.736127 1.163346,0.185324 2.164456,-0.240839 2.942334,-0.813614 0.680315,-0.499762 1.174175,-1.303649 1.187423,-2.101836 0.0072,-0.432229 -0.204821,-0.713822 -0.340968,-1.05334 0.568911,0.129585 1.16468,0.168173 1.628536,-0.0097 0.552823,-0.211977 0.961488,-0.535535 1.309028,-0.832986 0.06264,-0.05362 0.06644,-0.04806 0.126373,-0.09928 z m 14.530447,42.809176 c -0.01319,0.0217 -0.01707,0.03065 -0.031,0.05327 h -0.0024 c 0.03489,-0.05676 0.02843,-0.04492 0.03338,-0.05327 z"
            style="fill:#ffffff;fill-opacity:1;fill-rule:nonzero;stroke:none;stroke-width:1.23026" id="path5137" />
    </g>
</svg>