<?xml version="1.0" encoding="UTF-8" standalone="no"?>
<svg xmlns:dc="http://purl.org/dc/elements/1.1/" xmlns:cc="http://creativecommons.org/ns#"
    xmlns:rdf="http://www.w3.org/1999/02/22-rdf-syntax-ns#" xmlns:svg="http://www.w3.org/2000/svg"
    xmlns="http://www.w3.org/2000/svg" version="1.1" id="svg885" xml:space="preserve" width="100" height="100"
    viewBox="0 0 100 100">
    <defs>
        <linearGradient x1="-0.39899999" y1="68.556999" x2="137.05499" y2="68.556999" gradientUnits="userSpaceOnUse"
            gradientTransform="matrix(-0.02627927,-0.1728885,-0.17121612,0.02653595,-51.268703,-184.75449)"
            spreadMethod="pad" id="linearGradient4943">
            <stop style="stop-opacity:1;stop-color:#181c3f" offset="0" id="stop4939" />
            <stop style="stop-opacity:1;stop-color:#203572" offset="1" id="stop4941" />
        </linearGradient>
    </defs>
    <g id="g8069" style="display:inline">
        <path
            d="m 76.946296,85.351674 c -0.50522,1.12238 -2.11474,1.46493 -3.33451,2.49982 -0.43305,0.22595 0.13714,-0.23335 0.95994,-0.82355 0.8228,-0.56846 1.80438,-1.39929 2.37457,-1.67627 z m 0.2887,5.18912 0.31037,0.42997 c 0.80115,-0.51743 1.49403,-1.12235 1.30638,-1.45033 -0.41863,0.32802 -0.60628,0.59036 -0.78672,0.86001 -0.16602,-0.1531 -0.332,-0.25516 -0.83002,0.16051 z m 12.61627,-26.25156 c 0.3249,-0.95472 0.58464,-1.85844 0.54854,-2.45607 -0.86609,3.54199 -2.82206,7.62329 -4.07071,10.42191 0.46193,-0.8454 0.93832,-1.68352 1.36411,-2.55081 l 1.14762,-2.66013 c 0.30304,-0.7944 0.69289,-1.80015 1.01044,-2.7549 z m -8.27853,-50.80497 c 0.89498,0.6632 1.6456,1.40662 2.39623,2.08439 0.73619,0.69237 1.46516,1.34829 2.10753,2.01877 1.25586,1.37748 2.46838,2.61642 3.52217,3.86268 0.023,0.0273 0.0506,0.0584 0.0721,0.0877 0.23093,0.61949 0.35368,1.2098 0.32491,1.75644 0.6929,0.87454 1.22698,1.78555 1.77553,2.63827 0.53408,0.86726 1.06817,1.68352 1.52289,2.49978 0.0153,0.0234 0.023,0.0436 0.0307,0.0584 -0.008,0.0877 -0.023,0.16752 -0.0154,0.26958 0.0579,0.0156 0.12275,0.0273 0.18029,0.0436 0.79394,1.51592 1.56624,2.91521 2.21579,4.27811 0.67847,1.48675 1.41467,2.87147 2.09311,4.2489 0.6568,1.38476 1.38575,2.73305 2.20136,4.11048 -0.51245,-1.40661 -1.11152,-3.06099 -1.75386,-4.84657 -0.75062,-1.72726 -1.44352,-3.60755 -2.28076,-5.4296 -0.25279,-0.52471 -0.49078,-1.05674 -0.73621,-1.58877 0.008,0 0.008,0.008 0.0153,0.008 -0.15152,-0.50289 -0.31033,-0.80169 -0.48361,-1.0495 -0.41862,-0.91829 -0.83724,-1.822 -1.28471,-2.68198 0.76505,0.85269 1.55899,1.69813 2.41065,2.53625 -0.85166,-1.22441 -1.85489,-2.66745 -2.93752,-4.2198 -0.22364,-0.27698 -0.4403,-0.56846 -0.66401,-0.85997 0,0 0,-0.008 0,-0.008 -0.37516,-0.80169 -0.75788,-1.55964 -1.061,-2.29576 -0.83724,-0.1457 0.56297,1.07863 0.28156,1.27544 -0.4042,-0.53932 -0.80836,-1.07867 -1.23419,-1.61067 -0.79393,-1.0932 -1.5662,-2.1427 -2.39623,-3.08284 -0.59907,-0.71423 -1.19088,-1.39933 -1.77553,-2.04796 -0.18758,-0.19673 -0.38244,-0.37905 -0.5774,-0.56117 -0.60627,-0.69966 -1.19089,-1.39929 -1.73221,-2.0771 -0.57019,-0.67777 -1.13316,-1.31183 -1.61673,-1.94589 -0.88054,0.0803 0.96714,0.96929 0.57019,1.18795 -1.6456,-1.31187 -3.1252,-2.5945601 -4.67698,-3.6221601 -0.75785,-0.53203 -1.50846,-1.04221 -2.24466,-1.51593 -0.75062,-0.45186 -1.5229,-0.83811 -2.27353,-1.2098 1.71778,1.37743 3.5366,2.66012 5.09559,3.87725 1.54458,1.2389401 2.67773,2.5507701 2.93035,3.8116101 z M 56.455676,2.0201839 c 0.95272,0.20414 1.84048,0.38645 2.68493,0.56846 0.85167,0.1605 1.65282,0.31321 2.43231,0.45914 0.77228,0.17492 1.53734,0.33542 2.3024,0.46643 -0.83002,-0.24776 -1.72499,-0.51014 -2.6344,-0.78708 -0.92385,-0.21855 -1.87656,-0.43729 -2.80041,-0.65591 -1.85491,-0.45919 -3.68095,-0.59035 -5.08837,-0.53936 1.11872,0.17492 2.1436,0.33542 3.10354,0.48832 z m 39.42945,65.3518901 c 0.30304,-0.96928 0.79393,-2.10624 1.19813,-3.24319 0.39699,-1.13691 0.60628,-2.29572 0.56297,-3.20673 -0.28156,1.0495 -0.62791,2.36861 -1.07542,3.53471 -0.42583,1.18066 -0.75062,2.25201 -0.68568,2.91521 z M 37.054906,1.6120339 c 0.93828,-0.2988 1.85491,-0.59763 2.73545,-0.88186 -1.06819,0.24776 -2.12917,0.51018 -3.1685,0.7944 -1.02489,0.34243 -2.02813,0.69967 -2.99528,1.07135 -0.48358,0.18933 -0.95272,0.37905 -1.42186,0.56846 -0.45471,0.20414 -0.89498,0.43729 -1.32081,0.66324 -0.85167,0.45182 -1.65282,0.91829 -2.38179,1.38472 1.89099,-0.92561 3.78921,-1.85847 5.72351,-2.53624 0.95994,-0.35724 1.89822,-0.75066 2.82928,-1.06407 z m -12.06052,5.77215 c 0.75063,-0.45915 1.37855,-0.89644 1.76108,-1.32644 -1.46516,0.89643 -3.25511,1.80015 -4.17896,2.8059 0.4114,-0.26257 0.8228,-0.53203 1.22698,-0.78712 0.41141,-0.24036 0.81559,-0.47372 1.1909,-0.69234 z m 52.31279,58.6906301 c -0.22375,0.27698 -0.55574,0.77255 -0.90941,1.36286 -0.35368,0.59764 -0.8228,1.2317 -1.18368,1.91675 0.10104,0.18933 0.17323,0.5029 0.14435,0.10207 0.27427,-0.67777 0.99602,-1.28997 1.21976,-1.52321 -0.39696,0.53932 -0.87332,1.10782 -0.4114,1.29002 0.007,-0.16051 0.0577,-0.2988 0.12271,-0.43729 0.0215,0.0436 0.0361,0.0803 0.0794,0.12388 0.15156,0.0273 0.49801,-0.32802 0.75784,-0.75066 0.23818,-0.43 0.4114,-0.90372 0.31758,-1.02032 -0.0722,0.18232 -0.23096,0.35724 -0.4114,0.53204 0.0505,-0.13129 0.0433,-0.25517 -0.0649,-0.37165 -0.0505,0.1531 -0.17324,0.33542 -0.30316,0.51746 1.11149,-2.00421 1.08984,-2.29572 0.64235,-1.74183 z m 4.8141,-0.8454 c 0.36089,-0.80898 1.09707,-1.69084 0.52688,-2.24473 -0.332,0.93286 -0.64236,1.69813 -0.52688,2.24473 z m -26.06978,34.36314 c 0.51244,-0.1457 0.99602,-0.2988 1.40742,-0.43729 -0.51966,0.1531 -1.06098,0.27698 -1.60229,0.33542 -0.54132,0.0436 -1.08264,0.0584 -1.58786,0.0728 -1.01768,0.0273 -1.90543,0.051 -2.49005,0.28438 0.60627,0.211536 1.61673,0.182316 2.68493,0.0351 0.52687,-0.0728 1.06818,-0.17491 1.58785,-0.29139 z m 29.05063,-30.06321 c 0.0649,0.10947 0.54132,-0.50285 0.93827,-2.23744 -0.37516,0.64867 -0.60626,1.18795 -0.75783,1.57424 -0.15877,0.37165 -0.21654,0.61217 -0.18045,0.6632 z m -7.7733,10.71342 c 0.64236,-0.93286 1.56621,-1.94589 1.67447,-2.79861 -0.48358,0.60492 -1.26307,1.33372 -1.81881,1.85847 -0.55576,0.53203 -0.89498,0.87454 -0.56297,0.64135 0.87332,-0.93286 0.12267,0.22594 0.70731,0.29879 z m 6.22875,-8.10429 c -1.03212,0.73609 -1.19812,2.17912 -2.33128,3.43996 1.10429,-0.0654 1.75387,-2.90793 2.33128,-3.43996 z m -57.5383,20.07127 c -0.24539,0.0873 -0.72897,0.051 -0.67123,-0.21154 -0.66401,-0.45914 -2.83649,-1.71269 -3.13963,-2.06253 -0.793932,-0.51017 -1.573429,-1.01303 -2.324052,-1.5232 -1.342463,-0.9839 -2.728235,-1.85115 -4.034609,-2.71845 0.555751,0.1531 1.089848,0.22595 1.847691,0.73609 -0.606271,-0.61217 -1.183676,-1.20252 -1.746647,-1.79283 -0.433053,-0.40815 -0.858886,-0.81626 -1.270289,-1.23169 -1.198111,-1.31183 -2.374571,-2.58728 -3.471638,-3.85536 -1.046543,-1.30459 -2.165265,-2.49982 -3.197373,-3.68048 0.498008,0.2914 0.996019,0.50285 1.595079,1.19523 -0.04331,-0.0803 -0.08662,-0.1531 -0.129925,-0.23335 -2.208569,-3.08284 -3.868607,-6.27504 -5.110026,-9.80974 -0.346428,0.18232 -0.01458,1.01307 0.368102,1.87304 -0.02877,0.53203 -0.339217,-0.2914 -0.692884,-1.26812 -0.368102,-0.96204 -0.64236,-2.12809 -0.923845,-2.17184 0.425837,0.0803 0.440272,-0.57574 0.230965,-1.65438 -0.115463,-0.50289 -0.245388,-1.11506 -0.382525,-1.78558 -0.642364,-2.35404 -1.068197,-4.72265 -1.26307,-7.18601 -0.25985,0.0584 -0.288696,0.51018 -0.230965,1.08592 0.02877,0.19674 0.05052,0.38646 0.07941,0.59032 0.01458,0.0728 0.02148,0.14569 0.03606,0.22595 -0.10104,0.3062 -0.173234,0.10206 -0.230966,-0.33542 -0.346428,-0.44458 -0.173233,-2.18641 -0.649579,-3.62216 -0.30312,0.35723 -0.223753,1.34829 -0.382525,1.93864 -0.830021,-2.09895 0.793928,-2.82775 0.562966,-5.34943 -0.238176,0.24037 -0.339216,0.8017 -0.36089,1.51593 C 0.346436,50.630984 0.346436,49.996884 0,50.113484 c 0.115463,-2.84961 0.490792,-5.71383 1.111502,-8.54887 -0.05052,0.11648 -0.10104,0.22595 -0.15156,0.32062 -0.122714,-1.0276 0.187657,-1.63981 0.591836,-2.24469 0.158772,-0.61949 0.346428,-1.2317 0.526881,-1.8439 -0.01458,-0.23335 -0.03606,-0.45186 -0.259812,-0.44458 2.064221,-6.68311 5.629688,-13.06014 10.422139,-18.48974 1.2342,-1.39204 2.547797,-2.71848 3.933565,-3.97927 0.902195,-0.87458 1.82604,-1.72727 2.785974,-2.55082 0.2526,-0.14569 0.526881,-0.32061 0.793932,-0.48832 0.505227,-0.82355 2.490054,-1.77097 3.529389,-2.5945201 -0.0794,0.1457 -0.23097,0.3062 -0.41862,0.45914 2.20857,-1.45032 4.5254,-2.7549 6.95049,-3.8991 0.28149,-0.0729 0.59184,-0.17492 0.88776,-0.26218 0.64958,-0.61221 2.53336,-0.99846 3.77478,-1.46489 -0.84445,0.21114 -1.6456,0.26958 -1.84769,0.0156 0.95271,-0.87458 2.92311,-0.77251 4.08513,-1.06406 -0.24539,0.35723 -1.12594,0.75065 -2.0137,0.99846 -0.60627,0.53932 -2.43231,0.88915 -3.67373,1.42847 0.10825,-0.0351 0.20208,-0.0584 0.31037,-0.0947 0.54132,-0.1457 1.11872,-0.3062 1.71778,-0.46643 1.19811,-0.3062 2.45397,-0.77255 3.83252,-1.04949 1.37133,-0.2914 2.78597,-0.67777 4.25835,-0.88187 1.47238,-0.18933 2.95919,-0.43 4.43879,-0.48828 1.17646,-0.0729 2.35293,-0.0947 3.52939,-0.0729 0.007,0 0.0215,0 0.0288,0 0.0433,0 0.0866,0 0.12271,0 0.15156,0 0.31037,0 0.46193,0.008 5.08115,0.0234 10.19117,0.72152 15.09189,2.34676 10.15509,3.28689 19.45128,9.9409101 25.55009,19.4372001 -0.17339,-0.0156 -0.35368,-0.10947 -0.55572,-0.3062 1.44348,2.10624 2.72824,4.3364 3.82529,6.68315 0.38245,0.67049 0.76505,1.34097 1.14036,1.99693 0.27428,0.50285 0.55576,0.99117 0.79394,1.50131 0.22364,0.51018 0.4403,1.0276 0.64238,1.54507 -0.41863,-0.34984 -0.7723,-1.05674 -1.16204,-1.81473 -0.0579,-0.10206 -0.10818,-0.20413 -0.1661,-0.3062 0.31033,0.80898 0.60628,1.61796 0.8733,2.44879 -0.25969,-0.0947 -0.49799,-0.35724 -0.69286,-0.99118 0.008,0.0436 0.023,0.0876 0.0345,0.13128 0.10089,0.2914 0.20944,0.58307 0.30304,0.88915 0.28885,0.8673 0.58461,1.75645 0.8733,2.61642 0.23822,0.87458 0.43309,1.72726 0.59907,2.48521 -0.31762,-0.80894 -0.59182,-1.71266 -0.92382,-2.66741 0.31762,1.16609 0.66401,2.303 1.03932,3.43267 0.29576,1.12963 0.59186,2.24473 0.88056,3.33794 0.13004,0.55388 0.28156,1.10049 0.37516,1.65437 0.0867,0.55389 0.16609,1.10778 0.22363,1.65438 -0.31762,-0.45186 -0.47635,-1.21709 -0.6568,-2.06253 -0.20944,-0.83811 -0.39694,-1.7564 -0.64233,-2.50706 0.0579,1.17334 0.3391,2.87146 0.42583,4.70076 0.0579,0.911 0.11546,1.85118 0.17339,2.7549 0.008,0.90372 -0.023,1.77826 -0.0579,2.5581 -0.13694,-1.17338 -0.15152,-2.49982 -0.30304,-3.93557 -0.14423,-1.42843 -0.13694,-2.96621 -0.38974,-4.51856 -0.46914,1.22438 -0.68568,3.00267 -0.8156,4.76636 -0.0345,0.43729 -0.0721,0.88187 -0.10818,1.31187 -0.0721,0.42997 -0.13733,0.8454 -0.20216,1.24627 -0.14423,0.80165 -0.31762,1.51589 -0.55575,2.07706 0.13004,-0.3062 -0.0794,-0.40083 -0.35368,-0.2914 0.0345,0.91829 -0.32491,2.45607 -0.36097,3.43996 -0.26699,-0.56846 0.094,-2.1427 0.21635,-3.35979 -0.23093,0.1457 -0.47635,0.41544 -0.60628,0.83812 -0.0307,0.0728 -0.0506,0.13869 -0.0721,0.20413 -0.008,-0.0947 -0.0433,-0.17491 -0.10817,-0.21854 0.15881,0.10946 -1.08263,1.50135 -0.90223,0.25516 -0.34639,1.51593 -0.77947,2.91522 -1.22698,4.22708 -0.51245,1.28998 -1.10426,2.48521 -1.68166,3.63674 0.27428,-1.29002 1.34966,-3.35979 1.78995,-5.48792 0.56297,-2.09895 0.56297,-4.16148 -0.46193,-4.93399 -0.64958,0.75065 -1.24144,1.51588 -1.76831,2.55809 -0.58461,1.03489 -0.97434,2.38318 -1.33523,4.29993 -0.34639,0.0947 -0.75063,-0.0156 -1.01769,0.40087 -0.27428,-0.10947 0.54133,-1.20984 0.47639,-2.1427 -0.0579,-0.33542 -0.34639,-0.39354 -0.18758,-0.99118 -0.094,0.0234 -0.18029,0.0803 -0.2597,0.13869 -0.0721,0.67048 -0.18029,1.58877 -0.20216,2.2374 -0.31762,0.0436 -0.27427,-0.31321 -0.21635,-0.68505 -0.38973,1.08592 -0.53408,1.90946 -0.75062,2.74758 -0.18758,0.8454 -0.32491,1.74183 -0.6929,2.94439 -0.29591,-0.26958 -0.48354,0.28439 -0.68563,0.72152 0.24539,-1.10049 0.58461,-2.67473 1.14035,-4.25622 0.28156,-0.78712 0.46193,-1.62524 0.72178,-2.39779 0.10089,-0.34243 0.21635,-0.67777 0.3322,-1.00575 -0.23093,0.27698 -0.4403,0.61221 -0.68569,0.86001 -0.15152,-0.68509 1.54457,-2.41236 0.10089,-2.74033 -0.50524,-0.0273 -0.51966,1.18066 -0.69289,2.00424 -0.37532,-0.11648 -0.24539,-0.80169 -0.10089,-1.52321 -0.54129,0.0728 -0.93104,0.34984 -1.20531,0.2914 -0.0722,0.51018 -0.20208,0.97661 -0.29591,1.14424 -0.12992,-0.0802 -0.11546,-0.3136 -0.28869,-0.34983 -0.77228,3.59298 -0.2887,-0.11648 0.23096,-1.31187 0,-0.008 -0.007,-0.0156 -0.007,-0.0273 -0.60626,0.65591 -0.87331,1.04949 -1.09706,1.46489 -0.20929,0.41543 -0.41861,0.8454 -0.93106,1.50135 -0.12993,-0.24036 0.0215,-0.67052 0.20208,-1.12238 0.15877,-0.45914 0.37531,-0.93286 0.46914,-1.22437 -0.12271,-0.3062 -0.2526,-0.60492 -0.38975,-0.88915 -0.62793,0.40082 -0.16602,2.1427 -0.59184,2.33218 -0.23817,-0.0803 -0.47636,-0.1531 -0.58462,0.1383 -0.15156,-0.6632 0.79393,-1.5742 0.87333,-2.78404 -0.24539,0.0234 -0.50523,1.02764 -0.34643,-0.051 -0.39697,0.2988 -0.35368,1.56692 -0.69288,1.99693 -0.0649,-0.60492 -0.0215,-1.8949 0.11546,-2.8569 -0.44027,-0.23335 -0.42583,0.47372 -0.64236,0.68506 -0.12271,0.53931 0.007,0.81626 0.39696,0.83811 -0.664,0.81626 -1.25584,0.87458 -1.58064,1.73455 -0.57019,0.3136 -0.0649,-1.12234 -0.4547,-0.35723 -0.2887,-0.43001 -0.11551,-1.45765 0.1155,-2.5071 0.0577,-0.26257 0.10825,-0.52475 0.15877,-0.77984 0.0288,-0.25517 0.0433,-0.50285 0.0505,-0.73609 0.007,-0.34243 -0.007,-0.63406 -0.0794,-0.85268 -0.0577,0.88182 -0.15877,1.7564 -0.28869,2.63827 -0.0146,0.0947 -0.0288,0.19673 -0.0433,0.29139 -0.0433,0.26958 -0.0938,0.53203 -0.14435,0.80169 -0.0505,0.26958 -0.10104,0.53932 -0.15156,0.80898 -0.0215,0.0947 -0.0433,0.18232 -0.0649,0.27698 -0.44027,1.97507 -1.06821,3.87725 -1.86935,5.68469 -0.0215,0.0436 -0.0433,0.0873 -0.0577,0.13129 -0.18044,0.40082 -0.3681,0.80169 -0.56297,1.18794 -0.0649,0.13129 -0.12992,0.25517 -0.19486,0.37905 -0.15156,0.2988 -0.31037,0.59764 -0.47636,0.88915 -0.11546,0.20414 -0.23097,0.40087 -0.35368,0.60492 -0.12271,0.20414 -0.24539,0.4154 -0.3681,0.61949 -0.0433,0.0728 -0.0866,0.1457 -0.12993,0.21115 0.0722,0.051 0.24539,-0.1531 0.51245,-0.6632 0.21654,0.58303 -0.87332,1.44304 -1.18368,1.80015 0.84446,0.7798 1.09706,-0.97661 1.66726,-1.21712 -0.21655,1.21712 -1.39299,2.05524 -1.66005,3.04641 0.27428,-0.22594 0.93829,-1.02764 1.56621,-1.93864 -0.21654,0.53203 -0.35364,1.21713 -0.57019,1.87304 -0.0505,0.1531 -0.10825,0.3062 -0.18044,0.44458 0.38253,-0.40815 0.76506,-0.78713 1.00324,-1.08592 0.007,0.0876 -0.0146,0.17491 -0.0288,0.26257 0.0288,-0.0156 0.0505,-0.0436 0.0794,-0.0584 -0.0361,1.38472 -1.85491,2.17184 -2.31683,3.79708 0.48357,0.13868 0.48357,-1.10049 1.14037,-1.09321 -0.20929,-0.13868 0.15877,-0.6122 0.6568,-1.10049 0.50522,-0.48828 1.06098,-1.07863 1.38576,-1.31187 -0.75784,1.39933 -1.55899,2.29576 -2.30239,3.27966 -0.36089,0.50285 -0.7795,0.96928 -1.2342,1.48674 -0.44027,0.53204 -0.92385,1.11506 -1.4796,1.78559 1.36412,-1.31916 2.80041,-1.88033 4.4027,-3.64402 -1.26307,0.47371 0.35368,-0.69238 0.83724,-0.73613 -0.15877,-0.42268 0.24539,-1.07131 0.80115,-1.78554 0.13713,0.10207 -0.0794,0.35723 -0.16603,0.55389 2.28075,-2.28844 3.76756,-5.80857 5.35543,-9.9482 -0.13714,0.7288 -0.31037,1.45032 -0.49802,2.16456 -0.21655,0.70694 -0.51244,1.37743 -0.78671,2.04795 -0.0866,0.22595 -0.18765,0.43725 -0.28148,0.64863 0.26706,-0.45186 0.53409,-0.82354 0.7001,-0.86001 0.20929,-0.40811 0.0215,-0.51742 0.14435,-0.85997 0.24539,-0.1457 0.16602,0.43729 -0.0288,1.12235 -0.18766,0.68509 -0.59906,1.41389 -0.78671,1.61067 -0.10104,-0.10947 -0.0288,-0.33542 -0.18766,-0.40815 -0.88054,1.72726 -0.89498,1.56695 -0.59906,0.88914 -0.30315,0.53932 -0.62071,1.05678 -0.92384,1.57425 -0.32479,0.58302 -0.71454,1.10049 -1.07542,1.61791 -0.15877,0.3062 -0.31037,0.61221 -0.48357,0.911 -0.38975,0.6195 -0.84446,1.19528 -1.28473,1.77102 -0.2526,0.34983 -0.51966,0.67048 -0.80115,0.98389 -0.11546,0.18933 -0.23096,0.37165 -0.332,0.56117 0.72897,-0.71423 1.40742,-1.37743 2.02092,-2.05524 0.20208,-0.37905 0.49079,-0.79437 0.82279,-1.2754 0.0433,0.0654 0.0577,0.13128 0.0722,0.19673 0.007,-0.008 0.0146,-0.0156 0.0215,-0.0273 0.41862,-0.53932 0.8228,-1.06407 1.22698,-1.58878 0.3681,-0.55388 0.70732,-1.12967 1.0682,-1.71269 1.42908,-2.33219 2.68493,-5.11623 3.76756,-9.19754 0.007,0.90372 -0.20933,1.85847 -0.50523,2.84236 -0.28148,0.9839 -0.61349,2.0115 -1.08263,2.98082 -0.81558,1.99692 -1.89821,3.85536 -2.51892,5.64823 -0.21654,0.16751 -0.24539,0.0654 -0.34643,-0.0273 -0.0433,0.0654 -0.0794,0.13829 -0.12271,0.20413 -0.52689,0.88186 -1.10429,1.77826 -1.81161,2.59452 -0.31758,0.42272 -0.64958,0.83087 -0.98881,1.2317 0.36811,-0.21855 0.76506,-0.35724 0.59184,-0.53204 0.69289,-0.53931 0.20929,0.64863 -0.15156,1.01304 0.40418,0.008 1.05376,-0.4154 0.54132,0.45914 0.37531,0.19673 0.89497,-0.46643 1.32081,-0.481 0.0794,-0.25517 0.18044,-0.48828 0.41863,-0.83083 l 0.69288,-1.01303 c 0.43304,-0.80169 0.94549,-1.69813 1.54455,-2.58728 0.47636,-0.68505 0.85889,-1.45032 1.31359,-2.12809 0.42584,-0.69966 0.90219,-1.33372 1.26307,-1.92403 0.16602,-0.16051 -0.68566,1.79283 -1.03211,2.92978 -0.0794,-0.008 -0.12992,-0.0351 -0.15877,-0.0803 -0.46192,1.31915 -1.31359,2.51438 -2.61275,4.29264 -0.0433,0.0654 -0.0722,0.13129 -0.11547,0.19674 -0.007,-0.008 -0.0146,-0.008 -0.0146,-0.0156 -0.0361,0.051 -0.065,0.0947 -0.10825,0.1457 0.0288,-0.0584 0.0505,-0.10947 0.0794,-0.16751 -0.15877,-0.16752 -0.35368,0.0156 -0.56297,0.26958 -0.62793,1.54506 -1.41464,2.64555 -2.20857,3.82621 -0.44749,0.56118 -0.90941,1.13696 -1.40741,1.77102 -0.49802,0.64134 -1.01768,1.36286 -1.67448,2.12809 -1.14759,-0.051 -1.99205,2.12085 -3.68095,2.99539 0.24539,-0.1457 1.16203,-0.40812 2.00648,-0.85269 0.41862,-0.24777 0.81558,-0.53203 1.10429,-0.8454 -0.18766,0.0876 -0.3681,0.13128 -0.54854,0.10207 0.3681,-0.24037 0.67846,-0.51018 0.95271,-0.78713 0.0215,-0.0947 0.0361,-0.18231 0.0288,-0.27698 0.16603,-0.0873 0.24539,-0.0873 0.2887,-0.051 0.62071,-0.67049 1.1115,-1.31912 1.86213,-1.59606 -0.43305,0.22595 -1.1115,1.28998 -1.82604,2.01878 0,0.0156 0.007,0.0273 0.007,0.0351 0.62071,-0.72152 0.70732,-0.86726 1.34968,-0.90372 0.31758,-0.40083 -0.4114,-0.0436 -0.007,-0.48828 0.51966,-0.19674 1.00324,-0.36425 2.09309,-1.20981 0.20933,-0.21153 0.42584,-0.40815 0.62793,-0.62677 -0.15156,-0.1457 -0.38975,0.0436 -0.64958,0.27698 1.31359,-1.26812 2.54057,-2.67473 3.69539,-4.19062 -0.13714,0.0802 -0.27427,0.0947 -0.38975,-0.0156 0.47636,-0.58307 0.8661,-1.2317 1.2775,-1.86576 0.007,0.1531 -0.14435,0.69967 -0.3681,1.18795 2.41066,-3.31604 4.44598,-7.17872 6.01222,-11.61714 0.51966,0.008 -0.67126,1.66895 -0.1661,1.69084 0.72895,-0.9329 1.20534,-3.46185 1.58066,-5.07977 -0.55576,-0.44457 -0.50524,1.22437 -0.76509,1.86572 -0.43305,0.74337 0.31033,-2.70387 0.62074,-2.90793 0.3391,0.56117 0.20944,1.7127 -0.0794,3.00996 -0.36825,1.2754 -0.90939,2.6893 -1.24144,3.87725 -0.0794,-0.21855 -0.15881,-0.43001 -0.39695,-0.49557 -0.094,0.31321 -0.20944,0.62677 -0.3391,0.93286 0.36826,0.1457 0.40416,-0.0654 0.56297,0.94743 -0.0506,0.25516 -0.19487,0.39358 -0.35368,0.48103 -0.0575,0.1531 -0.11546,0.3062 -0.18758,0.46643 -0.33219,0.76523 -0.89497,1.58149 -1.07542,2.17184 0.0154,-0.53931 0.15152,-0.94018 0.3391,-1.33372 -0.17338,0.0273 -0.31033,-0.0584 -0.67126,0.52475 0.12276,0.64134 -0.27427,1.66166 -0.85166,2.79133 -0.68564,1.13691 -1.5734,2.36132 -2.19411,3.41806 -0.0146,-0.14569 -0.0361,-0.28438 -0.0938,-0.40082 -0.18044,0.24776 -0.36089,0.49557 -0.54131,0.74337 0.15877,0.0947 0.19486,0.16751 0.11546,0.94014 -0.39696,0.80898 -1.5229,0.0234 -0.96714,0.94747 -0.67845,0.67049 -0.71454,0.37905 -0.98159,0.43001 -0.75785,0.96928 -1.43629,1.873 -1.91987,2.59452 -0.0146,-0.10207 -0.0505,-0.1531 -0.0938,-0.17492 -0.65681,0.69967 -1.47961,1.50136 -2.44675,2.25201 -0.54854,0.44458 -1.10429,0.89644 -1.66725,1.3483 -0.007,0.008 -0.0146,0.0156 -0.0215,0.0156 0.18045,0.0436 0.40419,0.10207 0.13714,0.481 0.20208,0.11648 0.4114,-0.0234 0.60628,-0.22595 -0.0288,0.0156 -0.0577,0.0351 -0.0938,0.0654 0.0577,-0.36425 0.31037,-0.5466 0.61349,-0.69238 0.12271,-0.13128 0.22375,-0.20413 0.30316,-0.13128 0.34643,-0.13869 0.71453,-0.28439 0.98158,-0.57579 0.0649,0.48833 -0.48358,0.63406 -0.89497,0.75799 0,0.008 0.007,0.008 0.007,0.0156 -0.16602,0.1383 -0.28148,0.25517 -0.38252,0.35723 0.0288,0.0273 0.0577,0.0654 0.10825,0.10947 -0.10825,0.0728 -0.18766,0.0803 -0.26706,0.0654 -0.31758,0.38645 -0.24539,0.53928 -0.54854,0.80894 -0.48358,0.19673 -0.83724,0.10206 -1.06098,-0.28439 -0.85889,0.58307 -0.97437,0.96932 -1.04655,1.40661 0.92385,-1.28269 0.23818,0.3062 1.46517,-0.83811 0.0505,0.20413 -0.44749,0.51742 -0.3248,0.69962 0.85889,-0.23335 2.20135,-1.61063 3.13964,-2.09166 -1.11873,1.04221 -2.54058,2.41964 -3.8614,3.39625 -1.29193,1.01303 -2.28796,1.90218 -2.35292,2.21555 0.0649,0.43729 -1.74665,0.6122 -0.48357,-0.1383 -0.51967,0.16011 -2.23022,1.80744 -3.87583,2.39046 0.50523,0.0436 1.11872,-0.10206 0.61349,0.51018 1.50847,-0.45914 1.05376,-0.51746 2.14362,-1.2754 -0.10104,0.21114 -0.19487,0.42996 -0.0722,0.64134 0.95272,-0.71423 0.45471,-0.7507 1.58065,-0.85272 -3.57268,2.20098 -8.34348,4.15419 -13.32358,5.27654 -2.42517,0.63406 -4.97297,0.88186 -7.40528,1.07863 -1.21255,0.0351 -2.41066,0.051 -3.55826,0.051 -1.1548,0.0234 -2.25187,-0.13868 -3.30563,-0.21153 -0.3681,0.26958 -0.80115,-0.0947 -1.32081,-0.36425 -0.46193,-0.0584 -0.90941,-0.13128 -1.36412,-0.20413 -0.0794,0.16751 0.46192,0.53932 -0.56297,0.27698 -0.34643,-0.20413 -0.89498,-0.41543 -1.55899,-0.63406 -0.10825,-0.0234 -0.2165,-0.0351 -0.32479,-0.0584 -1.18368,-0.28439 -2.33849,-0.58303 -3.44999,-0.88183 -1.11872,-0.27698 -2.14361,-0.72152 -3.13963,-1.07135 -0.46193,0.18232 -0.80115,-0.38645 -1.29195,-0.80169 -0.37531,-0.1531 -0.75784,-0.3062 -1.13315,-0.46643 -0.18044,0.10947 0.3248,0.67777 -0.62792,0.1383 -0.31037,-0.32062 -0.85168,-0.70691 -1.52291,-1.13692 -0.17323,-0.0873 -0.35368,-0.16751 -0.51966,-0.26257 -0.83724,-0.43729 -1.6456,-0.85268 -2.38901,-1.26812 -0.71454,-0.45186 -1.37134,-0.88186 -1.94874,-1.26812 1.9343,1.48675 3.88304,2.57999 5.77404,3.69505 1.97039,0.95472 3.89747,1.96775 6.08439,2.63827 -3.01693,-0.61949 -5.81012,-1.85847 -8.40122,-3.24319 z m 61.63787,-24.31292 c 0.0506,-0.10947 0.10089,-0.22595 0.15153,-0.34243 -0.19487,0.0654 -0.30305,0.13128 -0.15153,0.34243 z m -13.77109,10.01376 c -0.0649,0.0654 -0.13714,0.13128 -0.20208,0.20413 0.12271,0.0351 0.23818,0.0273 0.36089,0.008 -0.0722,-0.0273 -0.0866,-0.12388 -0.15877,-0.21153 z M 3.984106,36.368754 c 0.129925,-0.43 0.2526,-0.83815 0.332005,-1.20255 -0.15156,0.36424 -0.288697,0.71423 -0.425834,1.06406 0.02877,0.0877 0.05773,0.13869 0.09383,0.13869 z m 66.49527,48.90279 c -0.38252,0.37164 -0.8661,0.73609 -1.32081,1.10049 0.0215,0.0273 0.0288,0.051 0.0649,0.0802 0.75784,-0.38645 1.63838,-0.92562 1.43629,-1.31187 -0.0505,0.0351 -0.1155,0.0873 -0.18044,0.13128 z m -5.16055,3.22858 c 0.14435,-0.11648 0.26706,-0.24037 0.35368,-0.37905 -0.23097,0.10947 -0.48357,0.21855 -0.80837,0.31321 0.12272,0.0584 0.28149,0.0729 0.45471,0.0654 z m 0.70732,-0.22595 c 0.0215,-0.0156 0.0433,-0.0234 0.0722,-0.0273 0.23097,-0.16011 0.40419,-0.26958 0.55575,-0.35723 0.0361,-0.0273 0.0794,-0.051 0.11547,-0.0873 0.67845,-0.53928 1.29916,-1.21708 1.63117,-1.51588 -1.20534,0.51014 -1.52291,1.0932 -2.28797,1.58877 0.007,0.10207 -0.10104,0.27698 -0.0866,0.40087 z m 4.92958,-0.34983 c 0.63515,-0.40815 1.08264,-0.74338 0.65681,-0.65592 -0.57741,0.47372 -1.14759,0.67777 -1.6023,0.85269 -0.44749,0.18933 -0.7795,0.37905 -0.92385,0.81626 0.34643,-0.21855 1.21255,-0.63406 1.86934,-1.01303 z m 1.41465,-0.0877 1.98482,-1.341 -0.20929,-0.2914 c -0.56297,0.55389 -2.36736,1.2098 -1.77552,1.63252 z m 14.06701,-17.66623 c -0.023,-0.0273 -0.0433,-0.0273 -0.0648,-0.051 -0.11547,0.31321 -0.28156,0.68505 -0.5052,1.10777 -0.46916,0.91101 -1.12595,2.04792 -1.97041,3.16302 0.87332,-0.911 1.84048,-2.90064 2.54059,-4.2198 z m -9.8231,5.15994 c -0.0215,-0.0654 -0.0146,-0.13128 -0.007,-0.18933 -0.84446,0.9839 -1.67448,1.93132 -2.32405,2.90065 0.34642,-0.16752 0.7001,-0.53204 1.07541,-0.96933 0.2887,-0.34983 0.62071,-0.7288 0.93107,-1.13691 0.31037,-0.40815 0.64236,-0.81626 1.01767,-1.15881 -0.18766,-0.10207 -0.44749,0.3062 -0.69288,0.55389 z m 3.03137,-4.94127 c -0.0433,0.13829 -0.12992,0.31321 -0.23818,0.51742 0.11547,-0.16751 0.23097,-0.34243 0.34643,-0.51742 -0.0361,0 -0.0649,-0.008 -0.10825,0 z m -5.04506,0.59759 c -0.23818,0.21855 -0.47636,0.44458 -0.70732,0.69238 0.28148,-0.0654 0.49079,-0.34983 0.70732,-0.69238 z m -0.89498,0.6632 c -0.0146,0.008 -0.0215,0.0234 -0.0361,0.0273 0.007,0 0.0146,0 0.0215,0 0,-0.008 0.007,-0.0234 0.0146,-0.0273 z M 35.488706,4.9424139 c -0.91663,0.29139 -1.6456,0.58306 -1.56621,0.6122 0.007,0 0.0146,0 0.0215,0 0.66401,-0.25516 1.17646,-0.45186 1.54455,-0.6122 z m -10.7758,4.48213 c -0.23097,0.0802 -0.72176,0.36424 -1.34247,0.8089701 0.64958,-0.3790401 1.08985,-0.6413401 1.3569,-0.8162601 -0.007,0.008 -0.007,0.008 -0.0146,0.008 z m -4.676974,2.2447301 c 0.05052,-0.0351 0.10104,-0.0584 0.15156,-0.0947 0.317582,-0.23335 0.649579,-0.45914 0.967153,-0.68505 -0.396967,0.25516 -0.786712,0.51742 -1.118721,0.77979 z m -18.86667,41.30866 c 0.216542,-0.1531 0.332005,-0.71423 0.389748,-1.52321 0.02877,-0.68509 0.07219,-1.55235 0.122714,-2.51438 -0.0073,-0.25517 -0.02877,-0.48829 -0.07219,-0.67049 0.03606,0.0947 0.07219,0.1457 0.101041,0.19673 0.02148,-0.40082 0.05052,-0.80897 0.0794,-1.22441 -0.259812,0.0877 -0.07219,-1.52317 0.288696,-3.68772 0.09383,-0.481 0.216542,-0.99118 0.339217,-1.51593 0.15156,-0.911 0.368102,-1.70541 0.599059,-2.35404 0.04331,-0.18232 0.09383,-0.36424 0.137137,-0.5466 0.02148,-0.0803 0.04331,-0.1605 0.07219,-0.24036 -0.433053,0.40086 0.324793,-1.26084 0.555751,-2.38318 -0.209292,0.53931 -0.418619,1.07135 -0.606275,1.58152 -0.332005,0.93286 -0.555751,1.84387 -0.801147,2.71845 -0.216542,0.8454 -0.440273,1.66894 -0.599056,2.47063 -0.02877,0.21855 -0.05773,0.42272 -0.08662,0.64863 -0.0073,0 -0.0073,-0.008 -0.01458,-0.0156 -0.10104,0.64135 -0.20208,1.27541 -0.281485,1.90947 -0.09383,0.81626 -0.216542,1.62523 -0.252601,2.45607 -0.02148,0.83083 -0.03606,1.66894 -0.02877,2.54352 -0.02148,0.69234 0.0073,1.41386 0.05773,2.14999 z m 25.528464,40.75474 c -0.73619,-0.28438 -2.057,-1.39932 -2.39622,-1.13695 0.44748,0.3062 0.4114,0.5685 0.81558,0.87458 0.0938,-0.51018 1.32081,0.53932 1.58064,0.26257 z m 60.99548,-28.60556 c 0.10818,-0.5466 0.10818,-1.1661 0.0648,-1.31916 -0.23093,0.72152 -0.44029,1.45033 -0.75784,2.13542 0.32491,0.16751 0.58461,-0.26958 0.69286,-0.81626 z m 3.13965,-9.70039 c 0.0794,0.911 -0.0506,1.5742 -0.18029,2.17184 -0.15153,0.59759 -0.26699,1.12963 -0.094,1.84386 0.023,-0.61221 0.35368,-1.54507 0.4764,-2.3759 0.13004,-0.83083 0.16609,-1.53778 -0.20216,-1.6398 z m -12.7101,9.72953 c 0.34643,-1.32644 1.71056,-2.38318 1.37133,-3.31608 -0.36089,0.85272 -1.45794,2.37593 -1.37133,3.31608 z m 2.14361,-5.76486 c -0.0505,0.66323 -0.9888,1.99692 -0.28148,2.07709 -0.18045,-0.87454 0.82279,-1.71998 0.28148,-2.07709 z m 9.74371,19.69229 c 0.54129,-0.85997 1.30634,-1.82929 1.99203,-2.82047 0.67122,-0.99118 1.17646,-2.0552 1.36411,-2.95164 -0.54129,0.94015 -1.21255,2.1281 -1.94872,3.13384 -0.70732,1.03493 -1.29196,1.98236 -1.40742,2.63827 z m -23.11061,17.57149 c -0.12271,-0.18933 -0.2526,-0.32801 -0.83724,-0.0584 l 0.18766,0.4956 c 0.90942,-0.29139 1.73222,-0.69237 1.63838,-1.06406 -0.49079,0.20413 -0.7434,0.41543 -0.9888,0.62677 z m 24.2726,-26.90744 c 0.3322,-1.09324 1.29197,-2.82051 1.27754,-3.62948 0.46911,-1.23166 0.80836,-2.3759 0.64234,-2.81319 -0.2455,0.79441 -0.67843,1.96779 -1.08984,3.12659 -0.41862,1.15153 -0.93829,2.25202 -1.11873,3.02453 0.18758,-0.4154 0.46193,-0.94014 0.75063,-1.51589 0.10088,-0.18933 0.19486,-0.39358 0.29575,-0.59035 -0.40416,0.94015 -0.84446,1.90947 -0.75784,2.39779 z m -10.63865,6.6904 c -0.52689,0.53203 -0.88776,0.99117 -1.13315,1.31915 -0.25982,0.32062 -0.36811,0.53203 -0.34643,0.5976 0.0288,0.12388 0.64236,-0.34243 1.4796,-1.91675 z m -1.00324,4.86842 c 1.16203,-1.43575 2.69215,-3.25775 4.10679,-5.18179 -0.10826,0.008 -0.2093,0.0234 -0.33922,0.20413 -0.0794,-0.85268 1.05376,-1.04217 1.4796,-1.85114 0,0.008 0,0.0156 0.007,0.0234 0.49079,-0.73609 0.95993,-1.47218 1.35688,-2.20098 -0.12276,0.58303 -0.59904,1.392 -1.16201,2.23012 -0.0577,0.0876 -0.1155,0.16751 -0.17323,0.25517 -0.0288,0.12388 -0.1155,0.24036 -0.22375,0.33541 -0.4475,0.64863 -0.90942,1.27541 -1.29195,1.80744 l -1.78995,2.26658 c -0.62793,0.72881 -1.30638,1.41386 -1.97039,2.11353 z m 4.28723,-5.42231 c 0.10825,-0.1531 0.21654,-0.3062 0.32479,-0.45914 -0.27427,0.16751 -0.48358,0.3062 -0.32479,0.45914 z m -38.59223,22.64397 c -0.70732,-0.0156 -1.0249,-0.0728 -1.01046,-0.18232 0.49079,0.0803 1.01046,0.1531 1.55177,0.23336 -0.0577,0.051 -0.12992,0.0873 -0.18044,0.1531 1.29194,0.051 2.72823,0.18231 4.24391,0.1605 1.51569,0.0156 3.11799,0.0654 4.69141,-0.0947 1.58064,-0.11648 3.16128,-0.24776 4.59758,-0.59763 1.44351,-0.32062 2.80763,-0.61949 3.9047,-1.13692 -1.11873,0.18232 -2.3024,0.37905 -3.50051,0.56846 0.83724,-0.17492 1.71777,-0.37165 2.61996,-0.62678 1.47239,-0.38645 3.02416,-0.75065 4.51097,-1.31915 1.49404,-0.52471 2.98807,-1.07131 4.28723,-1.77826 1.31359,-0.68509 2.54779,-1.33372 3.47885,-2.12084 -4.04182,1.83661 -8.85592,4.09591 -12.91941,4.79553 0.25982,-0.11648 0.70011,-0.21114 0.6568,-0.38645 -0.54853,0.45186 -1.48681,0.6851 -2.3457,0.83083 -0.78671,0.1457 -1.47238,0.32802 -1.73221,0.80898 -0.26706,0.0351 -0.5341,0.0729 -0.80115,0.10947 0.10825,-0.0273 0.21654,-0.0654 0.31758,-0.0947 -1.06098,0.25517 -1.26307,0.19674 -0.78671,-0.21114 -1.01046,0.32801 -2.21579,0.45186 -3.49329,0.59031 -0.63514,0.0654 -1.29195,0.11648 -1.95596,0.1605 -0.16602,0.008 -0.33921,0.008 -0.50522,0.008 -0.52689,-0.008 -1.04655,-0.0351 -1.55178,-0.0803 0.28149,-0.0436 0.72897,-0.0234 0.73619,-0.19673 -0.64958,0.2914 -1.61673,0.27698 -2.48284,0.18933 -0.38975,-0.0273 -0.75784,-0.0436 -1.07541,-0.0156 -0.29591,-0.0156 -0.61349,-0.0234 -0.89498,-0.051 -0.39696,-0.0351 -0.7795,-0.0654 -1.15481,-0.0947 0.0215,-0.0156 0.0433,-0.0234 0.0722,-0.0351 -0.2093,0.008 -0.43306,0 -0.64959,-0.008 -0.15877,-0.008 -0.31037,-0.0156 -0.46192,-0.0273 -0.76506,-0.0584 -1.57342,-0.18232 -2.41066,-0.3136 -0.63514,-0.10207 -1.2775,-0.22595 -1.92708,-0.35724 -0.64958,-0.13128 -1.28473,-0.34243 -1.91987,-0.51742 -0.007,0 -0.0146,-0.008 -0.0215,-0.008 0.14435,-0.0273 0.29591,-0.0873 0.3681,-0.1605 -1.42908,-0.33542 -2.82206,-0.83812 -4.22949,-1.28998 -0.88054,0.0729 2.53336,0.95471 3.47165,1.28998 0,0.0234 0.0288,0.0273 0.0361,0.051 -1.13315,-0.33542 -2.25187,-0.64135 -3.24067,-1.01303 -1.10429,-0.40811 -2.10752,-0.76523 -2.94476,-0.99847 0.85167,0.40087 1.9343,0.88915 3.13963,1.40662 1.21976,0.47371 2.5911,0.88915 3.96243,1.30454 0.68567,0.21855 1.37855,0.37905 2.07866,0.49561 0.69288,0.13128 1.37133,0.24777 2.02091,0.34243 0.64958,0.0873 1.27029,0.18933 1.84769,0.21154 0.59184,0.0351 1.12594,0.0273 1.6023,0.008 z m 43.13208,-24.10158 c -0.44029,0.70695 -1.16204,1.72727 -1.85493,2.73302 -0.70011,1.00574 -1.47959,1.93132 -1.85491,2.63098 0.2887,-0.34983 0.68567,-0.78708 1.11149,-1.26812 0.4403,-0.47371 0.88056,-0.99846 1.25587,-1.54506 0.77226,-1.06407 1.393,-2.08439 1.34248,-2.55082 z m -46.69033,25.23121 c 0.5341,0.0654 1.08263,0.11648 1.60951,0.13869 0.5341,-0.008 1.03933,-0.0273 1.47238,-0.051 -0.54132,0.0156 -1.09707,-0.0156 -1.63116,-0.10206 -0.5341,-0.10207 -1.06098,-0.22595 -1.55899,-0.34243 -0.98881,-0.23335 -1.85491,-0.44458 -2.47562,-0.37905 0.53409,0.37165 1.51568,0.60492 2.58388,0.73609 z m 52.48602,-43.93232 c -0.43309,1.25355 0.0506,0.46642 0,0 z m -77.725789,30.74098 c -0.64236,-0.46643 -1.623949,-1.88762 -2.020913,-1.72727 0.353641,0.4154 0.245389,0.65592 0.562971,1.05674 0.223753,-0.45914 1.140371,0.87458 1.457942,0.67053 z m 62.698839,-25.70497 c -0.16602,0.75799 -0.98159,1.93136 -0.72897,2.41236 0.52688,-0.76522 0.8228,-1.52321 0.72897,-2.41236 z M 35.582526,2.9746239 c 0.46193,-0.12388 0.90942,-0.24776 1.32803,-0.35723 0.83724,-0.24777 1.55899,-0.50286 2.04257,-0.81626 -1.6456,0.48832 -3.60877,0.88915 -4.75636,1.61795 0.46914,-0.1531 0.93106,-0.2988 1.38576,-0.44457 z m 61.84716,38.1529401 c 0.59907,0.32801 1.19814,0.6122 1.66007,1.31183 -0.0345,-1.24623 -0.43309,-1.40658 -0.62075,-2.33215 -0.54854,0.0729 -0.91661,0.37905 -1.03932,1.02032 z M 49.346386,1.4735439 c -1.19811,-0.0234 -3.06745,-0.63406 -4.21504,-0.0351 0.28148,0.64134 3.54382,0.6122 4.21504,0.0351 z m 42.85059,61.6568801 c 0.55575,-0.48833 1.55898,-3.03185 1.31359,-4.07402 -0.49077,1.11506 -1.50846,3.30875 -1.31359,4.07402 z M 71.128956,6.9031439 c 0.77949,0.37905 1.51568,0.73609 2.23021,1.07863 0.70011,0.37165 1.40021,0.72148 2.10031,1.05675 -0.73618,-0.45915 -1.53012,-0.94743 -2.3457,-1.44304 -0.83724,-0.45186 -1.69612,-0.911 -2.54057,-1.37015 -1.67447,-0.93286 -3.39947,-1.53049 -4.77802,-1.85115 1.03211,0.45915 1.98482,0.88187 2.87259,1.28269 0.88054,0.44458 1.69612,0.85997 2.46118,1.24627 z m -24.09218,-6.42806 c 1.01768,-0.0947 2.02092,-0.22595 3.0025,-0.28439 0.98881,-0.0436 1.94152,-0.0873 2.87259,-0.13128 -1.08986,-0.0351 -2.18692,-0.0654 -3.26233,-0.0584 -1.07541,0.0584 -2.1364,0.1457 -3.16851,0.24777 -0.51244,0.0584 -1.01767,0.11648 -1.51568,0.17492 -0.49801,0.0803 -0.97437,0.18933 -1.45073,0.29139 -0.93828,0.21154 -1.83326,0.45186 -2.65605,0.71424 2.06421,-0.39355 4.13565,-0.79437 6.17821,-0.95472 z"
            style="fill:url(#linearGradient4943);fill-opacity:1;fill-rule:nonzero;stroke:none;stroke-width:0.725271"
            id="path4945" />
        <path
            d="m 49.547908,73.219121 c 12.624839,0 22.855317,-10.389671 22.855317,-23.210943 0,-12.821273 -10.230478,-23.21091 -22.855317,-23.21091 -12.624839,0 -22.855313,10.389637 -22.855313,23.21091 0,12.821272 10.230474,23.210943 22.855313,23.210943 z m -9.849552,-13.650244 1.142767,-2.542163 c 0.163251,-0.331582 0.380922,-0.552636 0.707427,-0.663164 0.108834,-0.05525 0.272085,-0.05525 0.380923,-0.05525 0.217668,0 0.380922,0.05525 0.59859,0.165775 1.68694,0.939499 4.026887,1.492135 6.14917,1.492135 2.503198,0 4.353393,-1.050026 4.353393,-2.486882 0,-0.939499 -0.544174,-2.044772 -4.40781,-3.315853 -4.244559,-1.326329 -8.543535,-3.315821 -8.543535,-7.736948 0,-3.371134 2.394365,-5.968543 6.421255,-7.01857 l 0.598591,-0.165774 v -2.763217 c 0,-0.663164 0.544173,-1.215801 1.197184,-1.215801 h 2.88412 c 0.653011,0 1.197184,0.552637 1.197184,1.215801 v 2.486882 l 0.707428,0.110527 c 1.741357,0.221055 3.265042,0.663197 4.625477,1.326361 0.272089,0.165775 0.544177,0.38683 0.653011,0.718412 0.108837,0.331582 0.108837,0.663197 -0.05442,0.939499 l -1.142767,2.431635 c -0.217671,0.442109 -0.653011,0.718411 -1.088347,0.718411 -0.163254,0 -0.326505,-0.05525 -0.489759,-0.110527 -0.761845,-0.331583 -2.557619,-1.160554 -5.387326,-1.160554 -2.557618,0 -3.700382,0.994779 -3.700382,2.044772 0,1.105307 1.197184,1.878998 4.951986,3.15008 3.972471,1.326328 8.053775,3.31582 8.053775,8.12381 0,2.597409 -1.795774,6.079037 -6.747757,7.350118 l -0.65301,0.110528 v 2.873744 c 0,0.663164 -0.544174,1.215801 -1.197181,1.215801 h -2.938544 c -0.653007,0 -1.197181,-0.552637 -1.197181,-1.215801 v -2.65269 l -0.707427,-0.05525 c -2.231113,-0.276335 -4.353393,-0.884219 -5.768248,-1.71319 -0.653007,-0.331582 -0.870675,-0.994746 -0.59859,-1.602663 z"
            style="fill:#ffffff;fill-opacity:1;fill-rule:nonzero;stroke:none;stroke-width:0.54839" id="path5149" />
    </g>
</svg>