<?xml version="1.0" encoding="UTF-8" standalone="no"?>
<svg xmlns:dc="http://purl.org/dc/elements/1.1/" xmlns:cc="http://creativecommons.org/ns#"
    xmlns:rdf="http://www.w3.org/1999/02/22-rdf-syntax-ns#" xmlns:svg="http://www.w3.org/2000/svg"
    xmlns="http://www.w3.org/2000/svg" version="1.1" id="svg885" xml:space="preserve" width="100" height="100"
    viewBox="0 0 100 100">
    <defs>
        <linearGradient x1="-0.39899999" y1="68.556999" x2="137.05499" y2="68.556999" gradientUnits="userSpaceOnUse"
            gradientTransform="matrix(-0.02627956,-0.17288931,-0.17121801,0.02653607,-51.269264,-337.82198)"
            spreadMethod="pad" id="linearGradient4979">
            <stop style="stop-opacity:1;stop-color:#181c3f" offset="0" id="stop4975" />
            <stop style="stop-opacity:1;stop-color:#203572" offset="1" id="stop4977" />
        </linearGradient>
    </defs>
    <g id="g8132" style="display:inline">
        <path
            d="m 76.947151,85.35182 c -0.50523,1.12237 -2.11477,1.46491 -3.33455,2.49982 -0.43305,0.22591 0.13714,-0.23324 0.95995,-0.82356 0.8228,-0.56847 1.8044,-1.39931 2.3746,-1.67626 z m 0.2887,5.18912 0.31037,0.43 c 0.80116,-0.51746 1.49405,-1.12237 1.30639,-1.45033 -0.41863,0.32798 -0.60628,0.59033 -0.78672,0.85999 -0.16602,-0.15306 -0.33201,-0.25509 -0.83003,0.16035 z m 12.61641,-26.25167 c 0.3248,-0.95474 0.58463,-1.85846 0.54854,-2.45608 -0.86611,3.54201 -2.82209,7.62333 -4.07074,10.42195 0.46192,-0.84541 0.9383,-1.68354 1.36413,-2.55082 l 1.1476,-2.66015 c 0.30313,-0.7944 0.69289,-1.80016 1.01047,-2.7549 z m -8.27861,-50.805199 c 0.89498,0.663214 1.64561,1.406599 2.39625,2.084387 0.73619,0.69237 1.46517,1.348296 2.10755,2.0188 1.25586,1.377448 2.46841,2.616415 3.52219,3.862683 0.0215,0.02922 0.0505,0.05832 0.0721,0.08746 0.23097,0.619486 0.35369,1.209828 0.3248,1.756433 0.6929,0.874564 1.227,1.785572 1.77554,2.638285 0.5341,0.867283 1.0682,1.683544 1.52292,2.499813 0.0146,0.02182 0.0215,0.04375 0.0288,0.05832 -0.007,0.08746 -0.0215,0.167631 -0.0146,0.26966 0.0577,0.01441 0.12272,0.02922 0.18045,0.04371 0.79394,1.515924 1.56623,2.915231 2.21581,4.278104 0.67847,1.486769 1.41467,2.871506 2.09312,4.248953 0.6568,1.384737 1.38578,2.733029 2.20137,4.110476 -0.51245,-1.406599 -1.11151,-3.060991 -1.75387,-4.846575 -0.75063,-1.727273 -1.44353,-3.607597 -2.28078,-5.429617 -0.2526,-0.524743 -0.49079,-1.05677 -0.7362,-1.588801 0.007,0 0.007,0.0074 0.0146,0.0074 -0.15157,-0.50288 -0.31038,-0.801688 -0.48359,-1.049485 -0.41862,-0.918301 -0.83724,-1.822016 -1.28473,-2.682011 0.76507,0.852706 1.55901,1.698122 2.41068,2.53625 -0.85167,-1.224398 -1.85493,-2.667437 -2.93757,-4.219798 -0.22376,-0.276944 -0.44028,-0.568467 -0.66403,-0.85999 0,0 0,-0.0074 0,-0.0074 -0.37531,-0.801691 -0.75785,-1.559649 -1.06099,-2.295744 -0.83725,-0.145777 0.56298,1.078636 0.28149,1.275411 -0.40419,-0.539316 -0.80838,-1.078644 -1.23422,-1.610663 -0.79394,-1.093214 -1.56622,-2.142702 -2.39625,-3.082866 -0.59906,-0.714233 -1.19091,-1.39931 -1.77553,-2.047944 -0.18766,-0.196771 -0.38253,-0.378973 -0.57741,-0.561182 -0.60629,-0.699655 -1.19091,-1.39931 -1.73224,-2.077103 -0.57019,-0.677792 -1.13316,-1.311856 -1.61675,-1.945915 -0.88055,0.08017 0.96716,0.969311 0.5702,1.187957 -1.64562,-1.311856 -3.12523,-2.594556 -4.67703,-3.622178 -0.75785,-0.532035 -1.50848,-1.042196 -2.24468,-1.51592 -0.75064,-0.45187 -1.52292,-0.838128 -2.27356,-1.20982 1.7178,1.377447 3.53664,2.660148 5.09565,3.877256 1.54459,1.23896 2.67776,2.550816 2.93038,3.811654 z M 56.456301,2.019921 c 0.95273,0.204056 1.8405,0.386258 2.68496,0.568467 0.85168,0.160347 1.65284,0.31337 2.43234,0.459151 0.77229,0.174916 1.53736,0.335263 2.30243,0.466435 -0.83003,-0.247805 -1.72501,-0.510164 -2.63444,-0.787109 -0.92385,-0.218627 -1.87658,-0.437292 -2.80043,-0.655922 -1.85493,-0.459155 -3.68099,-0.590335 -5.08843,-0.539324 1.11873,0.174916 2.14363,0.335263 3.10357,0.488302 z m 39.4299,65.352209 c 0.30316,-0.96932 0.79395,-2.10625 1.19813,-3.2432 0.39697,-1.13694 0.60628,-2.29574 0.56297,-3.20675 -0.28149,1.04948 -0.62793,2.36862 -1.07543,3.53472 -0.42583,1.18067 -0.75063,2.25202 -0.68567,2.91523 z M 37.055317,1.611788 c 0.93829,-0.2988 1.85493,-0.597631 2.73548,-0.88186396 -1.068205,0.247805 -2.129199,0.51016396 -3.168538,0.79439796 -1.0249,0.342548 -2.028154,0.699663 -2.995314,1.071347 -0.483582,0.189487 -0.952725,0.378974 -1.421872,0.568472 -0.454712,0.204056 -0.894989,0.437292 -1.320828,0.663215 -0.85168,0.451861 -1.65284,0.918297 -2.381817,1.384736 1.891016,-0.925594 3.789255,-1.858468 5.723579,-2.536253 0.959945,-0.357119 1.898239,-0.750673 2.82931,-1.064051 z M 24.994662,7.383946 c 0.750635,-0.459147 1.378567,-0.896435 1.761101,-1.326437 -1.465178,0.896434 -3.255148,1.800153 -4.179008,2.805909 0.411407,-0.262375 0.822811,-0.532027 1.226998,-0.78711 0.411407,-0.240481 0.815591,-0.47372 1.190909,-0.692362 z M 77.308031,66.07485 c -0.22376,0.27695 -0.55575,0.77254 -0.90942,1.36287 -0.35368,0.59763 -0.82281,1.23169 -1.1837,1.91677 0.10105,0.18948 0.17324,0.50288 0.14435,0.10203 0.27428,-0.6778 0.99603,-1.29 1.21978,-1.52321 -0.39697,0.53931 -0.87333,1.10778 -0.4114,1.28999 0.007,-0.16035 0.0577,-0.2988 0.12271,-0.43729 0.0215,0.0437 0.0361,0.0802 0.0794,0.12389 0.15156,0.0292 0.49801,-0.32798 0.75785,-0.75067 0.23818,-0.43 0.4114,-0.90373 0.31758,-1.02034 -0.0722,0.1822 -0.23096,0.35712 -0.4114,0.53203 0.0505,-0.13117 0.0433,-0.25509 -0.065,-0.37169 -0.0505,0.15306 -0.17323,0.33527 -0.30316,0.51746 1.11151,-2.00423 1.08986,-2.29575 0.64236,-1.74186 z m 4.81415,-0.84541 c 0.3609,-0.80898 1.09708,-1.69084 0.52689,-2.24473 -0.33201,0.93287 -0.64237,1.69812 -0.52689,2.24473 z m -26.07007,34.36329 c 0.51245,-0.14578 0.99603,-0.2988 1.40744,-0.43728 -0.51967,0.15306 -1.06099,0.27694 -1.60231,0.33526 -0.54132,0.0437 -1.08265,0.0583 -1.58788,0.0729 -1.01769,0.0292 -1.90545,0.051 -2.49008,0.28423 0.60628,0.21134 1.61675,0.1822 2.68496,0.0366 0.52688,-0.0729 1.0682,-0.17492 1.58787,-0.29152 z M 85.103071,69.5294 c 0.0649,0.10931 0.54132,-0.50288 0.93829,-2.23744 -0.37532,0.64864 -0.60629,1.18796 -0.75785,1.57423 -0.15878,0.37168 -0.21655,0.6122 -0.18045,0.66321 z m -7.77339,10.71348 c 0.64237,-0.93287 1.56622,-1.94592 1.67449,-2.79862 -0.48358,0.60491 -1.26308,1.33372 -1.81883,1.85846 -0.55576,0.53202 -0.89499,0.87457 -0.56298,0.64135 0.87333,-0.93288 0.12268,0.22595 0.70732,0.2988 z m 6.22881,-8.10435 c -1.03212,0.7361 -1.19812,2.17914 -2.33129,3.43998 1.1043,-0.0656 1.75388,-2.90794 2.33129,-3.43998 z M 26.019566,92.20991 c -0.245391,0.0874 -0.728977,0.051 -0.671237,-0.21134 -0.664021,-0.45916 -2.836529,-1.7127 -3.139668,-2.06253 -0.79394,-0.51017 -1.573446,-1.01305 -2.324077,-1.52321 -1.342478,-0.98389 -2.728265,-1.85117 -4.034654,-2.71845 0.555758,0.15306 1.08986,0.22591 1.847711,0.73609 -0.606278,-0.6122 -1.183689,-1.20253 -1.746666,-1.79287 -0.433057,-0.40813 -0.858895,-0.81626 -1.270303,-1.23168 -1.198124,-1.31186 -2.374597,-2.58727 -3.471676,-3.8554 -1.046555,-1.30456 -2.165289,-2.49981 -3.197408,-3.68048 0.498013,0.29152 0.99603,0.50288 1.595096,1.19525 C 9.563374,76.98509 9.520064,76.91223 9.476757,76.83205 7.268164,73.7492 5.608108,70.55701 4.366675,67.0223 4.020243,67.2045 4.352095,68.03534 4.734781,68.89534 4.706011,69.42736 4.395561,68.60382 4.04189,67.62721 3.673784,66.66518 3.399523,65.49909 3.118034,65.45536 3.543877,65.53556 3.558312,64.8796 3.349002,63.80097 3.233537,63.29809 3.103611,62.68589 2.966473,62.01539 2.324102,59.66134 1.898264,57.29271 1.703389,54.82934 c -0.259853,0.0583 -0.2887,0.51017 -0.230967,1.08592 0.02877,0.19677 0.05052,0.38626 0.07941,0.59034 0.01458,0.0729 0.02148,0.14578 0.03606,0.22591 C 1.486851,57.0376 1.414657,56.83354 1.356924,56.39625 1.010492,55.95168 1.183689,54.209825 0.707338,52.774075 0.404215,53.131193 0.483582,54.122371 0.324809,54.71271 -0.505221,52.613736 1.118745,51.884929 0.887781,49.363254 0.649602,49.603774 0.548561,50.164941 0.526887,50.879178 0.34644,50.631372 0.34644,49.997317 0,50.113927 0.115465,47.264284 0.490798,44.400072 1.111514,41.565011 1.060994,41.681609 1.010473,41.790923 0.959952,41.885705 0.837238,40.858083 1.147611,40.245886 1.551795,39.640974 1.710569,39.021489 1.898227,38.409288 2.078682,37.797091 2.064102,37.563856 2.042622,37.345226 1.818867,37.352518 c 2.064244,-6.68317 5.62975,-13.060239 10.422254,-18.489856 1.234214,-1.392033 2.547826,-2.718463 3.933609,-3.979293 0.902204,-0.874572 1.82606,-1.727285 2.786004,-2.550827 0.252603,-0.145777 0.526888,-0.320694 0.793941,-0.488302 0.505232,-0.823554 2.490081,-1.771006 3.529421,-2.594556 -0.07941,0.145777 -0.230968,0.306085 -0.418623,0.459146 2.208593,-1.450328 4.525451,-2.754891 6.950573,-3.899123 0.281488,-0.07289 0.591847,-0.174916 0.88777,-0.262375 0.649586,-0.6122 2.533386,-0.99847 3.774819,-1.464898 -0.844464,0.211341 -1.64562,0.26966 -1.847714,0.01441 C 33.583646,3.222276 35.55406,3.324308 36.716099,3.032778 36.470707,3.389896 35.590146,3.783451 34.70238,4.031244 34.096098,4.570565 32.270038,4.92039 31.028605,5.45971 31.136858,5.42309 31.230687,5.40139 31.338979,5.36497 31.880301,5.219193 32.457712,5.058885 33.056774,4.898534 34.254902,4.59245 35.51077,4.125999 36.889338,3.84905 c 1.371348,-0.291515 2.786005,-0.677785 4.258403,-0.881865 1.4724,-0.189486 2.95923,-0.429995 4.43884,-0.488302 1.17647,-0.07289 2.35295,-0.09474 3.52942,-0.07289 0.007,0 0.0215,0 0.0288,0 0.0433,0 0.0866,0 0.12268,0 0.15156,0 0.31037,0 0.46193,0.0074 5.08121,0.02182 10.19129,0.721529 15.09206,2.346762 10.15521,3.286923 19.4515,9.940941 25.55041,19.437309 -0.17324,-0.01441 -0.35365,-0.109313 -0.55576,-0.306084 1.44352,2.106254 2.72826,4.336407 3.82534,6.683169 0.38253,0.6705 0.76507,1.341004 1.1404,1.996934 0.27427,0.502879 0.55575,0.991177 0.79393,1.501342 0.22376,0.510161 0.44028,1.027622 0.64237,1.545076 -0.41862,-0.349834 -0.77229,-1.05677 -1.16204,-1.814732 -0.0577,-0.102028 -0.10825,-0.204057 -0.16598,-0.306085 0.31033,0.80898 0.60627,1.617956 0.87333,2.448799 -0.25981,-0.09474 -0.49801,-0.357118 -0.69289,-0.991182 0.007,0.04371 0.0215,0.08746 0.0361,0.131168 0.10104,0.291515 0.2093,0.58305 0.30316,0.889146 0.2887,0.867283 0.58462,1.756429 0.87333,2.616419 0.23818,0.874568 0.43307,1.727277 0.59908,2.485235 -0.31759,-0.808976 -0.59186,-1.712695 -0.92386,-2.667437 0.31758,1.166091 0.66402,2.303034 1.03934,3.432684 0.29591,1.129654 0.59185,2.244731 0.88055,3.337941 0.12992,0.553897 0.28149,1.100502 0.37532,1.654392 0.0866,0.553898 0.16598,1.107784 0.22375,1.654393 -0.31758,-0.451862 -0.47636,-1.217109 -0.6568,-2.062529 -0.20929,-0.838132 -0.39697,-1.756429 -0.64237,-2.507102 0.0577,1.173383 0.33922,2.871505 0.42584,4.70081 0.0577,0.911009 0.11546,1.851172 0.17324,2.754892 0.007,0.903723 -0.0215,1.778295 -0.0577,2.558116 -0.13713,-1.17338 -0.15156,-2.499809 -0.30312,-3.93556 -0.14435,-1.428466 -0.13714,-2.966248 -0.38975,-4.518609 -0.46914,1.224398 -0.68567,3.002693 -0.81559,4.766406 -0.0361,0.437284 -0.0722,0.881857 -0.10826,1.311856 -0.0722,0.429995 -0.13713,0.845421 -0.20208,1.24626 -0.14435,0.801688 -0.31758,1.515924 -0.55576,2.077098 0.12993,-0.30608 -0.0794,-0.400839 -0.35368,-0.29151 0.0361,0.91829 -0.3248,2.45608 -0.36089,3.43997 -0.26703,-0.56847 0.0938,-2.1427 0.21654,-3.35981 -0.23097,0.14578 -0.47636,0.41542 -0.60627,0.83813 -0.0288,0.0729 -0.0505,0.13846 -0.0722,0.20406 -0.007,-0.0947 -0.0433,-0.17492 -0.10825,-0.21863 0.15877,0.10932 -1.08264,1.50135 -0.9022,0.25509 -0.34644,1.51592 -0.77951,2.91524 -1.227,4.22709 -0.51245,1.28999 -1.1043,2.48523 -1.68171,3.63675 0.27428,-1.28999 1.3497,-3.35981 1.78998,-5.48792 0.56298,-2.09897 0.56298,-4.161493 -0.46194,-4.934028 -0.64958,0.750673 -1.24142,1.515918 -1.7683,2.558108 -0.58463,1.03491 -0.97438,2.38321 -1.33527,4.29997 -0.34647,0.0948 -0.75063,-0.0144 -1.01769,0.40085 -0.27428,-0.10932 0.54132,-1.20983 0.47637,-2.1427 -0.0577,-0.33526 -0.34647,-0.39356 -0.18766,-0.99118 -0.0938,0.0218 -0.18044,0.0802 -0.25981,0.13845 -0.0722,0.67051 -0.18045,1.5888 -0.20208,2.23745 -0.31759,0.0437 -0.27428,-0.31337 -0.21655,-0.68508 -0.38975,1.08592 -0.53409,1.90947 -0.75063,2.7476 -0.18766,0.84542 -0.3248,1.74186 -0.6929,2.94439 -0.29591,-0.26966 -0.48357,0.28423 -0.68566,0.72152 0.24539,-1.1005 0.58462,-2.67473 1.14038,-4.25624 0.28149,-0.78711 0.46193,-1.62524 0.72177,-2.39778 0.10104,-0.34255 0.21654,-0.67779 0.332,-1.00576 -0.23096,0.27695 -0.44027,0.6122 -0.68567,0.86 -0.15156,-0.68508 1.54457,-2.41236 0.10104,-2.74032 -0.50524,-0.0292 -0.51967,1.18067 -0.6929,2.00422 -0.37531,-0.1166 -0.24539,-0.80168 -0.10104,-1.5232 -0.54132,0.0729 -0.93107,0.34983 -1.20534,0.29151 -0.0722,0.51017 -0.20208,0.97661 -0.29591,1.14423 -0.12993,-0.0802 -0.11547,-0.31337 -0.2887,-0.34983 -0.77229,3.59302 -0.2887,-0.1166 0.23097,-1.31185 0,-0.007 -0.007,-0.0144 -0.007,-0.0292 -0.60628,0.65592 -0.87333,1.04948 -1.09707,1.4649 -0.2093,0.41542 -0.41863,0.84542 -0.93108,1.50135 -0.12993,-0.24052 0.0215,-0.67051 0.20208,-1.12237 0.15878,-0.45915 0.37532,-0.93287 0.46915,-1.2244 -0.12271,-0.30608 -0.2526,-0.60491 -0.38975,-0.88915 -0.62794,0.40085 -0.16603,2.1427 -0.59185,2.33219 -0.23818,-0.0802 -0.47637,-0.15306 -0.58463,0.13846 -0.15156,-0.66322 0.79394,-1.57423 0.87334,-2.78405 -0.24539,0.0218 -0.50524,1.02762 -0.34643,-0.051 -0.39698,0.29879 -0.35365,1.56693 -0.69289,1.99693 -0.065,-0.60491 -0.0215,-1.8949 0.11546,-2.85693 -0.44027,-0.233225 -0.42584,0.47373 -0.64237,0.68509 -0.12271,0.53931 0.007,0.81626 0.39697,0.83812 -0.66401,0.81627 -1.25586,0.87458 -1.58066,1.73457 -0.57019,0.31337 -0.0649,-1.12237 -0.45471,-0.35712 -0.2887,-0.43 -0.11546,-1.45762 0.1155,-2.5071 0.0577,-0.26237 0.10826,-0.524734 0.15878,-0.779816 0.0288,-0.25509 0.0433,-0.502876 0.0505,-0.736096 0.007,-0.342548 -0.007,-0.634063 -0.0794,-0.852705 -0.0577,0.881857 -0.15877,1.756425 -0.2887,2.638277 -0.0146,0.0947 -0.0288,0.19677 -0.0433,0.29151 -0.0433,0.26966 -0.0938,0.53203 -0.14435,0.80169 -0.0505,0.26966 -0.10104,0.53932 -0.15156,0.80898 -0.0215,0.0947 -0.0433,0.1822 -0.0649,0.27694 -0.44028,1.97507 -1.06822,3.87726 -1.86937,5.68471 -0.0215,0.0437 -0.0433,0.0875 -0.0577,0.13116 -0.18045,0.40085 -0.3681,0.80169 -0.56297,1.18796 -0.0649,0.13117 -0.12993,0.25509 -0.19487,0.37897 -0.15156,0.2988 -0.31038,0.59763 -0.47636,0.88915 -0.11547,0.20406 -0.23097,0.40084 -0.35365,0.60491 -0.12271,0.20406 -0.24539,0.41542 -0.3681,0.61949 -0.0433,0.0729 -0.0866,0.14577 -0.12993,0.21134 0.0722,0.051 0.24539,-0.15306 0.51245,-0.66322 0.21654,0.58305 -0.87333,1.44304 -1.18369,1.80016 0.84446,0.77982 1.09707,-0.9766 1.66727,-1.21711 -0.21654,1.21711 -1.393,2.05524 -1.66006,3.04642 0.27428,-0.22595 0.9383,-1.02762 1.56623,-1.93863 -0.21655,0.53203 -0.35369,1.21711 -0.5702,1.87304 -0.0505,0.15306 -0.10825,0.30608 -0.18044,0.44457 0.38253,-0.40813 0.76507,-0.78712 1.00325,-1.08593 0.007,0.0875 -0.0146,0.17492 -0.0288,0.26238 0.0288,-0.0144 0.0505,-0.0437 0.0794,-0.0583 -0.0361,1.38474 -1.85493,2.17185 -2.31686,3.79709 0.48358,0.13845 0.48358,-1.1005 1.14038,-1.09321 -0.20929,-0.13846 0.15878,-0.6122 0.65682,-1.1005 0.50522,-0.4883 1.06099,-1.07864 1.38577,-1.31186 -0.75785,1.39931 -1.55901,2.29575 -2.30242,3.27964 -0.3609,0.50288 -0.7795,0.96932 -1.23422,1.48677 -0.44027,0.53203 -0.92385,1.11508 -1.47961,1.78558 1.36413,-1.31915 2.80044,-1.88032 4.40275,-3.64404 -1.26308,0.47373 0.35365,-0.69237 0.83725,-0.7361 -0.15877,-0.42271 0.24539,-1.07134 0.80116,-1.78558 0.13713,0.10203 -0.0794,0.35712 -0.16599,0.5539 2.28077,-2.28846 3.7676,-5.8086 5.35548,-9.94823 -0.13714,0.7288 -0.31037,1.45032 -0.49802,2.16456 -0.21655,0.70694 -0.51245,1.37745 -0.78672,2.04795 -0.0866,0.22591 -0.18766,0.43728 -0.28149,0.64864 0.26707,-0.45186 0.53411,-0.82356 0.70012,-0.85999 0.20929,-0.40814 0.0215,-0.51746 0.14435,-0.86 0.24539,-0.14578 0.16598,0.43729 -0.0288,1.12237 -0.18766,0.68507 -0.59907,1.41388 -0.78673,1.61066 -0.10104,-0.10931 -0.0288,-0.33526 -0.18765,-0.40813 -0.88055,1.72727 -0.89499,1.56694 -0.59907,0.88914 -0.30316,0.53932 -0.62071,1.05678 -0.92385,1.57423 -0.3248,0.58305 -0.71455,1.1005 -1.07543,1.61795 -0.15877,0.30609 -0.31037,0.6122 -0.48358,0.91101 -0.38975,0.61949 -0.84446,1.19525 -1.28474,1.77101 -0.2526,0.34983 -0.51967,0.6705 -0.80116,0.98389 -0.11546,0.18948 -0.23096,0.37168 -0.33201,0.56118 0.72899,-0.71423 1.40744,-1.37745 2.02095,-2.05524 0.20208,-0.37897 0.49079,-0.7944 0.8228,-1.27541 0.0433,0.0656 0.0577,0.13117 0.0722,0.19677 0.007,-0.007 0.0146,-0.0144 0.0215,-0.0292 0.41862,-0.53932 0.82281,-1.06406 1.22699,-1.5888 0.36811,-0.55389 0.70733,-1.12965 1.06821,-1.7127 1.4291,-2.33218 2.68496,-5.11623 3.7676,-9.19755 0.007,0.90372 -0.20929,1.85846 -0.50522,2.84235 -0.28149,0.98389 -0.6135,2.01151 -1.08265,2.98082 -0.81559,1.99694 -1.89823,3.8554 -2.51895,5.64827 -0.21654,0.16763 -0.24539,0.0656 -0.34643,-0.0292 -0.0433,0.0656 -0.0794,0.13845 -0.12272,0.20406 -0.52689,0.88185 -1.10429,1.77829 -1.81163,2.59455 -0.31758,0.42271 -0.64958,0.83084 -0.98881,1.23169 0.36811,-0.21863 0.76507,-0.35712 0.59184,-0.53203 0.6929,-0.53932 0.2093,0.64864 -0.15156,1.01304 0.40419,0.007 1.05377,-0.41542 0.54132,0.45915 0.37532,0.19677 0.89499,-0.46644 1.32083,-0.48101 0.0794,-0.25509 0.18045,-0.4883 0.41863,-0.83084 l 0.69289,-1.01304 c 0.43305,-0.80169 0.9455,-1.69813 1.54457,-2.58728 0.47637,-0.68507 0.8589,-1.45032 1.3136,-2.12812 0.42585,-0.69965 0.90221,-1.33372 1.26309,-1.92405 0.16602,-0.16034 -0.68567,1.79287 -1.03212,2.92981 -0.0794,-0.007 -0.12993,-0.0366 -0.15878,-0.0802 -0.46192,1.31914 -1.3136,2.51439 -2.61278,4.29268 -0.0433,0.0656 -0.0722,0.13117 -0.11546,0.19677 -0.007,-0.007 -0.0146,-0.007 -0.0146,-0.0144 -0.0361,0.051 -0.0649,0.0948 -0.10825,0.14578 0.0288,-0.0583 0.0505,-0.10931 0.0794,-0.16763 -0.15877,-0.16763 -0.35364,0.0144 -0.56297,0.26966 -0.62793,1.54508 -1.41466,2.64557 -2.2086,3.82624 -0.44749,0.56119 -0.90942,1.13695 -1.40743,1.77101 -0.49802,0.64135 -1.01769,1.36287 -1.67449,2.12812 -1.1476,-0.051 -1.99207,2.12083 -3.68099,2.9954 0.24539,-0.14578 1.16204,-0.40813 2.0065,-0.85271 0.41863,-0.2478 0.81559,-0.53203 1.1043,-0.84542 -0.18766,0.0875 -0.3681,0.13121 -0.54855,0.10203 0.36811,-0.24052 0.67847,-0.51017 0.95273,-0.78711 0.0215,-0.0947 0.0361,-0.1822 0.0288,-0.27695 0.16603,-0.0875 0.24539,-0.0875 0.2887,-0.051 0.62072,-0.6705 1.11152,-1.31915 1.86215,-1.59609 -0.43306,0.22591 -1.11151,1.28999 -1.82606,2.0188 0,0.0144 0.007,0.0292 0.007,0.0366 0.62072,-0.72151 0.70733,-0.86727 1.3497,-0.90371 0.31758,-0.40085 -0.41141,-0.0437 -0.007,-0.48831 0.51967,-0.19677 1.00325,-0.3644 2.09311,-1.20982 0.20929,-0.21134 0.42584,-0.40813 0.62793,-0.62677 -0.15156,-0.14578 -0.38975,0.0437 -0.64958,0.27694 1.31361,-1.26813 2.5406,-2.67473 3.69543,-4.19065 -0.13714,0.0802 -0.27428,0.0947 -0.38975,-0.0144 0.47636,-0.58304 0.86611,-1.23168 1.27751,-1.86575 0.007,0.15306 -0.14435,0.69966 -0.36811,1.18796 2.41069,-3.31608 4.44606,-7.17876 6.01229,-11.6172 0.51967,0.007 -0.67124,1.66897 -0.16599,1.69083 0.72898,-0.93287 1.20534,-3.46183 1.58066,-5.07979 -0.55576,-0.44457 -0.50523,1.2244 -0.76507,1.86575 -0.43306,0.74339 0.31038,-2.70387 0.62072,-2.90794 0.33922,0.56118 0.20933,1.7127 -0.0794,3.00997 -0.3681,1.27542 -0.90942,2.6893 -1.24143,3.87726 -0.0794,-0.21862 -0.15877,-0.42999 -0.39697,-0.49559 -0.0938,0.31337 -0.20929,0.62678 -0.33922,0.93288 0.36811,0.14577 0.40419,-0.0656 0.56298,0.94745 -0.0505,0.25509 -0.19487,0.39355 -0.35365,0.48101 -0.0577,0.15306 -0.1155,0.30609 -0.18766,0.46644 -0.332,0.76524 -0.89498,1.58151 -1.07542,2.17184 0.0146,-0.53931 0.15156,-0.94016 0.33922,-1.33372 -0.17324,0.0292 -0.31038,-0.0583 -0.67124,0.52475 0.12271,0.64135 -0.27428,1.66168 -0.85168,2.79133 -0.68568,1.13695 -1.57344,2.36134 -2.19416,3.41811 -0.0146,-0.14577 -0.0361,-0.28423 -0.0938,-0.40084 -0.18045,0.2478 -0.36089,0.49559 -0.54132,0.74338 0.15877,0.0948 0.19487,0.16763 0.11546,0.94017 -0.39696,0.80897 -1.52291,0.0218 -0.96715,0.94745 -0.67846,0.6705 -0.71455,0.37897 -0.9816,0.42999 -0.75786,0.96932 -1.43631,1.87304 -1.91989,2.59456 -0.0146,-0.10203 -0.0505,-0.15307 -0.0938,-0.17492 -0.65681,0.69965 -1.47963,1.50135 -2.44678,2.25202 -0.54854,0.44457 -1.1043,0.89643 -1.66727,1.34829 -0.007,0.007 -0.0146,0.0144 -0.0215,0.0144 0.18045,0.0437 0.40419,0.10202 0.13714,0.48101 0.20208,0.1166 0.4114,-0.0218 0.60628,-0.22591 -0.0288,0.0144 -0.0577,0.0366 -0.0938,0.0656 0.0577,-0.3644 0.31037,-0.5466 0.6135,-0.69237 0.12271,-0.1312 0.22375,-0.20405 0.30316,-0.1312 0.34643,-0.13846 0.71454,-0.28423 0.98159,-0.57576 0.0649,0.4883 -0.48358,0.63406 -0.89498,0.75796 0,0.007 0.007,0.007 0.007,0.0144 -0.16603,0.13846 -0.28149,0.25509 -0.38253,0.35712 0.0288,0.0292 0.0577,0.0656 0.10825,0.10931 -0.10825,0.0729 -0.18766,0.0802 -0.26706,0.0656 -0.31759,0.38626 -0.2454,0.53932 -0.54855,0.80898 -0.48359,0.19677 -0.83725,0.10203 -1.06099,-0.28423 -0.8589,0.58304 -0.97438,0.96931 -1.04656,1.4066 0.92386,-1.2827 0.23818,0.30608 1.46518,-0.83813 0.0505,0.20406 -0.44749,0.51745 -0.3248,0.69965 0.8589,-0.23323 2.20138,-1.61066 3.13967,-2.09167 -1.11874,1.04219 -2.54061,2.41964 -3.86143,3.39624 -1.29196,1.01305 -2.28799,1.90219 -2.35295,2.21558 0.0649,0.43728 -1.74667,0.6122 -0.48358,-0.13845 -0.51967,0.16034 -2.23025,1.80744 -3.87587,2.39049 0.50523,0.0437 1.11873,-0.10203 0.6135,0.51016 1.50848,-0.45915 1.05377,-0.51745 2.14363,-1.27541 -0.10104,0.21134 -0.19487,0.42999 -0.0722,0.64135 0.95273,-0.71423 0.45471,-0.75067 1.58067,-0.85271 -3.57272,2.20099 -8.34357,4.1542 -13.32374,5.27656 -2.42519,0.63406 -4.97302,0.88186 -7.40536,1.07864 -1.21256,0.0366 -2.41068,0.051 -3.55829,0.051 -1.15482,0.0218 -2.2519,-0.13845 -3.30567,-0.21134 -0.36811,0.26966 -0.80116,-0.0947 -1.32083,-0.3644 -0.46193,-0.0583 -0.90942,-0.13117 -1.36413,-0.20406 -0.0794,0.16763 0.46193,0.53932 -0.56297,0.27694 -0.34644,-0.20405 -0.894996,-0.41542 -1.559018,-0.63406 -0.108253,-0.0218 -0.216506,-0.0366 -0.324797,-0.0583 -1.183689,-0.28423 -2.338512,-0.58304 -3.450022,-0.88185 -1.118734,-0.27695 -2.143638,-0.72153 -3.139669,-1.07135 -0.461927,0.1822 -0.801155,-0.38626 -1.291957,-0.80169 -0.375318,-0.15306 -0.757851,-0.30609 -1.133165,-0.46644 -0.180447,0.10932 0.324797,0.67779 -0.627932,0.13846 -0.310373,-0.3207 -0.851684,-0.70695 -1.522921,-1.13694 -0.173235,-0.0875 -0.353682,-0.16764 -0.519671,-0.26238 -0.837246,-0.43728 -1.645617,-0.8527 -2.389037,-1.26813 -0.714546,-0.45186 -1.371348,-0.88185 -1.948759,-1.26812 1.934324,1.48677 3.883083,2.57998 5.774103,3.69506 1.97041,0.95473 3.897519,1.96778 6.084462,2.63828 -3.016965,-0.61949 -5.810186,-1.85846 -8.401316,-3.2432 z M 87.658101,67.89687 c 0.0505,-0.10931 0.10104,-0.22595 0.15156,-0.34254 -0.19487,0.0656 -0.30316,0.13116 -0.15156,0.34254 z M 73.886871,77.9107 c -0.0649,0.0656 -0.13714,0.13116 -0.20208,0.20405 0.12271,0.0366 0.23818,0.0292 0.36089,0.007 -0.0722,-0.0292 -0.0866,-0.12388 -0.15877,-0.21134 z M 3.98415,36.368641 c 0.129926,-0.429995 0.252603,-0.838131 0.332009,-1.202535 -0.151562,0.364404 -0.2887,0.714237 -0.425839,1.064059 0.02877,0.08746 0.05773,0.138492 0.09383,0.138492 z M 70.480151,85.27165 c -0.38253,0.37169 -0.86611,0.7361 -1.32082,1.10051 0.0215,0.0292 0.0288,0.051 0.0649,0.0802 0.75785,-0.38626 1.6384,-0.92559 1.43631,-1.31186 -0.0505,0.0366 -0.11547,0.0875 -0.18045,0.13117 z m -5.1606,3.22862 c 0.14435,-0.11659 0.26706,-0.24052 0.35364,-0.37897 -0.23097,0.10931 -0.48358,0.21867 -0.80837,0.31337 0.12271,0.0583 0.28148,0.0729 0.45471,0.0656 z m 0.70732,-0.22595 c 0.0215,-0.0144 0.0433,-0.0218 0.0722,-0.0292 0.23097,-0.16035 0.40419,-0.26966 0.55576,-0.35712 0.036,-0.0292 0.0794,-0.051 0.1155,-0.0875 0.67846,-0.53932 1.29917,-1.21711 1.63118,-1.51592 -1.20534,0.51016 -1.52292,1.09321 -2.28798,1.5888 0.007,0.10203 -0.10104,0.27694 -0.0866,0.40084 z m 4.92964,-0.34983 c 0.63515,-0.40813 1.08265,-0.74338 0.65681,-0.65593 -0.57741,0.47373 -1.1476,0.67779 -1.60231,0.85271 -0.4475,0.18948 -0.77951,0.37897 -0.92386,0.81626 0.34643,-0.21863 1.21256,-0.63406 1.86936,-1.01304 z m 1.41466,-0.0875 1.98485,-1.34101 -0.2093,-0.29151 c -0.56297,0.55389 -2.36738,1.20982 -1.77553,1.63253 z m 14.06715,-17.6663 c -0.0215,-0.0292 -0.0433,-0.0292 -0.0649,-0.051 -0.11546,0.31337 -0.28149,0.68508 -0.50524,1.10779 -0.46914,0.91101 -1.12594,2.04795 -1.97041,3.16303 0.87333,-0.91102 1.8405,-2.90066 2.54061,-4.21981 z m -9.82318,5.15996 c -0.0215,-0.0656 -0.0146,-0.13121 -0.007,-0.18949 -0.84446,0.98389 -1.67449,1.93134 -2.32408,2.90066 0.34643,-0.16763 0.70011,-0.53203 1.07543,-0.96932 0.2887,-0.34983 0.62072,-0.72881 0.93107,-1.13694 0.31038,-0.40813 0.64237,-0.81626 1.01769,-1.1588 -0.18766,-0.10203 -0.44749,0.30608 -0.69289,0.55389 z m 3.0314,-4.94132 c -0.0433,0.13845 -0.12993,0.31341 -0.23818,0.51745 0.11546,-0.16763 0.23096,-0.34255 0.34643,-0.51745 -0.0361,0 -0.0649,-0.007 -0.10825,0 z m -5.04512,0.59762 c -0.23818,0.21863 -0.47637,0.44457 -0.70733,0.69237 0.28149,-0.0656 0.4908,-0.34984 0.70733,-0.69237 z m -0.89499,0.66322 c -0.0146,0.007 -0.0215,0.0218 -0.0361,0.0292 0.007,0 0.0146,0 0.0215,0 0,-0.007 0.007,-0.0218 0.0146,-0.0292 z M 35.489095,4.942448 c -0.91664,0.291515 -1.645617,0.583045 -1.566227,0.612189 0.0073,0 0.01458,0 0.02148,0 0.664022,-0.25509 1.17647,-0.451866 1.544572,-0.612189 z m -10.775917,4.48216 c -0.230968,0.08017 -0.721766,0.364404 -1.342482,0.808976 0.64959,-0.378973 1.089863,-0.641348 1.356917,-0.816265 -0.0073,0.0074 -0.0073,0.0074 -0.01458,0.0074 z m -4.677025,2.244731 c 0.05052,-0.03662 0.101041,-0.05832 0.151562,-0.09474 0.317585,-0.233236 0.649586,-0.459151 0.967164,-0.685086 -0.396972,0.255091 -0.786721,0.517454 -1.118733,0.779825 z M 1.169275,52.978174 c 0.216544,-0.153062 0.332009,-0.714233 0.389753,-1.523205 0.02877,-0.685081 0.07219,-1.552356 0.122714,-2.514383 -0.0073,-0.25509 -0.02877,-0.488302 -0.07219,-0.670503 0.03606,0.09474 0.07219,0.145777 0.101041,0.196771 0.02148,-0.400847 0.05052,-0.808976 0.07941,-1.224397 -0.259814,0.08746 -0.07219,-1.523205 0.2887,-3.687766 0.09383,-0.481017 0.216544,-0.991182 0.339221,-1.515924 C 2.569486,41.127758 2.78603,40.33336 3.01699,39.684715 3.0603,39.502513 3.11082,39.320312 3.154128,39.13811 c 0.02148,-0.08017 0.04331,-0.160347 0.07219,-0.24052 -0.433057,0.400847 0.324797,-1.260842 0.555757,-2.383199 -0.209294,0.539316 -0.418622,1.071347 -0.606281,1.581512 -0.332009,0.932874 -0.555757,1.843883 -0.801156,2.718454 -0.216544,0.845421 -0.440277,1.668971 -0.599062,2.470662 -0.02877,0.218626 -0.05773,0.42271 -0.08662,0.648637 -0.0073,0 -0.0073,-0.0074 -0.01458,-0.01441 -0.101041,0.641352 -0.202082,1.275415 -0.281488,1.909479 -0.09383,0.816269 -0.216544,1.625245 -0.252603,2.456087 -0.02148,0.830839 -0.03606,1.668971 -0.02877,2.543539 -0.02148,0.692358 0.0073,1.413876 0.05773,2.149975 z M 26.698023,93.73312 c -0.736197,-0.28423 -2.05702,-1.39931 -2.396253,-1.13694 0.447493,0.30608 0.411408,0.56846 0.815595,0.87456 0.09383,-0.51016 1.320824,0.53932 1.580658,0.26238 z M 87.694191,65.12741 c 0.10826,-0.54661 0.10826,-1.1661 0.065,-1.31915 -0.23097,0.72152 -0.44028,1.45033 -0.75785,2.13541 0.32479,0.16763 0.58462,-0.26966 0.69289,-0.81626 z m 3.13967,-9.70044 c 0.0794,0.91101 -0.0505,1.57422 -0.18045,2.17185 -0.15156,0.59762 -0.26706,1.12965 -0.0938,1.84388 0.0215,-0.6122 0.35369,-1.54507 0.47637,-2.37591 0.12993,-0.83084 0.16599,-1.53779 -0.20208,-1.63982 z m -12.71024,9.72958 c 0.34643,-1.32643 1.71057,-2.3832 1.37135,-3.31607 -0.3609,0.8527 -1.45796,2.37591 -1.37135,3.31607 z m 2.14363,-5.76487 c -0.0505,0.66322 -0.98881,1.99694 -0.28149,2.0771 -0.18044,-0.87457 0.82281,-1.71998 0.28149,-2.0771 z m 9.7438,19.6924 c 0.54132,-0.86 1.30639,-1.82931 1.99207,-2.82049 0.67124,-0.99118 1.17647,-2.05524 1.36413,-2.95167 -0.54132,0.94016 -1.21255,2.12812 -1.94875,3.13387 -0.70734,1.03491 -1.29197,1.98236 -1.40745,2.63829 z m -23.11084,17.57155 c -0.12272,-0.18948 -0.25261,-0.32797 -0.83725,-0.0583 l 0.18766,0.49558 c 0.90942,-0.29151 1.73223,-0.69236 1.6384,-1.06406 -0.4908,0.20406 -0.74342,0.41543 -0.98882,0.62678 z m 24.27288,-26.90758 c 0.33201,-1.09321 1.29195,-2.82049 1.27752,-3.62947 0.46914,-1.23168 0.80837,-2.37591 0.64237,-2.8132 -0.24539,0.7944 -0.67846,1.96779 -1.08986,3.12659 -0.41862,1.15152 -0.9383,2.25202 -1.11874,3.02455 0.18766,-0.41542 0.46193,-0.94016 0.75064,-1.51592 0.10104,-0.18948 0.19487,-0.39356 0.29591,-0.59033 -0.40419,0.94016 -0.84446,1.90947 -0.75785,2.39778 z m -10.63878,6.69045 c -0.5269,0.53203 -0.88778,0.99118 -1.13317,1.31914 -0.25982,0.3207 -0.36811,0.53203 -0.34647,0.59762 0.0288,0.12389 0.64237,-0.34254 1.47962,-1.91676 z m -1.00325,4.86844 c 1.16203,-1.43575 2.69217,-3.25777 4.10682,-5.18182 -0.10825,0.007 -0.20929,0.0218 -0.33922,0.20405 -0.0794,-0.8527 1.05378,-1.04219 1.47962,-1.85117 0,0.007 0,0.0144 0.007,0.0218 0.4908,-0.7361 0.95995,-1.4722 1.35691,-2.20101 -0.12271,0.58305 -0.59906,1.39203 -1.16203,2.23016 -0.0577,0.0875 -0.11547,0.16763 -0.17324,0.25509 -0.0288,0.12388 -0.1155,0.24052 -0.22375,0.33526 -0.4475,0.64864 -0.90943,1.27542 -1.29197,1.80744 l -1.78997,2.2666 c -0.62793,0.72881 -1.30639,1.41389 -1.97041,2.11354 z m 4.28727,-5.42233 c 0.10825,-0.15306 0.21654,-0.30609 0.32479,-0.45915 -0.27427,0.16763 -0.48358,0.30612 -0.32479,0.45915 z m -38.59266,22.64406 c -0.70732,-0.0144 -1.0249,-0.0729 -1.01047,-0.1822 0.4908,0.0802 1.01047,0.15306 1.55179,0.2332 -0.0577,0.051 -0.12992,0.0875 -0.18044,0.15306 1.29195,0.051 2.72826,0.1822 4.24396,0.16035 1.5157,0.0144 3.11802,0.0656 4.69146,-0.0948 1.58066,-0.11659 3.16132,-0.2478 4.59763,-0.59762 1.44353,-0.32069 2.80766,-0.61949 3.90474,-1.13694 -1.11874,0.1822 -2.30243,0.37897 -3.50055,0.56847 0.83725,-0.17491 1.7178,-0.37169 2.62,-0.62677 1.47239,-0.38626 3.02418,-0.75067 4.51102,-1.31915 1.49404,-0.52473 2.98809,-1.07134 4.28727,-1.77829 1.3136,-0.68508 2.54782,-1.33372 3.47889,-2.12083 -4.04187,1.8366 -8.85602,4.0959 -12.91955,4.79556 0.25981,-0.1166 0.70011,-0.21134 0.65681,-0.38626 -0.54855,0.45186 -1.48683,0.68508 -2.34573,0.83084 -0.78672,0.14578 -1.4724,0.32798 -1.73223,0.80897 -0.26707,0.0366 -0.53411,0.0729 -0.80116,0.10932 0.10825,-0.0292 0.21654,-0.0656 0.31758,-0.0948 -1.06099,0.25509 -1.26308,0.19678 -0.78671,-0.21134 -1.01047,0.32798 -2.21582,0.45186 -3.49334,0.59034 -0.63515,0.0656 -1.29196,0.1166 -1.95597,0.16034 -0.16603,0.007 -0.33923,0.007 -0.50524,0.007 -0.52689,-0.007 -1.04655,-0.0366 -1.55179,-0.0802 0.28149,-0.0437 0.72898,-0.0218 0.7362,-0.19677 -0.64959,0.29152 -1.61675,0.27695 -2.48287,0.18949 -0.38975,-0.0292 -0.75785,-0.0438 -1.07542,-0.0144 -0.29591,-0.0144 -0.6135,-0.0218 -0.89499,-0.051 -0.39697,-0.0366 -0.77951,-0.0656 -1.15482,-0.0947 0.0215,-0.0144 0.0433,-0.0218 0.0722,-0.0366 -0.20929,0.007 -0.43305,0 -0.64959,-0.007 -0.15877,-0.007 -0.31037,-0.0144 -0.46192,-0.0292 -0.76507,-0.0583 -1.57345,-0.1822 -2.41069,-0.31337 -0.63515,-0.10203 -1.277521,-0.22591 -1.927107,-0.35712 -0.649587,-0.13117 -1.284738,-0.34255 -1.91989,-0.51745 -0.0073,0 -0.01458,-0.007 -0.02148,-0.007 0.14435,-0.0292 0.295911,-0.0875 0.368106,-0.16034 -1.429092,-0.33527 -2.822095,-0.83813 -4.229532,-1.29 -0.88055,0.0729 2.533386,0.95475 3.471681,1.29 0,0.0218 0.02877,0.0292 0.03606,0.051 -1.133164,-0.33526 -2.251898,-0.64135 -3.240713,-1.01304 -1.104294,-0.40813 -2.107544,-0.76525 -2.944789,-0.99847 0.851676,0.40085 1.93432,0.88915 3.139664,1.4066 1.219778,0.47373 2.59113,0.88915 3.962478,1.30457 0.685672,0.21862 1.378564,0.37897 2.078675,0.49559 0.692887,0.1312 1.371347,0.2478 2.020927,0.34255 0.64959,0.0874 1.27031,0.18948 1.84772,0.21134 0.59185,0.0366 1.12595,0.0292 1.60231,0.007 z m 43.13254,-24.10168 c -0.44027,0.70695 -1.16203,1.72728 -1.85493,2.73303 -0.70011,1.00576 -1.47961,1.93134 -1.85493,2.631 0.2887,-0.34983 0.68568,-0.78711 1.11152,-1.26813 0.44027,-0.47372 0.88055,-0.99846 1.25587,-1.54507 0.77228,-1.06406 1.393,-2.08439 1.34247,-2.55083 z m -46.69083,25.23133 c 0.53411,0.0656 1.08265,0.1166 1.60953,0.13846 0.53411,-0.007 1.03934,-0.0292 1.4724,-0.051 -0.54132,0.0144 -1.09708,-0.0144 -1.63118,-0.10203 -0.53411,-0.10202 -1.06099,-0.22591 -1.55901,-0.34254 -0.98881,-0.23324 -1.85493,-0.44458 -2.475646,-0.37898 0.534102,0.37169 1.515696,0.60491 2.583906,0.7361 z m 52.4866,-43.93254 c -0.43307,1.25355 0.0505,0.46644 0,0 z M 16.427338,86.4669 c -0.642367,-0.46644 -1.623966,-1.88761 -2.020934,-1.72727 0.353682,0.41541 0.245391,0.65592 0.562976,1.05677 0.223756,-0.45915 1.140384,0.87456 1.457958,0.6705 z M 79.126871,60.76184 c -0.16603,0.75796 -0.9816,1.93134 -0.72898,2.41236 0.52688,-0.76525 0.82281,-1.52321 0.72898,-2.41236 z M 35.582924,2.974658 c 0.461928,-0.123883 0.90942,-0.247805 1.328043,-0.357118 0.837245,-0.247805 1.559007,-0.50288 2.042589,-0.816257 -1.645617,0.488294 -3.608811,0.889145 -4.756415,1.617952 0.469143,-0.153062 0.931071,-0.2988 1.385783,-0.444577 z m 61.847847,38.1531 c 0.59907,0.32794 1.19813,0.612193 1.66006,1.311856 -0.0361,-1.246264 -0.43306,-1.406599 -0.62072,-2.332185 -0.54855,0.07289 -0.91664,0.378973 -1.03934,1.020329 z M 49.346931,1.473312 c -1.19812,-0.02182 -3.06749,-0.63405996 -4.21509,-0.03662 0.28149,0.641352 3.54386,0.612209 4.21509,0.03662 z m 42.85106,61.657158 c 0.55576,-0.4883 1.55901,-3.03184 1.31362,-4.07404 -0.49081,1.11507 -1.50849,3.30879 -1.31362,4.07404 z M 71.129741,6.902933 c 0.7795,0.378973 1.5157,0.736095 2.23024,1.078636 0.70012,0.371688 1.40022,0.721522 2.10033,1.056773 -0.73619,-0.45915 -1.53013,-0.947452 -2.34572,-1.443043 -0.83726,-0.451858 -1.69615,-0.911016 -2.54061,-1.370159 -1.67449,-0.932871 -3.3995,-1.530494 -4.77807,-1.851164 1.03212,0.459151 1.98485,0.881865 2.87262,1.282697 0.88055,0.444572 1.69614,0.859994 2.46121,1.24626 z M 47.037301,0.47484504 c 1.01769,-0.09474 2.02093,-0.225911 3.00253,-0.28423 0.98881,-0.04371 1.94154,-0.08746 2.87262,-0.131168 -1.08987,-0.03662 -2.18694,-0.0656 -3.26237,-0.05832 -1.07542,0.05832 -2.13642,0.145777 -3.16854,0.247805 -0.51245,0.05832 -1.01768,0.116598 -1.5157,0.174917 -0.49801,0.08017 -0.97438,0.189486 -1.45074,0.291514 -0.93829,0.211342 -1.83328,0.45186196 -2.65609,0.71423296 2.06424,-0.393551 4.1357,-0.79440196 6.17829,-0.95474096 z"
            style="fill:url(#linearGradient4979);fill-opacity:1;fill-rule:nonzero;stroke:none;stroke-width:0.725277"
            id="path4981" />
        <path
            d="m 67.342709,38.259259 c 0.834593,1.463925 1.087865,3.65932 -9.564326,9.886147 -0.301471,0.177305 -0.611028,0.3561 -0.924447,0.536386 l -4.903785,21.80316 -3.52639,2.062463 -0.389159,-19.104438 c -5.716234,2.916991 -8.267503,3.667452 -11.997935,4.93359 l -1.581885,9.246904 -3.130751,1.831112 -0.908387,-9.533228 -7.698723,-5.563415 3.130402,-1.8299 8.574691,3.18776 c 2.92631,-2.632132 4.854731,-4.506175 10.228322,-8.076956 l -16.029896,-9.824478 3.526965,-2.06246 20.942956,6.554593 c 0.344617,-0.207407 0.683849,-0.405193 1.017491,-0.601489 10.651193,-6.226853 12.401729,-4.906696 13.234857,-3.445751 z"
            style="fill:#ffffff;fill-opacity:1;fill-rule:evenodd;stroke:none;stroke-width:0.250952" id="path5161" />
    </g>
</svg>