<?xml version="1.0" encoding="UTF-8" standalone="no"?>
<svg xmlns:dc="http://purl.org/dc/elements/1.1/" xmlns:cc="http://creativecommons.org/ns#"
    xmlns:rdf="http://www.w3.org/1999/02/22-rdf-syntax-ns#" xmlns:svg="http://www.w3.org/2000/svg"
    xmlns="http://www.w3.org/2000/svg" version="1.1" id="svg885" xml:space="preserve" width="100" height="100"
    viewBox="0 0 100 100">
    <defs>
        <linearGradient x1="-0.39899999" y1="68.556999" x2="137.05499" y2="68.556999" gradientUnits="userSpaceOnUse"
            gradientTransform="matrix(-0.02627955,-0.17288931,-0.17121794,0.02653607,-51.269249,-499.39976)"
            spreadMethod="pad" id="linearGradient5087">
            <stop style="stop-opacity:1;stop-color:#181c3f" offset="0" id="stop5083" />
            <stop style="stop-opacity:1;stop-color:#203572" offset="1" id="stop5085" />
        </linearGradient>
    </defs>
    <g id="g8194" style="display:inline">
        <path
            d="m 76.947114,85.351827 c -0.50522,1.12236 -2.11476,1.4649 -3.33454,2.49981 -0.43306,0.22591 0.13714,-0.23324 0.95995,-0.82355 0.8228,-0.56848 1.8044,-1.39931 2.37459,-1.67626 z m 0.2887,5.18911 0.31038,0.43 c 0.80116,-0.51746 1.49405,-1.12237 1.30639,-1.45033 -0.41863,0.32798 -0.60628,0.59033 -0.78672,0.85999 -0.16603,-0.15306 -0.33201,-0.25509 -0.83003,0.16035 z m 12.61641,-26.25166 c 0.3248,-0.95474 0.58463,-1.85846 0.54854,-2.456087 -0.86611,3.542007 -2.82209,7.623337 -4.07074,10.421957 0.46193,-0.84542 0.9383,-1.68355 1.36413,-2.55083 l 1.14761,-2.66015 c 0.30312,-0.7944 0.69289,-1.80016 1.01046,-2.75489 z m -8.27861,-50.805206 c 0.89499,0.663214 1.64562,1.406599 2.39625,2.084387 0.7362,0.69237 1.46518,1.348296 2.10755,2.0188 1.25586,1.377448 2.46842,2.616415 3.52219,3.862683 0.0215,0.02922 0.0505,0.05832 0.0722,0.08746 0.23096,0.619486 0.35368,1.209828 0.32479,1.756433 0.6929,0.874564 1.227,1.785572 1.77554,2.638285 0.53411,0.867283 1.0682,1.683544 1.52292,2.499813 0.0146,0.02182 0.0215,0.04375 0.0288,0.05832 -0.007,0.08746 -0.0215,0.167631 -0.0146,0.26966 0.0577,0.01441 0.12272,0.02922 0.18045,0.04371 0.79394,1.515924 1.56623,2.915231 2.21581,4.278104 0.67847,1.486769 1.41467,2.871506 2.09311,4.248953 0.65681,1.384737 1.38579,2.733029 2.201376,4.110476 -0.512446,-1.406599 -1.111506,-3.060991 -1.753876,-4.846575 -0.75062,-1.727273 -1.44352,-3.607597 -2.28077,-5.429617 -0.2526,-0.524743 -0.49079,-1.05677 -0.7362,-1.588801 0.007,0 0.007,0.0074 0.0146,0.0074 -0.15157,-0.50288 -0.31038,-0.801688 -0.48359,-1.049485 -0.41862,-0.918301 -0.83724,-1.822016 -1.28473,-2.682011 0.76507,0.852706 1.55901,1.698122 2.41068,2.53625 -0.85167,-1.224398 -1.85493,-2.667437 -2.93757,-4.219798 -0.22376,-0.276944 -0.44028,-0.568467 -0.66403,-0.85999 0,0 0,-0.0074 0,-0.0074 -0.37531,-0.801691 -0.75785,-1.559649 -1.06099,-2.295744 -0.83724,-0.145777 0.56298,1.078636 0.28149,1.275411 -0.40419,-0.539316 -0.80838,-1.078644 -1.23421,-1.610663 -0.79394,-1.093214 -1.56623,-2.142702 -2.39625,-3.082866 -0.59907,-0.714233 -1.19091,-1.39931 -1.77554,-2.047944 -0.18766,-0.196771 -0.38253,-0.378973 -0.57741,-0.561182 -0.60628,-0.699655 -1.19091,-1.39931 -1.73223,-2.077103 -0.5702,-0.677792 -1.13317,-1.311856 -1.61675,-1.945915 -0.88055,0.08017 0.96716,0.969311 0.57019,1.187957 -1.64562,-1.311856 -3.12523,-2.594556 -4.67703,-3.622178 -0.75785,-0.532035 -1.50847,-1.042196 -2.24468,-1.51592 -0.75063,-0.45187 -1.52291,-0.838128 -2.27355,-1.20982 1.7178,1.377447 3.53664,2.660148 5.09565,3.877256 1.54459,1.23896 2.67775,2.550816 2.93037,3.811654 z M 56.456285,2.019921 c 0.952725,0.204056 1.840494,0.386258 2.684955,0.568467 0.85168,0.160347 1.652835,0.31337 2.432344,0.459151 0.77228,0.174916 1.53735,0.335263 2.30242,0.466435 C 63.045974,3.266169 62.150994,3.00381 61.241574,2.726865 60.317717,2.508238 59.364992,2.289573 58.441137,2.070943 56.586208,1.611788 54.760148,1.480608 53.352707,1.531619 c 1.11873,0.174916 2.14363,0.335263 3.103578,0.488302 z m 39.429879,65.352216 c 0.30316,-0.96932 0.79395,-2.10626 1.19813,-3.2432 0.39697,-1.13695 0.60628,-2.295747 0.56297,-3.206759 -0.28148,1.049485 -0.62792,2.368629 -1.07542,3.534719 -0.42584,1.18067 -0.75064,2.25202 -0.68568,2.91524 z M 37.055304,1.611788 c 0.93829,-0.2988 1.854929,-0.597631 2.735479,-0.88186396 -1.068205,0.247805 -2.129198,0.51016396 -3.168537,0.79439796 -1.0249,0.342548 -2.028153,0.699663 -2.995313,1.071347 -0.483582,0.189487 -0.952725,0.378974 -1.421872,0.568472 -0.454712,0.204056 -0.894988,0.437292 -1.320827,0.663215 -0.85168,0.451861 -1.652839,0.918297 -2.381816,1.384736 1.891015,-0.925594 3.789253,-1.858468 5.723577,-2.536253 0.959944,-0.357119 1.898238,-0.750673 2.829309,-1.064051 z M 24.994653,7.383946 c 0.750635,-0.459147 1.378567,-0.896435 1.7611,-1.326437 -1.465177,0.896434 -3.255146,1.800153 -4.179005,2.805909 0.411407,-0.262375 0.82281,-0.532027 1.226997,-0.78711 0.411407,-0.240481 0.815591,-0.47372 1.190908,-0.692362 z m 52.313351,58.690911 c -0.22376,0.27694 -0.55575,0.77253 -0.90942,1.36287 -0.35369,0.59762 -0.82281,1.23168 -1.1837,1.91676 0.10104,0.18949 0.17324,0.50288 0.14435,0.10203 0.27428,-0.67779 0.99603,-1.28999 1.21978,-1.52321 -0.39697,0.53932 -0.87333,1.10779 -0.41141,1.28999 0.007,-0.16035 0.0577,-0.2988 0.12272,-0.43728 0.0215,0.0437 0.0361,0.0802 0.0794,0.12388 0.15156,0.0292 0.49801,-0.32798 0.75785,-0.75067 0.23818,-0.43 0.4114,-0.90372 0.31758,-1.02033 -0.0722,0.1822 -0.23097,0.35711 -0.41141,0.53202 0.0505,-0.13116 0.0433,-0.25509 -0.0649,-0.37169 -0.0505,0.15307 -0.17324,0.33527 -0.30312,0.51746 1.1115,-2.00422 1.08985,-2.29575 0.64236,-1.74185 z m 4.81415,-0.84542 c 0.36089,-0.80898 1.09708,-1.69084 0.52689,-2.24473 -0.33201,0.93287 -0.64237,1.69812 -0.52689,2.24473 z m -26.07006,34.36329 c 0.512448,-0.14577 0.996029,-0.2988 1.407433,-0.43728 -0.519664,0.15306 -1.060986,0.27695 -1.602308,0.33526 -0.541322,0.0437 -1.082644,0.0583 -1.587876,0.0729 -1.017688,0.0292 -1.90545,0.051 -2.490077,0.28423 0.606278,0.211343 1.616746,0.182203 2.684959,0.0366 0.526875,-0.0729 1.068197,-0.17491 1.587869,-0.29151 z m 29.05094,-30.06333 c 0.0649,0.10932 0.54132,-0.50287 0.93829,-2.23743 -0.37532,0.64863 -0.60628,1.18795 -0.75785,1.57422 -0.15877,0.37169 -0.21654,0.6122 -0.18045,0.66321 z m -7.77338,10.71348 c 0.64237,-0.93287 1.56622,-1.94592 1.67449,-2.79862 -0.48359,0.60491 -1.26309,1.33372 -1.81884,1.85846 -0.55576,0.53203 -0.89498,0.87457 -0.56297,0.64135 0.87332,-0.93287 0.12267,0.22595 0.70732,0.2988 z m 6.22881,-8.10434 c -1.03212,0.73609 -1.19813,2.17914 -2.3313,3.43997 1.1043,-0.0656 1.75389,-2.90794 2.3313,-3.43997 z m -57.538907,20.07137 c -0.245391,0.0875 -0.728977,0.051 -0.671237,-0.21134 -0.664021,-0.45915 -2.836528,-1.7127 -3.139667,-2.06253 -0.79394,-0.51017 -1.573445,-1.01305 -2.324076,-1.52321 -1.342477,-0.98389 -2.728264,-1.85117 -4.034652,-2.71845 0.555757,0.15306 1.08986,0.22591 1.84771,0.73609 -0.606277,-0.6122 -1.183688,-1.20253 -1.746665,-1.79286 -0.433057,-0.40814 -0.858895,-0.81627 -1.270302,-1.23169 -1.198124,-1.31186 -2.374597,-2.58727 -3.471676,-3.85539 -1.046554,-1.30457 -2.165287,-2.49982 -3.197407,-3.68049 0.498014,0.29152 0.99603,0.50288 1.595096,1.19525 -0.04331,-0.0802 -0.08662,-0.15306 -0.129926,-0.23323 -2.208593,-3.08286 -3.868648,-6.27504 -5.11008,-9.80976 -0.346432,0.1822 -0.01458,1.01305 0.368105,1.87304 -0.02877,0.53203 -0.33922,-0.29151 -0.692891,-1.26813 -0.368106,-0.96203 -0.642367,-2.12812 -0.923855,-2.17185 0.425842,0.0802 0.440277,-0.57575 0.230968,-1.65439 -0.115465,-0.50288 -0.245391,-1.11508 -0.382529,-1.785579 -0.642371,-2.354052 -1.068209,-4.722677 -1.263083,-7.18605 -0.259853,0.05832 -0.2887,0.510169 -0.230968,1.085925 0.02877,0.196772 0.05052,0.386258 0.07941,0.590338 0.01458,0.07289 0.02148,0.145777 0.03606,0.225912 C 1.48685,57.037597 1.414656,56.833541 1.356924,56.396249 1.010492,55.951676 1.183689,54.209825 0.707338,52.774075 0.404214,53.131193 0.483582,54.122371 0.324808,54.712705 -0.505221,52.613736 1.118745,51.884929 0.887781,49.363254 0.649602,49.603774 0.54856,50.164941 0.526887,50.879178 0.34644,50.631372 0.34644,49.997317 0,50.113927 0.115465,47.264284 0.490797,44.400072 1.111514,41.565011 1.060994,41.681609 1.010473,41.790923 0.959952,41.885705 0.837237,40.858083 1.147611,40.245886 1.551794,39.640974 1.710568,39.021489 1.898227,38.409288 2.078681,37.797091 2.064101,37.563856 2.042621,37.345226 1.818867,37.352518 c 2.064242,-6.68317 5.629747,-13.060239 10.42225,-18.489856 1.234213,-1.392033 2.547824,-2.718463 3.933607,-3.979293 0.902204,-0.874572 1.826059,-1.727285 2.786003,-2.550827 0.252603,-0.145777 0.526887,-0.320694 0.79394,-0.488302 0.505233,-0.823554 2.490081,-1.771006 3.52942,-2.594556 -0.07941,0.145777 -0.230968,0.306085 -0.418623,0.459146 2.208593,-1.450328 4.525449,-2.754891 6.950571,-3.899123 0.281488,-0.07289 0.591846,-0.174916 0.887769,-0.262375 0.649586,-0.6122 2.533386,-0.99847 3.774818,-1.464898 -0.844464,0.211341 -1.64562,0.26966 -1.847714,0.01441 C 33.583633,3.222276 35.554046,3.324308 36.716084,3.032778 36.470693,3.389896 35.590132,3.783451 34.702366,4.031244 34.096085,4.570565 32.270026,4.92039 31.028593,5.45971 31.136846,5.42309 31.230676,5.40139 31.338967,5.36497 31.880289,5.219193 32.4577,5.058885 33.056762,4.898534 34.254889,4.59245 35.510757,4.125999 36.889324,3.84905 c 1.371347,-0.291515 2.786003,-0.677785 4.2584,-0.881865 1.472396,-0.189486 2.959223,-0.429995 4.438839,-0.488302 1.176469,-0.07289 2.352946,-0.09474 3.529419,-0.07289 0.0073,0 0.02148,0 0.02877,0 0.04331,0 0.08662,0 0.122677,0 0.151562,0 0.310373,0 0.461931,0.0074 5.081206,0.02181 10.191286,0.721529 15.092054,2.346762 10.1552,3.286923 19.4515,9.940941 25.5504,19.437309 -0.17324,-0.01441 -0.35368,-0.109313 -0.55576,-0.306084 1.44353,2.106254 2.72826,4.336407 3.82534,6.683169 0.38253,0.6705 0.76507,1.341004 1.1404,1.996934 0.27427,0.502879 0.55575,0.991177 0.79393,1.501342 0.22376,0.510161 0.44028,1.027622 0.64237,1.545076 -0.41862,-0.349834 -0.77229,-1.05677 -1.16203,-1.814732 -0.0577,-0.102028 -0.10826,-0.204057 -0.16599,-0.306085 0.31034,0.80898 0.60627,1.617956 0.87334,2.448799 -0.25986,-0.09474 -0.49802,-0.357118 -0.6929,-0.991182 0.007,0.04371 0.0215,0.08746 0.0361,0.131168 0.10104,0.291515 0.2093,0.58305 0.30316,0.889146 0.2887,0.867283 0.58462,1.756429 0.87333,2.616419 0.23818,0.874568 0.43307,1.727277 0.59908,2.485235 -0.31759,-0.808976 -0.59186,-1.712695 -0.92386,-2.667437 0.31758,1.166091 0.66402,2.303034 1.03934,3.432684 0.29591,1.129654 0.59185,2.244731 0.88055,3.337941 0.12992,0.553897 0.28149,1.100502 0.37532,1.654392 0.0866,0.553898 0.16598,1.107784 0.22375,1.654393 -0.31758,-0.451862 -0.47636,-1.217109 -0.6568,-2.062529 -0.20929,-0.838132 -0.39697,-1.756429 -0.64237,-2.507102 0.0577,1.173383 0.33922,2.871505 0.42584,4.70081 0.0577,0.911009 0.11547,1.851172 0.17324,2.754892 0.007,0.903723 -0.0215,1.778295 -0.0577,2.558116 -0.13714,-1.17338 -0.15156,-2.499809 -0.30313,-3.93556 -0.14435,-1.428466 -0.13713,-2.966248 -0.38973,-4.518609 -0.46916,1.224398 -0.68568,3.002693 -0.8156,4.766406 -0.0361,0.437284 -0.0722,0.881857 -0.10826,1.311856 -0.0722,0.429995 -0.13713,0.845421 -0.20208,1.24626 -0.14435,0.801688 -0.31758,1.515924 -0.55575,2.077103 0.12992,-0.306085 -0.0794,-0.400844 -0.35369,-0.291515 0.0361,0.918293 -0.32479,2.45608 -0.36089,3.439973 -0.26703,-0.568472 0.0938,-2.142695 0.21654,-3.359807 -0.23096,0.145777 -0.47636,0.415421 -0.60627,0.838131 -0.0288,0.07289 -0.0505,0.138453 -0.0722,0.204057 -0.007,-0.09474 -0.0433,-0.174917 -0.10826,-0.218627 0.15878,0.109314 -1.08264,1.501347 -0.9022,0.255091 -0.34643,1.51592 -0.7795,2.915234 -1.227,4.227086 -0.51245,1.289989 -1.10429,2.485233 -1.6817,3.636743 0.27427,-1.28999 1.34969,-3.359798 1.78997,-5.487915 0.56298,-2.09897 0.56298,-4.161495 -0.46193,-4.93403 -0.64959,0.750673 -1.24143,1.515924 -1.76831,2.558116 -0.58463,1.03491 -0.97438,2.383203 -1.33526,4.29997 -0.34647,0.09474 -0.75063,-0.01441 -1.01769,0.400844 -0.27428,-0.109313 0.54132,-1.209824 0.47637,-2.142695 -0.0577,-0.335263 -0.34644,-0.393558 -0.18766,-0.991181 -0.0938,0.02182 -0.18045,0.08017 -0.25982,0.138492 -0.0722,0.670503 -0.18044,1.5888 -0.20208,2.237441 -0.31758,0.04371 -0.27428,-0.313408 -0.21654,-0.685077 -0.38976,1.085925 -0.5341,1.909475 -0.75063,2.747606 -0.18766,0.845409 -0.3248,1.741849 -0.6929,2.944379 -0.29591,-0.26966 -0.48357,0.28423 -0.68566,0.72152 0.24539,-1.1005 0.58462,-2.67473 1.14038,-4.256233 0.28149,-0.787113 0.46193,-1.625241 0.72176,-2.397781 0.10104,-0.342548 0.21654,-0.677788 0.33201,-1.005755 -0.23097,0.276945 -0.44028,0.612201 -0.68568,0.859994 -0.15156,-0.685077 1.54458,-2.412354 0.10105,-2.740317 -0.50524,-0.02922 -0.51968,1.180668 -0.6929,2.004222 -0.37532,-0.116599 -0.24539,-0.801688 -0.10104,-1.523205 -0.54132,0.07289 -0.93108,0.349833 -1.20534,0.291514 -0.0722,0.510165 -0.20209,0.976604 -0.29592,1.144228 -0.12992,-0.08017 -0.11546,-0.313369 -0.2887,-0.349833 -0.77228,3.593027 -0.2887,-0.116598 0.23097,-1.311852 0,-0.0074 -0.007,-0.01441 -0.007,-0.02922 -0.60627,0.655926 -0.87332,1.049481 -1.09707,1.464902 -0.20929,0.415422 -0.41862,0.845417 -0.93107,1.501347 -0.12993,-0.24052 0.0215,-0.670504 0.20208,-1.122366 0.15877,-0.45915 0.37532,-0.932874 0.46915,-1.224397 -0.12272,-0.306085 -0.25261,-0.604912 -0.38976,-0.88915 -0.62793,0.400848 -0.16602,2.142699 -0.59184,2.332189 -0.23818,-0.08017 -0.47637,-0.153061 -0.58463,0.138492 -0.15156,-0.663214 0.79394,-1.574227 0.87334,-2.784046 -0.2454,0.02182 -0.50524,1.027618 -0.34644,-0.05103 -0.39697,0.2988 -0.35364,1.566938 -0.69289,1.996937 -0.0649,-0.604912 -0.0215,-1.894901 0.11547,-2.856927 -0.44028,-0.233235 -0.42584,0.473728 -0.64237,0.685081 -0.12271,0.539316 0.007,0.816261 0.39697,0.838128 -0.66402,0.816265 -1.25586,0.874572 -1.58066,1.734566 -0.57019,0.313369 -0.065,-1.122366 -0.45471,-0.357119 -0.28871,-0.429999 -0.11548,-1.457617 0.11549,-2.507098 0.0577,-0.262375 0.10827,-0.524742 0.15878,-0.779824 0.0288,-0.25509 0.0433,-0.502876 0.0505,-0.736096 0.007,-0.342548 -0.007,-0.634063 -0.0794,-0.852705 -0.0577,0.881857 -0.15877,1.756425 -0.2887,2.638282 -0.0146,0.09474 -0.0288,0.196771 -0.0433,0.291514 -0.0433,0.26966 -0.0938,0.532028 -0.14435,0.801688 -0.0505,0.26966 -0.10104,0.53932 -0.15156,0.808976 -0.0215,0.09474 -0.0433,0.182201 -0.0649,0.276945 -0.44028,1.97507 -1.06822,3.877256 -1.86937,5.684709 -0.0215,0.0437 -0.0433,0.0875 -0.0577,0.13117 -0.18045,0.40084 -0.36811,0.80168 -0.56297,1.18795 -0.0649,0.13121 -0.12993,0.25509 -0.19487,0.37898 -0.15156,0.2988 -0.31038,0.59762 -0.47637,0.88914 -0.11546,0.20406 -0.23096,0.40084 -0.35368,0.60491 -0.12271,0.20406 -0.24539,0.41542 -0.3681,0.61949 -0.0433,0.0729 -0.0866,0.14578 -0.12993,0.21134 0.0722,0.051 0.24539,-0.15306 0.51245,-0.66321 0.21655,0.58304 -0.87333,1.44303 -1.18369,1.80015 0.84446,0.77982 1.09707,-0.9766 1.66727,-1.21711 -0.21654,1.21711 -1.393,2.05524 -1.66006,3.04642 0.27428,-0.22595 0.9383,-1.02762 1.56623,-1.93863 -0.21655,0.53203 -0.35365,1.21711 -0.5702,1.87304 -0.0505,0.15306 -0.10825,0.30608 -0.18044,0.44457 0.38253,-0.40813 0.76507,-0.78711 1.00325,-1.08593 0.007,0.0875 -0.0146,0.17492 -0.0288,0.26238 0.0288,-0.0144 0.0505,-0.0437 0.0794,-0.0583 -0.0361,1.38474 -1.85493,2.17185 -2.31686,3.79709 0.48358,0.13845 0.48358,-1.1005 1.14038,-1.09321 -0.20929,-0.13845 0.15878,-0.6122 0.65682,-1.1005 0.50522,-0.4883 1.06099,-1.07864 1.38577,-1.31186 -0.75785,1.39931 -1.559,2.29575 -2.30242,3.27964 -0.36089,0.50288 -0.7795,0.96932 -1.23421,1.48677 -0.44028,0.53203 -0.92386,1.11508 -1.47962,1.78558 1.36414,-1.31914 2.80044,-1.88032 4.40275,-3.64404 -1.26308,0.47373 0.35369,-0.69237 0.83725,-0.7361 -0.15877,-0.42271 0.24539,-1.07134 0.80116,-1.78558 0.13713,0.10203 -0.0794,0.35712 -0.16603,0.5539 2.28077,-2.28846 3.7676,-5.8086 5.35548,-9.948236 -0.13714,0.728807 -0.31037,1.450336 -0.49802,2.164566 -0.21655,0.70694 -0.51245,1.37745 -0.78672,2.04795 -0.0866,0.22591 -0.18766,0.43728 -0.28149,0.64864 0.26707,-0.45186 0.53411,-0.82356 0.70012,-0.85999 0.20929,-0.40814 0.0215,-0.51746 0.14435,-0.86 0.24539,-0.14577 0.16602,0.43729 -0.0288,1.12237 -0.18765,0.68508 -0.59906,1.41388 -0.78672,1.61066 -0.10104,-0.10931 -0.0288,-0.33526 -0.18765,-0.40813 -0.88055,1.72727 -0.89499,1.56694 -0.59907,0.88914 -0.30316,0.53932 -0.62071,1.05678 -0.92385,1.57423 -0.3248,0.58305 -0.71455,1.1005 -1.07543,1.61795 -0.15877,0.30609 -0.31037,0.6122 -0.48358,0.91102 -0.38975,0.61948 -0.84446,1.19524 -1.28474,1.771 -0.2526,0.34983 -0.51967,0.6705 -0.80115,0.98389 -0.11547,0.18948 -0.23097,0.37169 -0.33201,0.56118 0.72898,-0.71423 1.40743,-1.37745 2.02094,-2.05524 0.20208,-0.37897 0.4908,-0.7944 0.8228,-1.27541 0.0433,0.0656 0.0577,0.13117 0.0722,0.19677 0.007,-0.007 0.0146,-0.0144 0.0215,-0.0292 0.41862,-0.53931 0.82281,-1.06406 1.22699,-1.5888 0.36811,-0.55389 0.70733,-1.12965 1.06821,-1.71269 1.4291,-2.33219 2.68496,-5.11624 3.7676,-9.197564 0.007,0.903723 -0.20933,1.858461 -0.50523,2.842354 -0.28148,0.98389 -0.61349,2.01151 -1.08264,2.98082 -0.81559,1.99694 -1.89823,3.8554 -2.51895,5.64827 -0.21654,0.16763 -0.24539,0.0656 -0.34643,-0.0292 -0.0433,0.0656 -0.0794,0.13845 -0.12272,0.20406 -0.52689,0.88185 -1.10429,1.77829 -1.81162,2.59455 -0.31759,0.42271 -0.64959,0.83085 -0.98882,1.23169 0.36811,-0.21863 0.76507,-0.35712 0.59184,-0.53203 0.6929,-0.53932 0.2093,0.64864 -0.15156,1.01304 0.40419,0.007 1.05378,-0.41542 0.54132,0.45915 0.37532,0.19677 0.89499,-0.46644 1.32083,-0.48101 0.0794,-0.25509 0.18045,-0.4883 0.41863,-0.83084 l 0.69289,-1.01304 c 0.43305,-0.80169 0.9455,-1.69813 1.54457,-2.58727 0.47637,-0.68508 0.8589,-1.45033 1.3136,-2.12813 0.42584,-0.69965 0.90221,-1.33371 1.26309,-1.92404 0.16602,-0.16035 -0.68567,1.79286 -1.03212,2.9298 -0.0794,-0.007 -0.12993,-0.0366 -0.15878,-0.0802 -0.46192,1.31914 -1.3136,2.51439 -2.61278,4.29268 -0.0433,0.0656 -0.0722,0.13117 -0.11546,0.19677 -0.007,-0.007 -0.0146,-0.007 -0.0146,-0.0144 -0.0361,0.051 -0.0649,0.0947 -0.10825,0.14577 0.0288,-0.0583 0.0505,-0.10931 0.0794,-0.16763 -0.15877,-0.16763 -0.35368,0.0144 -0.56297,0.26966 -0.62793,1.54508 -1.41465,2.64558 -2.20859,3.82624 -0.4475,0.56119 -0.90942,1.13695 -1.40743,1.77101 -0.49803,0.64135 -1.0177,1.36287 -1.67449,2.12812 -1.14761,-0.051 -1.99207,2.12083 -3.681,2.9954 0.2454,-0.14578 1.16205,-0.40813 2.00651,-0.85271 0.41862,-0.2478 0.81558,-0.53203 1.10429,-0.84542 -0.18765,0.0875 -0.3681,0.13117 -0.54854,0.10203 0.3681,-0.24052 0.67846,-0.51017 0.95272,-0.78711 0.0215,-0.0947 0.0361,-0.1822 0.0288,-0.27695 0.16603,-0.0875 0.2454,-0.0875 0.2887,-0.051 0.62072,-0.6705 1.11152,-1.31914 1.86215,-1.59609 -0.43305,0.22591 -1.11151,1.28999 -1.82606,2.0188 0,0.0144 0.007,0.0292 0.007,0.0366 0.62072,-0.72152 0.70733,-0.86728 1.3497,-0.90372 0.31758,-0.40085 -0.4114,-0.0437 -0.007,-0.48831 0.51967,-0.19677 1.00325,-0.3644 2.09311,-1.20982 0.20933,-0.21134 0.42584,-0.40813 0.62794,-0.62677 -0.15157,-0.14578 -0.38976,0.0437 -0.64959,0.27694 1.31361,-1.26813 2.5406,-2.67472 3.69543,-4.19064 -0.13714,0.0802 -0.27428,0.0947 -0.38975,-0.0144 0.47636,-0.58304 0.86611,-1.23168 1.27751,-1.86575 0.007,0.15306 -0.14435,0.69966 -0.36811,1.18796 2.41069,-3.31608 4.44606,-7.17876 6.01228,-11.6172 0.51967,0.007 -0.67123,1.66897 -0.16602,1.69084 0.72898,-0.93288 1.20534,-3.461843 1.58066,-5.079799 -0.55576,-0.444573 -0.50523,1.224397 -0.76507,1.86575 -0.43306,0.743389 0.31037,-2.703878 0.62072,-2.907946 0.33922,0.561183 0.20933,1.7127 -0.0794,3.009978 -0.36811,1.275417 -0.90942,2.689307 -1.24143,3.877257 -0.0794,-0.21862 -0.15877,-0.42999 -0.39697,-0.49558 -0.0938,0.31337 -0.20929,0.62677 -0.33922,0.93287 0.36811,0.14577 0.40419,-0.0656 0.56298,0.94745 -0.0505,0.25509 -0.19487,0.39355 -0.35365,0.48101 -0.0577,0.15306 -0.1155,0.30609 -0.18766,0.46644 -0.33201,0.76524 -0.89498,1.58151 -1.07543,2.17184 0.0146,-0.53931 0.15157,-0.94016 0.33923,-1.33371 -0.17324,0.0292 -0.31034,-0.0583 -0.67124,0.52474 0.12271,0.64135 -0.27428,1.66168 -0.85168,2.79133 -0.68568,1.13695 -1.57344,2.36134 -2.19416,3.41811 -0.0146,-0.14577 -0.0361,-0.28423 -0.0938,-0.40084 -0.18045,0.2478 -0.36089,0.49559 -0.54132,0.74338 0.15877,0.0948 0.19487,0.16764 0.11546,0.94017 -0.39696,0.80897 -1.52291,0.0218 -0.96715,0.94745 -0.67845,0.6705 -0.71454,0.37897 -0.9816,0.42999 -0.75785,0.96932 -1.4363,1.87304 -1.91989,2.59456 -0.0146,-0.10203 -0.0505,-0.15306 -0.0938,-0.17492 -0.65681,0.69966 -1.47962,1.50135 -2.44677,2.25202 -0.54855,0.44457 -1.1043,0.89643 -1.66727,1.34829 -0.007,0.007 -0.0146,0.0144 -0.0215,0.0144 0.18045,0.0437 0.40419,0.10202 0.13714,0.48101 0.20208,0.1166 0.4114,-0.0218 0.60628,-0.22591 -0.0288,0.0144 -0.0577,0.0366 -0.0938,0.0656 0.0577,-0.3644 0.31038,-0.5466 0.6135,-0.69236 0.12272,-0.13117 0.22376,-0.20406 0.30316,-0.13117 0.34643,-0.13846 0.71454,-0.28423 0.9816,-0.57576 0.0649,0.4883 -0.48358,0.63406 -0.89499,0.75796 0,0.007 0.007,0.007 0.007,0.0144 -0.16602,0.13846 -0.28149,0.25509 -0.38253,0.35712 0.0288,0.0292 0.0577,0.0656 0.10825,0.10931 -0.10825,0.0729 -0.18765,0.0802 -0.26706,0.0656 -0.31759,0.38626 -0.24539,0.53932 -0.54855,0.80898 -0.48358,0.19677 -0.83724,0.10203 -1.06099,-0.28423 -0.8589,0.58304 -0.97438,0.96931 -1.04656,1.4066 0.92386,-1.2827 0.23818,0.30608 1.46518,-0.83813 0.0505,0.20406 -0.44749,0.51745 -0.32479,0.69965 0.85889,-0.23323 2.20137,-1.61066 3.13966,-2.09167 -1.11874,1.04219 -2.5406,2.41964 -3.86143,3.39624 -1.29195,1.01305 -2.28799,1.90219 -2.35295,2.21558 0.0649,0.43728 -1.74666,0.6122 -0.48358,-0.13845 -0.51967,0.16034 -2.23024,1.80744 -3.87586,2.39049 0.50523,0.0437 1.11873,-0.10203 0.61349,0.51016 1.50849,-0.45915 1.05378,-0.51745 2.14364,-1.27541 -0.10104,0.21134 -0.19487,0.42999 -0.0722,0.64135 0.95273,-0.71423 0.4547,-0.75067 1.58066,-0.85271 -3.57272,2.20099 -8.34356,4.1542 -13.32372,5.27656 -2.425194,0.63406 -4.973019,0.88186 -7.405359,1.07864 -1.212559,0.0366 -2.410683,0.051 -3.55829,0.051 -1.154818,0.0218 -2.251897,-0.13845 -3.305671,-0.21134 -0.368105,0.26966 -0.801159,-0.0947 -1.320827,-0.3644 -0.461927,-0.0583 -0.90942,-0.13117 -1.364131,-0.20406 -0.07941,0.16763 0.461927,0.53932 -0.562973,0.27694 -0.346432,-0.20405 -0.894989,-0.41542 -1.55901,-0.63406 -0.108253,-0.0218 -0.216506,-0.0366 -0.324797,-0.0583 -1.183689,-0.28423 -2.338511,-0.58304 -3.450021,-0.88185 -1.118733,-0.27695 -2.143637,-0.72153 -3.139667,-1.07135 -0.461927,0.1822 -0.801155,-0.38626 -1.291957,-0.80169 -0.375317,-0.15306 -0.75785,-0.30609 -1.133164,-0.46644 -0.180447,0.10932 0.324797,0.67779 -0.627932,0.13849 -0.310373,-0.32069 -0.851684,-0.70694 -1.522921,-1.13694 -0.173235,-0.0875 -0.353682,-0.16763 -0.519671,-0.26237 -0.837245,-0.43728 -1.645616,-0.85271 -2.389035,-1.26813 -0.714546,-0.45186 -1.371348,-0.88185 -1.948759,-1.26812 1.934324,1.48677 3.883082,2.57998 5.774101,3.69506 1.970409,0.95473 3.897517,1.96778 6.084459,2.63828 -3.016963,-0.61949 -5.810183,-1.85846 -8.401312,-3.2432 z m 61.638517,-24.31303 c 0.0505,-0.10932 0.10104,-0.22595 0.15156,-0.34255 -0.19487,0.0656 -0.30316,0.13117 -0.15156,0.34255 z m -13.77123,10.01382 c -0.0649,0.0656 -0.13714,0.13117 -0.20208,0.20406 0.12271,0.0366 0.23818,0.0292 0.36089,0.007 -0.0722,-0.0292 -0.0866,-0.12389 -0.15877,-0.21134 z M 3.984149,36.368641 c 0.129927,-0.429995 0.252603,-0.838131 0.332009,-1.202535 -0.151562,0.364404 -0.2887,0.714237 -0.425838,1.064059 0.02877,0.08746 0.05773,0.138492 0.09383,0.138492 z m 66.495985,48.903016 c -0.38253,0.37169 -0.86612,0.73609 -1.32083,1.1005 0.0215,0.0292 0.0288,0.051 0.0649,0.0802 0.75785,-0.38625 1.6384,-0.92559 1.43631,-1.31185 -0.0505,0.0366 -0.11547,0.0875 -0.18045,0.13117 z m -5.16061,3.22862 c 0.14435,-0.1166 0.26707,-0.24052 0.35368,-0.37898 -0.23096,0.10932 -0.48358,0.21863 -0.80837,0.31337 0.12271,0.0583 0.28149,0.0729 0.45471,0.0656 z m 0.70733,-0.22595 c 0.0215,-0.0144 0.0433,-0.0218 0.0722,-0.0292 0.23097,-0.16035 0.40419,-0.26966 0.55576,-0.35712 0.0361,-0.0292 0.0794,-0.051 0.11546,-0.0875 0.67846,-0.53932 1.29918,-1.21711 1.63119,-1.51592 -1.20535,0.51017 -1.52292,1.09321 -2.28799,1.5888 0.007,0.10203 -0.10104,0.27695 -0.0866,0.40085 z m 4.92963,-0.34984 c 0.63515,-0.40813 1.08265,-0.74338 0.65681,-0.65593 -0.57741,0.47373 -1.1476,0.6778 -1.60231,0.85271 -0.4475,0.18949 -0.77951,0.37897 -0.92386,0.81626 0.34644,-0.21862 1.21257,-0.63406 1.86936,-1.01304 z m 1.41466,-0.0875 1.98485,-1.341 -0.2093,-0.29152 c -0.56297,0.5539 -2.36738,1.20982 -1.77553,1.63253 z m 14.06715,-17.6663 c -0.0215,-0.0292 -0.0433,-0.0292 -0.0649,-0.051 -0.11547,0.31337 -0.28149,0.68508 -0.50524,1.10779 -0.46914,0.91101 -1.12594,2.04795 -1.97041,3.16303 0.87333,-0.91101 1.84049,-2.90066 2.5406,-4.2198 z m -9.82319,5.15996 c -0.0215,-0.0656 -0.0146,-0.1312 -0.007,-0.18948 -0.84446,0.98389 -1.67449,1.93134 -2.32408,2.90065 0.34643,-0.16763 0.70011,-0.53203 1.07543,-0.96931 0.2887,-0.34984 0.62071,-0.72881 0.93107,-1.13695 0.31038,-0.40813 0.64237,-0.81626 1.01769,-1.1588 -0.18766,-0.10203 -0.4475,0.30609 -0.69289,0.5539 z m 3.0314,-4.94132 c -0.0433,0.13849 -0.12992,0.31341 -0.23818,0.51745 0.11547,-0.16763 0.23097,-0.34254 0.34644,-0.51745 -0.0361,0 -0.0649,-0.007 -0.10826,0 z m -5.04511,0.59762 c -0.23818,0.21863 -0.47637,0.44458 -0.70733,0.69237 0.28148,-0.0656 0.4908,-0.34983 0.70733,-0.69237 z m -0.89499,0.66322 c -0.0146,0.007 -0.0215,0.0218 -0.0361,0.0292 0.007,0 0.0146,0 0.0215,0 10e-6,-0.007 0.007,-0.0218 0.0146,-0.0292 z M 35.489082,4.942448 c -0.916639,0.291515 -1.645616,0.583045 -1.566226,0.612189 0.0073,0 0.01458,0 0.02148,0 0.664021,-0.25509 1.176469,-0.451866 1.544571,-0.612189 z m -10.775913,4.48216 c -0.230968,0.08017 -0.721765,0.364404 -1.342481,0.808976 0.64959,-0.378973 1.089863,-0.641348 1.356916,-0.816265 -0.0073,0.0074 -0.0073,0.0074 -0.01458,0.0074 z m -4.677022,2.244731 c 0.05052,-0.03662 0.101041,-0.05832 0.151561,-0.09474 0.317585,-0.233236 0.649586,-0.459151 0.967164,-0.685086 -0.396972,0.255091 -0.786721,0.517454 -1.118733,0.779825 z M 1.169276,52.978174 c 0.216544,-0.153062 0.332008,-0.714233 0.389752,-1.523205 0.02877,-0.685081 0.07219,-1.552356 0.122715,-2.514383 -0.0073,-0.25509 -0.02877,-0.488302 -0.07219,-0.670503 0.03606,0.09474 0.07219,0.145777 0.101041,0.196771 0.02148,-0.400847 0.05052,-0.808976 0.07941,-1.224397 -0.259815,0.08746 -0.0722,-1.523205 0.2887,-3.687766 0.09383,-0.481017 0.216544,-0.991182 0.33922,-1.515924 C 2.569486,41.127758 2.78603,40.33336 3.01699,39.684715 3.0603,39.502513 3.11082,39.320312 3.154128,39.13811 c 0.02148,-0.08017 0.04331,-0.160347 0.07216,-0.24052 -0.433058,0.400847 0.324797,-1.260842 0.555756,-2.383199 -0.209293,0.539316 -0.418622,1.071347 -0.606281,1.581512 -0.332008,0.932874 -0.555757,1.843883 -0.801155,2.718454 -0.216544,0.845421 -0.440277,1.668971 -0.599062,2.470662 -0.02877,0.218626 -0.05773,0.42271 -0.08662,0.648637 -0.0073,0 -0.0073,-0.0074 -0.01458,-0.01441 -0.101041,0.641352 -0.202082,1.275415 -0.281488,1.909479 -0.09383,0.816269 -0.216544,1.625245 -0.252603,2.456087 -0.02148,0.830839 -0.03606,1.668971 -0.02877,2.543539 -0.02148,0.692358 0.0073,1.413876 0.05773,2.149975 z m 25.528737,40.754943 c -0.736196,-0.28423 -2.057019,-1.39931 -2.396251,-1.13694 0.447493,0.30608 0.411407,0.56847 0.815595,0.87457 0.09383,-0.51017 1.320823,0.53931 1.580656,0.26237 z m 60.996151,-28.60571 c 0.10825,-0.54661 0.10825,-1.1661 0.0649,-1.31915 -0.23097,0.72153 -0.44028,1.45033 -0.75785,2.13541 0.3248,0.16763 0.58463,-0.26966 0.69289,-0.81626 z m 3.13966,-9.700438 c 0.0794,0.911008 -0.0505,1.574223 -0.18044,2.171846 -0.15157,0.597623 -0.26707,1.129654 -0.0938,1.843883 0.0215,-0.612197 0.35364,-1.545071 0.47637,-2.37591 0.12992,-0.830843 0.16598,-1.537787 -0.20212,-1.639819 z m -12.71023,9.729588 c 0.34643,-1.32643 1.71057,-2.38321 1.37134,-3.316078 -0.36089,0.852708 -1.45795,2.375918 -1.37134,3.316078 z m 2.14363,-5.764873 c -0.0505,0.663215 -0.98881,1.996933 -0.28149,2.077099 -0.18045,-0.874568 0.82281,-1.719984 0.28149,-2.077099 z m 9.74379,19.692393 c 0.54133,-0.86 1.3064,-1.82931 1.99207,-2.82049 0.67124,-0.99118 1.17647,-2.05523 1.36414,-2.95167 -0.54133,0.94016 -1.21256,2.12812 -1.94876,3.13387 -0.70734,1.03491 -1.29196,1.98236 -1.40745,2.63829 z m -23.11083,17.57156 c -0.12272,-0.18949 -0.25261,-0.32798 -0.83725,-0.0583 l 0.18766,0.49559 c 0.90943,-0.29152 1.73224,-0.69237 1.6384,-1.06406 -0.4908,0.20405 -0.74341,0.41542 -0.98882,0.62677 z m 24.27287,-26.90759 c 0.33201,-1.09321 1.29195,-2.82049 1.27753,-3.62946 0.46914,-1.23169 0.80836,-2.37592 0.64236,-2.8132 -0.24539,0.7944 -0.67846,1.96778 -1.08986,3.12658 -0.41862,1.15152 -0.93829,2.25202 -1.11873,3.02456 0.18766,-0.41542 0.46193,-0.94017 0.75063,-1.51592 0.10104,-0.18949 0.19487,-0.39356 0.29591,-0.59034 -0.40419,0.94016 -0.84446,1.90948 -0.75785,2.39778 z m -10.63878,6.69045 c -0.52689,0.53204 -0.88777,0.99118 -1.13317,1.31914 -0.25981,0.3207 -0.3681,0.53204 -0.34647,0.59763 0.0288,0.12388 0.64238,-0.34255 1.47962,-1.91677 z m -1.00325,4.86844 c 1.16204,-1.43575 2.69218,-3.25777 4.10683,-5.18182 -0.10825,0.007 -0.20929,0.0218 -0.33922,0.20406 -0.0794,-0.85271 1.05377,-1.0422 1.47962,-1.85118 0,0.007 0,0.0144 0.007,0.0218 0.4908,-0.7361 0.95996,-1.4722 1.35692,-2.201 -0.12272,0.58304 -0.59907,1.39202 -1.16204,2.23015 -0.0577,0.0875 -0.11546,0.16763 -0.17323,0.25509 -0.0288,0.12388 -0.11547,0.24052 -0.22376,0.33526 -0.4475,0.64865 -0.90943,1.27542 -1.29196,1.80745 l -1.78997,2.26659 c -0.62794,0.72881 -1.30639,1.41389 -1.97041,2.11355 z m 4.28727,-5.42233 c 0.10826,-0.15306 0.21655,-0.30608 0.3248,-0.45915 -0.27428,0.16763 -0.48358,0.30612 -0.3248,0.45915 z m -38.592638,22.64407 c -0.707326,-0.0144 -1.024904,-0.0729 -1.010469,-0.18221 0.490798,0.0802 1.010469,0.15307 1.551791,0.23324 -0.05773,0.051 -0.129926,0.0875 -0.180447,0.15306 1.291957,0.051 2.728264,0.1822 4.243961,0.16035 1.515701,0.0144 3.118016,0.0656 4.691458,-0.0947 1.58066,-0.1166 3.161317,-0.24781 4.597628,-0.59762 1.443526,-0.3207 2.807656,-0.61949 3.904736,-1.13695 -1.11873,0.1822 -2.302421,0.37898 -3.500545,0.56847 0.837249,-0.17491 1.717795,-0.37168 2.619995,-0.62677 1.4724,-0.38626 3.02419,-0.75067 4.51102,-1.31914 1.49405,-0.52474 2.98809,-1.07135 4.28727,-1.7783 1.3136,-0.68507 2.54782,-1.33371 3.47889,-2.12083 -4.04187,1.8366 -8.85602,4.0959 -12.91955,4.79556 0.25986,-0.1166 0.70011,-0.21134 0.65681,-0.38626 -0.54854,0.45186 -1.486828,0.68508 -2.345727,0.83084 -0.786717,0.14578 -1.472397,0.32798 -1.73223,0.80898 -0.267065,0.0366 -0.534107,0.0729 -0.80116,0.10931 0.108253,-0.0292 0.216544,-0.0656 0.317585,-0.0947 -1.060989,0.25509 -1.263083,0.19677 -0.786716,-0.21134 -1.010469,0.32797 -2.215812,0.45186 -3.493334,0.59033 -0.635148,0.0656 -1.291957,0.1166 -1.955974,0.16035 -0.166024,0.007 -0.339221,0.007 -0.505233,0.007 -0.526891,-0.007 -1.046554,-0.0366 -1.551791,-0.0802 0.281489,-0.0437 0.728981,-0.0218 0.736197,-0.19677 -0.64959,0.29152 -1.616746,0.27695 -2.482865,0.18949 -0.389753,-0.0292 -0.757855,-0.0438 -1.075425,-0.0144 -0.295911,-0.0144 -0.613496,-0.0218 -0.894988,-0.051 -0.396969,-0.0366 -0.779505,-0.0656 -1.154819,-0.0947 0.02148,-0.0144 0.04331,-0.0218 0.07219,-0.0366 -0.209332,0.007 -0.433057,0 -0.64959,-0.007 -0.158774,-0.007 -0.310374,-0.0144 -0.461928,-0.0292 -0.765066,-0.0583 -1.573441,-0.1822 -2.410686,-0.31341 -0.635151,-0.10203 -1.277518,-0.22591 -1.927104,-0.35712 -0.649586,-0.13117 -1.284738,-0.34255 -1.919889,-0.51745 -0.0073,0 -0.01458,-0.007 -0.02148,-0.007 0.14435,-0.0292 0.295912,-0.0875 0.368106,-0.16035 -1.429091,-0.33526 -2.822093,-0.83813 -4.22953,-1.28999 -0.88055,0.0729 2.533386,0.95474 3.47168,1.28999 0,0.0218 0.02877,0.0292 0.03606,0.051 -1.133164,-0.33526 -2.251897,-0.64135 -3.240712,-1.01304 -1.104294,-0.40813 -2.107543,-0.76525 -2.944788,-0.99846 0.851676,0.40084 1.93432,0.88914 3.139663,1.4066 1.219778,0.47372 2.591129,0.88914 3.962477,1.30456 0.685671,0.21866 1.378563,0.37897 2.078673,0.49559 0.692892,0.13121 1.371352,0.2478 2.020934,0.34255 0.64959,0.0875 1.270303,0.18948 1.847714,0.21134 0.591846,0.0366 1.125949,0.0292 1.602311,0.007 z m 43.132528,-24.10168 c -0.44028,0.70694 -1.16204,1.72727 -1.85493,2.73303 -0.70011,1.00575 -1.47961,1.93134 -1.85493,2.63099 0.2887,-0.34983 0.68567,-0.78711 1.11151,-1.26812 0.44028,-0.47373 0.88055,-0.99847 1.25587,-1.54508 0.77229,-1.06405 1.393,-2.08439 1.34248,-2.55082 z m -46.690813,25.23133 c 0.534102,0.0656 1.082643,0.11659 1.609526,0.13845 0.534107,-0.007 1.039339,-0.0292 1.472397,-0.051 -0.541322,0.0144 -1.097079,-0.0144 -1.631181,-0.10202 -0.534107,-0.10203 -1.06099,-0.22595 -1.559007,-0.34255 -0.988814,-0.23324 -1.854929,-0.44457 -2.475645,-0.37898 0.534102,0.37169 1.515697,0.60492 2.58391,0.7361 z M 94.153944,55.725781 c -0.43307,1.253548 0.0505,0.466435 0,0 z M 16.427333,86.466897 c -0.642367,-0.46643 -1.623966,-1.88761 -2.020934,-1.72727 0.353644,0.41542 0.245391,0.65593 0.562976,1.05677 0.223756,-0.45915 1.140384,0.87457 1.457958,0.6705 z M 79.126844,60.761843 c -0.16599,0.757962 -0.9816,1.931344 -0.72898,2.412354 0.52688,-0.76525 0.82281,-1.523209 0.72898,-2.412354 z M 35.582911,2.974658 c 0.461928,-0.123883 0.90942,-0.247805 1.328043,-0.357118 0.837245,-0.247805 1.559006,-0.50288 2.042588,-0.816257 -1.645616,0.488294 -3.60881,0.889145 -4.756413,1.617952 0.469143,-0.153062 0.93107,-0.2988 1.385782,-0.444577 z m 61.847823,38.1531 c 0.59907,0.32794 1.19813,0.612193 1.66006,1.311856 -0.0361,-1.246264 -0.43306,-1.406599 -0.62072,-2.332185 -0.54855,0.07289 -0.91664,0.378973 -1.03934,1.020329 z M 49.346918,1.473312 c -1.198128,-0.02182 -3.067492,-0.63405996 -4.215091,-0.03662 0.281488,0.641352 3.543854,0.612209 4.215091,0.03662 z m 42.851046,61.657155 c 0.55575,-0.4883 1.559,-3.031839 1.31361,-4.074035 -0.4908,1.115073 -1.50849,3.308785 -1.31361,4.074035 z M 71.129714,6.902933 c 0.7795,0.378973 1.5157,0.736095 2.23024,1.078636 0.70011,0.371688 1.40022,0.721522 2.10033,1.056773 -0.73619,-0.45915 -1.53013,-0.947452 -2.34572,-1.443043 -0.83726,-0.451858 -1.69615,-0.911016 -2.54061,-1.370159 -1.67449,-0.932871 -3.3995,-1.530494 -4.77807,-1.851164 1.03212,0.459151 1.98485,0.881865 2.87262,1.282697 0.88055,0.444572 1.69614,0.859994 2.46121,1.24626 z M 47.037281,0.47484504 c 1.017688,-0.09474 2.020937,-0.225911 3.002528,-0.28423 0.988818,-0.04375 1.941543,-0.08746 2.872618,-0.131168 -1.089863,-0.03662 -2.186938,-0.0656 -3.262363,-0.05832 -1.075424,0.05832 -2.136417,0.145777 -3.168536,0.247805 -0.512452,0.05832 -1.017685,0.116598 -1.515702,0.174917 -0.498013,0.08017 -0.974379,0.189486 -1.450742,0.291514 C 42.576795,0.92670504 41.681806,1.167225 40.859,1.429596 42.923234,1.036045 44.994692,0.63519404 47.037281,0.47485504 Z"
            style="fill:url(#linearGradient5087);fill-opacity:1;fill-rule:nonzero;stroke:none;stroke-width:0.725277"
            id="path5089" />
        <path
            d="m 54.127964,56.695257 c -1.079558,2.398765 -4.103684,4.520552 -5.688967,5.507074 l -0.0051,0.0035 c -0.599376,0.372722 -0.992717,0.584732 -0.992717,0.584732 0,0 -0.517643,-0.276981 -1.270269,-0.759126 l -0.0017,-0.0017 c -1.638068,-1.049781 -4.394859,-3.068983 -5.41482,-5.334388 -1.105101,-2.451767 -0.43591,-4.806078 1.495035,-5.929377 1.770884,-1.029263 3.981085,-0.210298 5.191757,1.815743 1.210672,-2.026041 3.420872,-2.845006 5.191757,-1.815743 1.930945,1.123299 2.600135,3.47761 1.495035,5.929377 z M 59.541082,28.698272 C 59.094955,28.245191 58.495578,27.993859 57.853633,27.99044 h -0.01192 c -1.294108,0 -2.35153,1.030972 -2.361747,2.301309 l -0.09535,12.308415 c -0.01703,0.483857 -0.423991,0.765964 -0.81052,0.765964 -0.481885,-0.01368 -0.842873,-0.362465 -0.830954,-0.795029 l 0.102167,-17.60006 c 0.0068,-1.302822 -0.968879,-2.379957 -2.22212,-2.453476 -0.667488,-0.04103 -1.294108,0.186362 -1.777696,0.641153 -0.464857,0.435983 -0.723679,1.025843 -0.73049,1.658447 l -0.129411,16.092069 -0.165169,0.254751 c -0.18901,0.200039 -0.406965,0.290656 -0.62492,0.292366 -0.481885,-0.01368 -0.836062,-0.340239 -0.834358,-0.762544 L 47.47693,20.780468 c 0.0085,-1.299402 -0.96377,-2.373119 -2.215309,-2.444928 -0.650459,-0.03932 -1.312838,0.205169 -1.77429,0.641152 -0.463154,0.435984 -0.720273,1.024134 -0.723678,1.655028 l -0.0017,0.232525 c -0.0085,1.470377 -0.05279,9.38647 -0.05279,10.323408 l -0.09536,8.490566 c -0.04427,0.401789 -0.352474,0.690735 -0.71857,0.704413 -0.49721,-0.01368 -0.842873,-0.335109 -0.839468,-0.764254 l 0.120897,-15.054256 c 0.01022,-1.331888 -0.984203,-2.43467 -2.264689,-2.509898 -0.672596,-0.04103 -1.333272,0.200039 -1.815156,0.65312 -0.475074,0.446242 -0.740707,1.048071 -0.745816,1.694352 l -0.217955,26.218857 c -0.01022,0.253041 -0.08514,0.463339 -0.219657,0.618925 -0.124303,0.155587 -0.340555,0.242783 -0.563618,0.218847 -0.420586,-0.05642 -0.599377,-0.410338 -0.643649,-0.518051 L 31.520233,42.726685 C 31.482773,42.639485 31.41466,42.504419 31.36528,42.43432 L 31.3159,42.35738 C 31.183083,42.111178 31.038348,41.916267 30.864665,41.745294 30.41343,41.295632 29.805539,41.04601 29.15508,41.039171 c -1.377544,-0.0171 -2.445183,1.04978 -2.462211,2.405603 0.0034,0.13507 0.02384,0.307754 0.05108,0.437694 0.02895,0.186362 0.0596,0.307753 0.105572,0.437693 l 1.764074,4.838563 c 0.539779,1.478925 1.038691,2.998883 1.481413,4.515422 l 1.476305,5.05741 c 0.253713,0.661669 0.45464,1.302822 0.648757,1.921748 0.597673,1.9132 1.532496,3.304924 3.187592,5.418165 1.862834,2.378246 3.308489,4.134149 3.397033,6.430332 0.0034,0.07181 0.01022,1.986716 0.01533,2.638126 l -0.238388,5.361744 c -0.01873,0.396659 0.297985,0.730059 0.694731,0.730059 H 55.15303 c 0.393341,0 0.708354,-0.32827 0.694732,-0.723223 l -0.14133,-4.125601 c -0.05108,-1.405407 -0.102167,-4.541068 0.316715,-5.943052 0.354177,-1.176301 0.991015,-2.226082 1.561444,-3.116858 0.279255,-0.439401 0.504021,-0.793319 0.643648,-1.114748 0.454641,-1.036104 0.885443,-2.015784 1.093181,-3.058724 0.580646,-2.911687 0.689624,-6.271325 0.703246,-9.017167 l 0.17879,-23.804705 c 0.0051,-0.610376 -0.229875,-1.189978 -0.662379,-1.629381"
            style="fill:#ffffff;fill-opacity:1;fill-rule:nonzero;stroke:none;stroke-width:0.436801" id="path5173" />
    </g>
</svg>