<?xml version="1.0" encoding="UTF-8" standalone="no"?>
<svg xmlns:dc="http://purl.org/dc/elements/1.1/" xmlns:cc="http://creativecommons.org/ns#"
    xmlns:rdf="http://www.w3.org/1999/02/22-rdf-syntax-ns#" xmlns:svg="http://www.w3.org/2000/svg"
    xmlns="http://www.w3.org/2000/svg" version="1.1" id="svg885" xml:space="preserve" width="100" height="100"
    viewBox="0 0 100 100">
    <defs>
        <linearGradient x1="-0.39899999" y1="68.556999" x2="137.05499" y2="68.556999" gradientUnits="userSpaceOnUse"
            gradientTransform="matrix(-0.02627957,-0.1728893,-0.17121801,0.02653607,-51.269255,-660.85774)"
            spreadMethod="pad" id="linearGradient5015">
            <stop style="stop-opacity:1;stop-color:#181c3f" offset="0" id="stop5011" />
            <stop style="stop-opacity:1;stop-color:#203572" offset="1" id="stop5013" />
        </linearGradient>
    </defs>
    <g id="g8266" style="display:inline">
        <path
            d="m 76.947162,85.351824 c -0.505225,1.122365 -2.114765,1.464902 -3.334544,2.499813 -0.433058,0.225911 0.137136,-0.233236 0.959945,-0.823554 0.822809,-0.568472 1.804408,-1.39931 2.374599,-1.676259 z m 0.288695,5.189112 0.310369,0.429999 c 0.801158,-0.517453 1.49405,-1.122365 1.30639,-1.450328 -0.418631,0.327978 -0.606279,0.590334 -0.786719,0.859994 -0.166021,-0.153062 -0.332004,-0.25509 -0.830032,0.160347 z M 89.852276,64.289274 c 0.324792,-0.954741 0.584625,-1.858461 0.548536,-2.456084 -0.866109,3.542009 -2.822091,7.623334 -4.070743,10.421954 0.461928,-0.845416 0.938302,-1.683548 1.364134,-2.550827 l 1.147604,-2.660152 c 0.303119,-0.794398 0.692889,-1.800154 1.010469,-2.754891 z M 81.573657,13.48407 c 0.894986,0.663215 1.645617,1.406599 2.396252,2.084387 0.736197,0.692371 1.465178,1.348297 2.10755,2.0188 1.255863,1.377448 2.468418,2.616415 3.522195,3.862683 0.02148,0.02922 0.05052,0.05832 0.07215,0.08746 0.230964,0.619486 0.353676,1.209828 0.324792,1.756433 0.692895,0.874564 1.226997,1.785572 1.775542,2.638285 0.534101,0.867283 1.068199,1.683544 1.522916,2.499813 0.01458,0.02182 0.02148,0.04375 0.02877,0.05832 -0.0073,0.08746 -0.02148,0.167631 -0.01458,0.26966 0.05773,0.01441 0.122713,0.02922 0.180444,0.04375 0.793939,1.515924 1.566224,2.915231 2.215812,4.278104 0.678465,1.486769 1.414665,2.871505 2.093115,4.248953 0.656803,1.384736 1.385784,2.73303 2.201377,4.110478 -0.512452,-1.406599 -1.111512,-3.060993 -1.753876,-4.846577 -0.750628,-1.727274 -1.443527,-3.607597 -2.280775,-5.429617 -0.252599,-0.524743 -0.490797,-1.05677 -0.736204,-1.588801 0.0073,0 0.0073,0.0074 0.01458,0.0074 -0.151559,-0.50288 -0.310369,-0.801687 -0.483582,-1.049485 -0.418624,-0.918301 -0.837247,-1.822016 -1.284737,-2.68201 0.76507,0.852705 1.559009,1.698121 2.410684,2.536249 -0.851675,-1.224398 -1.854932,-2.667437 -2.937574,-4.219797 -0.223752,-0.276945 -0.440278,-0.568468 -0.664022,-0.859991 0,0 0,-0.0074 0,-0.0074 -0.375312,-0.801692 -0.757851,-1.55965 -1.060996,-2.295745 -0.837244,-0.145777 0.562979,1.078636 0.281483,1.275411 -0.404188,-0.53932 -0.808385,-1.078647 -1.234213,-1.610667 -0.793943,-1.093214 -1.566228,-2.142702 -2.396252,-3.082866 -0.599068,-0.714233 -1.190909,-1.39931 -1.775538,-2.047943 -0.187656,-0.196772 -0.382524,-0.378974 -0.57741,-0.561183 -0.606284,-0.699655 -1.190909,-1.39931 -1.73223,-2.077103 -0.570202,-0.677792 -1.13317,-1.311855 -1.616752,-1.945915 -0.880552,0.08017 0.967156,0.969311 0.570194,1.187957 C 81.097151,10.831257 79.617539,9.548557 78.065742,8.520935 77.307892,7.9889 76.55726,7.4787393 75.821056,7.005015 75.070425,6.5531455 74.29814,6.1668874 73.547505,5.7951952 c 1.717796,1.3774476 3.536642,2.660148 5.095647,3.8772566 1.544593,1.2389592 2.677759,2.5508152 2.930377,3.8116532 z M 56.456316,2.0199203 c 0.952726,0.2040565 1.840497,0.3862581 2.684956,0.5684676 0.851682,0.1603468 1.652837,0.3133697 2.432341,0.4591505 0.772285,0.1749167 1.537359,0.3352635 2.302429,0.4664354 C 63.04601,3.2661686 62.151031,3.0038092 61.241606,2.7268642 60.31775,2.5082378 59.365024,2.2895725 58.441168,2.0709422 56.586237,1.6117878 54.760179,1.4806081 53.352737,1.5316183 c 1.118731,0.1749167 2.143631,0.3352635 3.103579,0.488302 z M 95.886213,67.372132 c 0.303157,-0.969319 0.793947,-2.106254 1.198128,-3.243197 0.396978,-1.136943 0.60628,-2.295745 0.562976,-3.206757 -0.281484,1.049485 -0.627926,2.368625 -1.075427,3.53472 -0.425839,1.180668 -0.750631,2.252019 -0.685677,2.915234 z M 37.055326,1.6117878 c 0.93829,-0.2987998 1.854931,-0.5976308 2.735482,-0.88186457 -1.068207,0.24780515 -2.129201,0.51016457 -3.16854,0.79439837 -1.0249,0.3425485 -2.028154,0.699663 -2.995314,1.0713473 -0.483582,0.1894866 -0.952726,0.3789732 -1.421873,0.5684715 -0.454712,0.2040565 -0.894989,0.4372918 -1.320827,0.6632148 -0.851681,0.4518615 -1.652841,0.918297 -2.381818,1.3847363 1.891016,-0.9255937 3.789255,-1.8584684 5.72358,-2.5362531 0.959945,-0.3571183 1.898239,-0.7506731 2.82931,-1.0640506 z M 24.99467,7.3839453 C 25.745305,6.9247987 26.373237,6.4875109 26.755771,6.057508 25.290593,6.9539424 23.500622,7.8576618 22.576763,8.8634173 22.98817,8.6010422 23.399573,8.33139 23.803761,8.0763077 24.215168,7.8358264 24.619352,7.6025873 24.99467,7.3839453 Z M 77.308042,66.074854 c -0.223752,0.276945 -0.555752,0.772536 -0.909421,1.36287 -0.353677,0.597623 -0.822813,1.231682 -1.183693,1.916764 0.101039,0.189486 0.173232,0.502879 0.144347,0.102028 0.274273,-0.677793 0.996034,-1.289993 1.219783,-1.523209 -0.39697,0.539316 -0.873337,1.107788 -0.411409,1.289989 0.0073,-0.160347 0.05773,-0.2988 0.122713,-0.437284 0.02148,0.04375 0.03606,0.08017 0.0794,0.123883 0.151559,0.02922 0.498017,-0.327978 0.75785,-0.750669 0.238176,-0.429999 0.411408,-0.903723 0.317581,-1.020333 -0.07219,0.182202 -0.230964,0.357118 -0.411409,0.532027 0.05052,-0.131168 0.04331,-0.25509 -0.06494,-0.371688 -0.05052,0.153062 -0.173232,0.335264 -0.303157,0.517453 1.111508,-2.004222 1.089854,-2.295748 0.642365,-1.74185 z m 4.814155,-0.845416 c 0.360889,-0.80898 1.097077,-1.690837 0.526887,-2.244731 -0.332004,0.932875 -0.642369,1.698122 -0.526887,2.244731 z M 56.052124,99.592731 c 0.512447,-0.145777 0.99603,-0.2988 1.407434,-0.437284 -0.519663,0.153062 -1.060984,0.276945 -1.602309,0.335264 -0.541322,0.04375 -1.082643,0.05832 -1.587875,0.07289 -1.017688,0.02922 -1.905451,0.051 -2.49008,0.28423 0.606279,0.211339 1.616748,0.182199 2.684963,0.03662 0.526875,-0.07289 1.068196,-0.174917 1.587867,-0.291515 z M 85.103079,69.5294 c 0.06494,0.109314 0.541321,-0.502875 0.938291,-2.237437 -0.375312,0.648637 -0.606283,1.187957 -0.75785,1.574223 -0.158771,0.371688 -0.216541,0.6122 -0.180441,0.663214 z m -7.773386,10.713481 c 0.642368,-0.932875 1.566224,-1.945919 1.67449,-2.798624 -0.483582,0.604911 -1.263086,1.333718 -1.818834,1.85846 -0.55576,0.532028 -0.894991,0.874568 -0.562976,0.641349 0.873325,-0.932871 0.122675,0.22595 0.70732,0.298799 z m 6.228816,-8.104347 c -1.032127,0.736096 -1.198128,2.179139 -2.331298,3.439977 1.104296,-0.0656 1.753884,-2.907946 2.331298,-3.439977 z M 26.019574,92.209906 c -0.245391,0.08746 -0.728977,0.051 -0.671237,-0.211341 -0.664022,-0.459151 -2.83653,-1.712699 -3.139668,-2.062529 -0.793941,-0.510165 -1.573446,-1.013044 -2.324078,-1.523209 -1.342478,-0.983889 -2.728265,-1.851172 -4.034653,-2.718451 0.555757,0.153062 1.08986,0.225911 1.84771,0.736096 C 17.091371,85.818271 16.513959,85.227937 15.950983,84.637603 15.517925,84.22947 15.092087,83.821338 14.68068,83.405916 13.482555,82.094061 12.306082,80.818649 11.209002,79.550522 10.162448,78.245955 9.0437139,77.05071 8.0115941,75.870041 8.5096075,76.161556 9.0076247,76.372921 9.6066907,77.065287 9.5633827,76.985114 9.5200747,76.912225 9.4767624,76.832052 7.2681689,73.749198 5.6081131,70.557015 4.3666803,67.022299 4.0202458,67.2045 4.3521033,68.035343 4.7347842,68.895337 4.7060142,69.427364 4.3955652,68.603822 4.0418926,67.627207 3.6737868,66.66518 3.3995255,65.499086 3.1180373,65.455361 3.5438794,65.535534 3.5583144,64.879604 3.3490051,63.800968 3.2335404,63.298088 3.103614,62.685892 2.9664756,62.015388 2.3241047,59.661336 1.8982664,57.292711 1.703392,54.829339 c -0.2598531,0.05832 -0.2887,0.510168 -0.2309679,1.085925 0.02877,0.196771 0.050521,0.386258 0.079406,0.590338 0.014577,0.07289 0.021481,0.145776 0.036058,0.225911 C 1.486847,57.037598 1.4146528,56.833541 1.3569203,56.396249 1.0104881,55.951677 1.183685,54.209826 0.70733375,52.774075 0.40421009,53.131193 0.48357793,54.122371 0.32480431,54.712705 -0.50522548,52.613736 1.1187409,51.884929 0.88777701,49.363254 0.64959754,49.603774 0.54855645,50.164941 0.52688281,50.879178 0.34644001,50.631373 0.34644001,49.997317 0,50.113927 0.11546466,47.264285 0.49079769,44.400072 1.1115142,41.565012 1.0609942,41.68161 1.0104731,41.790923 0.95995258,41.885705 0.83723786,40.858083 1.1476115,40.245886 1.5517953,39.640975 1.710569,39.021489 1.8982275,38.409287 2.0786824,37.79709 2.0641054,37.563855 2.0426244,37.345225 1.8188677,37.352517 c 2.0642436,-6.68317 5.62975,-13.060239 10.4222543,-18.489856 1.234214,-1.392033 2.547826,-2.718463 3.933609,-3.979293 0.902205,-0.874571 1.82606,-1.727285 2.786005,-2.550827 0.252603,-0.145777 0.526887,-0.320693 0.79394,-0.488302 0.505233,-0.823553 2.490082,-1.771006 3.529421,-2.5945558 -0.0794,0.1457769 -0.230967,0.3060848 -0.418622,0.4591466 2.208593,-1.4503282 4.525451,-2.7548913 6.950573,-3.8991231 0.281488,-0.072888 0.591847,-0.1749167 0.88777,-0.2623751 0.649587,-0.6122006 2.533387,-0.9984705 3.77482,-1.4648981 -0.844465,0.2113414 -1.645621,0.26966 -1.847715,0.014414 0.952726,-0.8745679 2.92314,-0.7725357 4.085178,-1.0640661 -0.245391,0.3571183 -1.125953,0.7506731 -2.013718,0.9984664 -0.606282,0.5393201 -2.432343,0.8891457 -3.673775,1.4284657 0.108251,-0.03662 0.202083,-0.058319 0.310372,-0.094743 0.541322,-0.1457769 1.118734,-0.3060848 1.717796,-0.4664355 1.198128,-0.3060847 2.453996,-0.7725358 3.832564,-1.0494845 1.371348,-0.2915148 2.786005,-0.6777847 4.258402,-0.8818645 1.472396,-0.1894866 2.959224,-0.4299952 4.438843,-0.488302 1.17647,-0.072889 2.352945,-0.094743 3.529419,-0.072889 0.0073,0 0.02148,0 0.02877,0 0.04331,0 0.08662,0 0.122675,0 0.151559,0 0.310369,0 0.461932,0.0074 5.081208,0.021816 10.191289,0.7215295 15.09206,2.3467626 10.155205,3.2869225 19.451504,9.9409414 25.550407,19.4373084 -0.173233,-0.01441 -0.353638,-0.109313 -0.555756,-0.306084 1.443523,2.106254 2.72826,4.336407 3.825341,6.68317 0.382523,0.670499 0.76507,1.341003 1.140393,1.996933 0.274272,0.502879 0.55576,0.991177 0.793939,1.501342 0.223752,0.510161 0.440274,1.027622 0.642368,1.545076 -0.418619,-0.349834 -0.772292,-1.05677 -1.162039,-1.814732 -0.05773,-0.102028 -0.108251,-0.204057 -0.165983,-0.306085 0.310369,0.80898 0.606272,1.617956 0.873333,2.448799 -0.259811,-0.09474 -0.498017,-0.357118 -0.692892,-0.991182 0.0073,0.04371 0.02148,0.08746 0.03606,0.131168 0.10104,0.291515 0.209291,0.58305 0.303119,0.889146 0.288695,0.867283 0.584617,1.756429 0.873332,2.616419 0.238176,0.874569 0.433062,1.727278 0.599072,2.485237 -0.31758,-0.808977 -0.591853,-1.712696 -0.92386,-2.667439 0.31758,1.166092 0.664022,2.303035 1.039342,3.432686 0.295907,1.129654 0.591852,2.24473 0.880548,3.33794 0.129924,0.553898 0.281483,1.100503 0.375311,1.654393 0.08662,0.553897 0.166021,1.107783 0.223753,1.654392 -0.317581,-0.451862 -0.476363,-1.217108 -0.656803,-2.062529 -0.209291,-0.838131 -0.39697,-1.756428 -0.642373,-2.507102 0.05773,1.173384 0.339216,2.871505 0.425843,4.700811 0.05773,0.911008 0.115463,1.851172 0.173233,2.754891 0.0073,0.903723 -0.02148,1.778295 -0.05773,2.558116 -0.137137,-1.173379 -0.15156,-2.499809 -0.303119,-3.93556 -0.144348,-1.428465 -0.137136,-2.966248 -0.389743,-4.518608 -0.469147,1.224397 -0.685676,3.002692 -0.815601,4.766406 -0.03606,0.437284 -0.07215,0.881857 -0.108251,1.311856 -0.07219,0.429995 -0.137136,0.84542 -0.202079,1.24626 -0.144348,0.801687 -0.31758,1.515924 -0.555756,2.077102 0.129924,-0.306084 -0.07941,-0.400843 -0.353677,-0.291514 0.03606,0.918293 -0.324792,2.456079 -0.360888,3.439972 -0.267022,-0.568471 0.09383,-2.142694 0.216541,-3.359807 -0.230964,0.145777 -0.476363,0.415421 -0.606276,0.838132 -0.02877,0.07289 -0.05052,0.138453 -0.07219,0.204056 -0.0073,-0.09474 -0.04331,-0.174917 -0.108251,-0.218626 0.158771,0.109313 -1.082643,1.501346 -0.902202,0.25509 -0.346427,1.51592 -0.779505,2.915234 -1.226998,4.227086 -0.512452,1.289989 -1.104296,2.485235 -1.68171,3.636752 0.274272,-1.289993 1.349699,-3.359807 1.789977,-5.487924 0.562979,-2.098969 0.562979,-4.161494 -0.461932,-4.93403 -0.649588,0.750673 -1.241429,1.515924 -1.768308,2.558116 -0.584633,1.034911 -0.974379,2.383203 -1.335264,4.29997 -0.346465,0.09474 -0.750631,-0.01441 -1.017691,0.400844 -0.274273,-0.109313 0.541321,-1.209824 0.47637,-2.142694 -0.05773,-0.335264 -0.346465,-0.393559 -0.187656,-0.991182 -0.09383,0.02182 -0.180444,0.08017 -0.25981,0.138453 -0.07219,0.670504 -0.180445,1.588801 -0.202079,2.237442 -0.317581,0.04371 -0.274273,-0.313409 -0.216541,-0.685078 -0.389751,1.085925 -0.534094,1.909475 -0.750631,2.747607 -0.187656,0.845416 -0.324792,1.74185 -0.692896,2.944381 -0.295907,-0.26966 -0.483571,0.28423 -0.685665,0.721522 0.245387,-1.100499 0.584621,-2.674726 1.140385,-4.256238 0.281484,-0.787113 0.461928,-1.625241 0.721762,-2.39778 0.101039,-0.342549 0.21654,-0.677789 0.332003,-1.005756 -0.230964,0.276945 -0.440274,0.612201 -0.685673,0.859994 -0.151559,-0.685077 1.544571,-2.412354 0.10104,-2.740317 -0.505236,-0.02922 -0.519671,1.180668 -0.692896,2.004222 -0.375311,-0.116598 -0.245387,-0.801687 -0.101039,-1.523205 -0.541325,0.07289 -0.931076,0.349833 -1.205344,0.291515 -0.07215,0.510164 -0.202079,0.976604 -0.295907,1.144228 -0.129924,-0.08017 -0.115463,-0.31337 -0.288695,-0.349834 -0.772286,3.593027 -0.288696,-0.116598 0.230964,-1.311852 0,-0.0074 -0.0073,-0.01441 -0.0073,-0.02922 -0.606272,0.655926 -0.873321,1.04948 -1.097069,1.464902 -0.209291,0.415421 -0.418624,0.845416 -0.931075,1.501346 -0.129925,-0.24052 0.02148,-0.670504 0.202079,-1.122365 0.158771,-0.459151 0.375311,-0.932875 0.469147,-1.224398 -0.122713,-0.306084 -0.252599,-0.604912 -0.389754,-0.889149 -0.627941,0.400847 -0.166021,2.142698 -0.591849,2.332189 -0.238175,-0.08017 -0.476366,-0.153062 -0.584625,0.138453 -0.15156,-0.663215 0.793939,-1.574227 0.873336,-2.784047 -0.245387,0.02182 -0.505236,1.027618 -0.346427,-0.05103 -0.396973,0.2988 -0.353638,1.566938 -0.692892,1.996938 -0.06494,-0.604912 -0.02148,-1.894902 0.115463,-2.856928 -0.440274,-0.233235 -0.425839,0.473728 -0.642368,0.685081 -0.122713,0.539317 0.0073,0.816262 0.396969,0.838128 -0.664015,0.816265 -1.255859,0.874572 -1.580663,1.734566 -0.57019,0.31337 -0.06494,-1.122365 -0.454708,-0.357118 -0.288696,-0.429999 -0.115463,-1.457617 0.115501,-2.507098 0.05773,-0.262375 0.108251,-0.524742 0.158771,-0.779825 0.02877,-0.25509 0.04331,-0.502876 0.05052,-0.736095 0.0073,-0.342549 -0.0073,-0.634064 -0.0794,-0.852706 -0.05773,0.881857 -0.158771,1.756425 -0.288696,2.638282 -0.01458,0.09474 -0.02877,0.196772 -0.04331,0.291515 -0.04331,0.26966 -0.09383,0.532027 -0.144347,0.801687 -0.05052,0.26966 -0.10104,0.53932 -0.15156,0.808976 -0.02148,0.09474 -0.04331,0.182202 -0.06494,0.276945 -0.440274,1.975071 -1.068215,3.877257 -1.869362,5.684703 -0.02148,0.04371 -0.04331,0.08746 -0.05773,0.131168 -0.180445,0.400844 -0.368101,0.801688 -0.562972,1.187957 -0.06494,0.131207 -0.129924,0.255091 -0.194867,0.378974 -0.15156,0.298799 -0.310369,0.597623 -0.476363,0.889145 -0.115463,0.204057 -0.230964,0.400844 -0.353639,0.604912 -0.122712,0.204057 -0.245387,0.415421 -0.3681,0.619486 -0.04331,0.07289 -0.08662,0.145777 -0.129924,0.211341 0.07219,0.051 0.245387,-0.153062 0.512452,-0.663215 0.21654,0.583046 -0.873333,1.44304 -1.18369,1.800154 0.844463,0.779825 1.097073,-0.9766 1.667272,-1.217104 -0.216541,1.217104 -1.393004,2.055236 -1.660064,3.046417 0.274272,-0.22595 0.938298,-1.027622 1.566228,-1.93863 -0.216541,0.532027 -0.353638,1.217109 -0.570195,1.873035 -0.05052,0.153062 -0.108251,0.306084 -0.180444,0.444572 0.382524,-0.408132 0.765074,-0.787113 1.003257,-1.085924 0.0073,0.08746 -0.01458,0.174916 -0.02877,0.262375 0.02877,-0.01441 0.05052,-0.04371 0.07941,-0.05832 -0.03606,1.384736 -1.854931,2.171846 -2.316859,3.797087 0.483582,0.138492 0.483582,-1.100499 1.140385,-1.09321 -0.209291,-0.138453 0.158771,-0.6122 0.656815,-1.100499 0.505224,-0.488302 1.060988,-1.078636 1.385772,-1.311855 -0.75785,1.39931 -1.559005,2.295748 -2.302421,3.279637 -0.360888,0.502876 -0.7795,0.969315 -1.234213,1.486769 -0.440274,0.532031 -0.923856,1.115076 -1.479616,1.78558 1.364134,-1.319145 2.800442,-1.880324 4.402755,-3.644041 -1.263083,0.473728 0.353638,-0.692366 0.837244,-0.736095 -0.158771,-0.422711 0.245387,-1.071348 0.801158,-1.78558 0.137136,0.102028 -0.07941,0.357118 -0.166021,0.553893 2.280767,-2.288456 3.767602,-5.808598 5.35548,-9.948229 -0.137136,0.728806 -0.310368,1.450328 -0.498024,2.164561 -0.216541,0.706944 -0.512444,1.377447 -0.786713,2.047951 -0.08662,0.225911 -0.187655,0.437284 -0.281483,0.648637 0.26706,-0.451858 0.534102,-0.823554 0.700111,-0.85999 0.209291,-0.408137 0.02148,-0.517454 0.144348,-0.859994 0.245387,-0.145777 0.165982,0.437284 -0.02877,1.122365 -0.187656,0.685077 -0.599068,1.413884 -0.78672,1.610663 -0.10104,-0.109313 -0.02877,-0.335263 -0.187656,-0.408132 -0.880552,1.727273 -0.894986,1.566938 -0.59906,0.889146 -0.303157,0.53932 -0.620718,1.056773 -0.923856,1.574226 -0.324792,0.583046 -0.714546,1.100495 -1.075431,1.617953 -0.158771,0.306084 -0.310368,0.6122 -0.483582,0.911012 -0.389746,0.619485 -0.844459,1.195242 -1.284737,1.771002 -0.252599,0.349834 -0.519667,0.670504 -0.801154,0.983889 -0.115463,0.189487 -0.230964,0.371688 -0.332004,0.561183 0.728981,-0.714233 1.407438,-1.377448 2.020945,-2.055236 0.202079,-0.378974 0.490797,-0.794403 0.822801,-1.275416 0.04331,0.0656 0.05773,0.131168 0.07215,0.196772 0.0073,-0.0074 0.01458,-0.01441 0.02148,-0.02922 0.418624,-0.539316 0.822813,-1.064058 1.226998,-1.588801 0.3681,-0.55389 0.707326,-1.12965 1.068207,-1.712695 1.4291,-2.332185 2.684959,-5.116232 3.767606,-9.197557 0.0073,0.903724 -0.209329,1.858461 -0.505229,2.842354 -0.281484,0.983889 -0.613499,2.011507 -1.082646,2.980822 -0.815589,1.996937 -1.898236,3.855394 -2.51895,5.648263 -0.216541,0.167632 -0.245387,0.0656 -0.346427,-0.02922 -0.04331,0.0656 -0.0794,0.138453 -0.122713,0.204057 -0.526894,0.881856 -1.104296,1.778291 -1.81163,2.594556 -0.317581,0.42271 -0.649588,0.830842 -0.988815,1.231686 0.3681,-0.218626 0.765066,-0.357118 0.591841,-0.532031 0.692896,-0.539316 0.209291,0.648641 -0.151559,1.013044 0.404185,0.0074 1.053773,-0.415421 0.541321,0.459151 0.375312,0.196771 0.894987,-0.46644 1.320829,-0.481013 0.07941,-0.255091 0.180445,-0.488302 0.418628,-0.830843 l 0.692892,-1.013041 c 0.433051,-0.801687 0.945502,-1.698125 1.544566,-2.587271 0.476371,-0.685077 0.858902,-1.450328 1.313607,-2.12812 0.425843,-0.699652 0.902206,-1.333719 1.263082,-1.924049 0.166021,-0.160347 -0.685665,1.792865 -1.032118,2.929808 -0.07941,-0.0074 -0.129925,-0.03662 -0.158771,-0.08017 -0.461928,1.319141 -1.313607,2.514387 -2.612782,4.292678 -0.04331,0.0656 -0.07216,0.131168 -0.115463,0.196772 -0.0073,-0.0074 -0.01458,-0.0074 -0.01458,-0.01441 -0.03606,0.05103 -0.06494,0.09474 -0.108252,0.145777 0.02877,-0.05832 0.05052,-0.109313 0.0794,-0.167632 -0.158771,-0.167632 -0.353638,0.01441 -0.562979,0.26966 -0.62793,1.545075 -1.41465,2.645574 -2.208593,3.826242 -0.447493,0.561183 -0.909417,1.136943 -1.40743,1.771007 -0.498025,0.641348 -1.017692,1.36287 -1.674491,2.128117 -1.147601,-0.051 -1.992071,2.120831 -3.680993,2.995403 0.245387,-0.145777 1.162043,-0.408132 2.006506,-0.852709 0.41862,-0.247805 0.815586,-0.532027 1.104296,-0.845416 -0.187656,0.08746 -0.3681,0.131207 -0.548548,0.102028 0.3681,-0.24052 0.678469,-0.510169 0.95273,-0.787114 0.02148,-0.09474 0.03606,-0.182201 0.02877,-0.276945 0.166021,-0.08746 0.245388,-0.08746 0.288696,-0.05099 0.620718,-0.670504 1.111515,-1.319145 1.86215,-1.59609 -0.433058,0.225912 -1.111515,1.28999 -1.826061,2.018796 0,0.01441 0.0073,0.02922 0.0073,0.03662 0.620718,-0.721518 0.707331,-0.867279 1.349699,-0.90372 0.31758,-0.400843 -0.411404,-0.04371 -0.0073,-0.488302 0.519667,-0.196771 1.003249,-0.364403 2.09311,-1.209819 0.209291,-0.211342 0.425839,-0.408133 0.627934,-0.626779 -0.151559,-0.145777 -0.38975,0.04375 -0.649588,0.276945 1.31361,-1.268126 2.540604,-2.674726 3.695436,-4.190646 -0.137136,0.08017 -0.274272,0.09474 -0.389754,-0.01441 0.476362,-0.583045 0.866109,-1.231682 1.277513,-1.865749 0.0073,0.153062 -0.144348,0.699655 -0.3681,1.187957 2.410687,-3.316074 4.446063,-7.178757 6.012283,-11.617196 0.519671,0.0074 -0.671238,1.66897 -0.165982,1.690833 0.728981,-0.932871 1.205343,-3.461836 1.580663,-5.079792 -0.555756,-0.444572 -0.505233,1.224398 -0.76507,1.86575 -0.433058,0.743384 0.310369,-2.703877 0.620714,-2.907945 0.339216,0.561182 0.209329,1.712699 -0.0794,3.009977 -0.3681,1.275416 -0.909422,2.6893 -1.241429,3.877257 -0.07941,-0.218627 -0.158771,-0.429995 -0.396973,-0.495587 -0.09383,0.313369 -0.209291,0.626774 -0.339216,0.932871 0.368101,0.145777 0.404186,-0.0656 0.562976,0.947452 -0.05052,0.25509 -0.194868,0.393555 -0.353639,0.481013 -0.05773,0.153062 -0.115463,0.306085 -0.187656,0.466436 -0.332003,0.765247 -0.894986,1.581515 -1.07543,2.171846 0.01458,-0.539316 0.151559,-0.94016 0.339215,-1.333719 -0.173233,0.02922 -0.310369,-0.05832 -0.671238,0.524743 0.122713,0.641352 -0.274272,1.661681 -0.851682,2.791335 -0.685673,1.136943 -1.57344,2.361341 -2.194158,3.41811 -0.01458,-0.145777 -0.03606,-0.28423 -0.09383,-0.400844 -0.180444,0.247806 -0.360888,0.495587 -0.541321,0.743385 0.158771,0.09474 0.194867,0.167632 0.115463,0.940163 -0.396966,0.808976 -1.522917,0.02182 -0.967153,0.947449 -0.678457,0.670504 -0.714546,0.378973 -0.981599,0.429995 -0.757858,0.969315 -1.436308,1.873039 -1.919893,2.594556 -0.01458,-0.102028 -0.05052,-0.153062 -0.09383,-0.174916 -0.656815,0.699655 -1.479624,1.501346 -2.446776,2.252015 -0.548545,0.444577 -1.104301,0.896435 -1.667272,1.348296 -0.0073,0.0074 -0.01458,0.01441 -0.02148,0.01441 0.180444,0.04371 0.404188,0.102029 0.137136,0.481013 0.202079,0.116599 0.411404,-0.02182 0.606283,-0.225911 -0.02877,0.01441 -0.05773,0.03662 -0.09383,0.0656 0.05773,-0.364404 0.310369,-0.546605 0.613499,-0.692367 0.122713,-0.131207 0.223752,-0.204056 0.303157,-0.131207 0.346427,-0.138453 0.714542,-0.28423 0.981595,-0.575756 0.06494,0.488298 -0.483582,0.634059 -0.894986,0.757958 0,0.0074 0.0073,0.0074 0.0073,0.01441 -0.166021,0.138453 -0.281484,0.25509 -0.382523,0.357118 0.02877,0.02922 0.05773,0.0656 0.108251,0.109314 -0.108251,0.07289 -0.187656,0.08017 -0.267061,0.0656 -0.31758,0.386258 -0.245387,0.53932 -0.548548,0.80898 -0.483582,0.196772 -0.837247,0.102028 -1.060992,-0.28423 -0.858898,0.583045 -0.97438,0.969315 -1.046557,1.406599 0.92386,-1.2827 0.238175,0.306085 1.465181,-0.838127 0.05052,0.204056 -0.447493,0.517453 -0.324792,0.699655 0.858894,-0.233235 2.201373,-1.610664 3.139668,-2.091677 -1.118743,1.042196 -2.540608,2.419644 -3.861434,3.396244 -1.291956,1.013044 -2.287989,1.90219 -2.352952,2.215579 0.06494,0.437284 -1.746664,0.612197 -0.483578,-0.138453 -0.519671,0.160347 -2.230243,1.807443 -3.875868,2.390488 0.505232,0.04375 1.118735,-0.102028 0.613495,0.510164 1.508485,-0.459146 1.053777,-0.517453 2.143638,-1.275411 -0.101039,0.211341 -0.194867,0.429995 -0.07219,0.641348 0.95273,-0.714229 0.454709,-0.750669 1.580667,-0.852705 -3.572719,2.20099 -8.34357,4.154194 -13.323734,5.276559 -2.425195,0.634063 -4.973018,0.881861 -7.405363,1.078636 -1.212559,0.03662 -2.410684,0.05103 -3.558288,0.05103 -1.15482,0.02182 -2.251901,-0.138453 -3.305674,-0.211342 -0.3681,0.26966 -0.801158,-0.09474 -1.320829,-0.364403 -0.461928,-0.05832 -0.909418,-0.131168 -1.36413,-0.204057 -0.07941,0.167632 0.461928,0.539316 -0.562976,0.276945 -0.346426,-0.204056 -0.894986,-0.415421 -1.559008,-0.634063 -0.108252,-0.02182 -0.216541,-0.03662 -0.324792,-0.05832 -1.183795,-0.284229 -2.338618,-0.583045 -3.450128,-0.881856 -1.118734,-0.276945 -2.143639,-0.721522 -3.139669,-1.071348 -0.461927,0.182202 -0.801156,-0.386258 -1.291957,-0.801691 -0.375318,-0.153062 -0.757851,-0.306085 -1.133165,-0.466435 -0.180448,0.109313 0.324796,0.677792 -0.627932,0.138492 -0.310373,-0.320694 -0.851684,-0.706944 -1.522921,-1.136939 -0.173237,-0.08746 -0.353681,-0.167632 -0.519672,-0.262375 -0.837246,-0.437284 -1.645617,-0.852706 -2.389037,-1.268127 -0.714546,-0.451862 -1.371348,-0.881857 -1.948759,-1.268123 1.934324,1.486765 3.883084,2.579979 5.774103,3.695055 1.970411,0.954738 3.89752,1.967782 6.084463,2.638286 -3.016966,-0.61949 -5.810186,-1.858461 -8.401317,-3.243198 z M 87.658118,67.896874 c 0.05052,-0.109313 0.101039,-0.22595 0.151559,-0.342548 -0.194867,0.0656 -0.303157,0.131168 -0.151559,0.342548 z M 73.886883,77.910696 c -0.06494,0.0656 -0.137136,0.131168 -0.202079,0.204056 0.122712,0.03662 0.238175,0.02922 0.360888,0.0074 -0.07219,-0.02922 -0.08662,-0.123883 -0.158771,-0.211341 z M 3.98416,36.36864 c 0.1299245,-0.429995 0.2526028,-0.838131 0.3320074,-1.202535 -0.1515631,0.364404 -0.2886992,0.714237 -0.4258384,1.064059 0.02877,0.08746 0.057732,0.138492 0.093828,0.138492 z m 66.49601,48.903014 c -0.382524,0.371689 -0.86611,0.736096 -1.320826,1.100503 0.02148,0.02922 0.02877,0.051 0.06494,0.08017 0.75785,-0.386258 1.638398,-0.92559 1.436308,-1.311855 -0.05052,0.03662 -0.115463,0.08746 -0.180445,0.131168 z m -5.160605,3.22862 c 0.144347,-0.116598 0.26706,-0.24052 0.353638,-0.378973 -0.230964,0.109313 -0.483578,0.218626 -0.808374,0.313369 0.122713,0.05832 0.281484,0.07289 0.454713,0.0656 z m 0.707326,-0.225951 c 0.02148,-0.01441 0.04331,-0.02181 0.07215,-0.02922 0.230964,-0.160347 0.404189,-0.26966 0.555756,-0.357119 0.03606,-0.02922 0.0794,-0.05103 0.115463,-0.08746 0.678457,-0.53932 1.299171,-1.217109 1.631186,-1.51592 -1.205343,0.510165 -1.522923,1.09321 -2.287989,1.588801 0.0073,0.102028 -0.10104,0.276945 -0.08662,0.400843 z m 4.929638,-0.349833 c 0.635152,-0.408132 1.082646,-0.743384 0.65681,-0.65593 -0.577413,0.473728 -1.147604,0.677793 -1.602317,0.852705 -0.447497,0.189487 -0.779504,0.378974 -0.923856,0.816265 0.346427,-0.218626 1.212563,-0.634059 1.869363,-1.01304 z m 1.414657,-0.08746 1.984848,-1.341008 -0.209329,-0.291514 c -0.562972,0.553893 -2.367379,1.209819 -1.775534,1.632529 z M 86.438343,70.170725 c -0.02148,-0.02922 -0.04331,-0.02922 -0.06494,-0.05099 -0.115501,0.313369 -0.281483,0.685077 -0.505236,1.107787 -0.469143,0.911009 -1.125939,2.047952 -1.970409,3.163028 0.873332,-0.911012 1.840496,-2.900657 2.540604,-4.219801 z m -9.823189,5.159965 c -0.02148,-0.0656 -0.01458,-0.131207 -0.0073,-0.189486 -0.844463,0.983888 -1.674491,1.931341 -2.324079,2.900656 0.346427,-0.167632 0.700111,-0.532031 1.075427,-0.969315 0.288695,-0.349833 0.620718,-0.728811 0.931075,-1.136943 0.310369,-0.408133 0.642369,-0.816261 1.017688,-1.158802 -0.187656,-0.102028 -0.447493,0.306085 -0.692892,0.553894 z m 3.031398,-4.941323 c -0.04331,0.138453 -0.129925,0.31337 -0.238176,0.517454 0.115463,-0.167632 0.230964,-0.342549 0.346427,-0.517454 -0.03606,0 -0.06494,-0.0074 -0.108251,0 z m -5.045119,0.597623 c -0.238176,0.218627 -0.476363,0.444573 -0.707331,0.692367 0.281484,-0.0656 0.490801,-0.349834 0.707331,-0.692367 z m -0.894983,0.663215 c -0.01458,0.0074 -0.02148,0.02182 -0.03606,0.02922 0.0073,0 0.01458,0 0.02148,0 4e-6,-0.0074 0.0073,-0.02182 0.01458,-0.02922 z M 35.489107,4.9424198 c -0.91664,0.2915149 -1.645617,0.5830453 -1.566226,0.612189 0.0073,0 0.01458,0 0.02148,0 0.664022,-0.2550901 1.17647,-0.4518655 1.544572,-0.612189 z M 24.713189,9.4245804 c -0.230968,0.080173 -0.721765,0.3644033 -1.342482,0.8089766 0.649591,-0.3789737 1.089864,-0.6413487 1.356917,-0.8162654 -0.0073,0.0074 -0.0073,0.0074 -0.01458,0.0074 z m -4.677024,2.2447306 c 0.05052,-0.03662 0.101039,-0.05832 0.151563,-0.09474 0.317584,-0.233236 0.649586,-0.459151 0.967164,-0.685086 -0.396972,0.255091 -0.786721,0.517454 -1.118733,0.779825 z M 1.1692849,52.978147 c 0.2165442,-0.153062 0.3320089,-0.714233 0.3897527,-1.523205 0.02877,-0.685081 0.072194,-1.552356 0.1227148,-2.514383 -0.00729,-0.25509 -0.02877,-0.488302 -0.072194,-0.670503 0.036058,0.09474 0.072194,0.145777 0.1010411,0.196771 0.021481,-0.400847 0.05052,-0.808976 0.079406,-1.224397 -0.2598148,0.08746 -0.072194,-1.523205 0.2887,-3.687766 0.09383,-0.481017 0.2165442,-0.991182 0.3392206,-1.515924 0.1515616,-0.911008 0.3681058,-1.705407 0.5990659,-2.354052 0.043309,-0.182201 0.09383,-0.364403 0.1371384,-0.546605 0.021481,-0.08017 0.043309,-0.160346 0.072194,-0.24052 -0.4330577,0.400848 0.3247973,-1.260842 0.5557571,-2.383199 -0.2092942,0.539316 -0.4186227,1.071347 -0.6062816,1.581512 -0.3320089,0.932875 -0.5557571,1.843883 -0.8011559,2.718455 -0.2165442,0.84542 -0.4402771,1.66897 -0.5990621,2.470661 -0.02877,0.218626 -0.057732,0.42271 -0.086618,0.648637 -0.00729,0 -0.00729,-0.0074 -0.014577,-0.01441 -0.1010411,0.641352 -0.2020825,1.275416 -0.2814883,1.909479 -0.09383,0.816269 -0.2165442,1.625245 -0.2526032,2.456087 -0.021481,0.830839 -0.036058,1.668971 -0.02877,2.543539 -0.021481,0.692358 0.00729,1.413876 0.057732,2.149975 z M 26.698035,93.733088 c -0.736197,-0.28423 -2.057021,-1.39931 -2.396253,-1.136939 0.447493,0.306085 0.411407,0.568468 0.815595,0.874568 0.09383,-0.510165 1.320824,0.539316 1.580658,0.262375 z m 60.996176,-28.60571 c 0.108251,-0.546609 0.108251,-1.166094 0.06494,-1.319144 -0.230964,0.721521 -0.440278,1.450328 -0.757851,2.135405 0.324792,0.167632 0.584626,-0.26966 0.692892,-0.816261 z m 3.139668,-9.700436 c 0.0794,0.911008 -0.05052,1.574223 -0.180445,2.171846 -0.151559,0.597623 -0.26706,1.129654 -0.09383,1.843883 0.02148,-0.612197 0.353677,-1.545071 0.476371,-2.37591 0.129924,-0.830843 0.165983,-1.537787 -0.202118,-1.639819 z m -12.710243,9.729584 c 0.346426,-1.32643 1.710576,-2.383203 1.371349,-3.316074 -0.360889,0.852705 -1.457958,2.375914 -1.371349,3.316074 z m 2.143634,-5.764869 c -0.05052,0.663215 -0.988814,1.996933 -0.281484,2.077099 -0.180444,-0.874568 0.822805,-1.719985 0.281484,-2.077099 z m 9.743796,19.692391 c 0.541325,-0.859994 1.306395,-1.829309 1.992071,-2.820487 0.671238,-0.991178 1.17647,-2.055236 1.364134,-2.951671 -0.541321,0.940164 -1.212559,2.128121 -1.948759,3.133873 -0.707335,1.034907 -1.29196,1.982359 -1.407446,2.638285 z M 66.90022,96.655607 c -0.122713,-0.189486 -0.252599,-0.327978 -0.837244,-0.05832 l 0.187656,0.495587 c 0.909421,-0.291515 1.732234,-0.692367 1.638398,-1.064059 -0.490801,0.204057 -0.743415,0.415421 -0.988818,0.626775 z M 91.173105,69.748019 c 0.332004,-1.09321 1.291953,-2.820487 1.277529,-3.629463 0.46914,-1.231686 0.808367,-2.375914 0.642361,-2.813198 -0.245387,0.794398 -0.678457,1.967782 -1.089858,3.126583 -0.418623,1.151521 -0.938294,2.25202 -1.118735,3.024555 0.187656,-0.415421 0.461928,-0.940163 0.750631,-1.51592 0.10104,-0.189486 0.194868,-0.393558 0.295907,-0.590334 -0.404185,0.94016 -0.844459,1.909475 -0.75785,2.397777 z m -10.638782,6.690455 c -0.526894,0.532031 -0.887775,0.991178 -1.13317,1.319141 -0.25981,0.320693 -0.3681,0.532031 -0.346465,0.597623 0.02877,0.123883 0.642376,-0.342549 1.479619,-1.916764 z m -1.003249,4.868438 c 1.162039,-1.435751 2.692174,-3.257771 4.106828,-5.181823 -0.108251,0.0074 -0.209291,0.02182 -0.339215,0.204056 -0.0794,-0.852705 1.053773,-1.042196 1.479616,-1.851172 0,0.0074 0,0.01441 0.0073,0.02182 0.490797,-0.736095 0.959952,-1.472195 1.356911,-2.201001 -0.122713,0.583045 -0.599061,1.392021 -1.162032,2.230153 -0.05773,0.08746 -0.115463,0.167631 -0.173233,0.25509 -0.02877,0.123883 -0.115501,0.24052 -0.223752,0.335263 -0.447501,0.648641 -0.909429,1.275416 -1.291964,1.807443 l -1.789969,2.266593 c -0.627937,0.728814 -1.306391,1.413892 -1.970413,2.113547 z m 4.287272,-5.422332 c 0.108251,-0.153062 0.216541,-0.306085 0.324792,-0.45915 -0.274272,0.167631 -0.483582,0.306123 -0.324792,0.45915 z M 45.225685,98.528646 c -0.707326,-0.01441 -1.024903,-0.07289 -1.010468,-0.182202 0.490797,0.08017 1.010468,0.153062 1.551789,0.233196 -0.05773,0.05103 -0.129924,0.08746 -0.180444,0.153062 1.291956,0.05103 2.728264,0.182202 4.243961,0.160347 1.515704,0.01441 3.118018,0.0656 4.691461,-0.09474 1.580659,-0.116599 3.161319,-0.247806 4.59763,-0.597619 1.443527,-0.320694 2.807661,-0.61949 3.904742,-1.136943 -1.118735,0.182201 -2.302425,0.378973 -3.500549,0.568471 0.837247,-0.174917 1.717795,-0.371688 2.619997,-0.626774 1.472396,-0.386259 3.024186,-0.750674 4.511017,-1.319145 1.494047,-0.524738 2.988097,-1.071347 4.287273,-1.778291 1.313606,-0.685078 2.547823,-1.333719 3.478894,-2.120832 -4.041869,1.836598 -8.856025,4.095902 -12.919552,4.795557 0.25981,-0.116598 0.700111,-0.211341 0.656807,-0.386258 -0.548545,0.451862 -1.486832,0.685078 -2.345729,0.830839 -0.786716,0.145777 -1.472397,0.327979 -1.73223,0.808976 -0.267061,0.03662 -0.53411,0.07289 -0.801163,0.109313 0.108252,-0.02922 0.216541,-0.0656 0.317581,-0.09474 -1.060992,0.25509 -1.263087,0.196772 -0.78672,-0.211341 -1.010469,0.327978 -2.215812,0.451861 -3.493334,0.590334 -0.635149,0.0656 -1.29196,0.116598 -1.955974,0.160346 -0.166021,0.0074 -0.339215,0.0074 -0.505233,0.0074 -0.526894,-0.0074 -1.046557,-0.03662 -1.551793,-0.08017 0.281484,-0.04375 0.728981,-0.02182 0.736196,-0.196772 -0.649591,0.291515 -1.616748,0.276945 -2.482865,0.189487 -0.389754,-0.02922 -0.757854,-0.04375 -1.075426,-0.01441 -0.295908,-0.01441 -0.613495,-0.02182 -0.894987,-0.051 -0.39697,-0.03662 -0.779508,-0.0656 -1.15482,-0.09474 0.02148,-0.01441 0.04331,-0.02182 0.07219,-0.03662 -0.209329,0.0074 -0.433058,0 -0.649591,-0.0074 -0.158771,-0.0074 -0.310369,-0.01441 -0.461925,-0.02922 -0.765069,-0.05832 -1.573443,-0.182202 -2.410691,-0.313409 -0.635149,-0.102028 -1.277517,-0.225911 -1.927105,-0.357118 -0.649584,-0.131168 -1.284736,-0.342549 -1.919887,-0.517454 -0.0073,0 -0.01458,-0.0074 -0.02148,-0.0074 0.144352,-0.02922 0.295911,-0.08746 0.368104,-0.160347 -1.429092,-0.335264 -2.822094,-0.838132 -4.229532,-1.289993 -0.88055,0.07289 2.533387,0.954741 3.471681,1.289993 0,0.02182 0.02877,0.02922 0.03606,0.05099 -1.133164,-0.335263 -2.251898,-0.641348 -3.240713,-1.01304 -1.104295,-0.408132 -2.107544,-0.765251 -2.94479,-0.998467 0.851677,0.400844 1.934321,0.889146 3.139664,1.4066 1.219779,0.473724 2.591131,0.889145 3.962479,1.304563 0.685676,0.218665 1.378564,0.378973 2.078675,0.49559 0.692892,0.131207 1.371353,0.247806 2.020937,0.342549 0.649588,0.08746 1.270302,0.189486 1.847712,0.211341 0.591849,0.03662 1.125951,0.02922 1.602313,0.0074 z M 88.358233,74.426967 c -0.440274,0.706944 -1.162039,1.727273 -1.854931,2.733028 -0.700112,1.005756 -1.479612,1.931342 -1.854932,2.630997 0.288696,-0.349833 0.685677,-0.787113 1.111516,-1.268127 0.440278,-0.473724 0.880548,-0.998466 1.255867,-1.545071 0.772285,-1.064059 1.393004,-2.084392 1.34248,-2.550827 z M 41.667397,99.658296 c 0.534106,0.0656 1.082647,0.116598 1.609529,0.138453 0.534106,-0.0074 1.039338,-0.02922 1.472397,-0.051 -0.541322,0.01441 -1.097078,-0.01441 -1.631183,-0.102028 -0.534106,-0.102028 -1.060988,-0.225911 -1.559005,-0.342549 -0.988815,-0.233235 -1.854932,-0.444572 -2.475646,-0.378973 0.534102,0.371689 1.515697,0.604912 2.583908,0.736096 z M 94.153995,55.725754 c -0.433066,1.253548 0.05052,0.466435 0,0 z M 16.427349,86.466873 c -0.642367,-0.466436 -1.623966,-1.887612 -2.020935,-1.727273 0.353643,0.415417 0.245392,0.655926 0.562977,1.056769 0.223756,-0.45915 1.140384,0.874568 1.457958,0.670504 z M 79.126885,60.761816 c -0.166021,0.757962 -0.981595,1.931341 -0.728981,2.412354 0.526886,-0.765251 0.822813,-1.523209 0.728981,-2.412354 z M 35.582936,2.9746304 c 0.461928,-0.1238831 0.909421,-0.2478051 1.328043,-0.3571183 0.837246,-0.2478052 1.559007,-0.5028797 2.04259,-0.8162572 -1.645617,0.4882942 -3.608812,0.8891456 -4.756415,1.6179522 0.469143,-0.1530618 0.93107,-0.2987998 1.385782,-0.4445767 z M 97.430791,41.127732 c 0.599064,0.327978 1.198124,0.612192 1.660052,1.311855 -0.03606,-1.246264 -0.433058,-1.406599 -0.620714,-2.332185 -0.548548,0.07289 -0.916637,0.378974 -1.039338,1.02033 z M 49.346948,1.4733114 c -1.198128,-0.021816 -3.06749,-0.63405939 -4.215091,-0.03662 0.281484,0.6413521 3.543854,0.6122084 4.215091,0.03662 z M 92.198012,63.130468 c 0.555756,-0.488298 1.559005,-3.03184 1.313614,-4.074036 -0.490805,1.115073 -1.508489,3.308789 -1.313614,4.074036 z M 71.129753,6.9029322 c 0.779505,0.3789732 1.515701,0.7360954 2.23024,1.0786361 0.700119,0.3716882 1.400226,0.7215216 2.100337,1.0567735 C 74.724134,8.5791913 73.930195,8.0908893 73.114601,7.5952985 72.27735,7.1434407 71.418457,6.6842824 70.573998,6.2251397 68.89951,5.2922688 67.174492,4.6946458 65.795927,4.3739756 c 1.032119,0.4591505 1.984845,0.8818646 2.872619,1.2826965 0.880548,0.4445728 1.696142,0.8599941 2.461207,1.2462601 z M 47.037312,0.47484481 c 1.017688,-0.0947433 2.020937,-0.22591135 3.002528,-0.2842299 0.988819,-0.0437487 1.941544,-0.0874584 2.872619,-0.13116805 -1.089861,-0.03661953 -2.186938,-0.0656035 -3.262361,-0.05831854 -1.075427,0.05831854 -2.136419,0.14577689 -3.168542,0.24780514 -0.512451,0.0583186 -1.017684,0.11659815 -1.5157,0.1749167 -0.498013,0.0801734 -0.97438,0.18948661 -1.450743,0.29151485 -0.938291,0.21134145 -1.833281,0.45186169 -2.656086,0.71423279 2.064238,-0.3935509 4.135694,-0.79440229 6.178285,-0.9547413 z"
            style="fill:url(#linearGradient5015);fill-opacity:1;fill-rule:nonzero;stroke:none;stroke-width:0.725275"
            id="path5017" />
        <path d="M 31.885817,69.367518 H 42.450166 V 67.579414 H 31.885817 v 1.788104"
            style="fill:#ffffff;fill-opacity:1;fill-rule:nonzero;stroke:none;stroke-width:0.887183" id="path5185" />
        <path d="M 31.885817,62.215102 H 42.450166 V 60.426965 H 31.885817 v 1.788137"
            style="fill:#ffffff;fill-opacity:1;fill-rule:nonzero;stroke:none;stroke-width:0.887183" id="path5187" />
        <path
            d="M 66.268102,45.228047 H 59.2252 c -2.125248,0 -3.90317,-1.536638 -4.312398,-3.576208 h 15.667702 c -0.409232,2.03957 -2.18715,3.576208 -4.312402,3.576208 z m 3.569597,-5.364313 H 55.655607 L 62.746651,29.777662 Z M 45.1394,51.486444 V 24.863872 c 0,-0.254963 -0.106607,-0.495907 -0.292309,-0.663563 -0.37828,-0.34923 -0.588055,-0.817233 -0.588055,-1.323629 0,-0.984856 0.790954,-1.788105 1.760727,-1.788105 0.969774,0 1.760724,0.803249 1.760724,1.788105 0,0.506396 -0.209771,0.974399 -0.588054,1.323629 -0.185702,0.167656 -0.292309,0.4086 -0.292309,0.663563 v 26.622572 z m 10.47494,5.364312 H 36.425187 c 0.409229,-2.03957 2.18715,-3.576208 4.312398,-3.576208 h 10.564353 c 2.125252,0 3.90317,1.536638 4.312402,3.576208 z m 9.828424,3.576209 H 50.486915 c 0.0034,-0.03134 0.01033,-0.06633 0.01377,-0.09776 0.02407,-0.174615 0.05158,-0.345766 0.08941,-0.520381 0.02062,-0.0908 0.04126,-0.181607 0.06534,-0.272411 0.04126,-0.157167 0.08598,-0.3143 0.137559,-0.471467 0.03095,-0.0908 0.05846,-0.181607 0.09285,-0.272411 0.02062,-0.05238 0.04471,-0.10126 0.06534,-0.15367 h 14.845802 c -0.178823,0.583248 -0.295745,1.183944 -0.354206,1.788104 z M 50.951168,71.155622 c -0.02062,-0.05238 -0.0447,-0.101259 -0.06534,-0.157133 -0.03438,-0.08734 -0.0619,-0.178145 -0.09285,-0.268915 -0.05158,-0.157167 -0.09629,-0.314333 -0.137555,-0.4715 -0.02407,-0.0908 -0.04471,-0.181607 -0.06534,-0.272411 -0.03782,-0.171119 -0.06534,-0.345734 -0.08941,-0.520349 -0.0034,-0.03133 -0.01033,-0.06287 -0.01374,-0.0978 H 65.44278 c 0.05846,0.604193 0.175383,1.204889 0.354206,1.788104 z m -3.569594,0 c -0.687782,-1.714748 -0.687782,-3.649563 0,-5.364312 h 1.688508 c -0.06534,0.206048 -0.120362,0.419089 -0.168508,0.628633 -0.0034,0.0069 -0.0034,0.01748 -0.0069,0.02441 -0.06878,0.296852 -0.113482,0.593704 -0.151313,0.894052 -0.01033,0.07682 -0.01718,0.153671 -0.02751,0.230489 -0.02751,0.296852 -0.04815,0.593704 -0.04815,0.894052 0,0.0069 0,0.01385 0,0.02111 0,0.300348 0.02062,0.5972 0.04815,0.894052 0.01033,0.07682 0.01718,0.15367 0.02751,0.230489 0.03783,0.300348 0.08253,0.5972 0.151313,0.894052 0.0034,0.0069 0.0034,0.01748 0.0069,0.02078 0.04815,0.21304 0.103168,0.426081 0.168508,0.632129 z M 26.2907,65.79131 h 1.664435 c -0.539909,1.742719 -0.539909,3.621626 0,5.364312 H 26.2907 c -0.687783,-1.714748 -0.687783,-3.649563 0,-5.364312 z m 0,-7.152449 h 1.664435 c -0.539909,1.742718 -0.539909,3.621626 0,5.364345 H 26.2907 c -0.687783,-1.711286 -0.687783,-3.65306 0,-5.364345 z m 19.223543,5.364345 H 29.822466 c -0.687783,-1.714782 -0.687783,-3.649564 0,-5.364345 h 15.691777 c -0.543351,1.742718 -0.543351,3.621626 0,5.364345 z M 29.822466,65.79131 h 15.691777 c -0.543351,1.742719 -0.543351,3.621626 0,5.364312 H 29.822466 c -0.687783,-1.714748 -0.687783,-3.649563 0,-5.364312 z m 19.079108,-6.523816 c -0.0034,0.01056 -0.0034,0.01748 -0.0069,0.02441 -0.06878,0.296852 -0.113482,0.593704 -0.151313,0.894052 -0.01033,0.07685 -0.01718,0.15367 -0.02751,0.230522 -0.02751,0.296852 -0.04815,0.593704 -0.04815,0.894052 0,0.0069 0,0.01385 0,0.02111 0,0.300349 0.02062,0.597201 0.04815,0.897549 0.01033,0.07335 0.01718,0.150174 0.02751,0.226992 0.03783,0.300349 0.08253,0.597201 0.151313,0.894053 0.0034,0.0069 0.0034,0.01385 0.0069,0.02111 0.04815,0.213041 0.103168,0.426081 0.168508,0.63213 h -1.688508 c -0.687782,-1.714782 -0.687782,-3.649564 0,-5.364346 h 1.688508 c -0.06534,0.206049 -0.120362,0.419089 -0.168508,0.628634 z m 16.54119,8.31192 H 50.486915 c 0.0034,-0.03493 0.01033,-0.06636 0.01377,-0.0978 0.02407,-0.174615 0.05158,-0.34923 0.08941,-0.520349 0.02062,-0.0908 0.04126,-0.181607 0.06534,-0.272411 0.04126,-0.157166 0.08598,-0.314333 0.137559,-0.471467 0.03095,-0.0908 0.05846,-0.181607 0.09285,-0.268914 0.02062,-0.05591 0.04471,-0.104789 0.06534,-0.157167 h 14.845802 c -0.178823,0.583215 -0.295745,1.183911 -0.354206,1.788104 z m 0,-5.364312 c 0.05846,0.604159 0.175383,1.204856 0.354206,1.788104 H 50.951168 c -0.02062,-0.05238 -0.0447,-0.101293 -0.06534,-0.153671 -0.03438,-0.0908 -0.0619,-0.181607 -0.09285,-0.272411 -0.05158,-0.157166 -0.09629,-0.314333 -0.137555,-0.471466 -0.02407,-0.0908 -0.04471,-0.181608 -0.06534,-0.272412 -0.03783,-0.174615 -0.06534,-0.345766 -0.08941,-0.520381 -0.0034,-0.03133 -0.01033,-0.06636 -0.01377,-0.09776 z M 32.814323,45.228047 h -7.042902 c -2.125248,0 -3.90317,-1.536638 -4.312401,-3.576208 h 15.667705 c -0.409232,2.03957 -2.18715,3.576208 -4.312402,3.576208 z M 29.292872,29.777662 36.38392,39.863734 H 22.201828 Z m 42.9727,10.459743 -8.212132,-11.678584 c 0.333573,-0.185103 0.653395,-0.401607 0.935386,-0.688004 l 0.140995,-0.143181 -1.244888,-1.26426 -0.140996,0.143215 c -0.698098,0.712445 -1.767603,0.88706 -2.658281,0.440034 -3.401089,-1.718278 -7.452134,-1.938279 -10.928878,-0.639123 -0.488326,0.181608 -0.990407,0.31783 -1.495927,0.433074 v -1.613489 c 0.563981,-0.649611 0.880363,-1.487756 0.880363,-2.350407 0,-1.973208 -1.578464,-3.576209 -3.521451,-3.576209 -1.942989,0 -3.52145,1.603001 -3.52145,3.576209 0,0.862651 0.316378,1.700796 0.880363,2.350407 v 1.613489 c -0.505523,-0.115244 -1.007604,-0.251466 -1.492491,-0.429577 -3.483623,-1.302653 -7.534664,-1.082652 -10.928878,0.632129 -0.904433,0.447026 -1.987692,0.247971 -2.661717,-0.436537 l -0.140999,-0.143215 -1.244888,1.26426 0.140995,0.143181 c 0.275115,0.2829 0.598373,0.499437 0.938825,0.688004 l -8.215572,11.678584 0.01033,0.01055 c -0.103168,0.146678 -0.175387,0.3143 -0.175387,0.509892 0,3.450475 2.764888,6.258365 6.162538,6.258365 h 7.042902 c 3.39765,0 6.162538,-2.80789 6.162538,-6.258365 0,-0.195592 -0.07566,-0.363214 -0.178823,-0.509892 l 0.01377,-0.01055 -7.930141,-11.276943 c 0.292306,-0.07335 0.581176,-0.174615 0.856287,-0.310837 2.974664,-1.505204 6.502994,-1.6973 9.542994,-0.562271 0.680907,0.251467 1.385884,0.429578 2.09774,0.569264 l -3e-6,22.829826 h -2.641091 c -3.098462,0 -5.660454,2.33639 -6.090319,5.364312 h -8.924007 c -0.333577,0 -0.63964,0.192097 -0.787515,0.492445 -1.162351,2.360863 -1.210497,5.147775 -0.168504,7.554057 -1.041993,2.402752 -0.993847,5.193194 0.168504,7.554057 0.147875,0.300348 0.453938,0.492411 0.787515,0.492411 H 67.10032 c 0.302624,0 0.588054,-0.16063 0.746247,-0.426048 0.161629,-0.261955 0.175383,-0.590241 0.04126,-0.869611 -0.980091,-1.987193 -0.980091,-4.362009 0,-6.349201 0.01033,-0.02441 0.01377,-0.04888 0.02407,-0.07332 0.01377,-0.03493 0.02751,-0.06986 0.03439,-0.104789 0.01033,-0.03839 0.01718,-0.07682 0.02062,-0.115244 0.0034,-0.03493 0.01033,-0.06986 0.01033,-0.108252 0,-0.03843 -0.0069,-0.07336 -0.01033,-0.108285 -0.0034,-0.03839 -0.01033,-0.07682 -0.02062,-0.115245 -0.0069,-0.0349 -0.02062,-0.06986 -0.03439,-0.104755 -0.01033,-0.02441 -0.01377,-0.04891 -0.02407,-0.07336 -0.980091,-1.98716 -0.980091,-4.362008 0,-6.349168 0.13412,-0.279403 0.120362,-0.607689 -0.04126,-0.873107 -0.158193,-0.261923 -0.443623,-0.422586 -0.746247,-0.422586 H 57.392261 C 56.962396,53.822834 54.400403,51.486444 51.301938,51.486444 H 48.660851 V 28.656618 c 0.711856,-0.139686 1.416832,-0.317797 2.101179,-0.569264 3.033121,-1.135029 6.568327,-0.942933 9.539551,0.562271 0.278554,0.136222 0.563985,0.240978 0.85629,0.310837 l -7.930141,11.276943 0.01377,0.01055 c -0.103171,0.146678 -0.178829,0.3143 -0.178829,0.509892 0,3.450475 2.764888,6.258365 6.162538,6.258365 h 7.042902 c 3.39765,0 6.162538,-2.80789 6.162538,-6.258365 0,-0.195592 -0.07566,-0.363214 -0.178823,-0.509892 l 0.01377,-0.01055"
            style="fill:#ffffff;fill-opacity:1;fill-rule:nonzero;stroke:none;stroke-width:0.887183" id="path5189" />
    </g>
</svg>