<?xml version="1.0" encoding="UTF-8" standalone="no"?>
<svg xmlns:dc="http://purl.org/dc/elements/1.1/" xmlns:cc="http://creativecommons.org/ns#"
    xmlns:rdf="http://www.w3.org/1999/02/22-rdf-syntax-ns#" xmlns:svg="http://www.w3.org/2000/svg"
    xmlns="http://www.w3.org/2000/svg" version="1.1" id="svg885" xml:space="preserve" width="100" height="100"
    viewBox="0 0 100 100">
    <defs>
        <linearGradient x1="-0.39899999" y1="68.556999" x2="137.05499" y2="68.556999" gradientUnits="userSpaceOnUse"
            gradientTransform="matrix(-0.02627955,-0.1728893,-0.17121794,0.02653607,-51.26924,-831.161)"
            spreadMethod="pad" id="linearGradient5051">
            <stop style="stop-opacity:1;stop-color:#181c3f" offset="0" id="stop5047" />
            <stop style="stop-opacity:1;stop-color:#203572" offset="1" id="stop5049" />
        </linearGradient>
    </defs>
    <g id="g8343" style="display:inline">
        <path
            d="m 76.947123,85.351824 c -0.505225,1.122365 -2.114763,1.464902 -3.334542,2.499813 -0.433057,0.225911 0.137139,-0.233236 0.959945,-0.823554 0.822806,-0.568472 1.804405,-1.39931 2.374597,-1.676259 z m 0.2887,5.189112 0.310373,0.429999 c 0.801159,-0.517453 1.494051,-1.122365 1.306392,-1.450328 -0.41863,0.327978 -0.606281,0.590334 -0.786721,0.859994 -0.166023,-0.153062 -0.332008,-0.25509 -0.830029,0.160347 z M 89.852234,64.289274 c 0.324797,-0.954741 0.584627,-1.858461 0.548537,-2.456084 -0.866107,3.542009 -2.822089,7.623334 -4.070741,10.421954 0.461927,-0.845416 0.938301,-1.683548 1.364132,-2.550827 l 1.147603,-2.660152 c 0.303123,-0.794398 0.692891,-1.800154 1.010469,-2.754891 z M 81.573621,13.48407 c 0.894985,0.663215 1.645616,1.406599 2.396251,2.084387 0.736196,0.692371 1.465177,1.348297 2.107547,2.0188 1.255864,1.377448 2.468419,2.616415 3.522193,3.862683 0.02148,0.02922 0.05052,0.05832 0.07219,0.08746 0.230967,0.619486 0.353682,1.209828 0.324797,1.756433 0.692895,0.874564 1.226997,1.785572 1.775539,2.638285 0.534102,0.867283 1.068201,1.683544 1.522916,2.499813 0.01458,0.02182 0.02148,0.04371 0.02877,0.05832 -0.0073,0.08746 -0.02148,0.167631 -0.01458,0.26966 0.05773,0.01441 0.122714,0.02922 0.180447,0.04371 0.79394,1.515924 1.566225,2.915231 2.215812,4.278104 0.678464,1.486769 1.414664,2.871505 2.093112,4.248953 0.656802,1.384737 1.385783,2.73303 2.201377,4.110478 -0.512452,-1.406599 -1.11151,-3.060993 -1.753877,-4.846577 -0.750627,-1.727273 -1.443526,-3.607597 -2.280771,-5.429617 -0.252603,-0.524743 -0.490797,-1.05677 -0.736204,-1.588801 0.0073,0 0.0073,0.0074 0.01458,0.0074 -0.151562,-0.50288 -0.310373,-0.801687 -0.483582,-1.049485 -0.418622,-0.918301 -0.837249,-1.822016 -1.284737,-2.68201 0.76507,0.852705 1.55901,1.698121 2.410682,2.536249 -0.851672,-1.224398 -1.854929,-2.667437 -2.937573,-4.219797 -0.223756,-0.276945 -0.440277,-0.568468 -0.664021,-0.859991 0,0 0,-0.0074 0,-0.0074 -0.375318,-0.801692 -0.757851,-1.55965 -1.060993,-2.295745 -0.837245,-0.145777 0.562976,1.078636 0.281488,1.275411 -0.404188,-0.539316 -0.808383,-1.078643 -1.234213,-1.610663 -0.79394,-1.093214 -1.566226,-2.142702 -2.396252,-3.082866 -0.599065,-0.714233 -1.190908,-1.39931 -1.775535,-2.047943 -0.187658,-0.196772 -0.382529,-0.378974 -0.577411,-0.561183 -0.606281,-0.699655 -1.190908,-1.39931 -1.73223,-2.077103 -0.570199,-0.677792 -1.133168,-1.311855 -1.61675,-1.945915 -0.88055,0.08017 0.967156,0.969311 0.570196,1.187957 C 81.097169,10.831218 79.617557,9.5485181 78.065759,8.5208961 77.307908,7.988861 76.557281,7.4787003 75.821077,7.004976 75.070446,6.5531066 74.29816,6.1668484 73.547525,5.7951563 c 1.717795,1.3774476 3.536639,2.660148 5.095645,3.8772566 1.54459,1.2389591 2.677759,2.5508151 2.930377,3.8116531 z M 56.45629,2.0199203 c 0.952725,0.2040565 1.840494,0.3862581 2.684955,0.5684676 0.85168,0.1603468 1.652835,0.3133697 2.43234,0.4591505 0.772286,0.1749167 1.537356,0.3352635 2.302426,0.4664354 C 63.045982,3.2661686 62.151001,3.0038092 61.241577,2.7268642 60.317722,2.5082378 59.364997,2.2895725 58.441142,2.0709422 56.586213,1.6117878 54.760153,1.4806081 53.352712,1.5316183 c 1.11873,0.1749167 2.14363,0.3352635 3.103578,0.488302 z M 95.886169,67.372132 c 0.303161,-0.969319 0.793947,-2.106254 1.198127,-3.243197 0.396976,-1.136943 0.606281,-2.295745 0.562976,-3.206757 -0.281488,1.049485 -0.627928,2.368625 -1.075428,3.53472 -0.425838,1.180668 -0.750631,2.252019 -0.685675,2.915234 z M 37.055309,1.6117878 C 37.993599,1.312988 38.910238,1.014157 39.790788,0.72992323 38.722583,0.97772838 37.66159,1.2400879 36.622251,1.5243216 35.597351,1.8668701 34.594098,2.2239846 33.626938,2.5956689 33.143356,2.7851555 32.674213,2.9746421 32.205066,3.1641404 31.750354,3.3681969 31.310078,3.6014322 30.884239,3.8273552 30.032559,4.2792167 29.2314,4.7456522 28.502423,5.2120915 30.393438,4.2864978 32.291676,3.3536231 34.226,2.6758384 35.185944,2.3187201 36.124238,1.9251653 37.055309,1.6117878 Z M 24.994658,7.3839453 C 25.745293,6.9247987 26.373225,6.4875109 26.755758,6.057508 25.290581,6.9539424 23.500612,7.8576618 22.576753,8.8634173 22.98816,8.6010422 23.399563,8.33139 23.80375,8.0763077 24.215157,7.8358264 24.619341,7.6025873 24.994658,7.3839453 Z M 77.308005,66.074854 c -0.223756,0.276945 -0.555749,0.772536 -0.90942,1.36287 -0.353682,0.597623 -0.82281,1.231682 -1.183692,1.916764 0.101041,0.189486 0.173235,0.502879 0.14435,0.102028 0.274276,-0.677793 0.99603,-1.289993 1.219778,-1.523209 -0.396968,0.539316 -0.873335,1.107788 -0.411407,1.289989 0.0073,-0.160347 0.05773,-0.2988 0.122715,-0.437284 0.02148,0.04371 0.03606,0.08017 0.0794,0.123883 0.151562,0.02922 0.498017,-0.327978 0.757851,-0.750669 0.238179,-0.429999 0.411407,-0.903723 0.317585,-1.020333 -0.07219,0.182202 -0.230967,0.357118 -0.411407,0.532027 0.05052,-0.131168 0.04331,-0.25509 -0.06494,-0.371688 -0.05052,0.153062 -0.173235,0.335264 -0.303161,0.517453 1.111506,-2.004222 1.089855,-2.295748 0.642363,-1.74185 z m 4.814153,-0.845416 c 0.360894,-0.80898 1.097079,-1.690837 0.526887,-2.244731 -0.332009,0.932875 -0.642367,1.698122 -0.526887,2.244731 z M 56.052099,99.592731 c 0.512448,-0.145777 0.996029,-0.2988 1.407433,-0.437284 -0.519664,0.153062 -1.060986,0.276945 -1.602308,0.335264 -0.541322,0.04371 -1.082644,0.05832 -1.587876,0.07289 -1.017688,0.02922 -1.90545,0.051 -2.490077,0.28423 0.606278,0.211339 1.616746,0.182199 2.684959,0.03662 0.526875,-0.07289 1.068197,-0.174917 1.587869,-0.291515 z M 85.10304,69.5294 c 0.06494,0.109314 0.541322,-0.502875 0.93829,-2.237437 -0.375317,0.648637 -0.606281,1.187957 -0.757851,1.574223 -0.158773,0.371688 -0.216544,0.6122 -0.180447,0.663214 z m -7.773384,10.713481 c 0.64237,-0.932875 1.566225,-1.945919 1.67449,-2.798624 -0.483582,0.604911 -1.263083,1.333718 -1.818833,1.85846 -0.55576,0.532028 -0.894988,0.874568 -0.562976,0.641349 0.873327,-0.932871 0.122677,0.22595 0.707319,0.298799 z m 6.228813,-8.104347 c -1.032123,0.736096 -1.198128,2.179139 -2.331296,3.439977 1.104298,-0.0656 1.753885,-2.907946 2.331296,-3.439977 z M 26.019562,92.209906 c -0.245391,0.08746 -0.728977,0.051 -0.671237,-0.211341 -0.664021,-0.459151 -2.836528,-1.712699 -3.139667,-2.062529 -0.79394,-0.510165 -1.573445,-1.013044 -2.324076,-1.523209 -1.342477,-0.983889 -2.728264,-1.851172 -4.034652,-2.718451 0.555757,0.153062 1.08986,0.225911 1.84771,0.736096 C 17.091363,85.818271 16.513952,85.227937 15.950975,84.637603 15.517918,84.22947 15.09208,83.821338 14.680673,83.405916 13.482549,82.094061 12.306076,80.818649 11.208997,79.550522 10.162443,78.245955 9.0437098,77.05071 8.0115905,75.870041 c 0.498013,0.291515 0.9960299,0.50288 1.5950956,1.195246 C 9.5633771,76.985114 9.5200681,76.912225 9.4767597,76.832052 7.2681672,73.749198 5.6081122,70.557015 4.3666797,67.022299 4.0202475,67.2045 4.3521027,68.035343 4.7347855,68.895337 4.7060152,69.427364 4.395565,68.603822 4.0418942,67.627207 3.6737885,66.66518 3.3995274,65.499086 3.1180393,65.455361 3.5438812,65.535534 3.5583162,64.879604 3.3490069,63.800968 3.2335422,63.298088 3.1036158,62.685892 2.9664776,62.015388 2.3241069,59.661336 1.8982689,57.292711 1.7033945,54.829339 c -0.2598529,0.05832 -0.2886999,0.510168 -0.2309676,1.085925 0.02877,0.196771 0.050521,0.386258 0.079406,0.590338 0.014577,0.07289 0.021482,0.145776 0.036059,0.225911 C 1.4868508,57.037598 1.4146567,56.833541 1.3569244,56.396249 1.0104918,55.951677 1.1836887,54.209826 0.70733773,52.774075 0.40421436,53.131193 0.48358189,54.122371 0.32480846,54.712705 -0.50522096,52.613736 1.1187446,51.884929 0.88778091,49.363254 0.64960159,49.603774 0.54856046,50.164941 0.52688687,50.879178 0.34643986,50.631373 0.34643986,49.997317 0,50.113927 0.11546461,47.264285 0.49079747,44.400072 1.1115137,41.565012 1.0609937,41.68161 1.0104726,41.790923 0.95995204,41.885705 0.83723733,40.858083 1.1476108,40.245886 1.5517945,39.640975 1.7105679,39.021489 1.8982267,38.409287 2.0786813,37.79709 2.0641043,37.563855 2.0426223,37.345225 1.8188668,37.352517 3.8831093,30.669347 7.4486142,24.292278 12.241117,18.862661 c 1.234213,-1.392033 2.547824,-2.718463 3.933607,-3.979293 0.902204,-0.874571 1.826059,-1.727285 2.786003,-2.550827 0.252603,-0.145777 0.526887,-0.320693 0.79394,-0.488302 0.505233,-0.823553 2.490081,-1.771006 3.52942,-2.5945558 -0.07941,0.1457769 -0.230968,0.3060848 -0.418623,0.4591466 2.208593,-1.4503282 4.525449,-2.7548913 6.950571,-3.8991231 0.281488,-0.072888 0.591846,-0.1749167 0.887769,-0.2623751 0.649586,-0.6122006 2.533386,-0.9984705 3.774818,-1.4648981 -0.844464,0.2113414 -1.64562,0.26966 -1.847714,0.014414 0.952725,-0.8745678 2.923138,-0.7725357 4.085176,-1.0640661 -0.245391,0.3571183 -1.125952,0.7506731 -2.013718,0.9984665 -0.606281,0.53932 -2.43234,0.8891456 -3.673773,1.4284656 0.108253,-0.03662 0.202083,-0.058319 0.310374,-0.094743 0.541322,-0.1457769 1.118733,-0.3060848 1.717795,-0.4664355 1.198127,-0.3060847 2.453995,-0.7725358 3.832562,-1.0494845 1.371347,-0.2915148 2.786003,-0.6777847 4.2584,-0.8818645 1.472396,-0.1894866 2.959223,-0.4299952 4.438839,-0.488302 1.176469,-0.072889 2.352946,-0.094743 3.529419,-0.072889 0.0073,0 0.02148,0 0.02877,0 0.04331,0 0.08662,0 0.122715,0 0.151562,0 0.310374,0 0.461932,0.0074 5.081206,0.021816 10.191286,0.7215295 15.092052,2.3467626 10.155201,3.2869225 19.451494,9.9409414 25.550396,19.4373084 -0.173235,-0.01441 -0.353682,-0.109313 -0.555756,-0.306084 1.443522,2.106254 2.728259,4.336407 3.825338,6.68317 0.382529,0.670499 0.76507,1.341003 1.140395,1.996933 0.274277,0.502879 0.555757,0.991177 0.793937,1.501342 0.223755,0.510161 0.440277,1.027622 0.64237,1.545076 -0.418622,-0.349834 -0.772293,-1.05677 -1.162038,-1.814732 -0.05773,-0.102028 -0.108253,-0.204056 -0.165985,-0.306085 0.310373,0.80898 0.606274,1.617956 0.873334,2.448799 -0.259814,-0.09474 -0.498016,-0.357118 -0.692891,-0.991182 0.0073,0.04375 0.02148,0.08746 0.03606,0.131207 0.101041,0.291515 0.209294,0.58305 0.303162,0.889146 0.2887,0.867283 0.584619,1.756429 0.87333,2.616419 0.23818,0.874569 0.433065,1.727278 0.599074,2.485237 -0.317586,-0.808977 -0.591854,-1.712696 -0.923859,-2.667439 0.317585,1.166092 0.664021,2.303035 1.039338,3.432685 0.295912,1.129655 0.591854,2.244731 0.88055,3.337941 0.129927,0.553898 0.281489,1.100503 0.375318,1.654393 0.08662,0.553897 0.166024,1.107783 0.223756,1.654392 -0.317585,-0.451862 -0.476363,-1.217109 -0.656802,-2.062529 -0.209294,-0.838131 -0.396968,-1.756428 -0.642371,-2.507102 0.05773,1.173384 0.339221,2.871505 0.425842,4.700811 0.05773,0.911008 0.115465,1.851172 0.173236,2.754891 0.0073,0.903723 -0.02148,1.778295 -0.05773,2.558116 -0.137138,-1.173379 -0.151561,-2.499809 -0.303123,-3.93556 -0.14435,-1.428465 -0.137138,-2.966248 -0.389745,-4.518608 -0.469147,1.224397 -0.685676,3.002692 -0.815598,4.766406 -0.03606,0.437284 -0.07219,0.881857 -0.108253,1.311856 -0.07219,0.429995 -0.137138,0.84542 -0.202082,1.24626 -0.14435,0.801687 -0.317586,1.515924 -0.555757,2.077102 0.129926,-0.306084 -0.07941,-0.400843 -0.353683,-0.291515 0.03606,0.918294 -0.324796,2.45608 -0.360894,3.439973 -0.267026,-0.568471 0.09383,-2.142694 0.216545,-3.359807 -0.230968,0.145777 -0.476363,0.415421 -0.606274,0.838132 -0.02877,0.07289 -0.05052,0.138453 -0.07219,0.204056 -0.0073,-0.09474 -0.04331,-0.174917 -0.108253,-0.218626 0.158773,0.109313 -1.082644,1.501346 -0.902204,0.25509 -0.346433,1.51592 -0.779502,2.915234 -1.226994,4.227086 -0.512452,1.289989 -1.104298,2.485235 -1.68171,3.636752 0.274277,-1.289993 1.349697,-3.359807 1.789974,-5.487924 0.56298,-2.098969 0.56298,-4.161494 -0.461931,-4.93403 -0.649586,0.750673 -1.241429,1.515924 -1.768308,2.558116 -0.584631,1.034911 -0.974379,2.383203 -1.335262,4.29997 -0.346432,0.09474 -0.750631,-0.01441 -1.017692,0.400844 -0.274276,-0.109313 0.541322,-1.209824 0.47637,-2.142694 -0.05773,-0.335264 -0.346432,-0.393559 -0.187658,-0.991182 -0.09383,0.02182 -0.180447,0.08017 -0.259815,0.138453 -0.07219,0.670503 -0.180447,1.588801 -0.202082,2.237442 -0.317585,0.04375 -0.274277,-0.31337 -0.216544,-0.685078 -0.389753,1.085925 -0.534095,1.909475 -0.750632,2.747606 -0.187658,0.845417 -0.324796,1.741851 -0.692895,2.944382 -0.295911,-0.26966 -0.48357,0.28423 -0.685664,0.721522 0.245391,-1.100499 0.584619,-2.674726 1.140384,-4.256238 0.281488,-0.787113 0.461927,-1.625241 0.721761,-2.39778 0.101041,-0.342549 0.216544,-0.677789 0.332009,-1.005756 -0.230968,0.276945 -0.440277,0.612201 -0.685676,0.859994 -0.151561,-0.685077 1.544571,-2.412354 0.101041,-2.740317 -0.505236,-0.02922 -0.519671,1.180668 -0.692895,2.004222 -0.375317,-0.116598 -0.245391,-0.801687 -0.101041,-1.523205 -0.541322,0.07289 -0.931074,0.349833 -1.205343,0.291515 -0.07219,0.510164 -0.202082,0.976604 -0.295912,1.144228 -0.129926,-0.08017 -0.115464,-0.31337 -0.288699,-0.349834 -0.772286,3.593027 -0.2887,-0.116598 0.230967,-1.311852 0,-0.0074 -0.0073,-0.01441 -0.0073,-0.02922 -0.606274,0.655926 -0.873323,1.04948 -1.097071,1.464902 -0.209294,0.415421 -0.418623,0.845416 -0.931075,1.501346 -0.129926,-0.24052 0.02148,-0.670504 0.202083,-1.122365 0.158773,-0.459151 0.375317,-0.932875 0.469146,-1.224398 -0.122714,-0.306085 -0.252602,-0.604912 -0.389752,-0.889149 -0.62794,0.400847 -0.166024,2.142698 -0.591846,2.332189 -0.23818,-0.08017 -0.476371,-0.153062 -0.584627,0.138453 -0.151562,-0.663215 0.79394,-1.574227 0.873334,-2.784047 -0.245391,0.02182 -0.505236,1.027618 -0.346432,-0.05103 -0.396976,0.2988 -0.353682,1.566938 -0.692891,1.996937 -0.06494,-0.604911 -0.02148,-1.894901 0.115464,-2.856927 -0.440273,-0.233235 -0.425838,0.473728 -0.642366,0.685081 -0.122715,0.539317 0.0073,0.816262 0.396968,0.838128 -0.664014,0.816265 -1.25586,0.874572 -1.580661,1.734566 -0.570192,0.31337 -0.06494,-1.122365 -0.454708,-0.357118 -0.2887,-0.429999 -0.115503,-1.457617 0.115503,-2.507098 0.05773,-0.262375 0.108253,-0.524743 0.158773,-0.779825 0.02877,-0.25509 0.04331,-0.502876 0.05052,-0.736095 0.0073,-0.342549 -0.0073,-0.634064 -0.07941,-0.852706 -0.05773,0.881857 -0.158773,1.756425 -0.2887,2.638282 -0.01458,0.09474 -0.02877,0.196771 -0.04331,0.291515 -0.04331,0.26966 -0.09383,0.532027 -0.14435,0.801687 -0.05052,0.26966 -0.101041,0.53932 -0.151561,0.808976 -0.02148,0.09474 -0.04331,0.182202 -0.06494,0.276945 -0.440277,1.975071 -1.068217,3.877257 -1.869365,5.684703 -0.02148,0.04371 -0.04331,0.08746 -0.05773,0.131168 -0.180447,0.400844 -0.368106,0.801688 -0.562972,1.187957 -0.06494,0.131168 -0.129927,0.255091 -0.194871,0.378974 -0.151562,0.298799 -0.310373,0.597623 -0.476362,0.889145 -0.115465,0.204057 -0.230968,0.400844 -0.353683,0.604912 -0.122714,0.204057 -0.245391,0.415421 -0.368105,0.619486 -0.04331,0.07289 -0.08662,0.145777 -0.129927,0.211341 0.07219,0.051 0.245391,-0.153062 0.512452,-0.663215 0.216544,0.583046 -0.873331,1.44304 -1.183689,1.800154 0.844461,0.779825 1.097071,-0.9766 1.667271,-1.217104 -0.216544,1.217104 -1.393002,2.055236 -1.660063,3.046417 0.274277,-0.22595 0.938298,-1.027622 1.566226,-1.93863 -0.216544,0.532027 -0.353644,1.217109 -0.570192,1.873035 -0.05052,0.153061 -0.108253,0.306084 -0.180447,0.444572 0.382529,-0.408132 0.76507,-0.787113 1.003253,-1.085925 0.0073,0.08746 -0.01458,0.174917 -0.02877,0.262376 0.02877,-0.01441 0.05052,-0.04371 0.07941,-0.05832 -0.03606,1.384736 -1.85493,2.171846 -2.316857,3.797087 0.483582,0.138453 0.483582,-1.100499 1.140384,-1.09321 -0.209294,-0.138453 0.158773,-0.612201 0.656813,-1.100499 0.505225,-0.488302 1.060989,-1.078636 1.385775,-1.311855 -0.757851,1.39931 -1.559006,2.295748 -2.302422,3.279637 -0.360894,0.502876 -0.779501,0.969315 -1.234213,1.486769 -0.440273,0.532031 -0.923855,1.115076 -1.479616,1.78558 1.364136,-1.319145 2.800443,-1.880324 4.402754,-3.644041 -1.263083,0.473728 0.353682,-0.692366 0.837245,-0.736095 -0.158774,-0.422711 0.245391,-1.071348 0.801155,-1.785581 0.137139,0.102029 -0.07941,0.357119 -0.166023,0.553894 2.280767,-2.288456 3.767599,-5.808598 5.355479,-9.948229 -0.137139,0.728806 -0.310374,1.450328 -0.498025,2.164561 -0.216544,0.706944 -0.512444,1.377447 -0.786713,2.047951 -0.08662,0.22595 -0.187659,0.437284 -0.281488,0.648637 0.267065,-0.451858 0.534102,-0.823554 0.700111,-0.85999 0.209294,-0.408137 0.02148,-0.517454 0.14435,-0.859994 0.245391,-0.145777 0.166023,0.437284 -0.02877,1.122365 -0.187658,0.685077 -0.599069,1.413884 -0.78672,1.610663 -0.101041,-0.109313 -0.02877,-0.335263 -0.187659,-0.408132 -0.88055,1.727273 -0.894985,1.566938 -0.599062,0.889145 -0.303162,0.53932 -0.620716,1.056774 -0.923855,1.574227 -0.324797,0.583046 -0.714545,1.100495 -1.075428,1.617953 -0.158773,0.306084 -0.310373,0.6122 -0.483582,0.911012 -0.389749,0.619485 -0.84446,1.195242 -1.284737,1.771002 -0.252603,0.349834 -0.519668,0.670504 -0.801156,0.983889 -0.115465,0.189487 -0.230968,0.371688 -0.332009,0.561183 0.728981,-0.714233 1.407437,-1.377448 2.020942,-2.055236 0.202082,-0.378974 0.490797,-0.794403 0.822802,-1.275416 0.04331,0.0656 0.05773,0.131168 0.07219,0.196772 0.0073,-0.0074 0.01458,-0.01441 0.02148,-0.02922 0.418622,-0.539316 0.82281,-1.064058 1.226994,-1.588801 0.368105,-0.55389 0.70733,-1.12965 1.068208,-1.712695 1.429099,-2.332185 2.684959,-5.116232 3.767603,-9.197557 0.0073,0.903724 -0.209332,1.858461 -0.505229,2.842354 -0.281488,0.983889 -0.613497,2.011507 -1.082643,2.980822 -0.815591,1.996937 -1.898235,3.855394 -2.518951,5.648263 -0.216544,0.167631 -0.245391,0.0656 -0.346432,-0.02922 -0.04331,0.0656 -0.07941,0.138453 -0.122715,0.204057 -0.526891,0.881856 -1.104294,1.778291 -1.811628,2.594556 -0.317585,0.42271 -0.649586,0.830842 -0.988814,1.231686 0.368105,-0.218626 0.765066,-0.357118 0.591842,-0.532031 0.692895,-0.539316 0.209294,0.648641 -0.151562,1.013044 0.404188,0.0074 1.053774,-0.415421 0.541322,0.459151 0.375318,0.196771 0.894985,-0.46644 1.320827,-0.481014 0.07941,-0.25509 0.180447,-0.488302 0.41863,-0.830842 l 0.692903,-1.012694 c 0.43305,-0.801687 0.945502,-1.698125 1.544563,-2.587271 0.476371,-0.685078 0.858904,-1.450328 1.313608,-2.128121 0.425842,-0.699651 0.902204,-1.333718 1.263083,-1.924048 0.166024,-0.160347 -0.685664,1.792865 -1.032119,2.929808 -0.07941,-0.0074 -0.129927,-0.03662 -0.158774,-0.08017 -0.461927,1.319141 -1.313607,2.514387 -2.61278,4.292678 -0.04331,0.0656 -0.07219,0.131168 -0.115464,0.196772 -0.0073,-0.0074 -0.01458,-0.0074 -0.01458,-0.01441 -0.03606,0.05103 -0.06494,0.09474 -0.108253,0.145776 0.02877,-0.05832 0.05052,-0.109313 0.07941,-0.167631 -0.158774,-0.167632 -0.353682,0.01441 -0.562976,0.26966 -0.627932,1.545075 -1.414653,2.645574 -2.208593,3.826242 -0.447492,0.561183 -0.90942,1.136943 -1.407429,1.771006 -0.498025,0.641349 -1.017692,1.36287 -1.67449,2.128117 -1.147603,-0.05099 -1.992072,2.120832 -3.680993,2.995404 0.245391,-0.145777 1.162042,-0.408133 2.006503,-0.852709 0.418622,-0.247805 0.815587,-0.532027 1.104298,-0.845417 -0.187659,0.08746 -0.368106,0.131207 -0.548549,0.102029 0.368106,-0.240521 0.678468,-0.510169 0.952729,-0.787114 0.02148,-0.09474 0.03606,-0.182202 0.02877,-0.276945 0.166024,-0.08746 0.245391,-0.08746 0.2887,-0.05099 0.620716,-0.670504 1.111514,-1.319145 1.862149,-1.59609 -0.433058,0.225911 -1.111514,1.289989 -1.82606,2.018796 0,0.01441 0.0073,0.02922 0.0073,0.03662 0.620716,-0.721517 0.70733,-0.867279 1.349697,-0.903719 0.317585,-0.400844 -0.411403,-0.04375 -0.0073,-0.488302 0.519668,-0.196772 1.00325,-0.364403 2.093109,-1.20982 0.209332,-0.211341 0.425842,-0.408132 0.627936,-0.626778 -0.151562,-0.145777 -0.389753,0.04371 -0.649587,0.276945 1.313608,-1.268127 2.540602,-2.674726 3.695432,-4.190646 -0.137138,0.08017 -0.274277,0.09474 -0.389753,-0.01441 0.476363,-0.583045 0.866108,-1.231682 1.277511,-1.86575 0.0073,0.153062 -0.14435,0.699655 -0.368106,1.187957 2.410686,-3.316073 4.446059,-7.178756 6.01228,-11.617195 0.519672,0.0074 -0.671236,1.66897 -0.165985,1.690832 0.728981,-0.93287 1.205343,-3.461835 1.580661,-5.079791 -0.555757,-0.444573 -0.505233,1.224397 -0.76507,1.86575 -0.433058,0.743384 0.310373,-2.703878 0.620716,-2.907946 0.33922,0.561183 0.209294,1.7127 -0.07941,3.009978 -0.368106,1.275415 -0.90942,2.689299 -1.241429,3.877256 -0.0794,-0.218626 -0.158773,-0.429995 -0.396971,-0.495587 -0.09383,0.31337 -0.209294,0.626775 -0.339221,0.932871 0.368106,0.145777 0.404188,-0.0656 0.562976,0.947453 -0.05052,0.25509 -0.19487,0.393555 -0.353682,0.481013 -0.05773,0.153062 -0.115503,0.306085 -0.187659,0.466435 -0.332008,0.765247 -0.894985,1.581516 -1.075428,2.171846 0.01458,-0.539316 0.151562,-0.940159 0.339221,-1.333718 -0.173236,0.02922 -0.310374,-0.05832 -0.671237,0.524742 0.122715,0.641352 -0.274277,1.661682 -0.85168,2.791336 -0.685676,1.136943 -1.573441,2.36134 -2.194158,3.41811 -0.01458,-0.145777 -0.03606,-0.28423 -0.09383,-0.400844 -0.180447,0.247805 -0.360894,0.495587 -0.541322,0.743384 0.158774,0.09474 0.194871,0.167632 0.115465,0.940164 -0.396968,0.808976 -1.522917,0.02182 -0.967153,0.947449 -0.678456,0.670503 -0.714545,0.378973 -0.981598,0.429995 -0.757859,0.969315 -1.436307,1.873038 -1.919893,2.594556 -0.01458,-0.102028 -0.05052,-0.153062 -0.09383,-0.174917 -0.656814,0.699655 -1.479624,1.501347 -2.446776,2.252016 -0.548541,0.444576 -1.104298,0.896434 -1.66727,1.348296 -0.0073,0.0074 -0.01458,0.01441 -0.02148,0.01441 0.180447,0.04375 0.404187,0.102028 0.137138,0.481013 0.202082,0.116598 0.411403,-0.02182 0.606281,-0.225911 -0.02877,0.01441 -0.05773,0.03662 -0.09383,0.0656 0.05773,-0.364403 0.310373,-0.546605 0.613497,-0.692366 0.122714,-0.131207 0.223755,-0.204057 0.303161,-0.131207 0.346433,-0.138453 0.714542,-0.28423 0.981595,-0.575756 0.06494,0.488298 -0.483582,0.634059 -0.894985,0.757958 0,0.0074 0.0073,0.0074 0.0073,0.01441 -0.166024,0.138453 -0.281488,0.25509 -0.382529,0.357118 0.02877,0.02922 0.05773,0.0656 0.108252,0.109313 -0.108252,0.07289 -0.187658,0.08017 -0.267064,0.0656 -0.317585,0.386258 -0.245391,0.53932 -0.548549,0.80898 -0.483582,0.196771 -0.837245,0.102028 -1.06099,-0.28423 -0.858899,0.583045 -0.974379,0.969315 -1.046558,1.406599 0.923859,-1.2827 0.23818,0.306085 1.465181,-0.838128 0.05052,0.204057 -0.447493,0.517454 -0.324797,0.699655 0.858896,-0.233235 2.201373,-1.610663 3.139667,-2.091676 -1.118741,1.042196 -2.540605,2.419643 -3.861432,3.396243 -1.291953,1.013045 -2.287987,1.90219 -2.35295,2.215579 0.06494,0.437284 -1.746665,0.612197 -0.483578,-0.138491 -0.519671,0.160346 -2.230243,1.807442 -3.875867,2.390488 0.505232,0.04371 1.118733,-0.102029 0.613497,0.510164 1.508482,-0.459146 1.053774,-0.517453 2.143637,-1.275411 -0.101041,0.211341 -0.194871,0.429995 -0.07219,0.641348 0.952728,-0.714229 0.454708,-0.750669 1.580664,-0.852705 -3.572717,2.200989 -8.343565,4.154193 -13.323726,5.276559 -2.425194,0.634063 -4.973018,0.88186 -7.405359,1.078636 -1.212559,0.03662 -2.410682,0.05103 -3.558289,0.05103 -1.154819,0.02182 -2.251898,-0.138453 -3.305671,-0.211341 -0.368106,0.26966 -0.80116,-0.09474 -1.320827,-0.364403 -0.461928,-0.05832 -0.90942,-0.131169 -1.364132,-0.204057 -0.07941,0.167632 0.461927,0.539316 -0.562973,0.276945 -0.346432,-0.204057 -0.894988,-0.415421 -1.55901,-0.634063 -0.108253,-0.02182 -0.216505,-0.03662 -0.324797,-0.05832 -1.183688,-0.28423 -2.338511,-0.583045 -3.450021,-0.881857 -1.118733,-0.276945 -2.143637,-0.721521 -3.139667,-1.071347 -0.461927,0.182202 -0.801155,-0.386258 -1.291957,-0.801691 -0.375317,-0.153062 -0.75785,-0.306085 -1.133164,-0.466436 -0.180447,0.109314 0.324797,0.677793 -0.627932,0.138453 -0.310373,-0.320693 -0.851684,-0.706943 -1.52292,-1.136939 -0.173236,-0.08746 -0.353683,-0.167631 -0.519672,-0.262375 -0.837245,-0.437284 -1.645616,-0.852705 -2.389035,-1.268126 -0.714546,-0.451862 -1.371348,-0.881857 -1.948759,-1.268123 1.934324,1.486765 3.883082,2.579979 5.774101,3.695055 1.97041,0.954737 3.897518,1.967782 6.08446,2.638285 -3.016964,-0.619489 -5.810183,-1.85846 -8.401313,-3.243197 z M 87.658076,67.896874 c 0.05052,-0.109313 0.101041,-0.22595 0.151562,-0.342548 -0.194871,0.0656 -0.303162,0.131168 -0.151562,0.342548 z M 73.88685,77.910696 c -0.06494,0.0656 -0.137138,0.131168 -0.202082,0.204056 0.122715,0.03662 0.238179,0.02922 0.360894,0.0074 -0.07219,-0.02922 -0.08662,-0.123883 -0.158773,-0.211341 z M 3.9841543,36.36864 c 0.1299264,-0.429995 0.2526028,-0.838131 0.3320087,-1.202535 -0.1515617,0.364404 -0.2886999,0.714237 -0.4258381,1.064059 0.02877,0.08746 0.057732,0.138492 0.093829,0.138492 z M 70.480134,85.271654 c -0.382529,0.371689 -0.866111,0.736096 -1.320827,1.100503 0.02148,0.02922 0.02877,0.051 0.06494,0.08017 0.757851,-0.386258 1.638397,-0.92559 1.436307,-1.311855 -0.05052,0.03662 -0.115503,0.08746 -0.180447,0.131168 z m -5.160604,3.22862 c 0.14435,-0.116598 0.267064,-0.24052 0.353682,-0.378973 -0.230968,0.109313 -0.483578,0.218665 -0.808375,0.313408 0.122715,0.05832 0.281488,0.07289 0.454712,0.0656 z m 0.707326,-0.225912 c 0.02148,-0.01441 0.04331,-0.02181 0.07219,-0.02922 0.230968,-0.160347 0.404188,-0.26966 0.555757,-0.357119 0.03606,-0.02922 0.07941,-0.05103 0.115465,-0.08746 0.678456,-0.53932 1.299172,-1.217109 1.631185,-1.51592 -1.205344,0.510165 -1.522921,1.09321 -2.287987,1.588801 0.0073,0.102028 -0.101041,0.276945 -0.08662,0.400843 z m 4.929637,-0.349833 c 0.635151,-0.408132 1.082643,-0.743384 0.656809,-0.65593 -0.577415,0.473728 -1.147603,0.677793 -1.602315,0.852705 -0.447496,0.189487 -0.779505,0.378974 -0.923855,0.816265 0.346432,-0.218626 1.212563,-0.634059 1.869361,-1.01304 z m 1.414656,-0.08746 1.984848,-1.341008 -0.209294,-0.291514 c -0.562972,0.553893 -2.367381,1.209819 -1.775535,1.632529 z M 86.438298,70.170764 c -0.02148,-0.02922 -0.04331,-0.02922 -0.06494,-0.05099 -0.115503,0.313369 -0.281488,0.685077 -0.505236,1.107787 -0.469143,0.911009 -1.125941,2.047951 -1.97041,3.163028 0.873331,-0.911012 1.840495,-2.900657 2.540602,-4.219801 z m -9.823184,5.159965 c -0.02148,-0.0656 -0.01458,-0.131168 -0.0073,-0.189487 -0.84446,0.983889 -1.67449,1.931342 -2.324076,2.900657 0.346432,-0.167632 0.700111,-0.532031 1.075428,-0.969315 0.2887,-0.349834 0.620717,-0.728811 0.931075,-1.136943 0.310373,-0.408133 0.642367,-0.816261 1.017684,-1.158802 -0.187659,-0.102028 -0.447492,0.306085 -0.692891,0.553894 z m 3.031399,-4.941323 c -0.04331,0.138453 -0.129927,0.313409 -0.23818,0.517454 0.115465,-0.167632 0.230968,-0.342549 0.346432,-0.517454 -0.03606,0 -0.06494,-0.0074 -0.108252,0 z m -5.045117,0.597623 c -0.238179,0.218627 -0.476363,0.444573 -0.70733,0.692367 0.281488,-0.0656 0.490801,-0.349834 0.70733,-0.692367 z m -0.894985,0.663215 c -0.01458,0.0074 -0.02148,0.02182 -0.03606,0.02922 0.0073,0 0.01458,0 0.02148,0 4e-6,-0.0074 0.0073,-0.02182 0.01458,-0.02922 z M 35.489087,4.9424471 c -0.916639,0.2915148 -1.645616,0.5830453 -1.566226,0.612189 0.0073,0 0.01458,0 0.02148,0 0.664021,-0.2550901 1.176469,-0.4518656 1.544571,-0.612189 z M 24.713174,9.4246077 c -0.230968,0.080173 -0.721765,0.3644033 -1.342481,0.8089763 0.64959,-0.3789734 1.089863,-0.6413484 1.356916,-0.8162651 -0.0073,0.0074 -0.0073,0.0074 -0.01458,0.0074 z m -4.677022,2.2447303 c 0.05052,-0.03662 0.101041,-0.05832 0.151561,-0.09474 0.317585,-0.233235 0.649586,-0.459151 0.967164,-0.685085 -0.396972,0.25509 -0.786721,0.517453 -1.118733,0.779824 z M 1.1692806,52.978174 c 0.216544,-0.153061 0.3320087,-0.714232 0.3897525,-1.523205 0.02877,-0.685081 0.072156,-1.552356 0.1227147,-2.514382 -0.00729,-0.25509 -0.02877,-0.488302 -0.072194,-0.670504 0.036059,0.09474 0.072194,0.145777 0.1010411,0.196772 0.021482,-0.400848 0.050521,-0.808977 0.079406,-1.224398 -0.2598145,0.08746 -0.072194,-1.523205 0.2886999,-3.687766 0.093829,-0.481017 0.2165441,-0.991182 0.3392205,-1.515924 0.1515617,-0.911008 0.3681057,-1.705407 0.5990656,-2.354051 0.043309,-0.182202 0.093829,-0.364404 0.1371382,-0.546605 0.021482,-0.08017 0.043309,-0.160347 0.072156,-0.240521 -0.4330575,0.400848 0.324797,-1.260841 0.5557569,-2.383199 -0.209294,0.539316 -0.4186225,1.071347 -0.6062813,1.581512 -0.3320087,0.932875 -0.5557568,1.843883 -0.8011556,2.718455 -0.2165441,0.84542 -0.4402769,1.66897 -0.5990618,2.470661 -0.02877,0.218627 -0.057732,0.422711 -0.086618,0.648637 -0.00729,0 -0.00729,-0.0074 -0.014577,-0.01441 -0.1010411,0.641353 -0.2020822,1.275416 -0.2814881,1.909479 -0.093829,0.816269 -0.2165441,1.625245 -0.2526028,2.456088 -0.021482,0.830838 -0.036059,1.66897 -0.02877,2.543538 -0.021482,0.692358 0.00729,1.413876 0.057732,2.149975 z M 26.698018,93.733115 c -0.736196,-0.28423 -2.057019,-1.39931 -2.396251,-1.136939 0.447493,0.306085 0.411407,0.568468 0.815595,0.874568 0.09383,-0.510164 1.320823,0.539316 1.580656,0.262375 z m 60.996148,-28.60571 c 0.108252,-0.546608 0.108252,-1.166094 0.06494,-1.319144 -0.230968,0.721521 -0.440277,1.450328 -0.757851,2.135406 0.324797,0.167631 0.584627,-0.26966 0.692891,-0.816262 z m 3.139666,-9.700436 c 0.07941,0.911009 -0.05052,1.574223 -0.180447,2.171846 -0.151561,0.597623 -0.267064,1.129654 -0.09383,1.843883 0.02148,-0.612196 0.353644,-1.545071 0.47637,-2.37591 0.129927,-0.830843 0.165985,-1.537787 -0.202082,-1.639819 z m -12.710236,9.729584 c 0.346432,-1.32643 1.710575,-2.383203 1.371347,-3.316074 -0.360894,0.852705 -1.457957,2.375914 -1.371347,3.316074 z m 2.143633,-5.764869 c -0.05052,0.663215 -0.988815,1.996933 -0.281488,2.077099 -0.180447,-0.874568 0.822806,-1.719984 0.281488,-2.077099 z m 9.743793,19.692391 c 0.541322,-0.859994 1.306392,-1.829309 1.992068,-2.820487 0.671237,-0.991177 1.176469,-2.055236 1.364136,-2.95167 -0.541322,0.940163 -1.212559,2.12812 -1.948759,3.133872 -0.707334,1.034907 -1.291961,1.982359 -1.407445,2.638285 z M 66.900186,96.655634 c -0.122714,-0.189486 -0.252602,-0.327978 -0.837245,-0.05832 l 0.187659,0.495587 c 0.909424,-0.291515 1.732234,-0.692366 1.638401,-1.064059 -0.490801,0.204057 -0.743416,0.415422 -0.988818,0.626775 z M 91.173061,69.748046 c 0.332008,-1.09321 1.291949,-2.820487 1.277525,-3.629463 0.46914,-1.231686 0.808368,-2.375914 0.642363,-2.813198 -0.245391,0.794398 -0.678456,1.967782 -1.089859,3.126584 -0.418622,1.15152 -0.938294,2.252019 -1.118733,3.024555 0.187659,-0.415422 0.461927,-0.940164 0.750631,-1.51592 0.101041,-0.189487 0.194871,-0.393559 0.295912,-0.590334 -0.404188,0.940159 -0.844461,1.909474 -0.757851,2.397776 z m -10.638779,6.690455 c -0.526895,0.532031 -0.887773,0.991178 -1.133168,1.319141 -0.259815,0.320693 -0.368106,0.532031 -0.346432,0.597623 0.02877,0.123883 0.642374,-0.342549 1.479619,-1.916764 z m -1.003249,4.868438 c 1.162038,-1.43575 2.692174,-3.257771 4.106826,-5.181823 -0.108252,0.0074 -0.209294,0.02182 -0.33922,0.204056 -0.07941,-0.852705 1.053774,-1.042195 1.479616,-1.851172 0,0.0074 0,0.01441 0.0073,0.02182 0.490798,-0.736095 0.959952,-1.472194 1.356913,-2.201001 -0.122715,0.583045 -0.599062,1.392021 -1.162035,2.230153 -0.05773,0.08746 -0.115503,0.167632 -0.173235,0.25509 -0.02877,0.123883 -0.115503,0.24052 -0.223756,0.335263 -0.4475,0.648641 -0.909427,1.275416 -1.291961,1.807443 l -1.78997,2.266593 c -0.627935,0.728815 -1.306391,1.413892 -1.970413,2.113547 z m 4.28727,-5.422332 c 0.108252,-0.153062 0.216544,-0.306084 0.324797,-0.45915 -0.274277,0.167632 -0.483582,0.306085 -0.324797,0.45915 z M 45.225661,98.528673 c -0.707326,-0.01441 -1.024904,-0.07289 -1.010469,-0.182202 0.490798,0.08017 1.010469,0.153062 1.551791,0.233235 -0.05773,0.05103 -0.129926,0.08746 -0.180447,0.153062 1.291957,0.05103 2.728264,0.182202 4.243961,0.160347 1.515701,0.01441 3.118016,0.0656 4.691458,-0.09474 1.58066,-0.116598 3.161317,-0.247805 4.597628,-0.597619 1.443526,-0.320694 2.807658,-0.61949 3.90474,-1.136943 -1.118737,0.182201 -2.302425,0.378973 -3.500549,0.568471 0.837249,-0.174916 1.717795,-0.371688 2.619996,-0.626774 1.472396,-0.386258 3.024187,-0.750673 4.511018,-1.319145 1.494047,-0.524738 2.988093,-1.071347 4.28727,-1.778291 1.313603,-0.685077 2.54782,-1.333718 3.478891,-2.120832 -4.041868,1.836598 -8.856021,4.095903 -12.919546,4.795558 0.259814,-0.116599 0.70011,-0.211342 0.656805,-0.386259 -0.548541,0.451862 -1.486827,0.685078 -2.345726,0.830839 -0.786717,0.145777 -1.472397,0.327979 -1.73223,0.808976 -0.267065,0.03662 -0.534107,0.07289 -0.80116,0.109314 0.108253,-0.02922 0.216544,-0.0656 0.317585,-0.09474 -1.060989,0.25509 -1.263083,0.196772 -0.786716,-0.211341 -1.010469,0.327978 -2.215812,0.451861 -3.493334,0.590334 -0.635148,0.0656 -1.291957,0.116598 -1.955974,0.160347 -0.166024,0.0074 -0.339221,0.0074 -0.505233,0.0074 -0.526891,-0.0074 -1.046554,-0.03662 -1.551791,-0.08017 0.281489,-0.04375 0.728981,-0.02182 0.736197,-0.196771 -0.64959,0.291514 -1.616746,0.276945 -2.482865,0.189486 -0.389753,-0.02922 -0.757855,-0.04371 -1.075425,-0.01441 -0.295911,-0.01441 -0.613496,-0.02182 -0.894988,-0.051 -0.396969,-0.03662 -0.779505,-0.0656 -1.154819,-0.09474 0.02148,-0.01441 0.04331,-0.02182 0.07219,-0.03662 -0.209294,0.0074 -0.433057,0 -0.64959,-0.0074 -0.158774,-0.0074 -0.310374,-0.01441 -0.461928,-0.02922 -0.765066,-0.05832 -1.573441,-0.182202 -2.410686,-0.31337 -0.635151,-0.102028 -1.277518,-0.225911 -1.927104,-0.357118 -0.649586,-0.131168 -1.284738,-0.342548 -1.919889,-0.517453 -0.0073,0 -0.01458,-0.0074 -0.02148,-0.0074 0.14435,-0.02922 0.295912,-0.08746 0.368106,-0.160347 -1.429091,-0.335264 -2.822093,-0.838132 -4.22953,-1.289993 -0.88055,0.07289 2.533386,0.954741 3.47168,1.289993 0,0.02182 0.02877,0.02922 0.03606,0.051 -1.133164,-0.335264 -2.251897,-0.641349 -3.240712,-1.013041 -1.104294,-0.408132 -2.107543,-0.765251 -2.944788,-0.998466 0.851676,0.400843 1.93432,0.889145 3.139663,1.406599 1.219778,0.473724 2.591129,0.889145 3.962477,1.304563 0.685671,0.218626 1.378563,0.378973 2.078673,0.495591 0.692892,0.131168 1.371352,0.247805 2.020934,0.342548 0.64959,0.08746 1.270303,0.189487 1.847714,0.211341 0.591846,0.03662 1.125949,0.02922 1.602311,0.0074 z M 88.358187,74.426994 c -0.440273,0.706944 -1.162038,1.727273 -1.854929,2.733029 -0.700111,1.005755 -1.479612,1.931341 -1.85493,2.630996 0.2887,-0.349833 0.685676,-0.787113 1.111514,-1.268126 0.440277,-0.473725 0.88055,-0.998467 1.255867,-1.545072 0.772286,-1.064058 1.393002,-2.084391 1.342478,-2.550827 z M 41.667376,99.658323 c 0.534102,0.0656 1.082643,0.116598 1.609526,0.138453 0.534107,-0.0074 1.039339,-0.02922 1.472397,-0.051 -0.541322,0.01441 -1.097079,-0.01441 -1.631181,-0.102028 -0.534107,-0.102028 -1.06099,-0.22595 -1.559007,-0.342548 -0.988814,-0.233236 -1.854929,-0.444573 -2.475645,-0.378973 0.534102,0.371688 1.515697,0.604911 2.58391,0.736091 z m 52.48657,-43.932542 c -0.433065,1.253549 0.05052,0.466435 0,0 z M 16.427338,86.4669 c -0.642367,-0.466435 -1.623966,-1.887612 -2.020934,-1.727273 0.353644,0.415417 0.245391,0.655926 0.562976,1.05677 0.223756,-0.459151 1.140384,0.874568 1.457958,0.670503 z M 79.126845,60.761843 c -0.166023,0.757962 -0.981595,1.931341 -0.728981,2.412355 0.526887,-0.765251 0.822811,-1.523209 0.728981,-2.412355 z M 35.582916,2.9746577 c 0.461928,-0.1238831 0.90942,-0.2478052 1.328043,-0.3571184 0.837245,-0.2478051 1.559006,-0.5028796 2.042588,-0.8162571 -1.645616,0.4882942 -3.60881,0.8891456 -4.756413,1.6179522 0.469143,-0.1530619 0.93107,-0.2987998 1.385782,-0.4445767 z M 97.430744,41.127759 c 0.599062,0.327939 1.198123,0.612193 1.660051,1.311856 -0.03606,-1.246264 -0.433058,-1.406599 -0.620716,-2.332185 -0.548546,0.07289 -0.916636,0.378973 -1.039335,1.020329 z M 49.346923,1.4733114 c -1.198128,-0.021816 -3.067492,-0.63405939 -4.215091,-0.03662 0.281488,0.6413521 3.543854,0.6122084 4.215091,0.03662 z M 92.197964,63.130468 c 0.555757,-0.488298 1.559007,-3.03184 1.313615,-4.074036 -0.490805,1.115073 -1.508489,3.308789 -1.313615,4.074036 z M 71.129716,6.9029322 c 0.779505,0.3789732 1.515702,0.7360954 2.23024,1.0786361 0.700118,0.3716882 1.400225,0.7215216 2.100335,1.0567735 C 74.724095,8.5791913 73.930155,8.0908893 73.114565,7.5952985 72.277312,7.1434407 71.41842,6.6842824 70.57396,6.2251397 68.899473,5.2922688 67.174459,4.6946458 65.795892,4.3739756 c 1.03212,0.4591505 1.984844,0.8818646 2.872618,1.2826965 0.88055,0.4445728 1.69614,0.8599941 2.461206,1.2462601 z M 47.037286,0.47484481 c 1.017688,-0.0947433 2.020937,-0.22591135 3.002528,-0.2842299 0.988818,-0.0437097 1.941543,-0.0874584 2.872618,-0.13116805 -1.089863,-0.03661953 -2.186938,-0.0656035 -3.262363,-0.05831854 -1.075424,0.05831854 -2.136417,0.1457769 -3.168536,0.24780514 -0.512452,0.0583186 -1.017685,0.11659815 -1.515702,0.17491671 -0.498013,0.0801734 -0.974379,0.1894866 -1.450742,0.29151485 C 42.5768,0.92670646 41.681811,1.1672267 40.859005,1.4295978 42.923239,1.0360469 44.994697,0.63519551 47.037286,0.4748565 Z"
            style="fill:url(#linearGradient5051);fill-opacity:1;fill-rule:nonzero;stroke:none;stroke-width:0.725277"
            id="path5053" />
        <path
            d="m 39.704547,32.631678 h 0.690035 c 8.551503,0 17.103422,0.0017 25.657848,-0.0052 0.68085,0 1.365872,0.05728 2.046713,-0.06546 1.403461,-0.255813 2.522884,-1.487069 2.64402,-2.923751 0.104424,-1.327295 -0.781093,-2.678276 -2.088483,-3.174395 -0.497059,-0.188628 -1.014999,-0.232126 -1.541301,-0.232126 -8.93453,0.0017 -17.870316,0.0017 -26.805263,0.0017 h -0.597307 c 0.987435,2.133058 1.008321,4.212284 -0.0063,6.399177 h 3e-6 z m 25.946894,3.763107 h -0.647434 c -10.304571,0 -20.608732,-0.0017 -30.914141,0 -0.362143,0 -0.722615,0.01206 -1.075152,-0.100775 -0.851684,-0.272609 -1.352501,-1.065022 -1.267709,-2.015489 0.07685,-0.847538 0.724287,-1.52066 1.569704,-1.62488 0.300324,-0.03704 0.603571,-0.04866 0.898883,-0.102496 1.72467,-0.309645 2.925548,-2.089563 2.53709,-3.748464 -0.385116,-1.652011 -1.946466,-2.763975 -3.583002,-2.553384 -1.683735,0.217054 -2.814439,1.53918 -2.81611,3.315652 -0.005,3.527535 0.0017,7.055503 0.0017,10.58304 -0.0017,9.523183 -0.0033,19.050242 -0.0033,28.572135 0,0.219636 -0.05221,0.46081 0.137004,0.64599 1.171639,1.15848 2.343279,2.321257 3.539144,3.505572 0.190887,-0.17657 0.35713,-0.322995 0.513766,-0.478032 1.638205,-1.623589 3.27474,-3.251483 4.911278,-4.88368 0.997042,-0.990523 1.949808,-0.986212 2.951862,0.01292 1.071811,1.068033 2.142366,2.131763 3.214176,3.1998 0.789863,0.788108 1.580983,1.571904 2.383794,2.36863 0.195901,-0.189491 0.344181,-0.327302 0.48787,-0.46942 1.737619,-1.726942 3.468554,-3.462502 5.214526,-5.185142 0.906401,-0.89147 1.867103,-0.89147 2.773505,-0.0043 0.964879,0.943149 1.91305,1.899215 2.869576,2.846662 0.939817,0.93023 1.879634,1.860456 2.840337,2.816517 1.056772,-1.0465 2.063425,-2.062862 3.086777,-3.05338 0.271503,-0.262702 0.384281,-0.529707 0.384281,-0.917305 -0.01253,-9.999925 -0.0084,-20.00373 -0.0084,-30.004943 V 36.394788 Z M 55.096244,71.273938 c -1.837865,1.830305 -3.638137,3.613237 -5.430889,5.396169 -1.236382,1.231688 -2.075118,1.23599 -3.295626,0.02153 -1.649483,-1.645125 -3.302309,-3.281629 -4.953882,-4.922448 -0.157888,-0.15934 -0.32455,-0.305773 -0.508755,-0.478032 -1.773541,1.761399 -3.522852,3.50127 -5.27342,5.241132 -1.153678,1.145555 -2.030006,1.145555 -3.168646,0.01292 -1.664521,-1.658046 -3.32027,-3.324696 -5.001081,-4.96551 -0.53674,-0.525405 -0.76522,-1.124023 -0.76522,-1.877678 0.0084,-13.397832 0.0033,-26.801695 0.0084,-40.20254 0.0029,-3.909963 2.998644,-7.015021 6.769609,-7.016743 11.308718,-0.0069 22.617851,-0.01206 33.924902,0.0017 3.943056,0.003 7.050719,3.179133 6.983887,7.077037 -0.05012,2.843218 -1.837861,5.386697 -4.523654,6.353957 -0.472001,0.170109 -0.576425,0.397067 -0.576425,0.879838 0.01253,11.141605 0.0084,22.282347 0.01253,33.423517 0,0.706282 -0.233905,1.274758 -0.730969,1.76571 -1.662428,1.627895 -3.30398,3.281629 -4.962235,4.918137 -0.948176,0.934533 -1.90052,0.930226 -2.857045,-0.01723 -1.871281,-1.851842 -3.73838,-3.712289 -5.651435,-5.6115"
            style="fill:#ffffff;fill-opacity:1;fill-rule:nonzero;stroke:none;stroke-width:0.424129" id="path5201" />
        <path
            d="M 60.158731,44.289644 H 35.847116 c -0.851684,0 -1.541719,-0.71145 -1.541719,-1.589567 0,-0.876394 0.690035,-1.589566 1.541719,-1.589566 h 24.311611 c 0.847924,0 1.5413,0.713172 1.5413,1.589566 0,0.878117 -0.693376,1.589567 -1.5413,1.589567"
            style="fill:#ffffff;fill-opacity:1;fill-rule:nonzero;stroke:none;stroke-width:0.424129" id="path5203" />
        <path
            d="M 52.999411,51.248248 H 35.847116 c -0.851684,0 -1.541719,-0.710589 -1.541719,-1.590429 0,-0.876394 0.690035,-1.587842 1.541719,-1.587842 h 17.152291 c 0.852101,0 1.541301,0.711451 1.541301,1.587842 0,0.87984 -0.6892,1.590429 -1.541301,1.590429"
            style="fill:#ffffff;fill-opacity:1;fill-rule:nonzero;stroke:none;stroke-width:0.424129" id="path5205" />
        <path
            d="M 60.158731,58.332605 H 35.847116 c -0.851684,0 -1.541719,-0.710589 -1.541719,-1.589135 0,-0.878547 0.690035,-1.589136 1.541719,-1.589136 h 24.311611 c 0.847924,0 1.5413,0.710589 1.5413,1.589136 0,0.878546 -0.693376,1.589135 -1.5413,1.589135"
            style="fill:#ffffff;fill-opacity:1;fill-rule:nonzero;stroke:none;stroke-width:0.424129" id="path5207" />
    </g>
</svg>