<?xml version="1.0" encoding="UTF-8" standalone="no"?>
<svg xmlns:dc="http://purl.org/dc/elements/1.1/" xmlns:cc="http://creativecommons.org/ns#"
    xmlns:rdf="http://www.w3.org/1999/02/22-rdf-syntax-ns#" xmlns:svg="http://www.w3.org/2000/svg"
    xmlns="http://www.w3.org/2000/svg" version="1.1" id="svg885" xml:space="preserve" width="100" height="100"
    viewBox="0 0 100 100">
    <defs>
        <linearGradient x1="-0.39899999" y1="68.556999" x2="137.05499" y2="68.556999" gradientUnits="userSpaceOnUse"
            gradientTransform="matrix(-0.02627892,-0.17288877,-0.17121383,0.02653599,-53.942888,-997.43228)"
            spreadMethod="pad" id="linearGradient5123">
            <stop style="stop-opacity:1;stop-color:#181c3f" offset="0" id="stop5119" />
            <stop style="stop-opacity:1;stop-color:#203572" offset="1" id="stop5121" />
        </linearGradient>
    </defs>
    <g id="g8405" style="display:inline">
        <path
            d="m 76.946529,85.351649 c -0.505232,1.122385 -2.114716,1.464933 -3.334468,2.499821 -0.43304,0.225949 0.137326,-0.233352 0.959905,-0.823548 0.82281,-0.568458 1.804389,-1.39929 2.374563,-1.676273 z m 0.288847,5.189127 0.310327,0.429967 c 0.801137,-0.517425 1.493984,-1.122346 1.30633,-1.450324 -0.418616,0.328017 -0.60627,0.590352 -0.786675,0.860011 -0.166096,-0.1531 -0.331809,-0.255167 -0.830021,0.160502 z M 89.85148,64.289172 c 0.324904,-0.954715 0.584597,-1.858435 0.54854,-2.456072 -0.866118,3.541994 -2.822026,7.623306 -4.070663,10.421926 0.461924,-0.845403 0.938271,-1.68352 1.364099,-2.550816 l 1.14756,-2.660128 c 0.30304,-0.794407 0.692886,-1.800156 1.010464,-2.75491 z M 81.573058,13.484129 c 0.894964,0.663201 1.645581,1.406614 2.396198,2.084385 0.736194,0.69238 1.465138,1.348296 2.107504,2.018782 1.255811,1.377474 2.468352,2.616418 3.522085,3.862686 0.02302,0.02727 0.05063,0.05844 0.07212,0.08765 0.230923,0.619492 0.353673,1.209804 0.324904,1.756447 0.692886,0.874542 1.226964,1.785547 1.775504,2.638273 0.534078,0.867257 1.068156,1.683519 1.522868,2.499782 0.01534,0.02337 0.02302,0.04363 0.03069,0.05843 -0.0077,0.08726 -0.02302,0.167514 -0.01534,0.269581 0.05754,0.01558 0.12275,0.02727 0.180289,0.04363 0.793925,1.515927 1.566177,2.915217 2.215755,4.278122 0.678463,1.486748 1.414619,2.871469 2.093082,4.248904 0.65679,1.38476 1.385734,2.733057 2.201293,4.110493 -0.512443,-1.406614 -1.111464,-3.060996 -1.753831,-4.846582 -0.750578,-1.727268 -1.443465,-3.607558 -2.280697,-5.429608 -0.252789,-0.524709 -0.490809,-1.056743 -0.736194,-1.588776 0.0077,0 0.0077,0.0078 0.01534,0.0078 -0.15152,-0.502894 -0.310328,-0.801692 -0.483559,-1.049497 -0.418616,-0.91829 -0.837233,-1.822011 -1.284695,-2.681983 0.76504,0.852687 1.558965,1.698128 2.410621,2.536246 -0.851656,-1.224413 -1.854908,-2.667452 -2.937526,-4.219804 -0.223635,-0.276983 -0.440251,-0.568458 -0.664001,-0.859972 0,0 0,-0.0078 0,-0.0078 -0.375156,-0.801693 -0.757829,-1.559637 -1.060945,-2.295765 -0.837233,-0.145699 0.562963,1.078636 0.281558,1.275446 -0.404193,-0.539318 -0.808386,-1.078675 -1.234214,-1.61067 -0.793887,-1.093206 -1.566177,-2.142703 -2.396159,-3.082848 -0.599059,-0.714235 -1.190907,-1.39933 -1.775504,-2.047961 -0.187578,-0.196732 -0.382443,-0.37905 -0.577386,-0.561173 -0.606271,-0.699665 -1.190906,-1.39929 -1.732196,-2.0771 -0.570213,-0.677771 -1.133137,-1.311832 -1.616734,-1.945894 -0.880502,0.08025 0.967156,0.969285 0.570212,1.18795 C 81.09852,10.831442 79.618921,9.5487491 78.067167,8.5211459 77.309339,7.9891125 76.558722,7.4789339 75.822528,7.0052188 75.071911,6.5533586 74.299659,6.1671016 73.549042,5.7954145 c 1.717773,1.3774356 3.536546,2.6601281 5.095511,3.8772563 1.54458,1.2389442 2.677717,2.5507762 2.930314,3.8116142 z M 56.45635,2.0200304 c 0.952694,0.2041338 1.840446,0.3860622 2.68489,0.5684581 0.851656,0.1605021 1.652792,0.3132129 2.432255,0.4591451 0.772291,0.1749162 1.537331,0.3354183 2.302371,0.4664301 C 63.045883,3.2662983 62.15092,3.0039241 61.241495,2.72698 60.317685,2.5084322 59.364952,2.2896896 58.441142,2.0710639 56.586235,1.6118797 54.76025,1.4807121 53.352843,1.5317066 54.471519,1.7066227 55.496405,1.8671249 56.45635,2.0200304 Z M 95.885262,67.372021 c 0.30304,-0.969285 0.793925,-2.10624 1.198118,-3.243195 0.396944,-1.136916 0.606233,-2.295726 0.562963,-3.206731 -0.281558,1.049497 -0.627944,2.368614 -1.075406,3.534708 -0.425828,1.180665 -0.750617,2.252017 -0.685675,2.915218 z M 37.055808,1.6118797 C 37.994079,1.3130808 38.910715,1.014243 39.791217,0.73001399 38.723061,0.97777942 37.662078,1.2401926 36.622768,1.5244216 c -1.024887,0.3424306 -2.0281,0.6996647 -2.995256,1.0713518 -0.483559,0.1893302 -0.952695,0.3790499 -1.42183,0.568458 -0.454674,0.2041338 -0.894964,0.4372904 -1.320792,0.66324 -0.851655,0.4518213 -1.652792,0.9182903 -2.381736,1.3847204 1.890966,-0.9256142 3.789143,-1.8584744 5.723417,-2.5362453 0.959944,-0.3572341 1.898215,-0.7506591 2.829237,-1.0640668 z M 24.995454,7.384035 c 0.750617,-0.4591451 1.378523,-0.8964355 1.761081,-1.326441 -1.465176,0.8964356 -3.255103,1.8001561 -4.178913,2.8059045 0.411367,-0.262569 0.822771,-0.5320334 1.226964,-0.7871227 0.411405,-0.2403636 0.81556,-0.473715 1.190868,-0.6923408 z M 77.30753,66.074758 c -0.223636,0.276984 -0.555713,0.772553 -0.909387,1.362866 -0.353674,0.597637 -0.822771,1.231698 -1.183656,1.916754 0.100885,0.18933 0.173384,0.502894 0.144231,0.102067 0.27427,-0.677771 0.996002,-1.289978 1.219753,-1.523212 -0.396944,0.539318 -0.873329,1.107815 -0.411405,1.290016 0.0077,-0.160502 0.05754,-0.298799 0.12275,-0.43729 0.02302,0.04363 0.03452,0.08025 0.0794,0.123883 0.15152,0.02727 0.497982,-0.328017 0.757829,-0.750659 0.238212,-0.430006 0.411366,-0.903721 0.317616,-1.020319 -0.07212,0.182318 -0.230924,0.357234 -0.411405,0.532034 0.05063,-0.131285 0.04335,-0.255168 -0.06483,-0.371649 -0.05063,0.153101 -0.173001,0.335419 -0.30304,0.517464 1.111464,-2.004212 1.089829,-2.295726 0.642329,-1.741838 z m 4.814068,-0.845402 c 0.360962,-0.808977 1.097041,-1.690843 0.526866,-2.244731 -0.331809,0.93286 -0.642366,1.698128 -0.526866,2.244731 z M 56.052157,99.592551 c 0.512443,-0.145698 0.996002,-0.298799 1.407406,-0.43729 -0.519655,0.1531 -1.060983,0.276983 -1.602272,0.335418 -0.541328,0.04363 -1.082618,0.05844 -1.58785,0.07285 -1.017675,0.02727 -1.905389,0.05103 -2.490025,0.284384 0.606271,0.211537 1.616735,0.182317 2.684891,0.03506 0.526866,-0.07285 1.068195,-0.174916 1.58785,-0.291397 z M 85.102393,69.529294 c 0.06483,0.109469 0.541328,-0.502855 0.938271,-2.237446 -0.375155,0.64867 -0.60627,1.187949 -0.757829,1.574245 -0.158808,0.371648 -0.216347,0.612168 -0.180289,0.663201 z m -7.77319,10.71344 c 0.642367,-0.932861 1.566176,-1.945894 1.674465,-2.79862 -0.483597,0.604922 -1.26306,1.333726 -1.818812,1.858474 -0.555751,0.532034 -0.894963,0.874542 -0.562962,0.641347 0.87329,-0.93286 0.12275,0.225949 0.707309,0.298799 z m 6.228648,-8.104306 c -1.032098,0.736089 -1.19808,2.179128 -2.331217,3.439966 1.104253,-0.06545 1.753831,-2.907933 2.331217,-3.439966 z m -57.53751,20.071298 c -0.2455,0.08726 -0.728982,0.05103 -0.671213,-0.211146 -0.664001,-0.459145 -2.836487,-1.712698 -3.139603,-2.06253 -0.793925,-0.510179 -1.573388,-1.013034 -2.324005,-1.523212 -1.342464,-0.983894 -2.728198,-1.851151 -4.034566,-2.718447 0.555751,0.1531 1.089829,0.22595 1.847658,0.736089 -0.606271,-0.612167 -1.183657,-1.202519 -1.74662,-1.792832 C 15.518953,84.229498 15.093125,83.821386 14.68172,83.40595 13.483641,82.094118 12.307196,80.818671 11.210117,79.550588 10.163595,78.246001 9.0448813,77.050767 8.0127829,75.870102 8.5108032,76.161499 9.0088234,76.372957 9.607844,77.065337 9.564498,76.985086 9.521152,76.912236 9.4778056,76.831985 7.2693007,73.749137 5.6092587,70.556936 4.3678714,67.022227 4.0214859,67.204545 4.3525274,68.0353 4.7361218,68.895272 4.7054338,69.427305 4.3970245,68.603875 4.0432357,67.627149 3.6749853,66.66511 3.4008689,65.499054 3.1193875,65.455306 3.5452154,65.535557 3.5596769,64.879563 3.3503112,63.800926 3.2348494,63.298033 3.104811,62.685865 2.9678679,62.01534 2.3255395,59.661296 1.8996733,57.292682 1.7048074,54.829325 1.4451142,54.88776 1.415961,55.339503 1.4738838,55.915246 c 0.030687,0.196732 0.050634,0.386062 0.079404,0.590313 0.015344,0.07285 0.023016,0.145698 0.034523,0.22595 C 1.4869256,57.037709 1.4144263,56.833575 1.3568871,56.39609 1.0105016,55.951515 1.1835026,54.209677 0.70730883,52.773923 0.40426946,53.131157 0.48367345,54.122219 0.32486548,54.712571 -0.50515552,52.613616 1.1187903,51.884812 0.88782823,49.363136 0.64961627,49.6035 0.54873102,50.164829 0.52686615,50.879063 0.3465773,50.631298 0.3465773,49.997197 0,50.113795 0.11546184,47.264181 0.4908087,44.399958 1.1115024,41.564914 1.0608684,41.681395 1.0106171,41.790864 0.95998269,41.885529 0.83723257,40.857926 1.1475602,40.245719 1.5517917,39.640836 1.7105997,39.021345 1.8981772,38.409136 2.0786583,37.79693 2.0633143,37.563578 2.0441353,37.345069 1.818965,37.352354 3.8831618,30.669233 7.4485543,24.292195 12.240949,18.862587 c 1.234176,-1.392045 2.547756,-2.718486 3.933528,-3.979285 0.902175,-0.87458 1.826023,-1.727267 2.785929,-2.550815 0.252405,-0.145698 0.526867,-0.320614 0.793925,-0.488324 0.505232,-0.823547 2.490025,-1.770977 3.529335,-2.5945244 -0.0794,0.1456985 -0.230924,0.3062007 -0.418617,0.4591452 2.208544,-1.4503238 4.525337,-2.7549101 6.950419,-3.8991111 0.281558,-0.072849 0.591809,-0.1749161 0.887714,-0.262569 0.649578,-0.6122066 2.533332,-0.9984635 3.774758,-1.4648936 -0.844444,0.2115356 -1.645581,0.2695812 -1.847696,0.015583 0.952732,-0.8745807 2.923064,-0.7725139 4.085085,-1.0640668 -0.2455,0.3572342 -1.125925,0.7506592 -2.013677,0.9984635 -0.606271,0.5393183 -2.432255,0.8891507 -3.673681,1.428469 0.108173,-0.035061 0.202154,-0.058435 0.310328,-0.094665 C 31.879588,5.2202953 32.457013,5.0597931 33.056033,4.8995637 34.254151,4.593363 35.51,4.1270108 36.888522,3.8500668 c 1.371311,-0.2913971 2.785929,-0.6777709 4.258279,-0.8818657 1.472387,-0.1893302 2.95916,-0.4300055 4.438759,-0.4882849 1.176445,-0.072849 2.35289,-0.094665 3.529335,-0.072849 0.0077,0 0.02302,0 0.03069,0 0.04335,0 0.08669,0 0.122751,0 0.151519,0 0.310327,0 0.461924,0.00779 5.081088,0.023374 10.191022,0.7215194 15.091667,2.3467593 10.154964,3.2869045 19.451023,9.9409255 25.549786,19.4372365 -0.173001,-0.01558 -0.353673,-0.109469 -0.555751,-0.306201 1.443503,2.10624 2.728198,4.336402 3.825278,6.683161 0.382443,0.670486 0.76504,1.340972 1.140348,1.996927 0.27427,0.502855 0.555752,0.991179 0.793925,1.501318 0.223636,0.510179 0.440251,1.027604 0.642367,1.545067 -0.418616,-0.349832 -0.77229,-1.056743 -1.162022,-1.814726 -0.05754,-0.102067 -0.108173,-0.204134 -0.166096,-0.3062 0.310328,0.808977 0.606232,1.617955 0.87329,2.448787 -0.259693,-0.09466 -0.497982,-0.357234 -0.692886,-0.991179 0.0077,0.04363 0.02302,0.08765 0.03452,0.131285 0.100885,0.291397 0.209442,0.583067 0.303039,0.88915 0.288846,0.867296 0.584598,1.756447 0.87329,2.616419 0.238212,0.874583 0.433078,1.72727 0.599059,2.485214 -0.317616,-0.808939 -0.591847,-1.712659 -0.923848,-2.667415 0.317616,1.166097 0.66404,2.303013 1.039349,3.432683 0.295751,1.129631 0.591809,2.244731 0.880502,3.337938 0.130038,0.553888 0.281558,1.100491 0.375155,1.654379 0.08669,0.553888 0.166096,1.107777 0.223635,1.65438 -0.317616,-0.45186 -0.476347,-1.217089 -0.65679,-2.06253 -0.209442,-0.838118 -0.396943,-1.756408 -0.642367,-2.507067 0.05792,1.173341 0.339098,2.871469 0.425828,4.700765 0.05792,0.911005 0.115462,1.851189 0.173385,2.75491 0.0077,0.90372 -0.02302,1.778262 -0.05754,2.5581 -0.137327,-1.17338 -0.15152,-2.499821 -0.30304,-3.935575 -0.144231,-1.42843 -0.137326,-2.966212 -0.389731,-4.518563 -0.469136,1.224374 -0.685636,3.002675 -0.81556,4.766367 -0.03452,0.437291 -0.07211,0.881866 -0.108173,1.311872 -0.07212,0.429966 -0.137327,0.845402 -0.202154,1.246268 -0.144232,0.801653 -0.317616,1.515888 -0.555713,2.077061 0.130038,-0.306201 -0.0794,-0.400827 -0.353674,-0.291397 0.03452,0.91829 -0.324904,2.456072 -0.360962,3.439966 -0.266982,-0.568458 0.09398,-2.142704 0.216347,-3.359793 -0.230924,0.145698 -0.476347,0.415435 -0.606271,0.838117 -0.03069,0.07285 -0.05063,0.138686 -0.07212,0.204134 -0.0077,-0.09466 -0.04335,-0.174916 -0.108174,-0.218548 0.158808,0.109469 -1.082618,1.501357 -0.902175,0.255167 -0.346385,1.515927 -0.779463,2.915218 -1.226964,4.227089 -0.512444,1.289977 -1.104253,2.485212 -1.681677,3.636737 0.27427,-1.290017 1.349676,-3.359793 1.789927,-5.487927 0.563001,-2.098955 0.563001,-4.161485 -0.461886,-4.933999 -0.649578,0.750659 -1.241425,1.515888 -1.768292,2.5581 -0.584597,1.034888 -0.974367,2.383184 -1.335214,4.299938 -0.346386,0.09466 -0.750617,-0.01558 -1.017676,0.400866 -0.274269,-0.109469 0.54129,-1.209843 0.476348,-2.142704 -0.05792,-0.335418 -0.346386,-0.393541 -0.187578,-0.991178 -0.09398,0.02337 -0.180289,0.08025 -0.259693,0.138686 -0.07212,0.670486 -0.180289,1.588776 -0.202154,2.237408 -0.317616,0.04363 -0.27427,-0.313213 -0.216731,-0.685056 -0.38977,1.085921 -0.534078,1.909469 -0.750617,2.747586 -0.187577,0.845402 -0.324904,1.741838 -0.692886,2.944396 -0.295751,-0.269581 -0.483559,0.284385 -0.685636,0.721519 0.2455,-1.100491 0.584597,-2.674736 1.140348,-4.256228 0.281559,-0.787123 0.461925,-1.62524 0.721733,-2.397793 0.100885,-0.34243 0.216347,-0.677771 0.331809,-1.005748 -0.230924,0.276983 -0.440251,0.612206 -0.685636,0.860011 -0.15152,-0.685095 1.544541,-2.412363 0.100885,-2.74034 -0.505232,-0.02727 -0.519655,1.180664 -0.692886,2.004251 -0.375155,-0.116481 -0.2455,-0.801693 -0.100885,-1.523212 -0.541329,0.07285 -0.93106,0.349832 -1.20533,0.291397 -0.07212,0.510178 -0.202154,0.976608 -0.295751,1.14424 -0.130038,-0.08025 -0.115462,-0.313213 -0.288846,-0.349833 -0.772252,3.592989 -0.288847,-0.116481 0.230923,-1.311871 0,-0.0078 -0.0077,-0.01558 -0.0077,-0.02727 -0.60627,0.655916 -0.873328,1.049497 -1.097041,1.464894 -0.209442,0.415436 -0.418616,0.845402 -0.931059,1.501357 -0.130039,-0.240363 0.02302,-0.670525 0.202154,-1.122385 0.158808,-0.459145 0.375155,-0.93286 0.469136,-1.224374 -0.122751,-0.306201 -0.252789,-0.604922 -0.389732,-0.889151 -0.627944,0.400827 -0.166096,2.142704 -0.591848,2.33219 -0.238211,-0.08025 -0.476347,-0.153101 -0.584597,0.138296 -0.15152,-0.663201 0.793925,-1.574206 0.87329,-2.784049 -0.2455,0.02337 -0.505193,1.027642 -0.346385,-0.05103 -0.396982,0.298799 -0.353674,1.566922 -0.692886,1.996927 -0.06483,-0.604921 -0.02302,-1.894899 0.115462,-2.856899 -0.44029,-0.233351 -0.425828,0.473715 -0.642367,0.685056 -0.12275,0.539318 0.0077,0.816262 0.396981,0.838117 -0.664001,0.816263 -1.255848,0.874581 -1.580638,1.734553 -0.570174,0.313603 -0.06483,-1.122346 -0.454712,-0.357234 -0.288846,-0.430006 -0.115462,-1.457648 0.115462,-2.507106 0.05754,-0.262179 0.108173,-0.524748 0.158808,-0.779838 0.03069,-0.255167 0.04335,-0.502854 0.05063,-0.736089 0.0077,-0.34243 -0.0077,-0.634061 -0.0794,-0.852687 -0.05792,0.881827 -0.158808,1.756408 -0.288846,2.638273 -0.01534,0.09467 -0.03069,0.196732 -0.04335,0.291398 -0.04335,0.269581 -0.09398,0.532033 -0.144232,0.801692 -0.05063,0.269581 -0.101269,0.539318 -0.151519,0.808978 -0.02302,0.09466 -0.04335,0.182318 -0.06483,0.276983 -0.440251,1.975072 -1.068194,3.877256 -1.869331,5.684697 -0.02302,0.04363 -0.04335,0.08726 -0.05792,0.131284 -0.18029,0.400827 -0.368251,0.801693 -0.562963,1.18795 -0.06483,0.131284 -0.130039,0.255167 -0.194866,0.37905 -0.15152,0.298799 -0.310328,0.597637 -0.476347,0.889151 -0.115462,0.204133 -0.230924,0.400865 -0.353674,0.604921 -0.12275,0.204134 -0.2455,0.415397 -0.36825,0.619492 -0.04335,0.07285 -0.08669,0.145698 -0.130039,0.211535 0.07212,0.05103 0.2455,-0.1531 0.512444,-0.663201 0.216347,0.583028 -0.873329,1.443039 -1.183695,1.800156 0.844444,0.779799 1.097079,-0.976608 1.667253,-1.217128 -0.216347,1.217128 -1.392983,2.055245 -1.660042,3.046424 0.27427,-0.22595 0.93831,-1.027642 1.566215,-1.938648 -0.216347,0.532034 -0.353674,1.217129 -0.570174,1.873045 -0.05063,0.1531 -0.108174,0.3062 -0.180289,0.444575 0.382443,-0.408151 0.76504,-0.787123 1.003213,-1.085921 0.0077,0.08726 -0.01534,0.174916 -0.03069,0.262569 0.03069,-0.01558 0.05063,-0.04363 0.0794,-0.05844 -0.03452,1.384721 -1.85487,2.171843 -2.316794,3.797083 0.483559,0.138687 0.483559,-1.100491 1.140349,-1.093206 -0.209442,-0.138686 0.158808,-0.612207 0.65679,-1.100492 0.505232,-0.488284 1.060983,-1.078636 1.385772,-1.311871 -0.757867,1.39933 -1.559003,2.295765 -2.30237,3.279659 -0.360962,0.502854 -0.779502,0.969285 -1.234214,1.486748 -0.440251,0.532034 -0.92381,1.115061 -1.479561,1.785586 1.364099,-1.319156 2.800352,-1.880329 4.402663,-3.644021 -1.26306,0.473715 0.353674,-0.69238 0.837194,-0.736129 -0.158808,-0.422681 0.2455,-1.071312 0.801137,-1.785547 0.137326,0.102067 -0.0794,0.357234 -0.166097,0.553888 2.280698,-2.288441 3.767508,-5.80858 5.355358,-9.94821 -0.137327,0.728804 -0.310328,1.450324 -0.49802,2.164558 -0.216731,0.70695 -0.512444,1.377436 -0.786713,2.047961 -0.08669,0.225949 -0.187578,0.437251 -0.281559,0.648631 0.266982,-0.45186 0.534117,-0.823548 0.700098,-0.860011 0.209443,-0.408112 0.02302,-0.517425 0.144232,-0.859972 0.2455,-0.145699 0.166096,0.43729 -0.03069,1.122346 -0.187578,0.685095 -0.599059,1.413899 -0.786713,1.61067 -0.100885,-0.109469 -0.03069,-0.335418 -0.187578,-0.408151 -0.88054,1.727268 -0.894963,1.566961 -0.599059,0.889151 -0.303039,0.539318 -0.620693,1.056782 -0.92381,1.574246 -0.324904,0.583027 -0.714559,1.100491 -1.075406,1.617916 -0.158808,0.3062 -0.310327,0.612206 -0.483597,0.911005 -0.389731,0.619491 -0.844444,1.195273 -1.284695,1.771016 -0.252788,0.349833 -0.519655,0.670486 -0.801136,0.983894 -0.115462,0.18933 -0.230924,0.371648 -0.331809,0.561173 0.728982,-0.714234 1.407407,-1.377435 2.020889,-2.055245 0.202154,-0.37905 0.490808,-0.794369 0.822771,-1.275408 0.04335,0.06545 0.05792,0.131285 0.07212,0.196732 0.0077,-0.0078 0.01534,-0.01558 0.02302,-0.02727 0.418616,-0.539318 0.82281,-1.064066 1.227003,-1.588776 0.36825,-0.553888 0.707309,-1.12967 1.068156,-1.712698 1.42908,-2.332189 2.68489,-5.116239 3.767508,-9.197551 0.0077,0.90372 -0.209442,1.858474 -0.505193,2.842368 -0.281558,0.983893 -0.613482,2.011497 -1.082618,2.98082 -0.815598,1.996927 -1.898216,3.855363 -2.518909,5.648234 -0.216347,0.167514 -0.245501,0.06545 -0.346386,-0.02727 -0.04335,0.06545 -0.0794,0.138297 -0.12275,0.204134 -0.526866,0.881866 -1.104252,1.778262 -1.811562,2.594525 -0.317616,0.42272 -0.649578,0.830871 -0.98879,1.231698 0.367867,-0.218548 0.76504,-0.357234 0.591809,-0.532033 0.692886,-0.539319 0.209442,0.648631 -0.15152,1.013033 0.404193,0.0078 1.053733,-0.415397 0.54129,0.459145 0.375155,0.196732 0.894963,-0.46643 1.320791,-0.481 0.0794,-0.255167 0.180289,-0.488285 0.418655,-0.830832 l 0.692848,-1.013034 c 0.433039,-0.801692 0.945482,-1.698128 1.544541,-2.587278 0.476348,-0.685056 0.858868,-1.450324 1.31358,-2.128095 0.425828,-0.699665 0.902175,-1.333726 1.263061,-1.924039 0.166096,-0.160502 -0.685675,1.792832 -1.032099,2.929787 -0.0794,-0.0078 -0.130038,-0.03506 -0.158808,-0.08025 -0.461886,1.319157 -1.31358,2.514391 -2.612698,4.292653 -0.04335,0.06545 -0.07212,0.131285 -0.115462,0.196732 -0.0077,-0.0078 -0.01534,-0.0078 -0.01534,-0.01558 -0.03452,0.05103 -0.06483,0.09467 -0.108174,0.145698 0.03069,-0.05844 0.05063,-0.109469 0.0794,-0.167514 -0.158808,-0.167515 -0.353674,0.01558 -0.562924,0.269581 -0.627944,1.545067 -1.414657,2.645558 -2.208544,3.826223 -0.447501,0.561173 -0.909425,1.136955 -1.407407,1.771016 -0.49802,0.641346 -1.017675,1.362866 -1.674465,2.128095 -1.14756,-0.05103 -1.992004,2.120849 -3.680892,2.99539 0.2455,-0.145698 1.162021,-0.408111 2.006466,-0.852687 0.418616,-0.247765 0.815559,-0.532033 1.104252,-0.845402 -0.187578,0.08726 -0.36825,0.131285 -0.54854,0.102067 0.368251,-0.240364 0.678463,-0.510179 0.952733,-0.787123 0.02302,-0.09467 0.03452,-0.182318 0.03069,-0.276983 0.166096,-0.08765 0.2455,-0.08765 0.288846,-0.05103 0.620694,-0.670486 1.111464,-1.319117 1.862081,-1.596061 -0.433039,0.225949 -1.111502,1.289977 -1.826023,2.018781 0,0.01558 0.0077,0.02727 0.0077,0.03506 0.620732,-0.72152 0.707309,-0.867257 1.349676,-0.903721 0.317616,-0.400827 -0.411405,-0.04363 -0.0077,-0.488285 0.519655,-0.196732 1.003214,-0.364246 2.093043,-1.209804 0.209442,-0.211536 0.425828,-0.408151 0.627944,-0.626777 -0.15152,-0.145698 -0.38977,0.04363 -0.649579,0.276983 1.31358,-1.268122 2.540544,-2.674736 3.695354,-4.190624 -0.137326,0.08025 -0.274269,0.09467 -0.38977,-0.01558 0.476386,-0.583067 0.866118,-1.231698 1.277484,-1.86576 0.0077,0.153101 -0.144232,0.699665 -0.367867,1.18795 2.410621,-3.316044 4.445933,-7.178731 6.012109,-11.61716 0.519655,0.0078 -0.671213,1.668949 -0.166096,1.690843 0.728944,-0.932899 1.205291,-3.461859 1.5806,-5.079775 -0.555751,-0.444576 -0.505194,1.224374 -0.76504,1.86572 -0.43304,0.743374 0.310327,-2.703877 0.620693,-2.907932 0.339098,0.561173 0.209443,1.712698 -0.0794,3.00996 -0.36825,1.275407 -0.909425,2.689307 -1.241425,3.877256 -0.0794,-0.218548 -0.158808,-0.430005 -0.396944,-0.49557 -0.09398,0.313213 -0.209442,0.626777 -0.339097,0.932861 0.367867,0.145698 0.404155,-0.06545 0.562925,0.94743 -0.05063,0.255167 -0.194866,0.39358 -0.353674,0.481039 -0.05792,0.1531 -0.115462,0.3062 -0.187578,0.46643 -0.331809,0.765229 -0.894963,1.581491 -1.075406,2.171843 0.01534,-0.539319 0.15152,-0.940184 0.339097,-1.333726 -0.173384,0.02727 -0.310327,-0.05843 -0.671213,0.524748 0.12275,0.641347 -0.27427,1.661665 -0.851655,2.791335 -0.685675,1.136916 -1.573389,2.361329 -2.194121,3.418072 -0.01534,-0.145698 -0.03452,-0.284385 -0.09398,-0.400827 -0.180289,0.247766 -0.360962,0.49557 -0.54129,0.743375 0.158808,0.09466 0.194866,0.167514 0.115462,0.940145 -0.396943,0.808977 -1.522869,0.02337 -0.967118,0.947469 -0.678424,0.670486 -0.71452,0.37905 -0.981579,0.430005 -0.757828,0.969285 -1.436253,1.873005 -1.91985,2.594525 -0.01534,-0.102067 -0.05063,-0.1531 -0.09398,-0.174916 -0.65679,0.699664 -1.479561,1.501357 -2.446717,2.252016 -0.548502,0.444575 -1.104253,0.896436 -1.667215,1.348296 -0.0077,0.0078 -0.01534,0.01558 -0.02302,0.01558 0.180289,0.04363 0.404193,0.102067 0.137327,0.481 0.202154,0.116481 0.411404,-0.02337 0.60627,-0.22595 -0.03069,0.01558 -0.05754,0.03506 -0.09398,0.06545 0.05792,-0.364246 0.310327,-0.546603 0.613482,-0.692379 0.12275,-0.131285 0.223635,-0.204134 0.303039,-0.131285 0.346386,-0.138686 0.714521,-0.284385 0.981579,-0.575782 0.06483,0.488324 -0.483597,0.634062 -0.894963,0.757983 0,0.0078 0.0077,0.0078 0.0077,0.01558 -0.166096,0.138297 -0.281558,0.255167 -0.382443,0.357234 0.03069,0.02727 0.05754,0.06545 0.108174,0.109469 -0.108174,0.07285 -0.187578,0.08025 -0.266982,0.06545 -0.317616,0.386452 -0.2455,0.53928 -0.548539,0.808939 -0.483559,0.196732 -0.837195,0.102067 -1.060945,-0.284385 -0.858867,0.583067 -0.974368,0.969324 -1.046522,1.406614 0.92381,-1.282692 0.238212,0.306201 1.465138,-0.838117 0.05063,0.204134 -0.447501,0.517425 -0.324904,0.699626 0.858867,-0.233352 2.201332,-1.610631 3.139603,-2.09167 -1.118714,1.042212 -2.540544,2.419647 -3.861335,3.396256 -1.291946,1.013033 -2.287948,1.902184 -2.35289,2.215553 0.06483,0.43729 -1.746619,0.612206 -0.483597,-0.138297 -0.519655,0.160502 -2.230178,1.807441 -3.875759,2.390469 0.505232,0.04363 1.118714,-0.102067 0.613482,0.510179 1.508446,-0.459146 1.053733,-0.517464 2.143601,-1.275408 -0.101269,0.211146 -0.194866,0.429966 -0.07212,0.641346 0.952695,-0.714234 0.454713,-0.750698 1.580638,-0.852726 -3.572642,2.200983 -8.343364,4.154201 -13.323413,5.276547 -2.425159,0.634061 -4.972915,0.881865 -7.40517,1.078636 -1.212541,0.03506 -2.410659,0.05103 -3.558219,0.05103 -1.154772,0.02337 -2.251851,-0.138686 -3.305584,-0.211536 -0.368251,0.269582 -0.801137,-0.09467 -1.320792,-0.364246 -0.461924,-0.05843 -0.909425,-0.131285 -1.364099,-0.204134 -0.0794,0.167515 0.461886,0.539318 -0.562963,0.276983 -0.346385,-0.204134 -0.894963,-0.415435 -1.558964,-0.634061 -0.108174,-0.02337 -0.216731,-0.03506 -0.324905,-0.05843 -1.183656,-0.284385 -2.338466,-0.583028 -3.449969,-0.881827 -1.118675,-0.276983 -2.143562,-0.72152 -3.139564,-1.071352 -0.461924,0.182318 -0.801137,-0.386452 -1.291945,-0.801692 -0.375155,-0.153101 -0.757829,-0.306201 -1.133137,-0.466431 -0.18029,0.109469 0.324904,0.677771 -0.627906,0.138297 -0.310327,-0.320615 -0.851655,-0.70691 -1.522868,-1.136916 -0.173385,-0.08765 -0.353674,-0.167514 -0.519655,-0.262569 -0.837233,-0.43729 -1.645581,-0.852687 -2.388986,-1.268123 -0.714521,-0.45186 -1.371311,-0.881865 -1.948735,-1.268122 1.934273,1.486748 3.883008,2.579994 5.773974,3.695055 1.970369,0.954715 3.897431,1.967748 6.084301,2.638273 -3.016891,-0.619491 -5.810031,-1.858474 -8.401095,-3.243195 z M 87.65736,67.896769 c 0.05063,-0.109468 0.100885,-0.225949 0.15152,-0.34243 -0.194866,0.06545 -0.30304,0.131284 -0.15152,0.34243 z M 73.886484,77.910544 c -0.06483,0.06545 -0.137327,0.131285 -0.202154,0.204134 0.12275,0.03506 0.238212,0.02727 0.360962,0.0078 -0.07212,-0.02727 -0.08669,-0.123882 -0.158808,-0.211535 z M 3.9854664,36.368656 c 0.1300384,-0.430006 0.2524049,-0.838157 0.3318089,-1.202559 -0.1515197,0.364247 -0.2888464,0.714235 -0.4258278,1.064067 0.030687,0.08726 0.057923,0.138686 0.093981,0.138686 z M 70.479823,85.271515 c -0.382444,0.371648 -0.866079,0.736089 -1.320792,1.100491 0.02302,0.02727 0.03069,0.05103 0.06483,0.08025 0.757828,-0.386451 1.638369,-0.925614 1.436253,-1.311871 -0.05063,0.03506 -0.115462,0.08765 -0.180289,0.131285 z m -5.160454,3.228586 c 0.144231,-0.116481 0.266981,-0.240364 0.353674,-0.37905 -0.230924,0.109469 -0.483559,0.218548 -0.808348,0.313213 0.12275,0.05844 0.281558,0.07285 0.454712,0.06545 z m 0.707309,-0.22595 c 0.02302,-0.01558 0.04335,-0.02337 0.07212,-0.02727 0.230924,-0.160503 0.404193,-0.269582 0.555751,-0.357235 0.03452,-0.02727 0.0794,-0.05103 0.115462,-0.08765 0.678425,-0.53928 1.299118,-1.21709 1.631119,-1.515889 -1.205291,0.51014 -1.522869,1.093207 -2.287909,1.588777 0.0077,0.102067 -0.100885,0.276983 -0.08669,0.400866 z m 4.92953,-0.349832 c 0.635117,-0.408151 1.082618,-0.743374 0.65679,-0.655916 -0.577424,0.473715 -1.147599,0.677771 -1.602311,0.852687 -0.447463,0.18933 -0.779463,0.37905 -0.92381,0.816262 0.346386,-0.218547 1.212541,-0.634061 1.869331,-1.013033 z m 1.414619,-0.08726 1.984792,-1.341011 -0.209442,-0.291397 c -0.562963,0.553888 -2.367313,1.209804 -1.775465,1.632525 z m 14.06678,-17.66626 c -0.02302,-0.02727 -0.04335,-0.02727 -0.06483,-0.05103 -0.115462,0.313213 -0.281558,0.685056 -0.505232,1.107776 -0.469136,0.911006 -1.125887,2.047922 -1.97037,3.163022 0.873329,-0.911005 1.840485,-2.900648 2.540544,-4.219804 z m -9.822925,5.159949 c -0.02302,-0.06545 -0.01534,-0.131284 -0.0077,-0.18933 -0.844444,0.983894 -1.674465,1.931324 -2.324043,2.900647 0.346385,-0.167514 0.700097,-0.532033 1.075406,-0.969323 0.288846,-0.349833 0.620694,-0.728805 0.93106,-1.136916 0.310327,-0.408151 0.642328,-0.816263 1.017636,-1.15881 -0.187577,-0.102067 -0.447462,0.3062 -0.692847,0.553888 z m 3.031314,-4.941284 c -0.04335,0.138297 -0.130038,0.313213 -0.238212,0.517425 0.115462,-0.167515 0.230924,-0.342431 0.346386,-0.517425 -0.03452,0 -0.06483,-0.0078 -0.108174,0 z m -5.044991,0.597598 c -0.238212,0.218547 -0.476348,0.444575 -0.70731,0.692379 0.281558,-0.06545 0.490771,-0.349832 0.70731,-0.692379 z m -0.894964,0.663201 c -0.01534,0.0078 -0.02302,0.02337 -0.03452,0.02727 0.0077,0 0.01534,0 0.02302,0 0,-0.0078 0.0077,-0.02338 0.01534,-0.02727 z M 35.489631,4.9426885 c -0.916598,0.2913971 -1.64558,0.5830669 -1.566176,0.6122066 0.0077,0 0.01534,0 0.02302,0 0.664002,-0.2551673 1.176445,-0.4518603 1.544542,-0.6122066 z M 24.713973,9.4248274 c -0.230924,0.080251 -0.721732,0.3642464 -1.342426,0.8089776 0.64954,-0.37905 1.089829,-0.6413463 1.356849,-0.8162625 -0.0077,0.00779 -0.0077,0.00779 -0.01534,0.00779 z m -4.676895,2.2447316 c 0.05063,-0.03506 0.100885,-0.05843 0.15152,-0.09466 0.317616,-0.233352 0.649578,-0.459145 0.967156,-0.685056 -0.396982,0.255167 -0.786713,0.517425 -1.118714,0.779799 z M 1.1706526,52.978291 c 0.2163471,-0.1531 0.3318089,-0.714235 0.3897316,-1.523212 0.030688,-0.685095 0.072116,-1.552352 0.1227502,-2.514391 -0.00767,-0.255167 -0.030688,-0.488285 -0.072116,-0.670486 0.034523,0.09466 0.072116,0.145699 0.1008852,0.196732 0.023016,-0.400827 0.050634,-0.808977 0.079404,-1.224413 -0.2596932,0.08765 -0.072116,-1.523173 0.2888464,-3.687731 0.093981,-0.481 0.2163471,-0.991179 0.3390972,-1.515927 0.1515197,-0.911006 0.3682504,-1.705413 0.5990206,-2.354044 0.043346,-0.182318 0.093981,-0.364247 0.1373267,-0.546604 0.023016,-0.08025 0.043346,-0.160502 0.072116,-0.240367 -0.4330394,0.400869 0.3249043,-1.260838 0.5557512,-2.383184 -0.2094424,0.539318 -0.4186163,1.071352 -0.6062705,1.58153 -0.331809,0.932864 -0.5557512,1.84387 -0.8011364,2.71845 -0.2163471,0.845403 -0.4402893,1.66895 -0.599059,2.470643 -0.030687,0.218547 -0.057539,0.42272 -0.086692,0.648631 -0.00767,0 -0.00767,-0.0078 -0.015344,-0.01558 -0.1008853,0.641346 -0.2021541,1.275408 -0.2815581,1.909469 -0.093981,0.816262 -0.2163471,1.62524 -0.2527885,2.456072 -0.023016,0.830832 -0.034524,1.66895 -0.030688,2.54353 -0.023016,0.692341 0.00767,1.413861 0.057539,2.149989 z M 26.698766,93.733094 c -0.736156,-0.284385 -2.056947,-1.39933 -2.396198,-1.136955 0.447501,0.3062 0.411405,0.568497 0.815598,0.87458 0.09398,-0.510178 1.320792,0.539319 1.5806,0.26257 z m 60.99469,-28.60561 c 0.108174,-0.546603 0.108174,-1.166095 0.06483,-1.319156 -0.230924,0.72152 -0.440251,1.450324 -0.757829,2.135419 0.324904,0.167514 0.584636,-0.269582 0.692886,-0.816263 z m 3.139603,-9.700406 c 0.0794,0.911006 -0.05063,1.574207 -0.180289,2.171843 -0.15152,0.597598 -0.266982,1.129631 -0.09398,1.843866 0.02302,-0.612207 0.353674,-1.545067 0.476347,-2.375899 0.130039,-0.830832 0.166097,-1.537782 -0.202154,-1.63981 z m -12.709931,9.729546 c 0.346385,-1.326441 1.710523,-2.383184 1.37131,-3.316083 -0.360962,0.852726 -1.457926,2.375938 -1.37131,3.316083 z m 2.143562,-5.764871 c -0.05063,0.663241 -0.988791,1.996928 -0.281558,2.077101 -0.180289,-0.874542 0.822809,-1.719983 0.281558,-2.077101 z m 9.74356,19.692327 c 0.541328,-0.859972 1.306368,-1.829296 1.992042,-2.820475 0.671213,-0.991178 1.176445,-2.055206 1.364099,-2.951642 -0.541328,0.940145 -1.212541,2.128095 -1.948734,3.133843 -0.70731,1.034927 -1.291907,1.982358 -1.407407,2.638274 z M 66.899969,96.655596 c -0.122751,-0.18933 -0.252789,-0.328016 -0.837233,-0.05844 l 0.187578,0.495609 c 0.909386,-0.291398 1.732157,-0.69238 1.63833,-1.064067 -0.49077,0.204134 -0.743367,0.415435 -0.98879,0.626776 z M 91.172271,69.748115 c 0.331809,-1.093246 1.291907,-2.820514 1.277484,-3.629491 0.469136,-1.231659 0.808348,-2.375899 0.642367,-2.81319 -0.245501,0.794408 -0.678463,1.967788 -1.08983,3.126598 -0.418616,1.151524 -0.938271,2.252016 -1.118714,3.02453 0.187578,-0.415397 0.461924,-0.940145 0.750617,-1.515888 0.100886,-0.189331 0.194866,-0.393581 0.295752,-0.590352 -0.404155,0.940145 -0.844445,1.909469 -0.757829,2.397793 z m -10.638523,6.690406 c -0.526866,0.532034 -0.887752,0.991179 -1.133137,1.319157 -0.259693,0.320614 -0.36825,0.532033 -0.346385,0.597597 0.03069,0.123883 0.642366,-0.34243 1.479599,-1.916754 z m -1.003214,4.868435 c 1.161984,-1.435754 2.692103,-3.257765 4.106721,-5.181803 -0.108174,0.0078 -0.209442,0.02337 -0.339097,0.204133 -0.0794,-0.852687 1.053733,-1.042173 1.479561,-1.85115 0,0.0078 0,0.01558 0.0077,0.02337 0.490808,-0.736089 0.959944,-1.472179 1.356887,-2.200983 -0.12275,0.583028 -0.599059,1.392006 -1.162022,2.230123 -0.05792,0.08726 -0.115461,0.167514 -0.173384,0.255167 -0.03069,0.123883 -0.115462,0.240364 -0.223636,0.335418 -0.447462,0.648631 -0.909386,1.275408 -1.291906,1.807441 l -1.789927,2.266586 c -0.627944,0.728805 -1.306368,1.413861 -1.97037,2.113525 z m 4.287164,-5.422323 c 0.108173,-0.1531 0.216347,-0.3062 0.324904,-0.459145 -0.27427,0.167514 -0.483597,0.306201 -0.324904,0.459145 z M 45.225979,98.52864 c -0.707309,-0.01558 -1.024887,-0.07285 -1.010464,-0.182318 0.490809,0.08025 1.010464,0.153101 1.551754,0.233352 -0.05754,0.05103 -0.130039,0.08765 -0.180289,0.1531 1.291906,0.05103 2.728159,0.182318 4.243855,0.160502 1.515657,0.01558 3.11793,0.06545 4.691318,-0.09467 1.580638,-0.116481 3.161238,-0.247765 4.597529,-0.597637 1.443503,-0.320614 2.807602,-0.619491 3.904643,-1.136916 -1.118714,0.182318 -2.30237,0.37905 -3.50045,0.568458 0.837233,-0.174916 1.717735,-0.371648 2.61991,-0.626776 1.472388,-0.386062 3.024141,-0.750659 4.510914,-1.319156 1.494022,-0.52471 2.988044,-1.071313 4.287163,-1.778262 1.313579,-0.685095 2.547755,-1.333726 3.478815,-2.120849 -4.041778,1.83662 -8.855808,4.095921 -12.91922,4.795546 0.259693,-0.11648 0.700097,-0.211146 0.656789,-0.386451 -0.548539,0.45186 -1.48681,0.685095 -2.345678,0.830832 -0.786713,0.145699 -1.472349,0.328017 -1.732196,0.808978 -0.266981,0.03506 -0.534078,0.07285 -0.801136,0.109468 0.108173,-0.02727 0.216347,-0.06545 0.317616,-0.09467 -1.060983,0.255167 -1.263061,0.196732 -0.786713,-0.211146 -1.010426,0.328017 -2.215755,0.45186 -3.493239,0.590313 -0.635155,0.06545 -1.291945,0.116481 -1.955946,0.160502 -0.166097,0.0078 -0.339098,0.0078 -0.505194,0.0078 -0.526905,-0.0078 -1.046521,-0.03506 -1.551753,-0.08025 0.281558,-0.04363 0.728944,-0.02337 0.736155,-0.196732 -0.649578,0.291397 -1.616696,0.276983 -2.482813,0.189331 -0.389731,-0.02727 -0.757828,-0.04363 -1.075368,-0.01558 -0.296134,-0.01558 -0.613482,-0.02337 -0.894963,-0.05103 -0.396982,-0.03506 -0.779502,-0.06545 -1.15481,-0.09466 0.02301,-0.01558 0.04335,-0.02337 0.07211,-0.03506 -0.209442,0.0078 -0.433077,0 -0.649578,-0.0078 -0.158808,-0.0078 -0.310327,-0.01558 -0.461924,-0.02727 -0.76504,-0.05843 -1.573388,-0.182318 -2.410621,-0.313602 -0.635155,-0.102067 -1.277483,-0.22595 -1.927061,-0.357235 -0.649579,-0.131284 -1.284696,-0.34243 -1.919851,-0.517424 -0.0077,0 -0.01534,-0.0078 -0.02302,-0.0078 0.144231,-0.02727 0.295751,-0.08726 0.367866,-0.160502 -1.429041,-0.335418 -2.821987,-0.838117 -4.229393,-1.289977 -0.880541,0.07285 2.533294,0.954715 3.471565,1.289977 0,0.02337 0.03069,0.02727 0.03452,0.05103 -1.133137,-0.335419 -2.251851,-0.641347 -3.240641,-1.013034 -1.104253,-0.408111 -2.107467,-0.765229 -2.944699,-0.998463 0.851656,0.400866 1.934273,0.889151 3.139564,1.406614 1.219753,0.473715 2.591064,0.889151 3.962413,1.304547 0.685636,0.218548 1.378522,0.37905 2.07862,0.495609 0.692848,0.131285 1.37131,0.247766 2.020889,0.342431 0.64954,0.08765 1.270272,0.18933 1.847658,0.211535 0.591809,0.03506 1.125925,0.02727 1.602272,0.0078 z M 88.357458,74.427025 c -0.440251,0.706949 -1.161984,1.727267 -1.85487,2.733016 -0.700098,1.005748 -1.479599,1.931324 -1.854908,2.630988 0.288847,-0.349832 0.685675,-0.787084 1.111503,-1.268122 0.440251,-0.473716 0.88054,-0.998464 1.255849,-1.545067 0.772251,-1.064067 1.392945,-2.084385 1.342426,-2.550815 z M 41.66776,99.658272 c 0.534116,0.06545 1.082618,0.11648 1.609523,0.138686 0.534078,-0.0078 1.03931,-0.02727 1.472349,-0.05103 -0.541328,0.01558 -1.097041,-0.01558 -1.631157,-0.102067 -0.534079,-0.102066 -1.060945,-0.225949 -1.558965,-0.34243 -0.988791,-0.233351 -1.85487,-0.444575 -2.475563,-0.37905 0.534078,0.371648 1.515657,0.604922 2.583813,0.736089 z M 94.153105,55.725877 c -0.433078,1.253553 0.05063,0.46643 0,0 z M 16.42834,86.466905 c -0.642329,-0.46643 -1.623908,-1.887614 -2.020889,-1.727268 0.353673,0.415397 0.2455,0.655916 0.562962,1.056743 0.223636,-0.459145 1.140349,0.874581 1.457927,0.670525 z M 79.126341,60.761904 c -0.166096,0.757983 -0.981579,1.931363 -0.728944,2.412363 0.526867,-0.765229 0.822771,-1.523212 0.728944,-2.412363 z M 35.583458,2.9749012 c 0.461924,-0.1238827 0.909387,-0.2477654 1.328003,-0.3572341 0.837233,-0.2477654 1.558965,-0.5028547 2.042562,-0.8162624 -1.64558,0.4883238 -3.608738,0.8891506 -4.756299,1.617955 0.469136,-0.1531003 0.931022,-0.2987989 1.385734,-0.4445753 z M 97.429804,41.127896 c 0.599059,0.328017 1.19808,0.612207 1.660004,1.311833 -0.03452,-1.246229 -0.43304,-1.406576 -0.620694,-2.332151 -0.548539,0.07285 -0.916598,0.37905 -1.03931,1.020318 z M 49.347123,1.473583 C 48.149043,1.450209 46.279712,0.83952164 45.132152,1.438522 45.41371,2.0798683 48.67591,2.0507286 49.347123,1.473583 Z m 42.850035,61.656974 c 0.555751,-0.488324 1.558965,-3.031854 1.31358,-4.074027 -0.490809,1.115061 -1.508446,3.308759 -1.31358,4.074027 z M 71.129401,6.9031909 c 0.779502,0.3790499 1.515657,0.7360893 2.230178,1.0786367 0.700098,0.3716481 1.400195,0.7214804 2.100293,1.0567429 C 74.723716,8.5794253 73.929792,8.0911404 73.114194,7.5955317 72.276961,7.1436714 71.418094,6.6845262 70.57365,6.225381 68.899223,5.2925208 67.174238,4.6948841 65.795716,4.3742305 c 1.032099,0.4591451 1.984793,0.8818657 2.872545,1.2826925 0.88054,0.4445753 1.6961,0.859972 2.46114,1.2462679 z M 47.037541,0.47511947 c 1.017675,-0.0946651 2.020889,-0.22594961 3.002468,-0.28438485 0.98879,-0.0436316 1.941485,-0.0872633 2.872545,-0.13128451 C 51.822724,0.02438896 50.725683,-0.00599736 49.650277,0.00101487 48.574871,0.05945011 47.513926,0.1467134 46.481828,0.24878029 45.969385,0.30721554 45.464153,0.36526121 44.966132,0.42369645 44.468151,0.50394752 43.991803,0.61302664 43.515456,0.71509353 42.577185,0.92662911 41.682221,1.1669538 40.859412,1.429328 42.923609,1.0357861 44.995017,0.63495933 47.037541,0.47461303 Z"
            style="fill:url(#linearGradient5123);fill-opacity:1;fill-rule:nonzero;stroke:none;stroke-width:0.725266"
            id="path5125" />
        <path
            d="m 56.606326,22.447871 c -0.316293,0 -0.58098,0.240562 -0.617758,0.559291 l -0.287331,2.519245 c -1.186709,0.418331 -2.257643,1.053181 -3.189357,1.872412 L 50.213244,26.38723 c -0.289322,-0.126993 -0.628446,-0.0114 -0.785366,0.267487 l -2.293848,4.036628 c -0.15692,0.278887 -0.08493,0.632671 0.167611,0.821916 l 1.977785,1.488203 c -0.115238,0.612556 -0.191565,1.244449 -0.191565,1.891865 0,0.647417 0.07385,1.281682 0.191565,1.896728 l -1.977785,1.488203 c -0.252544,0.191735 -0.32698,0.545518 -0.167611,0.821916 l 2.293848,4.036628 c 0.15692,0.278887 0.496044,0.389618 0.785366,0.26262 l 2.298636,-1.006721 c 0.929262,0.816741 2.002648,1.454083 3.189357,1.872411 l 0.287331,2.519246 c 0.03678,0.323706 0.303917,0.564154 0.617758,0.564154 h 4.587695 c 0.31629,0 0.58098,-0.240566 0.617758,-0.559291 l 0.287328,-2.519246 c 1.18671,-0.41833 2.257646,-1.05318 3.18936,-1.872411 l 2.293847,1.011589 c 0.289322,0.126993 0.628449,0.009 0.785366,-0.267488 l 2.293848,-4.036628 c 0.15692,-0.278886 0.08971,-0.63267 -0.162829,-0.821916 l -1.977776,-1.493066 c 0.115241,-0.615046 0.186764,-1.244448 0.186764,-1.891865 0,-0.647417 -0.07385,-1.276819 -0.191565,-1.891865 l 1.977798,-1.493066 c 0.252544,-0.191735 0.32698,-0.545519 0.167611,-0.821916 L 68.36768,26.654717 C 68.21076,26.37583 67.871636,26.2651 67.582314,26.392094 l -2.293847,1.006725 c -0.929262,-0.816741 -2.007439,-1.454081 -3.194148,-1.872412 l -0.28254,-2.519245 c -0.03678,-0.318728 -0.301468,-0.559291 -0.617758,-0.559291 z m -9.683005,0.0049 C 36.713699,22.328223 28.279429,30.125198 27.19815,40.170117 l -6.07223,9.668461 5.942932,2.543561 v 12.396825 h 9.807514 v 7.470193 h 22.066906 v -6.871995 c 0,-7.806352 3.114384,-9.932827 5.291652,-13.904479 -2.709323,0.891443 -5.697322,1.138738 -8.821015,0.486342 -6.7868,-1.421827 -12.210547,-7.059567 -13.375189,-13.996886 -1.019983,-6.073268 1.062007,-11.6849 4.889389,-15.499678 -0.0025,-0.0075 -0.0023,-0.0023 -0.0049,-0.0097 z m 11.976852,8.087854 c 2.368513,0 4.290788,1.94972 4.290788,4.357612 0,2.405402 -1.919819,4.357613 -4.290788,4.357613 -2.368514,0 -4.290787,-1.952211 -4.290787,-4.357613 0,-2.407892 1.922273,-4.357612 4.290787,-4.357612 z"
            style="fill:#ffffff;fill-opacity:1;fill-rule:nonzero;stroke:none;stroke-width:2.4709" id="path5219" />
    </g>
</svg>