<?xml version="1.0" encoding="UTF-8" standalone="no"?>
<svg xmlns:dc="http://purl.org/dc/elements/1.1/" xmlns:cc="http://creativecommons.org/ns#"
   xmlns:rdf="http://www.w3.org/1999/02/22-rdf-syntax-ns#" xmlns:svg="http://www.w3.org/2000/svg"
   xmlns="http://www.w3.org/2000/svg" width="100mm" height="99.999992mm" viewBox="0 0 100 99.999992" version="1.1"
   id="svg8264">
   <defs id="defs8258">
      <clipPath clipPathUnits="userSpaceOnUse" id="clipPath2595">
         <path d="m 1593.6897,788.89355 h 290.7712 v 290.77125 h -290.7712 z" clip-rule="evenodd" id="path7381" />
      </clipPath>
      <linearGradient x1="26.051001" y1="49.521" x2="73.017998" y2="49.521" gradientUnits="userSpaceOnUse"
         gradientTransform="matrix(0.24,0,0,-0.24,-307.41301,-32.524973)" spreadMethod="pad" id="linearGradient2607">
         <stop style="stop-opacity:1;stop-color:#43e8ed" offset="0" id="stop2599" />
         <stop style="stop-opacity:1;stop-color:#349ff6" offset="0.44640002" id="stop2601" />
         <stop style="stop-opacity:1;stop-color:#2868fc" offset="0.8197" id="stop2603" />
         <stop style="stop-opacity:1;stop-color:#2453ff" offset="1" id="stop2605" />
      </linearGradient>
      <linearGradient x1="39.872002" y1="56.804001" x2="73.739998" y2="56.804001" gradientUnits="userSpaceOnUse"
         gradientTransform="matrix(0.24,0,0,-0.24,-307.41301,-32.524973)" spreadMethod="pad" id="linearGradient2619">
         <stop style="stop-opacity:1;stop-color:#43e8ed" offset="0" id="stop2611" />
         <stop style="stop-opacity:1;stop-color:#349ff6" offset="0.44640002" id="stop2613" />
         <stop style="stop-opacity:1;stop-color:#2868fc" offset="0.8197" id="stop2615" />
         <stop style="stop-opacity:1;stop-color:#2453ff" offset="1" id="stop2617" />
      </linearGradient>
      <linearGradient x1="15.76" y1="42.212002" x2="68.667999" y2="42.212002" gradientUnits="userSpaceOnUse"
         gradientTransform="matrix(0.24,0,0,-0.24,-307.41301,-32.524973)" spreadMethod="pad" id="linearGradient2631">
         <stop style="stop-opacity:1;stop-color:#43e8ed" offset="0" id="stop2623" />
         <stop style="stop-opacity:1;stop-color:#349ff6" offset="0.44640002" id="stop2625" />
         <stop style="stop-opacity:1;stop-color:#2868fc" offset="0.8197" id="stop2627" />
         <stop style="stop-opacity:1;stop-color:#2453ff" offset="1" id="stop2629" />
      </linearGradient>
      <linearGradient x1="20.57" y1="45.896" x2="71.241997" y2="45.896" gradientUnits="userSpaceOnUse"
         gradientTransform="matrix(0.24,0,0,-0.24,-307.41301,-32.524973)" spreadMethod="pad" id="linearGradient2643">
         <stop style="stop-opacity:1;stop-color:#43e8ed" offset="0" id="stop2635" />
         <stop style="stop-opacity:1;stop-color:#349ff6" offset="0.44640002" id="stop2637" />
         <stop style="stop-opacity:1;stop-color:#2868fc" offset="0.8197" id="stop2639" />
         <stop style="stop-opacity:1;stop-color:#2453ff" offset="1" id="stop2641" />
      </linearGradient>
      <linearGradient x1="0" y1="20.282" x2="40.568001" y2="20.282" gradientUnits="userSpaceOnUse"
         gradientTransform="matrix(0.24,0,0,-0.24,-307.41301,-32.524973)" spreadMethod="pad" id="linearGradient2655">
         <stop style="stop-opacity:1;stop-color:#43e8ed" offset="0" id="stop2647" />
         <stop style="stop-opacity:1;stop-color:#349ff6" offset="0.44640002" id="stop2649" />
         <stop style="stop-opacity:1;stop-color:#2868fc" offset="0.8197" id="stop2651" />
         <stop style="stop-opacity:1;stop-color:#2453ff" offset="1" id="stop2653" />
      </linearGradient>
      <linearGradient x1="32.376999" y1="53.102001" x2="73.838997" y2="53.102001" gradientUnits="userSpaceOnUse"
         gradientTransform="matrix(0.24,0,0,-0.24,-307.41301,-32.524973)" spreadMethod="pad" id="linearGradient2667">
         <stop style="stop-opacity:1;stop-color:#43e8ed" offset="0" id="stop2659" />
         <stop style="stop-opacity:1;stop-color:#349ff6" offset="0.44640002" id="stop7410" />
         <stop style="stop-opacity:1;stop-color:#2868fc" offset="0.8197" id="stop7412" />
         <stop style="stop-opacity:1;stop-color:#2453ff" offset="1" id="stop2665" />
      </linearGradient>
      <linearGradient x1="3.0081" y1="12.705" x2="22.409" y2="12.705" gradientUnits="userSpaceOnUse"
         gradientTransform="matrix(0.24,0,0,-0.24,-307.41301,-32.524973)" spreadMethod="pad" id="linearGradient2679">
         <stop style="stop-opacity:1;stop-color:#43e8ed" offset="0" id="stop2671" />
         <stop style="stop-opacity:1;stop-color:#349ff6" offset="0.44640002" id="stop2673" />
         <stop style="stop-opacity:1;stop-color:#2868fc" offset="0.8197" id="stop2675" />
         <stop style="stop-opacity:1;stop-color:#2453ff" offset="1" id="stop2677" />
      </linearGradient>
      <linearGradient x1="0.24950001" y1="16.538" x2="32.837002" y2="16.538" gradientUnits="userSpaceOnUse"
         gradientTransform="matrix(0.24,0,0,-0.24,-307.41301,-32.524973)" spreadMethod="pad" id="linearGradient2691">
         <stop style="stop-opacity:1;stop-color:#43e8ed" offset="0" id="stop2683" />
         <stop style="stop-opacity:1;stop-color:#349ff6" offset="0.44640002" id="stop2685" />
         <stop style="stop-opacity:1;stop-color:#2868fc" offset="0.8197" id="stop2687" />
         <stop style="stop-opacity:1;stop-color:#2453ff" offset="1" id="stop2689" />
      </linearGradient>
      <linearGradient x1="11.547" y1="38.537998" x2="65.549004" y2="38.537998" gradientUnits="userSpaceOnUse"
         gradientTransform="matrix(0.24,0,0,-0.24,-307.41301,-32.524973)" spreadMethod="pad" id="linearGradient2703">
         <stop style="stop-opacity:1;stop-color:#43e8ed" offset="0" id="stop2695" />
         <stop style="stop-opacity:1;stop-color:#349ff6" offset="0.44640002" id="stop2697" />
         <stop style="stop-opacity:1;stop-color:#2868fc" offset="0.8197" id="stop2699" />
         <stop style="stop-opacity:1;stop-color:#2453ff" offset="1" id="stop2701" />
      </linearGradient>
      <linearGradient x1="0.67150003" y1="23.833" x2="47.006001" y2="23.833" gradientUnits="userSpaceOnUse"
         gradientTransform="matrix(0.24,0,0,-0.24,-307.41301,-32.524973)" spreadMethod="pad" id="linearGradient2715">
         <stop style="stop-opacity:1;stop-color:#43e8ed" offset="0" id="stop2707" />
         <stop style="stop-opacity:1;stop-color:#349ff6" offset="0.44640002" id="stop2709" />
         <stop style="stop-opacity:1;stop-color:#2868fc" offset="0.8197" id="stop2711" />
         <stop style="stop-opacity:1;stop-color:#2453ff" offset="1" id="stop2713" />
      </linearGradient>
      <linearGradient x1="49.702" y1="60.637001" x2="71.588997" y2="60.637001" gradientUnits="userSpaceOnUse"
         gradientTransform="matrix(0.24,0,0,-0.24,-307.41301,-32.524973)" spreadMethod="pad" id="linearGradient2727">
         <stop style="stop-opacity:1;stop-color:#43e8ed" offset="0" id="stop2719" />
         <stop style="stop-opacity:1;stop-color:#349ff6" offset="0.44640002" id="stop2721" />
         <stop style="stop-opacity:1;stop-color:#2868fc" offset="0.8197" id="stop2723" />
         <stop style="stop-opacity:1;stop-color:#2453ff" offset="1" id="stop2725" />
      </linearGradient>
      <linearGradient x1="7.8804002" y1="34.825001" x2="61.771" y2="34.825001" gradientUnits="userSpaceOnUse"
         gradientTransform="matrix(0.24,0,0,-0.24,-307.41301,-32.524973)" spreadMethod="pad" id="linearGradient2739">
         <stop style="stop-opacity:1;stop-color:#43e8ed" offset="0" id="stop2731" />
         <stop style="stop-opacity:1;stop-color:#349ff6" offset="0.44640002" id="stop2733" />
         <stop style="stop-opacity:1;stop-color:#2868fc" offset="0.8197" id="stop2735" />
         <stop style="stop-opacity:1;stop-color:#2453ff" offset="1" id="stop2737" />
      </linearGradient>
      <linearGradient x1="4.8098998" y1="31.156" x2="57.495998" y2="31.156" gradientUnits="userSpaceOnUse"
         gradientTransform="matrix(0.24,0,0,-0.24,-307.41301,-32.524973)" spreadMethod="pad" id="linearGradient2751">
         <stop style="stop-opacity:1;stop-color:#43e8ed" offset="0" id="stop2743" />
         <stop style="stop-opacity:1;stop-color:#349ff6" offset="0.44640002" id="stop7447" />
         <stop style="stop-opacity:1;stop-color:#2868fc" offset="0.8197" id="stop7449" />
         <stop style="stop-opacity:1;stop-color:#2453ff" offset="1" id="stop2749" />
      </linearGradient>
      <linearGradient x1="2.3866999" y1="27.466999" x2="52.573002" y2="27.466999" gradientUnits="userSpaceOnUse"
         gradientTransform="matrix(0.24,0,0,-0.24,-307.41301,-32.524973)" spreadMethod="pad" id="linearGradient2763">
         <stop style="stop-opacity:1;stop-color:#43e8ed" offset="0" id="stop2755" />
         <stop style="stop-opacity:1;stop-color:#349ff6" offset="0.44640002" id="stop2757" />
         <stop style="stop-opacity:1;stop-color:#2868fc" offset="0.8197" id="stop2759" />
         <stop style="stop-opacity:1;stop-color:#2453ff" offset="1" id="stop2761" />
      </linearGradient>
      <linearGradient x1="-0.39899999" y1="68.556999" x2="137.05499" y2="68.556999" gradientUnits="userSpaceOnUse"
         gradientTransform="matrix(-0.1724989,0.02627944,0.02647616,0.17121723,-374.10651,-64.799596)"
         spreadMethod="pad" id="linearGradient2371">
         <stop style="stop-opacity:1;stop-color:#6fd6ff" offset="0" id="stop2367" />
         <stop style="stop-opacity:1;stop-color:#bff0cf" offset="1" id="stop2369" />
      </linearGradient>
   </defs>
   <metadata id="metadata8261">
      <rdf:RDF>
         <cc:Work rdf:about="">
            <dc:format>image/svg+xml</dc:format>
            <dc:type rdf:resource="http://purl.org/dc/dcmitype/StillImage" />
            <dc:title></dc:title>
         </cc:Work>
      </rdf:RDF>
   </metadata>
   <g id="g9316">
      <path
         d="m 14.615053,76.946933 c -1.119827,-0.505223 -1.461595,-2.114756 -2.494164,-3.334529 -0.225416,-0.433055 0.232696,0.137126 0.821691,0.95994 0.567188,0.822807 1.396154,1.804401 1.672473,2.374589 z m -5.1773922,0.288691 -0.4290273,0.310348 c 0.5162862,0.801153 1.1198275,1.494045 1.4470535,1.306385 C 10.128441,78.433732 9.8666841,78.246079 9.5976322,78.065642 9.7503363,77.899639 9.8521261,77.733636 9.4376491,77.235616 Z M 35.630043,89.851978 c 0.952584,0.324786 1.854266,0.584627 2.450536,0.548539 -3.534007,-0.866106 -7.606115,-2.822079 -10.39842,-4.070725 0.843508,0.461928 1.679749,0.938294 2.545071,1.364126 l 2.654143,1.147597 c 0.792606,0.303129 1.796089,0.692888 2.74867,1.010463 z m 50.690473,-8.27858 c -0.661692,0.894983 -1.403414,1.645613 -2.079664,2.396243 -0.690808,0.736195 -1.34526,1.465171 -2.01423,2.107537 -1.374337,1.255861 -2.610524,2.468408 -3.853978,3.522178 -0.02919,0.02177 -0.05815,0.05053 -0.08727,0.07219 -0.618087,0.230976 -1.207098,0.353663 -1.752469,0.324787 -0.872585,0.692888 -1.781539,1.226992 -2.632326,1.775527 -0.865325,0.534101 -1.679745,1.068198 -2.494168,1.522914 -0.0218,0.01452 -0.04363,0.02177 -0.05815,0.02903 -0.08727,-0.0073 -0.167262,-0.02177 -0.269052,-0.01452 -0.0144,0.05775 -0.02919,0.122688 -0.04364,0.180441 -1.512502,0.793934 -2.908649,1.566217 -4.268447,2.215798 -1.48341,0.678461 -2.865022,1.414657 -4.239358,2.093103 -1.381608,0.656803 -2.726856,1.38578 -4.101193,2.201367 1.403422,-0.512451 3.054078,-1.111501 4.835628,-1.75387 1.723376,-0.750623 3.599453,-1.443518 5.417359,-2.280759 0.523558,-0.252633 1.054383,-0.490793 1.585215,-0.7362 0,0.0073 -0.0074,0.0073 -0.0074,0.01452 0.501744,-0.151564 0.799881,-0.310348 1.047119,-0.483578 0.916225,-0.41862 1.817903,-0.837248 2.675953,-1.284734 -0.850779,0.765064 -1.694287,1.559002 -2.530524,2.41067 1.221633,-0.851668 2.661415,-1.85492 4.210269,-2.937559 0.276331,-0.223756 0.567185,-0.440274 0.858051,-0.664019 0,0 0.0074,0 0.0074,0 0.79988,-0.375321 1.556129,-0.757849 2.290561,-1.060986 0.145425,-0.837241 -1.0762,0.56297 -1.272536,0.281471 0.538104,-0.404186 1.076208,-0.808379 1.607033,-1.234211 1.090742,-0.793934 2.137861,-1.566218 3.075884,-2.39624 0.712645,-0.599061 1.396173,-1.190904 2.043346,-1.775527 0.196184,-0.187661 0.377965,-0.382532 0.559902,-0.577408 0.698087,-0.606277 1.396135,-1.190904 2.072424,-1.732224 0.67625,-0.570197 1.308864,-1.133163 1.941518,-1.61674 -0.08019,-0.880545 -0.967139,0.967151 -1.185277,0.570188 1.308903,-1.645609 2.58869,-3.125215 3.613984,-4.677006 0.530863,-0.757849 1.039851,-1.508471 1.512521,-2.244671 0.450834,-0.75063 0.836233,-1.522913 1.207075,-2.273543 -1.374337,1.717789 -2.654124,3.53662 -3.868516,5.095622 -1.236152,1.544587 -2.545055,2.677749 -3.803044,2.930363 z M 97.758803,56.456174 c -0.20358,0.952725 -0.385361,1.840489 -0.567181,2.684949 -0.159983,0.851675 -0.312571,1.652828 -0.458113,2.432327 -0.174385,0.772284 -0.334368,1.537349 -0.465391,2.302417 0.247176,-0.830026 0.508988,-1.725005 0.785319,-2.634422 0.217982,-0.923852 0.436314,-1.876574 0.654451,-2.800426 0.458113,-1.854923 0.58898,-3.68097 0.538104,-5.088407 -0.174385,1.118724 -0.334368,2.143622 -0.487189,3.103562 z M 32.554147,95.885899 c 0.967127,0.303129 2.101501,0.793941 3.235875,1.198119 1.134374,0.396975 2.290561,0.606277 3.199515,0.562974 C 37.942425,97.36552 36.626259,97.019069 35.4628,96.571571 34.284795,96.145732 33.215866,95.820941 32.554147,95.885899 Z M 98.166001,37.055292 c 0.298168,0.938287 0.596297,1.85492 0.879868,2.735468 -0.247176,-1.068205 -0.509027,-2.129191 -0.792598,-3.168523 -0.341764,-1.024898 -0.698087,-2.028145 -1.068928,-2.995305 -0.189178,-0.483574 -0.377965,-0.952721 -0.567181,-1.421864 -0.20358,-0.454709 -0.436314,-0.894983 -0.661731,-1.320823 -0.450833,-0.851675 -0.916225,-1.652828 -1.381616,-2.381805 0.923504,1.891008 1.854286,3.789239 2.530536,5.723554 0.356167,0.95994 0.748962,1.898231 1.06165,2.829298 z m -5.75912,-12.060599 c 0.458112,0.75063 0.894387,1.37856 1.323422,1.761093 -0.894387,-1.465172 -1.796093,-3.255134 -2.799549,-4.17899 0.261968,0.411405 0.530825,0.822806 0.785319,1.226992 0.240169,0.411405 0.47267,0.815591 0.690808,1.190905 z M 33.848496,77.307812 c -0.276331,-0.223756 -0.770791,-0.555747 -1.359794,-0.909418 -0.59627,-0.353663 -1.2289,-0.822806 -1.912437,-1.183685 -0.18906,0.101031 -0.501739,0.173222 -0.101789,0.144346 0.676261,0.274252 1.287078,0.996028 1.519769,1.219773 -0.538104,-0.396967 -1.105288,-0.873329 -1.287078,-0.411401 0.159984,0.0073 0.29813,0.05775 0.436295,0.122687 -0.04363,0.02177 -0.07999,0.0359 -0.123627,0.07941 -0.02919,0.151565 0.327207,0.498013 0.748978,0.757846 0.429023,0.238194 0.901682,0.411405 1.018026,0.317567 -0.181781,-0.07219 -0.356322,-0.230975 -0.530829,-0.411401 0.130906,0.05053 0.254494,0.04332 0.370842,-0.06497 -0.152704,-0.05053 -0.334485,-0.173222 -0.516286,-0.303129 1.999699,1.111501 2.290565,1.089847 1.737919,0.642358 z m 0.843508,4.814136 c 0.807152,0.360882 1.687017,1.097074 2.239663,0.526885 -0.930771,-0.332005 -1.694291,-0.642369 -2.239663,-0.526885 z M 0.40630222,56.051999 c 0.14542504,0.512447 0.29812912,0.996025 0.43629849,1.407426 -0.15270409,-0.519662 -0.27633094,-1.060982 -0.33448539,-1.602301 -0.0436353,-0.541316 -0.0581545,-1.082636 -0.0727125,-1.587868 -0.029194,-1.017682 -0.0509143,-1.905442 -0.28360997,-2.490065 -0.21089746,0.606273 -0.18178131,1.616736 -0.0362006,2.684945 0.0727125,0.526874 0.17450226,1.068193 0.29085009,1.587863 z M 30.401748,85.102814 c -0.109069,0.06497 0.501743,0.54132 2.232387,0.938287 C 31.986962,85.66578 31.448862,85.434824 31.063467,85.283252 30.692625,85.124468 30.45265,85.066715 30.401748,85.102814 Z M 19.712462,77.329466 c 0.930767,0.642365 1.941525,1.566217 2.792305,1.674482 -0.603545,-0.483578 -1.330709,-1.263081 -1.854263,-1.818828 -0.530829,-0.555754 -0.872597,-0.894983 -0.639905,-0.562973 0.930767,0.873322 -0.225417,0.122688 -0.298129,0.707319 z m 8.086045,6.228781 c -0.734432,-1.032113 -2.174217,-1.19812 -3.432206,-2.331282 0.06543,1.104293 2.901377,1.753878 3.432206,2.331282 z M 7.7724584,26.019594 c -0.087271,-0.245414 -0.050914,-0.728976 0.2108974,-0.671238 0.4581123,-0.664015 1.70883,-2.836514 2.0578652,-3.139654 0.509015,-0.793934 1.010759,-1.573437 1.519774,-2.324063 0.981666,-1.342472 1.846991,-2.728252 2.712313,-4.034637 -0.152704,0.555754 -0.225416,1.089859 -0.734435,1.847704 0.610816,-0.606277 1.199819,-1.183685 1.788821,-1.746658 0.40721,-0.433055 0.814423,-0.858895 1.228904,-1.270296 1.308892,-1.19812 2.581427,-2.374586 3.846687,-3.47166 1.301625,-1.046551 2.494168,-2.1652791 3.67217,-3.1973959 -0.290851,0.4980124 -0.50174,0.9960286 -1.192544,1.5950865 0.07999,-0.043315 0.152704,-0.086592 0.232695,-0.129907 3.075896,-2.2085865 6.260868,-3.8686302 9.787604,-5.1100573 -0.181781,-0.346444 -1.010754,-0.014515 -1.868809,0.3681016 -0.530825,-0.02903 0.29085,-0.3392249 1.265264,-0.6928881 0.959856,-0.3681016 2.123315,-0.6423653 2.166946,-0.9238521 -0.07999,0.4258359 0.574456,0.4402743 1.650656,0.2309755 0.501744,-0.1154686 1.11256,-0.2454138 1.78155,-0.3825323 2.348732,-0.6423692 4.71201,-1.068205 7.169821,-1.2630808 -0.05815,-0.2598139 -0.509014,-0.2886906 -1.083475,-0.2309754 -0.196339,0.02903 -0.385399,0.050534 -0.589002,0.079411 -0.07271,0.014515 -0.145425,0.021772 -0.225417,0.035905 C 42.865336,1.4868523 43.068955,1.4146605 43.50523,1.3569071 43.948799,1.0104631 45.686718,1.1836851 47.119225,0.70732262 46.762903,0.40419363 45.773977,0.48356637 45.184975,0.32479034 47.2792,-0.50523153 48.006365,1.1187278 50.522346,0.88776382 50.282372,0.64956921 49.722466,0.54853895 49.009848,0.52688142 49.257063,0.34644022 49.889712,0.34644022 49.773368,0 c 2.843208,0.11546862 5.70095,0.490797 8.529611,1.1115086 -0.116348,-0.050534 -0.225416,-0.1010303 -0.319966,-0.15156448 1.025301,-0.12268779 1.636117,0.18766038 2.239663,0.59184258 0.618087,0.1587836 1.228907,0.346444 1.83972,0.5268814 0.232695,-0.014515 0.450841,-0.035905 0.44357,-0.2598521 6.668077,2.0642335 13.030745,5.6297233 18.448109,10.422206 1.388894,1.234207 2.712317,2.547811 3.970306,3.933591 0.872589,0.902198 1.72338,1.82605 2.545055,2.785991 0.145581,0.252633 0.319966,0.526885 0.487189,0.793933 0.821714,0.505236 1.767016,2.490074 2.588691,3.529406 -0.145581,-0.07941 -0.305564,-0.230976 -0.458113,-0.418621 1.447089,2.208583 2.748674,4.52543 3.890354,6.950542 0.07279,0.281472 0.174385,0.591843 0.261967,0.887764 0.610817,0.649585 0.996216,2.533373 1.461569,3.774804 -0.210976,-0.84446 -0.268974,-1.645613 -0.01557,-1.847708 0.872589,0.952725 0.77076,2.923125 1.061649,4.08516 -0.356167,-0.245414 -0.748962,-1.125947 -0.996216,-2.013711 -0.538104,-0.606277 -0.887147,-2.432327 -1.425251,-3.673754 0.03503,0.108249 0.058,0.202098 0.09459,0.310348 0.14558,0.54132 0.305563,1.118728 0.465391,1.717789 0.305564,1.19812 0.770799,2.453981 1.047091,3.832542 0.290773,1.371346 0.67625,2.785991 0.879869,4.258382 0.189177,1.472391 0.429035,2.959213 0.487228,4.438823 0.07279,1.176466 0.09459,2.352936 0.07279,3.529401 0,0.0073 0,0.02177 0,0.02903 0,0.04331 0,0.08663 0,0.122688 0,0.151564 0,0.310348 -0.0078,0.461924 -0.02336,5.081188 -0.719885,10.191245 -2.341475,15.091992 -3.279499,10.155158 -9.918487,19.451409 -19.393399,25.550283 0.0144,-0.173222 0.109068,-0.353663 0.305408,-0.555754 -2.101497,1.443518 -4.326613,2.728252 -6.668077,3.825326 -0.66899,0.382533 -1.337977,0.765065 -1.992424,1.140386 -0.501744,0.274252 -0.988941,0.555754 -1.497952,0.793937 -0.509011,0.223756 -1.025301,0.440271 -1.541588,0.642365 0.349044,-0.41862 1.054386,-0.772291 1.810636,-1.162035 0.101789,-0.05775 0.203618,-0.108249 0.305408,-0.166003 -0.807148,0.310349 -1.6143,0.60627 -2.443266,0.87333 0.09455,-0.259852 0.356323,-0.498016 0.988941,-0.692892 -0.04364,0.0073 -0.08727,0.02177 -0.130906,0.0359 -0.29085,0.10103 -0.581731,0.209318 -0.887135,0.303129 -0.865326,0.28869 -1.752465,0.584619 -2.610512,0.873329 -0.872593,0.238195 -1.723376,0.433063 -2.479625,0.599065 0.807151,-0.317567 1.708829,-0.59185 2.661418,-0.923852 -1.163463,0.317568 -2.297836,0.664019 -3.424935,1.039336 -1.127103,0.29591 -2.239662,0.591851 -3.330405,0.880545 -0.552646,0.129907 -1.098017,0.281471 -1.650656,0.375321 -0.552646,0.08659 -1.105285,0.166003 -1.650656,0.223756 0.450841,-0.317567 1.214362,-0.476362 2.05787,-0.656804 0.836236,-0.209318 1.752465,-0.396966 2.501439,-0.642365 -1.17073,0.05775 -2.865021,0.339225 -4.690191,0.42584 -0.908954,0.05775 -1.846996,0.115468 -2.748674,0.173222 -0.901682,0.0073 -1.774279,-0.02177 -2.552338,-0.05775 1.17073,-0.137126 2.494164,-0.151564 3.926675,-0.303129 1.425235,-0.144345 2.959547,-0.137126 4.508402,-0.389743 -1.221633,-0.469144 -2.995912,-0.685673 -4.75564,-0.815595 -0.436299,-0.0359 -0.879869,-0.07219 -1.308896,-0.10825 -0.429023,-0.07219 -0.843512,-0.137126 -1.243446,-0.202099 -0.799877,-0.144345 -1.512498,-0.317567 -2.072412,-0.555758 0.305408,0.129907 0.399938,-0.07937 0.29085,-0.353663 -0.916225,0.0359 -2.450537,-0.324786 -3.432206,-0.360882 0.567185,-0.267033 2.137857,0.09385 3.352218,0.216537 -0.145425,-0.230976 -0.414481,-0.476363 -0.836237,-0.60627 -0.07271,-0.02903 -0.138146,-0.05053 -0.203618,-0.07219 0.09455,-0.0073 0.174502,-0.04332 0.218138,-0.10825 -0.109069,0.158784 -1.497956,-1.082639 -0.254494,-0.902198 -1.512499,-0.346444 -2.908649,-0.779499 -4.217541,-1.226993 -1.287078,-0.512447 -2.479626,-1.104289 -3.628538,-1.681697 1.287078,0.274252 3.352219,1.349688 5.47553,1.789962 2.094229,0.562981 4.152095,0.562981 4.922887,-0.461924 -0.748974,-0.649585 -1.512499,-1.241427 -2.552338,-1.768305 -1.032573,-0.584623 -2.37782,-0.974375 -4.290257,-1.335253 -0.09455,-0.346444 0.0144,-0.75063 -0.399938,-1.01769 0.109068,-0.274252 1.207086,0.54132 2.137853,0.47637 0.334485,-0.05775 0.392667,-0.346444 0.988941,-0.18766 -0.0218,-0.09381 -0.07999,-0.180442 -0.138146,-0.259852 -0.66899,-0.07219 -1.585215,-0.180442 -2.232391,-0.202099 -0.04364,-0.317568 0.312687,-0.274252 0.683532,-0.216537 -1.083471,-0.389752 -1.905165,-0.534097 -2.741402,-0.75063 -0.843508,-0.187661 -1.737915,-0.324787 -2.937734,-0.692892 0.269052,-0.29591 -0.28361,-0.48357 -0.719893,-0.685661 1.098014,0.245375 2.668686,0.584615 4.246625,1.140377 0.785339,0.281472 1.621576,0.461928 2.392367,0.721761 0.341765,0.10103 0.676262,0.216537 1.003484,0.332006 -0.276331,-0.230976 -0.610817,-0.440274 -0.858051,-0.685673 0.683533,-0.151564 2.406909,1.544564 2.734127,0.10103 0.02919,-0.505231 -1.178001,-0.519666 -1.999695,-0.692888 0.116347,-0.37532 0.79988,-0.245413 1.519769,-0.10103 -0.07271,-0.54132 -0.349043,-0.931071 -0.29085,-1.205339 -0.509015,-0.07219 -0.974398,-0.202099 -1.141645,-0.29591 0.07999,-0.129907 0.312687,-0.115468 0.349044,-0.28869 -3.584911,-0.772284 0.116347,-0.288691 1.308891,0.230975 0.0074,0 0.0144,-0.0073 0.02919,-0.0073 -0.654448,-0.606273 -1.047111,-0.873322 -1.461595,-1.097067 -0.414481,-0.209318 -0.843509,-0.41862 -1.497956,-0.931071 0.239974,-0.129907 0.66899,0.02177 1.119831,0.202099 0.458112,0.158784 0.930767,0.375321 1.221633,0.469143 0.305408,-0.122688 0.603549,-0.252595 0.887139,-0.389747 -0.399938,-0.627939 -2.137857,-0.166003 -2.326917,-0.591843 0.07999,-0.238195 0.152704,-0.47637 -0.138146,-0.584627 0.661719,-0.151565 1.570672,0.793937 2.777758,0.873329 -0.0218,-0.245414 -1.025297,-0.505231 0.05091,-0.346444 -0.298129,-0.396974 -1.563401,-0.353663 -1.992424,-0.692888 0.603545,-0.06497 1.890619,-0.02177 2.850471,0.115469 0.232696,-0.440271 -0.472655,-0.425836 -0.683529,-0.642366 -0.538104,-0.122688 -0.814423,0.0073 -0.836237,0.396967 -0.814423,-0.664011 -0.872597,-1.255854 -1.730647,-1.580652 -0.312687,-0.570189 1.119831,-0.06497 0.356322,-0.454709 0.429024,-0.28869 1.454325,-0.115468 2.501436,0.115507 0.261773,0.05775 0.523557,0.10825 0.778063,0.158784 0.254493,0.02903 0.501743,0.04331 0.734435,0.05053 0.341764,0.0073 0.63263,-0.0073 0.850779,-0.07941 -0.879864,-0.05775 -1.752461,-0.158783 -2.632325,-0.28869 -0.09455,-0.01452 -0.19634,-0.02903 -0.29085,-0.04332 -0.269052,-0.04332 -0.530829,-0.09381 -0.799877,-0.144345 -0.269052,-0.05053 -0.538104,-0.10103 -0.807152,-0.151564 -0.09451,-0.02177 -0.181781,-0.04331 -0.276331,-0.06497 -1.97061,-0.440274 -3.868501,-1.068213 -5.671865,-1.869358 -0.04364,-0.02177 -0.08727,-0.04332 -0.130906,-0.05775 -0.399938,-0.180441 -0.799877,-0.368102 -1.185276,-0.56297 -0.130906,-0.06497 -0.254494,-0.129907 -0.378121,-0.194879 -0.298129,-0.151565 -0.59627,-0.310349 -0.887136,-0.476363 -0.203618,-0.115468 -0.399942,-0.230975 -0.603549,-0.353663 -0.203618,-0.122688 -0.41448,-0.245376 -0.618083,-0.368102 -0.07271,-0.04331 -0.145425,-0.08663 -0.210898,-0.129907 -0.05091,0.07219 0.152704,0.245376 0.661715,0.512451 -0.581727,0.216537 -1.439782,-0.873329 -1.796089,-1.183685 -0.778066,0.844456 0.974395,1.097066 1.214358,1.667263 -1.214358,-0.216537 -2.050598,-1.392995 -3.039539,-1.660055 0.225416,0.274252 1.025301,0.938294 1.93425,1.566217 -0.530824,-0.216537 -1.214361,-0.353663 -1.868805,-0.570189 -0.152704,-0.05053 -0.305408,-0.108249 -0.44357,-0.180441 0.407214,0.382532 0.785338,0.765065 1.083475,1.003248 -0.08727,0.0073 -0.174502,-0.01451 -0.261773,-0.02903 0.0144,0.02903 0.04364,0.05053 0.05815,0.07941 -1.381612,-0.0359 -2.166946,-1.854923 -3.788517,-2.316847 -0.138146,0.483578 1.098013,0.483578 1.090746,1.140378 0.138146,-0.209318 0.610816,0.158783 1.098014,0.656811 0.487197,0.505224 1.076199,1.060986 1.308891,1.385768 -1.39615,-0.757845 -2.290561,-1.558998 -3.272231,-2.302413 -0.501739,-0.360882 -0.967127,-0.779499 -1.483413,-1.234207 -0.530829,-0.440275 -1.112556,-0.923849 -1.781546,-1.479607 1.316162,1.364127 1.876076,2.800425 3.635813,4.402731 -0.472659,-1.263077 0.690804,0.353663 0.734431,0.837241 0.421756,-0.158784 1.068929,0.245414 1.781546,0.801153 -0.101789,0.137126 -0.356322,-0.07941 -0.552642,-0.166003 2.28329,2.280759 5.795484,3.767585 9.92577,5.355456 -0.727165,-0.137126 -1.447058,-0.310348 -2.159676,-0.498024 -0.705346,-0.216537 -1.374336,-0.512439 -2.043326,-0.786711 -0.225417,-0.08663 -0.436295,-0.18766 -0.647173,-0.281471 0.450837,0.267033 0.821694,0.534104 0.858051,0.700107 0.407213,0.209318 0.516282,0.02177 0.85805,0.144346 0.145425,0.245375 -0.436295,0.166002 -1.119831,-0.02903 -0.683529,-0.18766 -1.410693,-0.599069 -1.607025,-0.786718 0.109069,-0.10103 0.334486,-0.02903 0.40721,-0.187661 -1.723373,-0.880548 -1.563401,-0.894983 -0.88714,-0.599061 -0.5381,-0.303129 -1.054386,-0.620712 -1.570668,-0.923852 -0.581731,-0.324787 -1.098014,-0.714542 -1.614304,-1.075421 -0.305408,-0.158783 -0.610816,-0.310348 -0.908949,-0.483581 -0.618088,-0.389748 -1.192548,-0.844457 -1.767008,-1.284731 -0.349043,-0.252633 -0.668986,-0.519666 -0.981665,-0.801153 -0.189061,-0.115468 -0.370842,-0.230975 -0.559918,-0.332005 0.712622,0.728976 1.374337,1.407429 2.050598,2.020933 0.378121,0.202099 0.792606,0.490797 1.272536,0.822799 -0.06543,0.04331 -0.130906,0.05775 -0.19634,0.07219 0.0074,0.0073 0.0144,0.01451 0.02919,0.02177 0.5381,0.418621 1.061654,0.822803 1.585211,1.226989 0.552642,0.368101 1.127102,0.707326 1.70883,1.068205 2.326921,1.429091 5.10468,2.684945 9.176788,3.767584 -0.901682,0.0073 -1.854263,-0.209317 -2.835933,-0.505223 -0.98167,-0.281472 -2.006967,-0.613497 -2.974094,-1.08264 -1.992424,-0.815587 -3.846691,-1.898227 -5.635509,-2.518942 -0.167262,-0.216537 -0.06543,-0.245414 0.02919,-0.346444 -0.06543,-0.04331 -0.138146,-0.07941 -0.203618,-0.122688 -0.879864,-0.526889 -1.774275,-1.10429 -2.588698,-1.811624 -0.421756,-0.317567 -0.828966,-0.64958 -1.228904,-0.988809 0.218138,0.368102 0.356322,0.765065 0.530829,0.591843 0.5381,0.692888 -0.647173,0.209317 -1.010755,-0.151565 -0.0074,0.404186 0.414481,1.053767 -0.458112,0.54132 -0.19634,0.375321 0.465383,0.894979 0.479926,1.320819 0.254494,0.07941 0.487197,0.180441 0.828965,0.418628 l 1.010755,0.692888 c 0.799877,0.433047 1.694287,0.945498 2.581423,1.544556 0.683533,0.47637 1.447057,0.858902 2.123318,1.313603 0.698076,0.42584 1.330706,0.902199 1.919708,1.263081 0.159984,0.166003 -1.788821,-0.685665 -2.923195,-1.032117 0.0074,-0.07941 0.0362,-0.129907 0.07999,-0.158783 -1.316163,-0.461928 -2.508707,-1.313604 -4.282986,-2.612769 -0.06543,-0.04332 -0.130906,-0.07219 -0.196339,-0.115469 0.0074,-0.0073 0.0074,-0.01451 0.0144,-0.01451 -0.05091,-0.0359 -0.09455,-0.06497 -0.145425,-0.10825 0.05815,0.02903 0.109069,0.05053 0.167262,0.07941 0.167262,-0.158783 -0.0144,-0.353663 -0.269052,-0.562973 -1.541583,-0.627931 -2.6396,-1.414649 -3.817602,-2.208583 -0.559917,-0.44749 -1.134373,-0.909417 -1.767007,-1.407422 -0.639902,-0.498024 -1.359791,-1.01769 -2.123311,-1.674482 0.05091,-1.147597 -2.116044,-1.992065 -2.988641,-3.680978 0.145425,0.245414 0.407214,1.162035 0.850784,2.006496 0.247214,0.41862 0.530824,0.815579 0.843508,1.104293 -0.08727,-0.187661 -0.130906,-0.368102 -0.10179,-0.548547 0.239975,0.368102 0.509015,0.678461 0.785338,0.952721 0.09451,0.02177 0.181781,0.0359 0.276331,0.02903 0.08727,0.166003 0.08727,0.245414 0.05091,0.288729 0.668987,0.620711 1.316163,1.111508 1.592486,1.862138 -0.225416,-0.433055 -1.287077,-1.111508 -2.014242,-1.82605 -0.0144,0 -0.02919,0.0073 -0.0362,0.0073 0.719889,0.620712 0.865322,0.707323 0.901678,1.349688 0.399942,0.317568 0.04364,-0.411401 0.487201,-0.0073 0.196339,0.519666 0.363602,1.003244 1.20709,2.093099 0.210859,0.209318 0.40721,0.425839 0.625359,0.62793 0.145425,-0.151564 -0.04363,-0.389747 -0.276331,-0.64958 1.265264,1.3136 2.668686,2.540592 4.181184,3.695416 -0.07999,-0.137126 -0.09455,-0.274253 0.0144,-0.389752 0.581731,0.476363 1.228904,0.866103 1.861537,1.277508 -0.152704,0.0073 -0.698075,-0.144345 -1.185276,-0.368102 3.308587,2.410674 7.162549,4.446039 11.590968,6.012256 -0.0074,0.519666 -1.665203,-0.671238 -1.687016,-0.166003 0.930767,0.728976 3.45402,1.205339 5.06832,1.580656 0.44357,-0.555758 -1.221633,-0.505232 -1.861535,-0.765069 -0.741706,-0.433055 2.697772,0.310349 2.901378,0.620716 -0.559913,0.339225 -1.70883,0.209318 -3.003183,-0.07941 -1.272531,-0.368102 -2.683224,-0.909414 -3.868501,-1.241423 0.218138,-0.07941 0.429024,-0.158784 0.494469,-0.396971 -0.312687,-0.09381 -0.625359,-0.209318 -0.930767,-0.339225 -0.145425,0.368102 0.06543,0.404186 -0.94531,0.562974 -0.254494,-0.05054 -0.392667,-0.19488 -0.479926,-0.353664 -0.152704,-0.05775 -0.305408,-0.115468 -0.465383,-0.18766 -0.763521,-0.332006 -1.577944,-0.894983 -2.166942,-1.075424 0.5381,0.01452 0.938038,0.151564 1.330705,0.339225 -0.02919,-0.173222 0.05815,-0.310348 -0.523557,-0.671238 -0.639902,0.122687 -1.657928,-0.274253 -2.78503,-0.851676 -1.134378,-0.685669 -2.35601,-1.573433 -3.410393,-2.194148 0.145425,-0.01452 0.28361,-0.0359 0.399939,-0.09381 -0.247215,-0.180441 -0.494469,-0.360883 -0.741707,-0.54132 -0.09455,0.158784 -0.167262,0.19488 -0.938038,0.115469 -0.807152,-0.396967 -0.0218,-1.522914 -0.94531,-0.967152 -0.66899,-0.678454 -0.37812,-0.714542 -0.429027,-0.98159 -0.967127,-0.757857 -1.868805,-1.436303 -2.588698,-1.919889 0.10179,-0.01451 0.152704,-0.05053 0.174502,-0.09381 -0.698075,-0.656807 -1.497956,-1.479614 -2.246934,-2.446762 -0.443569,-0.548539 -0.89441,-1.104293 -1.345251,-1.667267 -0.0074,-0.0073 -0.0144,-0.01451 -0.0144,-0.02177 -0.04364,0.180442 -0.101789,0.404183 -0.479926,0.137127 -0.116348,0.202098 0.0218,0.411401 0.225417,0.606277 -0.0144,-0.02903 -0.0362,-0.05775 -0.06543,-0.09385 0.363602,0.05775 0.545372,0.310348 0.690804,0.613497 0.130906,0.122687 0.203619,0.223756 0.130906,0.303129 0.138146,0.346444 0.28361,0.714541 0.57446,0.98159 -0.487201,0.06497 -0.632634,-0.483578 -0.756253,-0.894979 -0.0074,0 -0.0074,0.0073 -0.0144,0.0073 -0.138146,-0.166003 -0.254494,-0.28151 -0.356323,-0.382532 -0.02919,0.02903 -0.06543,0.05775 -0.109068,0.108249 -0.07271,-0.108249 -0.07999,-0.18766 -0.06543,-0.267071 -0.3854,-0.317568 -0.5381,-0.245376 -0.807152,-0.548543 -0.196339,-0.483578 -0.101789,-0.837241 0.28361,-1.060986 -0.581727,-0.858895 -0.967123,-0.974375 -1.403421,-1.046551 1.279806,0.923852 -0.305409,0.238194 0.836236,1.465172 -0.203618,0.05053 -0.516286,-0.44749 -0.698075,-0.324787 0.232696,0.858895 1.607029,2.201368 2.086955,3.139654 -1.039844,-1.118732 -2.414181,-2.540592 -3.388575,-3.861411 -1.010759,-1.29195 -1.897898,-2.287978 -2.210574,-2.352939 -0.4362982,0.06497 -0.6108161,-1.746659 0.138146,-0.483578 -0.159983,-0.51967 -1.8033598,-2.230237 -2.3850911,-3.87585 -0.043635,0.505228 0.1017897,1.118728 -0.509015,0.613493 0.4581123,1.508475 0.5162862,1.05377 1.2725354,2.143625 -0.2108975,-0.10103 -0.4290234,-0.194879 -0.6399014,-0.07219 0.7126178,0.952725 0.748974,0.454709 0.8507794,1.580656 C 6.8555099,67.736908 4.9067169,62.966079 3.7868857,57.985936 3.1542517,55.560755 2.9070174,53.012944 2.7106858,50.580613 c -0.0362,-1.212554 -0.050914,-2.410674 -0.050914,-3.558275 -0.021798,-1.154812 0.138146,-2.251886 0.2108975,-3.305657 -0.2690519,-0.368101 0.09455,-0.801152 0.3635626,-1.320822 0.058154,-0.461924 0.1309059,-0.909414 0.2036184,-1.364123 -0.1672622,-0.07941 -0.5380999,0.461924 -0.2763309,-0.562973 0.2036184,-0.346444 0.4144847,-0.894983 0.6326339,-1.559002 0.021798,-0.10825 0.036201,-0.216537 0.058155,-0.324787 0.2836092,-1.183685 0.5817305,-2.338501 0.8798675,-3.450009 0.2763309,-1.118724 0.719889,-2.143626 1.0689285,-3.139651 C 5.619323,31.533387 6.1865041,31.194162 6.600981,30.703365 6.7536851,30.328044 6.9063892,29.945515 7.0663684,29.570202 6.9572996,29.389761 6.3901069,29.894989 6.9282224,28.942272 7.2481886,28.631923 7.6335689,28.090596 8.0625961,27.419358 8.1498667,27.246136 8.2298583,27.065695 8.324369,26.899692 8.7606675,26.062451 9.1751483,25.254083 9.5896331,24.510668 10.04047,23.796122 10.469497,23.139322 10.854893,22.561914 9.3714838,24.496229 8.2807376,26.444983 7.1681815,28.335991 6.2155969,30.306394 5.2048422,32.233494 4.5358519,34.420423 5.1539434,31.403472 6.3901186,28.610266 7.7717266,26.019151 Z M 32.03059,87.657841 c 0.109069,0.05053 0.225416,0.10103 0.341764,0.151565 -0.06543,-0.19488 -0.130906,-0.303129 -0.341764,-0.151565 z m -9.991211,-13.77117 c -0.06543,-0.06497 -0.130906,-0.137126 -0.203618,-0.202098 -0.0362,0.122687 -0.02919,0.238194 -0.0074,0.360882 0.02919,-0.07219 0.123627,-0.08659 0.210859,-0.158784 z M 63.487631,3.9842784 c 0.429024,0.129907 0.836237,0.2526329 1.199819,0.3320057 -0.363601,-0.1515645 -0.712621,-0.2886907 -1.061657,-0.4258397 -0.08727,0.02903 -0.138146,0.057753 -0.138146,0.093811 z M 14.695041,70.479973 c -0.370842,-0.382532 -0.734432,-0.86611 -1.098014,-1.320823 -0.02919,0.02177 -0.05091,0.02903 -0.07999,0.06497 0.385399,0.757849 0.923495,1.638394 1.308891,1.436302 -0.0362,-0.05053 -0.08727,-0.115468 -0.130906,-0.180441 z m -3.221328,-5.160584 c 0.116347,0.144345 0.239974,0.267071 0.37812,0.353663 -0.109068,-0.230975 -0.218137,-0.483578 -0.312687,-0.808372 -0.05815,0.122688 -0.07271,0.281472 -0.06543,0.454709 z m 0.225416,0.707323 c 0.0144,0.02177 0.0218,0.04331 0.02919,0.07219 0.159983,0.230976 0.269052,0.404182 0.356323,0.555755 0.02919,0.0359 0.05091,0.07941 0.08727,0.115468 0.538096,0.678454 1.214358,1.299169 1.512495,1.631175 -0.509011,-1.205335 -1.090743,-1.52291 -1.585215,-2.287975 -0.10179,0.0073 -0.276331,-0.10103 -0.399938,-0.08663 z m 0.349044,4.929619 c 0.407209,0.635147 0.741702,1.082636 0.654444,0.6568 -0.472655,-0.577408 -0.676262,-1.147593 -0.85078,-1.602305 -0.18906,-0.447494 -0.37812,-0.779499 -0.814423,-0.923852 0.218138,0.346444 0.632634,1.212558 1.010759,1.869357 z m 0.08727,1.414646 1.337981,1.984838 0.29085,-0.209318 c -0.552643,-0.562974 -1.20709,-2.367374 -1.628842,-1.775532 z m 17.626415,14.067091 c 0.02919,-0.02177 0.02919,-0.04332 0.05091,-0.06497 -0.312687,-0.115468 -0.683529,-0.281471 -1.105285,-0.505231 -0.908953,-0.469144 -2.043327,-1.12594 -3.155887,-1.970404 0.908954,0.87333 2.894107,1.840485 4.210274,2.540593 z m -5.148323,-9.823144 c 0.06543,-0.02177 0.130906,-0.01452 0.18906,-0.0073 -0.981665,-0.844457 -1.926979,-1.674483 -2.894106,-2.324063 0.167262,0.346444 0.530829,0.700103 0.967127,1.07542 0.349044,0.288691 0.727164,0.620712 1.134374,0.931068 0.40721,0.310348 0.814419,0.642369 1.156187,1.017682 0.10179,-0.187661 -0.305408,-0.44749 -0.552642,-0.692888 z m 4.930162,3.031389 c -0.138146,-0.04332 -0.312687,-0.129907 -0.516286,-0.238195 0.167262,0.115469 0.341764,0.230976 0.516286,0.346445 0,-0.0359 0.0074,-0.06497 0,-0.10825 z m -0.596274,-5.0451 c -0.218137,-0.238194 -0.44357,-0.476359 -0.690804,-0.707323 0.06543,0.281472 0.349044,0.490797 0.690804,0.707323 z m -0.661715,-0.894979 c -0.0074,-0.01451 -0.0218,-0.02177 -0.02919,-0.0359 0,0.0073 0,0.01452 0,0.02177 0.0074,4e-6 0.0218,0.0073 0.02919,0.01452 z M 94.842867,35.489075 c -0.290772,-0.916633 -0.581739,-1.645609 -0.610816,-1.566218 0,0.0073 0,0.01452 0,0.02177 0.254571,0.664016 0.450833,1.176466 0.610816,1.544564 z M 90.370813,24.713206 c -0.08019,-0.230976 -0.363562,-0.721757 -0.807155,-1.342473 0.377965,0.649585 0.639932,1.089855 0.814434,1.356911 -0.0078,-0.0073 -0.0078,-0.0073 -0.0078,-0.01452 z m -2.239647,-4.676999 c 0.03503,0.05053 0.058,0.101031 0.09459,0.151565 0.232773,0.317567 0.458112,0.649584 0.683568,0.967159 -0.254573,-0.39697 -0.516307,-0.786718 -0.77808,-1.118727 z M 46.915603,1.1694148 c 0.152704,0.2165371 0.712621,0.3320057 1.519765,0.3897515 0.683533,0.02903 1.548855,0.072192 2.508707,0.1226878 0.254494,-0.00726 0.487197,-0.02903 0.668986,-0.072192 -0.09451,0.035905 -0.145425,0.072192 -0.196339,0.1010303 0.399942,0.021772 0.807152,0.050534 1.221637,0.079411 -0.08727,-0.2598139 1.519765,-0.072192 3.679436,0.2886906 0.47993,0.093811 0.988941,0.2165371 1.512498,0.3392249 0.908954,0.1515645 1.701559,0.3681016 2.348739,0.5990617 0.181782,0.043315 0.363563,0.093811 0.545372,0.1371262 0.07999,0.021772 0.159983,0.043315 0.239974,0.072192 -0.399938,-0.4330589 1.257997,0.3247865 2.37782,0.5557543 C 62.804099,3.572835 62.27327,3.3635324 61.764259,3.175872 60.833492,2.8438663 59.924539,2.6201177 59.051938,2.3747192 58.20843,2.1581821 57.386739,1.9344488 56.586859,1.7756613 c -0.218138,-0.02903 -0.421756,-0.057753 -0.647173,-0.086592 0,-0.00726 0.0074,-0.00726 0.0144,-0.014515 C 55.314185,1.5735244 54.681555,1.4724559 54.048921,1.3930832 53.234498,1.2992339 52.427346,1.1765461 51.598381,1.1404502 50.769415,1.1186781 49.933178,1.1045454 49.060585,1.1114208 48.369789,1.0896486 47.6499,1.1186781 46.915464,1.1691742 Z M 6.2526888,26.698044 c 0.28361,-0.736192 1.3961505,-2.057011 1.1343737,-2.39624 -0.3054081,0.44749 -0.5671888,0.411402 -0.8725969,0.815588 0.5090149,0.09381 -0.5381,1.320819 -0.2617768,1.580652 z M 34.793806,87.693929 c 0.545371,0.10825 1.163459,0.10825 1.316167,0.06497 -0.719893,-0.230975 -1.447057,-0.44027 -2.130586,-0.757845 -0.167262,0.324786 0.269052,0.584623 0.814419,0.692888 z m 9.678531,3.139654 c -0.908953,0.07941 -1.570668,-0.05053 -2.166942,-0.180441 -0.596274,-0.151564 -1.127102,-0.267033 -1.83972,-0.09381 0.610816,0.02177 1.541583,0.353663 2.370549,0.476366 0.828962,0.129907 1.534312,0.166003 1.636113,-0.202098 z M 34.764721,78.123399 c 1.323438,0.346444 2.377824,1.710571 3.308591,1.371346 -0.850783,-0.360883 -2.370553,-1.457957 -3.308591,-1.371346 z m 5.751857,2.143626 c -0.661719,-0.05054 -1.992429,-0.98881 -2.072413,-0.281472 0.872594,-0.180441 1.716102,0.822807 2.072413,0.281472 z m -19.647929,9.743752 c 0.858055,0.54132 1.825178,1.306384 2.814119,1.992057 0.988941,0.671234 2.050598,1.176466 2.945005,1.36413 -0.938038,-0.54132 -2.123315,-1.212554 -3.126794,-1.94875 -1.032572,-0.70733 -1.977882,-1.291957 -2.63233,-1.407437 z M 3.3367687,66.900041 C 3.525829,66.777353 3.663975,66.647408 3.3949227,66.062796 l -0.4944685,0.18766 C 3.1913043,67.159874 3.5912582,67.98268 3.9621116,67.88885 3.7584936,67.398053 3.5476272,67.145436 3.3367531,66.900037 Z M 30.183598,91.172808 c 1.090743,0.332006 2.814115,1.291942 3.621267,1.277523 1.228904,0.469136 2.370549,0.808364 2.806847,0.642358 -0.792605,-0.245376 -1.963339,-0.678454 -3.119526,-1.089855 -1.148917,-0.418621 -2.24693,-0.938287 -3.017726,-1.118728 0.414485,0.18766 0.938042,0.461924 1.512498,0.75063 0.189061,0.10103 0.392671,0.19488 0.589003,0.29591 C 31.637923,91.52646 30.6708,91.086186 30.183598,91.172797 Z M 23.50825,80.534077 c -0.530829,-0.526893 -0.988941,-0.887772 -1.316163,-1.133162 -0.319966,-0.259814 -0.530828,-0.368102 -0.596274,-0.346444 -0.123626,0.02903 0.341765,0.642373 1.912437,1.479614 z m -4.857445,-1.003244 c 1.43251,1.162031 3.250417,2.692161 5.170125,4.10681 -0.0074,-0.10825 -0.0218,-0.209318 -0.203619,-0.339225 0.850783,-0.07937 1.039844,1.05377 1.846992,1.479606 -0.0074,0 -0.0144,0 -0.0218,0.0073 0.734432,0.490797 1.468867,0.959948 2.196032,1.356908 C 27.056803,86.019544 26.249655,85.54317 25.413418,84.9802 25.326148,84.92245 25.246156,84.864732 25.158925,84.806978 25.035298,84.777948 24.91895,84.69151 24.824439,84.583222 24.177263,84.135725 23.551904,83.673801 23.021075,83.291268 L 20.7596,81.501259 c -0.727164,-0.62793 -1.410693,-1.306384 -2.108772,-1.970399 z m 5.410088,4.287247 c 0.152704,0.108249 0.305408,0.216537 0.458112,0.324786 -0.167262,-0.274252 -0.305408,-0.483577 -0.458112,-0.324786 z M 1.4679595,45.225608 c 0.014402,-0.707323 0.072713,-1.024898 0.1817813,-1.010463 -0.079992,0.490793 -0.152704,1.010463 -0.2326956,1.551782 -0.050914,-0.05775 -0.087271,-0.129907 -0.1527041,-0.180441 -0.050914,1.29195 -0.1817813,2.728249 -0.1599831,4.243944 -0.014402,1.515694 -0.065433,3.118 0.09455,4.691436 0.1163479,1.580656 0.2472148,3.161304 0.59627,4.597607 0.3199662,1.443522 0.6180914,2.807644 1.1343737,3.904722 C 2.74777,61.905467 2.5514306,60.721782 2.3623664,59.523663 c 0.1745023,0.837245 0.3708416,1.717785 0.6253588,2.619988 0.3853997,1.472387 0.7489779,3.02417 1.3161629,4.510995 0.5235574,1.494041 1.0689286,2.988082 1.774279,4.287251 0.6835288,1.3136 1.3307053,2.547808 2.1160395,3.478879 C 6.3617576,70.378923 4.1075565,65.564791 3.4094812,61.501281 3.525829,61.761134 3.6203397,62.201389 3.7948809,62.158085 3.3440399,61.60955 3.1113482,60.671263 2.9659154,59.812369 2.8204903,59.025654 2.6386701,58.339978 2.1587635,58.080145 2.122563,57.813112 2.086051,57.546044 2.0496948,57.278992 c 0.029194,0.108249 0.065433,0.216537 0.09455,0.317567 C 1.8897506,56.535573 1.947905,56.333482 2.3551418,56.809845 2.0278966,55.799382 1.9043009,54.594043 1.7661393,53.316528 1.7007058,52.681381 1.6497915,52.024578 1.6061562,51.360559 c -0.0074,-0.166003 -0.0074,-0.339225 -0.0074,-0.505228 0.0074,-0.526889 0.036201,-1.046551 0.079992,-1.551783 0.043635,0.281472 0.021798,0.728976 0.1963394,0.736192 -0.2908501,-0.649585 -0.276331,-1.61674 -0.1890604,-2.482854 0.029194,-0.389752 0.043635,-0.757849 0.014402,-1.075421 0.014402,-0.295909 0.021798,-0.613496 0.050914,-0.894983 0.036201,-0.396966 0.065434,-0.779503 0.094511,-1.154812 0.014402,0.02177 0.021798,0.04331 0.036201,0.07219 -0.0074,-0.209318 0,-0.433051 0.0074,-0.649585 0.0074,-0.158783 0.014402,-0.310348 0.029194,-0.461924 0.058154,-0.765064 0.1817813,-1.573436 0.3126872,-2.410677 0.1017898,-0.635146 0.2254166,-1.277516 0.3563225,-1.927096 0.1309059,-0.649585 0.3417645,-1.284731 0.5162862,-1.919881 0,-0.0073 0.0074,-0.01451 0.0074,-0.02177 0.029194,0.144345 0.087271,0.29591 0.1599831,0.368102 0.3344807,-1.429084 0.8362322,-2.822079 1.2870693,-4.229509 -0.072712,-0.880549 -0.9525808,2.533373 -1.287074,3.471663 -0.021798,0 -0.029194,0.02903 -0.050914,0.0359 0.3344851,-1.133162 0.639901,-2.25189 1.0107544,-3.240699 0.4072096,-1.10429 0.7635204,-2.107537 0.9962122,-2.944779 -0.3999384,0.851676 -0.8871356,1.934316 -1.4034218,3.139651 -0.4726548,1.219773 -0.8871395,2.591118 -1.3016204,3.96246 -0.2181375,0.685669 -0.3781206,1.378561 -0.4944724,2.078668 -0.1309059,0.692888 -0.2472148,1.371342 -0.3417644,2.020922 -0.087271,0.649585 -0.1890603,1.270297 -0.2108974,1.847708 -0.036201,0.591839 -0.029194,1.12594 -0.0074,1.602302 z m 24.0472575,43.13234 c -0.705347,-0.440274 -1.723372,-1.162031 -2.72686,-1.854923 -1.003483,-0.700103 -1.926979,-1.479606 -2.625054,-1.854919 0.349043,0.28869 0.785334,0.685669 1.26526,1.111508 0.472659,0.440275 0.996216,0.880549 1.541587,1.255862 1.061654,0.772284 2.079683,1.392995 2.545067,1.342472 z M 0.34085705,41.667337 c -0.0654335,0.534101 -0.11634782,1.08264 -0.13814601,1.609521 0.007396,0.534104 0.029194,1.039332 0.0509143,1.472391 -0.0144023,-0.54132 0.0144024,-1.097074 0.10178979,-1.631175 0.10178974,-0.534104 0.2254166,-1.060986 0.34176442,-1.559002 0.23269565,-0.988809 0.44356975,-1.854919 0.37812065,-2.475635 -0.37084161,0.534101 -0.60354504,1.515691 -0.73443536,2.5839 z M 44.1742,94.153682 c -1.250717,-0.433062 -0.465383,0.05053 0,0 z M 13.502497,16.42741 c 0.465384,-0.642365 1.883348,-1.623959 1.723373,-2.020926 -0.414481,0.353663 -0.654444,0.245414 -1.054387,0.562974 0.458117,0.223756 -0.872593,1.140377 -0.668986,1.457952 z m 25.647015,62.699237 c -0.756253,-0.166003 -1.926983,-0.981594 -2.406909,-0.728976 0.76352,0.526881 1.519769,0.822802 2.406909,0.728976 z m 57.65671,-43.543742 c 0.123782,0.461924 0.247176,0.909414 0.356167,1.328038 0.247176,0.837241 0.501747,1.558998 0.814434,2.04258 -0.487189,-1.645609 -0.887147,-3.608797 -1.614311,-4.756394 0.152587,0.469139 0.298168,0.931067 0.443593,1.385776 z m -38.06696,61.847557 c -0.327206,0.599062 -0.610816,1.198124 -1.308895,1.660048 1.243446,-0.0359 1.403425,-0.433055 2.326917,-0.620712 -0.07271,-0.548546 -0.37812,-0.916636 -1.018022,-1.039336 z m 39.564885,-48.08361 c 0.02335,-1.198124 0.632653,-3.067478 0.03503,-4.215075 -0.639893,0.281472 -0.610816,3.54384 -0.03503,4.215075 z M 36.786234,92.19771 c 0.487197,0.555754 3.024993,1.558998 4.064837,1.313607 -1.112556,-0.490805 -3.30132,-1.508483 -4.064837,-1.313607 z M 92.886791,71.12955 c -0.377965,0.779503 -0.734404,1.515698 -1.076207,2.230232 -0.370959,0.700111 -0.719886,1.400219 -1.054371,2.100326 0.458112,-0.736196 0.945302,-1.530129 1.43977,-2.345717 0.450872,-0.837248 0.908985,-1.696135 1.367097,-2.540592 0.930744,-1.674482 1.527041,-3.399487 1.846968,-4.778051 -0.458112,1.032116 -0.879868,1.984837 -1.279787,2.872605 -0.443593,0.880549 -0.85807,1.696136 -1.24347,2.461197 z m 6.413572,-24.092326 c 0.09459,1.017686 0.225377,2.020929 0.283765,3.002516 0.0436,0.988813 0.08719,1.941534 0.130789,2.872605 0.03503,-1.089858 0.06539,-2.186929 0.058,-3.262349 -0.058,-1.07542 -0.145581,-2.136406 -0.247176,-3.168523 -0.058,-0.512451 -0.116386,-1.017682 -0.174385,-1.515695 -0.08019,-0.498012 -0.189177,-0.974374 -0.290772,-1.450733 -0.210976,-0.938287 -0.450873,-1.83327 -0.712645,-2.656076 0.392678,2.064226 0.792597,4.135675 0.95258,6.178255 z"
         style="fill:url(#linearGradient2371);fill-opacity:1;fill-rule:nonzero;stroke:none;stroke-width:0.724456"
         id="path2373" />
      <g id="g2589" transform="matrix(0.3295678,0,0,0.32339868,-521.05763,-253.47186)">
         <g id="g2591" clip-path="url(#clipPath2595)" transform="matrix(0.98470078,0,0,1.0214716,20.468989,-17.450431)">
            <g id="g7796" transform="matrix(3.93999,0,0,3.93999,1593.6897,788.89355)">
               <path
                  d="M 26.1,72.199997 C 27.1,72.5 28.1,72.799995 29.1,73 L 73,29.099998 c -0.199997,-1 -0.5,-2 -0.800003,-3 L 26.099998,72.199997 Z"
                  style="fill:url(#linearGradient2607);fill-opacity:1;fill-rule:nonzero;stroke:none" id="path2609" />
               <path
                  d="m 73.099998,44.299999 c 0.300004,-1.5 0.5,-2.900001 0.599999,-4.400001 L 39.899998,73.699997 c 1.5,-0.1 3,-0.300003 4.400001,-0.599999 z"
                  style="fill:url(#linearGradient2619);fill-opacity:1;fill-rule:nonzero;stroke:none" id="path2621" />
               <path
                  d="m 15.8,67.199997 c 0.8,0.5 1.6,1 2.3,1.5 L 68.699997,18.099998 c -0.5,-0.799999 -1,-1.6 -1.5,-2.3 L 15.799995,67.199997 Z"
                  style="fill:url(#linearGradient2631);fill-opacity:1;fill-rule:nonzero;stroke:none" id="path2633" />
               <path
                  d="m 20.6,70 c 0.9,0.400002 1.700001,0.800003 2.600001,1.199997 l 47.999996,-48 c -0.400002,-0.9 -0.800003,-1.799999 -1.199997,-2.6 L 20.599998,70 Z"
                  style="fill:url(#linearGradient2643);fill-opacity:1;fill-rule:nonzero;stroke:none" id="path2645" />
               <path
                  d="M 0.2,40.599998 40.600002,0.19999695 c -1.2,-0.1 -2.5,-0.200000004738 -3.7,-0.200000004738 L 0,36.899998 c 0,1.2 0.1,2.400001 0.2,3.7 z"
                  style="fill:url(#linearGradient2655);fill-opacity:1;fill-rule:nonzero;stroke:none" id="path2657" />
               <path
                  d="M 32.400002,73.599998 36,73.900002 73.900002,36 c 0,-1.200001 -0.1,-2.400002 -0.300004,-3.599998 l -41.2,41.200004 z"
                  style="fill:url(#linearGradient2667);fill-opacity:1;fill-rule:nonzero;stroke:none" id="path2669" />
               <path
                  d="m 22.4,3 c -4.199999,1.8000002 -8.2,4.4000001 -11.600001,7.8 -3.4000003,3.400001 -5.9999998,7.400001 -7.8,11.600002 L 22.399998,3.0000019 Z"
                  style="fill:url(#linearGradient2679);fill-opacity:1;fill-rule:nonzero;stroke:none" id="path2681" />
               <path
                  d="M 1.1,28.1 C 0.70000005,29.700001 0.40000004,31.200001 0.30000001,32.799999 L 32.799999,0.29999924 c -1.6,0.19999999 -3.1,0.5 -4.700001,0.79999996 L 1.0999985,28.099998 Z"
                  style="fill:url(#linearGradient2691);fill-opacity:1;fill-rule:nonzero;stroke:none" id="path2693" />
               <path
                  d="M 11.5,63.700001 C 12.2,64.300003 12.8,65 13.5,65.5 l 52,-52 c -0.599998,-0.7 -1.199997,-1.3 -1.799999,-2 z"
                  style="fill:url(#linearGradient2703);fill-opacity:1;fill-rule:nonzero;stroke:none" id="path2705" />
               <path
                  d="M 0.69999999,43.900002 C 0.89999998,44.900002 1.1,46 1.4,47 L 47,1.4000015 c -1,-0.2999999 -2,-0.6 -3.099998,-0.69999996 L 0.70000076,43.900002 Z"
                  style="fill:url(#linearGradient2715);fill-opacity:1;fill-rule:nonzero;stroke:none" id="path2717" />
               <path
                  d="m 49.700001,71.599998 c 4.900001,-1.800003 9.5,-4.599998 13.399997,-8.5 3.900002,-3.900001 6.699997,-8.5 8.5,-13.400001 L 49.699997,71.599998 Z"
                  style="fill:url(#linearGradient2727);fill-opacity:1;fill-rule:nonzero;stroke:none" id="path7791" />
               <path
                  d="M 7.9000001,59.700001 C 8.5,60.400002 9.1000004,61.100002 9.6999998,61.799999 L 61.799999,9.7000008 59.700001,7.9000006 7.9000015,59.700001 Z"
                  style="fill:url(#linearGradient2739);fill-opacity:1;fill-rule:nonzero;stroke:none" id="path2741" />
               <path
                  d="m 4.8000002,55.099998 c 0.5,0.8 0.9000001,1.599999 1.5,2.400002 L 57.5,6.2999992 c -0.799999,-0.5 -1.599998,-1 -2.400002,-1.4000001 L 4.7999992,55.099998 Z"
                  style="fill:url(#linearGradient2751);fill-opacity:1;fill-rule:nonzero;stroke:none" id="path2753" />
               <path
                  d="m 2.4000001,49.900002 c 0.2999999,0.900001 0.7,1.799999 1.0999999,2.7 L 52.599998,3.5000038 c -0.900001,-0.4000001 -1.799999,-0.7999999 -2.7,-1.0999999 L 2.3999977,49.900005 Z"
                  style="fill:url(#linearGradient2763);fill-opacity:1;fill-rule:nonzero;stroke:none" id="path2765" />
            </g>
         </g>
      </g>
   </g>
</svg>