<?xml version="1.0" encoding="UTF-8" standalone="no"?>
<svg
   xmlns:dc="http://purl.org/dc/elements/1.1/"
   xmlns:cc="http://creativecommons.org/ns#"
   xmlns:rdf="http://www.w3.org/1999/02/22-rdf-syntax-ns#"
   xmlns:svg="http://www.w3.org/2000/svg"
   xmlns="http://www.w3.org/2000/svg"
   version="1.1"
   id="svg885"
   xml:space="preserve"
   width="100"
   height="100"
   viewBox="0 0 100 100"><metadata
   id="metadata7770"><rdf:RDF><cc:Work
       rdf:about=""><dc:format>image/svg+xml</dc:format><dc:type
         rdf:resource="http://purl.org/dc/dcmitype/StillImage" /><dc:title></dc:title></cc:Work></rdf:RDF></metadata><defs
   id="defs7768"><linearGradient
     x1="-0.39899999"
     y1="68.556999"
     x2="137.05499"
     y2="68.556999"
     gradientUnits="userSpaceOnUse"
     gradientTransform="matrix(-0.02627944,-0.17288941,-0.17121721,0.02653609,-43.896629,-7.7108164)"
     spreadMethod="pad"
     id="linearGradient1279"><stop
       style="stop-opacity:1;stop-color:#6fd6ff"
       offset="0"
       id="stop1275" /><stop
       style="stop-opacity:1;stop-color:#bff0cf"
       offset="1"
       id="stop1277" /></linearGradient></defs>

<g
   id="g4753"
   style="display:inline"
   transform="translate(-7.0472778,-6.9394915)"><path
     d="m 83.994206,92.291353 c -0.50522,1.12237 -2.11475,1.46491 -3.33453,2.49981 -0.43305,0.22593 0.13713,-0.23322 0.95994,-0.82355 0.82281,-0.56847 1.8044,-1.39931 2.37459,-1.67626 z m 0.28869,5.18912 0.31035,0.43 c 0.80115,-0.51746 1.49404,-1.12237 1.30638,-1.45033 -0.41862,0.32798 -0.60627,0.59033 -0.78671,0.85999 -0.166,-0.15305 -0.33201,-0.25507 -0.83003,0.16035 z m 12.61635,-26.25168 c 0.32479,-0.95474 0.58463,-1.85847 0.54854,-2.45609 -0.8661,3.54201 -2.82208,7.62334 -4.07072,10.42197 0.46193,-0.84542 0.93829,-1.68356 1.36412,-2.55084 l 1.1476,-2.66015 c 0.30313,-0.7944 0.69289,-1.80015 1.01046,-2.75489 z m -8.27856,-50.805242 c 0.89498,0.663218 1.64561,1.406599 2.39624,2.084392 0.73619,0.692368 1.46517,1.348297 2.10754,2.018798 1.25586,1.377448 2.4684,2.616418 3.52217,3.862687 0.0218,0.02926 0.0505,0.05829 0.0722,0.08747 0.23097,0.619487 0.35366,1.209831 0.32478,1.756437 0.69289,0.87456 1.227,1.785571 1.77553,2.638285 0.5341,0.867284 1.0682,1.683547 1.522914,2.499814 0.0145,0.02185 0.0218,0.04373 0.029,0.05829 -0.007,0.08747 -0.0218,0.167641 -0.0145,0.269661 0.0577,0.01444 0.12269,0.02926 0.18044,0.04373 0.79393,1.515926 1.56622,2.915234 2.2158,4.27811 0.67846,1.486768 1.41465,2.871508 2.0931,4.248958 0.6568,1.38473 1.38578,2.73302 2.20137,4.11047 -0.51245,-1.4066 -1.1115,-3.06099 -1.75387,-4.84657 -0.75063,-1.72728 -1.44352,-3.607602 -2.28076,-5.429624 -0.25263,-0.524743 -0.4908,-1.056769 -0.7362,-1.588803 0.007,0 0.007,0.0074 0.0145,0.0074 -0.15156,-0.502879 -0.31034,-0.801691 -0.48357,-1.049489 -0.41862,-0.918299 -0.83725,-1.822018 -1.28474,-2.682011 0.76507,0.852705 1.559,1.698123 2.41067,2.536253 -0.85167,-1.224398 -1.85492,-2.66744 -2.937564,-4.219801 -0.22375,-0.276956 -0.44027,-0.568469 -0.66402,-0.859993 0,0 0,-0.0074 0,-0.0074 -0.37532,-0.801692 -0.75785,-1.559653 -1.06098,-2.295747 -0.83724,-0.145755 0.56297,1.078636 0.28147,1.275416 -0.40419,-0.539322 -0.80838,-1.078644 -1.23421,-1.610671 -0.79394,-1.093211 -1.56622,-2.1427 -2.39624,-3.082866 -0.59906,-0.714231 -1.19091,-1.399311 -1.77553,-2.047945 -0.18766,-0.196784 -0.38253,-0.378977 -0.57741,-0.561181 -0.60627,-0.699656 -1.1909,-1.399312 -1.73222,-2.077104 -0.5702,-0.677793 -1.13316,-1.311855 -1.61674,-1.945917 -0.88054,0.08017 0.96715,0.969313 0.57019,1.187956 -1.64561,-1.311855 -3.12522,-2.594559 -4.67701,-3.622177 -0.75785,-0.532038 -1.50847,-1.042198 -2.24467,-1.515923 -0.75063,-0.451869 -1.52291,-0.83813 -2.27354,-1.209822 1.71779,1.377448 3.53662,2.660151 5.09562,3.877262 1.54459,1.238958 2.67775,2.550813 2.93036,3.811654 z M 63.503466,8.9593926 c 0.95272,0.204079 1.84048,0.386272 2.68494,0.568473 0.85168,0.160345 1.65283,0.313395 2.43233,0.459149 0.77229,0.1749374 1.53735,0.3352434 2.30242,0.4664374 -0.83003,-0.247813 -1.72501,-0.5101674 -2.63442,-0.7871164 -0.92386,-0.218631 -1.87658,-0.43729 -2.80043,-0.655917 -1.85492,-0.459157 -3.68097,-0.590336 -5.08841,-0.539326 1.11873,0.174936 2.14363,0.335243 3.10357,0.4883 z M 102.93317,74.311653 c 0.30313,-0.96932 0.79395,-2.10626 1.19812,-3.2432 0.39698,-1.13694 0.60628,-2.29575 0.56298,-3.20676 -0.28147,1.04948 -0.62793,2.36863 -1.07542,3.53472 -0.42584,1.18067 -0.75063,2.25202 -0.68568,2.91524 z M 44.102571,8.5512616 c 0.938286,-0.298804 1.854919,-0.597632 2.735467,-0.881868 -1.068205,0.247813 -2.12919,0.510167 -3.168522,0.794403 -1.024898,0.342539 -2.028145,0.699664 -2.995305,1.071349 -0.483574,0.189488 -0.952721,0.378977 -1.421864,0.5684694 -0.454709,0.204079 -0.894983,0.437294 -1.320823,0.663217 -0.851675,0.451862 -1.652828,0.918299 -2.381804,1.384736 1.891008,-0.925595 3.789238,-1.858469 5.723553,-2.5362534 0.95994,-0.35713 1.89823,-0.750674 2.829298,-1.064053 z M 32.041973,14.323423 c 0.75063,-0.459149 1.37856,-0.896435 1.761093,-1.326438 -1.465172,0.896436 -3.255134,1.800159 -4.17899,2.805914 0.411405,-0.262365 0.822807,-0.53203 1.226992,-0.787116 0.411406,-0.240479 0.815592,-0.473717 1.190905,-0.69236 z m 52.313113,58.69095 c -0.22376,0.27696 -0.55575,0.77254 -0.90942,1.36287 -0.35366,0.59762 -0.8228,1.23168 -1.18368,1.91677 0.10103,0.18949 0.17322,0.50287 0.14434,0.10202 0.27426,-0.67779 0.99603,-1.28999 1.21978,-1.52321 -0.39697,0.53932 -0.87333,1.10779 -0.41141,1.28999 0.007,-0.16035 0.0578,-0.2988 0.12269,-0.43728 0.0218,0.0437 0.0359,0.0802 0.0794,0.1239 0.15157,0.0293 0.49802,-0.32794 0.75785,-0.75067 0.23819,-0.42999 0.4114,-0.90372 0.31757,-1.02033 -0.0722,0.18219 -0.23098,0.35713 -0.41141,0.53203 0.0505,-0.1312 0.0433,-0.25507 -0.065,-0.37168 -0.0505,0.15305 -0.17322,0.33524 -0.30313,0.51745 1.1115,-2.00422 1.08985,-2.29575 0.64236,-1.74185 z m 4.81414,-0.84542 c 0.36088,-0.80898 1.09707,-1.69083 0.52688,-2.24473 -0.332,0.93288 -0.64237,1.69813 -0.52688,2.24473 z m -26.06995,34.363317 c 0.51245,-0.14575 0.99602,-0.2988 1.40743,-0.43728 -0.51967,0.15304 -1.06099,0.27695 -1.60231,0.33524 -0.54131,0.0437 -1.08263,0.0583 -1.58786,0.0729 -1.01769,0.0293 -1.90545,0.051 -2.49007,0.28426 0.60627,0.21137 1.61674,0.18219 2.68495,0.0363 0.52687,-0.0729 1.06819,-0.1749 1.58786,-0.29151 z m 29.05081,-30.063347 c 0.065,0.10932 0.54132,-0.50288 0.93829,-2.23744 -0.37532,0.64864 -0.60628,1.18795 -0.75785,1.57422 -0.15878,0.37168 -0.21654,0.6122 -0.18044,0.66322 z m -7.77335,10.71349 c 0.64237,-0.93288 1.56622,-1.94593 1.67449,-2.79863 -0.48358,0.60491 -1.26308,1.33372 -1.81883,1.85846 -0.55576,0.53203 -0.89498,0.87457 -0.56297,0.64135 0.87332,-0.93287 0.12268,0.22593 0.70731,0.29881 z m 6.22878,-8.10436 c -1.03211,0.7361 -1.19812,2.17914 -2.33128,3.43998 1.1043,-0.0656 1.75388,-2.90795 2.33128,-3.43998 z m -57.538642,20.07139 c -0.245414,0.0875 -0.728976,0.051 -0.671238,-0.21138 -0.664015,-0.45915 -2.836513,-1.71269 -3.139654,-2.06252 -0.793933,-0.51017 -1.573436,-1.01305 -2.324062,-1.52321 -1.342473,-0.98389 -2.728253,-1.85118 -4.034637,-2.71846 0.555755,0.15305 1.089859,0.22593 1.847704,0.7361 -0.606277,-0.6122 -1.183685,-1.20253 -1.746658,-1.79287 -0.433055,-0.40813 -0.858895,-0.81627 -1.270296,-1.23169 -1.19812,-1.31185 -2.374585,-2.58727 -3.471659,-3.85539 -1.046552,-1.30457 -2.165279,-2.49982 -3.197396,-3.68048 0.498012,0.2915 0.996029,0.50287 1.595086,1.19524 -0.04331,-0.0802 -0.08659,-0.15305 -0.129907,-0.23322 -2.208586,-3.08286 -3.868629,-6.27504 -5.110056,-9.80977 -0.346444,0.1822 -0.01451,1.01305 0.368101,1.87304 -0.02903,0.53203 -0.339225,-0.2915 -0.692888,-1.26812 -0.368101,-0.96203 -0.642365,-2.12813 -0.923852,-2.17186 0.425836,0.0802 0.440274,-0.57575 0.230976,-1.65439 -0.115469,-0.50288 -0.245414,-1.11508 -0.382533,-1.78558 -0.6423691,-2.35405 -1.0682041,-4.72268 -1.2630801,-7.18605 -0.259814,0.0583 -0.288691,0.51016 -0.230976,1.08592 0.02903,0.19679 0.05054,0.38628 0.07941,0.59034 0.01452,0.0729 0.02177,0.14575 0.0359,0.22593 -0.101068,0.3061 -0.173222,0.10202 -0.230975,-0.33525 -0.346444,-0.44457 -0.173222,-2.18642 -0.649585,-3.62217 -0.303129,0.35713 -0.223756,1.34829 -0.382532,1.93863 -0.830022,-2.09897 0.793938,-2.82778 0.562974,-5.34946 -0.238195,0.24052 -0.339225,0.80169 -0.360883,1.51592 -0.180441,-0.24777 -0.180441,-0.88185 -0.526881,-0.76524 0.115469,-2.84965 0.490797,-5.71386 1.111508,-8.54893 -0.05053,0.11662 -0.10103,0.22593 -0.151564,0.3207 -0.122688,-1.02763 0.18766,-1.63983 0.591842,-2.24474 0.158784,-0.61948 0.346444,-1.23169 0.526882,-1.84388 -0.01452,-0.23323 -0.03591,-0.45186 -0.259814,-0.44458 2.0642331,-6.683169 5.6297231,-13.060242 10.4222041,-18.489866 1.234208,-1.392031 2.547811,-2.718461 3.933591,-3.979294 0.902198,-0.874569 1.82605,-1.727282 2.785991,-2.550829 0.252633,-0.145754 0.526885,-0.32069 0.793933,-0.488304 0.505235,-0.82355 2.490073,-1.771004 3.529405,-2.594558 -0.07937,0.145754 -0.230975,0.306099 -0.41862,0.459149 2.208582,-1.450329 4.525429,-2.754896 6.950541,-3.899122 0.281472,-0.07288 0.591843,-0.174936 0.887764,-0.262365 0.649584,-0.612199 2.533373,-0.998468 3.774803,-1.464897 -0.84446,0.211336 -1.645613,0.269661 -1.847707,0.01444 0.952724,-0.874569 2.923124,-0.772537 4.085159,-1.0640694 -0.245414,0.3571304 -1.125947,0.7506744 -2.013711,0.9984684 -0.606277,0.539318 -2.432327,0.889148 -3.673754,1.428466 0.10825,-0.03628 0.202099,-0.05829 0.310348,-0.09476 0.54132,-0.145754 1.118728,-0.306099 1.71779,-0.466437 1.198119,-0.3061 2.45398,-0.772537 3.832541,-1.049485 1.371345,-0.291509 2.785991,-0.677785 4.258381,-0.8818644 1.472391,-0.189489 2.959213,-0.429999 4.438823,-0.488304 1.176466,-0.07288 2.352935,-0.09476 3.529393,-0.07288 0.007,0 0.0218,0 0.029,0 0.0433,0 0.0866,0 0.12269,0 0.15157,0 0.31035,0 0.46193,0.0074 5.08118,0.02185 10.19124,0.7215304 15.09199,2.3467654 10.15515,3.286926 19.4514,9.940948 25.55028,19.437322 -0.17323,-0.01444 -0.35367,-0.109316 -0.55576,-0.306099 1.44352,2.106254 2.72825,4.336408 3.825334,6.683172 0.38253,0.670505 0.76506,1.341006 1.14038,1.996935 0.27426,0.50288 0.55576,0.99118 0.79394,1.501343 0.22376,0.510163 0.44027,1.027623 0.64237,1.545073 -0.41862,-0.34983 -0.7723,-1.05677 -1.16204,-1.81473 -0.0577,-0.10202 -0.10825,-0.204079 -0.166,-0.306099 0.31035,0.808975 0.60627,1.617949 0.87333,2.448789 -0.25982,-0.0948 -0.49802,-0.35713 -0.6929,-0.99118 0.007,0.0437 0.0218,0.0875 0.0359,0.13121 0.10103,0.2915 0.20932,0.58304 0.30313,0.88914 0.28869,0.86728 0.58462,1.75643 0.87333,2.61642 0.23819,0.87457 0.43306,1.72728 0.59906,2.48524 -0.31756,-0.80898 -0.59185,-1.7127 -0.92385,-2.66744 0.31757,1.16609 0.66402,2.30304 1.03934,3.43269 0.29591,1.12965 0.59185,2.24473 0.88054,3.33794 0.12991,0.5539 0.28147,1.1005 0.37532,1.65439 0.0866,0.5539 0.16601,1.10779 0.22376,1.6544 -0.31757,-0.45187 -0.47636,-1.21712 -0.6568,-2.06253 -0.20932,-0.83813 -0.39697,-1.75644 -0.64237,-2.5071 0.0577,1.17338 0.33922,2.8715 0.42584,4.7008 0.0577,0.91102 0.11547,1.85118 0.17322,2.7549 0.007,0.90372 -0.0218,1.7783 -0.0577,2.55812 -0.13713,-1.17338 -0.15157,-2.49981 -0.30313,-3.93557 -0.14435,-1.42846 -0.13713,-2.96625 -0.38974,-4.51861 -0.46915,1.2244 -0.68568,3.0027 -0.8156,4.76641 -0.0359,0.43729 -0.0722,0.88186 -0.10825,1.31186 -0.0722,0.42999 -0.13712,0.84542 -0.2021,1.24626 -0.14434,0.80169 -0.31756,1.51592 -0.55576,2.0771 0.12991,-0.3061 -0.0794,-0.40084 -0.35366,-0.2915 0.0359,0.91829 -0.32479,2.45608 -0.36088,3.43997 -0.26703,-0.56847 0.0939,-2.1427 0.21654,-3.35981 -0.23098,0.14576 -0.47637,0.41542 -0.60627,0.83813 -0.029,0.0729 -0.0505,0.13846 -0.0722,0.20408 -0.007,-0.0948 -0.0433,-0.17489 -0.10824,-0.21863 0.15878,0.10932 -1.08264,1.50135 -0.9022,0.25507 -0.346454,1.51592 -0.779504,2.91524 -1.227004,4.22709 -0.51244,1.28999 -1.10428,2.48524 -1.68169,3.63675 0.27425,-1.28999 1.34969,-3.3598 1.78996,-5.48792 0.56298,-2.09897 0.56298,-4.1615 -0.46192,-4.93403 -0.64959,0.75067 -1.24143,1.51592 -1.76831,2.55811 -0.58462,1.03491 -0.97437,2.38321 -1.33525,4.29997 -0.34645,0.0948 -0.75063,-0.0144 -1.01769,0.40085 -0.27425,-0.10932 0.54132,-1.20982 0.47637,-2.1427 -0.0578,-0.33524 -0.34645,-0.39355 -0.18766,-0.99118 -0.0938,0.0219 -0.18044,0.0802 -0.25985,0.13846 -0.0722,0.67051 -0.18045,1.5888 -0.2021,2.23745 -0.31757,0.0437 -0.27426,-0.3134 -0.21654,-0.68508 -0.38975,1.08592 -0.5341,1.90947 -0.75063,2.7476 -0.18766,0.84542 -0.32479,1.74185 -0.69289,2.94439 -0.29591,-0.26966 -0.48357,0.28425 -0.68566,0.72152 0.24537,-1.1005 0.58461,-2.67473 1.14037,-4.25624 0.28148,-0.78711 0.46193,-1.62524 0.72177,-2.39778 0.10103,-0.34254 0.21653,-0.67779 0.332,-1.00576 -0.23097,0.27696 -0.44027,0.6122 -0.68567,0.86 -0.15157,-0.68508 1.54456,-2.41236 0.10103,-2.74032 -0.50523,-0.0293 -0.51967,1.18067 -0.69289,2.00422 -0.37532,-0.11661 -0.24541,-0.80169 -0.10103,-1.52321 -0.54132,0.0729 -0.93107,0.34984 -1.20534,0.29151 -0.0722,0.51017 -0.2021,0.97661 -0.29591,1.14423 -0.12991,-0.0802 -0.11547,-0.31339 -0.28869,-0.34983 -0.77228,3.59302 -0.28869,-0.11661 0.23098,-1.31186 0,-0.007 -0.007,-0.0144 -0.007,-0.0293 -0.60627,0.65593 -0.87332,1.04948 -1.09707,1.46491 -0.20931,0.41542 -0.41862,0.84542 -0.93107,1.50134 -0.12991,-0.24051 0.0218,-0.6705 0.2021,-1.12236 0.15878,-0.45915 0.37532,-0.93288 0.46914,-1.2244 -0.12268,-0.3061 -0.25263,-0.60492 -0.38974,-0.88915 -0.62794,0.40085 -0.16601,2.1427 -0.59185,2.33219 -0.23819,-0.0802 -0.47637,-0.15305 -0.58462,0.13846 -0.15157,-0.66322 0.79393,-1.57423 0.87333,-2.78405 -0.24542,0.0219 -0.50524,1.02762 -0.34645,-0.051 -0.39697,0.2988 -0.35366,1.56694 -0.69289,1.99693 -0.065,-0.60491 -0.0218,-1.89489 0.11547,-2.85692 -0.44027,-0.23322 -0.42583,0.47373 -0.64236,0.68508 -0.12269,0.53932 0.007,0.81626 0.39696,0.83813 -0.66401,0.81626 -1.25585,0.87457 -1.58065,1.73456 -0.57019,0.3134 -0.065,-1.12236 -0.45471,-0.35713 -0.28869,-0.42999 -0.11547,-1.45761 0.11547,-2.5071 0.0578,-0.26236 0.10825,-0.52474 0.15879,-0.77982 0.029,-0.25507 0.0433,-0.50288 0.0505,-0.7361 0.007,-0.34254 -0.007,-0.63406 -0.0794,-0.8527 -0.0577,0.88185 -0.15878,1.75643 -0.28869,2.63828 -0.0145,0.0948 -0.029,0.19679 -0.0433,0.29151 -0.0433,0.26966 -0.0938,0.53203 -0.14434,0.80169 -0.0505,0.26966 -0.10103,0.53932 -0.15157,0.80898 -0.0218,0.0947 -0.0433,0.18219 -0.065,0.27695 -0.44027,1.97508 -1.06821,3.87726 -1.86936,5.68471 -0.0218,0.0437 -0.0433,0.0875 -0.0577,0.1312 -0.18044,0.40084 -0.3681,0.80169 -0.56297,1.18796 -0.065,0.1312 -0.12991,0.25507 -0.19488,0.37898 -0.15156,0.2988 -0.31035,0.59762 -0.47636,0.88914 -0.11547,0.20408 -0.23098,0.40085 -0.35366,0.60492 -0.12269,0.20408 -0.24538,0.41542 -0.36811,0.61948 -0.0433,0.0729 -0.0866,0.14575 -0.1299,0.21137 0.0722,0.051 0.24537,-0.15305 0.51245,-0.66321 0.21653,0.58305 -0.87333,1.44304 -1.18369,1.80016 0.84446,0.77982 1.09707,-0.9766 1.66727,-1.21711 -0.21654,1.21711 -1.393,2.05524 -1.66006,3.04642 0.27425,-0.22593 0.93829,-1.02762 1.56622,-1.93863 -0.21654,0.53203 -0.35367,1.21711 -0.57019,1.87304 -0.0505,0.15305 -0.10825,0.3061 -0.18044,0.44457 0.38253,-0.40814 0.76506,-0.78712 1.00325,-1.08593 0.007,0.0875 -0.0145,0.1749 -0.029,0.26237 0.029,-0.0144 0.0505,-0.0437 0.0794,-0.0583 -0.0359,1.38474 -1.85493,2.17185 -2.31685,3.7971 0.48358,0.13845 0.48358,-1.1005 1.14038,-1.09322 -0.20932,-0.13846 0.15878,-0.6122 0.65681,-1.1005 0.50522,-0.4883 1.06098,-1.07864 1.38577,-1.31185 -0.75785,1.39931 -1.559,2.29574 -2.30242,3.27963 -0.36088,0.50288 -0.7795,0.96932 -1.2342,1.48678 -0.44028,0.53203 -0.92385,1.11507 -1.47961,1.78558 1.36413,-1.31915 2.80042,-1.88033 4.40273,-3.64405 -1.26308,0.47373 0.35366,-0.69237 0.83724,-0.73609 -0.15878,-0.42271 0.24542,-1.07135 0.80115,-1.78558 0.13713,0.10202 -0.0794,0.35713 -0.166,0.55389 2.28076,-2.28846 3.76759,-5.8086 5.35546,-9.94824 -0.13713,0.72881 -0.31035,1.45033 -0.49803,2.16457 -0.21653,0.70694 -0.51244,1.37744 -0.78671,2.04795 -0.0866,0.22593 -0.18766,0.43728 -0.28147,0.64864 0.26707,-0.45186 0.5341,-0.82356 0.70011,-0.86 0.20932,-0.40813 0.0218,-0.51745 0.14434,-0.85999 0.24538,-0.14575 0.16601,0.43728 -0.029,1.12237 -0.18766,0.68507 -0.59907,1.41388 -0.78671,1.61066 -0.10103,-0.10932 -0.029,-0.33524 -0.18766,-0.40813 -0.88055,1.72727 -0.89499,1.56694 -0.59907,0.88915 -0.30313,0.53931 -0.62071,1.05677 -0.92385,1.57422 -0.32479,0.58305 -0.71454,1.1005 -1.07542,1.61796 -0.15878,0.3061 -0.31035,0.6122 -0.48358,0.91101 -0.38975,0.61948 -0.84446,1.19524 -1.28473,1.771 -0.25263,0.34984 -0.51967,0.6705 -0.80115,0.98389 -0.11547,0.18949 -0.23098,0.37168 -0.33201,0.56119 0.72898,-0.71424 1.40743,-1.37745 2.02093,-2.05524 0.2021,-0.37898 0.4908,-0.7944 0.8228,-1.27542 0.0433,0.0656 0.0578,0.1312 0.0722,0.19678 0.007,-0.007 0.0145,-0.0144 0.0218,-0.0293 0.41862,-0.53931 0.8228,-1.06405 1.22699,-1.5888 0.3681,-0.55389 0.70732,-1.12965 1.0682,-1.71269 1.42909,-2.33219 2.68495,-5.11624 3.76758,-9.19757 0.007,0.90373 -0.20931,1.85846 -0.50522,2.84236 -0.28147,0.98389 -0.6135,2.01151 -1.08264,2.98082 -0.81559,1.99694 -1.89823,3.8554 -2.51894,5.64827 -0.21654,0.16764 -0.24541,0.0656 -0.34644,-0.0293 -0.0433,0.0656 -0.0794,0.13846 -0.12269,0.20408 -0.52689,0.88185 -1.10429,1.77829 -1.81163,2.59456 -0.31756,0.42271 -0.64958,0.83084 -0.9888,1.23168 0.3681,-0.21863 0.76506,-0.35713 0.59184,-0.53203 0.69289,-0.53932 0.20932,0.64864 -0.15157,1.01305 0.40419,0.007 1.05377,-0.41542 0.54132,0.45914 0.37532,0.19679 0.89498,-0.46643 1.32082,-0.48101 0.0794,-0.25507 0.18044,-0.4883 0.41863,-0.83084 l 0.69289,-1.01304 c 0.43304,-0.80169 0.9455,-1.69813 1.54455,-2.58727 0.47637,-0.68508 0.85891,-1.45033 1.31361,-2.12813 0.42584,-0.69965 0.9022,-1.33371 1.26308,-1.92405 0.166,-0.16034 -0.68567,1.79287 -1.03212,2.92981 -0.0794,-0.007 -0.12991,-0.0363 -0.15878,-0.0802 -0.46193,1.31914 -1.31361,2.51439 -2.61277,4.29268 -0.0433,0.0656 -0.0722,0.13121 -0.11547,0.19679 -0.007,-0.007 -0.0145,-0.007 -0.0145,-0.0144 -0.0359,0.051 -0.065,0.0948 -0.10825,0.14576 0.029,-0.0583 0.0505,-0.10932 0.0794,-0.16764 -0.15879,-0.16765 -0.35367,0.0144 -0.56298,0.26966 -0.62793,1.54507 -1.41465,2.64557 -2.20858,3.82624 -0.44749,0.56119 -0.90942,1.13694 -1.40742,1.77101 -0.49802,0.64135 -1.01769,1.36287 -1.67448,2.12812 -1.1476,-0.051 -1.99207,2.12083 -3.68098,2.9954 0.24541,-0.14575 1.16204,-0.40813 2.0065,-0.85271 0.41862,-0.24777 0.81557,-0.53202 1.10429,-0.84541 -0.18766,0.0875 -0.3681,0.1312 -0.54855,0.10202 0.3681,-0.24052 0.67846,-0.51017 0.95272,-0.78712 0.0218,-0.0947 0.0359,-0.18219 0.029,-0.27696 0.16601,-0.0875 0.24542,-0.0875 0.28873,-0.051 0.62071,-0.6705 1.11151,-1.31914 1.86214,-1.59609 -0.43306,0.22593 -1.11151,1.28999 -1.82605,2.0188 0,0.0144 0.007,0.0293 0.007,0.0363 0.62071,-0.72152 0.70732,-0.86728 1.34968,-0.90372 0.31757,-0.40085 -0.4114,-0.0437 -0.007,-0.48831 0.51966,-0.19678 1.00324,-0.36442 2.0931,-1.20982 0.20931,-0.21137 0.42584,-0.40813 0.62793,-0.62677 -0.15157,-0.14576 -0.38975,0.0437 -0.64958,0.27695 1.3136,-1.26813 2.54059,-2.67472 3.69541,-4.19065 -0.13712,0.0802 -0.27425,0.0948 -0.38975,-0.0144 0.47636,-0.58305 0.8661,-1.23169 1.27751,-1.86575 0.007,0.15305 -0.14435,0.69965 -0.3681,1.18796 2.41067,-3.31608 4.44603,-7.17877 6.01225,-11.61721 0.51967,0.007 -0.67124,1.66897 -0.166,1.69083 0.72897,-0.93287 1.20534,-3.46184 1.58065,-5.07979 -0.55575,-0.44457 -0.50523,1.2244 -0.76506,1.86575 -0.43306,0.74338 0.31034,-2.70388 0.62071,-2.90795 0.33923,0.56118 0.20932,1.7127 -0.0794,3.00998 -0.3681,1.27542 -0.90941,2.6893 -1.24142,3.87726 -0.0794,-0.21863 -0.15879,-0.42999 -0.39697,-0.49559 -0.0938,0.3134 -0.20932,0.62678 -0.33923,0.93288 0.3681,0.14575 0.40419,-0.0656 0.56297,0.94745 -0.0505,0.25507 -0.19488,0.39355 -0.35366,0.48101 -0.0577,0.15305 -0.11547,0.3061 -0.18766,0.46644 -0.332,0.76525 -0.89498,1.58151 -1.07542,2.17184 0.0145,-0.53931 0.15156,-0.94016 0.33922,-1.33371 -0.17322,0.0293 -0.31035,-0.0583 -0.67124,0.52474 0.12269,0.64135 -0.27425,1.66168 -0.85167,2.79133 -0.68567,1.13695 -1.57343,2.36135 -2.19415,3.41812 -0.0145,-0.14576 -0.0359,-0.28425 -0.0938,-0.40085 -0.18044,0.24778 -0.36088,0.49559 -0.54132,0.74339 0.15878,0.0948 0.19488,0.16764 0.11547,0.94016 -0.39697,0.80898 -1.52292,0.0219 -0.96715,0.94745 -0.67846,0.67051 -0.71455,0.37898 -0.98159,0.43 -0.75786,0.96932 -1.43631,1.87304 -1.91989,2.59456 -0.0145,-0.10202 -0.0505,-0.15305 -0.0938,-0.1749 -0.65681,0.69966 -1.47962,1.50135 -2.44676,2.25202 -0.54854,0.44458 -1.1043,0.89644 -1.66727,1.3483 -0.007,0.007 -0.0145,0.0144 -0.0218,0.0144 0.18044,0.0437 0.40418,0.10202 0.13712,0.48102 0.2021,0.11661 0.4114,-0.0219 0.60628,-0.22593 -0.029,0.0144 -0.0577,0.0363 -0.0939,0.0656 0.0577,-0.36439 0.31035,-0.54661 0.6135,-0.69237 0.12268,-0.1312 0.22375,-0.20408 0.30313,-0.1312 0.34644,-0.13846 0.71454,-0.28425 0.98159,-0.57576 0.065,0.4883 -0.48358,0.63407 -0.89498,0.75796 0,0.007 0.007,0.007 0.007,0.0144 -0.166,0.13846 -0.28151,0.25507 -0.38253,0.35713 0.029,0.0293 0.0578,0.0656 0.10825,0.10931 -0.10825,0.0729 -0.18766,0.0802 -0.26703,0.0656 -0.31757,0.38627 -0.24538,0.53931 -0.54854,0.80898 -0.48358,0.19678 -0.83725,0.10202 -1.06099,-0.28426 -0.85889,0.58305 -0.97437,0.96932 -1.04655,1.4066 0.92385,-1.2827 0.23819,0.3061 1.46517,-0.83813 0.0505,0.20408 -0.44749,0.51746 -0.32479,0.69966 0.8589,-0.23322 2.20137,-1.61067 3.13966,-2.09168 -1.11873,1.0422 -2.54059,2.41964 -3.86141,3.39624 -1.29195,1.01305 -2.28798,1.9022 -2.35294,2.21558 0.065,0.43729 -1.74666,0.6122 -0.48358,-0.13846 -0.51967,0.16035 -2.23024,1.80745 -3.87585,2.3905 0.50523,0.0437 1.11873,-0.10202 0.61349,0.51016 1.50848,-0.45915 1.05377,-0.51745 2.14363,-1.27541 -0.10103,0.21137 -0.19488,0.42999 -0.0722,0.64135 0.95272,-0.71423 0.45471,-0.75067 1.58065,-0.85271 -3.5727,2.200987 -8.34352,4.154197 -13.32367,5.276557 -2.42518,0.63407 -4.97299,0.88186 -7.40532,1.07864 -1.21255,0.0363 -2.410667,0.051 -3.558268,0.051 -1.154812,0.0219 -2.251886,-0.13846 -3.305656,-0.21138 -0.368102,0.26966 -0.801153,-0.0948 -1.320823,-0.36438 -0.461924,-0.0583 -0.909414,-0.1312 -1.364122,-0.20408 -0.07941,0.16764 0.461924,0.53932 -0.562974,0.27696 -0.346444,-0.20408 -0.894983,-0.41543 -1.559002,-0.63407 -0.108249,-0.0219 -0.216537,-0.0363 -0.324786,-0.0583 -1.183685,-0.28425 -2.338501,-0.58305 -3.450009,-0.88186 -1.118724,-0.27695 -2.143625,-0.72152 -3.13965,-1.07135 -0.461928,0.1822 -0.801153,-0.38627 -1.29195,-0.80168 -0.37532,-0.15305 -0.757849,-0.3061 -1.133162,-0.466437 -0.180441,0.10931 0.324787,0.677787 -0.627931,0.13845 -0.310348,-0.32069 -0.851675,-0.70694 -1.522913,-1.13694 -0.173222,-0.0875 -0.353663,-0.16764 -0.519666,-0.26236 -0.837241,-0.43729 -1.645609,-0.85271 -2.389024,-1.26813 -0.714545,-0.45186 -1.371345,-0.88186 -1.948753,-1.26813 1.934315,1.48677 3.883068,2.57999 5.774076,3.69506 1.970403,0.954737 3.897502,1.967787 6.084431,2.638287 -3.016951,-0.61949 -5.810156,-1.85846 -8.401271,-3.243197 z m 61.638242,-24.31305 c 0.0505,-0.10932 0.10103,-0.22593 0.15156,-0.34254 -0.19488,0.0656 -0.30313,0.1312 -0.15156,0.34254 z m -13.77117,10.01383 c -0.065,0.0656 -0.13713,0.1312 -0.2021,0.20408 0.12269,0.0363 0.2382,0.0293 0.36088,0.007 -0.0722,-0.0293 -0.0866,-0.1239 -0.15878,-0.21133 z M 11.031561,43.308143 c 0.129907,-0.43 0.252595,-0.83813 0.332005,-1.20254 -0.151564,0.36442 -0.28869,0.71423 -0.425839,1.06406 0.02903,0.0875 0.05775,0.13846 0.09385,0.13846 z m 66.495685,48.90304 c -0.38253,0.37169 -0.86611,0.7361 -1.32082,1.1005 0.0218,0.0293 0.029,0.051 0.065,0.0802 0.75785,-0.38628 1.6384,-0.92559 1.4363,-1.31186 -0.0505,0.0363 -0.11546,0.0875 -0.18044,0.1312 z m -5.16058,3.22863 c 0.14434,-0.11662 0.26707,-0.24052 0.35366,-0.37898 -0.23097,0.10931 -0.48358,0.21863 -0.80837,0.31339 0.12269,0.0583 0.28147,0.0729 0.45471,0.0656 z m 0.70732,-0.22593 c 0.0218,-0.0144 0.0433,-0.0218 0.0722,-0.0293 0.23098,-0.16035 0.40418,-0.26966 0.55576,-0.35713 0.0359,-0.0293 0.0794,-0.051 0.11547,-0.0875 0.67845,-0.53931 1.29916,-1.21711 1.63117,-1.51592 -1.20533,0.51017 -1.52291,1.09321 -2.28797,1.58881 0.007,0.10202 -0.10103,0.27695 -0.0866,0.40084 z m 4.92962,-0.34983 c 0.63515,-0.40814 1.08264,-0.74339 0.6568,-0.65593 -0.57741,0.47372 -1.14759,0.67779 -1.60231,0.85271 -0.44749,0.18948 -0.77949,0.37897 -0.92385,0.81626 0.34645,-0.21863 1.21256,-0.63406 1.86936,-1.01304 z m 1.41465,-0.0875 1.98483,-1.34101 -0.20931,-0.29151 c -0.56298,0.55389 -2.36738,1.20982 -1.77554,1.63253 z m 14.06708,-17.66632 c -0.0218,-0.0293 -0.0433,-0.0293 -0.065,-0.051 -0.11547,0.31339 -0.28147,0.68508 -0.50523,1.10779 -0.46914,0.91101 -1.12594,2.04795 -1.9704,3.16303 0.87333,-0.91101 1.84048,-2.90066 2.54059,-4.21981 z m -9.82314,5.15997 c -0.0218,-0.0656 -0.0145,-0.13121 -0.007,-0.18949 -0.84445,0.98388 -1.67448,1.93134 -2.32406,2.90065 0.34645,-0.16764 0.70011,-0.53203 1.07542,-0.96931 0.28869,-0.34984 0.62071,-0.72881 0.93107,-1.13694 0.31035,-0.40814 0.64237,-0.81627 1.01768,-1.15881 -0.18766,-0.10202 -0.44749,0.3061 -0.69289,0.5539 z m 3.03139,-4.94133 c -0.0433,0.13846 -0.12991,0.3134 -0.23819,0.51746 0.11546,-0.16764 0.23097,-0.34254 0.34644,-0.51746 -0.0359,0 -0.065,-0.007 -0.10825,0 z m -5.0451,0.59763 c -0.23819,0.21863 -0.47636,0.44457 -0.70732,0.69236 0.28147,-0.0656 0.4908,-0.34983 0.70732,-0.69236 z m -0.89498,0.66321 c -0.0145,0.007 -0.0218,0.0219 -0.0359,0.0293 0.007,0 0.0145,0 0.0218,0 0,-0.007 0.007,-0.0219 0.0145,-0.0293 z M 42.536354,11.881922 c -0.916633,0.291509 -1.645609,0.583049 -1.566218,0.612192 0.0073,0 0.01451,0 0.02177,0 0.664016,-0.25507 1.176466,-0.451866 1.544564,-0.612192 z m -10.775868,4.482166 c -0.230976,0.08017 -0.721757,0.364425 -1.342473,0.808976 0.649585,-0.378977 1.089855,-0.64135 1.356911,-0.816263 -0.0073,0.0074 -0.0073,0.0074 -0.01451,0.0074 z m -4.676998,2.244729 c 0.05053,-0.03628 0.10103,-0.05829 0.151564,-0.09472 0.317568,-0.233223 0.649585,-0.45915 0.96716,-0.685088 -0.396971,0.25507 -0.786718,0.517455 -1.118728,0.779824 z M 8.2166979,59.917683 c 0.216537,-0.15305 0.332005,-0.71423 0.389751,-1.52321 0.02903,-0.68508 0.07219,-1.55236 0.122688,-2.51438 -0.0073,-0.25507 -0.02903,-0.4883 -0.07219,-0.6705 0.0359,0.0947 0.07219,0.14575 0.10103,0.19678 0.02177,-0.40085 0.05053,-0.80898 0.07941,-1.2244 -0.259814,0.0875 -0.07219,-1.52321 0.288691,-3.68777 0.09385,-0.48101 0.216537,-0.99118 0.339225,-1.51592 0.151564,-0.91101 0.368101,-1.70541 0.5990611,-2.35406 0.04331,-0.18219 0.09381,-0.36438 0.137126,-0.5466 0.02177,-0.0802 0.04331,-0.16035 0.07219,-0.24052 -0.4330591,0.40084 0.324787,-1.26084 0.555754,-2.3832 -0.209317,0.53932 -0.41862,1.07135 -0.60628,1.58151 -0.3320061,0.93287 -0.5557551,1.84388 -0.8011531,2.71846 -0.216537,0.84542 -0.440271,1.66897 -0.599058,2.47066 -0.02903,0.21863 -0.05775,0.42271 -0.08659,0.64864 -0.0073,0 -0.0073,-0.007 -0.01452,-0.0144 -0.101068,0.64135 -0.202098,1.27542 -0.281471,1.90948 -0.09385,0.81627 -0.216537,1.62525 -0.252633,2.45609 -0.02177,0.83084 -0.0359,1.66897 -0.02903,2.54354 -0.02177,0.69236 0.0073,1.41388 0.05775,2.14998 z M 33.745324,100.67265 c -0.736192,-0.28425 -2.057011,-1.399307 -2.396239,-1.136937 0.447489,0.3061 0.411401,0.568467 0.815587,0.874567 0.09385,-0.510167 1.320819,0.53932 1.580652,0.26237 z M 94.741206,72.066923 c 0.10825,-0.54661 0.10825,-1.16609 0.065,-1.31915 -0.23098,0.72153 -0.44027,1.45034 -0.75785,2.13541 0.32479,0.16764 0.58463,-0.26966 0.69289,-0.81626 z m 3.13965,-9.70044 c 0.0794,0.91101 -0.0505,1.57422 -0.18044,2.17184 -0.15157,0.59763 -0.26703,1.12966 -0.0938,1.84389 0.0218,-0.6122 0.35366,-1.54507 0.47636,-2.37592 0.12991,-0.83083 0.16601,-1.53778 -0.20209,-1.63981 z m -12.71018,9.72959 c 0.34644,-1.32643 1.71057,-2.38321 1.37134,-3.31608 -0.36088,0.85271 -1.45795,2.37592 -1.37134,3.31608 z m 2.14362,-5.76488 c -0.0505,0.66322 -0.98881,1.99694 -0.28147,2.07711 -0.18044,-0.87457 0.82281,-1.71999 0.28147,-2.07711 z m 9.74375,19.69241 c 0.54132,-0.86 1.30639,-1.82931 1.99206,-2.82049 0.67123,-0.99118 1.176474,-2.05524 1.364134,-2.95167 -0.541324,0.94016 -1.212554,2.12812 -1.948754,3.13387 -0.70733,1.03491 -1.29196,1.98236 -1.40744,2.63829 z m -23.11073,17.571567 c -0.12269,-0.18949 -0.25263,-0.32795 -0.83724,-0.0583 l 0.18766,0.49559 c 0.90941,-0.29151 1.73222,-0.69237 1.63839,-1.06406 -0.4908,0.20408 -0.74342,0.41542 -0.98881,0.62678 z m 24.27276,-26.907607 c 0.33201,-1.09321 1.29195,-2.82048 1.27753,-3.62946 0.46913,-1.23169 0.808364,-2.37592 0.642364,-2.8132 -0.245384,0.7944 -0.678464,1.96778 -1.089864,3.12659 -0.41862,1.15151 -0.93829,2.25201 -1.11873,3.02455 0.18766,-0.41542 0.46193,-0.94016 0.75063,-1.51592 0.10103,-0.18949 0.19488,-0.39356 0.29591,-0.59034 -0.40418,0.94017 -0.84446,1.90948 -0.75785,2.39778 z m -10.63873,6.69046 c -0.52689,0.53203 -0.88777,0.99118 -1.13316,1.31915 -0.25981,0.32069 -0.3681,0.53203 -0.34644,0.59762 0.029,0.12391 0.64237,-0.34254 1.47961,-1.91677 z m -1.00324,4.86845 c 1.16203,-1.43576 2.69216,-3.25778 4.10681,-5.18183 -0.10825,0.007 -0.20932,0.0218 -0.33922,0.20408 -0.0794,-0.85271 1.05377,-1.0422 1.4796,-1.85118 0,0.007 0,0.0144 0.007,0.0219 0.4908,-0.73609 0.95995,-1.47219 1.35691,-2.201 -0.12269,0.58305 -0.59907,1.39202 -1.16204,2.23015 -0.0577,0.0875 -0.11546,0.16764 -0.17322,0.25507 -0.029,0.12391 -0.11547,0.24052 -0.22375,0.33524 -0.4475,0.64865 -0.90943,1.27542 -1.29196,1.80745 l -1.78996,2.2666 c -0.62793,0.72881 -1.30639,1.41388 -1.9704,2.11354 z m 4.28725,-5.42234 c 0.10825,-0.15305 0.21653,-0.3061 0.32478,-0.45915 -0.27425,0.16764 -0.48357,0.3061 -0.32478,0.45915 z M 52.272885,105.46821 c -0.707322,-0.0144 -1.024897,-0.0729 -1.010463,-0.18219 0.490794,0.0802 1.010463,0.15305 1.551783,0.23322 -0.05775,0.051 -0.129907,0.0875 -0.180441,0.15305 1.29195,0.051 2.728252,0.18219 4.243942,0.16035 1.5157,0.0144 3.118,0.0656 4.69144,-0.0948 1.58065,-0.11661 3.1613,-0.24777 4.5976,-0.59762 1.44352,-0.32069 2.80765,-0.61949 3.90472,-1.13694 -1.11872,0.18219 -2.30241,0.37898 -3.50053,0.56847 0.83725,-0.1749 1.71779,-0.37168 2.61999,-0.62678 1.47239,-0.38627 3.02417,-0.75067 4.511,-1.31914 1.49404,-0.52474 2.98808,-1.07135 4.28725,-1.77829 1.3136,-0.68508 2.5478,-1.333717 3.47887,-2.120827 -4.04185,1.836587 -8.85598,4.095897 -12.91949,4.795547 0.25985,-0.11661 0.70011,-0.21133 0.6568,-0.38627 -0.54853,0.45186 -1.48682,0.68508 -2.34571,0.83084 -0.78672,0.14576 -1.47239,0.32799 -1.73223,0.80898 -0.26703,0.0363 -0.5341,0.0729 -0.80115,0.10932 0.10825,-0.0293 0.21654,-0.0656 0.31757,-0.0948 -1.06099,0.25507 -1.26308,0.19679 -0.78671,-0.21137 -1.01047,0.32799 -2.21581,0.45186 -3.49332,0.59034 -0.63515,0.0656 -1.29195,0.11661 -1.95597,0.16034 -0.166,0.007 -0.33923,0.007 -0.50523,0.007 -0.52689,-0.007 -1.04655,-0.0363 -1.55178,-0.0802 0.28147,-0.0437 0.72898,-0.0219 0.73619,-0.19678 -0.64958,0.29151 -1.61674,0.27695 -2.482853,0.18949 -0.389751,-0.0293 -0.757849,-0.0437 -1.07542,-0.0144 -0.29591,-0.0144 -0.613496,-0.0219 -0.894983,-0.051 -0.396967,-0.0363 -0.779503,-0.0656 -1.154812,-0.0948 0.02177,-0.0144 0.04332,-0.0219 0.07219,-0.0363 -0.209318,0.007 -0.433051,0 -0.649585,-0.007 -0.158783,-0.007 -0.310348,-0.0144 -0.461924,-0.0293 -0.765064,-0.0583 -1.573436,-0.18219 -2.410677,-0.31339 -0.635146,-0.10202 -1.277515,-0.22593 -1.927096,-0.35713 -0.649584,-0.1312 -1.28473,-0.34254 -1.91988,-0.51746 -0.0073,0 -0.01452,-0.007 -0.02177,-0.007 0.144345,-0.0293 0.29591,-0.0875 0.368101,-0.16034 -1.429083,-0.33525 -2.822078,-0.83813 -4.229508,-1.28999 -0.880548,0.0729 2.533373,0.95473 3.471663,1.28999 0,0.0218 0.02903,0.0293 0.0359,0.051 -1.133162,-0.33524 -2.25189,-0.64135 -3.240699,-1.01304 -1.10429,-0.40813 -2.107537,-0.76525 -2.944778,-0.99847 0.851675,0.40085 1.934315,0.88915 3.13965,1.4066 1.219773,0.47373 2.591118,0.88915 3.96246,1.30457 0.685668,0.21863 1.37856,0.37898 2.078667,0.49559 0.692888,0.1312 1.371342,0.24778 2.020923,0.34254 0.649584,0.0875 1.270296,0.18949 1.847707,0.21138 0.591839,0.0363 1.125939,0.0293 1.602302,0.007 z M 95.405226,81.366513 c -0.44028,0.70695 -1.16204,1.72728 -1.85493,2.73304 -0.7001,1.00575 -1.4796,1.93134 -1.85492,2.63099 0.28869,-0.34983 0.68567,-0.78711 1.11151,-1.26812 0.44028,-0.47373 0.88055,-0.99847 1.25586,-1.54508 0.77229,-1.06406 1.393,-2.08439 1.34248,-2.55083 z M 48.714615,106.59786 c 0.534101,0.0656 1.08264,0.11662 1.609521,0.13846 0.534104,-0.007 1.039332,-0.0293 1.472391,-0.051 -0.54132,0.0144 -1.097074,-0.0144 -1.631175,-0.10202 -0.534104,-0.10202 -1.060985,-0.22592 -1.559002,-0.34253 -0.988809,-0.23323 -1.854919,-0.44458 -2.475634,-0.37898 0.5341,0.37168 1.51569,0.60491 2.583899,0.7361 z M 101.20096,62.665293 c -0.43306,1.25355 0.0505,0.46644 0,0 z m -77.726269,30.74114 c -0.642365,-0.46644 -1.623959,-1.88761 -2.020926,-1.72728 0.353663,0.41542 0.245414,0.65593 0.562974,1.05678 0.223756,-0.45916 1.140377,0.87457 1.457952,0.6705 z m 62.699225,-25.70508 c -0.166,0.75797 -0.98159,1.93135 -0.72897,2.41236 0.52688,-0.76525 0.8228,-1.52321 0.72897,-2.41236 z M 42.630184,9.9141336 c 0.461924,-0.123906 0.909413,-0.247813 1.328038,-0.357129 0.837241,-0.247813 1.558998,-0.502876 2.042579,-0.816259 -1.645609,0.488296 -3.608797,0.889148 -4.756393,1.6179544 0.469139,-0.153049 0.931067,-0.298804 1.385776,-0.4445664 z M 104.47774,48.067253 c 0.59906,0.32795 1.19812,0.6122 1.66005,1.31186 -0.0359,-1.24626 -0.43306,-1.4066 -0.62072,-2.33218 -0.54854,0.0729 -0.91663,0.37897 -1.03933,1.02032 z M 56.394126,8.4127866 c -1.19812,-0.02185 -3.067474,-0.634062 -4.215071,-0.03628 0.281472,0.64135 3.543841,0.612203 4.215071,0.03628 z m 42.85086,61.6571964 c 0.55575,-0.4883 1.558994,-3.03184 1.313604,-4.07404 -0.4908,1.11508 -1.508484,3.3088 -1.313604,4.07404 z M 78.176826,13.842411 c 0.7795,0.378976 1.5157,0.736098 2.23023,1.078636 0.70011,0.37172 1.40022,0.721519 2.10033,1.056773 -0.7362,-0.459149 -1.53013,-0.947453 -2.34572,-1.443041 -0.83725,-0.451862 -1.69614,-0.911019 -2.54059,-1.370161 -1.67448,-0.932874 -3.39949,-1.530498 -4.77805,-1.851165 1.03211,0.45915 1.98483,0.881864 2.8726,1.282696 0.88055,0.44457 1.69614,0.859993 2.4612,1.246262 z M 54.084501,7.4143196 c 1.017686,-0.09472 2.020925,-0.225927 3.002515,-0.284252 0.98881,-0.04373 1.94154,-0.08747 2.87261,-0.131163 -1.08986,-0.03628 -2.18693,-0.06558 -3.26235,-0.05829 -1.07542,0.05829 -2.136409,0.145755 -3.168525,0.247775 -0.512451,0.05829 -1.017683,0.116611 -1.515695,0.174897 -0.498012,0.08017 -0.974375,0.189489 -1.450733,0.291509 -0.938287,0.211375 -1.83327,0.451861 -2.656076,0.714231 2.064226,-0.393548 4.135674,-0.7944 6.178254,-0.954737 z"
     style="fill:url(#linearGradient1279);fill-opacity:1;fill-rule:nonzero;stroke:none;stroke-width:0.725275"
     id="path1281" /><path
     d="m 72.601346,29.089513 c -9.22215,-0.973811 -15.69825,4.071241 -18.718913,13.07021 -2.917677,8.70565 -8.283916,11.01699 -13.535739,12.65957 -8.867454,2.75718 -13.684485,11.3807 -10.995644,20.48526 2.196841,7.42679 9.233596,11.08739 16.430537,11.08739 1.613306,0 3.260935,-0.24637 4.885681,-0.75089 28.032598,-8.72912 33.890838,-26.05829 35.035028,-37.49766 0.94967,-9.456543 -3.8788,-18.080065 -13.10095,-19.05388 z m -11.65927,15.73353 c -0.0344,0.15255 -0.92679,3.71926 -3.62708,7.53239 -2.505766,3.54326 -7.1054,8.00169 -14.794341,9.04589 -0.06864,0.0117 -0.125858,0.0117 -0.183077,0.0117 -0.686513,0 -1.281488,-0.51624 -1.384466,-1.24367 -0.102978,-0.78609 0.434793,-1.50178 1.201397,-1.60737 12.849226,-1.7599 16.052957,-14.31388 16.087277,-14.44294 0.18308,-0.76262 0.93823,-1.23193 1.6934,-1.0442 0.74372,0.19943 1.20139,0.97381 1.00689,1.74817 z"
     style="fill:#f47920;fill-opacity:1;fill-rule:nonzero;stroke:none;stroke-width:0.115864"
     id="path1387" /></g></svg>
