<?xml version="1.0" encoding="UTF-8" standalone="no"?>
<svg xmlns:dc="http://purl.org/dc/elements/1.1/" xmlns:cc="http://creativecommons.org/ns#"
     xmlns:rdf="http://www.w3.org/1999/02/22-rdf-syntax-ns#" xmlns:svg="http://www.w3.org/2000/svg"
     xmlns="http://www.w3.org/2000/svg" xmlns:xlink="http://www.w3.org/1999/xlink" version="1.1" id="svg885"
     xml:space="preserve" width="100" height="100" viewBox="0 0 100 100">
     <metadata id="metadata4468">
          <rdf:RDF>
               <cc:Work rdf:about="">
                    <dc:format>image/svg+xml</dc:format>
                    <dc:type rdf:resource="http://purl.org/dc/dcmitype/StillImage" />
                    <dc:title></dc:title>
               </cc:Work>
          </rdf:RDF>
     </metadata>
     <defs id="defs4460">
          <linearGradient x1="-0.39899999" y1="68.556999" x2="137.05499" y2="68.556999" gradientUnits="userSpaceOnUse"
               gradientTransform="matrix(-0.02627956,-0.17288928,-0.17121802,0.02653608,-52.659762,-188.72434)"
               spreadMethod="pad" id="linearGradient1237">
               <stop style="stop-opacity:1;stop-color:#6fd6ff" offset="0" id="stop1233" />
               <stop style="stop-opacity:1;stop-color:#bff0cf" offset="1" id="stop1235" />
          </linearGradient>
     </defs>
     <g id="g4749" style="display:inline" transform="translate(-7.0472769,-6.9394941)">
          <path d="m 83.994208,92.291341 c -0.50522,1.12236 -2.11476,1.4649 -3.33454,2.49981 -0.43306,0.22593 0.13712,-0.23323 0.95994,-0.82355 0.82281,-0.56847 1.80441,-1.39931 2.3746,-1.67626 z m 0.2887,5.18911 0.31037,0.43 c 0.80116,-0.51745 1.49405,-1.12236 1.30639,-1.45033 -0.41863,0.32797 -0.60628,0.59033 -0.78671,0.85999 -0.166,-0.15305 -0.332,-0.25508 -0.83003,0.16036 z m 12.61641,-26.25166 c 0.32479,-0.95474 0.58463,-1.85846 0.54855,-2.456083 -0.86611,3.542013 -2.8221,7.623333 -4.07075,10.421953 0.46193,-0.84542 0.9383,-1.68355 1.36413,-2.55083 l 1.14761,-2.66015 c 0.30316,-0.7944 0.69289,-1.80015 1.01046,-2.75489 z m -8.27861,-50.805203 c 0.89499,0.663215 1.64562,1.406601 2.39625,2.084391 0.7362,0.692369 1.46518,1.348296 2.10755,2.018797 1.25587,1.377447 2.46842,2.616415 3.52219,3.862683 0.0218,0.02912 0.0505,0.05832 0.0722,0.08743 0.23095,0.619488 0.35366,1.20983 0.32478,1.756434 0.6929,0.874564 1.227,1.785575 1.77554,2.638285 0.53411,0.867281 1.0682,1.683545 1.522922,2.499812 0.0144,0.02194 0.0218,0.04372 0.0288,0.05832 -0.007,0.08748 -0.0218,0.167612 -0.0144,0.269648 0.0577,0.01477 0.1227,0.02912 0.18045,0.04372 0.79394,1.51592 1.56623,2.915229 2.21581,4.278104 0.67847,1.48677 1.41466,2.871504 2.09312,4.24895 0.6568,1.384738 1.38578,2.733029 2.20137,4.110479 -0.51245,-1.406601 -1.11151,-3.060994 -1.75387,-4.846574 -0.75063,-1.727279 -1.44353,-3.607598 -2.28077,-5.429621 -0.25262,-0.52474 -0.4908,-1.056768 -0.73621,-1.5888 0.007,0 0.007,0.0072 0.0144,0.0072 -0.15158,-0.502877 -0.31037,-0.801684 -0.48359,-1.049485 -0.41862,-0.918299 -0.83725,-1.822014 -1.28473,-2.682007 0.76507,0.852706 1.559,1.69812 2.41068,2.53625 -0.85168,-1.224397 -1.85494,-2.667436 -2.937582,-4.219799 -0.22374,-0.276947 -0.44027,-0.56847 -0.66402,-0.859993 0,0 0,-0.0072 0,-0.0072 -0.37533,-0.801688 -0.75785,-1.55965 -1.06099,-2.295745 -0.83724,-0.145753 0.56297,1.078636 0.28149,1.275415 -0.4042,-0.53932 -0.80838,-1.078644 -1.23421,-1.610664 -0.79394,-1.093215 -1.56623,-2.142704 -2.39626,-3.082866 -0.59906,-0.714232 -1.1909,-1.399313 -1.77553,-2.047944 -0.18766,-0.196771 -0.38254,-0.378983 -0.57741,-0.561183 -0.60628,-0.699656 -1.19091,-1.399309 -1.73223,-2.077102 -0.5702,-0.67779 -1.13317,-1.311854 -1.61675,-1.945917 -0.88055,0.08018 0.96716,0.969317 0.57019,1.187959 -1.64562,-1.311858 -3.12523,-2.59456 -4.67703,-3.622178 -0.75785,-0.532036 -1.50847,-1.042193 -2.24468,-1.51592 -0.75063,-0.451868 -1.52292,-0.83813 -2.27355,-1.209822 1.71779,1.377446 3.53663,2.660149 5.09564,3.877258 1.5446,1.23896 2.67776,2.550813 2.93038,3.811653 z M 63.503368,8.9594395 c 0.95273,0.204071 1.8405,0.386283 2.68496,0.56847 0.85168,0.160354 1.65284,0.313365 2.43234,0.459147 0.77229,0.1749125 1.53736,0.3352655 2.30243,0.4664395 -0.83003,-0.247789 -1.72501,-0.5101645 -2.63444,-0.7871125 -0.92385,-0.21863 -1.87658,-0.437293 -2.80043,-0.655918 -1.85493,-0.45916 -3.680992,-0.590338 -5.088435,-0.539328 1.118732,0.174912 2.143632,0.335265 3.103575,0.488302 z M 102.93327,74.311651 c 0.30312,-0.96932 0.79394,-2.10626 1.19812,-3.2432 0.39699,-1.13694 0.60628,-2.295747 0.56298,-3.206754 -0.2815,1.04948 -0.62793,2.368624 -1.07543,3.534714 -0.42584,1.18067 -0.75063,2.25202 -0.68567,2.91524 z M 44.102386,8.5513055 c 0.938289,-0.298806 1.854929,-0.59763 2.735482,-0.881865 -1.068208,0.247789 -2.129203,0.510165 -3.16854,0.7944 -1.024901,0.342524 -2.028152,0.699666 -2.995316,1.071348 -0.483578,0.189471 -0.952726,0.378984 -1.421871,0.5684705 -0.454712,0.204071 -0.894987,0.437293 -1.320828,0.663218 -0.851683,0.45186 -1.652838,0.918295 -2.381819,1.384734 1.89102,-0.925595 3.789258,-1.858469 5.723581,-2.5362495 0.959944,-0.357124 1.898237,-0.750674 2.829311,-1.064056 z M 32.041731,14.323466 c 0.750635,-0.459151 1.378568,-0.896436 1.761102,-1.326437 -1.465179,0.896432 -3.255152,1.800156 -4.179008,2.80591 0.411408,-0.262389 0.822808,-0.532032 1.226996,-0.787112 0.411409,-0.240489 0.815592,-0.473719 1.19091,-0.692361 z m 52.313367,58.690905 c -0.22375,0.27695 -0.55576,0.77254 -0.90943,1.36287 -0.35366,0.59762 -0.82281,1.23168 -1.18369,1.91677 0.10104,0.18947 0.17321,0.50287 0.14433,0.10203 0.27429,-0.67779 0.99604,-1.28999 1.21978,-1.52321 -0.39699,0.53932 -0.87333,1.10779 -0.4114,1.28999 0.007,-0.16035 0.0577,-0.2988 0.1227,-0.43728 0.0218,0.0437 0.0362,0.0802 0.0794,0.12389 0.15158,0.0291 0.49802,-0.32796 0.75785,-0.75067 0.2382,-0.43 0.41141,-0.90372 0.31757,-1.02033 -0.0722,0.18221 -0.23095,0.35712 -0.4114,0.53203 0.0505,-0.1312 0.0433,-0.25509 -0.065,-0.37169 -0.0505,0.15306 -0.17321,0.33527 -0.30312,0.51746 1.11151,-2.00423 1.08985,-2.29575 0.64236,-1.74185 z m 4.81415,-0.84542 c 0.36087,-0.80898 1.09708,-1.69083 0.52689,-2.24473 -0.33199,0.93288 -0.64237,1.69813 -0.52689,2.24473 z m -26.07007,34.363299 c 0.51245,-0.14576 0.99603,-0.29881 1.40744,-0.43729 -0.51967,0.15305 -1.06099,0.27695 -1.602312,0.33527 -0.541323,0.0437 -1.082645,0.0583 -1.587877,0.0729 -1.017688,0.0291 -1.905454,0.051 -2.490079,0.28425 0.606279,0.21137 1.616746,0.18221 2.684958,0.0363 0.526882,-0.0729 1.0682,-0.17491 1.58787,-0.2915 z m 29.05095,-30.063329 c 0.065,0.10933 0.54132,-0.50288 0.9383,-2.23744 -0.37533,0.64864 -0.60629,1.18796 -0.75786,1.57422 -0.15878,0.37169 -0.21653,0.6122 -0.18045,0.66322 z m -7.77338,10.71347 c 0.64237,-0.93287 1.56622,-1.94591 1.67449,-2.79862 -0.48359,0.60491 -1.26309,1.33372 -1.81884,1.85846 -0.55575,0.53203 -0.89498,0.87457 -0.56297,0.64135 0.87332,-0.93287 0.1227,0.22593 0.70732,0.29881 z m 6.22881,-8.10434 c -1.03212,0.7361 -1.19813,2.17914 -2.33129,3.43998 1.10429,-0.0656 1.75388,-2.90795 2.33129,-3.43998 z m -57.538923,20.07137 c -0.245411,0.0874 -0.728977,0.051 -0.671241,-0.21137 -0.66402,-0.45915 -2.836526,-1.7127 -3.139666,-2.06252 -0.793938,-0.51017 -1.573444,-1.01305 -2.324074,-1.52322 -1.342482,-0.98388 -2.728263,-1.85117 -4.034653,-2.71845 0.555755,0.15305 1.089861,0.22593 1.847709,0.7361 -0.60628,-0.6122 -1.183689,-1.20254 -1.746665,-1.79287 -0.433058,-0.40815 -0.858896,-0.81627 -1.270304,-1.23169 -1.198122,-1.31185 -2.374598,-2.58727 -3.471676,-3.85539 -1.046555,-1.30457 -2.165286,-2.49981 -3.197407,-3.68048 0.498015,0.29155 0.99603,0.50288 1.595093,1.19524 -0.04329,-0.0802 -0.08662,-0.15305 -0.129914,-0.23323 -2.208594,-3.08285 -3.868648,-6.27503 -5.110077,-9.80975 -0.346452,0.18221 -0.01442,1.01304 0.368117,1.87303 -0.02883,0.53204 -0.339243,-0.2915 -0.69289,-1.26812 -0.368118,-0.96203 -0.642371,-2.12812 -0.923857,-2.17185 0.425842,0.0802 0.440275,-0.57576 0.230954,-1.65439 -0.115498,-0.50288 -0.245412,-1.11508 -0.382534,-1.785583 -0.6423661,-2.35405 -1.0682081,-4.722676 -1.2630831,-7.186046 -0.259828,0.05832 -0.288703,0.510165 -0.230954,1.085924 0.02883,0.19677 0.0505,0.386283 0.07937,0.590337 0.01442,0.07288 0.02183,0.145753 0.03625,0.22593 -0.10104,0.306107 -0.173205,0.102036 -0.230954,-0.335266 -0.346451,-0.444572 -0.173205,-2.186421 -0.649587,-3.622173 -0.303119,0.357124 -0.223745,1.348296 -0.382534,1.938629 -0.830025,-2.098966 0.793938,-2.827773 0.562976,-5.349448 -0.238203,0.240488 -0.339243,0.801688 -0.360868,1.51592 -0.180454,-0.247788 -0.180454,-0.881856 -0.526889,-0.76525 0.115498,-2.84964 0.490799,-5.713851 1.111515,-8.548912 -0.05054,0.116594 -0.101039,0.22593 -0.15158,0.320665 -0.122706,-1.027622 0.187663,-1.639818 0.591842,-2.244731 0.158789,-0.619489 0.346452,-1.231689 0.52689,-1.843886 -0.01442,-0.23323 -0.03625,-0.451859 -0.259828,-0.444572 2.0642421,-6.683168 5.6297501,-13.060238 10.4222541,-18.489854 1.234213,-1.392034 2.547824,-2.718463 3.933609,-3.979294 0.902203,-0.874569 1.826059,-1.727283 2.786002,-2.550825 0.25262,-0.145753 0.526886,-0.320665 0.793939,-0.488302 0.505235,-0.823556 2.490083,-1.771005 3.529421,-2.594556 -0.07941,0.145753 -0.230954,0.306107 -0.418621,0.459147 2.208593,-1.450327 4.525451,-2.754892 6.950574,-3.899121 0.281494,-0.07288 0.591846,-0.174912 0.887769,-0.262389 0.649587,-0.612201 2.533383,-0.998467 3.774817,-1.464898 -0.844463,0.211372 -1.645617,0.269647 -1.847713,0.01477 0.952726,-0.874569 2.923137,-0.772534 4.085176,-1.0640645 -0.245411,0.3571235 -1.125952,0.7506695 -2.013718,0.9984665 -0.606279,0.539316 -2.432339,0.889144 -3.673772,1.428464 0.108248,-0.03629 0.202079,-0.05832 0.310368,-0.09474 0.541323,-0.145753 1.118732,-0.306107 1.717799,-0.466435 1.198126,-0.306107 2.453993,-0.772537 3.832561,-1.049485 1.371348,-0.291506 2.786003,-0.677781 4.258399,-0.8818645 1.472399,-0.18947 2.959228,-0.429997 4.438844,-0.488302 1.176468,-0.07288 2.352945,-0.09474 3.529417,-0.07288 0.0074,0 0.02183,0 0.02883,0 0.04329,0 0.08662,0 0.122706,0 0.15158,0 0.310369,0 0.461928,0.0072 5.081211,0.02194 10.191293,0.7215235 15.092063,2.3467585 10.15521,3.286924 19.45151,9.940942 25.5504,19.437308 -0.1732,-0.01477 -0.35366,-0.109336 -0.55575,-0.306107 1.44352,2.106254 2.72826,4.336406 3.825342,6.683169 0.38253,0.670501 0.76507,1.341003 1.14039,1.996934 0.27429,0.502877 0.55576,0.99118 0.79394,1.50134 0.22375,0.510166 0.44028,1.027623 0.64237,1.545075 -0.41862,-0.349824 -0.77229,-1.056768 -1.16204,-1.81473 -0.0577,-0.102036 -0.10825,-0.204071 -0.16599,-0.306107 0.31036,0.80898 0.60627,1.617956 0.87333,2.448798 -0.25983,-0.09474 -0.49802,-0.357124 -0.6929,-0.991179 0.007,0.04372 0.0218,0.08743 0.0362,0.131194 0.10104,0.291506 0.20929,0.583046 0.30312,0.889144 0.2887,0.867286 0.58462,1.75643 0.87333,2.616419 0.23821,0.874569 0.43307,1.727279 0.59907,2.485237 -0.31757,-0.808976 -0.59185,-1.712695 -0.92385,-2.667441 0.31757,1.166092 0.66402,2.303037 1.03933,3.432686 0.29592,1.129654 0.59186,2.244732 0.88055,3.337943 0.12992,0.553895 0.2815,1.100502 0.37533,1.654389 0.0866,0.5539 0.166,1.107786 0.22375,1.654394 -0.31758,-0.451864 -0.47637,-1.21711 -0.65681,-2.062528 -0.20929,-0.83813 -0.39695,-1.756429 -0.64236,-2.507103 0.0577,1.173383 0.33924,2.871507 0.42583,4.700809 0.0577,0.911011 0.1155,1.851173 0.17325,2.754896 0.007,0.903719 -0.0218,1.778292 -0.0577,2.558113 -0.13712,-1.173379 -0.15158,-2.499807 -0.30312,-3.935559 -0.14433,-1.428464 -0.13712,-2.966251 -0.38974,-4.518609 -0.46915,1.224397 -0.68568,3.002689 -0.8156,4.766406 -0.0362,0.437284 -0.0722,0.881856 -0.10825,1.311857 -0.0722,0.429993 -0.13712,0.845418 -0.20208,1.24626 -0.14433,0.801688 -0.31758,1.51592 -0.55575,2.077099 0.12991,-0.306107 -0.0794,-0.400842 -0.35366,-0.291506 0.0362,0.918299 -0.32479,2.456082 -0.36087,3.439974 -0.26704,-0.568467 0.0938,-2.142692 0.21654,-3.359806 -0.23096,0.145753 -0.47637,0.415401 -0.60628,0.838131 -0.0288,0.07288 -0.0505,0.138452 -0.0722,0.204071 -0.007,-0.09474 -0.0433,-0.174912 -0.10824,-0.21863 0.15878,0.109336 -1.08265,1.501345 -0.90221,0.255089 -0.346452,1.51592 -0.779502,2.915234 -1.226992,4.227087 -0.51246,1.28999 -1.1043,2.485239 -1.68171,3.636749 0.27429,-1.28999 1.34969,-3.359806 1.78997,-5.487922 0.56298,-2.098966 0.56298,-4.161494 -0.46193,-4.934027 -0.64958,0.75067 -1.24143,1.51592 -1.76831,2.558113 -0.58463,1.03491 -0.97438,2.383205 -1.33526,4.299967 -0.34645,0.09474 -0.75063,-0.01477 -1.01769,0.400842 -0.27425,-0.109336 0.54132,-1.209822 0.47637,-2.142696 -0.0577,-0.335265 -0.34646,-0.393541 -0.18767,-0.991179 -0.0938,0.02194 -0.18045,0.08018 -0.25983,0.138495 -0.0722,0.670501 -0.18045,1.5888 -0.20208,2.237439 -0.31757,0.04372 -0.27428,-0.313407 -0.21653,-0.685077 -0.38974,1.085923 -0.5341,1.909474 -0.75064,2.747605 -0.18766,0.84542 -0.32478,1.74186 -0.69289,2.94439 -0.29591,-0.26965 -0.48357,0.28424 -0.68567,0.72152 0.24541,-1.1005 0.58462,-2.67473 1.14039,-4.256239 0.28149,-0.787117 0.46193,-1.625244 0.72176,-2.397781 0.10104,-0.342524 0.21654,-0.677794 0.332,-1.005755 -0.23096,0.276948 -0.44028,0.612196 -0.68568,0.859993 -0.15158,-0.685077 1.54458,-2.412355 0.10104,-2.740317 -0.50523,-0.02912 -0.51967,1.180667 -0.69289,2.004223 -0.37533,-0.116594 -0.24541,-0.801688 -0.10104,-1.523208 -0.54132,0.07288 -0.93108,0.349824 -1.20534,0.291506 -0.0722,0.510165 -0.20208,0.9766 -0.29592,1.144229 -0.12991,-0.08018 -0.11549,-0.313407 -0.2887,-0.349824 -0.77229,3.593022 -0.2887,-0.116594 0.23096,-1.311854 0,-0.0072 -0.007,-0.01477 -0.007,-0.02912 -0.60627,0.65593 -0.87332,1.049485 -1.09707,1.464906 -0.20933,0.4154 -0.41862,0.845414 -0.93108,1.501345 -0.12991,-0.240531 0.0218,-0.670502 0.20208,-1.122366 0.15879,-0.459152 0.37533,-0.932874 0.46915,-1.224397 -0.12271,-0.306107 -0.25262,-0.604913 -0.38974,-0.889148 -0.62795,0.400842 -0.166,2.142696 -0.59185,2.332187 -0.2382,-0.08018 -0.47637,-0.153053 -0.58463,0.138453 -0.15158,-0.663219 0.79394,-1.574226 0.87333,-2.784047 -0.24541,0.02194 -0.50523,1.027618 -0.34645,-0.05102 -0.39699,0.298806 -0.35366,1.566938 -0.69289,1.996934 -0.065,-0.604913 -0.0218,-1.894899 0.11549,-2.856923 -0.44027,-0.23323 -0.42583,0.473722 -0.64236,0.685077 -0.12271,0.53932 0.007,0.816263 0.39695,0.83813 -0.66401,0.816264 -1.25586,0.874569 -1.58066,1.734562 -0.57019,0.313407 -0.065,-1.122365 -0.45471,-0.357124 -0.2887,-0.429997 -0.1155,-1.457614 0.1155,-2.507099 0.0577,-0.26239 0.10825,-0.524741 0.15879,-0.779821 0.0288,-0.255089 0.0433,-0.502878 0.0505,-0.736095 0.007,-0.342524 -0.007,-0.634064 -0.0794,-0.85271 -0.0577,0.881856 -0.15879,1.756429 -0.2887,2.638285 -0.0144,0.09474 -0.0288,0.196771 -0.0433,0.291506 -0.0433,0.269648 -0.0938,0.532033 -0.14433,0.801688 -0.0505,0.269648 -0.10104,0.53932 -0.15158,0.808976 -0.0218,0.09474 -0.0433,0.182213 -0.065,0.276948 -0.44027,1.975067 -1.06822,3.877258 -1.86937,5.6847 -0.0218,0.0437 -0.0433,0.0875 -0.0577,0.13119 -0.18046,0.40085 -0.36812,0.80169 -0.56298,1.18796 -0.0649,0.13119 -0.12991,0.25509 -0.19487,0.37898 -0.15158,0.29881 -0.31037,0.59762 -0.47636,0.88915 -0.1155,0.20407 -0.23095,0.40084 -0.35366,0.60491 -0.1227,0.20407 -0.24537,0.4154 -0.36812,0.61948 -0.0433,0.0729 -0.0866,0.14576 -0.12991,0.21137 0.0722,0.051 0.24541,-0.15305 0.51245,-0.66321 0.21653,0.58304 -0.87333,1.44303 -1.18369,1.80015 0.84446,0.77983 1.09707,-0.9766 1.66727,-1.2171 -0.21654,1.2171 -1.393,2.05524 -1.66006,3.04641 0.27428,-0.22593 0.9383,-1.02762 1.56622,-1.93862 -0.21653,0.53202 -0.35366,1.21711 -0.57019,1.87303 -0.0505,0.15305 -0.10825,0.3061 -0.18045,0.44457 0.38253,-0.40814 0.76507,-0.78711 1.00325,-1.08592 0.007,0.0874 -0.0144,0.17491 -0.0288,0.26239 0.0288,-0.0148 0.0505,-0.0437 0.0794,-0.0583 -0.0362,1.38474 -1.85493,2.17185 -2.31686,3.79709 0.48358,0.13845 0.48358,-1.1005 1.14039,-1.09321 -0.20933,-0.13846 0.15879,-0.6122 0.65681,-1.1005 0.50523,-0.4883 1.06099,-1.07864 1.38578,-1.31186 -0.75786,1.39931 -1.55901,2.29575 -2.30243,3.27964 -0.36087,0.50287 -0.7795,0.96931 -1.23421,1.48677 -0.44028,0.53203 -0.92385,1.11507 -1.47962,1.78558 1.36414,-1.31914 2.80045,-1.88033 4.40276,-3.64404 -1.26309,0.47372 0.35365,-0.69237 0.83724,-0.73609 -0.15879,-0.42272 0.24541,-1.07136 0.80116,-1.78558 0.13712,0.10203 -0.0794,0.35712 -0.166,0.55389 2.28077,-2.28846 3.76761,-5.8086 5.35548,-9.948232 -0.13712,0.728808 -0.31037,1.450332 -0.49802,2.164562 -0.21654,0.70694 -0.51244,1.37745 -0.78671,2.04795 -0.0866,0.22593 -0.18767,0.43728 -0.2815,0.64864 0.26704,-0.45186 0.5341,-0.82355 0.70011,-0.86 0.20933,-0.40814 0.0218,-0.51745 0.14437,-0.85999 0.24537,-0.14575 0.166,0.43728 -0.0288,1.12237 -0.18766,0.68507 -0.59907,1.41388 -0.78672,1.61066 -0.10104,-0.10934 -0.0288,-0.33527 -0.18767,-0.40814 -0.88055,1.72727 -0.89498,1.56693 -0.59906,0.88914 -0.30316,0.53932 -0.62072,1.05678 -0.92386,1.57423 -0.32478,0.58305 -0.71454,1.1005 -1.07542,1.61795 -0.15879,0.30611 -0.31037,0.6122 -0.48358,0.91101 -0.38974,0.61949 -0.84446,1.19525 -1.28474,1.77101 -0.25262,0.34982 -0.51967,0.6705 -0.80116,0.98389 -0.1155,0.18947 -0.23095,0.37168 -0.33199,0.56118 0.72898,-0.71423 1.40743,-1.37745 2.02094,-2.05524 0.20208,-0.37898 0.4908,-0.7944 0.8228,-1.27541 0.0433,0.0656 0.0577,0.13119 0.0722,0.19677 0.007,-0.007 0.0144,-0.0148 0.0218,-0.0291 0.41862,-0.53931 0.82281,-1.06405 1.22699,-1.5888 0.36812,-0.55389 0.70733,-1.12965 1.06821,-1.71269 1.4291,-2.33219 2.68496,-5.11624 3.7676,-9.197558 0.007,0.90372 -0.20933,1.858457 -0.50522,2.842349 -0.2815,0.983889 -0.6135,2.011509 -1.08265,2.980829 -0.81559,1.99693 -1.89823,3.85539 -2.51895,5.64826 -0.21654,0.16761 -0.24541,0.0656 -0.34645,-0.0291 -0.0433,0.0656 -0.0794,0.13845 -0.12271,0.20407 -0.52689,0.88186 -1.10429,1.77829 -1.81163,2.59456 -0.31758,0.42271 -0.64959,0.83084 -0.98882,1.23168 0.36812,-0.21863 0.76508,-0.35712 0.59185,-0.53203 0.69289,-0.53932 0.20933,0.64864 -0.15158,1.01305 0.4042,0.007 1.05377,-0.4154 0.54132,0.45915 0.37533,0.19677 0.89498,-0.46644 1.32083,-0.48102 0.0794,-0.25508 0.18045,-0.4883 0.41863,-0.83084 l 0.69239,-1.01318 c 0.43305,-0.80168 0.9455,-1.69812 1.54457,-2.58726 0.47637,-0.68508 0.8589,-1.45033 1.3136,-2.12813 0.42584,-0.69965 0.90221,-1.33372 1.26309,-1.92404 0.16599,-0.16036 -0.68567,1.79286 -1.03212,2.9298 -0.0794,-0.007 -0.12992,-0.0363 -0.15879,-0.0802 -0.46193,1.31914 -1.31361,2.51438 -2.61278,4.29267 -0.0433,0.0656 -0.0722,0.1312 -0.1155,0.19677 -0.007,-0.007 -0.0144,-0.007 -0.0144,-0.0148 -0.0362,0.051 -0.065,0.0947 -0.10825,0.14576 0.0288,-0.0583 0.0505,-0.10934 0.0794,-0.16761 -0.15879,-0.16762 -0.35366,0.0148 -0.56297,0.26964 -0.62794,1.54508 -1.41466,2.64558 -2.2086,3.82625 -0.44749,0.56118 -0.90942,1.13694 -1.40743,1.771 -0.49802,0.64135 -1.01769,1.36287 -1.67449,2.12812 -1.1476,-0.051 -1.99207,2.12083 -3.68099,2.9954 0.24541,-0.14575 1.16204,-0.40814 2.0065,-0.85271 0.41862,-0.24778 0.81559,-0.53202 1.1043,-0.84541 -0.18766,0.0875 -0.36812,0.13119 -0.54854,0.10203 0.36811,-0.24053 0.67846,-0.51017 0.95272,-0.78711 0.0218,-0.0947 0.0362,-0.18221 0.0288,-0.27695 0.16599,-0.0874 0.24541,-0.0874 0.2887,-0.051 0.62071,-0.6705 1.11151,-1.31914 1.86214,-1.59609 -0.43305,0.22593 -1.11151,1.29 -1.82606,2.0188 0,0.0148 0.007,0.0291 0.007,0.0363 0.62071,-0.72152 0.70733,-0.86728 1.34969,-0.90372 0.31758,-0.40084 -0.41141,-0.0437 -0.007,-0.4883 0.51967,-0.19677 1.00325,-0.36443 2.09311,-1.20982 0.20933,-0.21138 0.42584,-0.40815 0.62793,-0.62678 -0.15158,-0.14575 -0.38974,0.0437 -0.64958,0.27695 1.3136,-1.26812 2.5406,-2.67472 3.69543,-4.19064 -0.13712,0.0802 -0.27429,0.0947 -0.38974,-0.0148 0.47636,-0.58305 0.8661,-1.23169 1.27751,-1.86575 0.007,0.15305 -0.14433,0.69965 -0.36812,1.18795 2.41069,-3.31607 4.44606,-7.17875 6.01228,-11.61719 0.51967,0.007 -0.67124,1.66897 -0.16599,1.69083 0.72897,-0.93287 1.20534,-3.461833 1.58066,-5.079789 -0.55576,-0.444572 -0.50524,1.224397 -0.76507,1.865749 -0.43306,0.743387 0.31036,-2.703875 0.62071,-2.907942 0.33924,0.561179 0.20933,1.712695 -0.0794,3.009977 -0.36812,1.275415 -0.90942,2.689295 -1.24143,3.877255 -0.0794,-0.21863 -0.15879,-0.43 -0.39699,-0.49559 -0.0938,0.31337 -0.20933,0.62678 -0.33925,0.93288 0.36812,0.14575 0.4042,-0.0656 0.56298,0.94745 -0.0505,0.25508 -0.19488,0.39354 -0.35366,0.48101 -0.0577,0.15305 -0.1155,0.3061 -0.18767,0.46643 -0.33203,0.76525 -0.89498,1.58152 -1.07542,2.17185 0.0144,-0.53932 0.15158,-0.94016 0.33924,-1.33372 -0.17321,0.0291 -0.31037,-0.0583 -0.67124,0.52474 0.12271,0.64136 -0.27428,1.66168 -0.85168,2.79134 -0.68568,1.13694 -1.57344,2.36134 -2.19416,3.41811 -0.0144,-0.14576 -0.0362,-0.28425 -0.0938,-0.40085 -0.18045,0.24779 -0.36087,0.49559 -0.54132,0.74339 0.15879,0.0947 0.19487,0.16761 0.1155,0.94016 -0.39695,0.80898 -1.52292,0.0219 -0.96716,0.94745 -0.67846,0.6705 -0.71454,0.37898 -0.9816,0.43 -0.75786,0.96931 -1.43631,1.87304 -1.91989,2.59456 -0.0144,-0.10204 -0.0505,-0.15306 -0.0938,-0.17492 -0.65682,0.69966 -1.47962,1.50135 -2.44678,2.25202 -0.54854,0.44457 -1.10429,0.89643 -1.66727,1.3483 -0.007,0.007 -0.0144,0.0148 -0.0218,0.0148 0.18045,0.0437 0.4042,0.10203 0.13712,0.48101 0.20208,0.11659 0.41141,-0.022 0.60628,-0.22593 -0.0288,0.0148 -0.0577,0.0363 -0.0938,0.0656 0.0577,-0.36438 0.31037,-0.5466 0.6135,-0.69237 0.12271,-0.13119 0.22375,-0.20407 0.30312,-0.13119 0.34645,-0.13849 0.71454,-0.28425 0.9816,-0.57576 0.0649,0.4883 -0.48359,0.63406 -0.89499,0.75796 0,0.007 0.007,0.007 0.007,0.0148 -0.16599,0.13845 -0.28149,0.25509 -0.38253,0.35712 0.0288,0.0291 0.0577,0.0656 0.10825,0.10934 -0.10825,0.0729 -0.18766,0.0802 -0.26704,0.0656 -0.31758,0.38628 -0.24541,0.53931 -0.54855,0.80897 -0.48357,0.19677 -0.83724,0.10204 -1.06099,-0.28425 -0.85889,0.58305 -0.97437,0.96932 -1.04655,1.4066 0.92386,-1.2827 0.2382,0.30611 1.46518,-0.83813 0.0505,0.20408 -0.4475,0.51746 -0.32479,0.69966 0.8589,-0.23323 2.20138,-1.61066 3.13967,-2.09168 -1.11874,1.0422 -2.5406,2.41965 -3.86143,3.39625 -1.29196,1.01304 -2.28799,1.90219 -2.35296,2.21557 0.065,0.43729 -1.74666,0.6122 -0.48357,-0.13845 -0.51967,0.16035 -2.23025,1.80744 -3.87587,2.39049 0.50523,0.0437 1.11873,-0.10203 0.6135,0.51017 1.50848,-0.45915 1.05377,-0.51746 2.14363,-1.27542 -0.10104,0.21137 -0.19487,0.43 -0.0722,0.64135 0.95272,-0.71423 0.4547,-0.75067 1.58066,-0.8527 -3.57272,2.200989 -8.34357,4.154189 -13.32373,5.276559 -2.4252,0.63406 -4.973024,0.88185 -7.405367,1.07863 -1.212559,0.0363 -2.410681,0.051 -3.558288,0.051 -1.154818,0.0219 -2.2519,-0.13845 -3.305675,-0.21137 -0.368118,0.26965 -0.801159,-0.0947 -1.320828,-0.36443 -0.461928,-0.0583 -0.909419,-0.13119 -1.364131,-0.20407 -0.07941,0.16762 0.461928,0.53932 -0.562972,0.27695 -0.346451,-0.20407 -0.894986,-0.4154 -1.559011,-0.63406 -0.108248,-0.0219 -0.216537,-0.0363 -0.324785,-0.0583 -1.183689,-0.28425 -2.338511,-0.58305 -3.450023,-0.88186 -1.118731,-0.27694 -2.143636,-0.72152 -3.139666,-1.07134 -0.461928,0.18221 -0.801159,-0.38629 -1.291958,-0.80169 -0.375325,-0.15306 -0.757851,-0.30611 -1.133164,-0.466439 -0.180455,0.10933 0.324785,0.677789 -0.627934,0.13845 -0.310368,-0.32066 -0.851683,-0.70694 -1.522919,-1.13694 -0.173205,-0.0875 -0.35366,-0.16761 -0.519673,-0.26239 -0.837242,-0.43728 -1.645617,-0.85271 -2.389036,-1.26813 -0.714544,-0.45186 -1.371347,-0.88185 -1.948757,-1.26812 1.934324,1.48677 3.883085,2.57998 5.774102,3.69505 1.97041,0.954739 3.897518,1.967779 6.084457,2.638289 -3.01696,-0.61949 -5.810184,-1.85846 -8.401311,-3.243199 z m 61.638533,-24.31303 c 0.0505,-0.10933 0.10104,-0.22593 0.15158,-0.34252 -0.19487,0.0656 -0.30312,0.13119 -0.15158,0.34252 z m -13.77123,10.01382 c -0.065,0.0656 -0.13716,0.13119 -0.20208,0.20407 0.12271,0.0363 0.23816,0.0291 0.36087,0.007 -0.0722,-0.0291 -0.0866,-0.12389 -0.15879,-0.21137 z M 11.031221,43.308158 c 0.129914,-0.429992 0.25262,-0.83813 0.331994,-1.202534 -0.15158,0.364382 -0.288703,0.714236 -0.425842,1.06406 0.02883,0.08748 0.05775,0.138453 0.09383,0.138453 z m 66.495997,48.903013 c -0.38253,0.37168 -0.86611,0.7361 -1.32082,1.1005 0.0218,0.0291 0.0288,0.051 0.0649,0.0802 0.75786,-0.38629 1.6384,-0.92559 1.43631,-1.31186 -0.0505,0.0363 -0.1155,0.0874 -0.18045,0.1312 z m -5.1606,3.22862 c 0.14433,-0.11659 0.26703,-0.24053 0.35366,-0.37898 -0.23096,0.10933 -0.48358,0.21863 -0.80838,0.31336 0.12271,0.0583 0.2815,0.0729 0.45472,0.0656 z m 0.70732,-0.22593 c 0.0218,-0.0148 0.0433,-0.0219 0.0722,-0.0291 0.23095,-0.16035 0.4042,-0.26964 0.55575,-0.35712 0.0362,-0.0291 0.0794,-0.051 0.1155,-0.0874 0.67846,-0.53932 1.29917,-1.2171 1.63118,-1.51592 -1.20534,0.51017 -1.52292,1.09322 -2.28798,1.58881 0.007,0.10203 -0.10104,0.27694 -0.0866,0.40084 z m 4.92964,-0.34982 c 0.63515,-0.40815 1.08265,-0.74339 0.65681,-0.65593 -0.57741,0.47372 -1.1476,0.67779 -1.60232,0.85271 -0.44749,0.18947 -0.7795,0.37898 -0.92385,0.81626 0.34645,-0.21863 1.21256,-0.63406 1.86936,-1.01304 z m 1.41466,-0.0875 1.98484,-1.341 -0.20933,-0.29151 c -0.56297,0.55389 -2.36738,1.20982 -1.77553,1.63253 z m 14.06715,-17.6663 c -0.0218,-0.0291 -0.0433,-0.0291 -0.065,-0.051 -0.1155,0.31341 -0.2815,0.68508 -0.50524,1.10779 -0.46915,0.91101 -1.12594,2.04795 -1.97041,3.16302 0.87333,-0.91101 1.84049,-2.90065 2.5406,-4.21979 z m -9.82319,5.15996 c -0.0218,-0.0656 -0.0144,-0.1312 -0.007,-0.18947 -0.84447,0.98389 -1.67449,1.93134 -2.32408,2.90065 0.34645,-0.16761 0.70011,-0.53203 1.07543,-0.96931 0.2887,-0.34983 0.62071,-0.72881 0.93107,-1.13694 0.31037,-0.40815 0.64237,-0.81627 1.01769,-1.15881 -0.18766,-0.10203 -0.4475,0.30611 -0.6929,0.55389 z m 3.03141,-4.94131 c -0.0433,0.13845 -0.12992,0.31337 -0.23821,0.51745 0.1155,-0.16761 0.23096,-0.34252 0.34646,-0.51745 -0.0363,0 -0.065,-0.007 -0.10825,0 z m -5.04513,0.59762 c -0.23816,0.21863 -0.47636,0.44458 -0.70732,0.69237 0.28149,-0.0656 0.49079,-0.34982 0.70732,-0.69237 z m -0.89498,0.66322 c -0.0144,0.007 -0.0218,0.0219 -0.0363,0.0291 0.007,0 0.0144,0 0.0218,0 1e-5,-0.007 0.007,-0.0219 0.0144,-0.0291 z M 42.536163,11.881968 c -0.91664,0.291506 -1.645618,0.583046 -1.566223,0.612188 0.0074,0 0.01442,0 0.02183,0 0.66402,-0.255089 1.176472,-0.451868 1.544573,-0.612188 z m -10.775918,4.482158 c -0.230954,0.08018 -0.721765,0.364383 -1.342482,0.80898 0.649591,-0.378983 1.089862,-0.641351 1.356915,-0.816267 -0.0074,0.0072 -0.0074,0.0072 -0.01442,0.0072 z m -4.677024,2.244732 c 0.05054,-0.03629 0.10104,-0.05832 0.151581,-0.09474 0.317577,-0.23323 0.649583,-0.459148 0.96716,-0.685086 -0.396951,0.255089 -0.786722,0.517453 -1.118732,0.779825 z M 8.2163439,59.917693 c 0.216538,-0.153053 0.331994,-0.714232 0.389743,-1.523207 0.02883,-0.685078 0.07216,-1.552359 0.122705,-2.514383 -0.0074,-0.255089 -0.02883,-0.488303 -0.07216,-0.670502 0.03625,0.09474 0.07216,0.145753 0.10104,0.19677 0.02183,-0.400841 0.05054,-0.808975 0.07941,-1.224397 -0.259829,0.08748 -0.07217,-1.523207 0.288702,-3.687766 0.09383,-0.481015 0.216538,-0.99118 0.339243,-1.51592 0.151581,-0.911011 0.368118,-1.705412 0.5990631,-2.354055 0.04329,-0.182212 0.09383,-0.364382 0.137123,-0.546607 0.02183,-0.08018 0.04329,-0.160354 0.07216,-0.240489 -0.4330581,0.400842 0.324785,-1.260839 0.555756,-2.383201 -0.209329,0.539316 -0.418621,1.071348 -0.60628,1.581513 -0.3319931,0.932875 -0.5557551,1.843882 -0.8011551,2.718455 -0.216537,0.845422 -0.440278,1.668973 -0.599063,2.470661 -0.02883,0.218629 -0.05775,0.422709 -0.08662,0.648639 -0.0074,0 -0.0074,-0.0072 -0.01442,-0.01477 -0.10104,0.641352 -0.20208,1.275415 -0.281495,1.909479 -0.09383,0.816267 -0.216537,1.625247 -0.25262,2.456086 -0.02183,0.830843 -0.03625,1.668973 -0.02883,2.543538 -0.02183,0.69236 0.0074,1.41388 0.05775,2.149975 z M 33.745092,100.67263 c -0.736197,-0.28425 -2.057021,-1.399309 -2.396252,-1.136939 0.447491,0.30611 0.411409,0.568469 0.815592,0.874569 0.09383,-0.510169 1.320824,0.53932 1.58066,0.26239 z M 94.741258,72.066921 c 0.10825,-0.5466 0.10825,-1.16609 0.065,-1.31915 -0.23096,0.72153 -0.44028,1.45034 -0.75786,2.13541 0.32479,0.16761 0.58463,-0.26964 0.6929,-0.81626 z m 3.13967,-9.700434 c 0.0794,0.911007 -0.0505,1.574226 -0.18046,2.171847 -0.15158,0.597621 -0.26703,1.129649 -0.0938,1.843881 0.0218,-0.612196 0.35366,-1.545071 0.47638,-2.375913 0.12991,-0.830839 0.16599,-1.537783 -0.20208,-1.639815 z m -12.71024,9.729584 c 0.34645,-1.32643 1.71058,-2.3832 1.37135,-3.316075 -0.36087,0.852705 -1.45796,2.375915 -1.37135,3.316075 z m 2.14363,-5.76487 c -0.0505,0.663215 -0.98881,1.996935 -0.28149,2.077099 -0.18046,-0.874565 0.8228,-1.719983 0.28149,-2.077099 z m 9.7438,19.69239 c 0.54132,-0.85999 1.30639,-1.82931 1.99206,-2.82049 0.67124,-0.99118 1.176482,-2.05523 1.364142,-2.95167 -0.541322,0.94016 -1.212562,2.12812 -1.948762,3.13388 -0.70733,1.0349 -1.29196,1.98235 -1.40744,2.63828 z m -23.11085,17.571559 c -0.1227,-0.18947 -0.25262,-0.32797 -0.83725,-0.0583 l 0.18767,0.49559 c 0.90942,-0.29151 1.73223,-0.69237 1.6384,-1.06406 -0.4908,0.20407 -0.74342,0.4154 -0.98882,0.62677 z m 24.27289,-26.907589 c 0.33199,-1.09321 1.29195,-2.82049 1.27752,-3.62946 0.46914,-1.23169 0.808372,-2.37591 0.642372,-2.8132 -0.245412,0.7944 -0.678462,1.96778 -1.089872,3.12658 -0.41862,1.15153 -0.93829,2.25202 -1.11873,3.02456 0.18766,-0.4154 0.46193,-0.94016 0.75063,-1.51592 0.10104,-0.18947 0.19488,-0.39354 0.29592,-0.59034 -0.4042,0.94017 -0.84447,1.90948 -0.75786,2.39778 z m -10.63879,6.69046 c -0.52689,0.53203 -0.88777,0.99118 -1.13316,1.31914 -0.25983,0.32067 -0.36812,0.53203 -0.34645,0.59762 0.0288,0.1239 0.64237,-0.34252 1.47961,-1.91676 z m -1.00325,4.86843 c 1.16204,-1.43574 2.69218,-3.25777 4.10683,-5.18182 -0.10825,0.007 -0.20933,0.022 -0.33924,0.20408 -0.0794,-0.85271 1.05377,-1.0422 1.47961,-1.85118 0,0.007 0,0.0148 0.007,0.0219 0.49079,-0.7361 0.95995,-1.4722 1.35691,-2.20101 -0.12271,0.58305 -0.59906,1.39203 -1.16203,2.23016 -0.0577,0.0874 -0.1155,0.16761 -0.17325,0.25508 -0.0288,0.1239 -0.1155,0.24054 -0.22375,0.33527 -0.4475,0.64864 -0.90942,1.27541 -1.29196,1.80744 l -1.78997,2.26659 c -0.62793,0.72881 -1.30639,1.41389 -1.97042,2.11355 z m 4.28727,-5.42233 c 0.10825,-0.15305 0.21654,-0.3061 0.32479,-0.45915 -0.27429,0.16761 -0.48358,0.30611 -0.32479,0.45915 z M 52.272739,105.46818 c -0.707328,-0.0148 -1.0249,-0.0729 -1.010467,-0.18221 0.490798,0.0802 1.010467,0.15306 1.551789,0.23323 -0.05775,0.051 -0.129914,0.0874 -0.180454,0.15306 1.291957,0.051 2.728262,0.18221 4.243965,0.16035 1.515699,0.0148 3.118013,0.0656 4.691456,-0.0947 1.58066,-0.11659 3.16132,-0.24778 4.59763,-0.59762 1.44352,-0.32066 2.80766,-0.61949 3.90474,-1.13694 -1.11873,0.18221 -2.30243,0.37899 -3.50055,0.56847 0.83725,-0.17491 1.7178,-0.37168 2.62,-0.62677 1.47239,-0.38629 3.02418,-0.75067 4.51102,-1.31914 1.49404,-0.52474 2.98809,-1.07135 4.28727,-1.7783 1.3136,-0.68507 2.54782,-1.333719 3.47889,-2.120829 -4.04187,1.836599 -8.85602,4.095909 -12.91955,4.795559 0.25983,-0.1166 0.70011,-0.21137 0.65681,-0.38629 -0.54854,0.45186 -1.48683,0.68509 -2.34573,0.83085 -0.78672,0.14575 -1.4724,0.32796 -1.73223,0.80897 -0.26704,0.0363 -0.53411,0.0729 -0.80116,0.10934 0.10825,-0.0291 0.21654,-0.0656 0.31758,-0.0947 -1.061,0.25509 -1.26309,0.19677 -0.78672,-0.21137 -1.010471,0.32797 -2.215814,0.45186 -3.493338,0.59034 -0.635146,0.0656 -1.291954,0.11659 -1.955974,0.16035 -0.165996,0.007 -0.339243,0.007 -0.505231,0.007 -0.52689,-0.007 -1.046554,-0.0363 -1.551794,-0.0802 0.281494,-0.0437 0.728985,-0.0219 0.736198,-0.19677 -0.649587,0.2915 -1.616747,0.27694 -2.482867,0.18947 -0.389743,-0.0291 -0.757852,-0.0437 -1.075425,-0.0148 -0.295911,-0.0148 -0.613496,-0.022 -0.894986,-0.051 -0.396951,-0.0363 -0.779505,-0.0656 -1.154819,-0.0947 0.02183,-0.0148 0.04329,-0.0219 0.07217,-0.0363 -0.209329,0.007 -0.433058,0 -0.649591,-0.007 -0.158789,-0.007 -0.310369,-0.0148 -0.461925,-0.0291 -0.765072,-0.0583 -1.573443,-0.18221 -2.410689,-0.3134 -0.63515,-0.10204 -1.27752,-0.22593 -1.927103,-0.35713 -0.649591,-0.13119 -1.284737,-0.34252 -1.919891,-0.51745 -0.0074,0 -0.01442,-0.007 -0.02183,-0.007 0.144372,-0.0291 0.295911,-0.0875 0.368118,-0.16035 -1.429088,-0.33527 -2.82209,-0.83813 -4.229528,-1.28999 -0.880549,0.0729 2.533387,0.95474 3.47168,1.28999 0,0.0219 0.02883,0.0291 0.03625,0.051 -1.133165,-0.33527 -2.251897,-0.64135 -3.24071,-1.01304 -1.104299,-0.40815 -2.10755,-0.76525 -2.944796,-0.99847 0.851679,0.40084 1.934324,0.88915 3.139667,1.4066 1.219779,0.47372 2.591127,0.88914 3.962475,1.30456 0.685678,0.21863 1.378568,0.37899 2.078679,0.49559 0.69289,0.1312 1.371352,0.24779 2.020935,0.34253 0.649587,0.0874 1.270299,0.18947 1.847713,0.21137 0.591842,0.0363 1.125948,0.0291 1.602309,0.007 z M 95.405278,81.366511 c -0.44028,0.70694 -1.16204,1.72727 -1.85493,2.73303 -0.70011,1.00575 -1.47961,1.93134 -1.85493,2.63099 0.2887,-0.34982 0.68568,-0.78711 1.11152,-1.26812 0.44027,-0.47373 0.88055,-0.99847 1.25586,-1.54507 0.77229,-1.06406 1.393,-2.08439 1.34248,-2.55083 z M 48.714452,106.59784 c 0.534106,0.0656 1.082645,0.11659 1.60953,0.13845 0.534106,-0.007 1.039338,-0.0291 1.472396,-0.051 -0.541323,0.0148 -1.097079,-0.0148 -1.63118,-0.10203 -0.534106,-0.10204 -1.060992,-0.22593 -1.559011,-0.34253 -0.988813,-0.23323 -1.854929,-0.44457 -2.475646,-0.37898 0.534106,0.37168 1.515699,0.60491 2.583911,0.7361 z M 101.20104,62.665298 c -0.43306,1.253548 0.0505,0.466435 0,0 z M 23.47441,93.406411 c -0.64237,-0.46643 -1.623967,-1.88761 -2.020934,-1.72727 0.353659,0.41544 0.245411,0.65593 0.562972,1.05677 0.223745,-0.45915 1.140385,0.87457 1.457962,0.6705 z M 86.173938,67.70136 c -0.166,0.757962 -0.9816,1.931341 -0.72898,2.412351 0.52688,-0.76524 0.82281,-1.523203 0.72898,-2.412351 z M 42.62999,9.9141765 c 0.461928,-0.123895 0.909423,-0.247789 1.328044,-0.357125 0.837246,-0.247788 1.559007,-0.502877 2.042593,-0.816259 -1.645622,0.488294 -3.608816,0.889144 -4.756418,1.6179555 0.469145,-0.153054 0.931073,-0.298807 1.385781,-0.4445715 z m 61.84785,38.1530955 c 0.59906,0.327966 1.19813,0.612197 1.66005,1.311858 -0.0362,-1.24626 -0.43305,-1.406597 -0.62071,-2.332183 -0.54855,0.07288 -0.91664,0.378983 -1.03934,1.020325 z M 56.394002,8.4128315 c -1.198126,-0.02194 -3.067488,-0.634059 -4.215095,-0.03629 0.281495,0.641351 3.543859,0.612204 4.215095,0.03629 z M 99.245058,70.069981 c 0.55576,-0.48829 1.559012,-3.031835 1.313622,-4.074033 -0.49081,1.115074 -1.508502,3.308793 -1.313622,4.074033 z M 78.176798,13.842452 c 0.77951,0.378983 1.51571,0.736095 2.23025,1.078635 0.70011,0.371683 1.40022,0.72152 2.10033,1.056773 -0.7362,-0.459147 -1.53013,-0.94745 -2.34573,-1.443039 -0.83725,-0.45186 -1.69614,-0.91102 -2.5406,-1.370159 -1.67449,-0.932874 -3.3995,-1.530499 -4.77807,-1.851164 1.03212,0.459147 1.98484,0.881864 2.87262,1.282694 0.88055,0.444572 1.69614,0.859993 2.4612,1.24626 z M 54.084365,7.4143685 c 1.017688,-0.09474 2.020939,-0.22593 3.002532,-0.284248 0.988813,-0.04372 1.94154,-0.08743 2.872617,-0.131194 -1.089865,-0.03629 -2.186939,-0.06558 -3.262368,-0.05832 -1.075424,0.05832 -2.136415,0.145753 -3.168536,0.247789 -0.512449,0.05832 -1.017684,0.116594 -1.515699,0.174912 -0.498015,0.08018 -0.974381,0.189471 -1.450742,0.291506 -0.938294,0.211372 -1.83328,0.45186 -2.656089,0.714232 2.064238,-0.393541 4.135697,-0.7944 6.178285,-0.954737 z"
               style="fill:url(#linearGradient1237);fill-opacity:1;fill-rule:nonzero;stroke:none;stroke-width:0.725278"
               id="path1239" />
          <image width="1" height="1" style="image-rendering:optimizeQuality" preserveAspectRatio="none"
               transform="matrix(75.41481,0,0,77.26045,18.994717,24.616747)" xlink:href="file:image1333.png"
               id="image1333" />
     </g>
</svg>