<?xml version="1.0" encoding="UTF-8" standalone="no"?>
<svg xmlns:dc="http://purl.org/dc/elements/1.1/" xmlns:cc="http://creativecommons.org/ns#"
     xmlns:rdf="http://www.w3.org/1999/02/22-rdf-syntax-ns#" xmlns:svg="http://www.w3.org/2000/svg"
     xmlns="http://www.w3.org/2000/svg" version="1.1" id="svg885" xml:space="preserve" width="100" height="100"
     viewBox="0 0 100 100">
     <metadata id="metadata6783">
          <rdf:RDF>
               <cc:Work rdf:about="">
                    <dc:format>image/svg+xml</dc:format>
                    <dc:type rdf:resource="http://purl.org/dc/dcmitype/StillImage" />
                    <dc:title></dc:title>
               </cc:Work>
          </rdf:RDF>
     </metadata>
     <defs id="defs6763">
          <linearGradient x1="-0.39899999" y1="68.556999" x2="137.05499" y2="68.556999" gradientUnits="userSpaceOnUse"
               gradientTransform="matrix(-0.02627944,-0.17288941,-0.17121721,0.02653609,-43.896628,-329.90239)"
               spreadMethod="pad" id="linearGradient1195">
               <stop style="stop-opacity:1;stop-color:#6fd6ff" offset="0" id="stop1191" />
               <stop style="stop-opacity:1;stop-color:#bff0cf" offset="1" id="stop1193" />
          </linearGradient>
     </defs>
     <g id="g4745" style="display:inline" transform="translate(-7.0472769,-6.9394941)">
          <path d="m 83.994211,92.291358 c -0.50523,1.12236 -2.11476,1.4649 -3.33453,2.49981 -0.43306,0.22593 0.13712,-0.23322 0.95994,-0.82355 0.8228,-0.56847 1.8044,-1.39932 2.37459,-1.67626 z m 0.28869,5.18911 0.31034,0.43 c 0.80116,-0.51745 1.49405,-1.12236 1.30639,-1.45033 -0.41863,0.32799 -0.60628,0.59034 -0.78672,0.86 -0.166,-0.15305 -0.332,-0.25507 -0.83002,0.16034 z m 12.61635,-26.251676 c 0.32479,-0.954741 0.58463,-1.858464 0.54854,-2.456084 -0.86611,3.542008 -2.82208,7.62333 -4.07073,10.42196 0.46193,-0.84542 0.9383,-1.68355 1.36413,-2.55083 l 1.1476,-2.660154 c 0.30312,-0.794399 0.69288,-1.800155 1.01046,-2.754892 z m -8.27857,-50.805241 c 0.89498,0.663218 1.64561,1.406599 2.39624,2.084392 0.7362,0.692368 1.46518,1.348297 2.10754,2.018798 1.25586,1.377448 2.46841,2.616418 3.52218,3.862687 0.0218,0.02926 0.0505,0.05832 0.0722,0.08747 0.23098,0.619487 0.35366,1.209831 0.32479,1.756437 0.69288,0.87456 1.22699,1.785571 1.77552,2.638285 0.5341,0.867284 1.0682,1.683547 1.522919,2.499814 0.0145,0.02185 0.0218,0.04373 0.029,0.05833 -0.007,0.08747 -0.0218,0.167641 -0.0145,0.269661 0.0578,0.01443 0.12269,0.02926 0.18044,0.04373 0.79394,1.515926 1.56622,2.915234 2.2158,4.27811 0.67846,1.486768 1.41466,2.871508 2.0931,4.248956 0.65681,1.384735 1.38578,2.733029 2.20137,4.110477 -0.51245,-1.406599 -1.1115,-3.060992 -1.75387,-4.846575 -0.75062,-1.727278 -1.44352,-3.607602 -2.28076,-5.429624 -0.25263,-0.524743 -0.49079,-1.056769 -0.7362,-1.588803 0.007,0 0.007,0.0074 0.0145,0.0074 -0.15157,-0.502879 -0.31035,-0.801691 -0.48358,-1.049489 -0.41862,-0.918299 -0.83725,-1.822018 -1.28473,-2.682011 0.76506,0.852705 1.559,1.698123 2.41067,2.536253 -0.85167,-1.224398 -1.85492,-2.66744 -2.937559,-4.219801 -0.22376,-0.276956 -0.44028,-0.568469 -0.66402,-0.859993 0,0 0,-0.0074 0,-0.0074 -0.37532,-0.801692 -0.75785,-1.559653 -1.06099,-2.295747 -0.83724,-0.145754 0.56297,1.078636 0.28147,1.275416 -0.40418,-0.539322 -0.80838,-1.078644 -1.23421,-1.610671 -0.79393,-1.093211 -1.56622,-2.1427 -2.39624,-3.082866 -0.59906,-0.714231 -1.1909,-1.399311 -1.77552,-2.047945 -0.18766,-0.196784 -0.38254,-0.378977 -0.57741,-0.561181 -0.60628,-0.699656 -1.19091,-1.399312 -1.73223,-2.077104 -0.57019,-0.677793 -1.13316,-1.311855 -1.61674,-1.945917 -0.88054,0.08017 0.96716,0.969313 0.57019,1.187956 -1.64561,-1.311855 -3.12521,-2.594559 -4.677,-3.622177 -0.75785,-0.532038 -1.50847,-1.042198 -2.24467,-1.515923 -0.75063,-0.451869 -1.52292,-0.83813 -2.27355,-1.209822 1.71779,1.377448 3.53662,2.660151 5.09562,3.877262 1.54459,1.238958 2.67775,2.550813 2.93037,3.811654 z M 63.503461,8.9593926 c 0.95272,0.204079 1.84049,0.386272 2.68495,0.568473 0.85167,0.160345 1.65283,0.313395 2.43233,0.459149 0.77228,0.1749374 1.53734,0.3352434 2.30241,0.4664374 -0.83002,-0.247813 -1.725,-0.5101674 -2.63442,-0.7871164 -0.92385,-0.218631 -1.87657,-0.43729 -2.80042,-0.655917 -1.85493,-0.459157 -3.68097,-0.590336 -5.08841,-0.539326 1.11872,0.174936 2.14362,0.335243 3.10356,0.4883 z M 102.93317,74.311651 c 0.30313,-0.969317 0.79394,-2.106258 1.19812,-3.2432 0.39697,-1.136942 0.60628,-2.295747 0.56297,-3.206758 -0.28147,1.049481 -0.62792,2.368628 -1.07542,3.53472 -0.42584,1.180672 -0.75063,2.252021 -0.68567,2.915238 z M 44.10257,8.5512616 c 0.938286,-0.298804 1.854919,-0.597632 2.735467,-0.881868 -1.068204,0.247813 -2.12919,0.510167 -3.168522,0.794403 -1.024898,0.342539 -2.028145,0.699664 -2.995305,1.071349 -0.483574,0.189488 -0.952721,0.378977 -1.421864,0.5684694 -0.454709,0.204079 -0.894983,0.437294 -1.320822,0.663217 -0.851676,0.451862 -1.652829,0.918299 -2.381805,1.384736 1.891008,-0.925595 3.789238,-1.858469 5.723553,-2.5362534 0.95994,-0.35713 1.898231,-0.750674 2.829298,-1.064053 z M 32.041972,14.323423 c 0.75063,-0.459149 1.37856,-0.896435 1.761093,-1.326438 -1.465172,0.896436 -3.255134,1.800159 -4.17899,2.805914 0.411405,-0.262365 0.822807,-0.53203 1.226993,-0.787116 0.411405,-0.240479 0.815591,-0.473717 1.190904,-0.69236 z m 52.313109,58.690949 c -0.22375,0.276956 -0.55574,0.772536 -0.90941,1.362872 -0.35367,0.59762 -0.82281,1.231682 -1.18369,1.916764 0.10103,0.18949 0.17322,0.50288 0.14435,0.10202 0.27425,-0.67779 0.99603,-1.289989 1.21977,-1.523208 -0.39697,0.539322 -0.87333,1.107788 -0.4114,1.289988 0.007,-0.16034 0.0577,-0.2988 0.12269,-0.437278 0.0218,0.04373 0.0359,0.08017 0.0794,0.123906 0.15156,0.02926 0.49801,-0.327947 0.75784,-0.750673 0.2382,-0.429995 0.41141,-0.903723 0.31757,-1.020331 -0.0722,0.182193 -0.23098,0.35713 -0.4114,0.532031 0.0505,-0.131202 0.0433,-0.25507 -0.065,-0.371681 -0.0505,0.153049 -0.17323,0.335242 -0.30313,0.517455 1.1115,-2.004227 1.08984,-2.295751 0.64236,-1.741854 z m 4.81414,-0.845418 c 0.36088,-0.808979 1.09707,-1.690835 0.52688,-2.244733 -0.332,0.932878 -0.64236,1.698127 -0.52688,2.244733 z m -26.06995,34.363326 c 0.51245,-0.14576 0.99603,-0.29881 1.40743,-0.43729 -0.51966,0.15305 -1.06098,0.27696 -1.6023,0.33524 -0.54132,0.0437 -1.08264,0.0583 -1.58787,0.0729 -1.01768,0.0293 -1.90544,0.051 -2.49006,0.28425 0.60627,0.21138 1.61673,0.18219 2.68494,0.0363 0.52687,-0.0729 1.06819,-0.17489 1.58786,-0.2915 z m 29.05082,-30.063352 c 0.065,0.10931 0.54132,-0.50288 0.93828,-2.237446 -0.37532,0.648638 -0.60627,1.187956 -0.75785,1.574224 -0.15878,0.371682 -0.21653,0.612202 -0.18044,0.663222 z m -7.77335,10.71348 c 0.64236,-0.93287 1.56622,-1.94592 1.67448,-2.79863 -0.48358,0.60492 -1.26308,1.33373 -1.81883,1.85846 -0.55575,0.53203 -0.89498,0.87458 -0.56297,0.64136 0.87332,-0.93288 0.12269,0.22593 0.70732,0.2988 z m 6.22878,-8.10435 c -1.03211,0.73609 -1.19812,2.17914 -2.33128,3.43998 1.10429,-0.0656 1.75387,-2.90795 2.33128,-3.43998 z m -57.538648,20.07138 c -0.245414,0.0875 -0.728976,0.051 -0.671238,-0.21137 -0.664015,-0.45915 -2.836513,-1.7127 -3.139654,-2.06252 -0.793933,-0.51017 -1.573436,-1.01305 -2.324062,-1.52322 -1.342473,-0.98389 -2.728252,-1.85117 -4.034637,-2.71845 0.555755,0.15305 1.089859,0.22592 1.847704,0.7361 -0.606277,-0.6122 -1.183685,-1.20254 -1.746658,-1.79288 -0.433055,-0.40813 -0.858895,-0.81626 -1.270296,-1.23168 -1.19812,-1.31186 -2.374585,-2.58727 -3.471659,-3.8554 -1.046551,-1.30457 -2.165279,-2.49981 -3.197396,-3.68048 0.498013,0.29151 0.996029,0.50288 1.595086,1.19524 -0.04332,-0.0802 -0.08659,-0.15305 -0.129906,-0.23322 -2.208587,-3.08286 -3.86863,-6.27504 -5.110057,-9.80976 -0.346444,0.182193 -0.01451,1.013043 0.368101,1.87304 -0.02903,0.53203 -0.339224,-0.291509 -0.692888,-1.268129 -0.368101,-0.962029 -0.642365,-2.128121 -0.923852,-2.171852 0.425836,0.08017 0.440275,-0.575756 0.230976,-1.654392 -0.115469,-0.50288 -0.245414,-1.115079 -0.382532,-1.785584 -0.6423701,-2.354048 -1.0682051,-4.722676 -1.2630811,-7.186052 -0.259814,0.05832 -0.288691,0.510167 -0.230975,1.085928 0.02903,0.196784 0.05053,0.386272 0.07941,0.590336 0.01451,0.07288 0.02177,0.145754 0.0359,0.225927 -0.10103,0.306099 -0.173222,0.10202 -0.230975,-0.335243 -0.346444,-0.444574 -0.173222,-2.186427 -0.649584,-3.622177 -0.303129,0.357129 -0.223757,1.348294 -0.382533,1.93863 -0.830021,-2.098967 0.793938,-2.827778 0.562974,-5.349455 -0.238195,0.240518 -0.339225,0.801691 -0.360883,1.515922 -0.180441,-0.247774 -0.180441,-0.881856 -0.526881,-0.765249 0.115469,-2.849644 0.490797,-5.713856 1.111508,-8.548921 -0.05053,0.116612 -0.10103,0.225927 -0.151564,0.320691 -0.122688,-1.027622 0.18766,-1.639821 0.591842,-2.244733 0.158784,-0.619487 0.346444,-1.23169 0.526882,-1.843885 -0.01452,-0.233222 -0.0359,-0.451862 -0.259814,-0.444574 2.0642331,-6.683172 5.6297231,-13.060245 10.4222041,-18.489869 1.234208,-1.392031 2.547811,-2.718461 3.933591,-3.979294 0.902199,-0.874569 1.826051,-1.727282 2.785991,-2.550829 0.252633,-0.145754 0.526885,-0.32069 0.793933,-0.488304 0.505236,-0.82355 2.490073,-1.771004 3.529405,-2.594558 -0.07937,0.145754 -0.230975,0.306099 -0.41862,0.459149 2.208582,-1.450329 4.525429,-2.754896 6.950541,-3.899122 0.281472,-0.07288 0.591843,-0.174936 0.887764,-0.262365 0.649584,-0.612199 2.533373,-0.998468 3.774803,-1.464897 -0.84446,0.211336 -1.645612,0.269661 -1.847707,0.01443 0.952724,-0.874569 2.923124,-0.772537 4.085159,-1.0640694 -0.245414,0.3571304 -1.125947,0.7506744 -2.013711,0.9984684 -0.606277,0.539318 -2.432327,0.889148 -3.673754,1.428466 0.10825,-0.03628 0.202099,-0.05829 0.310348,-0.09472 0.54132,-0.145754 1.118728,-0.306099 1.71779,-0.466437 1.198119,-0.3061 2.453981,-0.772537 3.832541,-1.049485 1.371346,-0.291509 2.785991,-0.677785 4.258381,-0.8818644 1.472391,-0.189489 2.959213,-0.429999 4.438821,-0.488304 1.17646,-0.07288 2.35293,-0.09472 3.5294,-0.07288 0.007,0 0.0218,0 0.029,0 0.0433,0 0.0866,0 0.12269,0 0.15156,0 0.31034,0 0.46192,0.0074 5.08119,0.02185 10.19124,0.7215304 15.09199,2.3467654 10.15516,3.286926 19.45141,9.940948 25.55028,19.437322 -0.17322,-0.01443 -0.35366,-0.109316 -0.55575,-0.306099 1.44351,2.106254 2.72825,4.336408 3.825319,6.683172 0.38253,0.670505 0.76507,1.341006 1.14039,1.996935 0.27425,0.50288 0.55575,0.99118 0.79393,1.501343 0.22376,0.510164 0.44027,1.027622 0.64237,1.545077 -0.41862,-0.349833 -0.77229,-1.056773 -1.16204,-1.814734 -0.0577,-0.10202 -0.10824,-0.204079 -0.166,-0.306099 0.31035,0.808975 0.60627,1.617954 0.87333,2.448796 -0.2598,-0.09473 -0.49802,-0.357129 -0.69289,-0.99118 0.007,0.04373 0.0218,0.08747 0.0359,0.131203 0.10103,0.291508 0.20932,0.583048 0.30313,0.889144 0.28869,0.867284 0.58462,1.756432 0.87334,2.616421 0.2382,0.874569 0.43306,1.727278 0.59907,2.485239 -0.31757,-0.808979 -0.59185,-1.712698 -0.92385,-2.667443 0.31756,1.166096 0.66401,2.303038 1.03933,3.432688 0.29591,1.129654 0.59185,2.244733 0.88055,3.337945 0.1299,0.553897 0.28147,1.100503 0.37532,1.654393 0.0866,0.553897 0.166,1.107787 0.22375,1.654392 -0.31756,-0.451861 -0.47636,-1.21711 -0.6568,-2.062528 -0.20932,-0.83813 -0.39697,-1.756432 -0.64237,-2.507102 0.0578,1.17338 0.33923,2.871507 0.42584,4.700809 0.0578,0.911011 0.11546,1.851177 0.17322,2.754896 0.007,0.903724 -0.0218,1.778296 -0.0578,2.558117 -0.13712,-1.173381 -0.15156,-2.499811 -0.30313,-3.935565 -0.14434,-1.428462 -0.13713,-2.966247 -0.38974,-4.518608 -0.46914,1.224398 -0.68567,3.002694 -0.8156,4.766406 -0.0359,0.437286 -0.0722,0.88186 -0.10824,1.311859 -0.0722,0.429994 -0.13713,0.845421 -0.2021,1.246261 -0.14435,0.801688 -0.31757,1.515923 -0.55576,2.077104 0.12991,-0.3061 -0.0794,-0.400844 -0.35366,-0.291509 0.0359,0.918299 -0.32479,2.456085 -0.36089,3.439977 -0.26703,-0.568469 0.0939,-2.142697 0.21654,-3.359808 -0.23098,0.145754 -0.47636,0.415419 -0.60627,0.83813 -0.029,0.07288 -0.0505,0.138459 -0.0722,0.20408 -0.007,-0.09476 -0.0433,-0.174898 -0.10825,-0.218632 0.15878,0.109316 -1.08264,1.501347 -0.9022,0.25507 -0.346439,1.515922 -0.779499,2.915234 -1.226989,4.227088 -0.51245,1.289992 -1.10429,2.485239 -1.6817,3.636753 0.27425,-1.289992 1.34969,-3.359808 1.78996,-5.487925 0.56298,-2.098971 0.56298,-4.161495 -0.46192,-4.934032 -0.64958,0.75067 -1.24143,1.515922 -1.7683,2.558116 -0.58463,1.03491 -0.97438,2.383203 -1.33526,4.299969 -0.34644,0.09476 -0.75063,-0.01444 -1.01769,0.400844 -0.27425,-0.109316 0.54132,-1.209819 0.47637,-2.142693 -0.0577,-0.335243 -0.34644,-0.393556 -0.18766,-0.99118 -0.0938,0.02185 -0.18044,0.08017 -0.25985,0.138459 -0.0722,0.670505 -0.18044,1.588804 -0.2021,2.237445 -0.31757,0.04373 -0.27425,-0.313395 -0.21654,-0.68508 -0.38975,1.085924 -0.53409,1.909478 -0.75063,2.747608 -0.18766,0.845418 -0.32478,1.74185 -0.69289,2.944385 -0.29591,-0.269661 -0.48357,0.284252 -0.68566,0.721523 0.24538,-1.1005 0.58462,-2.674728 1.14038,-4.25624 0.28147,-0.787116 0.46193,-1.625246 0.72176,-2.397782 0.10103,-0.342538 0.21654,-0.677793 0.33201,-1.005755 -0.23098,0.276956 -0.44028,0.612199 -0.68568,0.859993 -0.15156,-0.68508 1.54457,-2.412358 0.10103,-2.740317 -0.50523,-0.02926 -0.51966,1.180668 -0.69289,2.004223 -0.37532,-0.116612 -0.24541,-0.801692 -0.10103,-1.523211 -0.54133,0.07288 -0.93107,0.349834 -1.20533,0.291509 -0.0722,0.510167 -0.2021,0.976604 -0.29591,1.144229 -0.12991,-0.08017 -0.11547,-0.313395 -0.28869,-0.349833 -0.77229,3.593026 -0.2887,-0.116611 0.23097,-1.311855 0,-0.0074 -0.007,-0.01443 -0.007,-0.02926 -0.60627,0.655929 -0.87332,1.049481 -1.09706,1.464905 -0.20932,0.415419 -0.41862,0.845417 -0.93107,1.501346 -0.12991,-0.240517 0.0218,-0.670504 0.20209,-1.122366 0.15879,-0.459149 0.37533,-0.932874 0.46915,-1.224398 -0.12269,-0.3061 -0.25264,-0.604915 -0.38975,-0.889148 -0.62794,0.400844 -0.166,2.142697 -0.59184,2.332185 -0.2382,-0.08017 -0.47637,-0.153049 -0.58463,0.138459 -0.15156,-0.663217 0.79394,-1.574228 0.87333,-2.784047 -0.24541,0.02185 -0.50523,1.027618 -0.34644,-0.05103 -0.39698,0.298805 -0.35367,1.566941 -0.69289,1.996935 -0.065,-0.604911 -0.0218,-1.894899 0.11547,-2.856924 -0.44027,-0.233222 -0.42584,0.473725 -0.64237,0.685077 -0.12269,0.539322 0.007,0.816266 0.39697,0.83813 -0.66401,0.816266 -1.25586,0.874572 -1.58065,1.734565 -0.57019,0.313395 -0.065,-1.122366 -0.45471,-0.357129 -0.28869,-0.429995 -0.11547,-1.457617 0.1155,-2.507098 0.0578,-0.262366 0.10825,-0.524743 0.15879,-0.779825 0.029,-0.25507 0.0433,-0.502879 0.0505,-0.736098 0.007,-0.342538 -0.007,-0.634062 -0.0794,-0.852705 -0.0577,0.881856 -0.15878,1.756428 -0.28869,2.638285 -0.0145,0.09476 -0.029,0.196784 -0.0433,0.291508 -0.0433,0.269661 -0.0938,0.532031 -0.14435,0.801688 -0.0505,0.269661 -0.10103,0.539322 -0.15156,0.808979 -0.0218,0.09473 -0.0433,0.182193 -0.065,0.276956 -0.44027,1.975072 -1.06821,3.877259 -1.86935,5.684706 -0.0218,0.04373 -0.0433,0.08747 -0.0578,0.131202 -0.18044,0.400844 -0.3681,0.801687 -0.56297,1.187959 -0.065,0.131203 -0.1299,0.25507 -0.19488,0.378977 -0.15156,0.298804 -0.31034,0.59762 -0.47636,0.889144 -0.11547,0.20408 -0.23097,0.400848 -0.35366,0.604915 -0.12269,0.20408 -0.24538,0.41542 -0.3681,0.619483 -0.0433,0.07288 -0.0866,0.145755 -0.12991,0.211336 0.0722,0.05103 0.24537,-0.153049 0.51245,-0.663213 0.21654,0.583045 -0.87333,1.443042 -1.18369,1.800155 0.84446,0.779824 1.09707,-0.9766 1.66727,-1.217107 -0.21654,1.217107 -1.393,2.055231 -1.66006,3.046411 0.27425,-0.22592 0.9383,-1.02762 1.56622,-1.93862 -0.21654,0.532027 -0.35366,1.21711 -0.57019,1.87303 -0.0505,0.15305 -0.10825,0.3061 -0.18044,0.44458 0.38253,-0.40814 0.76506,-0.78712 1.00325,-1.08593 0.007,0.0875 -0.0145,0.17493 -0.029,0.26236 0.029,-0.0144 0.0505,-0.0437 0.0794,-0.0583 -0.0359,1.38474 -1.85492,2.17185 -2.31685,3.79709 0.48358,0.13846 0.48358,-1.1005 1.14038,-1.09321 -0.20932,-0.13846 0.15878,-0.6122 0.65681,-1.1005 0.50522,-0.4883 1.06099,-1.07864 1.38577,-1.31186 -0.75785,1.39931 -1.559,2.29575 -2.30241,3.27964 -0.36089,0.50288 -0.7795,0.96932 -1.23421,1.48677 -0.44028,0.53203 -0.92385,1.11508 -1.47961,1.78558 1.36413,-1.31914 2.80043,-1.88032 4.40273,-3.64404 -1.26307,0.47373 0.35367,-0.69237 0.83724,-0.7361 -0.15878,-0.42271 0.24542,-1.07135 0.80116,-1.78558 0.13712,0.10202 -0.0794,0.35713 -0.16601,0.5539 2.28076,-2.288457 3.76759,-5.808602 5.35546,-9.948238 -0.13713,0.72881 -0.31035,1.450333 -0.49803,2.164564 -0.21653,0.706943 -0.51243,1.377448 -0.78671,2.047953 -0.0866,0.225927 -0.18766,0.437282 -0.28147,0.648637 0.26704,-0.451857 0.53411,-0.823554 0.70011,-0.859993 0.20932,-0.408135 0.0218,-0.517451 0.14435,-0.859993 0.24537,-0.145754 0.166,0.437283 -0.029,1.122367 -0.18766,0.685076 -0.59907,1.413886 -0.78672,1.610662 -0.10103,-0.109315 -0.029,-0.335242 -0.18766,-0.408131 -0.88055,1.727274 -0.89499,1.56694 -0.59906,0.889148 -0.30313,0.539318 -0.62072,1.056773 -0.92386,1.574224 -0.32478,0.58304 -0.71454,1.10049 -1.07542,1.61795 -0.15878,0.3061 -0.31034,0.6122 -0.48358,0.91101 -0.38975,0.61949 -0.84445,1.19525 -1.28473,1.77101 -0.25263,0.34983 -0.51966,0.6705 -0.80115,0.98389 -0.11547,0.18948 -0.23098,0.37168 -0.33201,0.56118 0.72898,-0.71423 1.40743,-1.37745 2.02094,-2.05524 0.2021,-0.37898 0.49079,-0.7944 0.8228,-1.27542 0.0433,0.0656 0.0577,0.13121 0.0722,0.19679 0.007,-0.007 0.0145,-0.0144 0.0218,-0.0293 0.41862,-0.53932 0.8228,-1.06406 1.22699,-1.5888 0.3681,-0.55389 0.70732,-1.12965 1.0682,-1.712695 1.42909,-2.332189 2.68495,-5.116236 3.76759,-9.197562 0.007,0.903723 -0.20932,1.858461 -0.50523,2.842353 -0.28147,0.983892 -0.61349,2.01151 -1.08264,2.980826 -0.81558,1.996935 -1.89822,3.8554 -2.51894,5.648258 -0.21654,0.16764 -0.24541,0.0656 -0.34644,-0.0293 -0.0433,0.0656 -0.0794,0.13846 -0.12269,0.20408 -0.52689,0.88186 -1.10429,1.7783 -1.81162,2.59456 -0.31757,0.42271 -0.64958,0.83084 -0.98881,1.23169 0.3681,-0.21863 0.76506,-0.35713 0.59184,-0.53203 0.69289,-0.53932 0.20932,0.64864 -0.15156,1.01304 0.40418,0.007 1.05376,-0.41542 0.54132,0.45915 0.37532,0.19678 0.89497,-0.46644 1.32081,-0.48101 0.0794,-0.25507 0.18044,-0.4883 0.41863,-0.83084 l 0.69289,-1.01305 c 0.43305,-0.80169 0.9455,-1.69812 1.54456,-2.58726 0.47637,-0.68509 0.8589,-1.45034 1.3136,-2.128125 0.42584,-0.699656 0.9022,-1.333718 1.26308,-1.924054 0.166,-0.160345 -0.68567,1.792871 -1.03212,2.929809 -0.0794,-0.007 -0.1299,-0.0363 -0.15878,-0.0802 -0.46193,1.31914 -1.3136,2.51438 -2.61277,4.29268 -0.0433,0.0656 -0.0722,0.13116 -0.11547,0.19678 -0.007,-0.007 -0.0145,-0.007 -0.0145,-0.0144 -0.0359,0.051 -0.065,0.0948 -0.10825,0.14575 0.029,-0.0583 0.0505,-0.10931 0.0794,-0.16764 -0.15878,-0.16764 -0.35366,0.0144 -0.56297,0.26966 -0.62793,1.54507 -1.41465,2.64558 -2.20859,3.82625 -0.44749,0.56118 -0.90941,1.13694 -1.40742,1.771 -0.49802,0.64135 -1.01769,1.36287 -1.67448,2.12812 -1.1476,-0.051 -1.99207,2.12084 -3.68098,2.99541 0.24542,-0.14576 1.16204,-0.40814 2.0065,-0.85271 0.41862,-0.24782 0.81558,-0.53203 1.10429,-0.84542 -0.18766,0.0875 -0.3681,0.1312 -0.54855,0.10202 0.36811,-0.24052 0.67847,-0.51017 0.95273,-0.78712 0.0218,-0.0948 0.0359,-0.18219 0.029,-0.27695 0.16601,-0.0875 0.24542,-0.0875 0.28873,-0.051 0.62071,-0.6705 1.11151,-1.31914 1.86214,-1.59609 -0.43305,0.22592 -1.11151,1.28999 -1.82605,2.0188 0,0.0144 0.007,0.0293 0.007,0.0363 0.62071,-0.72152 0.70732,-0.86728 1.34969,-0.90372 0.31756,-0.40084 -0.4114,-0.0437 -0.007,-0.4883 0.51967,-0.19679 1.00324,-0.36443 2.0931,-1.20982 0.20932,-0.21138 0.42584,-0.40814 0.62793,-0.62678 -0.15157,-0.14575 -0.38975,0.0437 -0.64958,0.27696 1.3136,-1.26813 2.54059,-2.67473 3.69541,-4.19065 -0.13712,0.0802 -0.27425,0.0947 -0.38975,-0.0144 0.47636,-0.58305 0.8661,-1.23168 1.27751,-1.86575 0.007,0.15305 -0.14435,0.69966 -0.3681,1.18796 2.41067,-3.31608 4.44604,-7.178759 6.01225,-11.617203 0.51967,0.0074 -0.67124,1.668973 -0.166,1.690836 0.72898,-0.932874 1.20534,-3.46184 1.58066,-5.079794 -0.55576,-0.444574 -0.50524,1.224398 -0.76507,1.865748 -0.43306,0.743386 0.31035,-2.703878 0.62071,-2.907946 0.33923,0.561182 0.20932,1.712699 -0.0794,3.009982 -0.3681,1.275412 -0.90941,2.689299 -1.24142,3.877259 -0.0794,-0.218632 -0.15878,-0.429995 -0.39697,-0.495588 -0.0938,0.313395 -0.20932,0.626774 -0.33923,0.932874 0.3681,0.145754 0.40419,-0.06558 0.56298,0.947449 -0.0505,0.25507 -0.19488,0.393556 -0.35367,0.481013 -0.0577,0.15305 -0.11547,0.306099 -0.18766,0.466437 -0.332,0.765249 -0.89498,1.581513 -1.07542,2.171843 0.0145,-0.53932 0.15156,-0.94016 0.33922,-1.333713 -0.17322,0.02926 -0.31034,-0.05832 -0.67123,0.524733 0.12268,0.64135 -0.27426,1.66169 -0.85168,2.79134 -0.68567,1.13694 -1.57343,2.36134 -2.19415,3.41811 -0.0145,-0.14575 -0.0359,-0.28425 -0.0938,-0.40084 -0.18044,0.24781 -0.36088,0.49559 -0.54132,0.74338 0.15879,0.0947 0.19488,0.16765 0.11547,0.94017 -0.39697,0.80898 -1.52291,0.0218 -0.96715,0.94745 -0.67845,0.6705 -0.71454,0.37897 -0.98159,0.42999 -0.75786,0.96932 -1.4363,1.87304 -1.91989,2.59456 -0.0145,-0.10202 -0.0505,-0.15305 -0.0938,-0.17493 -0.65681,0.69965 -1.47961,1.50134 -2.44676,2.25202 -0.54854,0.44457 -1.1043,0.89643 -1.66727,1.34829 -0.007,0.007 -0.0145,0.0144 -0.0218,0.0144 0.18044,0.0437 0.40418,0.10202 0.13713,0.48101 0.20209,0.11661 0.4114,-0.0219 0.60627,-0.22593 -0.029,0.0144 -0.0577,0.0363 -0.0939,0.0656 0.0578,-0.36439 0.31035,-0.54661 0.6135,-0.69237 0.12269,-0.1312 0.22376,-0.20408 0.30313,-0.1312 0.34644,-0.13846 0.71454,-0.28426 0.98159,-0.57576 0.065,0.4883 -0.48358,0.63406 -0.89498,0.75796 0,0.007 0.007,0.007 0.007,0.0144 -0.16601,0.13845 -0.28151,0.25507 -0.38254,0.35713 0.029,0.0293 0.0578,0.0656 0.10825,0.10931 -0.10825,0.0729 -0.18766,0.0802 -0.26703,0.0656 -0.31757,0.38627 -0.24538,0.53932 -0.54854,0.80898 -0.48358,0.19679 -0.83724,0.10202 -1.06099,-0.28421 -0.85889,0.58304 -0.97437,0.96931 -1.04655,1.4066 0.92385,-1.28271 0.2382,0.3061 1.46517,-0.83813 0.0505,0.20408 -0.44749,0.51745 -0.32478,0.69965 0.85889,-0.23322 2.20136,-1.61066 3.13965,-2.09168 -1.11873,1.0422 -2.54059,2.41965 -3.86141,3.39625 -1.29195,1.01305 -2.28798,1.90219 -2.35294,2.21558 0.065,0.43728 -1.74666,0.6122 -0.48358,-0.13846 -0.51967,0.16034 -2.23023,1.80744 -3.87585,2.39049 0.50523,0.0437 1.11873,-0.10202 0.6135,0.51017 1.50847,-0.45915 1.05377,-0.51746 2.14362,-1.27542 -0.10103,0.21138 -0.19488,0.43 -0.0722,0.64135 0.95272,-0.71423 0.45471,-0.75067 1.58065,-0.8527 -3.57269,2.200992 -8.34352,4.154192 -13.32366,5.276562 -2.42518,0.63406 -4.97299,0.88186 -7.40533,1.07863 -1.21255,0.0363 -2.41067,0.051 -3.55827,0.051 -1.15481,0.0219 -2.251891,-0.13846 -3.305661,-0.21137 -0.368102,0.26966 -0.801153,-0.0947 -1.320823,-0.36439 -0.461924,-0.0583 -0.909413,-0.1312 -1.364122,-0.20408 -0.07941,0.16764 0.461924,0.53932 -0.562973,0.27696 -0.346444,-0.20408 -0.894983,-0.41542 -1.559002,-0.63407 -0.10825,-0.0218 -0.216537,-0.0363 -0.324787,-0.0583 -1.183685,-0.28425 -2.338501,-0.58305 -3.450009,-0.88186 -1.118724,-0.27696 -2.143625,-0.72152 -3.13965,-1.07135 -0.461928,0.18219 -0.801153,-0.38627 -1.291949,-0.80169 -0.375321,-0.15305 -0.75785,-0.3061 -1.133163,-0.466442 -0.180441,0.10932 0.324787,0.677792 -0.62793,0.13846 -0.310348,-0.32069 -0.851676,-0.70694 -1.522914,-1.13694 -0.173222,-0.0875 -0.353663,-0.16764 -0.519666,-0.26237 -0.837241,-0.43728 -1.645609,-0.8527 -2.389024,-1.26813 -0.714545,-0.45185 -1.371345,-0.88185 -1.948753,-1.26812 1.934315,1.48677 3.883068,2.57998 5.774076,3.69506 1.970403,0.954742 3.897503,1.967782 6.084431,2.638292 -3.01695,-0.61949 -5.810156,-1.85847 -8.401271,-3.243202 z M 94.705111,74.836394 c 0.0505,-0.109316 0.10103,-0.225927 0.15157,-0.342539 -0.19488,0.06558 -0.30313,0.131203 -0.15157,0.342539 z m -13.77117,10.013824 c -0.065,0.0656 -0.13712,0.13121 -0.20209,0.20408 0.12268,0.0363 0.23819,0.0293 0.36088,0.007 -0.0722,-0.0293 -0.0866,-0.12391 -0.15879,-0.21134 z M 11.03156,43.308138 c 0.129907,-0.429995 0.252595,-0.83813 0.332006,-1.202535 -0.151565,0.364386 -0.288691,0.714235 -0.42584,1.064061 0.02903,0.08747 0.05775,0.138458 0.09385,0.138458 z m 66.495691,48.90305 c -0.38254,0.37168 -0.86611,0.73609 -1.32083,1.1005 0.0218,0.0293 0.029,0.051 0.065,0.0802 0.75784,-0.38627 1.63839,-0.92558 1.4363,-1.31185 -0.0505,0.0363 -0.11547,0.0875 -0.18044,0.1312 z m -5.16059,3.22862 c 0.14435,-0.11661 0.26707,-0.24052 0.35367,-0.37898 -0.23098,0.10932 -0.48358,0.21864 -0.80838,0.3134 0.12269,0.0583 0.28148,0.0729 0.45471,0.0656 z m 0.70732,-0.22593 c 0.0218,-0.0144 0.0433,-0.0218 0.0722,-0.0293 0.23097,-0.16034 0.40418,-0.26966 0.55575,-0.35713 0.0359,-0.0293 0.0794,-0.051 0.11547,-0.0875 0.67845,-0.53932 1.29917,-1.21711 1.63117,-1.51592 -1.20533,0.51016 -1.52291,1.09321 -2.28797,1.5888 0.007,0.10202 -0.10103,0.27696 -0.0866,0.40085 z m 4.92962,-0.34983 c 0.63515,-0.40813 1.08264,-0.74338 0.6568,-0.65593 -0.5774,0.47373 -1.14759,0.6778 -1.6023,0.85271 -0.44749,0.18949 -0.7795,0.37898 -0.92385,0.81627 0.34644,-0.21863 1.21255,-0.63407 1.86935,-1.01305 z m 1.41465,-0.0875 1.98484,-1.34101 -0.20932,-0.29151 c -0.56297,0.5539 -2.36737,1.20983 -1.77553,1.63253 z m 14.06709,-17.6663 c -0.0218,-0.0293 -0.0433,-0.0293 -0.065,-0.051 -0.11547,0.31339 -0.28148,0.68507 -0.50524,1.10778 -0.46914,0.91101 -1.12593,2.04796 -1.9704,3.16303 0.87333,-0.91101 1.84049,-2.90065 2.54059,-4.2198 z m -9.82314,5.15996 c -0.0218,-0.0656 -0.0145,-0.1312 -0.007,-0.18949 -0.84446,0.98389 -1.67448,1.93134 -2.32406,2.90066 0.34644,-0.16764 0.7001,-0.53203 1.07542,-0.96932 0.28869,-0.34983 0.62071,-0.72881 0.93106,-1.13694 0.31035,-0.40813 0.64237,-0.81626 1.01769,-1.1588 -0.18766,-0.10202 -0.44749,0.3061 -0.69289,0.55389 z m 3.03138,-4.94132 c -0.0433,0.13846 -0.1299,0.31339 -0.23819,0.51745 0.11547,-0.16764 0.23098,-0.34253 0.34644,-0.51745 -0.0359,0 -0.065,-0.007 -0.10825,0 z m -5.04509,0.59762 c -0.2382,0.21863 -0.47636,0.44458 -0.70733,0.69237 0.28147,-0.0656 0.4908,-0.34983 0.70733,-0.69237 z m -0.89498,0.66322 c -0.0145,0.007 -0.0218,0.0218 -0.0359,0.0293 0.007,0 0.0145,0 0.0218,0 10e-6,-0.007 0.007,-0.0219 0.0145,-0.0293 z M 42.536353,11.881922 c -0.916633,0.291509 -1.645609,0.583049 -1.566218,0.612192 0.0073,0 0.01451,0 0.02177,0 0.664015,-0.25507 1.176465,-0.451866 1.544563,-0.612192 z m -10.775868,4.482166 c -0.230975,0.08017 -0.721757,0.364386 -1.342472,0.808976 0.649584,-0.378977 1.089854,-0.64135 1.35691,-0.816263 -0.0073,0.0074 -0.0073,0.0074 -0.01451,0.0074 z m -4.676998,2.244729 c 0.05053,-0.03628 0.10103,-0.05833 0.151565,-0.09472 0.317567,-0.233223 0.649584,-0.45915 0.967159,-0.685088 -0.396971,0.25507 -0.786718,0.517455 -1.118728,0.779824 z M 8.2166969,59.917684 c 0.216537,-0.15305 0.332005,-0.714235 0.389751,-1.523207 0.02903,-0.68508 0.07219,-1.552361 0.122688,-2.514386 -0.0073,-0.25507 -0.02903,-0.4883 -0.07219,-0.670501 0.0359,0.09472 0.07219,0.145755 0.10103,0.196784 0.02177,-0.400847 0.05054,-0.808979 0.07941,-1.224402 -0.259814,0.08747 -0.07219,-1.523206 0.288691,-3.687766 0.09381,-0.481017 0.216537,-0.99118 0.339225,-1.515923 0.151564,-0.911011 0.368101,-1.70541 0.5990611,-2.354056 0.04331,-0.182193 0.09381,-0.364425 0.137127,-0.546606 0.02177,-0.08017 0.04331,-0.160345 0.07219,-0.240518 -0.4330591,0.400844 0.324787,-1.260844 0.555754,-2.383203 -0.209317,0.539318 -0.41862,1.071349 -0.60628,1.581512 -0.3320061,0.932874 -0.5557551,1.843885 -0.8011531,2.718461 -0.216537,0.845418 -0.44027,1.668969 -0.599058,2.47066 -0.02903,0.218632 -0.05775,0.422711 -0.08659,0.648638 -0.0073,0 -0.0073,-0.0074 -0.01451,-0.01444 -0.10103,0.64135 -0.202098,1.275412 -0.281471,1.909478 -0.09385,0.816267 -0.216537,1.625246 -0.252633,2.456088 -0.02177,0.830843 -0.0359,1.668973 -0.02903,2.543541 -0.02177,0.69236 0.0073,1.413879 0.05775,2.149977 z M 33.745323,100.67265 c -0.736192,-0.28425 -2.057011,-1.399312 -2.396239,-1.136942 0.447489,0.3061 0.411401,0.568482 0.815587,0.874572 0.09385,-0.510162 1.320819,0.53932 1.580652,0.26237 z M 94.741201,72.066922 c 0.10825,-0.546606 0.10825,-1.166093 0.065,-1.319146 -0.23097,0.721522 -0.44027,1.450333 -0.75784,2.135409 0.32478,0.167641 0.58462,-0.269661 0.69289,-0.816263 z m 3.13965,-9.700442 c 0.0794,0.911011 -0.0505,1.574224 -0.18044,2.171848 -0.15156,0.597624 -0.26703,1.129654 -0.0938,1.843885 0.0218,-0.612199 0.35366,-1.545073 0.47637,-2.375915 0.1299,-0.830839 0.166,-1.537786 -0.2021,-1.639818 z m -12.71018,9.729593 c 0.34645,-1.326434 1.71057,-2.383207 1.37135,-3.316081 -0.36089,0.852709 -1.45796,2.375919 -1.37135,3.316081 z m 2.14363,-5.764878 c -0.0505,0.663217 -0.98881,1.996939 -0.28147,2.077104 -0.18045,-0.874569 0.8228,-1.719986 0.28147,-2.077104 z m 9.74375,19.692413 c 0.54132,-0.86 1.30638,-1.82931 1.99205,-2.82049 0.67124,-0.99118 1.176469,-2.05524 1.364129,-2.95168 -0.541319,0.94017 -1.212549,2.12813 -1.948749,3.13388 -0.70733,1.03491 -1.29195,1.98236 -1.40743,2.63829 z m -23.11074,17.571572 c -0.12268,-0.18949 -0.25263,-0.32795 -0.83724,-0.0583 l 0.18766,0.49559 c 0.90942,-0.29151 1.73222,-0.69237 1.63839,-1.06406 -0.49079,0.20408 -0.74341,0.41542 -0.98881,0.62677 z m 24.27277,-26.907612 c 0.332,-1.093213 1.29194,-2.820487 1.27752,-3.629466 0.46914,-1.231686 0.808369,-2.375916 0.642359,-2.813202 -0.245379,0.7944 -0.678449,1.967784 -1.089859,3.126589 -0.41862,1.151517 -0.93828,2.252017 -1.11872,3.024559 0.18766,-0.41542 0.46192,-0.940168 0.75063,-1.515924 0.10103,-0.189489 0.19488,-0.39356 0.29591,-0.590336 -0.40419,0.940162 -0.84446,1.90947 -0.75785,2.39778 z m -10.63873,6.69046 c -0.52689,0.53203 -0.88777,0.99118 -1.13316,1.31914 -0.25982,0.32069 -0.36811,0.53203 -0.34645,0.59762 0.029,0.12391 0.64238,-0.34253 1.47962,-1.91676 z m -1.00325,4.86844 c 1.16204,-1.43575 2.69217,-3.25777 4.10681,-5.18183 -0.10825,0.007 -0.20931,0.0219 -0.33922,0.20408 -0.0794,-0.85271 1.05377,-1.0422 1.47961,-1.85117 0,0.007 0,0.0144 0.007,0.0219 0.4908,-0.7361 0.95995,-1.4722 1.35691,-2.20101 -0.12269,0.58305 -0.59906,1.39203 -1.16203,2.23016 -0.0577,0.0875 -0.11547,0.16764 -0.17322,0.25507 -0.029,0.1239 -0.11547,0.24051 -0.22376,0.33524 -0.4475,0.64864 -0.90942,1.27542 -1.29195,1.80745 l -1.78997,2.26654 c -0.62793,0.72881 -1.30638,1.41389 -1.9704,2.11355 z m 4.28725,-5.42233 c 0.10825,-0.15305 0.21654,-0.3061 0.32479,-0.45915 -0.27425,0.16764 -0.48358,0.3061 -0.32479,0.45915 z m -38.59247,22.644082 c -0.707319,-0.0144 -1.024894,-0.0729 -1.010459,-0.1822 0.490793,0.0802 1.010459,0.15305 1.551779,0.23323 -0.0577,0.051 -0.1299,0.0875 -0.18044,0.15304 1.29195,0.051 2.72825,0.1822 4.24394,0.16035 1.5157,0.0144 3.118,0.0656 4.69144,-0.0948 1.58066,-0.11661 3.1613,-0.24782 4.59761,-0.59762 1.44352,-0.32069 2.80764,-0.61949 3.90472,-1.13695 -1.11873,0.1822 -2.30241,0.37898 -3.50053,0.56847 0.83724,-0.17489 1.71778,-0.37168 2.61998,-0.62677 1.47239,-0.38627 3.02417,-0.75067 4.511,-1.31914 1.49404,-0.52475 2.98808,-1.07135 4.28725,-1.7783 1.3136,-0.68508 2.54781,-1.333722 3.47888,-2.120832 -4.04185,1.836602 -8.85599,4.095902 -12.91949,4.795562 0.25985,-0.11661 0.7001,-0.21134 0.6568,-0.38627 -0.54854,0.45186 -1.48682,0.68508 -2.34572,0.83084 -0.78671,0.14575 -1.47239,0.32795 -1.73222,0.80898 -0.26703,0.0363 -0.5341,0.0729 -0.80115,0.10931 0.10825,-0.0293 0.21653,-0.0656 0.31756,-0.0947 -1.06098,0.25507 -1.26307,0.19678 -0.78671,-0.21138 -1.01046,0.32795 -2.2158,0.45187 -3.49332,0.59034 -0.63514,0.0656 -1.29195,0.11661 -1.95597,0.16035 -0.166,0.007 -0.33922,0.007 -0.50522,0.007 -0.52689,-0.007 -1.04656,-0.0363 -1.55179,-0.0802 0.28147,-0.0437 0.72898,-0.0219 0.7362,-0.19679 -0.64959,0.29151 -1.61674,0.27696 -2.48286,0.18949 -0.38975,-0.0293 -0.75785,-0.0437 -1.07542,-0.0144 -0.29591,-0.0144 -0.6135,-0.0218 -0.89498,-0.051 -0.39697,-0.0363 -0.779505,-0.0656 -1.154814,-0.0947 0.02177,-0.0144 0.04332,-0.0219 0.07219,-0.0363 -0.209318,0.007 -0.433051,0 -0.649585,-0.007 -0.158783,-0.007 -0.310348,-0.0144 -0.461924,-0.0293 -0.765064,-0.0583 -1.573436,-0.1822 -2.410677,-0.3134 -0.635146,-0.10202 -1.277515,-0.22593 -1.927096,-0.35713 -0.649584,-0.1312 -1.28473,-0.34254 -1.91988,-0.51745 -0.0073,0 -0.01452,-0.007 -0.02177,-0.007 0.144345,-0.0293 0.29591,-0.0875 0.368101,-0.16034 -1.429083,-0.33524 -2.822078,-0.83813 -4.229508,-1.28999 -0.880548,0.0729 2.533373,0.95474 3.471663,1.28999 0,0.0219 0.02903,0.0293 0.0359,0.051 -1.133162,-0.33524 -2.25189,-0.64135 -3.240699,-1.01305 -1.104289,-0.40813 -2.107537,-0.76524 -2.944778,-0.99846 0.851675,0.40084 1.934315,0.88914 3.13965,1.4066 1.219773,0.47372 2.591118,0.88914 3.96246,1.30456 0.685669,0.21863 1.37856,0.37898 2.078668,0.4956 0.692888,0.1312 1.371341,0.24781 2.020922,0.34253 0.649584,0.0875 1.270296,0.18949 1.847707,0.21138 0.591839,0.0363 1.12594,0.0293 1.6023,0.007 z m 43.13234,-24.101702 c -0.44027,0.70694 -1.16203,1.72727 -1.85492,2.73303 -0.70011,1.00576 -1.47961,1.93134 -1.85492,2.631 0.28869,-0.34984 0.68567,-0.78711 1.11151,-1.26813 0.44027,-0.47372 0.88054,-0.99847 1.25586,-1.54507 0.77228,-1.06406 1.39299,-2.08439 1.34247,-2.55083 z M 48.714614,106.59787 c 0.534101,0.0656 1.08264,0.11661 1.609521,0.13846 0.534104,-0.007 1.039332,-0.0293 1.472391,-0.051 -0.54132,0.0144 -1.097074,-0.0144 -1.631175,-0.10202 -0.534104,-0.10202 -1.060985,-0.22593 -1.559001,-0.34254 -0.98881,-0.23322 -1.85492,-0.44457 -2.475635,-0.37898 0.5341,0.37168 1.515691,0.60492 2.583899,0.7361 z M 101.20095,62.665292 c -0.43306,1.253549 0.0505,0.466437 0,0 z M 23.47469,93.406428 c -0.642365,-0.46643 -1.623959,-1.88761 -2.020926,-1.72727 0.353664,0.41542 0.245414,0.65592 0.562974,1.05677 0.223756,-0.45915 1.140377,0.87457 1.457952,0.6705 z M 86.173921,67.701355 c -0.166,0.757966 -0.98159,1.931346 -0.72898,2.412358 0.52688,-0.765248 0.82281,-1.52321 0.72898,-2.412358 z M 42.630183,9.9141336 c 0.461924,-0.123906 0.909413,-0.247813 1.328038,-0.357129 0.837241,-0.247774 1.558998,-0.502876 2.042579,-0.816259 -1.645609,0.488296 -3.608796,0.889148 -4.756393,1.6179544 0.469139,-0.153049 0.931067,-0.298804 1.385776,-0.4445664 z M 104.47773,48.067257 c 0.59906,0.327947 1.19813,0.612199 1.66005,1.311858 -0.0359,-1.246261 -0.43306,-1.406602 -0.62071,-2.332185 -0.54855,0.07288 -0.91664,0.378977 -1.03934,1.020327 z M 56.394131,8.4127866 c -1.19813,-0.02185 -3.06748,-0.634062 -4.21508,-0.03628 0.28147,0.64135 3.54384,0.612203 4.21508,0.03628 z m 42.85085,61.6571964 c 0.55575,-0.4883 1.558999,-3.031841 1.313609,-4.074038 -0.49081,1.115074 -1.508489,3.308793 -1.313609,4.074038 z M 78.176821,13.842411 c 0.77951,0.378976 1.5157,0.736098 2.23023,1.078636 0.70012,0.37172 1.40022,0.721519 2.10033,1.056773 -0.7362,-0.459149 -1.53013,-0.947453 -2.34572,-1.443041 -0.83724,-0.451862 -1.69613,-0.911019 -2.54059,-1.370161 -1.67448,-0.932874 -3.39948,-1.530498 -4.77805,-1.851165 1.03212,0.45915 1.98484,0.881864 2.87261,1.282696 0.88054,0.44457 1.69613,0.859993 2.46119,1.246262 z M 54.084501,7.4143196 c 1.01769,-0.09472 2.02093,-0.225927 3.00252,-0.284252 0.98881,-0.04373 1.94153,-0.08743 2.8726,-0.131163 -1.08986,-0.03628 -2.18693,-0.06558 -3.26235,-0.05829 -1.07542,0.05829 -2.1364,0.145755 -3.16852,0.247775 -0.51245,0.05832 -1.01768,0.116611 -1.515696,0.174897 -0.498012,0.08017 -0.974374,0.189489 -1.450733,0.291509 -0.938287,0.211375 -1.833269,0.451861 -2.656076,0.714231 2.064226,-0.393548 4.135675,-0.7944 6.178255,-0.954737 z"
               style="display:inline;fill:url(#linearGradient1195);fill-opacity:1;fill-rule:nonzero;stroke:none;stroke-width:0.725275"
               id="path1197" />
          <path d="m 67.235291,80.156988 c 2.488171,-2.642247 2.283146,-6.448553 0.669199,-9.60969 -4.877938,-9.55162 -11.622407,-11.891729 -11.622407,-11.891729 -3.987311,-1.800772 -8.195225,-0.500128 -9.388301,0.766361 -2.421745,2.573971 -2.007924,5.873344 0.369043,8.112773 0,0 2.284789,2.012372 3.714874,2.509098 2.219181,0.771481 5.545491,3.913823 6.403309,7.271233 0.07709,1.73418 2.747323,3.33181 2.747323,3.33181 0,0 4.085725,2.720762 7.10696,-0.489856"
               style="fill:#48311f;fill-opacity:1;fill-rule:nonzero;stroke:none;stroke-width:0.16732" id="path1293" />
          <path d="m 63.695751,81.723898 c -1.951827,0 -3.56742,-1.077054 -3.56742,-1.077054 0,0 -2.670231,-1.59763 -2.747323,-3.33181 -0.857818,-3.35741 -4.184132,-6.499752 -6.403313,-7.271266 -1.430081,-0.496693 -3.71487,-2.509098 -3.71487,-2.509098 -1.283944,-1.210171 -1.994474,-2.727566 -1.995787,-4.273997 -6.47e-4,-0.892673 0.235202,-1.795619 0.733656,-2.652454 0.208304,0.488138 0.447283,0.954112 0.727262,1.382562 0.08841,0.134834 0.215193,0.191153 0.340833,0.191153 0.290807,0.0033 0.576034,-0.303823 0.367074,-0.623005 -0.353624,-0.53937 -0.634263,-1.141895 -0.868154,-1.7649 0.101857,-0.124595 0.210765,-0.249189 0.326073,-0.372099 0.771545,-0.819277 2.80243,-1.65223 5.220569,-1.65223 1.320356,0 2.758804,0.249189 4.167732,0.885869 0,0 6.744469,2.340109 11.622407,11.891729 0.761048,1.491797 1.208819,3.125298 1.208819,4.714372 0,1.778575 -0.564227,3.500799 -1.878018,4.895318 -1.120253,1.191376 -2.389761,1.56691 -3.53954,1.56691"
               style="fill:#3f2d1f;fill-opacity:1;fill-rule:nonzero;stroke:none;stroke-width:0.16732" id="path1295" />
          <path d="M 64.879972,82.659248 C 62.393438,85.301495 58.73253,85.168345 55.66045,83.553639 46.383847,78.677116 43.995891,71.707988 43.995891,71.707988 c -1.812414,-4.111846 -0.650174,-8.515591 0.542737,-9.783798 2.42191,-2.57222 5.600931,-2.210395 7.80043,0.216785 0,0 1.981354,2.334989 2.488171,3.813144 0.787295,2.292312 3.875778,5.688996 7.118441,6.511708 1.669713,0.04436 3.257423,2.789006 3.257423,2.789006 0,0 2.699758,4.193797 -0.323117,7.404415"
               style="fill:#48311f;fill-opacity:1;fill-rule:nonzero;stroke:none;stroke-width:0.16732" id="path1297" />
          <path d="m 47.435863,61.558929 c -0.699049,-1.0685 -1.113527,-2.375948 -1.442876,-3.608316 -0.922608,-3.453002 -0.842566,-7.131312 -0.197315,-10.628675 0.83043,-4.497587 3.079298,-8.556517 3.398972,-13.173612 0.164018,-2.371521 -0.246029,-4.891024 -1.628057,-6.837365 -0.643282,-0.904664 -1.531283,-1.771573 -2.560176,-2.178156 -0.49534,-0.196107 -0.707418,0.629347 -0.217983,0.822713 -0.0051,-0.0033 -0.04544,-0.02411 0.09037,0.04472 0.169762,0.08535 0.332632,0.185868 0.492061,0.29137 0.524203,0.349406 0.976405,0.803423 1.373005,1.300116 1.529973,1.917505 1.794698,4.573889 1.599187,6.966253 -0.177468,2.179676 -0.806647,4.313239 -1.547194,6.349558 -0.861757,2.369111 -1.579996,4.751896 -1.973479,7.257591 -0.520762,3.316451 -0.463191,6.757496 0.380032,10.012508 0.335093,1.295491 0.792544,2.691728 1.525546,3.813143 0.295234,0.452299 1.00642,0.02576 0.707907,-0.431852"
               style="fill:#a2b31f;fill-opacity:1;fill-rule:nonzero;stroke:none;stroke-width:0.16732" id="path1299" />
          <path d="m 37.449222,16.020337 c 0,0 -1.124353,15.639206 8.734684,10.945974 7.114663,-9.209052 -8.734684,-10.945974 -8.734684,-10.945974"
               style="fill:#a2b31f;fill-opacity:1;fill-rule:nonzero;stroke:none;stroke-width:0.16732" id="path1301" />
          <path d="m 60.820495,24.827463 c 0,0 -14.696127,-3.4752 -11.696378,7.367519 7.697586,8.686958 11.696378,-7.367519 11.696378,-7.367519"
               style="fill:#a2b31f;fill-opacity:1;fill-rule:nonzero;stroke:none;stroke-width:0.16732" id="path1303" />
          <path d="m 33.904928,37.947828 c 0,0 3.978124,15.12798 11.755589,7.266146 3.735869,-11.157805 -11.755589,-7.266146 -11.755589,-7.266146"
               style="fill:#a2b31f;fill-opacity:1;fill-rule:nonzero;stroke:none;stroke-width:0.16732" id="path1305" />
          <path d="M 46.183906,26.966344 C 44.191398,20.014789 37.449222,16.02037 37.449222,16.02037 c 0,-3.3e-5 10.569728,1.158113 10.571041,6.598746 6.47e-4,1.050762 -0.393482,2.260933 -1.33397,3.653734 -0.152538,0.226133 -0.319182,0.456065 -0.501078,0.691446 -6.46e-4,0 -6.46e-4,0 -0.0013,0.0033"
               style="fill:#859425;fill-opacity:1;fill-rule:nonzero;stroke:none;stroke-width:0.16732" id="path1307" />
          <path d="m 53.534757,34.773049 c -1.279349,-0.0033 -2.727641,-0.706641 -4.336343,-2.494762 -0.02429,-0.02742 -0.04937,-0.05529 -0.0743,-0.0833 6.902094,-1.020868 11.696382,-7.367519 11.696382,-7.367519 0,0 -2.476694,9.945586 -7.285735,9.945586"
               style="fill:#859425;fill-opacity:1;fill-rule:nonzero;stroke:none;stroke-width:0.16732" id="path1309" />
          <path d="m 45.660517,45.213974 c -4.116554,-5.854583 -11.755589,-7.266146 -11.755589,-7.266146 0,0 2.615943,-0.65716 5.43888,-0.65716 3.307284,0 6.899144,0.902946 6.897831,4.821922 0,0.875596 -0.179438,1.901452 -0.581122,3.101384"
               style="fill:#859425;fill-opacity:1;fill-rule:nonzero;stroke:none;stroke-width:0.16732" id="path1311" />
          <path d="m 64.177971,81.73242 c 0,0 0,0.02048 -0.0016,0.05632 0,0.03927 0.0016,0.100712 0.0082,0.18263 0.0082,0.160467 0.03608,0.401134 0.106609,0.701521 0.06889,0.30042 0.185343,0.658844 0.373965,1.0429 0.186982,0.387458 0.455973,0.795396 0.806973,1.186289 0.700365,0.790276 1.776332,1.45936 3.029437,1.879255 0.155817,0.05804 0.316556,0.100713 0.477298,0.150194 0.160738,0.04951 0.324757,0.08876 0.492057,0.129747 l 0.249311,0.05972 0.252588,0.0512 c 0.170579,0.03237 0.342799,0.06659 0.516658,0.100712 0.172223,0.03928 0.344442,0.06487 0.519941,0.11267 0.173862,0.04776 0.351004,0.09044 0.524863,0.143357 0.17058,0.05632 0.342799,0.114354 0.515022,0.17239 l 0.506817,0.203143 c 0.66756,0.291866 1.299031,0.669084 1.864898,1.117981 0.56751,0.448896 1.066126,0.966102 1.486017,1.517396 0.844698,1.100936 1.361356,2.323064 1.653311,3.394966 0.293594,1.078739 0.375605,2.015807 0.370683,2.664444 0.0016,0.325987 -0.02131,0.580328 -0.03772,0.754437 -0.02296,0.172391 -0.03444,0.264548 -0.03444,0.264548 0,0 0.0098,-0.09216 0.02953,-0.264548 0.01148,-0.174109 0.02953,-0.42845 0.02131,-0.754437 -0.0082,-0.64692 -0.109894,-1.578867 -0.423167,-2.640529 -0.157456,-0.530848 -0.367403,-1.092414 -0.646238,-1.657383 -0.278834,-0.563252 -0.629831,-1.12822 -1.054641,-1.659068 -0.423171,-0.532532 -0.921787,-1.025823 -1.482735,-1.452555 -0.560944,-0.425015 -1.184217,-0.780036 -1.840296,-1.04802 l -0.496977,-0.187751 c -0.1673,-0.0512 -0.33624,-0.104114 -0.503541,-0.155313 -0.16894,-0.0478 -0.33952,-0.08364 -0.50846,-0.126312 -0.167301,-0.04268 -0.346082,-0.06659 -0.518302,-0.100713 -0.172222,-0.02907 -0.346081,-0.05975 -0.516661,-0.09047 l -0.260789,-0.04436 -0.25587,-0.05635 c -0.17058,-0.03752 -0.341159,-0.0734 -0.50682,-0.122876 -0.165658,-0.04608 -0.332959,-0.08535 -0.493694,-0.141672 -0.651157,-0.204828 -1.264592,-0.471094 -1.812417,-0.795396 -0.546185,-0.324302 -1.028401,-0.703238 -1.415487,-1.119698 -0.388725,-0.41309 -0.69052,-0.85003 -0.903744,-1.268207 -0.216505,-0.416493 -0.35264,-0.809071 -0.434651,-1.138493 -0.08529,-0.33114 -0.121374,-0.599123 -0.137777,-0.783438 -0.0066,-0.09388 -0.0098,-0.165587 -0.01148,-0.215068 v -0.08023 l 0.492058,0.01718"
               style="fill:#48311f;fill-opacity:1;fill-rule:nonzero;stroke:none;stroke-width:0.16732" id="path1313" />
          <path d="m 70.464828,87.313866 c 0,0 0.01969,-0.02378 0.05741,-0.06484 0.03772,-0.04439 0.0935,-0.105833 0.165658,-0.182631 0.142696,-0.153629 0.352643,-0.363576 0.610153,-0.607645 0.132855,-0.11779 0.272272,-0.25094 0.428092,-0.380654 0.07873,-0.06484 0.157457,-0.131432 0.239467,-0.201393 0.08201,-0.06487 0.16894,-0.131431 0.25587,-0.199707 0.17058,-0.139987 0.359202,-0.266266 0.547824,-0.401133 0.188623,-0.133117 0.392008,-0.252625 0.587189,-0.380621 0.206664,-0.110953 0.406767,-0.232145 0.613432,-0.332857 0.103336,-0.04776 0.206665,-0.09556 0.308361,-0.143357 l 0.152534,-0.07171 c 0.05085,-0.01883 0.103335,-0.03924 0.15418,-0.05804 0.205022,-0.07168 0.396927,-0.162151 0.592107,-0.204795 0.09514,-0.02742 0.188623,-0.05292 0.280478,-0.07683 0.08857,-0.02543 0.175502,-0.0512 0.262431,-0.06144 0.170577,-0.02742 0.326397,-0.05292 0.464174,-0.07511 0.139417,-0.01718 0.262432,-0.01354 0.362482,-0.02048 0.200103,-0.0086 0.314919,-0.01354 0.314919,-0.01354 0,0 -0.114816,0.01354 -0.313277,0.03584 -0.09841,0.01354 -0.221427,0.01883 -0.357562,0.04608 -0.134498,0.03072 -0.287032,0.06656 -0.454333,0.105833 -0.08365,0.01718 -0.167301,0.0478 -0.25587,0.07851 -0.08693,0.02907 -0.175502,0.06144 -0.268993,0.09388 -0.18698,0.05632 -0.370683,0.158715 -0.565864,0.240666 -0.04921,0.02378 -0.09841,0.04608 -0.147618,0.06828 -0.04757,0.02577 -0.09513,0.05292 -0.144336,0.0802 -0.09513,0.05292 -0.193541,0.107551 -0.290315,0.162184 -0.196824,0.109235 -0.383806,0.244069 -0.577351,0.365262 -0.1837,0.138236 -0.372322,0.266266 -0.547821,0.409655 -0.173862,0.143356 -0.349364,0.279908 -0.506821,0.426699 -0.08037,0.07171 -0.159099,0.14339 -0.236187,0.21335 -0.07545,0.07171 -0.147619,0.141672 -0.219785,0.209948 -0.142697,0.136551 -0.268994,0.274821 -0.390368,0.397697 -0.234545,0.252625 -0.423171,0.471127 -0.547825,0.626441 -0.0656,0.0768 -0.113173,0.136552 -0.144336,0.179228 -0.0328,0.04268 -0.05084,0.06484 -0.05084,0.06484 l -0.377248,-0.327705"
               style="fill:#48311f;fill-opacity:1;fill-rule:nonzero;stroke:none;stroke-width:0.16732" id="path1315" />
          <path d="m 66.720269,86.339242 c 0,0 -0.01475,0.0069 -0.041,0.01883 -0.02131,0.01024 -0.05905,0.02907 -0.108254,0.0546 -0.09513,0.05123 -0.234548,0.129747 -0.392008,0.242384 -0.08037,0.05292 -0.160735,0.121192 -0.249308,0.189468 -0.08365,0.07511 -0.175502,0.150194 -0.260792,0.237265 -0.08857,0.08704 -0.178778,0.175793 -0.260788,0.276505 -0.08857,0.09728 -0.165658,0.204828 -0.246029,0.312345 -0.08201,0.104115 -0.144339,0.223623 -0.218145,0.332858 -0.06889,0.112637 -0.123015,0.233829 -0.183701,0.344781 -0.05741,0.114355 -0.09841,0.230427 -0.144339,0.337944 -0.04921,0.107551 -0.07545,0.216785 -0.108254,0.314063 -0.02788,0.099 -0.06397,0.187783 -0.07873,0.271419 -0.01805,0.08192 -0.03445,0.153596 -0.04592,0.213349 -0.02626,0.117757 -0.04101,0.186033 -0.04101,0.186033 0,0 0.0066,-0.06996 0.01969,-0.189435 0.0066,-0.06147 0.01475,-0.134867 0.02296,-0.220187 0.0049,-0.08535 0.03118,-0.177544 0.04921,-0.281659 0.02296,-0.102397 0.03609,-0.216752 0.07381,-0.331106 0.03608,-0.114388 0.06397,-0.238982 0.109894,-0.363577 0.04921,-0.12291 0.09185,-0.254309 0.150898,-0.378936 0.06233,-0.122877 0.113173,-0.257744 0.188619,-0.377218 0.07053,-0.122877 0.141056,-0.245787 0.223067,-0.358424 0.07545,-0.11779 0.160739,-0.225307 0.244389,-0.33114 0.08201,-0.104115 0.17058,-0.196305 0.252591,-0.286745 0.08857,-0.08535 0.1673,-0.170706 0.249311,-0.240667 0.157456,-0.143389 0.303435,-0.249222 0.406764,-0.322617 0.05249,-0.03584 0.09513,-0.06484 0.127937,-0.08364 0.03118,-0.01718 0.04593,-0.02742 0.04593,-0.02742 l 0.213223,0.460854"
               style="fill:#48311f;fill-opacity:1;fill-rule:nonzero;stroke:none;stroke-width:0.16732" id="path1317" />
     </g>
</svg>