<?xml version="1.0" encoding="UTF-8" standalone="no"?>
<svg
   xmlns:dc="http://purl.org/dc/elements/1.1/"
   xmlns:cc="http://creativecommons.org/ns#"
   xmlns:rdf="http://www.w3.org/1999/02/22-rdf-syntax-ns#"
   xmlns:svg="http://www.w3.org/2000/svg"
   xmlns="http://www.w3.org/2000/svg"
   version="1.1"
   id="svg885"
   xml:space="preserve"
   width="100"
   height="100"
   viewBox="0 0 100 100"><metadata
   id="metadata7464"><rdf:RDF><cc:Work
       rdf:about=""><dc:format>image/svg+xml</dc:format><dc:type
         rdf:resource="http://purl.org/dc/dcmitype/StillImage" /><dc:title></dc:title></cc:Work></rdf:RDF></metadata>
    <defs
   id="defs7451">
        <linearGradient
   x1="-0.39899999"
   y1="68.556999"
   x2="137.05499"
   y2="68.556999"
   gradientUnits="userSpaceOnUse"
   gradientTransform="matrix(-0.02627944,-0.17288941,-0.17121721,0.02653609,-43.89663,-493.36183)"
   spreadMethod="pad"
   id="linearGradient1153">
            <stop
   style="stop-opacity:1;stop-color:#6fd6ff"
   offset="0"
   id="stop1149" />
            <stop
   style="stop-opacity:1;stop-color:#bff0cf"
   offset="1"
   id="stop1151" />
        </linearGradient>
    </defs>
    <g
   id="g4726"
   style="display:inline"
   transform="translate(-7.0472769,-6.9394941)">
        <path
   d="m 83.994211,92.291356 c -0.50523,1.12236 -2.11476,1.46491 -3.33453,2.49981 -0.43306,0.22593 0.13712,-0.23322 0.95994,-0.82355 0.8228,-0.56847 1.8044,-1.39931 2.37459,-1.67626 z m 0.28869,5.18911 0.31034,0.43 c 0.80116,-0.51745 1.49405,-1.12236 1.30639,-1.45033 -0.41863,0.32795 -0.60628,0.59034 -0.78672,0.86 -0.166,-0.15305 -0.332,-0.25507 -0.83002,0.16035 z m 12.61635,-26.251674 c 0.32479,-0.954741 0.58463,-1.858464 0.54854,-2.456084 -0.86611,3.542008 -2.82208,7.623334 -4.07073,10.421961 0.46193,-0.845418 0.9383,-1.683552 1.36413,-2.550833 l 1.1476,-2.660152 c 0.30312,-0.794399 0.69288,-1.800155 1.01046,-2.754892 z m -8.27857,-50.805241 c 0.89498,0.663218 1.64561,1.406599 2.39624,2.084392 0.7362,0.692368 1.46518,1.348297 2.10754,2.018798 1.25586,1.377448 2.46841,2.616418 3.52218,3.862687 0.0218,0.02926 0.0505,0.05833 0.0722,0.08747 0.23098,0.619487 0.35366,1.209831 0.32479,1.756437 0.69288,0.87456 1.22699,1.785571 1.77552,2.638285 0.5341,0.867284 1.0682,1.683547 1.522919,2.499814 0.0145,0.02185 0.0218,0.04373 0.029,0.05829 -0.007,0.08747 -0.0218,0.167641 -0.0145,0.269661 0.0578,0.01444 0.12269,0.02926 0.18044,0.04373 0.79394,1.515926 1.56622,2.915234 2.2158,4.27811 0.67846,1.486768 1.41466,2.871508 2.0931,4.248956 0.65681,1.384735 1.38578,2.733029 2.20137,4.110477 -0.51245,-1.406599 -1.1115,-3.060992 -1.75387,-4.846575 -0.75062,-1.727278 -1.44352,-3.607602 -2.28076,-5.429624 -0.25263,-0.524743 -0.49079,-1.056769 -0.7362,-1.588803 0.007,0 0.007,0.0074 0.0145,0.0074 -0.15157,-0.502879 -0.31035,-0.801691 -0.48358,-1.049489 -0.41862,-0.918299 -0.83725,-1.822018 -1.28473,-2.682011 0.76506,0.852705 1.559,1.698123 2.41067,2.536253 -0.85167,-1.224398 -1.85492,-2.66744 -2.937559,-4.219801 -0.22376,-0.276956 -0.44028,-0.568469 -0.66402,-0.859993 0,0 0,-0.0074 0,-0.0074 -0.37532,-0.801692 -0.75785,-1.559653 -1.06099,-2.295747 -0.83724,-0.145755 0.56297,1.078636 0.28147,1.275416 -0.40418,-0.539322 -0.80838,-1.078644 -1.23421,-1.610671 -0.79393,-1.093211 -1.56622,-2.1427 -2.39624,-3.082866 -0.59906,-0.714231 -1.1909,-1.399311 -1.77552,-2.047945 -0.18766,-0.196784 -0.38254,-0.378977 -0.57741,-0.561181 -0.60628,-0.699656 -1.19091,-1.399312 -1.73223,-2.077104 -0.57019,-0.677793 -1.13316,-1.311855 -1.61674,-1.945917 -0.88054,0.08017 0.96716,0.969313 0.57019,1.187956 -1.64561,-1.311855 -3.12521,-2.594559 -4.677,-3.622177 -0.75785,-0.532038 -1.50847,-1.042198 -2.24467,-1.515923 -0.75063,-0.451869 -1.52292,-0.83813 -2.27355,-1.209822 1.71779,1.377448 3.53662,2.660151 5.09562,3.877262 1.54459,1.238958 2.67775,2.550813 2.93037,3.811654 z M 63.503461,8.9593926 c 0.95272,0.204079 1.84049,0.386272 2.68495,0.568473 0.85167,0.160345 1.65283,0.313395 2.43233,0.459149 0.77228,0.1749374 1.53734,0.3352434 2.30241,0.4664374 -0.83002,-0.247813 -1.725,-0.5101674 -2.63442,-0.7871164 -0.92385,-0.218631 -1.87657,-0.43729 -2.80042,-0.655917 -1.85493,-0.459157 -3.68097,-0.590336 -5.08841,-0.539326 1.11872,0.174936 2.14362,0.335243 3.10356,0.4883 z M 102.93317,74.311651 c 0.30313,-0.969317 0.79394,-2.106258 1.19812,-3.2432 0.39697,-1.136942 0.60628,-2.295747 0.56297,-3.206758 -0.28147,1.049481 -0.62792,2.368628 -1.07542,3.53472 -0.42584,1.180672 -0.75063,2.252021 -0.68567,2.915238 z M 44.10257,8.5512616 c 0.938286,-0.298804 1.854919,-0.597632 2.735471,-0.881868 -1.068208,0.247813 -2.129194,0.510167 -3.168526,0.794403 -1.024898,0.342539 -2.028145,0.699664 -2.995305,1.071349 -0.483574,0.189488 -0.952721,0.378977 -1.421864,0.5684694 -0.454709,0.204079 -0.894983,0.437294 -1.320822,0.663217 -0.851676,0.451862 -1.652829,0.918299 -2.381805,1.384736 1.891008,-0.925595 3.789238,-1.858469 5.723553,-2.5362534 0.95994,-0.35713 1.898231,-0.750674 2.829298,-1.064053 z M 32.041972,14.323423 c 0.75063,-0.459149 1.37856,-0.896435 1.761093,-1.326438 -1.465172,0.896436 -3.255134,1.800159 -4.17899,2.805914 0.411405,-0.262365 0.822807,-0.53203 1.226993,-0.787116 0.411405,-0.240479 0.815591,-0.473717 1.190904,-0.69236 z m 52.313109,58.690949 c -0.22375,0.276956 -0.55574,0.772536 -0.90941,1.362872 -0.35367,0.59762 -0.82281,1.231682 -1.18369,1.916766 0.10103,0.189489 0.17322,0.502876 0.14435,0.102021 0.27425,-0.677793 0.99603,-1.289992 1.21977,-1.523211 -0.39697,0.539322 -0.87333,1.107791 -0.4114,1.289992 0.007,-0.160345 0.0577,-0.298804 0.12269,-0.437282 0.0218,0.04373 0.0359,0.08017 0.0794,0.123906 0.15156,0.02926 0.49801,-0.327986 0.75784,-0.750673 0.2382,-0.429995 0.41141,-0.903723 0.31757,-1.020331 -0.0722,0.182193 -0.23098,0.35713 -0.4114,0.532031 0.0505,-0.131202 0.0433,-0.25507 -0.065,-0.371681 -0.0505,0.153049 -0.17323,0.335242 -0.30313,0.517455 1.1115,-2.004227 1.08984,-2.295751 0.64236,-1.741854 z m 4.81414,-0.845418 c 0.36088,-0.808979 1.09707,-1.690835 0.52688,-2.244733 -0.332,0.932878 -0.64236,1.698127 -0.52688,2.244733 z m -26.06995,34.363326 c 0.51245,-0.14576 0.99603,-0.29881 1.40743,-0.43729 -0.51966,0.15305 -1.06098,0.27696 -1.6023,0.33524 -0.54132,0.0437 -1.08264,0.0583 -1.58787,0.0729 -1.01768,0.0293 -1.90544,0.051 -2.49006,0.28425 0.60627,0.21138 1.61673,0.1822 2.68494,0.0363 0.52687,-0.0729 1.06819,-0.1749 1.58786,-0.29151 z m 29.05082,-30.063357 c 0.065,0.109316 0.54132,-0.502879 0.93828,-2.237441 -0.37532,0.648638 -0.60627,1.187956 -0.75785,1.574224 -0.15878,0.371681 -0.21653,0.612199 -0.18044,0.663217 z m -7.77335,10.713483 c 0.64236,-0.93287 1.56622,-1.945919 1.67448,-2.798624 -0.48358,0.604911 -1.26308,1.333724 -1.81883,1.858464 -0.55575,0.53203 -0.89498,0.87457 -0.56297,0.64135 0.87332,-0.93287 0.12269,0.22593 0.70732,0.2988 z m 6.22878,-8.104349 c -1.03211,0.736095 -1.19812,2.17914 -2.33128,3.439977 1.10429,-0.06558 1.75387,-2.907946 2.33128,-3.439977 z M 33.066873,99.149446 c -0.245414,0.0875 -0.728976,0.051 -0.671238,-0.21138 -0.664015,-0.45915 -2.836513,-1.7127 -3.139654,-2.06252 -0.793933,-0.51017 -1.573436,-1.01305 -2.324062,-1.52322 -1.342473,-0.98389 -2.728252,-1.85117 -4.034637,-2.71845 0.555755,0.15305 1.089859,0.22593 1.847704,0.7361 -0.606277,-0.6122 -1.183685,-1.20254 -1.746658,-1.79287 -0.433055,-0.40814 -0.858895,-0.81627 -1.270296,-1.23169 -1.19812,-1.31185 -2.374585,-2.58727 -3.471659,-3.8554 -1.046551,-1.304566 -2.165279,-2.49981 -3.197396,-3.680478 0.498013,0.291509 0.996029,0.502876 1.595086,1.195244 -0.04332,-0.08017 -0.08663,-0.15305 -0.129906,-0.233223 -2.208587,-3.082858 -3.86863,-6.275041 -5.110057,-9.809761 -0.346444,0.182193 -0.01452,1.013043 0.368101,1.87304 -0.02903,0.532026 -0.339224,-0.291509 -0.692888,-1.268129 -0.368101,-0.962029 -0.642365,-2.128121 -0.923852,-2.171852 0.425836,0.08017 0.440275,-0.575756 0.230976,-1.654392 -0.115469,-0.50288 -0.245414,-1.115079 -0.382532,-1.785584 -0.6423701,-2.354048 -1.0682051,-4.722676 -1.2630811,-7.186052 -0.259814,0.05829 -0.288691,0.510167 -0.230975,1.085928 0.02903,0.196784 0.05053,0.386272 0.07941,0.590336 0.01452,0.07288 0.02177,0.145754 0.0359,0.225927 -0.10103,0.306099 -0.173222,0.10202 -0.230975,-0.335243 -0.346444,-0.444574 -0.173222,-2.186427 -0.649584,-3.622177 -0.303129,0.357129 -0.223757,1.348294 -0.382533,1.93863 -0.830021,-2.098967 0.793938,-2.827778 0.562974,-5.349455 -0.238195,0.240518 -0.339225,0.801691 -0.360883,1.515922 -0.180441,-0.247774 -0.180441,-0.881856 -0.526881,-0.765249 0.115469,-2.849644 0.490797,-5.713856 1.111508,-8.548921 -0.05053,0.116612 -0.10103,0.225927 -0.151564,0.320691 -0.122688,-1.027622 0.18766,-1.639821 0.591842,-2.244733 0.158784,-0.619487 0.346444,-1.23169 0.526882,-1.843885 -0.01451,-0.233222 -0.0359,-0.451862 -0.259852,-0.444574 2.0642331,-6.683172 5.6297221,-13.060245 10.4222041,-18.489869 1.234208,-1.392031 2.547811,-2.718461 3.933591,-3.979294 0.902198,-0.874569 1.82605,-1.727282 2.785991,-2.550829 0.252632,-0.145754 0.526885,-0.32069 0.793933,-0.488304 0.505235,-0.82355 2.490073,-1.771004 3.529405,-2.594558 -0.07937,0.145754 -0.230975,0.306099 -0.41862,0.459149 2.208582,-1.450329 4.525429,-2.754896 6.950541,-3.899122 0.281471,-0.07288 0.591842,-0.174936 0.887764,-0.262365 0.649584,-0.612199 2.533372,-0.998468 3.774803,-1.464897 -0.84446,0.211336 -1.645613,0.269661 -1.847708,0.01443 0.952725,-0.874569 2.923125,-0.772537 4.08516,-1.0640694 -0.245414,0.3571304 -1.125947,0.7506744 -2.013711,0.9984684 -0.606277,0.539318 -2.432327,0.889148 -3.673754,1.428466 0.108249,-0.03628 0.202099,-0.05829 0.310348,-0.09473 0.54132,-0.145754 1.118728,-0.306099 1.717789,-0.466437 1.19812,-0.3061 2.453981,-0.772537 3.832542,-1.049485 1.371345,-0.291509 2.786,-0.677785 4.25839,-0.8818644 1.47239,-0.189489 2.95921,-0.429999 4.43882,-0.488304 1.17646,-0.07288 2.35293,-0.09473 3.52939,-0.07288 0.007,0 0.0218,0 0.029,0 0.0433,0 0.0866,0 0.12269,0 0.15157,0 0.31035,0 0.46193,0.0074 5.08119,0.02185 10.19125,0.7215304 15.09199,2.3467654 10.15515,3.286926 19.4514,9.940948 25.55027,19.437322 -0.17321,-0.01443 -0.35366,-0.109316 -0.55575,-0.306099 1.44353,2.106254 2.72826,4.336408 3.825329,6.683172 0.38254,0.670505 0.76507,1.341006 1.14038,1.996935 0.27425,0.50288 0.55575,0.99118 0.79394,1.501343 0.22375,0.510164 0.44027,1.027622 0.64236,1.545077 -0.41862,-0.349833 -0.77229,-1.056773 -1.16202,-1.814734 -0.0578,-0.10202 -0.10825,-0.204079 -0.16601,-0.306099 0.31035,0.808975 0.60626,1.617954 0.87333,2.448796 -0.25985,-0.09476 -0.49801,-0.357129 -0.69289,-0.99118 0.007,0.04373 0.0218,0.08747 0.0359,0.131203 0.10103,0.291508 0.2093,0.583048 0.30312,0.889144 0.2887,0.867284 0.58462,1.756432 0.87333,2.616421 0.2382,0.874569 0.43307,1.727278 0.59907,2.485239 -0.31757,-0.808979 -0.59185,-1.712698 -0.92385,-2.667443 0.31756,1.166096 0.66402,2.303038 1.03933,3.432688 0.29591,1.129654 0.59185,2.244733 0.88055,3.337945 0.1299,0.553897 0.28147,1.100503 0.37532,1.654393 0.0866,0.553897 0.166,1.107787 0.22375,1.654392 -0.31756,-0.451861 -0.47636,-1.21711 -0.6568,-2.062528 -0.20932,-0.83813 -0.39697,-1.756432 -0.64236,-2.507102 0.0577,1.17338 0.33922,2.871507 0.42584,4.700809 0.0577,0.911011 0.11546,1.851177 0.17322,2.754896 0.007,0.903724 -0.0218,1.778296 -0.0578,2.558117 -0.13712,-1.173381 -0.15156,-2.499811 -0.30312,-3.935565 -0.14435,-1.428462 -0.13713,-2.966247 -0.38975,-4.518608 -0.46914,1.224398 -0.68567,3.002694 -0.81559,4.766406 -0.0359,0.437286 -0.0722,0.88186 -0.10825,1.311859 -0.0722,0.429994 -0.13713,0.845421 -0.2021,1.246261 -0.14435,0.801688 -0.31757,1.515923 -0.55576,2.077104 0.12991,-0.3061 -0.0794,-0.400844 -0.35366,-0.291509 0.0359,0.918299 -0.32479,2.456085 -0.36089,3.439977 -0.26703,-0.568469 0.0939,-2.142697 0.21654,-3.359808 -0.23097,0.145754 -0.47636,0.415419 -0.60627,0.83813 -0.029,0.07288 -0.0505,0.138459 -0.0722,0.20408 -0.007,-0.09476 -0.0433,-0.174937 -0.10825,-0.218632 0.15878,0.109316 -1.08264,1.501347 -0.9022,0.25507 -0.346439,1.515922 -0.779499,2.915234 -1.226989,4.227088 -0.51245,1.289992 -1.10429,2.485239 -1.6817,3.636753 0.27426,-1.289992 1.34969,-3.359808 1.78997,-5.487925 0.56298,-2.098971 0.56298,-4.161495 -0.46193,-4.934032 -0.64958,0.75067 -1.24143,1.515922 -1.7683,2.558116 -0.58463,1.03491 -0.97438,2.383203 -1.33526,4.299969 -0.34644,0.09476 -0.75063,-0.01444 -1.01769,0.400844 -0.27425,-0.109316 0.54132,-1.209819 0.47637,-2.142693 -0.0577,-0.335243 -0.34644,-0.393556 -0.18766,-0.99118 -0.0938,0.02185 -0.18044,0.08017 -0.25985,0.138459 -0.0722,0.670505 -0.18044,1.588804 -0.2021,2.237445 -0.31756,0.04373 -0.27425,-0.313395 -0.21653,-0.68508 -0.38976,1.085924 -0.5341,1.909478 -0.75063,2.747608 -0.18766,0.845418 -0.32479,1.74185 -0.6929,2.944385 -0.29591,-0.269661 -0.48357,0.284252 -0.68566,0.721523 0.24538,-1.1005 0.58462,-2.674728 1.14038,-4.25624 0.28147,-0.787116 0.46193,-1.625246 0.72176,-2.397782 0.10103,-0.342538 0.21654,-0.677793 0.33201,-1.005755 -0.23098,0.276956 -0.44028,0.612199 -0.68568,0.859993 -0.15156,-0.68508 1.54457,-2.412358 0.10103,-2.740317 -0.50523,-0.02926 -0.51966,1.180668 -0.69288,2.004223 -0.37532,-0.116612 -0.24542,-0.801692 -0.10103,-1.523211 -0.54132,0.07288 -0.93107,0.349834 -1.20534,0.291509 -0.0722,0.510167 -0.2021,0.976604 -0.29591,1.144229 -0.12991,-0.08017 -0.11547,-0.313395 -0.28869,-0.349833 -0.77229,3.593026 -0.28869,-0.116611 0.23097,-1.311855 0,-0.0074 -0.007,-0.01444 -0.007,-0.02926 -0.60628,0.655929 -0.87333,1.049481 -1.09707,1.464905 -0.20932,0.415419 -0.41862,0.845417 -0.93107,1.501346 -0.12991,-0.240517 0.0218,-0.670504 0.2021,-1.122366 0.15878,-0.459149 0.37532,-0.932874 0.46914,-1.224398 -0.12269,-0.3061 -0.2526,-0.604915 -0.38975,-0.889148 -0.62794,0.400844 -0.166,2.142697 -0.59184,2.332185 -0.23819,-0.08017 -0.47637,-0.153049 -0.58463,0.138459 -0.15156,-0.663217 0.79394,-1.574228 0.87333,-2.784047 -0.24541,0.02185 -0.50523,1.027618 -0.34644,-0.05103 -0.39698,0.298805 -0.35367,1.566941 -0.69289,1.996935 -0.065,-0.604911 -0.0218,-1.894899 0.11547,-2.856924 -0.44027,-0.233222 -0.42584,0.473725 -0.64237,0.685077 -0.12268,0.539322 0.007,0.816266 0.39697,0.83813 -0.66401,0.816266 -1.25585,0.874572 -1.58065,1.734565 -0.57019,0.313395 -0.065,-1.122366 -0.45471,-0.357129 -0.28869,-0.429995 -0.11547,-1.457617 0.11551,-2.507098 0.0577,-0.262366 0.10825,-0.524743 0.15878,-0.779825 0.029,-0.25507 0.0433,-0.502879 0.0505,-0.736098 0.007,-0.342538 -0.007,-0.634062 -0.0794,-0.852705 -0.0577,0.881856 -0.15878,1.756428 -0.28869,2.638285 -0.0145,0.09476 -0.029,0.196784 -0.0433,0.291508 -0.0433,0.269661 -0.0938,0.532031 -0.14435,0.801688 -0.0505,0.269661 -0.10103,0.539322 -0.15156,0.808979 -0.0218,0.09472 -0.0433,0.182193 -0.065,0.276956 -0.44028,1.975072 -1.06822,3.877259 -1.86936,5.684706 -0.0218,0.04373 -0.0433,0.08747 -0.0578,0.131202 -0.18044,0.400844 -0.3681,0.801687 -0.56297,1.187959 -0.065,0.131203 -0.1299,0.25507 -0.19488,0.378977 -0.15156,0.298804 -0.31034,0.59762 -0.47636,0.889144 -0.11547,0.20408 -0.23097,0.400848 -0.35366,0.604915 -0.12269,0.20408 -0.24538,0.41542 -0.3681,0.619483 -0.0433,0.07288 -0.0866,0.145755 -0.12991,0.211375 0.0722,0.05103 0.24538,-0.153049 0.51245,-0.663213 0.21654,0.583045 -0.87333,1.443042 -1.18368,1.800155 0.84445,0.779828 1.09706,-0.9766 1.66726,-1.217107 -0.21654,1.217107 -1.393,2.055241 -1.66006,3.046421 0.27426,-0.225927 0.9383,-1.027622 1.56622,-1.93863 -0.21654,0.532027 -0.35366,1.217111 -0.57019,1.873036 -0.0505,0.15305 -0.10825,0.3061 -0.18044,0.444574 0.38253,-0.408135 0.76507,-0.787116 1.00325,-1.085928 0.007,0.08747 -0.0145,0.174898 -0.029,0.262366 0.029,-0.01443 0.0505,-0.04373 0.0794,-0.05829 -0.0359,1.38474 -1.85492,2.171852 -2.31685,3.797094 0.48358,0.138458 0.48358,-1.1005 1.14038,-1.093216 -0.20932,-0.138459 0.15878,-0.612199 0.65681,-1.100499 0.50523,-0.4883 1.06099,-1.078636 1.38577,-1.311855 -0.75784,1.399311 -1.559,2.295747 -2.30241,3.279639 -0.36088,0.502875 -0.7795,0.969316 -1.23421,1.486771 -0.44027,0.532031 -0.92385,1.115075 -1.47961,1.78558 1.36413,-1.319143 2.80043,-1.880324 4.40273,-3.644044 -1.26307,0.473729 0.35367,-0.692368 0.83725,-0.736094 -0.15879,-0.422711 0.24541,-1.071349 0.80115,-1.78558 0.13712,0.10202 -0.0794,0.357129 -0.166,0.553894 2.28075,-2.288459 3.76758,-5.808604 5.35545,-9.94824 -0.13713,0.72881 -0.31035,1.450333 -0.49802,2.164564 -0.21654,0.706943 -0.51244,1.377448 -0.78671,2.047953 -0.0866,0.225927 -0.18766,0.437282 -0.28148,0.648637 0.26704,-0.451857 0.53411,-0.823554 0.70011,-0.859993 0.20932,-0.408135 0.0218,-0.517451 0.14435,-0.859993 0.24537,-0.145754 0.166,0.437283 -0.029,1.122367 -0.18766,0.685076 -0.59907,1.413886 -0.78672,1.610662 -0.10103,-0.109315 -0.029,-0.335242 -0.18766,-0.408131 -0.88055,1.727274 -0.89498,1.56694 -0.59906,0.889148 -0.30313,0.539318 -0.62071,1.056773 -0.92385,1.574224 -0.32479,0.583048 -0.71455,1.100499 -1.07542,1.617958 -0.15879,0.3061 -0.31035,0.612199 -0.48359,0.911007 -0.38974,0.619487 -0.84445,1.195248 -1.28473,1.771008 -0.25263,0.349834 -0.51966,0.670501 -0.80115,0.983888 -0.11547,0.189489 -0.23097,0.371681 -0.33201,0.561185 0.72898,-0.714235 1.40743,-1.377448 2.02094,-2.05524 0.2021,-0.378977 0.4908,-0.7944 0.8228,-1.275416 0.0433,0.06558 0.0577,0.131202 0.0722,0.196784 0.007,-0.0074 0.0145,-0.01444 0.0218,-0.02926 0.41862,-0.539318 0.8228,-1.064056 1.22699,-1.588799 0.3681,-0.553894 0.70733,-1.129654 1.0682,-1.712699 1.4291,-2.332189 2.68495,-5.116236 3.76759,-9.197562 0.007,0.903723 -0.20932,1.858461 -0.50523,2.842353 -0.28147,0.983892 -0.61349,2.01151 -1.08263,2.980826 -0.81559,1.996935 -1.89823,3.8554 -2.51895,5.648267 -0.21653,0.167641 -0.24541,0.06558 -0.34644,-0.02926 -0.0433,0.06558 -0.0794,0.138459 -0.12269,0.204079 -0.52689,0.881857 -1.10429,1.778292 -1.81162,2.594559 -0.31757,0.422711 -0.64958,0.830842 -0.98881,1.231686 0.3681,-0.218631 0.76506,-0.357129 0.59184,-0.53203 0.69289,-0.539319 0.20932,0.648637 -0.15156,1.013042 0.40418,0.0074 1.05376,-0.415419 0.54132,0.45915 0.37532,0.196784 0.89498,-0.466437 1.32082,-0.481013 0.0794,-0.25507 0.18044,-0.4883 0.41862,-0.830842 l 0.69289,-1.013043 c 0.43305,-0.801687 0.9455,-1.698123 1.54456,-2.587267 0.47637,-0.68508 0.8589,-1.450333 1.3136,-2.128125 0.42584,-0.699656 0.9022,-1.333718 1.26308,-1.924054 0.166,-0.160345 -0.68566,1.792871 -1.03212,2.929813 -0.0794,-0.0074 -0.1299,-0.03628 -0.15878,-0.08017 -0.46193,1.319143 -1.3136,2.514386 -2.61277,4.292682 -0.0433,0.06558 -0.0722,0.131202 -0.11547,0.196784 -0.007,-0.0074 -0.0145,-0.0074 -0.0145,-0.01444 -0.0359,0.05103 -0.065,0.09476 -0.10825,0.145754 0.029,-0.05829 0.0505,-0.109316 0.0794,-0.167641 -0.15878,-0.167641 -0.35366,0.01443 -0.56297,0.269661 -0.62793,1.545073 -1.41465,2.645577 -2.20858,3.826245 -0.44749,0.561185 -0.90942,1.136943 -1.40743,1.771003 -0.49802,0.64135 -1.01769,1.36287 -1.67448,2.12812 -1.1476,-0.051 -1.99206,2.12084 -3.68098,2.99541 0.24542,-0.14576 1.16204,-0.40814 2.0065,-0.85271 0.41862,-0.24781 0.81558,-0.53203 1.10429,-0.84542 -0.18766,0.0875 -0.3681,0.1312 -0.54854,0.10202 0.3681,-0.24052 0.67846,-0.51017 0.95272,-0.78711 0.0218,-0.0947 0.0359,-0.1822 0.029,-0.27696 0.166,-0.0875 0.24541,-0.0875 0.28873,-0.051 0.62071,-0.6705 1.1115,-1.31914 1.86213,-1.59609 -0.43305,0.22593 -1.1115,1.28999 -1.82605,2.0188 0,0.0144 0.007,0.0293 0.007,0.0363 0.62071,-0.72152 0.70732,-0.86728 1.34969,-0.90372 0.31757,-0.40084 -0.4114,-0.0437 -0.007,-0.4883 0.51967,-0.19678 1.00324,-0.36443 2.0931,-1.20982 0.20932,-0.21138 0.42584,-0.40813 0.62793,-0.62678 -0.15156,-0.14575 -0.38975,0.0437 -0.64958,0.27696 1.3136,-1.26813 2.54059,-2.674729 3.69542,-4.190651 -0.13713,0.08017 -0.27426,0.09472 -0.38976,-0.01444 0.47637,-0.583048 0.86611,-1.231686 1.27751,-1.865752 0.007,0.15305 -0.14434,0.699655 -0.3681,1.18796 2.41067,-3.316078 4.44604,-7.178765 6.01225,-11.617209 0.51967,0.0074 -0.67123,1.668973 -0.166,1.690836 0.72898,-0.932874 1.20534,-3.46184 1.58066,-5.079794 -0.55576,-0.444574 -0.50523,1.224398 -0.76507,1.865748 -0.43306,0.743386 0.31035,-2.703878 0.62071,-2.907946 0.33923,0.561182 0.20932,1.712699 -0.0794,3.009982 -0.3681,1.275412 -0.90941,2.689299 -1.24142,3.877259 -0.0794,-0.218632 -0.15878,-0.429995 -0.39697,-0.495588 -0.0938,0.313395 -0.20932,0.626774 -0.33922,0.932874 0.3681,0.145754 0.40418,-0.06558 0.56297,0.947449 -0.0505,0.25507 -0.19488,0.393556 -0.35366,0.481013 -0.0578,0.15305 -0.11547,0.306099 -0.18766,0.466437 -0.33201,0.765249 -0.89499,1.581516 -1.07543,2.171848 0.0145,-0.539318 0.15157,-0.940162 0.33923,-1.333718 -0.17323,0.02926 -0.31035,-0.05832 -0.67124,0.524743 0.12269,0.64135 -0.27425,1.66168 -0.85168,2.791334 -0.68567,1.136946 -1.57343,2.361344 -2.19415,3.418113 -0.0145,-0.145754 -0.0359,-0.284252 -0.0938,-0.400843 -0.18044,0.247813 -0.36088,0.495588 -0.54132,0.743385 0.15879,0.09472 0.19488,0.167641 0.11547,0.940162 -0.39696,0.808979 -1.52291,0.02185 -0.96715,0.94745 -0.67845,0.670505 -0.71454,0.378977 -0.98159,0.429998 -0.75786,0.96931 -1.4363,1.87304 -1.91989,2.59456 -0.0145,-0.10202 -0.0505,-0.15305 -0.0938,-0.1749 -0.65681,0.69966 -1.47961,1.50134 -2.44676,2.25202 -0.54854,0.44457 -1.10429,0.89643 -1.66727,1.3483 -0.007,0.007 -0.0145,0.0144 -0.0218,0.0144 0.18044,0.0437 0.40418,0.10202 0.13713,0.48101 0.2021,0.11661 0.4114,-0.0219 0.60627,-0.22593 -0.029,0.0144 -0.0577,0.0363 -0.0938,0.0656 0.0578,-0.36443 0.31035,-0.54661 0.6135,-0.69237 0.12269,-0.1312 0.22376,-0.20408 0.30313,-0.1312 0.34644,-0.13846 0.71454,-0.28426 0.98159,-0.57576 0.065,0.4883 -0.48358,0.63406 -0.89498,0.75796 0,0.007 0.007,0.007 0.007,0.0144 -0.166,0.13845 -0.28151,0.25507 -0.38253,0.35713 0.029,0.0293 0.0577,0.0656 0.10825,0.10931 -0.10825,0.0729 -0.18767,0.0802 -0.26708,0.0656 -0.31756,0.38627 -0.24537,0.53932 -0.54854,0.80898 -0.48358,0.19679 -0.83724,0.10202 -1.06098,-0.28425 -0.8589,0.58304 -0.97438,0.96931 -1.04656,1.4066 0.92386,-1.28271 0.2382,0.3061 1.46518,-0.83813 0.0505,0.20408 -0.44749,0.51745 -0.32479,0.69965 0.85889,-0.23322 2.20137,-1.61066 3.13965,-2.09168 -1.11873,1.0422 -2.54059,2.41965 -3.86141,3.39625 -1.29195,1.01305 -2.28798,1.9022 -2.35294,2.21558 0.065,0.43729 -1.74666,0.6122 -0.48357,-0.13846 -0.51967,0.16035 -2.23024,1.80744 -3.87585,2.39049 0.50522,0.0437 1.11872,-0.10202 0.61349,0.51017 1.50847,-0.45915 1.05377,-0.51746 2.14362,-1.27542 -0.10103,0.21138 -0.19488,0.43 -0.0722,0.64135 0.95273,-0.71423 0.45471,-0.75067 1.58066,-0.8527 -3.5727,2.200994 -8.34353,4.154194 -13.32367,5.276564 -2.42518,0.63407 -4.97299,0.88186 -7.40532,1.07865 -1.21256,0.0363 -2.41068,0.051 -3.55828,0.051 -1.15481,0.0219 -2.25188,-0.13846 -3.30565,-0.21137 -0.3681,0.26966 -0.80116,-0.0947 -1.32083,-0.36439 -0.46192,-0.0583 -0.90941,-0.13121 -1.36412,-0.20409 -0.0794,0.16765 0.46193,0.53932 -0.56297,0.27696 -0.34644,-0.20408 -0.89498,-0.41541 -1.559008,-0.63406 -0.108249,-0.0219 -0.216537,-0.0363 -0.324786,-0.0583 -1.183685,-0.28425 -2.338501,-0.58305 -3.450009,-0.88186 -1.118724,-0.27696 -2.143626,-0.72152 -3.13965,-1.07135 -0.461928,0.18219 -0.801153,-0.38627 -1.29195,-0.80169 -0.375321,-0.15304 -0.757849,-0.3061 -1.133162,-0.466444 -0.180441,0.10932 0.324786,0.677794 -0.627931,0.13846 -0.310348,-0.32069 -0.851675,-0.70694 -1.522913,-1.13694 -0.173222,-0.0875 -0.353664,-0.16764 -0.519666,-0.26237 -0.837241,-0.43728 -1.645609,-0.8527 -2.389024,-1.26813 -0.714546,-0.45185 -1.371345,-0.88185 -1.948753,-1.26812 1.934315,1.48677 3.883068,2.57998 5.774075,3.69506 1.970404,0.954744 3.897503,1.967784 6.084432,2.638294 -3.016951,-0.61949 -5.810156,-1.85847 -8.401271,-3.243204 z M 94.705111,74.836394 c 0.0505,-0.109316 0.10103,-0.225927 0.15157,-0.342539 -0.19488,0.06558 -0.30313,0.131203 -0.15157,0.342539 z m -13.77117,10.013829 c -0.065,0.06558 -0.13712,0.131202 -0.20209,0.204079 0.12268,0.03628 0.23819,0.02926 0.36088,0.0074 -0.0722,-0.02926 -0.0866,-0.123907 -0.15879,-0.211336 z M 11.03156,43.308138 c 0.129907,-0.429995 0.252633,-0.83813 0.332006,-1.202535 -0.151565,0.364386 -0.288691,0.714235 -0.42584,1.064061 0.02903,0.08747 0.05775,0.138458 0.09381,0.138458 z m 66.495691,48.903048 c -0.38254,0.37168 -0.86611,0.7361 -1.32083,1.1005 0.0218,0.0293 0.029,0.051 0.065,0.0802 0.75784,-0.38627 1.63839,-0.92558 1.4363,-1.31185 -0.0505,0.0363 -0.11547,0.0875 -0.18044,0.1312 z m -5.16059,3.22862 c 0.14435,-0.11661 0.26707,-0.24052 0.35367,-0.37897 -0.23098,0.10931 -0.48358,0.21863 -0.80838,0.31339 0.12269,0.0583 0.28148,0.0729 0.45471,0.0656 z m 0.70732,-0.22592 c 0.0218,-0.0144 0.0433,-0.0219 0.0722,-0.0293 0.23097,-0.16035 0.40418,-0.26967 0.55575,-0.35713 0.0359,-0.0293 0.0794,-0.051 0.11547,-0.0875 0.67845,-0.53932 1.29917,-1.21711 1.63117,-1.51592 -1.20533,0.51016 -1.52291,1.09321 -2.28797,1.5888 0.007,0.10202 -0.10103,0.27696 -0.0866,0.40085 z m 4.92962,-0.34984 c 0.63515,-0.40813 1.08264,-0.74338 0.6568,-0.65592 -0.5774,0.47372 -1.14759,0.67779 -1.6023,0.8527 -0.44749,0.18949 -0.7795,0.37898 -0.92385,0.81627 0.34644,-0.21863 1.21255,-0.63407 1.86935,-1.01305 z m 1.41465,-0.0875 1.98484,-1.34101 -0.20932,-0.2915 c -0.56297,0.55389 -2.36737,1.20982 -1.77553,1.63253 z m 14.06709,-17.666314 c -0.0218,-0.02926 -0.0433,-0.02926 -0.065,-0.05103 -0.11547,0.313395 -0.28148,0.685076 -0.50524,1.107787 -0.46914,0.911011 -1.12593,2.047953 -1.9704,3.163032 0.87333,-0.911011 1.84049,-2.900659 2.54059,-4.219805 z m -9.82314,5.159966 c -0.0218,-0.06558 -0.0145,-0.131202 -0.007,-0.189488 -0.84446,0.983888 -1.67448,1.931341 -2.32406,2.900658 0.34644,-0.167641 0.7001,-0.532031 1.07542,-0.969317 0.28869,-0.349833 0.62071,-0.72881 0.93106,-1.136942 0.31035,-0.408131 0.64237,-0.816262 1.01769,-1.158805 -0.18766,-0.10202 -0.44749,0.3061 -0.69289,0.553894 z m 3.03138,-4.941323 c -0.0433,0.138458 -0.1299,0.313395 -0.23819,0.517455 0.11547,-0.167641 0.23098,-0.342538 0.34644,-0.517455 -0.0359,0 -0.065,-0.0074 -0.10825,0 z m -5.04509,0.597623 c -0.2382,0.218632 -0.47636,0.444574 -0.70733,0.692368 0.28147,-0.06558 0.4908,-0.349833 0.70733,-0.692368 z m -0.89498,0.663214 c -0.0145,0.0074 -0.0218,0.02185 -0.0359,0.02926 0.007,0 0.0145,0 0.0218,0 10e-6,-0.0074 0.007,-0.02185 0.0145,-0.02926 z M 42.536353,11.881922 c -0.916633,0.291509 -1.645609,0.583049 -1.566218,0.612192 0.0073,0 0.01452,0 0.02177,0 0.664015,-0.25507 1.176465,-0.451866 1.544563,-0.612192 z m -10.775868,4.482166 c -0.230975,0.08017 -0.721757,0.364425 -1.342472,0.808976 0.649584,-0.378977 1.089854,-0.64135 1.35691,-0.816263 -0.0073,0.0074 -0.0073,0.0074 -0.01451,0.0074 z m -4.676998,2.244729 c 0.05053,-0.03628 0.10103,-0.05832 0.151565,-0.09472 0.317567,-0.233223 0.649584,-0.45915 0.967159,-0.685088 -0.396971,0.25507 -0.786718,0.517455 -1.118728,0.779824 z M 8.2166969,59.917684 c 0.216537,-0.15305 0.332005,-0.714235 0.389751,-1.523207 0.02903,-0.68508 0.07219,-1.552361 0.122688,-2.514386 -0.0073,-0.25507 -0.02903,-0.4883 -0.07219,-0.670501 0.0359,0.09472 0.07219,0.145755 0.10103,0.196784 0.02177,-0.400847 0.05054,-0.808979 0.07941,-1.224402 -0.259814,0.08747 -0.07219,-1.523206 0.288691,-3.687766 0.09381,-0.481017 0.216537,-0.99118 0.339225,-1.515923 0.151564,-0.911011 0.368101,-1.70541 0.5990611,-2.354056 0.04331,-0.182193 0.09381,-0.364425 0.137127,-0.546606 0.02177,-0.08017 0.04331,-0.160345 0.07219,-0.240518 -0.4330591,0.400844 0.324787,-1.260844 0.555754,-2.383203 -0.209317,0.539318 -0.41862,1.071349 -0.60628,1.581512 -0.3320061,0.932874 -0.5557551,1.843885 -0.8011531,2.718461 -0.216537,0.845418 -0.44027,1.668969 -0.599058,2.47066 -0.02903,0.218632 -0.05775,0.422711 -0.08659,0.648638 -0.0073,0 -0.0073,-0.0074 -0.01452,-0.01443 -0.10103,0.64135 -0.202098,1.275412 -0.281471,1.909478 -0.09385,0.816267 -0.216537,1.625246 -0.252633,2.456088 -0.02177,0.830843 -0.0359,1.668973 -0.02903,2.543541 -0.02177,0.69236 0.0073,1.413879 0.05775,2.149977 z M 33.745323,100.67266 c -0.736192,-0.28426 -2.057011,-1.399314 -2.396239,-1.136954 0.447489,0.3061 0.411401,0.568484 0.815587,0.874584 0.09381,-0.510174 1.320819,0.53932 1.580652,0.26237 z M 94.741201,72.066922 c 0.10825,-0.546606 0.10825,-1.166093 0.065,-1.319146 -0.23097,0.721522 -0.44027,1.450333 -0.75784,2.135409 0.32478,0.167641 0.58462,-0.269661 0.69289,-0.816263 z m 3.13965,-9.700442 c 0.0794,0.911011 -0.0505,1.574224 -0.18044,2.171848 -0.15156,0.597624 -0.26703,1.129654 -0.0938,1.843885 0.0218,-0.612199 0.35366,-1.545073 0.47637,-2.375915 0.1299,-0.830839 0.166,-1.537786 -0.2021,-1.639818 z m -12.71018,9.729593 c 0.34645,-1.326434 1.71057,-2.383207 1.37135,-3.316081 -0.36089,0.852709 -1.45796,2.375919 -1.37135,3.316081 z m 2.14363,-5.764878 c -0.0505,0.663217 -0.98881,1.996939 -0.28147,2.077104 -0.18045,-0.874569 0.8228,-1.719986 0.28147,-2.077104 z m 9.74375,19.692411 c 0.54132,-0.86 1.30638,-1.829312 1.99205,-2.820492 0.67124,-0.99118 1.176469,-2.055241 1.364129,-2.951672 -0.541319,0.940162 -1.212549,2.128121 -1.948749,3.133872 -0.70733,1.03491 -1.29195,1.98236 -1.40743,2.638292 z m -23.11074,17.571574 c -0.12268,-0.18949 -0.25263,-0.32795 -0.83724,-0.0583 l 0.18766,0.49559 c 0.90942,-0.29151 1.73222,-0.69237 1.63839,-1.06406 -0.49079,0.20408 -0.74341,0.41542 -0.98881,0.62677 z m 24.27277,-26.907614 c 0.332,-1.093211 1.29194,-2.820485 1.27752,-3.629464 0.46914,-1.231686 0.808369,-2.375916 0.642359,-2.813202 -0.245379,0.7944 -0.678449,1.967784 -1.089859,3.126589 -0.41862,1.151517 -0.93828,2.252017 -1.11872,3.024557 0.18766,-0.415423 0.46192,-0.940166 0.75063,-1.515922 0.10103,-0.189489 0.19488,-0.39356 0.29591,-0.590336 -0.40419,0.940162 -0.84446,1.909474 -0.75785,2.397778 z m -10.63873,6.690461 c -0.52689,0.53203 -0.88777,0.99118 -1.13316,1.319142 -0.25982,0.320691 -0.36811,0.532031 -0.34645,0.597624 0.029,0.123907 0.64238,-0.342538 1.47962,-1.916766 z m -1.00325,4.868439 c 1.16204,-1.43575 2.69217,-3.257773 4.10681,-5.181827 -0.10825,0.0074 -0.20931,0.02185 -0.33922,0.20408 -0.0794,-0.852709 1.05377,-1.042198 1.47961,-1.851173 0,0.0074 0,0.01444 0.007,0.02185 0.4908,-0.736095 0.95995,-1.472193 1.35691,-2.201003 -0.12269,0.583048 -0.59906,1.392023 -1.16203,2.230153 -0.0577,0.08747 -0.11547,0.167641 -0.17322,0.25507 -0.029,0.123907 -0.11547,0.240518 -0.22376,0.335243 -0.4475,0.648642 -0.90942,1.275416 -1.29195,1.807447 l -1.78997,2.26659 c -0.62793,0.72881 -1.30638,1.41389 -1.9704,2.11355 z m 4.28725,-5.422333 c 0.10825,-0.15305 0.21654,-0.306099 0.32479,-0.459149 -0.27425,0.167641 -0.48358,0.306099 -0.32479,0.459149 z m -38.59247,22.644087 c -0.70732,-0.0144 -1.02489,-0.0729 -1.01046,-0.1822 0.49079,0.0802 1.01046,0.15305 1.55178,0.23323 -0.0577,0.051 -0.1299,0.0875 -0.18044,0.15305 1.29195,0.051 2.72825,0.18219 4.24394,0.16034 1.5157,0.0144 3.118,0.0656 4.69144,-0.0948 1.58066,-0.11661 3.1613,-0.24781 4.59761,-0.59762 1.44352,-0.32069 2.80764,-0.61949 3.90472,-1.13694 -1.11873,0.18219 -2.30241,0.37897 -3.50053,0.56847 0.83724,-0.1749 1.71778,-0.37169 2.61998,-0.62678 1.47239,-0.38627 3.02417,-0.75067 4.511,-1.31914 1.49404,-0.52474 2.98808,-1.07135 4.28725,-1.7783 1.3136,-0.68507 2.54781,-1.333714 3.47888,-2.120834 -4.04185,1.836604 -8.85599,4.095904 -12.91949,4.795564 0.25985,-0.11661 0.7001,-0.21134 0.6568,-0.38627 -0.54854,0.45186 -1.48682,0.68508 -2.34572,0.83084 -0.78671,0.14575 -1.47239,0.32799 -1.73222,0.80898 -0.26703,0.0363 -0.5341,0.0729 -0.80115,0.10932 0.10825,-0.0293 0.21653,-0.0656 0.31756,-0.0947 -1.06098,0.25507 -1.26307,0.19678 -0.78671,-0.21137 -1.01046,0.32798 -2.2158,0.45186 -3.49332,0.59033 -0.63514,0.0656 -1.29195,0.11661 -1.95597,0.16035 -0.166,0.007 -0.33922,0.007 -0.50522,0.007 -0.52689,-0.007 -1.04656,-0.0363 -1.55179,-0.0802 0.28147,-0.0437 0.72898,-0.0219 0.7362,-0.19679 -0.64959,0.29151 -1.61674,0.27696 -2.48286,0.18949 -0.38975,-0.0293 -0.75785,-0.0437 -1.07542,-0.0144 -0.29591,-0.0144 -0.6135,-0.0219 -0.89498,-0.051 -0.39697,-0.0363 -0.7795,-0.0656 -1.15481,-0.0947 0.0218,-0.0144 0.0433,-0.0219 0.0722,-0.0363 -0.20932,0.007 -0.43305,0 -0.64959,-0.007 -0.15878,-0.007 -0.31034,-0.0144 -0.46192,-0.0293 -0.76507,-0.0583 -1.57344,-0.1822 -2.41068,-0.3134 -0.63514,-0.10202 -1.27751,-0.22592 -1.927094,-0.35713 -0.649584,-0.1312 -1.28473,-0.34254 -1.91988,-0.51745 -0.0073,0 -0.01452,-0.007 -0.02177,-0.007 0.144345,-0.0293 0.29591,-0.0875 0.368101,-0.16035 -1.429083,-0.33524 -2.822078,-0.83813 -4.229508,-1.28999 -0.880548,0.0729 2.533373,0.95474 3.471663,1.28999 0,0.0219 0.02903,0.0293 0.0359,0.051 -1.133162,-0.33524 -2.25189,-0.64135 -3.240699,-1.01304 -1.104289,-0.40813 -2.107537,-0.76525 -2.944778,-0.99847 0.851675,0.40084 1.934315,0.88914 3.13965,1.4066 1.219773,0.47372 2.591118,0.88915 3.96246,1.30457 0.685669,0.21863 1.37856,0.37897 2.078675,0.49559 0.69288,0.13116 1.37134,0.24777 2.02092,0.34254 0.64958,0.0875 1.27029,0.18948 1.84771,0.21137 0.59183,0.0363 1.12593,0.0293 1.6023,0.007 z m 43.13234,-24.101704 c -0.44027,0.706944 -1.16203,1.727274 -1.85492,2.733033 -0.70011,1.005756 -1.47961,1.931337 -1.85492,2.630997 0.28869,-0.34983 0.68567,-0.78711 1.11151,-1.268124 0.44027,-0.473729 0.88054,-0.998471 1.25586,-1.545077 0.77228,-1.064057 1.39299,-2.084392 1.34247,-2.550829 z m -46.69061,25.231354 c 0.5341,0.0656 1.08264,0.11661 1.60952,0.13846 0.53411,-0.007 1.03934,-0.0293 1.47239,-0.051 -0.54131,0.0144 -1.09707,-0.0144 -1.63117,-0.10202 -0.5341,-0.10202 -1.06099,-0.22593 -1.559,-0.34254 -0.98881,-0.23322 -1.85492,-0.44457 -2.475636,-0.37897 0.534096,0.37168 1.515686,0.60491 2.583896,0.73609 z M 101.20095,62.665292 c -0.43306,1.253549 0.0505,0.466437 0,0 z M 23.47469,93.406436 c -0.642365,-0.46644 -1.623959,-1.88762 -2.020926,-1.72728 0.353664,0.41542 0.245414,0.65593 0.562974,1.05677 0.223756,-0.45915 1.140377,0.87457 1.457952,0.67051 z M 86.173921,67.701355 c -0.166,0.757966 -0.98159,1.931346 -0.72898,2.412358 0.52688,-0.765248 0.82281,-1.52321 0.72898,-2.412358 z M 42.630183,9.9141336 c 0.461924,-0.123906 0.909413,-0.247813 1.328038,-0.357129 0.837241,-0.247774 1.558998,-0.502876 2.042579,-0.816259 -1.645609,0.488296 -3.608796,0.889148 -4.756393,1.6179544 0.469139,-0.153049 0.931067,-0.298804 1.385776,-0.4445664 z M 104.47773,48.067257 c 0.59906,0.327947 1.19813,0.612199 1.66005,1.311858 -0.0359,-1.246261 -0.43306,-1.406602 -0.62071,-2.332185 -0.54855,0.07288 -0.91664,0.378977 -1.03934,1.020327 z M 56.394131,8.4127866 c -1.19813,-0.02185 -3.06748,-0.634062 -4.21508,-0.03628 0.28147,0.64135 3.54384,0.612203 4.21508,0.03628 z m 42.85085,61.6571964 c 0.55575,-0.4883 1.558999,-3.031841 1.313609,-4.074038 -0.49081,1.115074 -1.508489,3.308793 -1.313609,4.074038 z M 78.176821,13.842411 c 0.77951,0.378976 1.5157,0.736098 2.23023,1.078636 0.70012,0.37172 1.40022,0.721519 2.10033,1.056773 -0.7362,-0.459149 -1.53013,-0.947453 -2.34572,-1.443041 -0.83724,-0.451862 -1.69613,-0.911019 -2.54059,-1.370161 -1.67448,-0.932874 -3.39948,-1.530498 -4.77805,-1.851165 1.03212,0.45915 1.98484,0.881864 2.87261,1.282696 0.88054,0.44457 1.69613,0.859993 2.46119,1.246262 z M 54.084501,7.4143196 c 1.01769,-0.09473 2.02093,-0.225927 3.00252,-0.284252 0.98881,-0.04373 1.94153,-0.08743 2.8726,-0.131163 -1.08986,-0.03628 -2.18693,-0.06558 -3.26235,-0.05829 -1.07542,0.05829 -2.1364,0.145755 -3.16852,0.247814 -0.51245,0.05829 -1.01768,0.116611 -1.5157,0.174897 -0.49801,0.08017 -0.97437,0.189489 -1.45073,0.291509 -0.93829,0.211375 -1.83327,0.451861 -2.65607,0.714231 2.06422,-0.393548 4.13567,-0.7944 6.17825,-0.954737 z"
   style="fill:url(#linearGradient1153);fill-opacity:1;fill-rule:nonzero;stroke:none;stroke-width:0.725275"
   id="path1155" />
        <path
   d="m 48.206991,38.739668 c 0,0 1.25975,-12.498877 11.95864,-12.498877 0,0 10.51118,-0.04783 11.3811,12.498877"
   style="fill:none;stroke:#cb233b;stroke-width:2.588;stroke-linecap:butt;stroke-linejoin:miter;stroke-miterlimit:10;stroke-dasharray:none;stroke-opacity:1"
   id="path1345" />
        <path
   d="m 71.438441,42.917535 c 0,0 13.79954,-4.261986 13.79593,4.210453 0,0 -0.54866,10.091853 -9.27309,21.081744"
   style="opacity:0.997;fill:none;stroke:#cb233b;stroke-width:2.136;stroke-linecap:butt;stroke-linejoin:miter;stroke-miterlimit:10;stroke-dasharray:none;stroke-opacity:1"
   id="path1357" />
        <path
   d="m 46.918388,38.607662 c 0,0 11.565198,-4.15155 25.920621,0 l 7.497163,41.938997 c 0,0 -17.993919,8.73743 -40.27605,0 l 6.85826,-41.938997"
   style="fill:#ec3846;fill-opacity:1;fill-rule:nonzero;stroke:none;stroke-width:0.364486"
   id="path1369" />
        <path
   d="m 72.839009,38.607662 c -14.355426,-4.15155 -25.920621,0 -25.920621,0 0,0 10.280174,4.368732 25.920621,0"
   style="fill:#cb233b;fill-opacity:1;fill-rule:nonzero;stroke:none;stroke-width:0.364486"
   id="path1371" />
        <path
   d="m 41.417339,72.258225 2.436488,-14.913276 -23.072639,-20.581198 -2.357079,1.891774 22.99323,33.6027"
   style="fill:#cb233b;fill-opacity:1;fill-rule:nonzero;stroke:none;stroke-width:0.364486"
   id="path1373" />
        <path
   d="m 13.612497,40.363281 5.381932,-0.806032 1.180347,-1.074709 1.176728,-1.07101 1.389706,-5.366148 c 0,0 -7.457463,-0.574151 -9.12871,8.317899"
   style="fill:#cb233b;fill-opacity:1;fill-rule:nonzero;stroke:none;stroke-width:0.364486"
   id="path1375" />
    </g>
</svg>
