<?xml version="1.0" encoding="UTF-8" standalone="no"?>
<svg
   xmlns:dc="http://purl.org/dc/elements/1.1/"
   xmlns:cc="http://creativecommons.org/ns#"
   xmlns:rdf="http://www.w3.org/1999/02/22-rdf-syntax-ns#"
   xmlns:svg="http://www.w3.org/2000/svg"
   xmlns="http://www.w3.org/2000/svg"
   version="1.1"
   id="svg885"
   xml:space="preserve"
   width="100"
   height="100"
   viewBox="0 0 100 100"><metadata
   id="metadata3707"><rdf:RDF><cc:Work
       rdf:about=""><dc:format>image/svg+xml</dc:format><dc:type
         rdf:resource="http://purl.org/dc/dcmitype/StillImage" /><dc:title></dc:title></cc:Work></rdf:RDF></metadata>
    <defs
   id="defs3695">
        <linearGradient
   x1="-0.39899999"
   y1="68.556999"
   x2="137.05499"
   y2="68.556999"
   gradientUnits="userSpaceOnUse"
   gradientTransform="matrix(-0.02627944,-0.17288944,-0.17121721,0.0265361,-43.896628,-658.53437)"
   spreadMethod="pad"
   id="linearGradient1111">
            <stop
   style="stop-opacity:1;stop-color:#6fd6ff"
   offset="0"
   id="stop1107" />
            <stop
   style="stop-opacity:1;stop-color:#bff0cf"
   offset="1"
   id="stop1109" />
        </linearGradient>
    </defs>
    <g
   id="g4714"
   style="display:inline"
   transform="translate(-7.0472769,-6.9394941)">
        <path
   d="m 83.994205,92.291366 c -0.50522,1.12237 -2.11475,1.46491 -3.33453,2.49981 -0.43305,0.22593 0.13713,-0.23322 0.95994,-0.82355 0.82281,-0.56847 1.8044,-1.39931 2.37459,-1.67626 z m 0.28869,5.18912 0.31035,0.43 c 0.80115,-0.51746 1.49404,-1.12237 1.30638,-1.45033 -0.41862,0.32798 -0.60627,0.59033 -0.78671,0.85999 -0.166,-0.15305 -0.33201,-0.25507 -0.83003,0.16035 z m 12.61635,-26.251685 c 0.32479,-0.954741 0.58463,-1.858464 0.54854,-2.456084 -0.8661,3.542008 -2.82208,7.623335 -4.07072,10.421962 0.46193,-0.845418 0.93829,-1.683552 1.36412,-2.550833 l 1.1476,-2.660152 c 0.30313,-0.7944 0.69289,-1.800155 1.01046,-2.754893 z m -8.27856,-50.805248 c 0.89498,0.663218 1.64561,1.4066 2.39624,2.084392 0.73619,0.692368 1.46517,1.348298 2.10754,2.018798 1.25586,1.377449 2.4684,2.616419 3.52217,3.862688 0.0218,0.02926 0.0505,0.05829 0.0722,0.08747 0.23097,0.619487 0.35366,1.209831 0.32478,1.756437 0.69289,0.874561 1.227,1.785572 1.77553,2.638285 0.5341,0.867285 1.0682,1.683548 1.522905,2.499815 0.0145,0.02185 0.0218,0.04373 0.029,0.05829 -0.007,0.08747 -0.0218,0.167641 -0.0145,0.269661 0.0577,0.01443 0.12269,0.02926 0.18044,0.04373 0.79393,1.515927 1.56622,2.915234 2.2158,4.278111 0.67846,1.486768 1.41465,2.871508 2.0931,4.248956 0.6568,1.384736 1.38578,2.73303 2.20137,4.110478 -0.51245,-1.406599 -1.1115,-3.060992 -1.75387,-4.846576 -0.75063,-1.727278 -1.44352,-3.607602 -2.28076,-5.429624 -0.25263,-0.524743 -0.49079,-1.05677 -0.7362,-1.588804 0.007,0 0.007,0.0074 0.0145,0.0074 -0.15156,-0.50288 -0.31034,-0.801692 -0.48357,-1.04949 -0.41862,-0.918299 -0.83725,-1.822018 -1.28474,-2.682011 0.76507,0.852705 1.559,1.698123 2.41067,2.536253 -0.85167,-1.224399 -1.85492,-2.66744 -2.937555,-4.219801 -0.22375,-0.276957 -0.44027,-0.568469 -0.66402,-0.859994 0,0 0,-0.0074 0,-0.0074 -0.37532,-0.801692 -0.75785,-1.559653 -1.06098,-2.295747 -0.83724,-0.145754 0.56297,1.078636 0.28147,1.275416 -0.40419,-0.539322 -0.80838,-1.078644 -1.23421,-1.610671 -0.79394,-1.093211 -1.56622,-2.142701 -2.39624,-3.082867 -0.59906,-0.714231 -1.19091,-1.399311 -1.77553,-2.047945 -0.18766,-0.196784 -0.38253,-0.378977 -0.57741,-0.561181 -0.60627,-0.699656 -1.1909,-1.399312 -1.73222,-2.077104 -0.5702,-0.677793 -1.13316,-1.311855 -1.61674,-1.945918 -0.88054,0.08017 0.96715,0.969313 0.57019,1.187956 -1.64561,-1.311854 -3.12522,-2.594559 -4.67701,-3.622177 -0.75785,-0.532038 -1.50847,-1.042198 -2.24467,-1.515923 -0.75063,-0.451869 -1.52291,-0.83813 -2.27354,-1.209823 1.71779,1.377449 3.53662,2.660153 5.09562,3.877263 1.54459,1.238959 2.67775,2.550814 2.93036,3.811655 z M 63.503465,8.9593926 c 0.95272,0.20408 1.84048,0.386273 2.68494,0.568473 0.85168,0.160346 1.65283,0.313395 2.43233,0.45915 0.77229,0.1749364 1.53735,0.3352424 2.30242,0.4664374 -0.83003,-0.247814 -1.72501,-0.5101674 -2.63442,-0.7871164 -0.92386,-0.218632 -1.87658,-0.43729 -2.80043,-0.655918 -1.85492,-0.459157 -3.68097,-0.590336 -5.08841,-0.539326 1.11873,0.174936 2.14363,0.335243 3.10357,0.4883 z M 102.93316,74.311661 c 0.30313,-0.969317 0.79395,-2.106259 1.19812,-3.243201 0.39698,-1.136942 0.60628,-2.295747 0.56298,-3.206758 -0.28147,1.049481 -0.62793,2.368628 -1.07542,3.534721 -0.42584,1.180672 -0.75063,2.252021 -0.68568,2.915238 z M 44.10257,8.5512616 c 0.938286,-0.298804 1.854919,-0.597632 2.735467,-0.881868 -1.068204,0.247813 -2.12919,0.510167 -3.168522,0.794404 -1.024898,0.342538 -2.028145,0.699663 -2.995305,1.071348 -0.483574,0.189489 -0.952721,0.378977 -1.421864,0.5684694 -0.454709,0.20408 -0.894983,0.437294 -1.320822,0.663217 -0.851676,0.451862 -1.652829,0.918299 -2.381805,1.384736 1.891008,-0.925594 3.789238,-1.858468 5.723553,-2.5362534 0.95994,-0.357129 1.898231,-0.750674 2.829298,-1.064053 z M 32.041972,14.323424 c 0.75063,-0.459149 1.37856,-0.896435 1.761093,-1.326438 -1.465172,0.896436 -3.255134,1.800159 -4.17899,2.805915 0.411405,-0.262366 0.822807,-0.532031 1.226993,-0.787116 0.411405,-0.240518 0.815591,-0.473718 1.190904,-0.692361 z m 52.313113,58.690957 c -0.22376,0.276957 -0.55575,0.772537 -0.90942,1.362873 -0.35366,0.59762 -0.8228,1.231682 -1.18368,1.916766 0.10103,0.189489 0.17322,0.502876 0.14434,0.102021 0.27426,-0.677793 0.99603,-1.289992 1.21978,-1.523211 -0.39697,0.539322 -0.87333,1.107791 -0.41141,1.289992 0.007,-0.160345 0.0578,-0.298804 0.12269,-0.437282 0.0218,0.04373 0.0359,0.08017 0.0794,0.123906 0.15157,0.02926 0.49802,-0.327986 0.75785,-0.750673 0.23819,-0.429995 0.4114,-0.903724 0.31757,-1.020331 -0.0722,0.182193 -0.23098,0.357129 -0.41141,0.532031 0.0505,-0.131203 0.0433,-0.25507 -0.065,-0.371682 -0.0505,0.15305 -0.17322,0.335243 -0.30313,0.517455 1.1115,-2.004226 1.08985,-2.295751 0.64236,-1.741853 z m 4.81414,-0.845418 c 0.36088,-0.808979 1.09707,-1.690835 0.52688,-2.244733 -0.332,0.932878 -0.64237,1.698128 -0.52688,2.244733 z m -26.06995,34.363327 c 0.51245,-0.14575 0.99602,-0.2988 1.40743,-0.43728 -0.51967,0.15305 -1.06099,0.27695 -1.60231,0.33524 -0.54131,0.0437 -1.08263,0.0583 -1.58786,0.0729 -1.01769,0.0293 -1.90544,0.051 -2.49007,0.28425 0.60627,0.21133 1.61674,0.18219 2.68495,0.0363 0.52687,-0.0729 1.06819,-0.1749 1.58786,-0.29151 z m 29.05081,-30.063357 c 0.065,0.109316 0.54132,-0.502879 0.93829,-2.237441 -0.37532,0.648638 -0.60628,1.187956 -0.75785,1.574224 -0.15878,0.371682 -0.21654,0.6122 -0.18044,0.663217 z m -7.77335,10.713483 c 0.64237,-0.93287 1.56622,-1.94592 1.67449,-2.79862 -0.48358,0.60491 -1.26308,1.33372 -1.81883,1.85846 -0.55576,0.53203 -0.89498,0.87457 -0.56297,0.64135 0.87332,-0.93287 0.12268,0.22593 0.70731,0.29881 z m 6.22878,-8.104348 c -1.03211,0.736094 -1.19812,2.179138 -2.33128,3.439978 1.1043,-0.0656 1.75388,-2.907948 2.33128,-3.439978 z M 33.066873,99.149456 c -0.245414,0.0875 -0.728976,0.051 -0.671238,-0.21138 -0.664015,-0.45914 -2.836513,-1.71269 -3.139654,-2.06252 -0.793933,-0.51017 -1.573436,-1.01305 -2.324062,-1.52321 -1.342473,-0.98389 -2.728252,-1.85118 -4.034637,-2.71846 0.555755,0.15305 1.089859,0.22593 1.847704,0.7361 -0.606277,-0.6122 -1.183685,-1.20254 -1.746658,-1.79287 -0.433055,-0.40813 -0.858895,-0.81627 -1.270296,-1.23169 -1.19812,-1.31185 -2.374585,-2.58727 -3.471659,-3.85539 -1.046551,-1.30457 -2.165279,-2.49982 -3.197396,-3.68049 0.498013,0.29151 0.996029,0.50288 1.595086,1.19525 -0.04331,-0.0802 -0.08659,-0.15305 -0.129906,-0.23323 -2.208587,-3.08285 -3.86863,-6.275038 -5.110057,-9.809759 -0.346444,0.182193 -0.01451,1.013044 0.368101,1.873041 -0.02903,0.532026 -0.339224,-0.291509 -0.692888,-1.268129 -0.368101,-0.962029 -0.642365,-2.128122 -0.923852,-2.171852 0.425836,0.08017 0.440275,-0.575757 0.230976,-1.654393 -0.115469,-0.50288 -0.245414,-1.115079 -0.382532,-1.785584 -0.6423701,-2.354049 -1.0682051,-4.722677 -1.2630811,-7.186053 -0.259814,0.05829 -0.288691,0.510167 -0.230975,1.085928 0.02903,0.196784 0.05053,0.386272 0.07941,0.590336 0.01451,0.07288 0.02177,0.145754 0.0359,0.225927 -0.10103,0.3061 -0.173222,0.10202 -0.230975,-0.335243 -0.346444,-0.444574 -0.173222,-2.186427 -0.649584,-3.622177 -0.303129,0.357129 -0.223757,1.348293 -0.382533,1.938629 -0.830021,-2.098967 0.793938,-2.827777 0.562974,-5.349455 -0.238195,0.240518 -0.339225,0.801691 -0.360883,1.515923 -0.180441,-0.247775 -0.180441,-0.881857 -0.526881,-0.765249 0.115469,-2.849645 0.490797,-5.713857 1.111508,-8.548923 -0.05053,0.116612 -0.10103,0.225927 -0.151564,0.320691 -0.122688,-1.027622 0.18766,-1.639821 0.591842,-2.244733 0.158784,-0.619487 0.346444,-1.23169 0.526882,-1.843885 -0.01452,-0.233223 -0.0359,-0.451862 -0.259814,-0.444574 2.0642331,-6.683174 5.6297231,-13.060248 10.4222041,-18.489872 1.234208,-1.392032 2.547811,-2.718462 3.933591,-3.979295 0.902199,-0.874569 1.826051,-1.727282 2.785991,-2.550829 0.252633,-0.145754 0.526885,-0.320691 0.793933,-0.488304 0.505236,-0.823551 2.490073,-1.771004 3.529405,-2.594559 -0.07937,0.145754 -0.230975,0.306099 -0.41862,0.459149 2.208582,-1.450329 4.525429,-2.754896 6.950541,-3.899122 0.281472,-0.07288 0.591843,-0.174936 0.887764,-0.262366 0.649584,-0.612199 2.533373,-0.998467 3.774803,-1.464896 -0.84446,0.211335 -1.645612,0.269661 -1.847707,0.01443 0.952724,-0.874569 2.923124,-0.772537 4.085159,-1.0640694 -0.245414,0.3571294 -1.125947,0.7506734 -2.013711,0.9984674 -0.606277,0.539319 -2.432327,0.889148 -3.673754,1.428467 0.10825,-0.03628 0.202099,-0.05833 0.310348,-0.09476 0.54132,-0.145754 1.118728,-0.3061 1.71779,-0.466437 1.198119,-0.3061 2.453981,-0.772537 3.832541,-1.049486 1.371346,-0.291508 2.785991,-0.677785 4.258381,-0.8818644 1.472391,-0.189488 2.959213,-0.429999 4.438823,-0.488304 1.176462,-0.07288 2.352932,-0.09473 3.529402,-0.07288 0.007,0 0.0218,0 0.029,0 0.0433,0 0.0866,0 0.1227,0 0.15157,0 0.31035,0 0.46192,0.0074 5.08119,0.02185 10.19125,0.7215314 15.09199,2.3467654 10.15515,3.286927 19.4514,9.94095 25.55028,19.437326 -0.17322,-0.01443 -0.35366,-0.109316 -0.55575,-0.3061 1.44352,2.106255 2.72825,4.336409 3.825325,6.683174 0.38253,0.670504 0.76506,1.341005 1.14038,1.996935 0.27426,0.502879 0.55575,0.99118 0.79393,1.501343 0.22376,0.510164 0.44027,1.027622 0.64237,1.545078 -0.41862,-0.349834 -0.7723,-1.056774 -1.16203,-1.814735 -0.0577,-0.10202 -0.10825,-0.204079 -0.166,-0.3061 0.31035,0.808976 0.60627,1.617955 0.87333,2.448797 -0.25986,-0.09476 -0.49802,-0.357129 -0.69289,-0.99118 0.007,0.04373 0.0218,0.08747 0.0359,0.131203 0.10103,0.291508 0.20932,0.583048 0.30313,0.889144 0.28869,0.867285 0.58462,1.756433 0.87333,2.616422 0.23819,0.874569 0.43306,1.727278 0.59906,2.485239 -0.31756,-0.808979 -0.59185,-1.712698 -0.92385,-2.667444 0.31757,1.166097 0.66402,2.303039 1.03934,3.432689 0.29591,1.129655 0.59185,2.244733 0.88054,3.337945 0.12991,0.553898 0.28147,1.100504 0.37532,1.654393 0.0866,0.553898 0.16601,1.107788 0.22376,1.654393 -0.31757,-0.451861 -0.47636,-1.21711 -0.6568,-2.062528 -0.20932,-0.83813 -0.39697,-1.756433 -0.64237,-2.507103 0.0577,1.173381 0.33922,2.871508 0.42584,4.70081 0.0578,0.911011 0.11547,1.851177 0.17322,2.754897 0.007,0.903723 -0.0218,1.778296 -0.0577,2.558116 -0.13714,-1.17338 -0.15157,-2.499811 -0.30314,-3.935564 -0.14435,-1.428463 -0.13713,-2.966248 -0.38973,-4.51861 -0.46916,1.224399 -0.68568,3.002695 -0.8156,4.766408 -0.0359,0.437286 -0.0722,0.88186 -0.10825,1.311858 -0.0722,0.429995 -0.13712,0.845422 -0.2021,1.246262 -0.14434,0.801688 -0.31756,1.515923 -0.55576,2.077104 0.12991,-0.3061 -0.0794,-0.400844 -0.35366,-0.291509 0.0359,0.918299 -0.32479,2.456085 -0.36088,3.439977 -0.26703,-0.568469 0.0939,-2.142697 0.21654,-3.359808 -0.23098,0.145754 -0.47637,0.415419 -0.60627,0.83813 -0.029,0.07288 -0.0505,0.138459 -0.0722,0.20408 -0.007,-0.09476 -0.0433,-0.174898 -0.10824,-0.218632 0.15878,0.109316 -1.08264,1.501347 -0.9022,0.25507 -0.346445,1.515923 -0.779495,2.915234 -1.226995,4.227089 -0.51244,1.289992 -1.10428,2.485239 -1.68169,3.636753 0.27425,-1.289992 1.34969,-3.359808 1.78996,-5.487926 0.56298,-2.098971 0.56298,-4.161496 -0.46192,-4.934032 -0.64959,0.750669 -1.24143,1.515922 -1.76831,2.558116 -0.58462,1.03491 -0.97437,2.383204 -1.33525,4.29997 -0.34645,0.09476 -0.75063,-0.01444 -1.01769,0.400844 -0.27425,-0.109316 0.54132,-1.209819 0.47637,-2.142693 -0.0578,-0.335243 -0.34645,-0.393557 -0.18766,-0.99118 -0.0938,0.02185 -0.18044,0.08017 -0.25982,0.138458 -0.0722,0.670505 -0.18044,1.588804 -0.20209,2.237446 -0.31757,0.04373 -0.27426,-0.313395 -0.21654,-0.68508 -0.38975,1.085924 -0.5341,1.909478 -0.75063,2.747608 -0.18766,0.845418 -0.32479,1.74185 -0.69289,2.944385 -0.29591,-0.269661 -0.48357,0.284252 -0.68566,0.721523 0.24537,-1.1005 0.58461,-2.674728 1.14037,-4.25624 0.28147,-0.787116 0.46193,-1.625246 0.72176,-2.397783 0.10103,-0.342538 0.21654,-0.677792 0.33201,-1.005755 -0.23098,0.276957 -0.44027,0.612199 -0.68567,0.859993 -0.15157,-0.68508 1.54456,-2.412358 0.10103,-2.740317 -0.50523,-0.02926 -0.51967,1.180668 -0.69289,2.004223 -0.37532,-0.116611 -0.24541,-0.801692 -0.10103,-1.52321 -0.54132,0.07288 -0.93107,0.349833 -1.20534,0.291508 -0.0722,0.510167 -0.2021,0.976605 -0.29591,1.14423 -0.12991,-0.08017 -0.11547,-0.313395 -0.28869,-0.349834 -0.77228,3.593027 -0.28869,-0.116611 0.23097,-1.311855 0,-0.0074 -0.007,-0.01443 -0.007,-0.02926 -0.60628,0.65593 -0.87332,1.049482 -1.09707,1.464905 -0.20932,0.415419 -0.41862,0.845418 -0.93107,1.501347 -0.12991,-0.240518 0.0218,-0.670505 0.2021,-1.122367 0.15878,-0.459149 0.37532,-0.932874 0.46914,-1.224398 -0.12269,-0.3061 -0.25263,-0.604915 -0.38975,-0.889148 -0.62793,0.400844 -0.166,2.142697 -0.59184,2.332186 -0.23819,-0.08017 -0.47637,-0.15305 -0.58463,0.138458 -0.15156,-0.663217 0.79394,-1.574228 0.87333,-2.784047 -0.24541,0.02185 -0.50523,1.027619 -0.34644,-0.05103 -0.39697,0.298804 -0.35366,1.56694 -0.69289,1.996935 -0.065,-0.604912 -0.0218,-1.8949 0.11547,-2.856925 -0.44027,-0.233222 -0.42584,0.473725 -0.64236,0.685077 -0.12269,0.539322 0.007,0.816267 0.39696,0.83813 -0.66401,0.816267 -1.25585,0.874572 -1.58065,1.734565 -0.57019,0.313396 -0.065,-1.122366 -0.45471,-0.357129 -0.28869,-0.429994 -0.11547,-1.457617 0.11551,-2.507098 0.0577,-0.262366 0.10825,-0.524743 0.15878,-0.779825 0.029,-0.25507 0.0433,-0.502879 0.0505,-0.736098 0.007,-0.342538 -0.007,-0.634062 -0.0794,-0.852706 -0.0577,0.881857 -0.15878,1.756429 -0.28869,2.638286 -0.0145,0.09476 -0.029,0.196784 -0.0433,0.291508 -0.0433,0.269661 -0.0938,0.532031 -0.14435,0.801688 -0.0505,0.269661 -0.10103,0.539322 -0.15156,0.808979 -0.0218,0.09472 -0.0433,0.182193 -0.065,0.276957 -0.44028,1.975072 -1.06822,3.877259 -1.86936,5.684706 -0.0218,0.04373 -0.0433,0.08747 -0.0578,0.131202 -0.18044,0.400844 -0.3681,0.801688 -0.56296,1.18796 -0.065,0.131202 -0.12991,0.25507 -0.19488,0.378977 -0.15157,0.298804 -0.31035,0.597619 -0.47637,0.889144 -0.11547,0.204079 -0.23097,0.400847 -0.35366,0.604915 -0.12269,0.204079 -0.24538,0.415419 -0.3681,0.619483 -0.0433,0.07288 -0.0866,0.145754 -0.12991,0.211375 0.0722,0.05103 0.24538,-0.15305 0.51245,-0.663213 0.21654,0.583044 -0.87333,1.443041 -1.18368,1.800155 0.84445,0.779828 1.09706,-0.976601 1.66726,-1.217107 -0.21654,1.217107 -1.393,2.055241 -1.66006,3.046421 0.27426,-0.225927 0.9383,-1.027623 1.56622,-1.93863 -0.21653,0.532027 -0.35366,1.217111 -0.57019,1.873037 -0.0505,0.153049 -0.10825,0.306099 -0.18044,0.444574 0.38253,-0.408136 0.76507,-0.787117 1.00325,-1.085928 0.007,0.08747 -0.0145,0.174897 -0.029,0.262365 0.029,-0.01444 0.0505,-0.04373 0.0794,-0.05829 -0.0359,1.38474 -1.85492,2.171852 -2.31685,3.797092 0.48358,0.13846 0.48358,-1.100497 1.14038,-1.093213 -0.20932,-0.138459 0.15879,-0.6122 0.65681,-1.1005 0.50523,-0.4883 1.06099,-1.078636 1.38577,-1.311855 -0.75784,1.399312 -1.559,2.295747 -2.30241,3.279638 -0.36088,0.50288 -0.7795,0.96932 -1.23421,1.48677 -0.44027,0.53203 -0.92385,1.11508 -1.47961,1.78558 1.36413,-1.31914 2.80043,-1.88032 4.40274,-3.644042 -1.26308,0.473732 0.35366,-0.692368 0.83724,-0.736094 -0.15879,-0.422711 0.24541,-1.071348 0.80115,-1.78558 0.13712,0.102021 -0.0794,0.35713 -0.166,0.553894 2.28075,-2.288459 3.76758,-5.808605 5.35545,-9.948241 -0.13713,0.72881 -0.31035,1.450333 -0.49802,2.164564 -0.21654,0.706943 -0.51244,1.377448 -0.78671,2.047953 -0.0866,0.225927 -0.18766,0.437283 -0.28147,0.648638 0.26703,-0.451858 0.5341,-0.823555 0.7001,-0.859993 0.20932,-0.408136 0.0218,-0.517451 0.14435,-0.859994 0.24537,-0.145754 0.166,0.437283 -0.029,1.122367 -0.18766,0.685076 -0.59907,1.413887 -0.78672,1.610663 -0.10103,-0.109316 -0.029,-0.335243 -0.18766,-0.408132 -0.88055,1.727275 -0.89498,1.566941 -0.59906,0.889148 -0.30313,0.539319 -0.62071,1.056774 -0.92385,1.574225 -0.32479,0.583048 -0.71455,1.100499 -1.07542,1.617958 -0.15879,0.3061 -0.31035,0.612199 -0.48359,0.911007 -0.38974,0.619487 -0.84445,1.195248 -1.28473,1.771009 -0.25263,0.34983 -0.51966,0.6705 -0.80115,0.98389 -0.11547,0.18949 -0.23097,0.37168 -0.332,0.56118 0.72897,-0.71423 1.40743,-1.37744 2.02093,-2.055238 0.2021,-0.378976 0.4908,-0.7944 0.8228,-1.275416 0.0433,0.06558 0.0577,0.131202 0.0722,0.196784 0.007,-0.0074 0.0145,-0.01444 0.0218,-0.02926 0.41862,-0.539318 0.8228,-1.064057 1.22699,-1.5888 0.3681,-0.553894 0.70733,-1.129654 1.06821,-1.712699 1.42909,-2.332189 2.68494,-5.116237 3.76758,-9.197564 0.007,0.903724 -0.20932,1.858461 -0.50522,2.842353 -0.28148,0.983893 -0.6135,2.011511 -1.08264,2.980828 -0.81559,1.996935 -1.89823,3.8554 -2.51895,5.648267 -0.21653,0.167641 -0.24541,0.06558 -0.34644,-0.02926 -0.0433,0.06558 -0.0794,0.138459 -0.12269,0.20408 -0.52689,0.881856 -1.10429,1.778292 -1.81162,2.594555 -0.31757,0.42272 -0.64958,0.83085 -0.98881,1.23169 0.3681,-0.21863 0.76506,-0.35713 0.59184,-0.53203 0.69289,-0.53932 0.20932,0.64864 -0.15156,1.01304 0.40418,0.007 1.05376,-0.41542 0.54132,0.45915 0.37532,0.19679 0.89498,-0.46643 1.32082,-0.48101 0.0794,-0.25507 0.18044,-0.4883 0.41862,-0.83084 l 0.69289,-1.013046 c 0.43305,-0.801688 0.9455,-1.698124 1.54456,-2.587268 0.47637,-0.68508 0.8589,-1.450333 1.3136,-2.128125 0.42584,-0.699656 0.9022,-1.333718 1.26308,-1.924055 0.166,-0.160345 -0.68566,1.792872 -1.03211,2.929814 -0.0794,-0.0074 -0.12991,-0.03628 -0.15879,-0.08017 -0.46193,1.319143 -1.3136,2.514387 -2.61277,4.29268 -0.0433,0.0656 -0.0722,0.1312 -0.11547,0.19678 -0.007,-0.007 -0.0145,-0.007 -0.0145,-0.0144 -0.0359,0.051 -0.065,0.0948 -0.10825,0.14575 0.029,-0.0583 0.0505,-0.10931 0.0794,-0.16764 -0.15878,-0.16764 -0.35366,0.0144 -0.56297,0.26966 -0.62793,1.54508 -1.41465,2.64558 -2.20858,3.82625 -0.44749,0.56118 -0.90942,1.13694 -1.40743,1.77101 -0.49802,0.64135 -1.01769,1.36287 -1.67448,2.12812 -1.14759,-0.051 -1.99206,2.12083 -3.68098,2.9954 0.24542,-0.14575 1.16204,-0.40813 2.0065,-0.85271 0.41862,-0.24777 0.81558,-0.53202 1.10429,-0.84542 -0.18766,0.0875 -0.3681,0.13121 -0.54854,0.10202 0.3681,-0.24051 0.67846,-0.51016 0.95272,-0.78711 0.0218,-0.0947 0.0359,-0.18219 0.029,-0.27696 0.166,-0.0875 0.24541,-0.0875 0.28869,-0.051 0.62071,-0.6705 1.11151,-1.31914 1.86214,-1.59609 -0.43306,0.22593 -1.11151,1.28999 -1.82605,2.0188 0,0.0144 0.007,0.0293 0.007,0.0363 0.62071,-0.72152 0.70733,-0.86728 1.34969,-0.90372 0.31757,-0.40085 -0.4114,-0.0437 -0.007,-0.48831 0.51967,-0.19678 1.00325,-0.36438 2.0931,-1.20982 0.20932,-0.21134 0.42584,-0.40813 0.62793,-0.62678 -0.15156,-0.14575 -0.38974,0.0437 -0.64958,0.27696 1.3136,-1.26813 2.54059,-2.67473 3.69542,-4.19065 -0.13713,0.0802 -0.27425,0.0947 -0.38975,-0.0144 0.47636,-0.58305 0.8661,-1.23169 1.2775,-1.86576 0.007,0.15305 -0.14434,0.69966 -0.3681,1.18796 2.41068,-3.316073 4.44604,-7.17876 6.01226,-11.617205 0.51966,0.0074 -0.67124,1.668973 -0.16601,1.690836 0.72898,-0.932874 1.20534,-3.46184 1.58066,-5.079794 -0.55576,-0.444574 -0.50523,1.224398 -0.76507,1.865748 -0.43305,0.743386 0.31035,-2.703878 0.62072,-2.907946 0.33922,0.561181 0.20931,1.712699 -0.0794,3.009982 -0.36811,1.275412 -0.90942,2.689299 -1.24143,3.877259 -0.0794,-0.218631 -0.15878,-0.429995 -0.39697,-0.495588 -0.0938,0.313395 -0.20932,0.626775 -0.33922,0.932874 0.3681,0.145755 0.40418,-0.06558 0.56297,0.94745 -0.0505,0.25507 -0.19488,0.393556 -0.35366,0.481013 -0.0578,0.153049 -0.11547,0.306099 -0.18766,0.466437 -0.33201,0.765249 -0.89499,1.581516 -1.07543,2.171848 0.0145,-0.539318 0.15157,-0.940162 0.33923,-1.333718 -0.17322,0.02926 -0.31035,-0.05829 -0.67124,0.524743 0.12269,0.64135 -0.27425,1.66168 -0.85168,2.791335 -0.68566,1.136946 -1.57343,2.361346 -2.19414,3.418116 -0.0145,-0.14576 -0.0359,-0.28426 -0.0938,-0.40085 -0.18045,0.24778 -0.36089,0.49559 -0.54132,0.74339 0.15878,0.0947 0.19488,0.16764 0.11546,0.94016 -0.39696,0.80898 -1.52291,0.0219 -0.96715,0.94745 -0.67845,0.6705 -0.71454,0.37898 -0.98159,0.43 -0.75785,0.96931 -1.4363,1.87303 -1.91989,2.59456 -0.0145,-0.10202 -0.0505,-0.15305 -0.0938,-0.1749 -0.6568,0.69965 -1.47961,1.50135 -2.44676,2.25202 -0.54854,0.44457 -1.10429,0.89644 -1.66726,1.3483 -0.007,0.007 -0.0145,0.0144 -0.0218,0.0144 0.18044,0.0437 0.40419,0.10202 0.13713,0.48102 0.2021,0.11661 0.4114,-0.0219 0.60628,-0.22593 -0.029,0.0144 -0.0578,0.0363 -0.0938,0.0656 0.0577,-0.36443 0.31034,-0.54661 0.61349,-0.69237 0.12269,-0.1312 0.22376,-0.20408 0.30313,-0.1312 0.34644,-0.13846 0.71454,-0.28425 0.98159,-0.57576 0.065,0.4883 -0.48358,0.63407 -0.89498,0.75796 0,0.007 0.007,0.007 0.007,0.0144 -0.166,0.13846 -0.28147,0.25507 -0.38253,0.35713 0.029,0.0293 0.0577,0.0656 0.10825,0.10931 -0.10825,0.0729 -0.18766,0.0802 -0.26704,0.0656 -0.31756,0.38627 -0.24537,0.53931 -0.54854,0.80897 -0.48358,0.19679 -0.83724,0.10202 -1.06099,-0.28425 -0.85889,0.58305 -0.97437,0.96932 -1.04655,1.4066 0.92386,-1.2827 0.2382,0.3061 1.46517,-0.83813 0.0505,0.20408 -0.44748,0.51746 -0.32478,0.69966 0.85889,-0.23323 2.20137,-1.61067 3.13965,-2.09168 -1.11873,1.0422 -2.54059,2.41964 -3.86141,3.39624 -1.29195,1.01305 -2.28798,1.9022 -2.35294,2.21558 0.065,0.43729 -1.74666,0.6122 -0.48358,-0.13846 -0.51967,0.16035 -2.23023,1.80745 -3.87584,2.3905 0.50522,0.0437 1.11872,-0.10202 0.61349,0.51016 1.50847,-0.45915 1.05377,-0.51745 2.14362,-1.27541 -0.10103,0.21137 -0.19488,0.42999 -0.0722,0.64135 0.95273,-0.71423 0.45471,-0.75067 1.58066,-0.85271 -3.5727,2.200994 -8.34353,4.154204 -13.32367,5.276564 -2.42518,0.63407 -4.97299,0.88186 -7.40532,1.07864 -1.21256,0.0363 -2.41068,0.051 -3.55828,0.051 -1.15481,0.0219 -2.251888,-0.13846 -3.305659,-0.21138 -0.368101,0.26967 -0.801152,-0.0947 -1.320822,-0.36438 -0.461924,-0.0583 -0.909414,-0.1312 -1.364123,-0.20408 -0.07941,0.16764 0.461924,0.53932 -0.562973,0.27696 -0.346444,-0.20408 -0.894983,-0.41543 -1.559002,-0.63407 -0.108249,-0.0219 -0.216537,-0.0363 -0.324786,-0.0583 -1.183685,-0.28425 -2.338501,-0.58304 -3.45001,-0.88186 -1.118723,-0.27695 -2.143625,-0.72152 -3.139649,-1.07135 -0.461928,0.1822 -0.801153,-0.38627 -1.29195,-0.80168 -0.375321,-0.15305 -0.757849,-0.3061 -1.133162,-0.466444 -0.180441,0.10931 0.324786,0.677794 -0.627931,0.13846 -0.310348,-0.3207 -0.851675,-0.70695 -1.522914,-1.13695 -0.173222,-0.0875 -0.353663,-0.16764 -0.519666,-0.26236 -0.837241,-0.43729 -1.645609,-0.85271 -2.389023,-1.26813 -0.714546,-0.45186 -1.371345,-0.88186 -1.948753,-1.26813 1.934314,1.48677 3.883068,2.57999 5.774075,3.69506 1.970403,0.954744 3.897503,1.967794 6.084432,2.638294 -3.016951,-0.61949 -5.810157,-1.85846 -8.401271,-3.243204 z M 94.705115,74.836403 c 0.0505,-0.109315 0.10103,-0.225927 0.15156,-0.342538 -0.19488,0.06558 -0.30313,0.131203 -0.15156,0.342538 z m -13.77117,10.013833 c -0.065,0.0656 -0.13713,0.1312 -0.2021,0.20408 0.12269,0.0363 0.2382,0.0293 0.36088,0.007 -0.0722,-0.0293 -0.0866,-0.12391 -0.15878,-0.21134 z M 11.03156,43.308143 c 0.129907,-0.429994 0.252595,-0.83813 0.332006,-1.202535 -0.151565,0.364386 -0.288691,0.714235 -0.42584,1.064061 0.02903,0.08747 0.05775,0.138459 0.09385,0.138459 z m 66.495685,48.903053 c -0.38253,0.37169 -0.86611,0.7361 -1.32082,1.1005 0.0218,0.0293 0.029,0.051 0.065,0.0802 0.75785,-0.38628 1.6384,-0.92559 1.4363,-1.31186 -0.0505,0.0363 -0.11546,0.0875 -0.18044,0.1312 z m -5.16058,3.22863 c 0.14434,-0.11662 0.26707,-0.24052 0.35366,-0.37898 -0.23097,0.10931 -0.48358,0.21863 -0.80837,0.31339 0.12269,0.0583 0.28147,0.0729 0.45471,0.0656 z m 0.70732,-0.22593 c 0.0218,-0.0144 0.0433,-0.0218 0.0722,-0.0293 0.23098,-0.16035 0.40418,-0.26966 0.55576,-0.35713 0.0359,-0.0293 0.0794,-0.051 0.11547,-0.0875 0.67845,-0.53931 1.29916,-1.21711 1.63117,-1.51592 -1.20533,0.51017 -1.52291,1.09321 -2.28797,1.58881 0.007,0.10202 -0.10103,0.27695 -0.0866,0.40084 z m 4.92962,-0.34983 c 0.63515,-0.40814 1.08264,-0.74339 0.6568,-0.65593 -0.57741,0.47372 -1.14759,0.67779 -1.60231,0.85271 -0.44749,0.18948 -0.77949,0.37897 -0.92385,0.81626 0.34645,-0.21863 1.21256,-0.63406 1.86936,-1.01304 z m 1.41465,-0.0875 1.98483,-1.34101 -0.20931,-0.29151 c -0.56298,0.55389 -2.36738,1.20982 -1.77554,1.63253 z m 14.06708,-17.666324 c -0.0218,-0.02926 -0.0433,-0.02926 -0.065,-0.05103 -0.11547,0.313395 -0.28147,0.685077 -0.50523,1.107787 -0.46914,0.911012 -1.12594,2.047957 -1.9704,3.163037 0.87333,-0.91102 1.84048,-2.900663 2.54059,-4.21981 z m -9.82314,5.159964 c -0.0218,-0.0656 -0.0145,-0.1312 -0.007,-0.18949 -0.84445,0.98389 -1.67448,1.93135 -2.32406,2.90066 0.34645,-0.16764 0.70011,-0.53203 1.07542,-0.96931 0.28869,-0.34984 0.62071,-0.72881 0.93107,-1.13695 0.31035,-0.40813 0.64237,-0.81626 1.01768,-1.1588 -0.18766,-0.10202 -0.44749,0.3061 -0.69289,0.55389 z m 3.03139,-4.941321 c -0.0433,0.138459 -0.12991,0.313395 -0.23819,0.517455 0.11546,-0.167641 0.23097,-0.342538 0.34644,-0.517455 -0.0359,0 -0.065,-0.0074 -0.10825,0 z m -5.0451,0.597624 c -0.23819,0.218631 -0.47636,0.444574 -0.70732,0.692368 0.28147,-0.06558 0.4908,-0.349834 0.70732,-0.692368 z m -0.89498,0.663213 c -0.0145,0.0074 -0.0218,0.02185 -0.0359,0.02926 0.007,0 0.0145,0 0.0218,0 0,-0.0074 0.007,-0.02185 0.0145,-0.02926 z M 42.536353,11.881923 c -0.916633,0.291509 -1.645609,0.583048 -1.566218,0.612191 0.0073,0 0.01452,0 0.02177,0 0.664015,-0.25507 1.176465,-0.451865 1.544563,-0.612191 z M 31.760485,16.36409 c -0.230975,0.08017 -0.721757,0.364424 -1.342472,0.808975 0.649584,-0.378977 1.089854,-0.64135 1.35691,-0.816263 -0.0073,0.0074 -0.0073,0.0074 -0.01451,0.0074 z m -4.676998,2.244729 c 0.05053,-0.03628 0.10103,-0.05832 0.151565,-0.09472 0.317567,-0.233222 0.649584,-0.459149 0.967159,-0.685088 -0.396971,0.25507 -0.786718,0.517455 -1.118728,0.779825 z M 8.2166969,59.917691 c 0.216537,-0.15305 0.332005,-0.714235 0.389751,-1.523206 0.02903,-0.685081 0.07219,-1.552361 0.122688,-2.514387 -0.0073,-0.25507 -0.02903,-0.4883 -0.07219,-0.670501 0.0359,0.09472 0.07219,0.145755 0.10103,0.196784 0.02177,-0.400847 0.05053,-0.808979 0.07941,-1.224402 -0.259814,0.08747 -0.07219,-1.523206 0.288691,-3.687767 0.09385,-0.481016 0.216537,-0.99118 0.339225,-1.515923 0.151564,-0.911011 0.368101,-1.705411 0.5990611,-2.354056 0.04331,-0.182193 0.09381,-0.364386 0.137127,-0.546606 0.02177,-0.08017 0.04331,-0.160345 0.07219,-0.240518 -0.4330591,0.400844 0.324787,-1.260845 0.555754,-2.383204 -0.209317,0.539319 -0.41862,1.071349 -0.60628,1.581513 -0.3320061,0.932874 -0.5557551,1.843885 -0.8011531,2.718461 -0.216537,0.845418 -0.44027,1.668969 -0.599058,2.47066 -0.02903,0.218632 -0.05775,0.422711 -0.08659,0.648638 -0.0073,0 -0.0073,-0.0074 -0.01451,-0.01444 -0.10103,0.64135 -0.202098,1.275413 -0.281471,1.909479 -0.09385,0.816267 -0.216537,1.625246 -0.252633,2.456088 -0.02177,0.830843 -0.0359,1.668973 -0.02903,2.543542 -0.02177,0.69236 0.0073,1.413879 0.05775,2.149977 z M 33.745323,100.67267 c -0.736192,-0.28425 -2.057011,-1.399314 -2.396239,-1.136944 0.447489,0.3061 0.411401,0.568474 0.815587,0.874574 0.09385,-0.510174 1.320819,0.53932 1.580652,0.26237 z M 94.741205,72.066932 c 0.10825,-0.546606 0.10825,-1.166093 0.065,-1.319147 -0.23098,0.721523 -0.44027,1.450333 -0.75785,2.13541 0.32479,0.16764 0.58463,-0.269662 0.69289,-0.816263 z m 3.13965,-9.700444 c 0.0794,0.911011 -0.0505,1.574224 -0.18044,2.171848 -0.15157,0.597624 -0.26703,1.129654 -0.0938,1.843886 0.0218,-0.6122 0.35366,-1.545074 0.47636,-2.375916 0.12991,-0.830839 0.16601,-1.537786 -0.20209,-1.639818 z m -12.71018,9.729594 c 0.34644,-1.326434 1.71057,-2.383207 1.37134,-3.316081 -0.36088,0.852709 -1.45795,2.375919 -1.37134,3.316081 z m 2.14362,-5.764878 c -0.0505,0.663217 -0.98881,1.996939 -0.28147,2.077104 -0.18044,-0.874569 0.82281,-1.719987 0.28147,-2.077104 z m 9.74375,19.692412 c 0.54132,-0.86 1.30639,-1.82931 1.99206,-2.82049 0.67123,-0.99118 1.176465,-2.05524 1.364125,-2.95167 -0.541315,0.94016 -1.212545,2.12812 -1.948745,3.13387 -0.70733,1.03491 -1.29196,1.98236 -1.40744,2.63829 z m -23.11073,17.571574 c -0.12269,-0.18949 -0.25263,-0.32795 -0.83724,-0.0583 l 0.18766,0.49558 c 0.90941,-0.29151 1.73222,-0.69236 1.63839,-1.06406 -0.4908,0.20408 -0.74342,0.41543 -0.98881,0.62678 z m 24.27276,-26.907613 c 0.33201,-1.093212 1.29195,-2.820486 1.27753,-3.629466 0.46913,-1.231686 0.808355,-2.375915 0.642355,-2.813202 -0.245375,0.7944 -0.678455,1.967785 -1.089855,3.12659 -0.41862,1.151517 -0.93829,2.252017 -1.11873,3.024557 0.18766,-0.415423 0.46193,-0.940166 0.75063,-1.515922 0.10103,-0.189489 0.19488,-0.39356 0.29591,-0.590336 -0.40418,0.940162 -0.84446,1.909474 -0.75785,2.397779 z m -10.63873,6.690459 c -0.52689,0.53203 -0.88777,0.99118 -1.13316,1.31914 -0.25985,0.3207 -0.3681,0.53203 -0.34644,0.59763 0.029,0.12391 0.64237,-0.34254 1.47961,-1.91677 z m -1.00324,4.86844 c 1.16203,-1.43575 2.69216,-3.25777 4.10681,-5.18183 -0.10825,0.007 -0.20932,0.0219 -0.33922,0.20408 -0.0794,-0.85271 1.05377,-1.04219 1.4796,-1.85117 0,0.007 0,0.0144 0.007,0.0218 0.4908,-0.7361 0.95995,-1.472194 1.35691,-2.201005 -0.12269,0.583049 -0.59907,1.392025 -1.16204,2.230155 -0.0577,0.0875 -0.11546,0.16764 -0.17322,0.25507 -0.029,0.12391 -0.11547,0.24052 -0.22375,0.33524 -0.4475,0.64864 -0.90943,1.27542 -1.29196,1.80745 l -1.78996,2.26659 c -0.62793,0.72882 -1.30639,1.41389 -1.9704,2.11355 z m 4.28725,-5.42233 c 0.10825,-0.15305 0.21653,-0.3061 0.32478,-0.45915 -0.27425,0.16764 -0.48357,0.3061 -0.32478,0.45915 z M 52.272884,105.46823 c -0.707322,-0.0144 -1.024897,-0.0729 -1.010462,-0.18219 0.490793,0.0802 1.010462,0.15305 1.551782,0.23322 -0.05775,0.051 -0.129907,0.0875 -0.180441,0.15305 1.291952,0.051 2.728252,0.18219 4.243942,0.16035 1.5157,0.0144 3.118,0.0656 4.69144,-0.0948 1.58065,-0.11661 3.1613,-0.24777 4.5976,-0.59762 1.44352,-0.32069 2.80765,-0.61949 3.90473,-1.13694 -1.11873,0.18219 -2.30242,0.37898 -3.50054,0.56847 0.83725,-0.1749 1.71779,-0.37168 2.61999,-0.62677 1.47239,-0.38628 3.02417,-0.75068 4.511,-1.31915 1.49404,-0.52474 2.98808,-1.07135 4.28725,-1.77829 1.3136,-0.68508 2.5478,-1.333724 3.47887,-2.120834 -4.04185,1.836594 -8.85598,4.095904 -12.91949,4.795554 0.25985,-0.11661 0.70011,-0.21133 0.65681,-0.38627 -0.54854,0.45186 -1.48683,0.68508 -2.34572,0.83084 -0.78672,0.14576 -1.47239,0.32799 -1.73223,0.80898 -0.26707,0.0363 -0.5341,0.0729 -0.80115,0.10932 0.10825,-0.0293 0.21654,-0.0656 0.31757,-0.0947 -1.06099,0.25507 -1.26308,0.19679 -0.78671,-0.21137 -1.01047,0.32799 -2.21581,0.45186 -3.49332,0.59034 -0.63515,0.0656 -1.29195,0.11661 -1.95597,0.16034 -0.166,0.007 -0.33922,0.007 -0.50523,0.007 -0.52689,-0.007 -1.04655,-0.0363 -1.55178,-0.0802 0.28147,-0.0437 0.72898,-0.0219 0.73619,-0.19678 -0.64958,0.29151 -1.61674,0.27695 -2.48285,0.18949 -0.38975,-0.0293 -0.75785,-0.0437 -1.07542,-0.0144 -0.29591,-0.0144 -0.6135,-0.0219 -0.894986,-0.051 -0.396967,-0.0363 -0.779503,-0.0656 -1.154812,-0.0948 0.02177,-0.0144 0.04331,-0.0219 0.07215,-0.0363 -0.209318,0.007 -0.433052,0 -0.649585,-0.007 -0.158783,-0.007 -0.310348,-0.0144 -0.461924,-0.0293 -0.765064,-0.0583 -1.573436,-0.18219 -2.410677,-0.31339 -0.635146,-0.10202 -1.277515,-0.22593 -1.927096,-0.35713 -0.649584,-0.1312 -1.28473,-0.34254 -1.91988,-0.51746 -0.0073,0 -0.01452,-0.007 -0.02177,-0.007 0.144345,-0.0293 0.295909,-0.0875 0.368101,-0.16034 -1.429083,-0.33525 -2.822078,-0.83814 -4.229508,-1.28999 -0.880549,0.0729 2.533373,0.95473 3.471663,1.28999 0,0.0218 0.02903,0.0293 0.03591,0.051 -1.133162,-0.33524 -2.25189,-0.64135 -3.240699,-1.01304 -1.10429,-0.40813 -2.107537,-0.76525 -2.944778,-0.99847 0.851675,0.40085 1.934315,0.88915 3.13965,1.4066 1.219773,0.47373 2.591118,0.88915 3.96246,1.30457 0.685668,0.21863 1.37856,0.37898 2.078667,0.49559 0.692888,0.1312 1.371342,0.24778 2.020922,0.34254 0.649585,0.0875 1.270296,0.18949 1.847708,0.21138 0.591839,0.0363 1.125939,0.0293 1.602302,0.007 z M 95.405225,81.366526 c -0.44028,0.70694 -1.16204,1.72728 -1.85493,2.73303 -0.7001,1.00576 -1.4796,1.93135 -1.85492,2.631 0.28869,-0.34983 0.68567,-0.78711 1.11151,-1.26812 0.44028,-0.47373 0.88055,-0.99847 1.25586,-1.54508 0.77229,-1.06406 1.393,-2.08439 1.34248,-2.55083 z M 48.714614,106.59789 c 0.534101,0.0656 1.08264,0.11661 1.609521,0.13845 0.534104,-0.007 1.039332,-0.0293 1.472391,-0.051 -0.54132,0.0144 -1.097074,-0.0144 -1.631175,-0.10202 -0.534104,-0.10203 -1.060985,-0.22593 -1.559001,-0.34254 -0.98881,-0.23323 -1.85492,-0.44458 -2.475635,-0.37898 0.5341,0.37168 1.515691,0.60491 2.583899,0.7361 z M 101.20095,62.6653 c -0.43306,1.253549 0.0505,0.466437 0,0 z M 23.47469,93.406446 c -0.642365,-0.46644 -1.623959,-1.88761 -2.020926,-1.72728 0.353664,0.41542 0.245414,0.65593 0.562974,1.05678 0.223756,-0.45916 1.140377,0.87457 1.457952,0.6705 z M 86.173915,67.701364 c -0.166,0.757965 -0.98159,1.931346 -0.72897,2.412359 0.52688,-0.765249 0.8228,-1.523211 0.72897,-2.412359 z M 42.630183,9.9141346 c 0.461924,-0.123907 0.909413,-0.247814 1.328038,-0.35713 0.837241,-0.247813 1.558998,-0.502875 2.042579,-0.816259 -1.645609,0.488297 -3.608796,0.889148 -4.756393,1.6179554 0.469139,-0.15305 0.931067,-0.298804 1.385776,-0.4445664 z M 104.47773,48.067263 c 0.59906,0.327947 1.19812,0.612199 1.66005,1.311859 -0.0359,-1.246262 -0.43306,-1.406603 -0.62072,-2.332186 -0.54854,0.07288 -0.91663,0.378977 -1.03933,1.020327 z M 56.394125,8.4127876 c -1.19812,-0.02185 -3.06747,-0.634063 -4.215071,-0.03628 0.281472,0.64135 3.543841,0.612203 4.215071,0.03628 z m 42.85086,61.6572044 c 0.55575,-0.4883 1.558985,-3.031841 1.313595,-4.074039 -0.4908,1.115075 -1.508475,3.308794 -1.313595,4.074039 z m -21.06816,-56.22758 c 0.7795,0.378977 1.5157,0.736098 2.23023,1.078636 0.70011,0.371681 1.40022,0.721519 2.10033,1.056773 -0.7362,-0.459149 -1.53013,-0.947453 -2.34572,-1.443041 -0.83725,-0.451862 -1.69614,-0.911019 -2.54059,-1.370161 -1.67448,-0.932874 -3.39949,-1.530498 -4.77805,-1.851165 1.03211,0.459149 1.98483,0.881864 2.8726,1.282696 0.88055,0.44457 1.69614,0.859993 2.4612,1.246262 z M 54.084505,7.4143196 c 1.01768,-0.09472 2.02092,-0.225927 3.00251,-0.284252 0.98881,-0.04373 1.94154,-0.08743 2.87261,-0.131163 -1.08986,-0.03628 -2.18693,-0.06558 -3.26235,-0.05829 -1.07542,0.05829 -2.13641,0.145755 -3.16853,0.247775 -0.51245,0.05832 -1.017677,0.116611 -1.51569,0.174897 -0.498012,0.08017 -0.974374,0.189489 -1.450733,0.291509 -0.938287,0.211375 -1.833269,0.451862 -2.656076,0.714231 2.064226,-0.393548 4.135675,-0.7944 6.178259,-0.954737 z"
   style="fill:url(#linearGradient1111);fill-opacity:1;fill-rule:nonzero;stroke:none;stroke-width:0.725275"
   id="path1113" />
        <path
   d="m 85.778555,77.017061 c 0.0195,0.320183 -0.26841,0.59453 -0.64603,0.614832 l -1.59345,0.08536 c -0.39823,0.02185 -0.73465,-0.246253 -0.73465,-0.584117 v -0.825677 l -1.66918,0.01834 0.0374,0.610666 c 0.0195,0.320183 -0.26895,0.594007 -0.64655,0.61431 l -1.59345,0.08591 c -0.39772,0.02146 -0.73413,-0.246253 -0.73413,-0.584117 v -0.694584 l -0.76762,0.0082 c 0,0 -4.11061,0.96572 -5.55672,7.131732 -1.44611,6.16653 -8.90642,5.86926 -9.51536,5.42363 -0.60842,-0.44564 -0.98914,-0.52008 -2.05505,0.2228 -1.0659,0.74291 -2.51201,0.59453 -3.1972,0.0744 -0.68467,-0.52008 -1.21788,-1.26298 -1.21788,-1.26298 H 43.252411 c 0,0 -1.293615,0.81682 -3.120441,0.7429 -1.827341,-0.0744 -2.283788,-0.89127 -2.283788,-0.89127 0,0 -0.685187,-0.14888 -1.29413,0.44563 -0.608944,0.59401 -5.63297,0.0739 -6.241909,0 -0.608943,-0.0744 -5.100275,-3.41775 -5.100275,-14.115604 0,-10.698373 2.238453,-13.716825 6.577291,-14.905358 l 1.491444,5.047757 h 31.970982 c 0,0 0.99172,-3.330291 1.78664,-6.198291 1.63209,0.635135 4.20541,2.833118 6.9678,9.814916 0,0 0.76092,2.080327 3.42491,2.154772 0.24523,0.0066 0.5023,0.0121 0.76762,0.01678 v -0.548673 c 0,-0.323305 0.30912,-0.585155 0.69034,-0.585155 h 1.13751 c 0.36784,0 0.67077,0.243639 0.68983,0.554962 l 0.0367,0.594526 c 0.75627,-0.0011 1.47032,-0.0066 2.05144,-0.01287 v -0.470105 c 0,-0.323304 0.30912,-0.585677 0.69085,-0.585677 h 1.13752 c 0.36734,0 0.67076,0.244146 0.68931,0.554962 l 0.45644,7.447213"
   style="fill:#70d0e7;fill-opacity:1;fill-rule:nonzero;stroke:none;stroke-width:0.132578"
   id="path1399" />
        <path
   d="m 54.864714,70.582922 c 0.37196,0 0.673856,-0.304549 0.673856,-0.680942 0,-0.375336 -0.301896,-0.680414 -0.673856,-0.680414 -0.371957,0 -0.673338,0.305078 -0.673338,0.680414 0,0.376393 0.301381,0.680942 0.673338,0.680942 z M 39.46395,75.337593 c 0.330232,0 0.59864,-0.270692 0.59864,-0.604937 0,-0.334211 -0.268408,-0.605465 -0.59864,-0.605465 -0.330743,0 -0.599151,0.271254 -0.599151,0.605465 0,0.334245 0.268408,0.604937 0.599151,0.604937 z m 26.228283,-5.235707 c 0.469329,0 0.850047,-0.384717 0.850047,-0.858453 0,-0.474793 -0.380718,-0.859014 -0.850047,-0.859014 -0.469326,0 -0.849529,0.384221 -0.849529,0.859014 0,0.473736 0.380203,0.858453 0.849529,0.858453 z m -33.690134,1.55089 c 0.504874,0 0.914442,-0.413355 0.914442,-0.923558 0,-0.510698 -0.409568,-0.924053 -0.914442,-0.924053 -0.504877,0 -0.914445,0.413355 -0.914445,0.924053 0,0.510203 0.409568,0.923558 0.914445,0.923558 z m 24.466369,3.491683 c 0.697554,0 1.262703,-0.571609 1.262703,-1.276003 0,-0.704362 -0.565149,-1.275474 -1.262703,-1.275474 -0.696524,0 -1.261672,0.571112 -1.261672,1.275474 0,0.704394 0.565148,1.276003 1.261672,1.276003 z m -8.757529,-2.465067 c 0.543514,0 0.983992,-0.445098 0.983992,-0.994344 0,-0.548718 -0.440478,-0.993816 -0.983992,-0.993816 -0.543513,0 -0.983992,0.445098 -0.983992,0.993816 0,0.549246 0.440479,0.994344 0.983992,0.994344 z m 35.103787,-0.624195 -0.01032,2.253699 -5.689636,0.07911 c -0.222557,0.05572 -5.475838,1.445718 -7.165114,8.649303 -0.913925,3.895657 -5.254824,4.093482 -6.115688,4.093482 -0.287987,0 -0.491996,-0.01817 -0.612032,-0.03237 -0.377629,-0.240502 -0.930415,-0.511755 -1.661968,-0.511755 -0.943293,0 -1.732033,0.46125 -2.379099,0.912095 -0.143734,0.09995 -0.350835,0.157758 -0.567212,0.157758 -0.173616,0 -0.297258,-0.03594 -0.342595,-0.05467 -0.323532,-0.25302 -0.666124,-0.662213 -0.7841,-0.825157 l -0.591942,-0.815776 -1.003053,-0.0043 H 42.685353 l -0.468811,0.296225 c -0.07367,0.0406 -0.835106,0.451341 -1.849494,0.451341 -0.05049,0 -0.102521,0 -0.154553,-0.0033 -0.428115,-0.01784 -0.671792,-0.09057 -0.787708,-0.138467 l -0.291593,-0.521137 -0.869622,-0.188972 c -0.129311,-0.02775 -0.340018,-0.06091 -0.615638,-0.06091 -0.74804,0 -1.485263,0.249354 -2.096781,0.705418 -0.163309,0.01817 -0.44975,0.03799 -0.917533,0.03799 -1.22561,0 -2.854608,-0.136386 -3.748443,-0.229568 -0.281292,-0.22752 -1.057151,-0.948034 -1.83095,-2.496314 -0.706309,-1.41239 -1.524414,-3.762904 -1.782004,-7.33373 l 6.826123,-1.344708 1.212732,-8.851786 h 2.100898 l 0.899504,9.598857 2.20239,0.237925 0.975235,-9.836782 h 2.100901 l 1.286916,9.598857 14.800064,0.0218 1.140094,-9.620724 h 2.15757 l 1.000993,9.642062 3.29354,-0.323806 0.775342,-9.318256 H 71.1593 c 0.338987,0.728838 0.675913,1.516505 1.004599,2.346352 0.456963,1.222889 2.075139,3.336534 5.213096,3.424002 0.130857,0.0036 5.437715,0.0056 5.437715,0.0056"
   style="fill:#983d2e;fill-opacity:1;fill-rule:nonzero;stroke:none;stroke-width:0.132578"
   id="path1411" />
        <path
   d="m 28.117134,81.385939 c -0.378658,-1.284822 -0.700129,-2.904946 -0.844895,-4.909258 0.144766,2.00484 0.465723,3.624436 0.844895,4.909258 z M 66.320238,69.243433 c 0,-0.350892 -0.281289,-0.635128 -0.628005,-0.635128 -0.346715,0 -0.628001,0.284236 -0.628001,0.635128 0,0.350364 0.281286,0.634599 0.628001,0.634599 0.346716,0 0.628005,-0.284235 0.628005,-0.634599 z m 1.724303,-2.964303 0.0948,10.196494 h -5.16467 V 66.27913 Z m -28.975218,8.453526 c 0,0.219692 0.176708,0.39826 0.394627,0.39826 0.217408,0 0.393599,-0.178568 0.393599,-0.39826 0,-0.219692 -0.176191,-0.398259 -0.393599,-0.398259 -0.217919,0 -0.394627,0.178567 -0.394627,0.398259 z M 37.411992,66.27913 h 4.077129 l -0.0443,10.196494 h -4.032824 z m -5.979168,4.449593 c 0,0.318059 0.255016,0.57577 0.569275,0.57577 0.31426,0 0.569272,-0.257711 0.569272,-0.57577 0,-0.317597 -0.255012,-0.575275 -0.569272,-0.575275 -0.314259,0 -0.569275,0.257678 -0.569275,0.575275 z M 27.86727,66.27913 h 7.443825 l -0.04431,10.196494 h -7.99455 c -0.05255,-0.728309 -0.08191,-1.5061 -0.08191,-2.338028 0,-3.350077 0.221528,-5.929136 0.676945,-7.858466 z m 19.088931,5.405918 c 0,0.421183 0.337958,0.762695 0.754738,0.762695 0.41678,0 0.754221,-0.341512 0.754221,-0.762695 0,-0.420655 -0.337441,-0.762167 -0.754221,-0.762167 -0.41678,0 -0.754738,0.341512 -0.754738,0.762167 z m 7.491733,-1.783068 c 0,0.233235 0.186495,0.421712 0.41678,0.421712 0.230286,0 0.41678,-0.188477 0.41678,-0.421712 0,-0.232706 -0.186494,-0.42115 -0.41678,-0.42115 -0.230285,0 -0.41678,0.188444 -0.41678,0.42115 z m 1.128244,3.966476 c 0,0.498212 0.399779,0.902219 0.89229,0.902219 0.493027,0 0.892806,-0.404007 0.892806,-0.902219 0,-0.498213 -0.399779,-0.902187 -0.892806,-0.902187 -0.492511,0 -0.89229,0.403974 -0.89229,0.902187 z M 43.590022,66.27913 H 60.817096 V 76.475624 H 43.590022 Z M 28.522579,82.592708 c 0.08346,0.218139 0.167433,0.423264 0.251407,0.615341 -0.08397,-0.192077 -0.167948,-0.396674 -0.251407,-0.615341"
   style="fill:#c2712e;fill-opacity:1;fill-rule:nonzero;stroke:none;stroke-width:0.132578"
   id="path1413" />
        <path
   d="m 62.194169,27.451056 c -2.517167,1.157817 -1.941711,3.0705 -1.581086,3.834747 -0.779465,0.909486 -1.722757,2.17558 -2.649566,3.850899 -0.616152,-0.245225 -1.343586,-0.404502 -2.12666,-0.31393 -1.334314,0.155148 -2.711901,0.743437 -2.461009,2.802416 0,0 0.184435,2.570206 2.563015,2.118303 -0.474995,1.395742 -0.894349,2.952346 -1.219429,4.680219 -1.056631,5.625114 -2.320366,21.189044 -2.320366,21.189044 h 2.218877 c 0,0 -0.197315,-9.971087 0.792346,-15.930942 0.602243,-3.624436 1.345646,-7.349881 2.356428,-10.702039 1.603236,-1.057335 2.101415,-2.631645 2.101415,-2.631645 0,0 -0.352896,-0.350892 -0.9402,-0.719456 0.572878,-1.433233 1.216337,-2.74514 1.942739,-3.887862 1.1947,1.877307 2.872123,1.302032 4.219318,0.389408 2.312636,-1.565457 2.769088,-4.583899 2.769088,-4.583899 0,0 -2.464618,-1.567009 -5.66491,-0.09526 z m -9.05891,21.048992 c 1.480108,-1.584714 0.555877,-2.978375 -0.590911,-3.975857 -1.016962,-0.883986 -2.261119,-1.202574 -3.210595,-1.306193 0.838198,-3.705627 2.243604,-8.588889 4.3002,-11.628174 0.0108,0.01288 0.0206,0.0261 0.03143,0.03904 0,0 1.719152,2.271404 3.571738,0.04948 0.542485,-0.650751 0.865502,-1.324955 1.053024,-1.952783 0.793378,0.01156 2.270912,-0.251468 2.23485,-2.379681 -0.04946,-2.904946 -2.193636,-4.327244 -2.193636,-4.327244 0,0 -2.182811,1.261931 -2.538802,3.513021 -0.02988,0.190558 -0.05152,0.384716 -0.0613,0.578379 -0.521361,0.156206 -1.05406,0.409193 -1.530598,0.811615 -0.951021,0.801738 -1.731004,1.932501 -0.805227,3.344362 -0.969565,1.094297 -2.086991,2.803441 -3.019977,5.370013 -0.775345,2.130822 -1.437866,4.500594 -1.946349,6.536682 -0.120036,0 -0.223588,0.0053 -0.308076,0.0099 -0.02781,-0.14471 -0.05461,-0.291535 -0.08346,-0.435717 -1.375014,-6.88186 -3.814901,-10.960774 -5.65512,-13.09523 0.03092,-0.03072 0.06131,-0.06041 0.09222,-0.09269 0,0 2.352822,-2.214623 -0.436873,-4.377221 -2.789695,-2.162037 -5.540236,-1.196331 -5.540236,-1.196331 0,0 -0.228226,3.044999 1.675878,5.096182 1.038601,1.119269 2.424432,2.016269 3.895268,0.849601 2.814422,4.40325 4.393449,11.424105 5.278012,18.073754 -0.02215,0.114025 -0.03349,0.17543 -0.03349,0.17543 l 0.0577,0.0069 c 1.188001,9.050668 1.096816,17.359484 1.096816,17.359484 l 2.044229,0.08278 c 0,0 -0.299319,-8.778918 -1.581083,-17.627071 0.07264,0.0984 0.147854,0.196801 0.228739,0.294673 2.05917,2.492648 3.975637,0.203044 3.975637,0.203044 z m 12.478152,-3.299605 c -0.0644,-0.544523 -0.255012,-1.178098 -0.314259,-1.717467 -0.06955,-0.636681 0.0019,-1.121879 -0.138583,-1.620091 -0.657883,-2.328152 -1.952529,-3.194433 -2.609898,-3.065842 -0.968019,0.189501 -1.106602,1.685724 -0.83562,3.593716 0.07882,0.551856 0.379686,1.163564 0.516726,1.762754 0.11849,0.517503 0.04431,1.02612 0.213799,1.542037 0.554331,1.684139 0.803164,3.382349 1.006659,4.520908 -0.445113,-0.319116 -0.944838,-0.614813 -1.511018,-0.869419 -4.118857,-1.849692 -5.00136,2.543682 -5.00136,2.543682 -0.799558,3.149642 1.225609,4.344421 3.26881,4.855647 3.43264,0.859015 6.570596,-1.552442 6.570596,-1.552442 0,0 -0.385355,-2.131318 -2.196724,-4.001852 1.0726,-1.142193 1.24158,-4.213254 1.030872,-5.991631 z M 51.113183,32.548791 C 53.171836,30.056143 52.4001,27.45469 52.4001,27.45469 c 0,0 -2.74539,-0.353502 -4.671646,1.321289 -1.146787,0.996953 -2.071019,2.390614 -0.59091,3.975328 0,0 1.916466,2.290132 3.975639,-0.202516 z m -13.3045,0.190525 c -4.118857,1.850221 -4.838047,5.847416 -4.838047,5.847416 0,0 3.137953,2.410895 6.570594,1.552443 2.0432,-0.511756 4.068368,-1.706039 3.26881,-4.856177 0,0 -0.8825,-4.393374 -5.001357,-2.543682 z m 3.700531,15.036552 c -0.777405,-0.152011 -2.30852,0.873052 -3.086953,3.626516 -0.166405,0.589313 -0.0814,1.163564 -0.164345,1.916878 -0.07006,0.637737 -0.294681,1.387385 -0.370929,2.031365 -0.291075,2.453076 0.02781,6.986503 1.940166,7.556559 0.618729,0.184282 0.637276,-3.418815 1.806217,-6.971375 0.200921,-0.610156 0.113338,-1.211459 0.25347,-1.823696 0.161767,-0.708524 0.517755,-1.432175 0.610486,-2.085008 0.320957,-2.256804 0.157644,-4.026857 -0.988112,-4.251239 z m 35.921892,28.590455 0.767616,-0.0083 v -6.289904 l -1.123093,-0.02444 z m 5.373317,-6.295652 v 6.236823 l -1.66918,0.01817 -0.382264,-6.242008 2.051444,-0.01288"
   style="fill:#329f40;fill-opacity:1;fill-rule:nonzero;stroke:none;stroke-width:0.132578"
   id="path1415" />
        <path
   d="m 52.51086,64.280004 -0.191646,1.999126 h 2.284822 v -1.999126 z m -2.057623,0 H 48.46516 v 1.999126 h 2.159116 z m 0.428115,-26.694387 c -0.168979,0.07131 -0.335384,0.148377 -0.499726,0.237396 -0.04636,0.0251 -0.07006,0.08017 -0.05409,0.132753 0.01853,0.05933 0.08089,0.09265 0.139614,0.07445 h 0.0041 c 0.09634,-0.03006 0.194738,-0.0583 0.292107,-0.08694 0.197312,-0.05777 0.395655,-0.113495 0.593485,-0.166577 0.296744,-0.07861 0.594516,-0.153596 0.894349,-0.217082 0.298807,-0.06613 0.599154,-0.126015 0.90105,-0.177015 0.06646,-0.01189 0.133431,-0.0218 0.19989,-0.0327 0.235437,-0.03851 0.471903,-0.07393 0.7094,-0.110887 h 0.0041 c 0.03349,-0.0053 0.06234,-0.02279 0.08295,-0.0479 l 0.0541,-0.0079 c 0.108704,0.156206 0.228225,0.297283 0.356501,0.432645 0.151982,0.160863 0.316323,0.308712 0.487876,0.447708 0.172585,0.137443 0.352899,0.266035 0.544028,0.377416 0.188558,0.115082 0.390507,0.209816 0.597608,0.285821 0.04225,0.01519 0.0917,0.0033 0.121068,-0.03541 0.03606,-0.04684 0.02781,-0.115048 -0.01856,-0.15201 l -0.0036,-0.0033 c -0.167951,-0.132753 -0.33899,-0.254045 -0.503331,-0.385741 -0.164856,-0.129648 -0.328683,-0.26032 -0.487873,-0.397235 -0.160735,-0.134834 -0.318383,-0.273302 -0.475512,-0.413355 l -0.240072,-0.214506 0.533724,-0.08066 c 0.496634,-0.07184 0.99275,-0.148905 1.489383,-0.216058 0.108187,-0.01453 0.215859,-0.02808 0.324049,-0.04271 0.04379,0.04634 0.08964,0.08955 0.136005,0.13173 6.47e-4,0 9.71e-4,0 9.71e-4,0 -0.05049,0.11039 -0.101493,0.219196 -0.151978,0.331635 0,0 0,0 -6.47e-4,0 -0.0814,0.183786 -0.162282,0.371207 -0.242135,0.56226 -0.0129,0.03171 -0.02626,0.06401 -0.03915,0.09579 -0.06388,0.152539 -0.126733,0.308183 -0.188554,0.465413 -0.0206,0.05206 -0.0407,0.104114 -0.06131,0.156172 -0.05822,0.149929 -0.115402,0.30194 -0.172585,0.456064 -0.01753,0.04684 -0.03452,0.09318 -0.05203,0.14002 -0.07367,0.202516 -0.146309,0.407641 -0.217919,0.617456 0.06079,-0.01189 0.122614,-0.0251 0.18598,-0.0401 0.06749,-0.01619 0.137552,-0.03435 0.209162,-0.05569 0.07882,-0.02411 0.155584,-0.04948 0.231314,-0.07551 0.02574,-0.0089 0.051,-0.01883 0.07676,-0.02808 0.0474,-0.01784 0.09479,-0.03538 0.141674,-0.05361 0.03144,-0.01255 0.06285,-0.02543 0.09428,-0.03802 0.03709,-0.01619 0.07367,-0.03171 0.11025,-0.04839 0.03503,-0.01552 0.07058,-0.03072 0.105098,-0.04687 0.02474,-0.01156 0.04791,-0.02411 0.07212,-0.03541 0.155066,-0.07548 0.302924,-0.156173 0.442021,-0.241031 0.0019,0 0.0041,-0.0033 0.0062,-0.0036 0.05152,-0.03171 0.103035,-0.06454 0.153006,-0.09734 0,0 0,0 0,0 0.139615,-0.463332 0.286958,-0.916754 0.436873,-1.364494 0.127251,0.04532 0.258104,0.08017 0.393599,0.10101 0.04173,0.0063 0.08552,-0.01255 0.1087,-0.05153 0.0304,-0.05156 0.01391,-0.118715 -0.03709,-0.149434 h -0.0032 l -0.354442,-0.215002 c 0.03761,-0.108805 0.07316,-0.219691 0.111278,-0.327473 0,0 0,0 0,0 0.06594,-0.06401 0.132403,-0.12651 0.200404,-0.186363 0.04121,-0.03594 0.08346,-0.07029 0.125705,-0.105172 0.0474,-0.03904 0.09531,-0.07653 0.14322,-0.113496 0.232346,-0.02279 0.464692,-0.0327 0.697552,-0.051 h 0.0041 c 0.05152,-0.004 0.09376,-0.04582 0.09737,-0.09943 0.0041,-0.05936 -0.04019,-0.110358 -0.09892,-0.11452 -0.08913,-0.0063 -0.179285,-0.0099 -0.268925,-0.0142 0.02988,-0.01552 0.05925,-0.0333 0.08912,-0.04737 0.0026,0 0.0046,-0.0033 0.0067,-0.0033 0.03606,-0.01652 0.07264,-0.03171 0.109218,-0.04582 9.7e-4,0 0.0019,0 0.0032,0 0.03812,-0.01453 0.07625,-0.02709 0.114884,-0.03802 0.0644,-0.01817 0.128797,-0.0327 0.192678,-0.03954 0.0711,-0.0083 0.14116,-0.0089 0.209164,0 0.068,0.0073 0.131368,0.02544 0.208647,0.05153 0.294167,0.09371 0.569787,0.251964 0.809862,0.458641 0.242649,0.204597 0.448718,0.456593 0.63161,0.726262 0.184949,0.268611 0.339501,0.56226 0.472935,0.865752 0.05718,0.125454 0.109215,0.254573 0.158158,0.384717 -0.901564,0.451374 -0.883531,1.7102 -0.822742,1.995988 0.01805,0.08383 0.04946,0.08591 0.09067,0.04373 0.102524,-0.104644 0.264805,-0.48936 0.427601,-0.609099 0.228222,-0.167635 0.342078,0.680942 0.507966,0.680942 0.165373,0 -0.03144,-0.869386 0.07212,-1.016211 0.104066,-0.146296 0.932992,1.152102 1.1607,0.838172 0.228223,-0.314426 -0.528575,-0.858982 -0.424509,-1.131259 0.06388,-0.167635 0.521361,0.193663 0.82944,0.372759 0.191132,0.111382 0.324563,0.153034 0.268922,-0.0479 0,0 -1.032935,-1.224473 -1.806731,-1.210931 -0.144766,-0.482588 -0.349808,-0.943343 -0.620793,-1.377012 -0.09325,-0.150425 -0.198858,-0.294112 -0.315288,-0.430532 -0.115401,-0.136915 -0.240075,-0.267587 -0.378143,-0.384716 -0.13652,-0.118682 -0.283863,-0.226992 -0.443053,-0.317036 -0.15713,-0.09269 -0.325595,-0.169219 -0.501786,-0.220748 -0.08346,-0.02709 -0.183916,-0.05361 -0.284894,-0.06246 -0.09994,-0.0099 -0.19989,-0.0069 -0.296741,0.0056 -0.177223,0.02345 -0.342596,0.07967 -0.495602,0.150986 -0.01442,0.0069 -0.02936,0.01255 -0.04328,0.01916 -0.07006,0.03488 -0.137037,0.07287 -0.202464,0.112968 -0.02526,0.01519 -0.05049,0.03072 -0.07522,0.04687 -0.03349,0.02147 -0.06543,0.04423 -0.09789,0.06663 -0.06852,0.04892 -0.136006,0.0989 -0.200404,0.151482 0,0 -6.47e-4,0 -6.47e-4,0 0,0 6.47e-4,0 6.47e-4,0 0.08191,-0.217116 0.165887,-0.431589 0.250893,-0.644509 0,0 -6.47e-4,0 -6.47e-4,0 -0.134463,-0.08433 -0.281289,-0.168691 -0.438933,-0.25094 -0.0057,-0.0033 -0.01132,-0.0063 -0.01753,-0.0089 -0.158679,-0.08172 -0.327655,-0.160334 -0.506937,-0.231649 0,0 -6.47e-4,0 -6.47e-4,0 -0.173102,0.312873 -0.345687,0.640346 -0.516209,0.98133 -0.01235,0.02543 -0.02474,0.0505 -0.03761,0.076 -0.02474,0.04998 -0.04894,0.102034 -0.07418,0.153067 -6.47e-4,0 -9.7e-4,0 -0.0016,0 -0.261196,0.02444 -0.52136,0.05361 -0.781528,0.08486 -0.379172,0.04945 -0.757312,0.108805 -1.134421,0.173877 0.01598,-0.03488 0.03245,-0.07029 0.04843,-0.105172 l 0.171039,-0.378474 c 0.05564,-0.12651 0.115398,-0.250939 0.173616,-0.376921 0.0577,-0.127005 0.12055,-0.250906 0.175159,-0.384716 l 0.0019,-0.0046 c 0.01494,-0.03696 0.0093,-0.08069 -0.01853,-0.112967 -0.03915,-0.04581 -0.107672,-0.05103 -0.153006,-0.01156 -0.227708,0.198882 -0.400297,0.450845 -0.534756,0.717409 -0.06646,0.134305 -0.124159,0.272773 -0.167951,0.41646 -0.03143,0.100481 -0.05616,0.200963 -0.07264,0.306663 -0.244713,0.04737 -0.488905,0.09579 -0.7331,0.147848 -0.197315,0.04582 -0.393599,0.09163 -0.590396,0.142102 -0.122096,0.0033 -0.244195,0.0069 -0.366291,0.01619 -0.08398,0.0063 -0.168465,0.01453 -0.252439,0.02543 -0.315291,0.03488 -0.627487,0.09269 -0.935049,0.16661 -0.308079,0.07287 -0.612549,0.161887 -0.909807,0.269669 -0.12622,0.04529 -0.250379,0.09371 -0.372989,0.145767 z m -5.00136,-1.39158 c 0.06903,0.03072 0.149403,0 0.178768,-0.07131 l 0.0032,-0.0063 c 0.0098,-0.02345 0.01853,-0.04737 0.02833,-0.07132 0.06337,-0.155148 0.12055,-0.311849 0.189072,-0.464916 0.06903,-0.179592 0.146823,-0.356607 0.22307,-0.533623 0.156098,-0.352973 0.311168,-0.706442 0.475513,-1.056278 0.147854,-0.31862 0.301892,-0.634632 0.454902,-0.951172 0.01546,-0.0327 0.03092,-0.06454 0.04637,-0.09681 l 0.349296,-0.704361 0.01546,-0.02345 c 0.08037,-0.121292 0.155067,-0.246249 0.23698,-0.365988 l 0.255016,-0.353469 c 0.09067,-0.12182 0.182889,-0.242087 0.276134,-0.361297 0.416266,0.04892 0.832532,0.06246 1.249312,0.06401 0.457476,-0.0033 0.914956,-0.01651 1.37295,-0.07703 0.04585,-0.0063 0.08449,-0.04218 0.09222,-0.0911 0.0088,-0.05883 -0.03143,-0.114025 -0.08964,-0.122877 -0.456966,-0.07131 -0.913928,-0.09526 -1.370894,-0.107749 -0.33332,-0.0066 -0.666127,-0.0056 -0.999447,0.01519 0.185466,-0.226992 0.377112,-0.449293 0.577001,-0.663766 0.328687,-0.360273 0.672311,-0.707004 1.025721,-1.043825 0.230799,0.0083 0.457997,-0.01189 0.683645,-0.04373 0.26377,-0.04165 0.525998,-0.09371 0.782557,-0.192606 0.03658,-0.0142 0.06439,-0.04842 0.06955,-0.09061 0.0067,-0.06038 -0.03606,-0.115048 -0.09582,-0.12182 -0.273046,-0.03171 -0.539908,-0.01718 -0.805224,0.0089 -0.06182,0.0073 -0.123645,0.01519 -0.185466,0.02411 0.133948,-0.120763 0.268925,-0.239973 0.406994,-0.35555 0.218433,-0.192111 0.44769,-0.37484 0.672307,-0.552384 l 0.0047,-0.0036 c 0.05358,-0.04268 0.068,-0.120762 0.03092,-0.180648 -0.03967,-0.06405 -0.123128,-0.08331 -0.187009,-0.04321 -0.506937,0.320701 -0.972143,0.686161 -1.422925,1.074511 -0.272531,0.235315 -0.533727,0.483646 -0.787194,0.740299 0.01598,-0.05414 0.03143,-0.108805 0.04585,-0.163472 0.07315,-0.289454 0.13446,-0.582013 0.149401,-0.886067 0.0019,-0.05516 -0.02781,-0.109301 -0.08088,-0.133777 -0.06955,-0.03171 -0.151464,0 -0.182889,0.06923 -0.124673,0.276968 -0.202981,0.565365 -0.269439,0.8569 -0.051,0.240006 -0.09325,0.482093 -0.111278,0.730952 -0.01132,0.01255 -0.02319,0.02444 -0.03503,0.03746 -0.399779,0.441465 -0.76607,0.915763 -1.097331,1.413447 -0.03761,0.05569 -0.07212,0.113496 -0.108704,0.170739 0.0041,-0.248297 -0.0016,-0.496132 -0.01287,-0.742876 -0.02319,-0.411274 -0.05873,-0.822052 -0.141674,-1.229164 -0.01184,-0.0588 -0.06182,-0.105668 -0.124156,-0.10983 -0.07522,-0.0056 -0.141161,0.05153 -0.146312,0.128063 -0.02988,0.414412 -0.01184,0.825686 0.01801,1.236431 0.03143,0.380555 0.0747,0.760614 0.15301,1.138031 -0.06388,0.112967 -0.125705,0.226992 -0.184949,0.343097 -0.11437,0.18012 -0.224102,0.36285 -0.33126,0.548189 -0.0019,0.0033 -0.0036,0.0069 -0.0062,0.01057 -0.195766,0.335269 -0.375049,0.680414 -0.546088,1.030282 -0.172071,0.353998 -0.328686,0.715823 -0.469329,1.084421 -0.06697,0.185834 -0.134977,0.371174 -0.194738,0.560146 -0.01598,0.05051 -0.02936,0.101539 -0.04431,0.152539 -0.0407,0.138996 -0.07882,0.279049 -0.113339,0.420126 -0.01546,0.06405 0.01649,0.13173 0.07831,0.158782 z m 1.17461,9.775344 c -0.204013,-0.185835 -0.425024,-0.354526 -0.661493,-0.504456 -0.318379,-0.19211 -0.666641,-0.34673 -1.03757,-0.427426 -0.184434,-0.04112 -0.374534,-0.06818 -0.564637,-0.0661 -0.09531,-0.0033 -0.190101,0.0063 -0.285409,0.01057 -0.09376,0.01453 -0.189586,0.01916 -0.282318,0.04268 -0.187526,0.0327 -0.367837,0.09787 -0.544027,0.167106 -0.172585,0.07706 -0.340533,0.165058 -0.496634,0.269701 -0.313742,0.207173 -0.585245,0.468022 -0.822225,0.749647 -0.319925,0.383165 -0.582667,0.802267 -0.794406,1.247893 -0.924749,-0.204596 -2.290487,1.413414 -2.290487,1.413414 -0.06543,0.237396 0.09222,0.188477 0.318383,0.05675 0.364227,-0.211864 0.905681,-0.63929 0.9809,-0.440936 0.12261,0.322254 -0.772253,0.966234 -0.502299,1.337936 0.269436,0.371736 1.250336,-1.164588 1.37295,-0.99071 0.122613,0.173381 -0.110247,1.20155 0.08552,1.20155 0.196284,0 0.331261,-1.003692 0.6007,-0.805372 0.192678,0.141606 0.384838,0.596613 0.505906,0.720514 0.04842,0.04948 0.08603,0.0474 0.107158,-0.05153 0.07058,-0.333716 0.09324,-1.785644 -0.928869,-2.338557 0.225648,-0.405526 0.49045,-0.78869 0.794406,-1.128121 0.460572,-0.504455 1.033964,-0.916786 1.684635,-1.029225 0.64758,-0.119739 1.324525,0.04423 1.901526,0.393569 0.291078,0.170739 0.565152,0.379498 0.817077,0.614813 0.04276,0.03957 0.08449,0.08122 0.126733,0.122349 0.204527,0.200963 0.398747,0.417517 0.568241,0.64137 l 0.0057,0.0079 c 0.04225,0.05569 0.12055,0.07029 0.180828,0.03171 0.06337,-0.0406 0.08191,-0.125453 0.04173,-0.189501 -0.247801,-0.392512 -0.541968,-0.748095 -0.881986,-1.057335 z m 6.515984,-14.458667 c 0.0062,-0.0043 0.01391,-0.0069 0.01957,-0.01189 l 0.347747,-0.336821 0.383292,-0.370678 c 0.366294,0.05989 0.7331,0.08902 1.10094,0.108277 0.419354,0.01718 0.83974,0.0218 1.26064,-0.02147 0.06028,-0.0056 0.111281,-0.05153 0.121585,-0.11452 0.01235,-0.07548 -0.03812,-0.146825 -0.11231,-0.159311 -0.417808,-0.07079 -0.837166,-0.09371 -1.257038,-0.103586 -0.275619,-0.0043 -0.551757,-0.0033 -0.827894,0.01354 l 0.07728,-0.07442 c 0.366805,-0.349869 0.732067,-0.701257 1.103513,-1.044849 0.158676,-0.147849 0.319926,-0.292592 0.481179,-0.436279 0.0577,-0.051 0.115912,-0.09995 0.173613,-0.150458 0.751646,0.848577 1.814975,1.023511 1.814975,1.023511 0.01235,0.656466 0.02885,1.313493 0.05615,1.969959 0.01905,0.43367 0.04379,0.867339 0.06955,1.300479 0.02781,0.381051 0.05873,0.762134 0.09737,1.142721 0.0057,0.05255 0.0093,0.104611 0.01494,0.157197 0.0082,0.07029 0.06852,0.124429 0.139611,0.122348 0.07522,-0.0033 0.133948,-0.06613 0.131888,-0.142134 v 0 c -0.0057,-0.187949 -0.01391,-0.37484 -0.02215,-0.56226 -9.7e-4,-0.02808 -0.0019,-0.05671 -0.0032,-0.08486 l -0.01853,-0.648142 c -0.01391,-0.431588 -0.02678,-0.863672 -0.03348,-1.296284 -0.01805,-0.692404 -0.03092,-1.385865 -0.04276,-2.078765 -0.0032,-0.172325 -0.0067,-0.344121 -0.0093,-0.516446 l -0.04997,-2.597291 c -0.01701,-0.865753 -0.03503,-1.732034 -0.06182,-2.597787 -0.0016,-0.05781 -0.04791,-0.106725 -0.106644,-0.109334 -0.06131,-0.0033 -0.113338,0.04581 -0.115915,0.108277 -0.03554,0.86681 -0.051,1.73362 -0.06027,2.600396 -0.0016,0.111944 -0.0019,0.224383 -0.0032,0.336326 -6.47e-4,0.076 6.46e-4,0.15201 0,0.228016 -0.981418,-0.338374 -2.508924,-0.05259 -2.508924,-0.05259 0.05564,0.578412 0.238015,1.036525 0.480147,1.398879 -0.05718,0.04684 -0.11437,0.09265 -0.171039,0.14002 -0.175159,0.147353 -0.348258,0.297811 -0.517755,0.45035 -0.07212,0.0661 -0.142189,0.134306 -0.213799,0.20093 0.02112,-0.127005 0.03709,-0.254573 0.04997,-0.382635 0.0237,-0.27644 0.03503,-0.553937 -9.7e-4,-0.835562 -0.0072,-0.05364 -0.04482,-0.100482 -0.09943,-0.116634 -0.07367,-0.02081 -0.149918,0.02246 -0.171039,0.09685 -0.07676,0.272806 -0.105613,0.548717 -0.122614,0.825685 -0.01028,0.239478 -0.01132,0.478956 0.01649,0.720514 -0.190101,0.183754 -0.377627,0.370646 -0.561029,0.561732 -0.176191,0.185835 -0.351868,0.371702 -0.525484,0.560147 -0.02422,0.02775 -0.04843,0.05467 -0.07264,0.08225 -0.138583,0.157229 -0.277683,0.313402 -0.411628,0.476874 -0.0062,0.0073 -0.0129,0.01519 -0.01957,0.02279 -0.04276,0.05259 -0.0407,0.1312 0.0072,0.181672 0.04637,0.04948 0.119008,0.05311 0.172588,0.01652 z m -0.821711,16.582222 c 0.09015,0.179592 0.177223,0.359216 0.262742,0.537784 0.04533,0.09579 0.09222,0.190525 0.135491,0.286845 0.148373,0.33474 0.286441,0.675228 0.419355,1.019844 l 0.279229,0.727285 0.119521,0.310297 c 0.132917,0.346698 0.2715,0.692371 0.41884,1.03494 0.02629,0.06144 0.09428,0.09632 0.160222,0.07861 0.07264,-0.01982 0.115915,-0.09526 0.09685,-0.168692 -0.186497,-0.712157 -0.421417,-1.40978 -0.696008,-2.095941 -0.0047,-0.01156 -0.0088,-0.02279 -0.01339,-0.03435 -0.141675,-0.347755 -0.295195,-0.693429 -0.473964,-1.028169 -0.06852,-0.129119 -0.142191,-0.254606 -0.218436,-0.378506 -0.107672,-0.174373 -0.221011,-0.344617 -0.337958,-0.51017 -0.114884,-0.216587 -0.241618,-0.425874 -0.378654,-0.628885 0.034,-0.415436 0.02936,-0.828295 0.01339,-1.240593 -0.02112,-0.433669 -0.05461,-0.86681 -0.135491,-1.296846 -0.01132,-0.06038 -0.06131,-0.10722 -0.124159,-0.11191 -0.07522,-0.0056 -0.141157,0.051 -0.146309,0.127534 -0.03195,0.436807 -0.01649,0.870972 0.01132,1.304113 0.02008,0.268115 0.04585,0.536231 0.08243,0.803819 -0.0206,-0.02709 -0.04019,-0.0552 -0.06131,-0.08175 -0.350321,-0.430003 -0.737223,-0.82671 -1.148333,-1.193722 -0.06543,-0.05675 -0.131371,-0.111415 -0.197316,-0.167105 0.01649,-0.01553 0.02988,-0.03594 0.034,-0.06041 0.04843,-0.280602 0.051,-0.558065 0.04225,-0.835562 -0.01287,-0.27644 -0.03813,-0.552879 -0.110764,-0.825653 -0.01391,-0.05259 -0.0577,-0.09424 -0.113856,-0.102562 -0.07573,-0.0109 -0.145794,0.04215 -0.156612,0.118682 -0.04019,0.280073 -0.03246,0.557041 -0.0129,0.833481 0.0206,0.234291 0.05049,0.467493 0.108189,0.699175 -0.291078,-0.234787 -0.590396,-0.458145 -0.900018,-0.665318 -0.192164,-0.128096 -0.386901,-0.25094 -0.584213,-0.369126 0.0026,-0.01255 0.0051,-0.02444 0.0077,-0.03696 0.0062,-0.02775 0.01184,-0.05569 0.01805,-0.0833 0.02626,-0.122844 0.05306,-0.246745 0.08037,-0.372231 0.0046,-0.01982 0.0093,-0.04007 0.01339,-0.05985 0.02988,-0.134306 0.05976,-0.270725 0.09119,-0.408664 0,0 0,0 0,0 0,0 -6.47e-4,0 -6.47e-4,0 -0.08243,-0.0089 -0.162796,-0.01619 -0.240589,-0.0218 -0.01032,0 -0.02112,-0.0033 -0.03144,-0.0033 -0.151978,-0.01156 -0.293652,-0.01718 -0.422446,-0.01916 -0.0093,0 -0.01905,0 -0.02885,0 -0.06285,0 -0.123127,0 -0.179797,0 0,0 -9.7e-4,0 -9.7e-4,0 -0.0032,0.01189 -0.0062,0.02279 -0.0088,0.03488 -0.02678,0.107253 -0.05358,0.214506 -0.07934,0.320173 -0.01701,0.06821 -0.03349,0.134834 -0.04946,0.201987 -0.0032,0 -0.0062,-0.0033 -0.0093,-0.0046 -0.01905,-0.0089 -0.03915,-0.01156 -0.05873,-0.01156 -0.034,-0.177544 -0.06801,-0.354031 -0.102521,-0.531013 -0.11437,0.0069 -0.193195,0.01453 -0.227711,0.01817 -0.0036,0 -0.0082,0 -0.0108,0 -6.47e-4,0 -0.0016,0 -0.0019,0 -0.0047,0 -0.0077,0 -0.0077,0 0,0 -6.46e-4,0.0033 -0.0019,0.0079 -9.7e-4,0.0036 -0.0026,0.0099 -0.0046,0.01685 0,0 0,0.0033 -6.46e-4,0.0033 -0.0026,0.0083 -0.0046,0.01883 -0.0077,0.03072 -6.46e-4,0 -6.46e-4,0.0033 -9.7e-4,0.0036 -0.0032,0.01288 -0.0067,0.02775 -0.0108,0.04426 0,0 0,0 0,0.0033 -0.0041,0.01718 -0.0082,0.03643 -0.01287,0.05724 0,0 0,0 0,0 -0.0047,0.02147 -0.0093,0.04423 -0.01391,0.06923 0,0 0,0 0,0 -0.0047,0.0251 -0.0098,0.05206 -0.01442,0.0807 0,0 -6.47e-4,0 -6.47e-4,0 -0.0046,0.02874 -0.0098,0.05936 -0.01442,0.09163 -6.46e-4,0 -6.46e-4,0 -6.46e-4,0 -0.0047,0.03237 -0.0093,0.06715 -0.01391,0.103091 -0.106126,0.834009 -0.115915,2.558744 1.155546,4.282982 -0.07779,-0.537255 -0.158672,-1.074511 -0.244195,-1.610214 0,0 0,0 0,0 0.02008,-0.112472 0.04173,-0.229073 0.0644,-0.348811 0.0098,-0.05312 0.0206,-0.109334 0.03092,-0.164497 0.01287,-0.06613 0.02474,-0.131729 0.03812,-0.199939 0.01442,-0.07548 0.02988,-0.153563 0.04482,-0.23112 0.0098,-0.05051 0.01905,-0.09946 0.02936,-0.150987 0.01753,-0.08955 0.03606,-0.180649 0.05461,-0.273302 0.0088,-0.04218 0.01649,-0.0833 0.02526,-0.126015 0.0206,-0.101505 0.04173,-0.204067 0.06337,-0.308711 0.0032,-0.01354 0.0057,-0.02643 0.0082,-0.0406 0,0 6.47e-4,0 6.47e-4,0 0.150432,0.102563 0.300346,0.206678 0.44769,0.314426 0.433264,0.31654 0.856227,0.645037 1.261158,0.994377 0.170007,0.146263 0.333834,0.298307 0.495087,0.453422 -0.321471,0.02279 -0.638822,0.06613 -0.955141,0.116106 -0.425538,0.07079 -0.849533,0.153563 -1.264767,0.284235 -0.0577,0.01817 -0.0984,0.07392 -0.09582,0.137972 0.0032,0.076 0.06697,0.135363 0.142189,0.132225 0.434298,-0.01817 0.861382,-0.0838 1.285373,-0.161392 0.378658,-0.0734 0.755767,-0.157196 1.127213,-0.273301 0.140128,0.140548 0.27768,0.283211 0.412142,0.428978 0.172071,0.20354 0.350836,0.402422 0.503328,0.621585 0.129311,0.155677 0.234923,0.326945 0.344142,0.497189 z m 11.50601,5.374175 c -0.346716,-0.183787 -0.705281,-0.341512 -1.06436,-0.495108 -0.30241,-0.129615 -0.608426,-0.250411 -0.915474,-0.367012 0.324049,-0.03541 0.646549,-0.0833 0.968023,-0.137443 0.509511,-0.09057 1.017477,-0.191582 1.517716,-0.338902 0.04585,-0.01354 0.07882,-0.05728 0.07728,-0.107253 -0.0019,-0.05989 -0.05152,-0.106725 -0.11076,-0.104644 -0.520847,0.01784 -1.034482,0.08172 -1.54657,0.156701 -0.511058,0.07914 -1.020569,0.170244 -1.52184,0.30924 -0.587819,-0.203044 -1.180276,-0.390993 -1.777367,-0.560708 -0.374534,-0.104115 -0.7501,-0.204068 -1.127212,-0.298802 -0.02885,-0.0073 -0.0577,-0.01354 -0.08655,-0.02048 0.563089,-0.225406 1.114332,-0.475817 1.660937,-0.736138 0.646548,-0.312873 1.287948,-0.635656 1.910797,-1.000587 0.04379,-0.02543 0.0644,-0.07964 0.04637,-0.12912 -0.01957,-0.05622 -0.08088,-0.08539 -0.136005,-0.06507 -0.676945,0.246249 -1.334828,0.53415 -1.987563,0.832952 -0.651186,0.302469 -1.29722,0.615904 -1.923161,0.973006 -0.0088,0.0053 -0.01546,0.01255 -0.02267,0.01916 -0.199372,-0.04532 -0.398747,-0.08902 -0.601211,-0.127567 -9.7e-4,0 -0.0019,0 -0.0036,0 -9.7e-4,0 -0.0026,0 -0.0036,0 -0.14734,-0.03541 -0.297772,-0.06091 -0.450268,-0.07548 -0.246769,-0.02345 -0.499208,-0.01883 -0.749069,0.02147 -0.200921,0.03488 -0.399264,0.09163 -0.590911,0.167105 -0.188557,0.08123 -0.370414,0.179097 -0.538361,0.296754 -0.05461,0.03852 -0.105613,0.08119 -0.15713,0.123373 -0.266348,0.215001 -0.496119,0.471655 -0.682096,0.752785 -0.222046,0.338407 -0.390507,0.700233 -0.491482,1.096411 -0.01391,0.05255 0.01235,0.108806 0.06337,0.131168 0.05615,0.02444 0.122099,0 0.146312,-0.05883 l 0.0032,-0.0079 c 0.144248,-0.336325 0.340018,-0.664822 0.561028,-0.956357 0.105099,-0.136916 0.218437,-0.266035 0.33899,-0.385774 0.13652,-0.136387 0.282317,-0.260288 0.439961,-0.366483 0.295199,-0.202516 0.626459,-0.341512 0.975749,-0.417517 0.18392,-0.03647 0.37196,-0.05675 0.56206,-0.06352 0.173103,-0.0063 0.34723,-0.0033 0.522907,0.01354 0.367323,0.103058 0.738254,0.205092 1.105059,0.315979 0.259137,0.07392 0.516209,0.153067 0.7738,0.231153 0,0.0079 -0.0019,0.0152 -6.47e-4,0.02279 0.117461,0.638761 0.280257,1.265069 0.45542,1.887183 0.178765,0.621584 0.368868,1.240064 0.60276,1.846058 0.01801,0.04684 0.06697,0.07548 0.117458,0.06662 0.05822,-0.0099 0.09686,-0.0656 0.08707,-0.1239 -0.109218,-0.641371 -0.262742,-1.270256 -0.427083,-1.895507 -0.155067,-0.575803 -0.321985,-1.14794 -0.523935,-1.7102 0.0082,0.0033 0.01598,0.0046 0.0237,0.0073 0.736705,0.22752 1.471351,0.461778 2.193632,0.727813 0.136523,0.0479 0.272014,0.09787 0.40802,0.148377 0.10046,0.487775 0.238529,0.963097 0.388447,1.43528 0.162795,0.497718 0.335894,0.99124 0.553302,1.471219 0.02008,0.04373 0.06697,0.07029 0.115913,0.06144 0.05822,-0.0109 0.09686,-0.06715 0.08655,-0.125453 -0.09324,-0.519584 -0.2308,-1.024568 -0.378654,-1.526414 -0.120554,-0.396707 -0.24935,-0.790804 -0.401325,-1.177602 0.461082,0.179096 0.916502,0.37015 1.362646,0.57838 0.34723,0.161391 0.68828,0.336325 1.015935,0.531012 0.3292,0.191582 0.642428,0.409193 0.922171,0.661685 l 0.0019,0.0033 c 0.0407,0.03643 0.103552,0.03594 0.143221,-0.0033 0.04276,-0.04059 0.04482,-0.108277 0.0046,-0.151482 -0.552271,-0.589313 -1.245188,-0.99071 -1.937588,-1.35356 z m 3.22605,-25.732843 c -0.01391,-0.05781 -0.07161,-0.09269 -0.128279,-0.07861 -0.156613,0.03904 -0.312714,0.07911 -0.468298,0.120763 -0.155584,0.04321 -0.313745,0.07861 -0.466751,0.1312 -0.306016,0.102563 -0.615638,0.197297 -0.915474,0.320174 -0.09016,0.03541 -0.180828,0.07029 -0.270985,0.105667 0.03812,-0.05985 0.07522,-0.120763 0.110764,-0.182201 0.123127,-0.219692 0.235437,-0.445098 0.306016,-0.693957 0.01391,-0.0505 0,-0.106724 -0.04173,-0.143686 -0.0577,-0.05153 -0.145281,-0.04634 -0.196284,0.01189 -0.169493,0.193663 -0.297258,0.410778 -0.414206,0.633575 -0.09428,0.187949 -0.180825,0.379531 -0.243677,0.584656 l -0.143221,0.06507 c -0.148886,0.06507 -0.292621,0.14002 -0.437387,0.213449 -0.143734,0.07495 -0.291075,0.142629 -0.431717,0.224382 l -0.421418,0.243111 -0.413174,0.258735 c -0.05049,0.03138 -0.09995,0.06454 -0.148886,0.09734 0.0747,-0.171796 0.142703,-0.346202 0.208647,-0.521631 0.127247,-0.352445 0.242649,-0.709052 0.313742,-1.081812 0.0108,-0.05777 -0.01598,-0.11921 -0.07006,-0.148377 -0.06645,-0.0359 -0.149914,-0.0109 -0.185462,0.05675 -0.177223,0.33474 -0.309622,0.685104 -0.43069,1.040159 -0.100974,0.308216 -0.192677,0.620561 -0.256558,0.942286 -0.07779,0.05625 -0.154556,0.112968 -0.2308,0.171797 -0.260168,0.19472 -0.511575,0.402454 -0.757316,0.61587 -0.159704,0.146825 -0.316833,0.293649 -0.468811,0.449822 -0.07161,0.07287 -0.142189,0.147848 -0.210711,0.226463 -0.0057,0.0063 -0.01132,0.01189 -0.01701,0.01817 -0.04482,0.05259 -0.04482,0.131729 0.0032,0.183787 0.03915,0.04218 0.0984,0.05361 0.148886,0.03333 0.01546,-0.0056 0.02988,-0.01453 0.04276,-0.02642 l 0.0046,-0.0046 c 0.05409,-0.05051 0.111278,-0.09995 0.167433,-0.150458 0.177223,-0.159806 0.360111,-0.317564 0.548151,-0.466469 0.01028,-0.0083 0.0206,-0.01619 0.03092,-0.02444 0.316837,0.136387 0.64346,0.239478 0.973175,0.331107 0.364745,0.09629 0.733099,0.182201 1.113817,0.223325 0.04379,0.0046 0.08809,-0.01883 0.108186,-0.06091 0.02626,-0.05414 0.0036,-0.11921 -0.05048,-0.145239 -0.345173,-0.167634 -0.702707,-0.289454 -1.063846,-0.401397 -0.251924,-0.07445 -0.505905,-0.14263 -0.764527,-0.194192 0.135491,-0.103058 0.272017,-0.204068 0.411628,-0.300387 0.312714,-0.220716 0.63161,-0.433141 0.956173,-0.634599 0.437387,0.07445 0.87632,0.110886 1.316281,0.134834 0.470361,0.02081 0.941233,0.03072 1.415199,-0.0056 0.04688,-0.0036 0.08707,-0.03802 0.09686,-0.08697 0.01184,-0.0583 -0.02577,-0.115544 -0.08398,-0.127006 -0.46572,-0.09477 -0.934535,-0.142134 -1.404378,-0.179096 -0.27768,-0.01883 -0.555877,-0.03237 -0.835103,-0.03541 0.04843,-0.02708 0.09582,-0.05569 0.144249,-0.08225 0.552271,-0.310792 1.118455,-0.597637 1.701636,-0.846495 0.578548,-0.260816 1.177184,-0.472713 1.77737,-0.687186 l 0.0041,-0.0033 c 0.051,-0.01817 0.08037,-0.07237 0.06749,-0.125981 z M 36.765958,25.082309 c -0.04997,0.02246 -0.08397,0.07287 -0.08294,0.131201 0.0016,0.07703 0.06491,0.138467 0.141157,0.136386 0.290047,-0.0063 0.56979,-0.05936 0.846956,-0.124429 0.199889,-0.0505 0.398233,-0.106724 0.592456,-0.181673 0.04894,0.03072 0.09788,0.06141 0.146309,0.09371 0.246258,0.168659 0.486844,0.347226 0.71713,0.539337 0.230286,0.193135 0.448722,0.399812 0.659947,0.614813 0.289529,0.287374 0.559997,0.594532 0.819647,0.911601 -0.408537,0.0583 -0.81089,0.142101 -1.210669,0.234787 -0.483238,0.116601 -0.963385,0.244664 -1.431682,0.420126 -0.05873,0.0218 -0.09634,0.08172 -0.0881,0.146792 0.0093,0.07551 0.07779,0.12912 0.152492,0.11921 0.495602,-0.06454 0.979872,-0.17543 1.461564,-0.298802 0.435842,-0.115577 0.869105,-0.241558 1.294129,-0.400869 0.06285,0.07964 0.125705,0.159311 0.187011,0.239478 0.184949,0.24103 0.362171,0.487807 0.53115,0.740299 0.173099,0.249354 0.337955,0.509146 0.492511,0.764743 l 0.0032,0.0053 c 0.03607,0.05936 0.111281,0.08225 0.174648,0.05153 0.06697,-0.0333 0.09531,-0.115048 0.06285,-0.183225 -0.16331,-0.340488 -0.348776,-0.664823 -0.547119,-0.980834 0.102006,-0.37015 0.171556,-0.744462 0.230285,-1.120854 0.06079,-0.416493 0.108704,-0.835034 0.11025,-1.259851 0,-0.06038 -0.03915,-0.116634 -0.09995,-0.133282 -0.07316,-0.02081 -0.148372,0.02246 -0.168465,0.09579 -0.113338,0.409193 -0.179279,0.825158 -0.23286,1.242675 -0.03246,0.271749 -0.05873,0.544027 -0.07212,0.818385 -0.06027,-0.08902 -0.120554,-0.178567 -0.182889,-0.267058 -0.363202,-0.507065 -0.76813,-0.984997 -1.208094,-1.429566 -0.08964,-0.08747 -0.182374,-0.171796 -0.275106,-0.256159 -0.0088,-0.190525 -0.03503,-0.377416 -0.06749,-0.563284 -0.04946,-0.260816 -0.111278,-0.519022 -0.219464,-0.767881 -0.02164,-0.04895 -0.07006,-0.0833 -0.12622,-0.08383 -0.07676,0 -0.139097,0.06197 -0.139614,0.139029 -0.0019,0.271749 0.04225,0.533589 0.09891,0.793381 0.0088,0.03904 0.01905,0.07756 0.02885,0.116105 -0.245741,-0.196801 -0.5023,-0.379531 -0.772768,-0.542475 -0.01701,-0.0099 -0.03452,-0.01916 -0.05152,-0.02907 -0.01494,-0.04268 -0.05358,-0.0734 -0.100458,-0.07392 -0.0098,0 -0.01905,0 -0.02781,0 -0.215341,-0.118187 -0.435838,-0.225935 -0.663549,-0.318093 -0.294681,-0.109862 -0.597091,-0.200434 -0.906199,-0.252492 -0.05255,-0.0089 -0.104581,0.02345 -0.119522,0.07653 -0.01597,0.05724 0.01701,0.116601 0.07316,0.132225 h 0.0016 c 0.357534,0.102562 0.701672,0.242582 1.030358,0.413355 -0.08089,0.01288 -0.161253,0.02708 -0.241621,0.04268 -0.278197,0.05883 -0.554331,0.129648 -0.820164,0.246778 z m 2.802576,10.937851 c -0.06079,0.340487 -0.120039,0.68147 -0.194738,1.017763 -0.07367,0.336326 -0.151977,0.671594 -0.250892,0.998539 -0.101492,0.326416 -0.212253,0.648671 -0.358565,0.955829 l -0.0016,0.0033 c -0.02164,0.04581 -0.0088,0.102034 0.03349,0.133281 0.0474,0.03488 0.113855,0.02444 0.148372,-0.02345 0.21277,-0.293649 0.37402,-0.619537 0.504362,-0.953748 0.132914,-0.334245 0.226163,-0.679919 0.310136,-1.025592 0.08088,-0.347755 0.139101,-0.698119 0.182375,-1.050597 0.03761,-0.30663 0.05924,-0.613261 0.06337,-0.924053 0.302925,-0.05728 0.608426,-0.09995 0.915474,-0.12651 0.282317,-0.02246 0.565666,-0.02609 0.848498,-0.01619 0.01235,0.0063 0.02474,0.01288 0.03864,0.01519 h 0.0077 c 0.328683,0.05985 0.665095,0.145239 0.990686,0.240006 0.0047,0 0.0088,0.0033 0.01287,0.0036 0.330743,0.0989 0.655306,0.216059 0.970597,0.352445 0.317348,0.133282 0.619244,0.297778 0.910836,0.478956 l 0.164342,0.105667 0.05255,0.03439 0.207101,0.153563 0.105613,0.07601 0.0984,0.08433 c 0.06492,0.05625 0.131888,0.111943 0.199893,0.16661 l 0.0077,0.0063 c 0.0407,0.03333 0.10046,0.03386 0.142192,-0.0033 0.04637,-0.0406 0.05152,-0.111415 0.01184,-0.158253 -0.235437,-0.277992 -0.494056,-0.546108 -0.79492,-0.756452 -0.06749,-0.04998 -0.13704,-0.09787 -0.207105,-0.144711 -0.235434,-0.156172 -0.482721,-0.294144 -0.740311,-0.408169 -0.332806,-0.150425 -0.677976,-0.270692 -1.031389,-0.357135 -0.07573,-0.01883 -0.151975,-0.03488 -0.227709,-0.05047 -0.279743,-0.05625 -0.561543,-0.09216 -0.853652,-0.09893 -0.02215,0 -0.04224,0.0063 -0.0613,0.01519 -0.231317,-0.02345 -0.463663,-0.03488 -0.69704,-0.03643 -0.106124,-0.184811 -0.226163,-0.362355 -0.36526,-0.523218 -0.07676,-0.09942 -0.166404,-0.185339 -0.251407,-0.277463 -0.08964,-0.08591 -0.179282,-0.172854 -0.274591,-0.253021 -0.189072,-0.161391 -0.389475,-0.309768 -0.601728,-0.437831 -0.212771,-0.130144 -0.430175,-0.242582 -0.673342,-0.326416 -0.05718,-0.01916 -0.123128,0 -0.158158,0.05519 -0.0407,0.06402 -0.02319,0.149401 0.04018,0.190525 l 0.0067,0.0046 c 0.190618,0.124958 0.388962,0.258735 0.57803,0.394626 0.190104,0.136915 0.377112,0.277464 0.556395,0.426369 0.182888,0.146296 0.357019,0.30194 0.526512,0.463332 0.101492,0.09318 0.197829,0.191582 0.293652,0.291006 -0.361139,0.02081 -0.720735,0.06352 -1.077237,0.12651 -0.404931,0.07601 -0.803164,0.185339 -1.195217,0.309769 -0.104066,0.03435 -0.207101,0.07392 -0.310136,0.110886 -0.08655,-0.157758 -0.201435,-0.298306 -0.3292,-0.420126 -0.15713,-0.14993 -0.335898,-0.268116 -0.518273,-0.374312 -0.184431,-0.103586 -0.377108,-0.186892 -0.573906,-0.254573 -0.198347,-0.06662 -0.396173,-0.11921 -0.609458,-0.142662 -0.05822,-0.0063 -0.11643,0.02543 -0.140646,0.08278 -0.02936,0.07029 0.0032,0.151515 0.07213,0.181177 l 0.0057,0.0033 0.536816,0.231682 c 0.176708,0.08066 0.353928,0.159277 0.521878,0.250378 0.168979,0.08955 0.333835,0.184843 0.486845,0.29312 0.10252,0.07445 0.198343,0.156173 0.29056,0.242087 -0.196283,0.07495 -0.391021,0.15462 -0.583184,0.238421 -0.748038,0.340488 -1.469291,0.736666 -2.151901,1.189593 -0.04121,0.02775 -0.08089,0.05622 -0.121582,0.0838 -0.116948,-0.07131 -0.238015,-0.132753 -0.361143,-0.188444 -0.199889,-0.08539 -0.40493,-0.159839 -0.628001,-0.189501 -0.04843,-0.0063 -0.09943,0.01354 -0.130857,0.05569 -0.04585,0.06299 -0.03297,0.151515 0.02885,0.198354 0.180311,0.135362 0.378658,0.226463 0.581636,0.305606 0.05461,0.01982 0.108704,0.03904 0.163827,0.05675 -0.513631,0.364931 -1.007173,0.75589 -1.47135,1.192169 -0.05152,0.04892 -0.05821,0.130144 -0.01339,0.186363 0.04688,0.05883 0.132403,0.06821 0.190618,0.02081 l 0.0041,-0.0033 c 0.308079,-0.250411 0.631096,-0.496132 0.959265,-0.726757 0.275105,-0.198354 0.556908,-0.386798 0.842832,-0.570056 0.02267,-0.0056 0.04431,-0.01552 0.06028,-0.03541 9.7e-4,0 9.7e-4,-0.0036 0.0026,-0.0053 0.03143,-0.01982 0.06233,-0.04113 0.09428,-0.06091 0.274074,-0.173349 0.552789,-0.337845 0.834588,-0.496627 -0.07934,0.230096 -0.1494,0.463331 -0.214313,0.69759 -0.10664,0.404007 -0.202981,0.811119 -0.255012,1.231212 -0.0057,0.04532 0.01801,0.09113 0.06131,0.111415 0.05358,0.02543 0.117459,0.0033 0.142189,-0.05259 0.177222,-0.38366 0.309622,-0.780367 0.431204,-1.179683 0.09995,-0.340455 0.189586,-0.683552 0.251924,-1.03494 0.281803,-0.148906 0.567212,-0.291535 0.857773,-0.421679 0.363716,-0.165553 0.733099,-0.316011 1.109179,-0.44774 0.362171,-0.123901 0.730526,-0.225935 1.101454,-0.316012 -0.04276,0.267621 -0.08758,0.53676 -0.131885,0.804348 z m 24.754869,14.915788 c -0.08552,-0.08122 -0.17413,-0.160896 -0.265316,-0.240006 -0.0019,-0.0033 -0.0041,-0.0043 -0.0067,-0.0056 -0.09273,-0.0807 -0.188555,-0.159806 -0.287469,-0.238421 -6.47e-4,0 -9.71e-4,0 -0.0016,0 -0.09943,-0.07914 -0.202467,-0.156701 -0.308594,-0.232739 -6.47e-4,0 -9.7e-4,0 -0.0016,0 0.0062,0.03435 0.01184,0.06715 0.01805,0.100481 0.0041,0.02345 0.0088,0.0479 0.01287,0.07082 0.0057,0.02874 0.0108,0.05672 0.01598,0.08486 0.0052,0.02775 0.0108,0.05516 0.01598,0.08172 0.0046,0.02609 0.0098,0.05051 0.01442,0.07548 0.0057,0.02708 0.0108,0.05364 0.01649,0.08017 0.0046,0.02378 0.0098,0.0474 0.01494,0.07029 0.0051,0.02543 0.0108,0.05051 0.01598,0.07498 0.0051,0.02147 0.0098,0.04268 0.01494,0.06352 0.0057,0.0251 0.01132,0.04892 0.01753,0.07287 0.0046,0.01817 0.0088,0.03696 0.01339,0.05467 0.0067,0.0251 0.01339,0.04895 0.02008,0.0729 0.0036,0.0142 0.0077,0.02874 0.01132,0.04215 0.0108,0.03643 0.02164,0.07029 0.03246,0.102034 0.0019,0.0069 0.0047,0.01189 0.0067,0.01817 0.0088,0.02543 0.01753,0.04945 0.02678,0.07184 0.0041,0.0099 0.0082,0.01817 0.01235,0.02742 0.0072,0.01718 0.01442,0.03333 0.02215,0.04842 0.0046,0.0092 0.0093,0.01784 0.01442,0.02609 0.0072,0.01288 0.01442,0.02543 0.02163,0.03643 0.0052,0.0079 0.01032,0.01453 0.01546,0.02147 0.0072,0.0099 0.01494,0.01883 0.02319,0.02709 0.0051,0.0056 0.01032,0.0109 0.01546,0.0152 0.0082,0.0073 0.01649,0.01288 0.02474,0.01817 0.0051,0.0033 0.01032,0.0069 0.01598,0.0089 0.0093,0.0043 0.01905,0.0069 0.02885,0.0083 0.0046,0 0.0088,0.0033 0.01339,0.0033 0.01494,0 0.02988,0 0.04534,-0.0053 6.47e-4,0 0.0016,0 0.0019,0 0.05461,-0.01619 0.107158,-0.03643 0.158162,-0.06038 0.0108,-0.0053 0.02164,-0.01189 0.03246,-0.01718 0.04225,-0.02147 0.08346,-0.04373 0.123642,-0.06976 0.0077,-0.0053 0.01546,-0.0109 0.0237,-0.01619 0.04328,-0.02973 0.08604,-0.06091 0.127251,-0.09629 0.0032,-0.0033 0.0067,-0.0056 0.01032,-0.0089 0.04533,-0.03904 0.08964,-0.08122 0.131885,-0.127039 0,0 0,0 0,0 -0.08088,-0.08331 -0.164341,-0.166082 -0.250892,-0.247801 -0.0026,-0.0033 -0.0057,-0.0053 -0.0082,-0.0079 z m 0.619244,-2.450995 c -0.08397,-0.462836 -0.446145,-0.789781 -0.807798,-0.730952 -0.362171,0.05883 -0.602246,0.586737 -0.517755,1.049539 0.08397,0.462308 0.460568,0.685105 0.822739,0.626276 0.362171,-0.05883 0.587305,-0.482061 0.502814,-0.944863 z m 0.01856,-3.580207 c -0.128797,-0.70489 -0.681582,-1.203631 -1.235916,-1.113555 -0.553817,0.09057 -0.921657,0.894392 -0.792861,1.59981 0.12828,0.70489 0.703735,1.044321 1.258066,0.954244 0.553817,-0.09057 0.898473,-0.735081 0.770711,-1.440499 z m -1.312678,-1.717963 c 0.540939,-0.139029 0.841803,-0.733528 0.671793,-1.327565 -0.170525,-0.594499 -0.747009,-0.964153 -1.288463,-0.825124 -0.541453,0.138468 -0.854681,0.87302 -0.684673,1.467552 0.170524,0.594003 0.759889,0.823605 1.301343,0.685137 z m -24.013012,15.1844 c -0.428115,-0.06976 -0.85623,0.317564 -0.955656,0.864696 -0.09943,0.547165 0.166916,1.047458 0.595031,1.11722 0.428629,0.06976 0.873742,-0.193663 0.973171,-0.740795 0.09995,-0.547165 -0.183917,-1.171359 -0.612546,-1.241121 z m 0.484267,-4.687518 c -0.655306,-0.106725 -1.309584,0.483117 -1.461562,1.317126 -0.151463,0.83401 0.256559,1.596705 0.911868,1.703925 0.655306,0.106724 1.336374,-0.29464 1.487837,-1.12865 0.151975,-0.834538 -0.282834,-1.785677 -0.938143,-1.892401 z m 1.630026,-1.525357 c -0.201432,0.702809 -0.898473,0.97403 -1.538323,0.810062 -0.640883,-0.164001 -0.996356,-0.86681 -0.795438,-1.570148 0.201953,-0.703337 0.884049,-1.140111 1.524417,-0.97611 0.639851,0.163968 1.010782,1.032858 0.809344,1.736196"
   style="fill:#266c39;fill-opacity:1;fill-rule:nonzero;stroke:none;stroke-width:0.132578"
   id="path1417" />
    </g>
</svg>
