<?xml version="1.0" encoding="UTF-8" standalone="no"?>
<svg
   xmlns:dc="http://purl.org/dc/elements/1.1/"
   xmlns:cc="http://creativecommons.org/ns#"
   xmlns:rdf="http://www.w3.org/1999/02/22-rdf-syntax-ns#"
   xmlns:svg="http://www.w3.org/2000/svg"
   xmlns="http://www.w3.org/2000/svg"
   xmlns:sodipodi="http://sodipodi.sourceforge.net/DTD/sodipodi-0.dtd"
   xmlns:inkscape="http://www.inkscape.org/namespaces/inkscape"
   version="1.1"
   id="svg885"
   xml:space="preserve"
   width="100"
   height="100"
   viewBox="0 0 100 99.999997"
   sodipodi:docname="Catálogo-0.svg"
   inkscape:version="1.0.2 (e86c870879, 2021-01-15)"><sodipodi:namedview
     pagecolor="#ffffff"
     bordercolor="#666666"
     borderopacity="1"
     objecttolerance="10"
     gridtolerance="10"
     guidetolerance="10"
     inkscape:pageopacity="0"
     inkscape:pageshadow="2"
     inkscape:window-width="942"
     inkscape:window-height="968"
     id="namedview2777"
     showgrid="false"
     inkscape:zoom="5.74"
     inkscape:cx="50.696864"
     inkscape:cy="50"
     inkscape:window-x="0"
     inkscape:window-y="0"
     inkscape:window-maximized="1"
     inkscape:current-layer="layer1" /><metadata
     id="metadata891"><rdf:RDF><cc:Work
         rdf:about=""><dc:format>image/svg+xml</dc:format><dc:type
           rdf:resource="http://purl.org/dc/dcmitype/StillImage" /><dc:title /></cc:Work></rdf:RDF></metadata><defs
     id="defs889"><clipPath
       clipPathUnits="userSpaceOnUse"
       id="clipPath901"><path
         d="M 0,0 H 2483.3333 V 3540.4702 H 0 Z"
         clip-rule="evenodd"
         id="path899" /></clipPath><clipPath
       clipPathUnits="userSpaceOnUse"
       id="clipPath915"><path
         d="M 0,0 H 2483.3333 V 3512.3215 H 0 Z"
         clip-rule="evenodd"
         id="path913" /></clipPath><clipPath
       clipPathUnits="userSpaceOnUse"
       id="clipPath927"><path
         d="M 0,0 H 2483.3333 V 3512.3215 H 0 Z"
         clip-rule="evenodd"
         id="path925" /></clipPath><clipPath
       clipPathUnits="userSpaceOnUse"
       id="clipPath941"><path
         d="m 826.8432,460.25955 h 741.2469 v 96.95633 H 826.8432 Z"
         clip-rule="evenodd"
         id="path939" /></clipPath><clipPath
       clipPathUnits="userSpaceOnUse"
       id="clipPath953"><path
         d="M 0,0 H 2483.3333 V 3540.4702 H 0 Z"
         id="path951" /></clipPath><clipPath
       clipPathUnits="userSpaceOnUse"
       id="clipPath959"><path
         d="M 0,0 H 2483.3333 V 3512.3215 H 0 Z"
         id="path957" /></clipPath><clipPath
       clipPathUnits="userSpaceOnUse"
       id="clipPath965"><path
         d="m 308.9216,2685.042 h 309.6348 v 303.3794 H 308.9216 Z"
         id="path963" /></clipPath><clipPath
       clipPathUnits="userSpaceOnUse"
       id="clipPath971"><path
         d="m 308.9216,2685.042 h 309.6348 v 303.3794 H 308.9216 Z"
         id="path969" /></clipPath><clipPath
       clipPathUnits="userSpaceOnUse"
       id="clipPath977"><path
         d="m 308.9216,2685.481 h 310.95987 v 302.9404 H 308.9216 Z"
         id="path975" /></clipPath><linearGradient
       x1="-0.39899999"
       y1="68.556999"
       x2="137.05499"
       y2="68.556999"
       gradientUnits="userSpaceOnUse"
       gradientTransform="matrix(0.23722203,-0.03641025,-0.03641025,-0.23722204,1263.9734,-70.573204)"
       spreadMethod="pad"
       id="linearGradient985"><stop
         style="stop-opacity:1;stop-color:#6fd6ff"
         offset="0"
         id="stop981" /><stop
         style="stop-opacity:1;stop-color:#bff0cf"
         offset="1"
         id="stop983" /></linearGradient><clipPath
       clipPathUnits="userSpaceOnUse"
       id="clipPath995"><path
         d="M 0,0 H 2483.3333 V 3540.4702 H 0 Z"
         id="path993" /></clipPath><clipPath
       clipPathUnits="userSpaceOnUse"
       id="clipPath1001"><path
         d="M 0,0 H 2483.3333 V 3512.3215 H 0 Z"
         id="path999" /></clipPath><clipPath
       clipPathUnits="userSpaceOnUse"
       id="clipPath1007"><path
         d="M 308.9216,2304.8564 H 618.5564 V 2608.236 H 308.9216 Z"
         id="path1005" /></clipPath><clipPath
       clipPathUnits="userSpaceOnUse"
       id="clipPath1013"><path
         d="M 308.9216,2304.8564 H 618.5564 V 2608.236 H 308.9216 Z"
         id="path1011" /></clipPath><clipPath
       clipPathUnits="userSpaceOnUse"
       id="clipPath1019"><path
         d="m 308.9216,2305.2957 h 310.95987 v 302.9404 H 308.9216 Z"
         id="path1017" /></clipPath><linearGradient
       x1="-0.39899999"
       y1="68.556999"
       x2="137.05499"
       y2="68.556999"
       gradientUnits="userSpaceOnUse"
       gradientTransform="matrix(0.23722203,-0.03641025,-0.03641025,-0.23722204,1050.3098,-70.573204)"
       spreadMethod="pad"
       id="linearGradient1027"><stop
         style="stop-opacity:1;stop-color:#6fd6ff"
         offset="0"
         id="stop1023" /><stop
         style="stop-opacity:1;stop-color:#bff0cf"
         offset="1"
         id="stop1025" /></linearGradient><clipPath
       clipPathUnits="userSpaceOnUse"
       id="clipPath1037"><path
         d="M 0,0 H 2483.3333 V 3540.4702 H 0 Z"
         id="path1035" /></clipPath><clipPath
       clipPathUnits="userSpaceOnUse"
       id="clipPath1043"><path
         d="M 0,0 H 2483.3333 V 3512.3215 H 0 Z"
         id="path1041" /></clipPath><clipPath
       clipPathUnits="userSpaceOnUse"
       id="clipPath1049"><path
         d="m 308.9216,1901.5927 h 309.6348 v 303.3795 H 308.9216 Z"
         id="path1047" /></clipPath><clipPath
       clipPathUnits="userSpaceOnUse"
       id="clipPath1055"><path
         d="m 308.9216,1901.5927 h 309.6348 v 303.3795 H 308.9216 Z"
         id="path1053" /></clipPath><clipPath
       clipPathUnits="userSpaceOnUse"
       id="clipPath1061"><path
         d="m 308.9216,1902.0319 h 310.95987 v 302.9403 H 308.9216 Z"
         id="path1059" /></clipPath><linearGradient
       x1="-0.39899999"
       y1="68.556999"
       x2="137.05499"
       y2="68.556999"
       gradientUnits="userSpaceOnUse"
       gradientTransform="matrix(0.23722203,-0.03641025,-0.03641025,-0.23722204,823.67611,-70.573204)"
       spreadMethod="pad"
       id="linearGradient1069"><stop
         style="stop-opacity:1;stop-color:#6fd6ff"
         offset="0"
         id="stop1065" /><stop
         style="stop-opacity:1;stop-color:#bff0cf"
         offset="1"
         id="stop1067" /></linearGradient><clipPath
       clipPathUnits="userSpaceOnUse"
       id="clipPath1079"><path
         d="M 0,0 H 2483.3333 V 3540.4702 H 0 Z"
         id="path1077" /></clipPath><clipPath
       clipPathUnits="userSpaceOnUse"
       id="clipPath1085"><path
         d="M 0,0 H 2483.3333 V 3512.3215 H 0 Z"
         id="path1083" /></clipPath><clipPath
       clipPathUnits="userSpaceOnUse"
       id="clipPath1091"><path
         d="m 308.9216,1502.5114 h 309.6348 v 303.3795 H 308.9216 Z"
         id="path1089" /></clipPath><clipPath
       clipPathUnits="userSpaceOnUse"
       id="clipPath1097"><path
         d="m 308.9216,1502.5114 h 309.6348 v 303.3795 H 308.9216 Z"
         id="path1095" /></clipPath><clipPath
       clipPathUnits="userSpaceOnUse"
       id="clipPath1103"><path
         d="m 308.9216,1502.9506 h 310.95987 v 302.9403 H 308.9216 Z"
         id="path1101" /></clipPath><linearGradient
       x1="-0.39899999"
       y1="68.556999"
       x2="137.05499"
       y2="68.556999"
       gradientUnits="userSpaceOnUse"
       gradientTransform="matrix(0.23722203,-0.03641025,-0.03641025,-0.23722204,599.39313,-70.573204)"
       spreadMethod="pad"
       id="linearGradient1111"><stop
         style="stop-opacity:1;stop-color:#6fd6ff"
         offset="0"
         id="stop1107" /><stop
         style="stop-opacity:1;stop-color:#bff0cf"
         offset="1"
         id="stop1109" /></linearGradient><clipPath
       clipPathUnits="userSpaceOnUse"
       id="clipPath1121"><path
         d="M 0,0 H 2483.3333 V 3540.4702 H 0 Z"
         id="path1119" /></clipPath><clipPath
       clipPathUnits="userSpaceOnUse"
       id="clipPath1127"><path
         d="M 0,0 H 2483.3333 V 3512.3215 H 0 Z"
         id="path1125" /></clipPath><clipPath
       clipPathUnits="userSpaceOnUse"
       id="clipPath1133"><path
         d="m 319.52377,1121.1804 h 287.74136 v 281.4862 H 319.52377 Z"
         id="path1131" /></clipPath><clipPath
       clipPathUnits="userSpaceOnUse"
       id="clipPath1139"><path
         d="m 319.52377,1121.1804 h 287.74136 v 281.4862 H 319.52377 Z"
         id="path1137" /></clipPath><clipPath
       clipPathUnits="userSpaceOnUse"
       id="clipPath1145"><path
         d="m 319.52377,1122.5906 h 288.37808 v 280.076 H 319.52377 Z"
         id="path1143" /></clipPath><linearGradient
       x1="-0.39899999"
       y1="68.556999"
       x2="137.05499"
       y2="68.556999"
       gradientUnits="userSpaceOnUse"
       gradientTransform="matrix(0.23722202,-0.03641025,-0.03641024,-0.23722204,405.68257,-82.713662)"
       spreadMethod="pad"
       id="linearGradient1153"><stop
         style="stop-opacity:1;stop-color:#6fd6ff"
         offset="0"
         id="stop1149" /><stop
         style="stop-opacity:1;stop-color:#bff0cf"
         offset="1"
         id="stop1151" /></linearGradient><clipPath
       clipPathUnits="userSpaceOnUse"
       id="clipPath1163"><path
         d="M 0,0 H 2483.3333 V 3540.4702 H 0 Z"
         id="path1161" /></clipPath><clipPath
       clipPathUnits="userSpaceOnUse"
       id="clipPath1169"><path
         d="M 0,0 H 2483.3333 V 3512.3215 H 0 Z"
         id="path1167" /></clipPath><clipPath
       clipPathUnits="userSpaceOnUse"
       id="clipPath1175"><path
         d="M 308.9216,715.88965 H 618.5564 V 1019.2692 H 308.9216 Z"
         id="path1173" /></clipPath><clipPath
       clipPathUnits="userSpaceOnUse"
       id="clipPath1181"><path
         d="M 308.9216,715.88965 H 618.5564 V 1019.2692 H 308.9216 Z"
         id="path1179" /></clipPath><clipPath
       clipPathUnits="userSpaceOnUse"
       id="clipPath1187"><path
         d="M 308.9216,716.32886 H 619.88147 V 1019.2692 H 308.9216 Z"
         id="path1185" /></clipPath><linearGradient
       x1="-0.39899999"
       y1="68.556999"
       x2="137.05499"
       y2="68.556999"
       gradientUnits="userSpaceOnUse"
       gradientTransform="matrix(0.23722203,-0.03641025,-0.03641025,-0.23722204,157.3129,-70.573204)"
       spreadMethod="pad"
       id="linearGradient1195"><stop
         style="stop-opacity:1;stop-color:#6fd6ff"
         offset="0"
         id="stop1191" /><stop
         style="stop-opacity:1;stop-color:#bff0cf"
         offset="1"
         id="stop1193" /></linearGradient><clipPath
       clipPathUnits="userSpaceOnUse"
       id="clipPath1205"><path
         d="M 313.41205,715.44434 H 616.79157 V 1018.8239 H 313.41205 Z"
         clip-rule="evenodd"
         id="path1203" /></clipPath><clipPath
       clipPathUnits="userSpaceOnUse"
       id="clipPath1225"><path
         d="m 308.92712,1502.066 h 309.63477 v 309.6348 H 308.92712 Z"
         clip-rule="evenodd"
         id="path1223" /></clipPath><clipPath
       clipPathUnits="userSpaceOnUse"
       id="clipPath1253"><path
         d="m 303.61801,1107.9291 h 319.01688 v 319.0168 H 303.61801 Z"
         clip-rule="evenodd"
         id="path1251" /></clipPath><clipPath
       clipPathUnits="userSpaceOnUse"
       id="clipPath1265"><path
         d="m 303.61801,1107.9291 h 319.01761 v 319.0177 H 303.61801 Z"
         clip-rule="evenodd"
         id="path1263" /></clipPath><clipPath
       clipPathUnits="userSpaceOnUse"
       id="clipPath1283"><path
         d="M 0,0 H 2483.3333 V 3512.3215 H 0 Z"
         clip-rule="evenodd"
         id="path1281" /></clipPath><clipPath
       clipPathUnits="userSpaceOnUse"
       id="clipPath1205-8"><path
         d="M 313.41205,715.44434 H 616.79157 V 1018.8239 H 313.41205 Z"
         clip-rule="evenodd"
         id="path1203-5" /></clipPath><clipPath
       clipPathUnits="userSpaceOnUse"
       id="clipPath1253-6"><path
         d="m 303.61801,1107.9291 h 319.01688 v 319.0168 H 303.61801 Z"
         clip-rule="evenodd"
         id="path1251-1" /></clipPath><clipPath
       clipPathUnits="userSpaceOnUse"
       id="clipPath1265-1"><path
         d="m 303.61801,1107.9291 h 319.01761 v 319.0177 H 303.61801 Z"
         clip-rule="evenodd"
         id="path1263-5" /></clipPath><clipPath
       clipPathUnits="userSpaceOnUse"
       id="clipPath1225-8"><path
         d="m 308.92712,1502.066 h 309.63477 v 309.6348 H 308.92712 Z"
         clip-rule="evenodd"
         id="path1223-4" /></clipPath><filter
       style="color-interpolation-filters:sRGB"
       id="filter12425"
       x="-0.0018"
       width="1.0036"
       y="-0.0018"
       height="1.0036"><feGaussianBlur
         stdDeviation="0.23926264"
         id="feGaussianBlur12427" /></filter><clipPath
       clipPathUnits="userSpaceOnUse"
       id="clipPath12769"><path
         d="m 308.92712,1502.066 h 309.63477 v 309.6348 H 308.92712 Z"
         clip-rule="evenodd"
         id="path12767" /></clipPath></defs><g
     id="layer1"><g
       id="g4134"
       inkscape:label="flash"
       transform="matrix(0.99976493,0,0,0.99976507,-0.68494639,0.01174593)"
       style="display:none"><path
         d="m 100.70862,50.000002 c 0,20.050172 -11.801143,37.34807 -28.836352,45.314809 -2.560181,1.199718 -5.234065,2.187716 -8.005958,2.944409 -1.666274,0.450874 -3.363914,0.819415 -5.088998,1.101701 -0.474402,0.07842 -0.948796,0.148985 -1.427115,0.207794 -2.175958,0.294049 -4.395044,0.443035 -6.653335,0.443035 -27.620949,0 -50.01175456,-22.390811 -50.01175456,-50.011748 0,-27.620946 22.39080556,-50.01175069 50.01175456,-50.01175069 18.877912,0 35.309326,10.46028169 43.817135,25.89978269 0.9488,1.717242 1.795648,3.497211 2.540582,5.328153 0.415585,1.023288 0.799812,2.066184 1.148745,3.124754 0.313648,0.952717 0.599859,1.917196 0.858622,2.89344 1.074264,4.073543 1.646674,8.354895 1.646674,12.765621 z"
         style="display:inline;fill:#2453ff;fill-opacity:1;fill-rule:nonzero;stroke:none;stroke-width:0.392065"
         id="path1209" /><path
         d="m 100.70862,50.000002 c 0,20.050172 -11.801143,37.34807 -28.836352,45.314809 -2.560181,1.199718 -5.234065,2.187716 -8.005958,2.944409 -1.666274,0.450874 -3.363914,0.819415 -5.088998,1.101701 -0.474402,0.07842 -0.948796,0.148985 -1.427115,0.207794 L 35.739602,89.418169 61.933432,51.258529 53.703997,47.780921 39.969975,38.249832 64.583788,10.581839 94.513997,25.888038 c 0.9488,1.717246 1.795648,3.497215 2.540582,5.328157 0.415585,1.023288 0.799812,2.06618 1.148745,3.124754 0.313648,0.952713 0.599859,1.917195 0.858622,2.893436 1.074264,4.073539 1.646674,8.354891 1.646674,12.765617 z"
         style="display:inline;fill:#274393;fill-opacity:1;fill-rule:nonzero;stroke:none;stroke-width:0.392065"
         id="path1211" /><path
         d="M 34.673187,10.581831 H 64.583792 L 49.093317,42.150866 H 76.337888 L 35.739602,89.418169 46.423362,57.586446 H 25.055843 Z"
         style="display:inline;fill:#ffce01;fill-opacity:1;fill-rule:nonzero;stroke:none;stroke-width:0.392065"
         id="path1213" /><path
         d="m 67.343927,32.839334 1.913275,3.497215 3.497212,1.913275 -3.497212,1.913271 -1.913275,3.497216 -1.913279,-3.497216 -3.497216,-1.913271 3.497216,-1.913275 z"
         style="display:inline;fill:#ffffff;fill-opacity:1;fill-rule:nonzero;stroke:none;stroke-width:0.392065"
         id="path1215" /><path
         d="m 74.459895,38.249824 1.29382,2.364149 2.368063,1.297734 -2.368063,1.293813 -1.29382,2.364149 -1.29381,-2.364149 -2.36807,-1.293813 2.36807,-1.297734 z"
         style="display:inline;opacity:0.9985;fill:#ffffff;fill-opacity:1;fill-rule:nonzero;stroke:none;stroke-width:0.392065"
         id="path1217" /></g><g
       id="g12763"
       transform="matrix(0.32153396,0,0,0.321534,-99.80925,-482.75028)"
       style="display:none"
       inkscape:label="g12763"><path
         d="m 621.42502,1656.9019 c 0,68.3865 -44.12554,126.4528 -105.46774,147.2656 -0.234,0.086 -0.48029,0.1601 -0.71429,0.234 -6.65022,2.2414 -13.49751,4.0271 -20.5172,5.3448 -9.33495,1.7488 -18.96546,2.6601 -28.80535,2.6601 -6.07142,0 -12.06893,-0.3448 -17.95562,-1.0221 -77.42593,-8.904 -137.54894,-74.6674 -137.54894,-154.4824 0,-85.8865 69.61805,-155.5046 155.50455,-155.5046 63.91609,0 118.81747,38.5467 142.72135,93.6697 0.3325,0.7759 0.66504,1.5394 0.98521,2.3153 0.25861,0.6281 0.51725,1.2685 0.77586,1.9089 4.28572,10.7389 7.42609,22.0935 9.21181,33.8669 1.19459,7.7339 1.81036,15.6649 1.81036,23.7438 z"
         style="display:inline;fill:#b4e0f3;fill-opacity:1;fill-rule:nonzero;stroke:none;stroke-width:1.23152"
         id="path12773" /><path
         d="m 621.42502,1656.9019 c 0,68.3865 -44.12554,126.4528 -105.46774,147.2656 -0.234,0.086 -0.48029,0.1601 -0.71429,0.234 l -67.37668,-30.9236 55.72647,-225.8122 106.81011,51.6255 c 4.28571,10.7388 7.42609,22.0935 9.21181,33.8669 1.19455,7.7339 1.81032,15.6649 1.81032,23.7438 z"
         style="display:inline;fill:#62c6ec;fill-opacity:1;fill-rule:nonzero;stroke:none;stroke-width:1.23152"
         id="path12775" /><path
         d="m 538.88828,1610.3379 c 0,-40.2955 -32.67234,-72.9678 -72.96781,-72.9678 -40.29549,0 -72.96781,32.6723 -72.96781,72.9678 0,25.9975 13.60834,48.8053 34.07626,61.724 v 45.3201 h 77.77077 v -45.3201 c 20.48022,-12.9187 34.08859,-35.7265 34.08859,-61.724 z"
         style="display:inline;fill:#fdc93b;fill-opacity:1;fill-rule:nonzero;stroke:none;stroke-width:1.23152"
         id="path12777" /><path
         d="m 470.58793,1776.4336 h -8.62067 c -19.29798,0 -34.92602,-15.6404 -34.92602,-34.9261 v -24.1132 h 78.48502 v 24.1132 c 0,19.2857 -15.64034,34.9261 -34.93833,34.9261 z"
         style="display:inline;fill:#5560a9;fill-opacity:1;fill-rule:nonzero;stroke:none;stroke-width:1.23152"
         id="path12779" /><path
         d="m 505.68637,1746.9016 h -79.5195 c -2.77093,0 -5.03694,-2.266 -5.03694,-5.0369 0,-2.7709 2.26601,-5.0369 5.03694,-5.0369 h 79.51951 c 2.77093,0 5.03694,2.266 5.03694,5.0369 -10e-6,2.7709 -2.26602,5.0369 -5.03695,5.0369 z"
         style="display:inline;fill:#3c3f7e;fill-opacity:1;fill-rule:nonzero;stroke:none;stroke-width:1.23152"
         id="path12781" /><path
         d="m 453.3589,1720.2761 c -1.40394,0 -2.63547,-1.0222 -2.84481,-2.4507 l -15.35711,-100.6525 c -0.2463,-1.5764 0.83742,-3.0542 2.41379,-3.2882 1.58866,-0.234 3.05418,0.8374 3.28817,2.4138 l 15.3571,100.6525 c 0.24631,1.5763 -0.83742,3.0542 -2.4138,3.2882 -0.16008,0.025 -0.30788,0.037 -0.44334,0.037 z"
         style="display:inline;fill:#f7a739;fill-opacity:1;fill-rule:nonzero;stroke:none;stroke-width:1.23152"
         id="path12783" /><path
         d="m 479.40564,1720.2761 c -0.14777,0 -0.29556,-0.012 -0.44334,-0.037 -1.57635,-0.2463 -2.6601,-1.7118 -2.41379,-3.2881 l 15.35711,-100.6525 c 0.23399,-1.5764 1.71181,-2.6601 3.28817,-2.4138 1.57633,0.2463 2.66009,1.7118 2.41378,3.2881 l -15.3571,100.6525 c -0.20936,1.4286 -1.44089,2.4508 -2.84483,2.4508 z"
         style="display:inline;fill:#f7a739;fill-opacity:1;fill-rule:nonzero;stroke:none;stroke-width:1.23152"
         id="path12785" /><path
         d="m 506.56077,1727.4682 h -79.51953 c -2.77093,0 -5.03694,-2.266 -5.03694,-5.037 0,-2.7709 2.26601,-5.0369 5.03694,-5.0369 h 79.51953 c 2.77093,0 5.03692,2.266 5.03692,5.0369 0,2.771 -2.26599,5.037 -5.03692,5.037 z"
         style="display:inline;fill:#3c3f7e;fill-opacity:1;fill-rule:nonzero;stroke:none;stroke-width:1.23152"
         id="path12787" /><path
         d="m 455.60028,1644.4265 c -0.55418,0 -1.10836,-0.1601 -1.60098,-0.4803 l -15.38175,-10.2216 c -1.33005,-0.8867 -1.68717,-2.6724 -0.80048,-4.0025 0.8867,-1.33 2.67241,-1.6872 4.00246,-0.8005 l 13.11572,8.7192 9.03938,-11.995 c 0.56652,-0.7513 1.40394,-1.17 2.38916,-1.1453 0.93596,0.025 1.79804,0.5049 2.31528,1.2807 l 7.80785,11.6626 12.931,-9.4335 c 1.28079,-0.936 3.09113,-0.6527 4.0394,0.6281 0.93596,1.2931 0.65271,3.0911 -0.62806,4.0394 l -15.35711,11.2068 c -0.62808,0.468 -1.42858,0.6527 -2.20443,0.505 -0.77586,-0.1355 -1.45318,-0.5789 -1.89653,-1.2316 l -7.21673,-10.7881 -8.2389,10.9236 c -0.57883,0.7389 -1.44091,1.133 -2.31528,1.133 z"
         style="display:inline;fill:#f7a739;fill-opacity:1;fill-rule:nonzero;stroke:none;stroke-width:1.23152"
         id="path12789" /></g><g
       id="g4922"
       style="display:none"
       transform="matrix(0.9999935,0,0,1.0000065,-0.69653429,-3.2575297e-4)"><path
         d="m 319.19922,159.59766 c 0,88.14453 -71.45313,159.60156 -159.59766,159.60156 C 71.457031,319.19922 0,247.74219 0,159.59766 0,71.453125 71.457031,0 159.60156,0 247.74609,0 319.19922,71.453125 319.19922,159.59766"
         style="display:inline;fill:#6fd6ff;fill-opacity:1;fill-rule:nonzero;stroke:none;filter:url(#filter12425)"
         id="path1257"
         transform="matrix(0.31216222,0,0,0.31215817,0.87589547,0.17967774)" /><path
         d="m 255.67188,102.85937 -6.69922,94.7461 c -0.40235,5.69531 -7.25782,10.26953 -15.3125,10.26953 H 88.734375 c -8.054687,0 -14.941406,-4.57422 -15.382812,-10.26953 L 65.96875,102.85937 C 65.445313,96.148438 72.203125,90.65625 81.0625,90.65625 h 159.42578 c 8.86328,0 15.65625,5.492188 15.1836,12.20312"
         style="display:inline;fill:#2453ff;fill-opacity:1;fill-rule:nonzero;stroke:none;filter:url(#filter12425)"
         id="path1269"
         transform="matrix(0.31216222,0,0,0.31215817,1.6014982,-1.9172404)" /><path
         d="m 81.0625,90.65625 h 28.16406 c 0.008,-0.148437 0.0195,-0.292969 0.0195,-0.441406 v -1.375 c 0,-3.34375 -2.71093,-6.054688 -6.05468,-6.054688 H 83.621064 c -3.34375,0 -6.054688,2.710938 -6.054688,6.054688 v 1.375 c 0,0.25 0.01953,0.496094 0.04687,0.734375 1.105469,-0.1875 2.257813,-0.292969 3.449219,-0.292969 z m 188.67578,90.76563 c -4.5625,-16.20313 -10.2539,-32.93751 -16.13281,-49.3711 l 0.76562,-10.82031 h -49.15625 c 4.72657,7.80469 7.44922,16.95703 7.44922,26.75 0,28.55469 -23.15234,51.70703 -51.71094,51.70703 -28.55468,0 -51.70703,-23.15234 -51.70703,-51.70703 0,-9.79297 2.72266,-18.94922 7.45313,-26.75391 0,0 -0.004,0.004 -0.004,0.004 H 67.402254 l 0.957031,12.28515 c -10.972656,26.25782 -27.363281,65.81251 -27.96875,69.16797 -0.734375,4.05079 -0.01953,7.83985 1.960938,10.39063 2.289062,2.94922 6.292968,4.40234 9.910156,5.43359 2.546875,0.72657 5.207031,1.35938 7.90625,1.88282 18.953125,3.33984 38.441406,1.60937 57.285161,-0.0586 4.99218,-0.4414 10.15624,-0.90234 15.24218,-1.26172 2.96485,-0.20703 6.32422,-0.44531 9.65235,0.004 3.26562,0.4375 5.15625,1.89453 5.61718,4.33203 0.29297,1.5625 -0.11718,3.03906 -0.5039,4.15625 -1.0625,3.04688 -7.55078,10.5 -11.55078,15.01172 -0.76954,0.87109 -0.17188,2.24219 0.99218,2.27344 4.94532,0.1289 12.23828,0.0742 14.42579,0.15234 7.17578,0.25 14.35937,0.33984 21.53906,0.26172 14.35937,-0.15234 28.71484,-0.95703 43,-2.41406 12.40234,-1.26563 24.75,-3.01563 37.01172,-5.25782 7.57422,-1.38281 21.625,-1.86718 24.35156,-11.03125 1.25781,-4.22656 4.21094,-3.55468 -7.49219,-45.13671 z m 13.28906,56.67578 c -7.00781,9.52734 -19.61328,10.8789 -30.74609,12.42968 -12.09766,1.6836 -24.23437,3.06641 -36.41406,3.98047 -26.01172,1.95313 -52.10157,2.81641 -78.17969,3.37891 -0.57031,0.0117 -1.14063,0.004 -1.70313,-0.0234 -4.90234,-0.22656 -9.35546,-1.89844 -12.15234,-4.60937 -1.77734,-1.72266 -2.7539,-3.91797 -2.82812,-6.35547 -0.16797,-5.65235 3.78906,-9.91797 7.27734,-13.67969 0.89844,-0.97266 1.77734,-1.91797 2.55859,-2.85547 -0.88281,0.0234 -1.91015,0.0391 -3.11328,0.0547 -0.80078,0.0156 -1.41406,0.0195 -1.6289,0.0352 l -6.48047,0.45703 c -2.46485,0.17578 -4.92969,0.35156 -7.39453,0.52343 -8.78907,0.60547 -18.242191,1.21875 -27.820316,1.57813 -11.328125,0.42187 -26.144531,0.32031 -40.242188,-4.23047 -2.761718,-0.89062 -6.339843,-2.20703 -9.519531,-4.48828 -5.734375,-4.10156 -8.5,-10.73047 -7.785156,-18.65625 0.753906,-8.37109 25.628906,-62.2461 39.90625,-92.61328 l 0.40625,5.20703 h 51.507811 c 9.35938,-13.27734 24.80078,-21.960939 42.27734,-21.960939 17.48047,0 32.92188,8.683599 42.28126,21.960939 h 51.35156 l 0.8789,-12.45313 c 1,2.36329 2.66407,6.9375 5.67188,16.01563 1.41016,4.25781 14.23047,43.625 18.79687,59.59766 2.57032,8.98828 4.75,18.08593 6.42188,27.28125 0.54687,3.01562 1.04297,6.11718 1.28906,9.22265 0.5586,7.08985 -0.1875,14.17969 -4.61719,20.20313 z m -80.71875,-147.265629 -82.98046,0.1875 7.48437,-12.777343 c 1.30859,-2.238282 3.07812,-3.5 4.91406,-3.5 h 58.61328 c 1.83204,0 3.57422,1.261718 4.84375,3.5 l 7.125,12.589843"
         style="display:inline;fill:#203572;fill-opacity:1;fill-rule:nonzero;stroke:none;filter:url(#filter12425)"
         id="path1271"
         transform="matrix(0.31216222,0,0,0.31215817,1.6014982,-1.9172404)" /><path
         d="m 195.09766,149.58984 c 0.0508,18.85938 -15.19532,34.1875 -34.05079,34.23438 -18.85546,0.0547 -34.18359,-15.19141 -34.23437,-34.05078 -0.0508,-18.85547 15.19531,-34.1836 34.05078,-34.23438 18.85938,-0.0508 34.1836,15.19531 34.23438,34.05078"
         style="display:inline;fill:#ffffff;fill-opacity:1;fill-rule:nonzero;stroke:none;filter:url(#filter12425)"
         id="path1273"
         transform="matrix(0.31216222,0,0,0.31215817,1.6014982,-1.9172404)" /><path
         d="m 175.85938,151.86719 -2.39844,2.60547 -5.82422,6.32812 -3.4336,3.72656 c -1.32031,1.4375 -3.55078,1.52735 -4.98828,0.20703 l -3.73047,-3.42968 -8.92968,-8.22266 -0.375,-0.34375 0.0195,-0.0156 c -3.12891,-3.24219 -3.23828,-8.4375 -0.15235,-11.79297 3.08985,-3.35157 8.27344,-3.67578 11.76172,-0.82422 l 0.0195,-0.0195 0.37109,0.33984 2.60547,2.39844 2.39843,-2.60547 c 3.20313,-3.48047 8.66797,-3.70703 12.14844,-0.50391 3.48047,3.20313 3.71094,8.67188 0.50782,12.15235"
         style="display:inline;fill:#ffce01;fill-opacity:1;fill-rule:nonzero;stroke:none;filter:url(#filter12425)"
         id="path1275"
         transform="matrix(0.31216222,0,0,0.31215817,1.6014982,-1.9172404)" /></g></g></svg>
